<?xml version="1.0" encoding="UTF-8" standalone="no"?>
<!DOCTYPE svg PUBLIC "-//W3C//DTD SVG 1.1//EN" "http://www.w3.org/Graphics/SVG/1.1/DTD/svg11.dtd">
<svg xmlns="http://www.w3.org/2000/svg" xmlns:xlink="http://www.w3.org/1999/xlink" version="1.1" width="840pt" height="500pt" viewBox="0 0 840 500">
<g>
<clipPath id="cp0">
<path transform="matrix(.24,0,0,.24,0,0)" d="M 120.83333 120.83333 L 3391.6666 120.83333 L 3391.6666 4845.7185 L 120.83333 4845.7185 Z " fill-rule="evenodd"/>
</clipPath>

<clipPath id="cp1">
<path transform="matrix(.24,0,0,.24,0,0)" d="M 145.84926 145.84926 L 786.88259 145.84926 L 786.88259 785.8095 L 145.84926 785.8095 Z " fill-rule="evenodd"/>
</clipPath>
<g clip-path="url(#cp1)">
<path transform="matrix(.43880389,0,0,.43633653,35.225194,35.003824)" stroke-width="3.5" stroke-linecap="round" stroke-linejoin="round" fill="none" stroke="#000000" d="M 44.8 304.66 L 304.67 304.66 "/>
<path transform="matrix(.43880389,0,0,.43633653,35.225194,35.003824)" stroke-width="3.5" stroke-linecap="round" stroke-linejoin="round" fill="none" stroke="#000000" d="M 304.67 304.66 L 304.67 44.792 "/>
<path transform="matrix(.43880389,0,0,.43633653,35.225194,35.003824)" stroke-width="3.5" stroke-linecap="round" stroke-linejoin="round" fill="none" stroke="#000000" d="M 304.67 44.792 L 44.8 44.792 "/>
<path transform="matrix(.43880389,0,0,.43633653,35.225194,35.003824)" stroke-width="3.5" stroke-linecap="round" stroke-linejoin="round" fill="none" stroke="#000000" d="M 44.8 44.792 L 44.8 304.66 "/>
<path transform="matrix(.43880389,0,0,.43633653,35.225194,35.003824)" d="M 43.56257 303.42259 L 51.69433 295.2909 L 54.16919 297.76576 L 46.03743 305.89744 M 57.351205 289.63404 L 65.48296 281.50236 L 67.95783 283.9772 L 59.826066 292.1089 M 71.13984 275.84553 L 79.2716 267.7138 L 81.74647 270.18867 L 73.61471 278.32038 M 84.928478 262.05699 L 93.060237 253.92528 L 95.5351 256.40016 L 87.40334 264.53184 M 98.71711 248.26845 L 106.84887 240.13675 L 109.32374 242.61164 L 101.19198 250.74333 M 112.505748 234.4799 L 120.637508 226.34822 L 123.11237 228.8231 L 114.98061 236.95479 M 126.29438 220.69139 L 134.42615 212.55968 L 136.901 215.03456 L 128.76924 223.16628 M 140.08303 206.90285 L 148.21479 198.77117 L 150.68964 201.24605 L 142.55788 209.37773 M 153.87166 193.11434 L 162.00342 184.98262 L 164.47827 187.4575 L 156.34651 195.58922 M 167.66031 179.32579 L 175.79207 171.19409 L 178.26692 173.66898 L 170.13516 181.80068 M 181.44895 165.53726 L 189.5807 157.40557 L 192.05556 159.88045 L 183.9238 168.01215 M 195.23758 151.74874 L 203.36934 143.61704 L 205.8442 146.09192 L 197.71244 154.22362 M 209.02622 137.9602 L 217.15798 129.8285 L 219.63283 132.30339 L 211.50107 140.43509 M 222.81485 124.17168 L 230.94661 116.03998 L 233.42147 118.51486 L 225.2897 126.64656 M 236.60349 110.38315 L 244.73525 102.25145 L 247.2101 104.72633 L 239.07834 112.85803 M 250.39212 96.59462 L 258.52388 88.46292 L 260.99873 90.937808 L 252.86698 99.0695 M 264.18077 82.80609 L 272.3125 74.67439 L 274.78736 77.14928 L 266.6556 85.280979 M 277.9694 69.01756 L 286.10118 60.885866 L 288.57603 63.36075 L 280.44425 71.49245 M 291.75804 55.229036 L 299.88978 47.097337 L 302.36463 49.57222 L 294.23289 57.70392 "/>
<path transform="matrix(.43880389,0,0,.43633653,35.225194,35.003824)" stroke-width="1.5" stroke-linecap="round" stroke-linejoin="round" fill="none" stroke="#000000" d="M 44.8 239.69 L 304.67 239.69 "/>
<path transform="matrix(.43880389,0,0,.43633653,35.225194,35.003824)" stroke-width="1.5" stroke-linecap="round" stroke-linejoin="round" fill="none" stroke="#000000" d="M 44.8 174.73 L 304.67 174.73 "/>
<path transform="matrix(.43880389,0,0,.43633653,35.225194,35.003824)" stroke-width="1.5" stroke-linecap="round" stroke-linejoin="round" fill="none" stroke="#000000" d="M 44.8 109.76 L 304.67 109.76 "/>
<path transform="matrix(.43880389,0,0,.43633653,35.225194,35.003824)" stroke-width="1.5" stroke-linecap="round" stroke-linejoin="round" fill="none" stroke="#000000" d="M 109.77 44.792 L 109.77 304.66 "/>
<path transform="matrix(.43880389,0,0,.43633653,35.225194,35.003824)" stroke-width="1.5" stroke-linecap="round" stroke-linejoin="round" fill="none" stroke="#000000" d="M 174.73 44.792 L 174.73 304.66 "/>
<path transform="matrix(.43880389,0,0,.43633653,35.225194,35.003824)" stroke-width="1.5" stroke-linecap="round" stroke-linejoin="round" fill="none" stroke="#000000" d="M 239.7 44.792 L 239.7 304.66 "/>
<path transform="matrix(.43880389,0,0,.43633653,35.225194,35.003824)" stroke-width="3.5" stroke-linecap="round" stroke-linejoin="round" fill="none" stroke="#0000ff" d="M 44.8 304.66 L 90.768 304.66 "/>
<path transform="matrix(.43880389,0,0,.43633653,35.225194,35.003824)" d="M 109.77 304.66 L 90.768 309.41 L 90.768 299.91 L 109.77 304.66 Z " fill="#0000ff" fill-rule="evenodd"/>
<path transform="matrix(.43880389,0,0,.43633653,35.225194,35.003824)" stroke-width="3.5" stroke-linecap="round" stroke-linejoin="round" fill="none" stroke="#0000ff" d="M 109.77 304.66 L 155.73 304.66 "/>
<path transform="matrix(.43880389,0,0,.43633653,35.225194,35.003824)" d="M 174.73 304.66 L 155.73 309.41 L 155.73 299.91 L 174.73 304.66 Z " fill="#0000ff" fill-rule="evenodd"/>
<path transform="matrix(.43880389,0,0,.43633653,35.225194,35.003824)" stroke-width="3.5" stroke-linecap="round" stroke-linejoin="round" fill="none" stroke="#0000ff" d="M 174.73 304.66 L 220.7 304.66 "/>
<path transform="matrix(.43880389,0,0,.43633653,35.225194,35.003824)" d="M 239.7 304.66 L 220.7 309.41 L 220.7 299.91 L 239.7 304.66 Z " fill="#0000ff" fill-rule="evenodd"/>
<path transform="matrix(.43880389,0,0,.43633653,35.225194,35.003824)" stroke-width="3.5" stroke-linecap="round" stroke-linejoin="round" fill="none" stroke="#0000ff" d="M 239.7 304.66 L 285.67 304.66 "/>
<path transform="matrix(.43880389,0,0,.43633653,35.225194,35.003824)" d="M 304.67 304.66 L 285.67 309.41 L 285.67 299.91 L 304.67 304.66 Z " fill="#0000ff" fill-rule="evenodd"/>
<path transform="matrix(.43880389,0,0,.43633653,35.225194,35.003824)" stroke-width="3.5" stroke-linecap="round" stroke-linejoin="round" fill="none" stroke="#0000ff" d="M 304.67 304.66 L 304.67 258.69 "/>
<path transform="matrix(.43880389,0,0,.43633653,35.225194,35.003824)" d="M 304.67 239.69 L 309.42 258.69 L 299.92 258.69 L 304.67 239.69 Z " fill="#0000ff" fill-rule="evenodd"/>
<path transform="matrix(.43880389,0,0,.43633653,35.225194,35.003824)" stroke-width="3.5" stroke-linecap="round" stroke-linejoin="round" fill="none" stroke="#0000ff" d="M 304.67 239.69 L 304.67 193.73 "/>
<path transform="matrix(.43880389,0,0,.43633653,35.225194,35.003824)" d="M 304.67 174.73 L 309.42 193.73 L 299.92 193.73 L 304.67 174.73 Z " fill="#0000ff" fill-rule="evenodd"/>
<path transform="matrix(.43880389,0,0,.43633653,35.225194,35.003824)" stroke-width="3.5" stroke-linecap="round" stroke-linejoin="round" fill="none" stroke="#0000ff" d="M 304.67 174.73 L 304.67 128.76 "/>
<path transform="matrix(.43880389,0,0,.43633653,35.225194,35.003824)" d="M 304.67 109.76 L 309.42 128.76 L 299.92 128.76 L 304.67 109.76 Z " fill="#0000ff" fill-rule="evenodd"/>
<path transform="matrix(.43880389,0,0,.43633653,35.225194,35.003824)" stroke-width="3.5" stroke-linecap="round" stroke-linejoin="round" fill="none" stroke="#0000ff" d="M 304.67 109.76 L 304.67 63.792 "/>
<path transform="matrix(.43880389,0,0,.43633653,35.225194,35.003824)" d="M 304.67 44.792 L 309.42 63.792 L 299.92 63.792 L 304.67 44.792 Z " fill="#0000ff" fill-rule="evenodd"/>
</g>
<clipPath id="cp2">
<path transform="matrix(.24,0,0,.24,0,0)" d="M 786.88259 145.84926 L 1427.9159 145.84926 L 1427.9159 785.8095 L 786.88259 785.8095 Z " fill-rule="evenodd"/>
</clipPath>
<g clip-path="url(#cp2)">
<path transform="matrix(.43880389,0,0,.43633653,189.07318,35.003824)" stroke-width="3.5" stroke-linecap="round" stroke-linejoin="round" fill="none" stroke="#000000" d="M 44.8 304.66 L 304.67 304.66 "/>
<path transform="matrix(.43880389,0,0,.43633653,189.07318,35.003824)" stroke-width="3.5" stroke-linecap="round" stroke-linejoin="round" fill="none" stroke="#000000" d="M 304.67 304.66 L 304.67 44.792 "/>
<path transform="matrix(.43880389,0,0,.43633653,189.07318,35.003824)" stroke-width="3.5" stroke-linecap="round" stroke-linejoin="round" fill="none" stroke="#000000" d="M 304.67 44.792 L 44.8 44.792 "/>
<path transform="matrix(.43880389,0,0,.43633653,189.07318,35.003824)" stroke-width="3.5" stroke-linecap="round" stroke-linejoin="round" fill="none" stroke="#000000" d="M 44.8 44.792 L 44.8 304.66 "/>
<path transform="matrix(.43880389,0,0,.43633653,189.07318,35.003824)" d="M 43.56257 303.42259 L 51.69433 295.2909 L 54.16919 297.76576 L 46.03743 305.89744 M 57.351205 289.63404 L 65.48296 281.50236 L 67.95783 283.9772 L 59.826066 292.1089 M 71.13984 275.84553 L 79.2716 267.7138 L 81.74647 270.18867 L 73.61471 278.32038 M 84.928478 262.05699 L 93.060237 253.92528 L 95.5351 256.40016 L 87.40334 264.53184 M 98.71711 248.26845 L 106.84887 240.13675 L 109.32374 242.61164 L 101.19198 250.74333 M 112.505748 234.4799 L 120.637508 226.34822 L 123.11237 228.8231 L 114.98061 236.95479 M 126.29438 220.69139 L 134.42615 212.55968 L 136.901 215.03456 L 128.76924 223.16628 M 140.08303 206.90285 L 148.21479 198.77117 L 150.68964 201.24605 L 142.55788 209.37773 M 153.87166 193.11434 L 162.00342 184.98262 L 164.47827 187.4575 L 156.34651 195.58922 M 167.66031 179.32579 L 175.79207 171.19409 L 178.26692 173.66898 L 170.13516 181.80068 M 181.44895 165.53726 L 189.5807 157.40557 L 192.05556 159.88045 L 183.9238 168.01215 M 195.23758 151.74874 L 203.36934 143.61704 L 205.8442 146.09192 L 197.71244 154.22362 M 209.02622 137.9602 L 217.15798 129.8285 L 219.63283 132.30339 L 211.50107 140.43509 M 222.81485 124.17168 L 230.94661 116.03998 L 233.42147 118.51486 L 225.2897 126.64656 M 236.60349 110.38315 L 244.73525 102.25145 L 247.2101 104.72633 L 239.07834 112.85803 M 250.39212 96.59462 L 258.52388 88.46292 L 260.99873 90.937808 L 252.86698 99.0695 M 264.18077 82.80609 L 272.3125 74.67439 L 274.78736 77.14928 L 266.6556 85.280979 M 277.9694 69.01756 L 286.10118 60.885866 L 288.57603 63.36075 L 280.44425 71.49245 M 291.75804 55.229036 L 299.88978 47.097337 L 302.36463 49.57222 L 294.23289 57.70392 "/>
<path transform="matrix(.43880389,0,0,.43633653,189.07318,35.003824)" stroke-width="1.5" stroke-linecap="round" stroke-linejoin="round" fill="none" stroke="#000000" d="M 44.8 239.69 L 304.67 239.69 "/>
<path transform="matrix(.43880389,0,0,.43633653,189.07318,35.003824)" stroke-width="1.5" stroke-linecap="round" stroke-linejoin="round" fill="none" stroke="#000000" d="M 44.8 174.73 L 304.67 174.73 "/>
<path transform="matrix(.43880389,0,0,.43633653,189.07318,35.003824)" stroke-width="1.5" stroke-linecap="round" stroke-linejoin="round" fill="none" stroke="#000000" d="M 44.8 109.76 L 304.67 109.76 "/>
<path transform="matrix(.43880389,0,0,.43633653,189.07318,35.003824)" stroke-width="1.5" stroke-linecap="round" stroke-linejoin="round" fill="none" stroke="#000000" d="M 109.77 44.792 L 109.77 304.66 "/>
<path transform="matrix(.43880389,0,0,.43633653,189.07318,35.003824)" stroke-width="1.5" stroke-linecap="round" stroke-linejoin="round" fill="none" stroke="#000000" d="M 174.73 44.792 L 174.73 304.66 "/>
<path transform="matrix(.43880389,0,0,.43633653,189.07318,35.003824)" stroke-width="1.5" stroke-linecap="round" stroke-linejoin="round" fill="none" stroke="#000000" d="M 239.7 44.792 L 239.7 304.66 "/>
<path transform="matrix(.43880389,0,0,.43633653,189.07318,35.003824)" stroke-width="3.5" stroke-linecap="round" stroke-linejoin="round" fill="none" stroke="#0000ff" d="M 44.8 304.66 L 90.768 304.66 "/>
<path transform="matrix(.43880389,0,0,.43633653,189.07318,35.003824)" d="M 109.77 304.66 L 90.768 309.41 L 90.768 299.91 L 109.77 304.66 Z " fill="#0000ff" fill-rule="evenodd"/>
<path transform="matrix(.43880389,0,0,.43633653,189.07318,35.003824)" stroke-width="3.5" stroke-linecap="round" stroke-linejoin="round" fill="none" stroke="#0000ff" d="M 109.77 304.66 L 155.73 304.66 "/>
<path transform="matrix(.43880389,0,0,.43633653,189.07318,35.003824)" d="M 174.73 304.66 L 155.73 309.41 L 155.73 299.91 L 174.73 304.66 Z " fill="#0000ff" fill-rule="evenodd"/>
<path transform="matrix(.43880389,0,0,.43633653,189.07318,35.003824)" stroke-width="3.5" stroke-linecap="round" stroke-linejoin="round" fill="none" stroke="#0000ff" d="M 174.73 304.66 L 220.7 304.66 "/>
<path transform="matrix(.43880389,0,0,.43633653,189.07318,35.003824)" d="M 239.7 304.66 L 220.7 309.41 L 220.7 299.91 L 239.7 304.66 Z " fill="#0000ff" fill-rule="evenodd"/>
<path transform="matrix(.43880389,0,0,.43633653,189.07318,35.003824)" stroke-width="3.5" stroke-linecap="round" stroke-linejoin="round" fill="none" stroke="#0000ff" d="M 239.7 304.66 L 239.7 258.69 "/>
<path transform="matrix(.43880389,0,0,.43633653,189.07318,35.003824)" d="M 239.7 239.69 L 244.45 258.69 L 234.95 258.69 L 239.7 239.69 Z " fill="#0000ff" fill-rule="evenodd"/>
<path transform="matrix(.43880389,0,0,.43633653,189.07318,35.003824)" stroke-width="3.5" stroke-linecap="round" stroke-linejoin="round" fill="none" stroke="#0000ff" d="M 239.7 239.69 L 285.67 239.69 "/>
<path transform="matrix(.43880389,0,0,.43633653,189.07318,35.003824)" d="M 304.67 239.69 L 285.67 244.44 L 285.67 234.94 L 304.67 239.69 Z " fill="#0000ff" fill-rule="evenodd"/>
<path transform="matrix(.43880389,0,0,.43633653,189.07318,35.003824)" stroke-width="3.5" stroke-linecap="round" stroke-linejoin="round" fill="none" stroke="#0000ff" d="M 304.67 239.69 L 304.67 193.73 "/>
<path transform="matrix(.43880389,0,0,.43633653,189.07318,35.003824)" d="M 304.67 174.73 L 309.42 193.73 L 299.92 193.73 L 304.67 174.73 Z " fill="#0000ff" fill-rule="evenodd"/>
<path transform="matrix(.43880389,0,0,.43633653,189.07318,35.003824)" stroke-width="3.5" stroke-linecap="round" stroke-linejoin="round" fill="none" stroke="#0000ff" d="M 304.67 174.73 L 304.67 128.76 "/>
<path transform="matrix(.43880389,0,0,.43633653,189.07318,35.003824)" d="M 304.67 109.76 L 309.42 128.76 L 299.92 128.76 L 304.67 109.76 Z " fill="#0000ff" fill-rule="evenodd"/>
<path transform="matrix(.43880389,0,0,.43633653,189.07318,35.003824)" stroke-width="3.5" stroke-linecap="round" stroke-linejoin="round" fill="none" stroke="#0000ff" d="M 304.67 109.76 L 304.67 63.792 "/>
<path transform="matrix(.43880389,0,0,.43633653,189.07318,35.003824)" d="M 304.67 44.792 L 309.42 63.792 L 299.92 63.792 L 304.67 44.792 Z " fill="#0000ff" fill-rule="evenodd"/>
</g>
<clipPath id="cp3">
<path transform="matrix(.24,0,0,.24,0,0)" d="M 1427.9159 145.84926 L 2065.8223 145.84926 L 2065.8223 785.8095 L 1427.9159 785.8095 Z " fill-rule="evenodd"/>
</clipPath>
<g clip-path="url(#cp3)">
<path transform="matrix(.43666334,0,0,.43633653,342.9201,35.003824)" stroke-width="3.5" stroke-linecap="round" stroke-linejoin="round" fill="none" stroke="#000000" d="M 44.8 304.66 L 304.67 304.66 "/>
<path transform="matrix(.43666334,0,0,.43633653,342.9201,35.003824)" stroke-width="3.5" stroke-linecap="round" stroke-linejoin="round" fill="none" stroke="#000000" d="M 304.67 304.66 L 304.67 44.792 "/>
<path transform="matrix(.43666334,0,0,.43633653,342.9201,35.003824)" stroke-width="3.5" stroke-linecap="round" stroke-linejoin="round" fill="none" stroke="#000000" d="M 304.67 44.792 L 44.8 44.792 "/>
<path transform="matrix(.43666334,0,0,.43633653,342.9201,35.003824)" stroke-width="3.5" stroke-linecap="round" stroke-linejoin="round" fill="none" stroke="#000000" d="M 44.8 44.792 L 44.8 304.66 "/>
<path transform="matrix(.43666334,0,0,.43633653,342.9201,35.003824)" d="M 43.56257 303.42259 L 51.69433 295.2909 L 54.16919 297.76576 L 46.03743 305.89744 M 57.351205 289.63404 L 65.48296 281.50236 L 67.95783 283.9772 L 59.826066 292.1089 M 71.13984 275.84553 L 79.2716 267.7138 L 81.74647 270.18867 L 73.61471 278.32038 M 84.928478 262.05699 L 93.060237 253.92528 L 95.5351 256.40016 L 87.40334 264.53184 M 98.71711 248.26845 L 106.84887 240.13675 L 109.32374 242.61164 L 101.19198 250.74333 M 112.505748 234.4799 L 120.637508 226.34822 L 123.11237 228.8231 L 114.98061 236.95479 M 126.29438 220.69139 L 134.42615 212.55968 L 136.901 215.03456 L 128.76924 223.16628 M 140.08303 206.90285 L 148.21479 198.77117 L 150.68964 201.24605 L 142.55788 209.37773 M 153.87166 193.11434 L 162.00342 184.98262 L 164.47827 187.4575 L 156.34651 195.58922 M 167.66031 179.32579 L 175.79207 171.19409 L 178.26692 173.66898 L 170.13516 181.80068 M 181.44895 165.53726 L 189.5807 157.40557 L 192.05556 159.88045 L 183.9238 168.01215 M 195.23758 151.74874 L 203.36934 143.61704 L 205.8442 146.09192 L 197.71244 154.22362 M 209.02622 137.9602 L 217.15798 129.8285 L 219.63283 132.30339 L 211.50107 140.43509 M 222.81485 124.17168 L 230.94661 116.03998 L 233.42147 118.51486 L 225.2897 126.64656 M 236.60349 110.38315 L 244.73525 102.25145 L 247.2101 104.72633 L 239.07834 112.85803 M 250.39212 96.59462 L 258.52388 88.46292 L 260.99873 90.937808 L 252.86698 99.0695 M 264.18077 82.80609 L 272.3125 74.67439 L 274.78736 77.14928 L 266.6556 85.280979 M 277.9694 69.01756 L 286.10118 60.885866 L 288.57603 63.36075 L 280.44425 71.49245 M 291.75804 55.229036 L 299.88978 47.097337 L 302.36463 49.57222 L 294.23289 57.70392 "/>
<path transform="matrix(.43666334,0,0,.43633653,342.9201,35.003824)" stroke-width="1.5" stroke-linecap="round" stroke-linejoin="round" fill="none" stroke="#000000" d="M 44.8 239.69 L 304.67 239.69 "/>
<path transform="matrix(.43666334,0,0,.43633653,342.9201,35.003824)" stroke-width="1.5" stroke-linecap="round" stroke-linejoin="round" fill="none" stroke="#000000" d="M 44.8 174.73 L 304.67 174.73 "/>
<path transform="matrix(.43666334,0,0,.43633653,342.9201,35.003824)" stroke-width="1.5" stroke-linecap="round" stroke-linejoin="round" fill="none" stroke="#000000" d="M 44.8 109.76 L 304.67 109.76 "/>
<path transform="matrix(.43666334,0,0,.43633653,342.9201,35.003824)" stroke-width="1.5" stroke-linecap="round" stroke-linejoin="round" fill="none" stroke="#000000" d="M 109.77 44.792 L 109.77 304.66 "/>
<path transform="matrix(.43666334,0,0,.43633653,342.9201,35.003824)" stroke-width="1.5" stroke-linecap="round" stroke-linejoin="round" fill="none" stroke="#000000" d="M 174.73 44.792 L 174.73 304.66 "/>
<path transform="matrix(.43666334,0,0,.43633653,342.9201,35.003824)" stroke-width="1.5" stroke-linecap="round" stroke-linejoin="round" fill="none" stroke="#000000" d="M 239.7 44.792 L 239.7 304.66 "/>
<path transform="matrix(.43666334,0,0,.43633653,342.9201,35.003824)" stroke-width="3.5" stroke-linecap="round" stroke-linejoin="round" fill="none" stroke="#0000ff" d="M 44.8 304.66 L 90.768 304.66 "/>
<path transform="matrix(.43666334,0,0,.43633653,342.9201,35.003824)" d="M 109.77 304.66 L 90.768 309.41 L 90.768 299.91 L 109.77 304.66 Z " fill="#0000ff" fill-rule="evenodd"/>
<path transform="matrix(.43666334,0,0,.43633653,342.9201,35.003824)" stroke-width="3.5" stroke-linecap="round" stroke-linejoin="round" fill="none" stroke="#0000ff" d="M 109.77 304.66 L 155.73 304.66 "/>
<path transform="matrix(.43666334,0,0,.43633653,342.9201,35.003824)" d="M 174.73 304.66 L 155.73 309.41 L 155.73 299.91 L 174.73 304.66 Z " fill="#0000ff" fill-rule="evenodd"/>
<path transform="matrix(.43666334,0,0,.43633653,342.9201,35.003824)" stroke-width="3.5" stroke-linecap="round" stroke-linejoin="round" fill="none" stroke="#0000ff" d="M 174.73 304.66 L 220.7 304.66 "/>
<path transform="matrix(.43666334,0,0,.43633653,342.9201,35.003824)" d="M 239.7 304.66 L 220.7 309.41 L 220.7 299.91 L 239.7 304.66 Z " fill="#0000ff" fill-rule="evenodd"/>
<path transform="matrix(.43666334,0,0,.43633653,342.9201,35.003824)" stroke-width="3.5" stroke-linecap="round" stroke-linejoin="round" fill="none" stroke="#0000ff" d="M 239.7 304.66 L 239.7 258.69 "/>
<path transform="matrix(.43666334,0,0,.43633653,342.9201,35.003824)" d="M 239.7 239.69 L 244.45 258.69 L 234.95 258.69 L 239.7 239.69 Z " fill="#0000ff" fill-rule="evenodd"/>
<path transform="matrix(.43666334,0,0,.43633653,342.9201,35.003824)" stroke-width="3.5" stroke-linecap="round" stroke-linejoin="round" fill="none" stroke="#0000ff" d="M 239.7 239.69 L 239.7 193.73 "/>
<path transform="matrix(.43666334,0,0,.43633653,342.9201,35.003824)" d="M 239.7 174.73 L 244.45 193.73 L 234.95 193.73 L 239.7 174.73 Z " fill="#0000ff" fill-rule="evenodd"/>
<path transform="matrix(.43666334,0,0,.43633653,342.9201,35.003824)" stroke-width="3.5" stroke-linecap="round" stroke-linejoin="round" fill="none" stroke="#0000ff" d="M 239.7 174.73 L 285.67 174.73 "/>
<path transform="matrix(.43666334,0,0,.43633653,342.9201,35.003824)" d="M 304.67 174.73 L 285.67 179.48 L 285.67 169.98 L 304.67 174.73 Z " fill="#0000ff" fill-rule="evenodd"/>
<path transform="matrix(.43666334,0,0,.43633653,342.9201,35.003824)" stroke-width="3.5" stroke-linecap="round" stroke-linejoin="round" fill="none" stroke="#0000ff" d="M 304.67 174.73 L 304.67 128.76 "/>
<path transform="matrix(.43666334,0,0,.43633653,342.9201,35.003824)" d="M 304.67 109.76 L 309.42 128.76 L 299.92 128.76 L 304.67 109.76 Z " fill="#0000ff" fill-rule="evenodd"/>
<path transform="matrix(.43666334,0,0,.43633653,342.9201,35.003824)" stroke-width="3.5" stroke-linecap="round" stroke-linejoin="round" fill="none" stroke="#0000ff" d="M 304.67 109.76 L 304.67 63.792 "/>
<path transform="matrix(.43666334,0,0,.43633653,342.9201,35.003824)" d="M 304.67 44.792 L 309.42 63.792 L 299.92 63.792 L 304.67 44.792 Z " fill="#0000ff" fill-rule="evenodd"/>
</g>
<clipPath id="cp4">
<path transform="matrix(.24,0,0,.24,0,0)" d="M 2065.8223 145.84926 L 2706.8555 145.84926 L 2706.8555 785.8095 L 2065.8223 785.8095 Z " fill-rule="evenodd"/>
</clipPath>
<g clip-path="url(#cp4)">
<path transform="matrix(.43880389,0,0,.43633653,496.0187,35.003824)" stroke-width="3.5" stroke-linecap="round" stroke-linejoin="round" fill="none" stroke="#000000" d="M 44.8 304.66 L 304.67 304.66 "/>
<path transform="matrix(.43880389,0,0,.43633653,496.0187,35.003824)" stroke-width="3.5" stroke-linecap="round" stroke-linejoin="round" fill="none" stroke="#000000" d="M 304.67 304.66 L 304.67 44.792 "/>
<path transform="matrix(.43880389,0,0,.43633653,496.0187,35.003824)" stroke-width="3.5" stroke-linecap="round" stroke-linejoin="round" fill="none" stroke="#000000" d="M 304.67 44.792 L 44.8 44.792 "/>
<path transform="matrix(.43880389,0,0,.43633653,496.0187,35.003824)" stroke-width="3.5" stroke-linecap="round" stroke-linejoin="round" fill="none" stroke="#000000" d="M 44.8 44.792 L 44.8 304.66 "/>
<path transform="matrix(.43880389,0,0,.43633653,496.0187,35.003824)" d="M 43.56257 303.42259 L 51.69433 295.2909 L 54.16919 297.76576 L 46.03743 305.89744 M 57.351205 289.63404 L 65.48296 281.50236 L 67.95783 283.9772 L 59.826066 292.1089 M 71.13984 275.84553 L 79.2716 267.7138 L 81.74647 270.18867 L 73.61471 278.32038 M 84.928478 262.05699 L 93.060237 253.92528 L 95.5351 256.40016 L 87.40334 264.53184 M 98.71711 248.26845 L 106.84887 240.13675 L 109.32374 242.61164 L 101.19198 250.74333 M 112.505748 234.4799 L 120.637508 226.34822 L 123.11237 228.8231 L 114.98061 236.95479 M 126.29438 220.69139 L 134.42615 212.55968 L 136.901 215.03456 L 128.76924 223.16628 M 140.08303 206.90285 L 148.21479 198.77117 L 150.68964 201.24605 L 142.55788 209.37773 M 153.87166 193.11434 L 162.00342 184.98262 L 164.47827 187.4575 L 156.34651 195.58922 M 167.66031 179.32579 L 175.79207 171.19409 L 178.26692 173.66898 L 170.13516 181.80068 M 181.44895 165.53726 L 189.5807 157.40557 L 192.05556 159.88045 L 183.9238 168.01215 M 195.23758 151.74874 L 203.36934 143.61704 L 205.8442 146.09192 L 197.71244 154.22362 M 209.02622 137.9602 L 217.15798 129.8285 L 219.63283 132.30339 L 211.50107 140.43509 M 222.81485 124.17168 L 230.94661 116.03998 L 233.42147 118.51486 L 225.2897 126.64656 M 236.60349 110.38315 L 244.73525 102.25145 L 247.2101 104.72633 L 239.07834 112.85803 M 250.39212 96.59462 L 258.52388 88.46292 L 260.99873 90.937808 L 252.86698 99.0695 M 264.18077 82.80609 L 272.3125 74.67439 L 274.78736 77.14928 L 266.6556 85.280979 M 277.9694 69.01756 L 286.10118 60.885866 L 288.57603 63.36075 L 280.44425 71.49245 M 291.75804 55.229036 L 299.88978 47.097337 L 302.36463 49.57222 L 294.23289 57.70392 "/>
<path transform="matrix(.43880389,0,0,.43633653,496.0187,35.003824)" stroke-width="1.5" stroke-linecap="round" stroke-linejoin="round" fill="none" stroke="#000000" d="M 44.8 239.69 L 304.67 239.69 "/>
<path transform="matrix(.43880389,0,0,.43633653,496.0187,35.003824)" stroke-width="1.5" stroke-linecap="round" stroke-linejoin="round" fill="none" stroke="#000000" d="M 44.8 174.73 L 304.67 174.73 "/>
<path transform="matrix(.43880389,0,0,.43633653,496.0187,35.003824)" stroke-width="1.5" stroke-linecap="round" stroke-linejoin="round" fill="none" stroke="#000000" d="M 44.8 109.76 L 304.67 109.76 "/>
<path transform="matrix(.43880389,0,0,.43633653,496.0187,35.003824)" stroke-width="1.5" stroke-linecap="round" stroke-linejoin="round" fill="none" stroke="#000000" d="M 109.77 44.792 L 109.77 304.66 "/>
<path transform="matrix(.43880389,0,0,.43633653,496.0187,35.003824)" stroke-width="1.5" stroke-linecap="round" stroke-linejoin="round" fill="none" stroke="#000000" d="M 174.73 44.792 L 174.73 304.66 "/>
<path transform="matrix(.43880389,0,0,.43633653,496.0187,35.003824)" stroke-width="1.5" stroke-linecap="round" stroke-linejoin="round" fill="none" stroke="#000000" d="M 239.7 44.792 L 239.7 304.66 "/>
<path transform="matrix(.43880389,0,0,.43633653,496.0187,35.003824)" stroke-width="3.5" stroke-linecap="round" stroke-linejoin="round" fill="none" stroke="#0000ff" d="M 44.8 304.66 L 90.768 304.66 "/>
<path transform="matrix(.43880389,0,0,.43633653,496.0187,35.003824)" d="M 109.77 304.66 L 90.768 309.41 L 90.768 299.91 L 109.77 304.66 Z " fill="#0000ff" fill-rule="evenodd"/>
<path transform="matrix(.43880389,0,0,.43633653,496.0187,35.003824)" stroke-width="3.5" stroke-linecap="round" stroke-linejoin="round" fill="none" stroke="#0000ff" d="M 109.77 304.66 L 155.73 304.66 "/>
<path transform="matrix(.43880389,0,0,.43633653,496.0187,35.003824)" d="M 174.73 304.66 L 155.73 309.41 L 155.73 299.91 L 174.73 304.66 Z " fill="#0000ff" fill-rule="evenodd"/>
<path transform="matrix(.43880389,0,0,.43633653,496.0187,35.003824)" stroke-width="3.5" stroke-linecap="round" stroke-linejoin="round" fill="none" stroke="#0000ff" d="M 174.73 304.66 L 174.73 258.69 "/>
<path transform="matrix(.43880389,0,0,.43633653,496.0187,35.003824)" d="M 174.73 239.69 L 179.48 258.69 L 169.98 258.69 L 174.73 239.69 Z " fill="#0000ff" fill-rule="evenodd"/>
<path transform="matrix(.43880389,0,0,.43633653,496.0187,35.003824)" stroke-width="3.5" stroke-linecap="round" stroke-linejoin="round" fill="none" stroke="#0000ff" d="M 174.73 239.69 L 220.7 239.69 "/>
<path transform="matrix(.43880389,0,0,.43633653,496.0187,35.003824)" d="M 239.7 239.69 L 220.7 244.44 L 220.7 234.94 L 239.7 239.69 Z " fill="#0000ff" fill-rule="evenodd"/>
<path transform="matrix(.43880389,0,0,.43633653,496.0187,35.003824)" stroke-width="3.5" stroke-linecap="round" stroke-linejoin="round" fill="none" stroke="#0000ff" d="M 239.7 239.69 L 285.67 239.69 "/>
<path transform="matrix(.43880389,0,0,.43633653,496.0187,35.003824)" d="M 304.67 239.69 L 285.67 244.44 L 285.67 234.94 L 304.67 239.69 Z " fill="#0000ff" fill-rule="evenodd"/>
<path transform="matrix(.43880389,0,0,.43633653,496.0187,35.003824)" stroke-width="3.5" stroke-linecap="round" stroke-linejoin="round" fill="none" stroke="#0000ff" d="M 304.67 239.69 L 304.67 193.73 "/>
<path transform="matrix(.43880389,0,0,.43633653,496.0187,35.003824)" d="M 304.67 174.73 L 309.42 193.73 L 299.92 193.73 L 304.67 174.73 Z " fill="#0000ff" fill-rule="evenodd"/>
<path transform="matrix(.43880389,0,0,.43633653,496.0187,35.003824)" stroke-width="3.5" stroke-linecap="round" stroke-linejoin="round" fill="none" stroke="#0000ff" d="M 304.67 174.73 L 304.67 128.76 "/>
<path transform="matrix(.43880389,0,0,.43633653,496.0187,35.003824)" d="M 304.67 109.76 L 309.42 128.76 L 299.92 128.76 L 304.67 109.76 Z " fill="#0000ff" fill-rule="evenodd"/>
<path transform="matrix(.43880389,0,0,.43633653,496.0187,35.003824)" stroke-width="3.5" stroke-linecap="round" stroke-linejoin="round" fill="none" stroke="#0000ff" d="M 304.67 109.76 L 304.67 63.792 "/>
<path transform="matrix(.43880389,0,0,.43633653,496.0187,35.003824)" d="M 304.67 44.792 L 309.42 63.792 L 299.92 63.792 L 304.67 44.792 Z " fill="#0000ff" fill-rule="evenodd"/>
</g>
<clipPath id="cp5">
<path transform="matrix(.24,0,0,.24,0,0)" d="M 2706.8555 145.84926 L 3347.8887 145.84926 L 3347.8887 785.8095 L 2706.8555 785.8095 Z " fill-rule="evenodd"/>
</clipPath>
<g clip-path="url(#cp5)">
<path transform="matrix(.43880389,0,0,.43633653,649.86666,35.003824)" stroke-width="3.5" stroke-linecap="round" stroke-linejoin="round" fill="none" stroke="#000000" d="M 44.8 304.66 L 304.67 304.66 "/>
<path transform="matrix(.43880389,0,0,.43633653,649.86666,35.003824)" stroke-width="3.5" stroke-linecap="round" stroke-linejoin="round" fill="none" stroke="#000000" d="M 304.67 304.66 L 304.67 44.792 "/>
<path transform="matrix(.43880389,0,0,.43633653,649.86666,35.003824)" stroke-width="3.5" stroke-linecap="round" stroke-linejoin="round" fill="none" stroke="#000000" d="M 304.67 44.792 L 44.8 44.792 "/>
<path transform="matrix(.43880389,0,0,.43633653,649.86666,35.003824)" stroke-width="3.5" stroke-linecap="round" stroke-linejoin="round" fill="none" stroke="#000000" d="M 44.8 44.792 L 44.8 304.66 "/>
<path transform="matrix(.43880389,0,0,.43633653,649.86666,35.003824)" d="M 43.56257 303.42259 L 51.69433 295.2909 L 54.16919 297.76576 L 46.03743 305.89744 M 57.351205 289.63404 L 65.48296 281.50236 L 67.95783 283.9772 L 59.826066 292.1089 M 71.13984 275.84553 L 79.2716 267.7138 L 81.74647 270.18867 L 73.61471 278.32038 M 84.928478 262.05699 L 93.060237 253.92528 L 95.5351 256.40016 L 87.40334 264.53184 M 98.71711 248.26845 L 106.84887 240.13675 L 109.32374 242.61164 L 101.19198 250.74333 M 112.505748 234.4799 L 120.637508 226.34822 L 123.11237 228.8231 L 114.98061 236.95479 M 126.29438 220.69139 L 134.42615 212.55968 L 136.901 215.03456 L 128.76924 223.16628 M 140.08303 206.90285 L 148.21479 198.77117 L 150.68964 201.24605 L 142.55788 209.37773 M 153.87166 193.11434 L 162.00342 184.98262 L 164.47827 187.4575 L 156.34651 195.58922 M 167.66031 179.32579 L 175.79207 171.19409 L 178.26692 173.66898 L 170.13516 181.80068 M 181.44895 165.53726 L 189.5807 157.40557 L 192.05556 159.88045 L 183.9238 168.01215 M 195.23758 151.74874 L 203.36934 143.61704 L 205.8442 146.09192 L 197.71244 154.22362 M 209.02622 137.9602 L 217.15798 129.8285 L 219.63283 132.30339 L 211.50107 140.43509 M 222.81485 124.17168 L 230.94661 116.03998 L 233.42147 118.51486 L 225.2897 126.64656 M 236.60349 110.38315 L 244.73525 102.25145 L 247.2101 104.72633 L 239.07834 112.85803 M 250.39212 96.59462 L 258.52388 88.46292 L 260.99873 90.937808 L 252.86698 99.0695 M 264.18077 82.80609 L 272.3125 74.67439 L 274.78736 77.14928 L 266.6556 85.280979 M 277.9694 69.01756 L 286.10118 60.885866 L 288.57603 63.36075 L 280.44425 71.49245 M 291.75804 55.229036 L 299.88978 47.097337 L 302.36463 49.57222 L 294.23289 57.70392 "/>
<path transform="matrix(.43880389,0,0,.43633653,649.86666,35.003824)" stroke-width="1.5" stroke-linecap="round" stroke-linejoin="round" fill="none" stroke="#000000" d="M 44.8 239.69 L 304.67 239.69 "/>
<path transform="matrix(.43880389,0,0,.43633653,649.86666,35.003824)" stroke-width="1.5" stroke-linecap="round" stroke-linejoin="round" fill="none" stroke="#000000" d="M 44.8 174.73 L 304.67 174.73 "/>
<path transform="matrix(.43880389,0,0,.43633653,649.86666,35.003824)" stroke-width="1.5" stroke-linecap="round" stroke-linejoin="round" fill="none" stroke="#000000" d="M 44.8 109.76 L 304.67 109.76 "/>
<path transform="matrix(.43880389,0,0,.43633653,649.86666,35.003824)" stroke-width="1.5" stroke-linecap="round" stroke-linejoin="round" fill="none" stroke="#000000" d="M 109.77 44.792 L 109.77 304.66 "/>
<path transform="matrix(.43880389,0,0,.43633653,649.86666,35.003824)" stroke-width="1.5" stroke-linecap="round" stroke-linejoin="round" fill="none" stroke="#000000" d="M 174.73 44.792 L 174.73 304.66 "/>
<path transform="matrix(.43880389,0,0,.43633653,649.86666,35.003824)" stroke-width="1.5" stroke-linecap="round" stroke-linejoin="round" fill="none" stroke="#000000" d="M 239.7 44.792 L 239.7 304.66 "/>
<path transform="matrix(.43880389,0,0,.43633653,649.86666,35.003824)" stroke-width="3.5" stroke-linecap="round" stroke-linejoin="round" fill="none" stroke="#0000ff" d="M 44.8 304.66 L 90.768 304.66 "/>
<path transform="matrix(.43880389,0,0,.43633653,649.86666,35.003824)" d="M 109.77 304.66 L 90.768 309.41 L 90.768 299.91 L 109.77 304.66 Z " fill="#0000ff" fill-rule="evenodd"/>
<path transform="matrix(.43880389,0,0,.43633653,649.86666,35.003824)" stroke-width="3.5" stroke-linecap="round" stroke-linejoin="round" fill="none" stroke="#0000ff" d="M 109.77 304.66 L 155.73 304.66 "/>
<path transform="matrix(.43880389,0,0,.43633653,649.86666,35.003824)" d="M 174.73 304.66 L 155.73 309.41 L 155.73 299.91 L 174.73 304.66 Z " fill="#0000ff" fill-rule="evenodd"/>
<path transform="matrix(.43880389,0,0,.43633653,649.86666,35.003824)" stroke-width="3.5" stroke-linecap="round" stroke-linejoin="round" fill="none" stroke="#0000ff" d="M 174.73 304.66 L 220.7 304.66 "/>
<path transform="matrix(.43880389,0,0,.43633653,649.86666,35.003824)" d="M 239.7 304.66 L 220.7 309.41 L 220.7 299.91 L 239.7 304.66 Z " fill="#0000ff" fill-rule="evenodd"/>
<path transform="matrix(.43880389,0,0,.43633653,649.86666,35.003824)" stroke-width="3.5" stroke-linecap="round" stroke-linejoin="round" fill="none" stroke="#0000ff" d="M 239.7 304.66 L 239.7 258.69 "/>
<path transform="matrix(.43880389,0,0,.43633653,649.86666,35.003824)" d="M 239.7 239.69 L 244.45 258.69 L 234.95 258.69 L 239.7 239.69 Z " fill="#0000ff" fill-rule="evenodd"/>
<path transform="matrix(.43880389,0,0,.43633653,649.86666,35.003824)" stroke-width="3.5" stroke-linecap="round" stroke-linejoin="round" fill="none" stroke="#0000ff" d="M 239.7 239.69 L 239.7 193.73 "/>
<path transform="matrix(.43880389,0,0,.43633653,649.86666,35.003824)" d="M 239.7 174.73 L 244.45 193.73 L 234.95 193.73 L 239.7 174.73 Z " fill="#0000ff" fill-rule="evenodd"/>
<path transform="matrix(.43880389,0,0,.43633653,649.86666,35.003824)" stroke-width="3.5" stroke-linecap="round" stroke-linejoin="round" fill="none" stroke="#0000ff" d="M 239.7 174.73 L 239.7 128.76 "/>
<path transform="matrix(.43880389,0,0,.43633653,649.86666,35.003824)" d="M 239.7 109.76 L 244.45 128.76 L 234.95 128.76 L 239.7 109.76 Z " fill="#0000ff" fill-rule="evenodd"/>
<path transform="matrix(.43880389,0,0,.43633653,649.86666,35.003824)" stroke-width="3.5" stroke-linecap="round" stroke-linejoin="round" fill="none" stroke="#0000ff" d="M 239.7 109.76 L 285.67 109.76 "/>
<path transform="matrix(.43880389,0,0,.43633653,649.86666,35.003824)" d="M 304.67 109.76 L 285.67 114.51 L 285.67 105.01 L 304.67 109.76 Z " fill="#0000ff" fill-rule="evenodd"/>
<path transform="matrix(.43880389,0,0,.43633653,649.86666,35.003824)" stroke-width="3.5" stroke-linecap="round" stroke-linejoin="round" fill="none" stroke="#0000ff" d="M 304.67 109.76 L 304.67 63.792 "/>
<path transform="matrix(.43880389,0,0,.43633653,649.86666,35.003824)" d="M 304.67 44.792 L 309.42 63.792 L 299.92 63.792 L 304.67 44.792 Z " fill="#0000ff" fill-rule="evenodd"/>
</g>
<clipPath id="cp6">
<path transform="matrix(.24,0,0,.24,0,0)" d="M 145.84926 786.88259 L 786.88259 786.88259 L 786.88259 1429.9646 L 145.84926 1429.9646 Z " fill-rule="evenodd"/>
</clipPath>
<g clip-path="url(#cp6)">
<path transform="matrix(.43880389,0,0,.438465,35.225194,188.8518)" stroke-width="3.5" stroke-linecap="round" stroke-linejoin="round" fill="none" stroke="#000000" d="M 44.8 304.66 L 304.67 304.66 "/>
<path transform="matrix(.43880389,0,0,.438465,35.225194,188.8518)" stroke-width="3.5" stroke-linecap="round" stroke-linejoin="round" fill="none" stroke="#000000" d="M 304.67 304.66 L 304.67 44.792 "/>
<path transform="matrix(.43880389,0,0,.438465,35.225194,188.8518)" stroke-width="3.5" stroke-linecap="round" stroke-linejoin="round" fill="none" stroke="#000000" d="M 304.67 44.792 L 44.8 44.792 "/>
<path transform="matrix(.43880389,0,0,.438465,35.225194,188.8518)" stroke-width="3.5" stroke-linecap="round" stroke-linejoin="round" fill="none" stroke="#000000" d="M 44.8 44.792 L 44.8 304.66 "/>
<path transform="matrix(.43880389,0,0,.438465,35.225194,188.8518)" d="M 43.56257 303.42259 L 51.69433 295.2909 L 54.16919 297.76576 L 46.03743 305.89744 M 57.351205 289.63404 L 65.48296 281.50236 L 67.95783 283.9772 L 59.826066 292.1089 M 71.13984 275.84553 L 79.2716 267.7138 L 81.74647 270.18867 L 73.61471 278.32038 M 84.928478 262.05699 L 93.060237 253.92528 L 95.5351 256.40016 L 87.40334 264.53184 M 98.71711 248.26845 L 106.84887 240.13675 L 109.32374 242.61164 L 101.19198 250.74333 M 112.505748 234.4799 L 120.637508 226.34822 L 123.11237 228.8231 L 114.98061 236.95479 M 126.29438 220.69139 L 134.42615 212.55968 L 136.901 215.03456 L 128.76924 223.16628 M 140.08303 206.90285 L 148.21479 198.77117 L 150.68964 201.24605 L 142.55788 209.37773 M 153.87166 193.11434 L 162.00342 184.98262 L 164.47827 187.4575 L 156.34651 195.58922 M 167.66031 179.32579 L 175.79207 171.19409 L 178.26692 173.66898 L 170.13516 181.80068 M 181.44895 165.53726 L 189.5807 157.40557 L 192.05556 159.88045 L 183.9238 168.01215 M 195.23758 151.74874 L 203.36934 143.61704 L 205.8442 146.09192 L 197.71244 154.22362 M 209.02622 137.9602 L 217.15798 129.8285 L 219.63283 132.30339 L 211.50107 140.43509 M 222.81485 124.17168 L 230.94661 116.03998 L 233.42147 118.51486 L 225.2897 126.64656 M 236.60349 110.38315 L 244.73525 102.25145 L 247.2101 104.72633 L 239.07834 112.85803 M 250.39212 96.59462 L 258.52388 88.46292 L 260.99873 90.937808 L 252.86698 99.0695 M 264.18077 82.80609 L 272.3125 74.67439 L 274.78736 77.14928 L 266.6556 85.280979 M 277.9694 69.01756 L 286.10118 60.885866 L 288.57603 63.36075 L 280.44425 71.49245 M 291.75804 55.229036 L 299.88978 47.097337 L 302.36463 49.57222 L 294.23289 57.70392 "/>
<path transform="matrix(.43880389,0,0,.438465,35.225194,188.8518)" stroke-width="1.5" stroke-linecap="round" stroke-linejoin="round" fill="none" stroke="#000000" d="M 44.8 239.69 L 304.67 239.69 "/>
<path transform="matrix(.43880389,0,0,.438465,35.225194,188.8518)" stroke-width="1.5" stroke-linecap="round" stroke-linejoin="round" fill="none" stroke="#000000" d="M 44.8 174.73 L 304.67 174.73 "/>
<path transform="matrix(.43880389,0,0,.438465,35.225194,188.8518)" stroke-width="1.5" stroke-linecap="round" stroke-linejoin="round" fill="none" stroke="#000000" d="M 44.8 109.76 L 304.67 109.76 "/>
<path transform="matrix(.43880389,0,0,.438465,35.225194,188.8518)" stroke-width="1.5" stroke-linecap="round" stroke-linejoin="round" fill="none" stroke="#000000" d="M 109.77 44.792 L 109.77 304.66 "/>
<path transform="matrix(.43880389,0,0,.438465,35.225194,188.8518)" stroke-width="1.5" stroke-linecap="round" stroke-linejoin="round" fill="none" stroke="#000000" d="M 174.73 44.792 L 174.73 304.66 "/>
<path transform="matrix(.43880389,0,0,.438465,35.225194,188.8518)" stroke-width="1.5" stroke-linecap="round" stroke-linejoin="round" fill="none" stroke="#000000" d="M 239.7 44.792 L 239.7 304.66 "/>
<path transform="matrix(.43880389,0,0,.438465,35.225194,188.8518)" stroke-width="3.5" stroke-linecap="round" stroke-linejoin="round" fill="none" stroke="#0000ff" d="M 44.8 304.66 L 90.768 304.66 "/>
<path transform="matrix(.43880389,0,0,.438465,35.225194,188.8518)" d="M 109.77 304.66 L 90.768 309.41 L 90.768 299.91 L 109.77 304.66 Z " fill="#0000ff" fill-rule="evenodd"/>
<path transform="matrix(.43880389,0,0,.438465,35.225194,188.8518)" stroke-width="3.5" stroke-linecap="round" stroke-linejoin="round" fill="none" stroke="#0000ff" d="M 109.77 304.66 L 155.73 304.66 "/>
<path transform="matrix(.43880389,0,0,.438465,35.225194,188.8518)" d="M 174.73 304.66 L 155.73 309.41 L 155.73 299.91 L 174.73 304.66 Z " fill="#0000ff" fill-rule="evenodd"/>
<path transform="matrix(.43880389,0,0,.438465,35.225194,188.8518)" stroke-width="3.5" stroke-linecap="round" stroke-linejoin="round" fill="none" stroke="#0000ff" d="M 174.73 304.66 L 174.73 258.69 "/>
<path transform="matrix(.43880389,0,0,.438465,35.225194,188.8518)" d="M 174.73 239.69 L 179.48 258.69 L 169.98 258.69 L 174.73 239.69 Z " fill="#0000ff" fill-rule="evenodd"/>
<path transform="matrix(.43880389,0,0,.438465,35.225194,188.8518)" stroke-width="3.5" stroke-linecap="round" stroke-linejoin="round" fill="none" stroke="#0000ff" d="M 174.73 239.69 L 220.7 239.69 "/>
<path transform="matrix(.43880389,0,0,.438465,35.225194,188.8518)" d="M 239.7 239.69 L 220.7 244.44 L 220.7 234.94 L 239.7 239.69 Z " fill="#0000ff" fill-rule="evenodd"/>
<path transform="matrix(.43880389,0,0,.438465,35.225194,188.8518)" stroke-width="3.5" stroke-linecap="round" stroke-linejoin="round" fill="none" stroke="#0000ff" d="M 239.7 239.69 L 239.7 193.73 "/>
<path transform="matrix(.43880389,0,0,.438465,35.225194,188.8518)" d="M 239.7 174.73 L 244.45 193.73 L 234.95 193.73 L 239.7 174.73 Z " fill="#0000ff" fill-rule="evenodd"/>
<path transform="matrix(.43880389,0,0,.438465,35.225194,188.8518)" stroke-width="3.5" stroke-linecap="round" stroke-linejoin="round" fill="none" stroke="#0000ff" d="M 239.7 174.73 L 285.67 174.73 "/>
<path transform="matrix(.43880389,0,0,.438465,35.225194,188.8518)" d="M 304.67 174.73 L 285.67 179.48 L 285.67 169.98 L 304.67 174.73 Z " fill="#0000ff" fill-rule="evenodd"/>
<path transform="matrix(.43880389,0,0,.438465,35.225194,188.8518)" stroke-width="3.5" stroke-linecap="round" stroke-linejoin="round" fill="none" stroke="#0000ff" d="M 304.67 174.73 L 304.67 128.76 "/>
<path transform="matrix(.43880389,0,0,.438465,35.225194,188.8518)" d="M 304.67 109.76 L 309.42 128.76 L 299.92 128.76 L 304.67 109.76 Z " fill="#0000ff" fill-rule="evenodd"/>
<path transform="matrix(.43880389,0,0,.438465,35.225194,188.8518)" stroke-width="3.5" stroke-linecap="round" stroke-linejoin="round" fill="none" stroke="#0000ff" d="M 304.67 109.76 L 304.67 63.792 "/>
<path transform="matrix(.43880389,0,0,.438465,35.225194,188.8518)" d="M 304.67 44.792 L 309.42 63.792 L 299.92 63.792 L 304.67 44.792 Z " fill="#0000ff" fill-rule="evenodd"/>
</g>
<clipPath id="cp7">
<path transform="matrix(.24,0,0,.24,0,0)" d="M 786.88259 786.88259 L 1427.9159 786.88259 L 1427.9159 1429.9646 L 786.88259 1429.9646 Z " fill-rule="evenodd"/>
</clipPath>
<g clip-path="url(#cp7)">
<path transform="matrix(.43880389,0,0,.438465,189.07318,188.8518)" stroke-width="3.5" stroke-linecap="round" stroke-linejoin="round" fill="none" stroke="#000000" d="M 44.8 304.66 L 304.67 304.66 "/>
<path transform="matrix(.43880389,0,0,.438465,189.07318,188.8518)" stroke-width="3.5" stroke-linecap="round" stroke-linejoin="round" fill="none" stroke="#000000" d="M 304.67 304.66 L 304.67 44.792 "/>
<path transform="matrix(.43880389,0,0,.438465,189.07318,188.8518)" stroke-width="3.5" stroke-linecap="round" stroke-linejoin="round" fill="none" stroke="#000000" d="M 304.67 44.792 L 44.8 44.792 "/>
<path transform="matrix(.43880389,0,0,.438465,189.07318,188.8518)" stroke-width="3.5" stroke-linecap="round" stroke-linejoin="round" fill="none" stroke="#000000" d="M 44.8 44.792 L 44.8 304.66 "/>
<path transform="matrix(.43880389,0,0,.438465,189.07318,188.8518)" d="M 43.56257 303.42259 L 51.69433 295.2909 L 54.16919 297.76576 L 46.03743 305.89744 M 57.351205 289.63404 L 65.48296 281.50236 L 67.95783 283.9772 L 59.826066 292.1089 M 71.13984 275.84553 L 79.2716 267.7138 L 81.74647 270.18867 L 73.61471 278.32038 M 84.928478 262.05699 L 93.060237 253.92528 L 95.5351 256.40016 L 87.40334 264.53184 M 98.71711 248.26845 L 106.84887 240.13675 L 109.32374 242.61164 L 101.19198 250.74333 M 112.505748 234.4799 L 120.637508 226.34822 L 123.11237 228.8231 L 114.98061 236.95479 M 126.29438 220.69139 L 134.42615 212.55968 L 136.901 215.03456 L 128.76924 223.16628 M 140.08303 206.90285 L 148.21479 198.77117 L 150.68964 201.24605 L 142.55788 209.37773 M 153.87166 193.11434 L 162.00342 184.98262 L 164.47827 187.4575 L 156.34651 195.58922 M 167.66031 179.32579 L 175.79207 171.19409 L 178.26692 173.66898 L 170.13516 181.80068 M 181.44895 165.53726 L 189.5807 157.40557 L 192.05556 159.88045 L 183.9238 168.01215 M 195.23758 151.74874 L 203.36934 143.61704 L 205.8442 146.09192 L 197.71244 154.22362 M 209.02622 137.9602 L 217.15798 129.8285 L 219.63283 132.30339 L 211.50107 140.43509 M 222.81485 124.17168 L 230.94661 116.03998 L 233.42147 118.51486 L 225.2897 126.64656 M 236.60349 110.38315 L 244.73525 102.25145 L 247.2101 104.72633 L 239.07834 112.85803 M 250.39212 96.59462 L 258.52388 88.46292 L 260.99873 90.937808 L 252.86698 99.0695 M 264.18077 82.80609 L 272.3125 74.67439 L 274.78736 77.14928 L 266.6556 85.280979 M 277.9694 69.01756 L 286.10118 60.885866 L 288.57603 63.36075 L 280.44425 71.49245 M 291.75804 55.229036 L 299.88978 47.097337 L 302.36463 49.57222 L 294.23289 57.70392 "/>
<path transform="matrix(.43880389,0,0,.438465,189.07318,188.8518)" stroke-width="1.5" stroke-linecap="round" stroke-linejoin="round" fill="none" stroke="#000000" d="M 44.8 239.69 L 304.67 239.69 "/>
<path transform="matrix(.43880389,0,0,.438465,189.07318,188.8518)" stroke-width="1.5" stroke-linecap="round" stroke-linejoin="round" fill="none" stroke="#000000" d="M 44.8 174.73 L 304.67 174.73 "/>
<path transform="matrix(.43880389,0,0,.438465,189.07318,188.8518)" stroke-width="1.5" stroke-linecap="round" stroke-linejoin="round" fill="none" stroke="#000000" d="M 44.8 109.76 L 304.67 109.76 "/>
<path transform="matrix(.43880389,0,0,.438465,189.07318,188.8518)" stroke-width="1.5" stroke-linecap="round" stroke-linejoin="round" fill="none" stroke="#000000" d="M 109.77 44.792 L 109.77 304.66 "/>
<path transform="matrix(.43880389,0,0,.438465,189.07318,188.8518)" stroke-width="1.5" stroke-linecap="round" stroke-linejoin="round" fill="none" stroke="#000000" d="M 174.73 44.792 L 174.73 304.66 "/>
<path transform="matrix(.43880389,0,0,.438465,189.07318,188.8518)" stroke-width="1.5" stroke-linecap="round" stroke-linejoin="round" fill="none" stroke="#000000" d="M 239.7 44.792 L 239.7 304.66 "/>
<path transform="matrix(.43880389,0,0,.438465,189.07318,188.8518)" stroke-width="3.5" stroke-linecap="round" stroke-linejoin="round" fill="none" stroke="#0000ff" d="M 44.8 304.66 L 90.768 304.66 "/>
<path transform="matrix(.43880389,0,0,.438465,189.07318,188.8518)" d="M 109.77 304.66 L 90.768 309.41 L 90.768 299.91 L 109.77 304.66 Z " fill="#0000ff" fill-rule="evenodd"/>
<path transform="matrix(.43880389,0,0,.438465,189.07318,188.8518)" stroke-width="3.5" stroke-linecap="round" stroke-linejoin="round" fill="none" stroke="#0000ff" d="M 109.77 304.66 L 109.77 258.69 "/>
<path transform="matrix(.43880389,0,0,.438465,189.07318,188.8518)" d="M 109.77 239.69 L 114.52 258.69 L 105.02 258.69 L 109.77 239.69 Z " fill="#0000ff" fill-rule="evenodd"/>
<path transform="matrix(.43880389,0,0,.438465,189.07318,188.8518)" stroke-width="3.5" stroke-linecap="round" stroke-linejoin="round" fill="none" stroke="#0000ff" d="M 109.77 239.69 L 155.73 239.69 "/>
<path transform="matrix(.43880389,0,0,.438465,189.07318,188.8518)" d="M 174.73 239.69 L 155.73 244.44 L 155.73 234.94 L 174.73 239.69 Z " fill="#0000ff" fill-rule="evenodd"/>
<path transform="matrix(.43880389,0,0,.438465,189.07318,188.8518)" stroke-width="3.5" stroke-linecap="round" stroke-linejoin="round" fill="none" stroke="#0000ff" d="M 174.73 239.69 L 220.7 239.69 "/>
<path transform="matrix(.43880389,0,0,.438465,189.07318,188.8518)" d="M 239.7 239.69 L 220.7 244.44 L 220.7 234.94 L 239.7 239.69 Z " fill="#0000ff" fill-rule="evenodd"/>
<path transform="matrix(.43880389,0,0,.438465,189.07318,188.8518)" stroke-width="3.5" stroke-linecap="round" stroke-linejoin="round" fill="none" stroke="#0000ff" d="M 239.7 239.69 L 285.67 239.69 "/>
<path transform="matrix(.43880389,0,0,.438465,189.07318,188.8518)" d="M 304.67 239.69 L 285.67 244.44 L 285.67 234.94 L 304.67 239.69 Z " fill="#0000ff" fill-rule="evenodd"/>
<path transform="matrix(.43880389,0,0,.438465,189.07318,188.8518)" stroke-width="3.5" stroke-linecap="round" stroke-linejoin="round" fill="none" stroke="#0000ff" d="M 304.67 239.69 L 304.67 193.73 "/>
<path transform="matrix(.43880389,0,0,.438465,189.07318,188.8518)" d="M 304.67 174.73 L 309.42 193.73 L 299.92 193.73 L 304.67 174.73 Z " fill="#0000ff" fill-rule="evenodd"/>
<path transform="matrix(.43880389,0,0,.438465,189.07318,188.8518)" stroke-width="3.5" stroke-linecap="round" stroke-linejoin="round" fill="none" stroke="#0000ff" d="M 304.67 174.73 L 304.67 128.76 "/>
<path transform="matrix(.43880389,0,0,.438465,189.07318,188.8518)" d="M 304.67 109.76 L 309.42 128.76 L 299.92 128.76 L 304.67 109.76 Z " fill="#0000ff" fill-rule="evenodd"/>
<path transform="matrix(.43880389,0,0,.438465,189.07318,188.8518)" stroke-width="3.5" stroke-linecap="round" stroke-linejoin="round" fill="none" stroke="#0000ff" d="M 304.67 109.76 L 304.67 63.792 "/>
<path transform="matrix(.43880389,0,0,.438465,189.07318,188.8518)" d="M 304.67 44.792 L 309.42 63.792 L 299.92 63.792 L 304.67 44.792 Z " fill="#0000ff" fill-rule="evenodd"/>
</g>
<clipPath id="cp8">
<path transform="matrix(.24,0,0,.24,0,0)" d="M 1427.9159 786.88259 L 2065.8223 786.88259 L 2065.8223 1429.9646 L 1427.9159 1429.9646 Z " fill-rule="evenodd"/>
</clipPath>
<g clip-path="url(#cp8)">
<path transform="matrix(.43666334,0,0,.438465,342.9201,188.8518)" stroke-width="3.5" stroke-linecap="round" stroke-linejoin="round" fill="none" stroke="#000000" d="M 44.8 304.66 L 304.67 304.66 "/>
<path transform="matrix(.43666334,0,0,.438465,342.9201,188.8518)" stroke-width="3.5" stroke-linecap="round" stroke-linejoin="round" fill="none" stroke="#000000" d="M 304.67 304.66 L 304.67 44.792 "/>
<path transform="matrix(.43666334,0,0,.438465,342.9201,188.8518)" stroke-width="3.5" stroke-linecap="round" stroke-linejoin="round" fill="none" stroke="#000000" d="M 304.67 44.792 L 44.8 44.792 "/>
<path transform="matrix(.43666334,0,0,.438465,342.9201,188.8518)" stroke-width="3.5" stroke-linecap="round" stroke-linejoin="round" fill="none" stroke="#000000" d="M 44.8 44.792 L 44.8 304.66 "/>
<path transform="matrix(.43666334,0,0,.438465,342.9201,188.8518)" d="M 43.56257 303.42259 L 51.69433 295.2909 L 54.16919 297.76576 L 46.03743 305.89744 M 57.351205 289.63404 L 65.48296 281.50236 L 67.95783 283.9772 L 59.826066 292.1089 M 71.13984 275.84553 L 79.2716 267.7138 L 81.74647 270.18867 L 73.61471 278.32038 M 84.928478 262.05699 L 93.060237 253.92528 L 95.5351 256.40016 L 87.40334 264.53184 M 98.71711 248.26845 L 106.84887 240.13675 L 109.32374 242.61164 L 101.19198 250.74333 M 112.505748 234.4799 L 120.637508 226.34822 L 123.11237 228.8231 L 114.98061 236.95479 M 126.29438 220.69139 L 134.42615 212.55968 L 136.901 215.03456 L 128.76924 223.16628 M 140.08303 206.90285 L 148.21479 198.77117 L 150.68964 201.24605 L 142.55788 209.37773 M 153.87166 193.11434 L 162.00342 184.98262 L 164.47827 187.4575 L 156.34651 195.58922 M 167.66031 179.32579 L 175.79207 171.19409 L 178.26692 173.66898 L 170.13516 181.80068 M 181.44895 165.53726 L 189.5807 157.40557 L 192.05556 159.88045 L 183.9238 168.01215 M 195.23758 151.74874 L 203.36934 143.61704 L 205.8442 146.09192 L 197.71244 154.22362 M 209.02622 137.9602 L 217.15798 129.8285 L 219.63283 132.30339 L 211.50107 140.43509 M 222.81485 124.17168 L 230.94661 116.03998 L 233.42147 118.51486 L 225.2897 126.64656 M 236.60349 110.38315 L 244.73525 102.25145 L 247.2101 104.72633 L 239.07834 112.85803 M 250.39212 96.59462 L 258.52388 88.46292 L 260.99873 90.937808 L 252.86698 99.0695 M 264.18077 82.80609 L 272.3125 74.67439 L 274.78736 77.14928 L 266.6556 85.280979 M 277.9694 69.01756 L 286.10118 60.885866 L 288.57603 63.36075 L 280.44425 71.49245 M 291.75804 55.229036 L 299.88978 47.097337 L 302.36463 49.57222 L 294.23289 57.70392 "/>
<path transform="matrix(.43666334,0,0,.438465,342.9201,188.8518)" stroke-width="1.5" stroke-linecap="round" stroke-linejoin="round" fill="none" stroke="#000000" d="M 44.8 239.69 L 304.67 239.69 "/>
<path transform="matrix(.43666334,0,0,.438465,342.9201,188.8518)" stroke-width="1.5" stroke-linecap="round" stroke-linejoin="round" fill="none" stroke="#000000" d="M 44.8 174.73 L 304.67 174.73 "/>
<path transform="matrix(.43666334,0,0,.438465,342.9201,188.8518)" stroke-width="1.5" stroke-linecap="round" stroke-linejoin="round" fill="none" stroke="#000000" d="M 44.8 109.76 L 304.67 109.76 "/>
<path transform="matrix(.43666334,0,0,.438465,342.9201,188.8518)" stroke-width="1.5" stroke-linecap="round" stroke-linejoin="round" fill="none" stroke="#000000" d="M 109.77 44.792 L 109.77 304.66 "/>
<path transform="matrix(.43666334,0,0,.438465,342.9201,188.8518)" stroke-width="1.5" stroke-linecap="round" stroke-linejoin="round" fill="none" stroke="#000000" d="M 174.73 44.792 L 174.73 304.66 "/>
<path transform="matrix(.43666334,0,0,.438465,342.9201,188.8518)" stroke-width="1.5" stroke-linecap="round" stroke-linejoin="round" fill="none" stroke="#000000" d="M 239.7 44.792 L 239.7 304.66 "/>
<path transform="matrix(.43666334,0,0,.438465,342.9201,188.8518)" stroke-width="3.5" stroke-linecap="round" stroke-linejoin="round" fill="none" stroke="#0000ff" d="M 44.8 304.66 L 90.768 304.66 "/>
<path transform="matrix(.43666334,0,0,.438465,342.9201,188.8518)" d="M 109.77 304.66 L 90.768 309.41 L 90.768 299.91 L 109.77 304.66 Z " fill="#0000ff" fill-rule="evenodd"/>
<path transform="matrix(.43666334,0,0,.438465,342.9201,188.8518)" stroke-width="3.5" stroke-linecap="round" stroke-linejoin="round" fill="none" stroke="#0000ff" d="M 109.77 304.66 L 155.73 304.66 "/>
<path transform="matrix(.43666334,0,0,.438465,342.9201,188.8518)" d="M 174.73 304.66 L 155.73 309.41 L 155.73 299.91 L 174.73 304.66 Z " fill="#0000ff" fill-rule="evenodd"/>
<path transform="matrix(.43666334,0,0,.438465,342.9201,188.8518)" stroke-width="3.5" stroke-linecap="round" stroke-linejoin="round" fill="none" stroke="#0000ff" d="M 174.73 304.66 L 174.73 258.69 "/>
<path transform="matrix(.43666334,0,0,.438465,342.9201,188.8518)" d="M 174.73 239.69 L 179.48 258.69 L 169.98 258.69 L 174.73 239.69 Z " fill="#0000ff" fill-rule="evenodd"/>
<path transform="matrix(.43666334,0,0,.438465,342.9201,188.8518)" stroke-width="3.5" stroke-linecap="round" stroke-linejoin="round" fill="none" stroke="#0000ff" d="M 174.73 239.69 L 220.7 239.69 "/>
<path transform="matrix(.43666334,0,0,.438465,342.9201,188.8518)" d="M 239.7 239.69 L 220.7 244.44 L 220.7 234.94 L 239.7 239.69 Z " fill="#0000ff" fill-rule="evenodd"/>
<path transform="matrix(.43666334,0,0,.438465,342.9201,188.8518)" stroke-width="3.5" stroke-linecap="round" stroke-linejoin="round" fill="none" stroke="#0000ff" d="M 239.7 239.69 L 239.7 193.73 "/>
<path transform="matrix(.43666334,0,0,.438465,342.9201,188.8518)" d="M 239.7 174.73 L 244.45 193.73 L 234.95 193.73 L 239.7 174.73 Z " fill="#0000ff" fill-rule="evenodd"/>
<path transform="matrix(.43666334,0,0,.438465,342.9201,188.8518)" stroke-width="3.5" stroke-linecap="round" stroke-linejoin="round" fill="none" stroke="#0000ff" d="M 239.7 174.73 L 239.7 128.76 "/>
<path transform="matrix(.43666334,0,0,.438465,342.9201,188.8518)" d="M 239.7 109.76 L 244.45 128.76 L 234.95 128.76 L 239.7 109.76 Z " fill="#0000ff" fill-rule="evenodd"/>
<path transform="matrix(.43666334,0,0,.438465,342.9201,188.8518)" stroke-width="3.5" stroke-linecap="round" stroke-linejoin="round" fill="none" stroke="#0000ff" d="M 239.7 109.76 L 285.67 109.76 "/>
<path transform="matrix(.43666334,0,0,.438465,342.9201,188.8518)" d="M 304.67 109.76 L 285.67 114.51 L 285.67 105.01 L 304.67 109.76 Z " fill="#0000ff" fill-rule="evenodd"/>
<path transform="matrix(.43666334,0,0,.438465,342.9201,188.8518)" stroke-width="3.5" stroke-linecap="round" stroke-linejoin="round" fill="none" stroke="#0000ff" d="M 304.67 109.76 L 304.67 63.792 "/>
<path transform="matrix(.43666334,0,0,.438465,342.9201,188.8518)" d="M 304.67 44.792 L 309.42 63.792 L 299.92 63.792 L 304.67 44.792 Z " fill="#0000ff" fill-rule="evenodd"/>
</g>
<clipPath id="cp9">
<path transform="matrix(.24,0,0,.24,0,0)" d="M 2065.8223 786.88259 L 2706.8555 786.88259 L 2706.8555 1429.9646 L 2065.8223 1429.9646 Z " fill-rule="evenodd"/>
</clipPath>
<g clip-path="url(#cp9)">
<path transform="matrix(.43880389,0,0,.438465,496.0187,188.8518)" stroke-width="3.5" stroke-linecap="round" stroke-linejoin="round" fill="none" stroke="#000000" d="M 44.8 304.66 L 304.67 304.66 "/>
<path transform="matrix(.43880389,0,0,.438465,496.0187,188.8518)" stroke-width="3.5" stroke-linecap="round" stroke-linejoin="round" fill="none" stroke="#000000" d="M 304.67 304.66 L 304.67 44.792 "/>
<path transform="matrix(.43880389,0,0,.438465,496.0187,188.8518)" stroke-width="3.5" stroke-linecap="round" stroke-linejoin="round" fill="none" stroke="#000000" d="M 304.67 44.792 L 44.8 44.792 "/>
<path transform="matrix(.43880389,0,0,.438465,496.0187,188.8518)" stroke-width="3.5" stroke-linecap="round" stroke-linejoin="round" fill="none" stroke="#000000" d="M 44.8 44.792 L 44.8 304.66 "/>
<path transform="matrix(.43880389,0,0,.438465,496.0187,188.8518)" d="M 43.56257 303.42259 L 51.69433 295.2909 L 54.16919 297.76576 L 46.03743 305.89744 M 57.351205 289.63404 L 65.48296 281.50236 L 67.95783 283.9772 L 59.826066 292.1089 M 71.13984 275.84553 L 79.2716 267.7138 L 81.74647 270.18867 L 73.61471 278.32038 M 84.928478 262.05699 L 93.060237 253.92528 L 95.5351 256.40016 L 87.40334 264.53184 M 98.71711 248.26845 L 106.84887 240.13675 L 109.32374 242.61164 L 101.19198 250.74333 M 112.505748 234.4799 L 120.637508 226.34822 L 123.11237 228.8231 L 114.98061 236.95479 M 126.29438 220.69139 L 134.42615 212.55968 L 136.901 215.03456 L 128.76924 223.16628 M 140.08303 206.90285 L 148.21479 198.77117 L 150.68964 201.24605 L 142.55788 209.37773 M 153.87166 193.11434 L 162.00342 184.98262 L 164.47827 187.4575 L 156.34651 195.58922 M 167.66031 179.32579 L 175.79207 171.19409 L 178.26692 173.66898 L 170.13516 181.80068 M 181.44895 165.53726 L 189.5807 157.40557 L 192.05556 159.88045 L 183.9238 168.01215 M 195.23758 151.74874 L 203.36934 143.61704 L 205.8442 146.09192 L 197.71244 154.22362 M 209.02622 137.9602 L 217.15798 129.8285 L 219.63283 132.30339 L 211.50107 140.43509 M 222.81485 124.17168 L 230.94661 116.03998 L 233.42147 118.51486 L 225.2897 126.64656 M 236.60349 110.38315 L 244.73525 102.25145 L 247.2101 104.72633 L 239.07834 112.85803 M 250.39212 96.59462 L 258.52388 88.46292 L 260.99873 90.937808 L 252.86698 99.0695 M 264.18077 82.80609 L 272.3125 74.67439 L 274.78736 77.14928 L 266.6556 85.280979 M 277.9694 69.01756 L 286.10118 60.885866 L 288.57603 63.36075 L 280.44425 71.49245 M 291.75804 55.229036 L 299.88978 47.097337 L 302.36463 49.57222 L 294.23289 57.70392 "/>
<path transform="matrix(.43880389,0,0,.438465,496.0187,188.8518)" stroke-width="1.5" stroke-linecap="round" stroke-linejoin="round" fill="none" stroke="#000000" d="M 44.8 239.69 L 304.67 239.69 "/>
<path transform="matrix(.43880389,0,0,.438465,496.0187,188.8518)" stroke-width="1.5" stroke-linecap="round" stroke-linejoin="round" fill="none" stroke="#000000" d="M 44.8 174.73 L 304.67 174.73 "/>
<path transform="matrix(.43880389,0,0,.438465,496.0187,188.8518)" stroke-width="1.5" stroke-linecap="round" stroke-linejoin="round" fill="none" stroke="#000000" d="M 44.8 109.76 L 304.67 109.76 "/>
<path transform="matrix(.43880389,0,0,.438465,496.0187,188.8518)" stroke-width="1.5" stroke-linecap="round" stroke-linejoin="round" fill="none" stroke="#000000" d="M 109.77 44.792 L 109.77 304.66 "/>
<path transform="matrix(.43880389,0,0,.438465,496.0187,188.8518)" stroke-width="1.5" stroke-linecap="round" stroke-linejoin="round" fill="none" stroke="#000000" d="M 174.73 44.792 L 174.73 304.66 "/>
<path transform="matrix(.43880389,0,0,.438465,496.0187,188.8518)" stroke-width="1.5" stroke-linecap="round" stroke-linejoin="round" fill="none" stroke="#000000" d="M 239.7 44.792 L 239.7 304.66 "/>
<path transform="matrix(.43880389,0,0,.438465,496.0187,188.8518)" stroke-width="3.5" stroke-linecap="round" stroke-linejoin="round" fill="none" stroke="#0000ff" d="M 44.8 304.66 L 90.768 304.66 "/>
<path transform="matrix(.43880389,0,0,.438465,496.0187,188.8518)" d="M 109.77 304.66 L 90.768 309.41 L 90.768 299.91 L 109.77 304.66 Z " fill="#0000ff" fill-rule="evenodd"/>
<path transform="matrix(.43880389,0,0,.438465,496.0187,188.8518)" stroke-width="3.5" stroke-linecap="round" stroke-linejoin="round" fill="none" stroke="#0000ff" d="M 109.77 304.66 L 155.73 304.66 "/>
<path transform="matrix(.43880389,0,0,.438465,496.0187,188.8518)" d="M 174.73 304.66 L 155.73 309.41 L 155.73 299.91 L 174.73 304.66 Z " fill="#0000ff" fill-rule="evenodd"/>
<path transform="matrix(.43880389,0,0,.438465,496.0187,188.8518)" stroke-width="3.5" stroke-linecap="round" stroke-linejoin="round" fill="none" stroke="#0000ff" d="M 174.73 304.66 L 174.73 258.69 "/>
<path transform="matrix(.43880389,0,0,.438465,496.0187,188.8518)" d="M 174.73 239.69 L 179.48 258.69 L 169.98 258.69 L 174.73 239.69 Z " fill="#0000ff" fill-rule="evenodd"/>
<path transform="matrix(.43880389,0,0,.438465,496.0187,188.8518)" stroke-width="3.5" stroke-linecap="round" stroke-linejoin="round" fill="none" stroke="#0000ff" d="M 174.73 239.69 L 174.73 193.73 "/>
<path transform="matrix(.43880389,0,0,.438465,496.0187,188.8518)" d="M 174.73 174.73 L 179.48 193.73 L 169.98 193.73 L 174.73 174.73 Z " fill="#0000ff" fill-rule="evenodd"/>
<path transform="matrix(.43880389,0,0,.438465,496.0187,188.8518)" stroke-width="3.5" stroke-linecap="round" stroke-linejoin="round" fill="none" stroke="#0000ff" d="M 174.73 174.73 L 220.7 174.73 "/>
<path transform="matrix(.43880389,0,0,.438465,496.0187,188.8518)" d="M 239.7 174.73 L 220.7 179.48 L 220.7 169.98 L 239.7 174.73 Z " fill="#0000ff" fill-rule="evenodd"/>
<path transform="matrix(.43880389,0,0,.438465,496.0187,188.8518)" stroke-width="3.5" stroke-linecap="round" stroke-linejoin="round" fill="none" stroke="#0000ff" d="M 239.7 174.73 L 285.67 174.73 "/>
<path transform="matrix(.43880389,0,0,.438465,496.0187,188.8518)" d="M 304.67 174.73 L 285.67 179.48 L 285.67 169.98 L 304.67 174.73 Z " fill="#0000ff" fill-rule="evenodd"/>
<path transform="matrix(.43880389,0,0,.438465,496.0187,188.8518)" stroke-width="3.5" stroke-linecap="round" stroke-linejoin="round" fill="none" stroke="#0000ff" d="M 304.67 174.73 L 304.67 128.76 "/>
<path transform="matrix(.43880389,0,0,.438465,496.0187,188.8518)" d="M 304.67 109.76 L 309.42 128.76 L 299.92 128.76 L 304.67 109.76 Z " fill="#0000ff" fill-rule="evenodd"/>
<path transform="matrix(.43880389,0,0,.438465,496.0187,188.8518)" stroke-width="3.5" stroke-linecap="round" stroke-linejoin="round" fill="none" stroke="#0000ff" d="M 304.67 109.76 L 304.67 63.792 "/>
<path transform="matrix(.43880389,0,0,.438465,496.0187,188.8518)" d="M 304.67 44.792 L 309.42 63.792 L 299.92 63.792 L 304.67 44.792 Z " fill="#0000ff" fill-rule="evenodd"/>
</g>
<clipPath id="cp10">
<path transform="matrix(.24,0,0,.24,0,0)" d="M 2706.8555 786.88259 L 3347.8887 786.88259 L 3347.8887 1429.9646 L 2706.8555 1429.9646 Z " fill-rule="evenodd"/>
</clipPath>
<g clip-path="url(#cp10)">
<path transform="matrix(.43880389,0,0,.438465,649.86666,188.8518)" stroke-width="3.5" stroke-linecap="round" stroke-linejoin="round" fill="none" stroke="#000000" d="M 44.8 304.66 L 304.67 304.66 "/>
<path transform="matrix(.43880389,0,0,.438465,649.86666,188.8518)" stroke-width="3.5" stroke-linecap="round" stroke-linejoin="round" fill="none" stroke="#000000" d="M 304.67 304.66 L 304.67 44.792 "/>
<path transform="matrix(.43880389,0,0,.438465,649.86666,188.8518)" stroke-width="3.5" stroke-linecap="round" stroke-linejoin="round" fill="none" stroke="#000000" d="M 304.67 44.792 L 44.8 44.792 "/>
<path transform="matrix(.43880389,0,0,.438465,649.86666,188.8518)" stroke-width="3.5" stroke-linecap="round" stroke-linejoin="round" fill="none" stroke="#000000" d="M 44.8 44.792 L 44.8 304.66 "/>
<path transform="matrix(.43880389,0,0,.438465,649.86666,188.8518)" d="M 43.56257 303.42259 L 51.69433 295.2909 L 54.16919 297.76576 L 46.03743 305.89744 M 57.351205 289.63404 L 65.48296 281.50236 L 67.95783 283.9772 L 59.826066 292.1089 M 71.13984 275.84553 L 79.2716 267.7138 L 81.74647 270.18867 L 73.61471 278.32038 M 84.928478 262.05699 L 93.060237 253.92528 L 95.5351 256.40016 L 87.40334 264.53184 M 98.71711 248.26845 L 106.84887 240.13675 L 109.32374 242.61164 L 101.19198 250.74333 M 112.505748 234.4799 L 120.637508 226.34822 L 123.11237 228.8231 L 114.98061 236.95479 M 126.29438 220.69139 L 134.42615 212.55968 L 136.901 215.03456 L 128.76924 223.16628 M 140.08303 206.90285 L 148.21479 198.77117 L 150.68964 201.24605 L 142.55788 209.37773 M 153.87166 193.11434 L 162.00342 184.98262 L 164.47827 187.4575 L 156.34651 195.58922 M 167.66031 179.32579 L 175.79207 171.19409 L 178.26692 173.66898 L 170.13516 181.80068 M 181.44895 165.53726 L 189.5807 157.40557 L 192.05556 159.88045 L 183.9238 168.01215 M 195.23758 151.74874 L 203.36934 143.61704 L 205.8442 146.09192 L 197.71244 154.22362 M 209.02622 137.9602 L 217.15798 129.8285 L 219.63283 132.30339 L 211.50107 140.43509 M 222.81485 124.17168 L 230.94661 116.03998 L 233.42147 118.51486 L 225.2897 126.64656 M 236.60349 110.38315 L 244.73525 102.25145 L 247.2101 104.72633 L 239.07834 112.85803 M 250.39212 96.59462 L 258.52388 88.46292 L 260.99873 90.937808 L 252.86698 99.0695 M 264.18077 82.80609 L 272.3125 74.67439 L 274.78736 77.14928 L 266.6556 85.280979 M 277.9694 69.01756 L 286.10118 60.885866 L 288.57603 63.36075 L 280.44425 71.49245 M 291.75804 55.229036 L 299.88978 47.097337 L 302.36463 49.57222 L 294.23289 57.70392 "/>
<path transform="matrix(.43880389,0,0,.438465,649.86666,188.8518)" stroke-width="1.5" stroke-linecap="round" stroke-linejoin="round" fill="none" stroke="#000000" d="M 44.8 239.69 L 304.67 239.69 "/>
<path transform="matrix(.43880389,0,0,.438465,649.86666,188.8518)" stroke-width="1.5" stroke-linecap="round" stroke-linejoin="round" fill="none" stroke="#000000" d="M 44.8 174.73 L 304.67 174.73 "/>
<path transform="matrix(.43880389,0,0,.438465,649.86666,188.8518)" stroke-width="1.5" stroke-linecap="round" stroke-linejoin="round" fill="none" stroke="#000000" d="M 44.8 109.76 L 304.67 109.76 "/>
<path transform="matrix(.43880389,0,0,.438465,649.86666,188.8518)" stroke-width="1.5" stroke-linecap="round" stroke-linejoin="round" fill="none" stroke="#000000" d="M 109.77 44.792 L 109.77 304.66 "/>
<path transform="matrix(.43880389,0,0,.438465,649.86666,188.8518)" stroke-width="1.5" stroke-linecap="round" stroke-linejoin="round" fill="none" stroke="#000000" d="M 174.73 44.792 L 174.73 304.66 "/>
<path transform="matrix(.43880389,0,0,.438465,649.86666,188.8518)" stroke-width="1.5" stroke-linecap="round" stroke-linejoin="round" fill="none" stroke="#000000" d="M 239.7 44.792 L 239.7 304.66 "/>
<path transform="matrix(.43880389,0,0,.438465,649.86666,188.8518)" stroke-width="3.5" stroke-linecap="round" stroke-linejoin="round" fill="none" stroke="#0000ff" d="M 44.8 304.66 L 90.768 304.66 "/>
<path transform="matrix(.43880389,0,0,.438465,649.86666,188.8518)" d="M 109.77 304.66 L 90.768 309.41 L 90.768 299.91 L 109.77 304.66 Z " fill="#0000ff" fill-rule="evenodd"/>
<path transform="matrix(.43880389,0,0,.438465,649.86666,188.8518)" stroke-width="3.5" stroke-linecap="round" stroke-linejoin="round" fill="none" stroke="#0000ff" d="M 109.77 304.66 L 109.77 258.69 "/>
<path transform="matrix(.43880389,0,0,.438465,649.86666,188.8518)" d="M 109.77 239.69 L 114.52 258.69 L 105.02 258.69 L 109.77 239.69 Z " fill="#0000ff" fill-rule="evenodd"/>
<path transform="matrix(.43880389,0,0,.438465,649.86666,188.8518)" stroke-width="3.5" stroke-linecap="round" stroke-linejoin="round" fill="none" stroke="#0000ff" d="M 109.77 239.69 L 155.73 239.69 "/>
<path transform="matrix(.43880389,0,0,.438465,649.86666,188.8518)" d="M 174.73 239.69 L 155.73 244.44 L 155.73 234.94 L 174.73 239.69 Z " fill="#0000ff" fill-rule="evenodd"/>
<path transform="matrix(.43880389,0,0,.438465,649.86666,188.8518)" stroke-width="3.5" stroke-linecap="round" stroke-linejoin="round" fill="none" stroke="#0000ff" d="M 174.73 239.69 L 220.7 239.69 "/>
<path transform="matrix(.43880389,0,0,.438465,649.86666,188.8518)" d="M 239.7 239.69 L 220.7 244.44 L 220.7 234.94 L 239.7 239.69 Z " fill="#0000ff" fill-rule="evenodd"/>
<path transform="matrix(.43880389,0,0,.438465,649.86666,188.8518)" stroke-width="3.5" stroke-linecap="round" stroke-linejoin="round" fill="none" stroke="#0000ff" d="M 239.7 239.69 L 239.7 193.73 "/>
<path transform="matrix(.43880389,0,0,.438465,649.86666,188.8518)" d="M 239.7 174.73 L 244.45 193.73 L 234.95 193.73 L 239.7 174.73 Z " fill="#0000ff" fill-rule="evenodd"/>
<path transform="matrix(.43880389,0,0,.438465,649.86666,188.8518)" stroke-width="3.5" stroke-linecap="round" stroke-linejoin="round" fill="none" stroke="#0000ff" d="M 239.7 174.73 L 285.67 174.73 "/>
<path transform="matrix(.43880389,0,0,.438465,649.86666,188.8518)" d="M 304.67 174.73 L 285.67 179.48 L 285.67 169.98 L 304.67 174.73 Z " fill="#0000ff" fill-rule="evenodd"/>
<path transform="matrix(.43880389,0,0,.438465,649.86666,188.8518)" stroke-width="3.5" stroke-linecap="round" stroke-linejoin="round" fill="none" stroke="#0000ff" d="M 304.67 174.73 L 304.67 128.76 "/>
<path transform="matrix(.43880389,0,0,.438465,649.86666,188.8518)" d="M 304.67 109.76 L 309.42 128.76 L 299.92 128.76 L 304.67 109.76 Z " fill="#0000ff" fill-rule="evenodd"/>
<path transform="matrix(.43880389,0,0,.438465,649.86666,188.8518)" stroke-width="3.5" stroke-linecap="round" stroke-linejoin="round" fill="none" stroke="#0000ff" d="M 304.67 109.76 L 304.67 63.792 "/>
<path transform="matrix(.43880389,0,0,.438465,649.86666,188.8518)" d="M 304.67 44.792 L 309.42 63.792 L 299.92 63.792 L 304.67 44.792 Z " fill="#0000ff" fill-rule="evenodd"/>
</g>
<clipPath id="cp11">
<path transform="matrix(.24,0,0,.24,0,0)" d="M 145.84926 1431.043 L 786.88259 1431.043 L 786.88259 2071.0032 L 145.84926 2071.0032 Z " fill-rule="evenodd"/>
</clipPath>
<g clip-path="url(#cp11)">
<path transform="matrix(.43880389,0,0,.43633653,35.225194,343.45033)" stroke-width="3.5" stroke-linecap="round" stroke-linejoin="round" fill="none" stroke="#000000" d="M 44.8 304.66 L 304.67 304.66 "/>
<path transform="matrix(.43880389,0,0,.43633653,35.225194,343.45033)" stroke-width="3.5" stroke-linecap="round" stroke-linejoin="round" fill="none" stroke="#000000" d="M 304.67 304.66 L 304.67 44.792 "/>
<path transform="matrix(.43880389,0,0,.43633653,35.225194,343.45033)" stroke-width="3.5" stroke-linecap="round" stroke-linejoin="round" fill="none" stroke="#000000" d="M 304.67 44.792 L 44.8 44.792 "/>
<path transform="matrix(.43880389,0,0,.43633653,35.225194,343.45033)" stroke-width="3.5" stroke-linecap="round" stroke-linejoin="round" fill="none" stroke="#000000" d="M 44.8 44.792 L 44.8 304.66 "/>
<path transform="matrix(.43880389,0,0,.43633653,35.225194,343.45033)" d="M 43.56257 303.42259 L 51.69433 295.2909 L 54.16919 297.76576 L 46.03743 305.89744 M 57.351205 289.63404 L 65.48296 281.50236 L 67.95783 283.9772 L 59.826066 292.1089 M 71.13984 275.84553 L 79.2716 267.7138 L 81.74647 270.18867 L 73.61471 278.32038 M 84.928478 262.05699 L 93.060237 253.92528 L 95.5351 256.40016 L 87.40334 264.53184 M 98.71711 248.26845 L 106.84887 240.13675 L 109.32374 242.61164 L 101.19198 250.74333 M 112.505748 234.4799 L 120.637508 226.34822 L 123.11237 228.8231 L 114.98061 236.95479 M 126.29438 220.69139 L 134.42615 212.55968 L 136.901 215.03456 L 128.76924 223.16628 M 140.08303 206.90285 L 148.21479 198.77117 L 150.68964 201.24605 L 142.55788 209.37773 M 153.87166 193.11434 L 162.00342 184.98262 L 164.47827 187.4575 L 156.34651 195.58922 M 167.66031 179.32579 L 175.79207 171.19409 L 178.26692 173.66898 L 170.13516 181.80068 M 181.44895 165.53726 L 189.5807 157.40557 L 192.05556 159.88045 L 183.9238 168.01215 M 195.23758 151.74874 L 203.36934 143.61704 L 205.8442 146.09192 L 197.71244 154.22362 M 209.02622 137.9602 L 217.15798 129.8285 L 219.63283 132.30339 L 211.50107 140.43509 M 222.81485 124.17168 L 230.94661 116.03998 L 233.42147 118.51486 L 225.2897 126.64656 M 236.60349 110.38315 L 244.73525 102.25145 L 247.2101 104.72633 L 239.07834 112.85803 M 250.39212 96.59462 L 258.52388 88.46292 L 260.99873 90.937808 L 252.86698 99.0695 M 264.18077 82.80609 L 272.3125 74.67439 L 274.78736 77.14928 L 266.6556 85.280979 M 277.9694 69.01756 L 286.10118 60.885866 L 288.57603 63.36075 L 280.44425 71.49245 M 291.75804 55.229036 L 299.88978 47.097337 L 302.36463 49.57222 L 294.23289 57.70392 "/>
<path transform="matrix(.43880389,0,0,.43633653,35.225194,343.45033)" stroke-width="1.5" stroke-linecap="round" stroke-linejoin="round" fill="none" stroke="#000000" d="M 44.8 239.69 L 304.67 239.69 "/>
<path transform="matrix(.43880389,0,0,.43633653,35.225194,343.45033)" stroke-width="1.5" stroke-linecap="round" stroke-linejoin="round" fill="none" stroke="#000000" d="M 44.8 174.73 L 304.67 174.73 "/>
<path transform="matrix(.43880389,0,0,.43633653,35.225194,343.45033)" stroke-width="1.5" stroke-linecap="round" stroke-linejoin="round" fill="none" stroke="#000000" d="M 44.8 109.76 L 304.67 109.76 "/>
<path transform="matrix(.43880389,0,0,.43633653,35.225194,343.45033)" stroke-width="1.5" stroke-linecap="round" stroke-linejoin="round" fill="none" stroke="#000000" d="M 109.77 44.792 L 109.77 304.66 "/>
<path transform="matrix(.43880389,0,0,.43633653,35.225194,343.45033)" stroke-width="1.5" stroke-linecap="round" stroke-linejoin="round" fill="none" stroke="#000000" d="M 174.73 44.792 L 174.73 304.66 "/>
<path transform="matrix(.43880389,0,0,.43633653,35.225194,343.45033)" stroke-width="1.5" stroke-linecap="round" stroke-linejoin="round" fill="none" stroke="#000000" d="M 239.7 44.792 L 239.7 304.66 "/>
<path transform="matrix(.43880389,0,0,.43633653,35.225194,343.45033)" stroke-width="3.5" stroke-linecap="round" stroke-linejoin="round" fill="none" stroke="#0000ff" d="M 44.8 304.66 L 90.768 304.66 "/>
<path transform="matrix(.43880389,0,0,.43633653,35.225194,343.45033)" d="M 109.77 304.66 L 90.768 309.41 L 90.768 299.91 L 109.77 304.66 Z " fill="#0000ff" fill-rule="evenodd"/>
<path transform="matrix(.43880389,0,0,.43633653,35.225194,343.45033)" stroke-width="3.5" stroke-linecap="round" stroke-linejoin="round" fill="none" stroke="#0000ff" d="M 109.77 304.66 L 155.73 304.66 "/>
<path transform="matrix(.43880389,0,0,.43633653,35.225194,343.45033)" d="M 174.73 304.66 L 155.73 309.41 L 155.73 299.91 L 174.73 304.66 Z " fill="#0000ff" fill-rule="evenodd"/>
<path transform="matrix(.43880389,0,0,.43633653,35.225194,343.45033)" stroke-width="3.5" stroke-linecap="round" stroke-linejoin="round" fill="none" stroke="#0000ff" d="M 174.73 304.66 L 174.73 258.69 "/>
<path transform="matrix(.43880389,0,0,.43633653,35.225194,343.45033)" d="M 174.73 239.69 L 179.48 258.69 L 169.98 258.69 L 174.73 239.69 Z " fill="#0000ff" fill-rule="evenodd"/>
<path transform="matrix(.43880389,0,0,.43633653,35.225194,343.45033)" stroke-width="3.5" stroke-linecap="round" stroke-linejoin="round" fill="none" stroke="#0000ff" d="M 174.73 239.69 L 174.73 193.73 "/>
<path transform="matrix(.43880389,0,0,.43633653,35.225194,343.45033)" d="M 174.73 174.73 L 179.48 193.73 L 169.98 193.73 L 174.73 174.73 Z " fill="#0000ff" fill-rule="evenodd"/>
<path transform="matrix(.43880389,0,0,.43633653,35.225194,343.45033)" stroke-width="3.5" stroke-linecap="round" stroke-linejoin="round" fill="none" stroke="#0000ff" d="M 174.73 174.73 L 220.7 174.73 "/>
<path transform="matrix(.43880389,0,0,.43633653,35.225194,343.45033)" d="M 239.7 174.73 L 220.7 179.48 L 220.7 169.98 L 239.7 174.73 Z " fill="#0000ff" fill-rule="evenodd"/>
<path transform="matrix(.43880389,0,0,.43633653,35.225194,343.45033)" stroke-width="3.5" stroke-linecap="round" stroke-linejoin="round" fill="none" stroke="#0000ff" d="M 239.7 174.73 L 239.7 128.76 "/>
<path transform="matrix(.43880389,0,0,.43633653,35.225194,343.45033)" d="M 239.7 109.76 L 244.45 128.76 L 234.95 128.76 L 239.7 109.76 Z " fill="#0000ff" fill-rule="evenodd"/>
<path transform="matrix(.43880389,0,0,.43633653,35.225194,343.45033)" stroke-width="3.5" stroke-linecap="round" stroke-linejoin="round" fill="none" stroke="#0000ff" d="M 239.7 109.76 L 285.67 109.76 "/>
<path transform="matrix(.43880389,0,0,.43633653,35.225194,343.45033)" d="M 304.67 109.76 L 285.67 114.51 L 285.67 105.01 L 304.67 109.76 Z " fill="#0000ff" fill-rule="evenodd"/>
<path transform="matrix(.43880389,0,0,.43633653,35.225194,343.45033)" stroke-width="3.5" stroke-linecap="round" stroke-linejoin="round" fill="none" stroke="#0000ff" d="M 304.67 109.76 L 304.67 63.792 "/>
<path transform="matrix(.43880389,0,0,.43633653,35.225194,343.45033)" d="M 304.67 44.792 L 309.42 63.792 L 299.92 63.792 L 304.67 44.792 Z " fill="#0000ff" fill-rule="evenodd"/>
</g>
<clipPath id="cp12">
<path transform="matrix(.24,0,0,.24,0,0)" d="M 786.88259 1431.043 L 1427.9159 1431.043 L 1427.9159 2071.0032 L 786.88259 2071.0032 Z " fill-rule="evenodd"/>
</clipPath>
<g clip-path="url(#cp12)">
<path transform="matrix(.43880389,0,0,.43633653,189.07318,343.45033)" stroke-width="3.5" stroke-linecap="round" stroke-linejoin="round" fill="none" stroke="#000000" d="M 44.8 304.66 L 304.67 304.66 "/>
<path transform="matrix(.43880389,0,0,.43633653,189.07318,343.45033)" stroke-width="3.5" stroke-linecap="round" stroke-linejoin="round" fill="none" stroke="#000000" d="M 304.67 304.66 L 304.67 44.792 "/>
<path transform="matrix(.43880389,0,0,.43633653,189.07318,343.45033)" stroke-width="3.5" stroke-linecap="round" stroke-linejoin="round" fill="none" stroke="#000000" d="M 304.67 44.792 L 44.8 44.792 "/>
<path transform="matrix(.43880389,0,0,.43633653,189.07318,343.45033)" stroke-width="3.5" stroke-linecap="round" stroke-linejoin="round" fill="none" stroke="#000000" d="M 44.8 44.792 L 44.8 304.66 "/>
<path transform="matrix(.43880389,0,0,.43633653,189.07318,343.45033)" d="M 43.56257 303.42259 L 51.69433 295.2909 L 54.16919 297.76576 L 46.03743 305.89744 M 57.351205 289.63404 L 65.48296 281.50236 L 67.95783 283.9772 L 59.826066 292.1089 M 71.13984 275.84553 L 79.2716 267.7138 L 81.74647 270.18867 L 73.61471 278.32038 M 84.928478 262.05699 L 93.060237 253.92528 L 95.5351 256.40016 L 87.40334 264.53184 M 98.71711 248.26845 L 106.84887 240.13675 L 109.32374 242.61164 L 101.19198 250.74333 M 112.505748 234.4799 L 120.637508 226.34822 L 123.11237 228.8231 L 114.98061 236.95479 M 126.29438 220.69139 L 134.42615 212.55968 L 136.901 215.03456 L 128.76924 223.16628 M 140.08303 206.90285 L 148.21479 198.77117 L 150.68964 201.24605 L 142.55788 209.37773 M 153.87166 193.11434 L 162.00342 184.98262 L 164.47827 187.4575 L 156.34651 195.58922 M 167.66031 179.32579 L 175.79207 171.19409 L 178.26692 173.66898 L 170.13516 181.80068 M 181.44895 165.53726 L 189.5807 157.40557 L 192.05556 159.88045 L 183.9238 168.01215 M 195.23758 151.74874 L 203.36934 143.61704 L 205.8442 146.09192 L 197.71244 154.22362 M 209.02622 137.9602 L 217.15798 129.8285 L 219.63283 132.30339 L 211.50107 140.43509 M 222.81485 124.17168 L 230.94661 116.03998 L 233.42147 118.51486 L 225.2897 126.64656 M 236.60349 110.38315 L 244.73525 102.25145 L 247.2101 104.72633 L 239.07834 112.85803 M 250.39212 96.59462 L 258.52388 88.46292 L 260.99873 90.937808 L 252.86698 99.0695 M 264.18077 82.80609 L 272.3125 74.67439 L 274.78736 77.14928 L 266.6556 85.280979 M 277.9694 69.01756 L 286.10118 60.885866 L 288.57603 63.36075 L 280.44425 71.49245 M 291.75804 55.229036 L 299.88978 47.097337 L 302.36463 49.57222 L 294.23289 57.70392 "/>
<path transform="matrix(.43880389,0,0,.43633653,189.07318,343.45033)" stroke-width="1.5" stroke-linecap="round" stroke-linejoin="round" fill="none" stroke="#000000" d="M 44.8 239.69 L 304.67 239.69 "/>
<path transform="matrix(.43880389,0,0,.43633653,189.07318,343.45033)" stroke-width="1.5" stroke-linecap="round" stroke-linejoin="round" fill="none" stroke="#000000" d="M 44.8 174.73 L 304.67 174.73 "/>
<path transform="matrix(.43880389,0,0,.43633653,189.07318,343.45033)" stroke-width="1.5" stroke-linecap="round" stroke-linejoin="round" fill="none" stroke="#000000" d="M 44.8 109.76 L 304.67 109.76 "/>
<path transform="matrix(.43880389,0,0,.43633653,189.07318,343.45033)" stroke-width="1.5" stroke-linecap="round" stroke-linejoin="round" fill="none" stroke="#000000" d="M 109.77 44.792 L 109.77 304.66 "/>
<path transform="matrix(.43880389,0,0,.43633653,189.07318,343.45033)" stroke-width="1.5" stroke-linecap="round" stroke-linejoin="round" fill="none" stroke="#000000" d="M 174.73 44.792 L 174.73 304.66 "/>
<path transform="matrix(.43880389,0,0,.43633653,189.07318,343.45033)" stroke-width="1.5" stroke-linecap="round" stroke-linejoin="round" fill="none" stroke="#000000" d="M 239.7 44.792 L 239.7 304.66 "/>
<path transform="matrix(.43880389,0,0,.43633653,189.07318,343.45033)" stroke-width="3.5" stroke-linecap="round" stroke-linejoin="round" fill="none" stroke="#0000ff" d="M 44.8 304.66 L 90.768 304.66 "/>
<path transform="matrix(.43880389,0,0,.43633653,189.07318,343.45033)" d="M 109.77 304.66 L 90.768 309.41 L 90.768 299.91 L 109.77 304.66 Z " fill="#0000ff" fill-rule="evenodd"/>
<path transform="matrix(.43880389,0,0,.43633653,189.07318,343.45033)" stroke-width="3.5" stroke-linecap="round" stroke-linejoin="round" fill="none" stroke="#0000ff" d="M 109.77 304.66 L 109.77 258.69 "/>
<path transform="matrix(.43880389,0,0,.43633653,189.07318,343.45033)" d="M 109.77 239.69 L 114.52 258.69 L 105.02 258.69 L 109.77 239.69 Z " fill="#0000ff" fill-rule="evenodd"/>
<path transform="matrix(.43880389,0,0,.43633653,189.07318,343.45033)" stroke-width="3.5" stroke-linecap="round" stroke-linejoin="round" fill="none" stroke="#0000ff" d="M 109.77 239.69 L 155.73 239.69 "/>
<path transform="matrix(.43880389,0,0,.43633653,189.07318,343.45033)" d="M 174.73 239.69 L 155.73 244.44 L 155.73 234.94 L 174.73 239.69 Z " fill="#0000ff" fill-rule="evenodd"/>
<path transform="matrix(.43880389,0,0,.43633653,189.07318,343.45033)" stroke-width="3.5" stroke-linecap="round" stroke-linejoin="round" fill="none" stroke="#0000ff" d="M 174.73 239.69 L 220.7 239.69 "/>
<path transform="matrix(.43880389,0,0,.43633653,189.07318,343.45033)" d="M 239.7 239.69 L 220.7 244.44 L 220.7 234.94 L 239.7 239.69 Z " fill="#0000ff" fill-rule="evenodd"/>
<path transform="matrix(.43880389,0,0,.43633653,189.07318,343.45033)" stroke-width="3.5" stroke-linecap="round" stroke-linejoin="round" fill="none" stroke="#0000ff" d="M 239.7 239.69 L 239.7 193.73 "/>
<path transform="matrix(.43880389,0,0,.43633653,189.07318,343.45033)" d="M 239.7 174.73 L 244.45 193.73 L 234.95 193.73 L 239.7 174.73 Z " fill="#0000ff" fill-rule="evenodd"/>
<path transform="matrix(.43880389,0,0,.43633653,189.07318,343.45033)" stroke-width="3.5" stroke-linecap="round" stroke-linejoin="round" fill="none" stroke="#0000ff" d="M 239.7 174.73 L 239.7 128.76 "/>
<path transform="matrix(.43880389,0,0,.43633653,189.07318,343.45033)" d="M 239.7 109.76 L 244.45 128.76 L 234.95 128.76 L 239.7 109.76 Z " fill="#0000ff" fill-rule="evenodd"/>
<path transform="matrix(.43880389,0,0,.43633653,189.07318,343.45033)" stroke-width="3.5" stroke-linecap="round" stroke-linejoin="round" fill="none" stroke="#0000ff" d="M 239.7 109.76 L 285.67 109.76 "/>
<path transform="matrix(.43880389,0,0,.43633653,189.07318,343.45033)" d="M 304.67 109.76 L 285.67 114.51 L 285.67 105.01 L 304.67 109.76 Z " fill="#0000ff" fill-rule="evenodd"/>
<path transform="matrix(.43880389,0,0,.43633653,189.07318,343.45033)" stroke-width="3.5" stroke-linecap="round" stroke-linejoin="round" fill="none" stroke="#0000ff" d="M 304.67 109.76 L 304.67 63.792 "/>
<path transform="matrix(.43880389,0,0,.43633653,189.07318,343.45033)" d="M 304.67 44.792 L 309.42 63.792 L 299.92 63.792 L 304.67 44.792 Z " fill="#0000ff" fill-rule="evenodd"/>
</g>
<clipPath id="cp13">
<path transform="matrix(.24,0,0,.24,0,0)" d="M 1427.9159 1431.043 L 2065.8223 1431.043 L 2065.8223 2071.0032 L 1427.9159 2071.0032 Z " fill-rule="evenodd"/>
</clipPath>
<g clip-path="url(#cp13)">
<path transform="matrix(.43666334,0,0,.43633653,342.9201,343.45033)" stroke-width="3.5" stroke-linecap="round" stroke-linejoin="round" fill="none" stroke="#000000" d="M 44.8 304.66 L 304.67 304.66 "/>
<path transform="matrix(.43666334,0,0,.43633653,342.9201,343.45033)" stroke-width="3.5" stroke-linecap="round" stroke-linejoin="round" fill="none" stroke="#000000" d="M 304.67 304.66 L 304.67 44.792 "/>
<path transform="matrix(.43666334,0,0,.43633653,342.9201,343.45033)" stroke-width="3.5" stroke-linecap="round" stroke-linejoin="round" fill="none" stroke="#000000" d="M 304.67 44.792 L 44.8 44.792 "/>
<path transform="matrix(.43666334,0,0,.43633653,342.9201,343.45033)" stroke-width="3.5" stroke-linecap="round" stroke-linejoin="round" fill="none" stroke="#000000" d="M 44.8 44.792 L 44.8 304.66 "/>
<path transform="matrix(.43666334,0,0,.43633653,342.9201,343.45033)" d="M 43.56257 303.42259 L 51.69433 295.2909 L 54.16919 297.76576 L 46.03743 305.89744 M 57.351205 289.63404 L 65.48296 281.50236 L 67.95783 283.9772 L 59.826066 292.1089 M 71.13984 275.84553 L 79.2716 267.7138 L 81.74647 270.18867 L 73.61471 278.32038 M 84.928478 262.05699 L 93.060237 253.92528 L 95.5351 256.40016 L 87.40334 264.53184 M 98.71711 248.26845 L 106.84887 240.13675 L 109.32374 242.61164 L 101.19198 250.74333 M 112.505748 234.4799 L 120.637508 226.34822 L 123.11237 228.8231 L 114.98061 236.95479 M 126.29438 220.69139 L 134.42615 212.55968 L 136.901 215.03456 L 128.76924 223.16628 M 140.08303 206.90285 L 148.21479 198.77117 L 150.68964 201.24605 L 142.55788 209.37773 M 153.87166 193.11434 L 162.00342 184.98262 L 164.47827 187.4575 L 156.34651 195.58922 M 167.66031 179.32579 L 175.79207 171.19409 L 178.26692 173.66898 L 170.13516 181.80068 M 181.44895 165.53726 L 189.5807 157.40557 L 192.05556 159.88045 L 183.9238 168.01215 M 195.23758 151.74874 L 203.36934 143.61704 L 205.8442 146.09192 L 197.71244 154.22362 M 209.02622 137.9602 L 217.15798 129.8285 L 219.63283 132.30339 L 211.50107 140.43509 M 222.81485 124.17168 L 230.94661 116.03998 L 233.42147 118.51486 L 225.2897 126.64656 M 236.60349 110.38315 L 244.73525 102.25145 L 247.2101 104.72633 L 239.07834 112.85803 M 250.39212 96.59462 L 258.52388 88.46292 L 260.99873 90.937808 L 252.86698 99.0695 M 264.18077 82.80609 L 272.3125 74.67439 L 274.78736 77.14928 L 266.6556 85.280979 M 277.9694 69.01756 L 286.10118 60.885866 L 288.57603 63.36075 L 280.44425 71.49245 M 291.75804 55.229036 L 299.88978 47.097337 L 302.36463 49.57222 L 294.23289 57.70392 "/>
<path transform="matrix(.43666334,0,0,.43633653,342.9201,343.45033)" stroke-width="1.5" stroke-linecap="round" stroke-linejoin="round" fill="none" stroke="#000000" d="M 44.8 239.69 L 304.67 239.69 "/>
<path transform="matrix(.43666334,0,0,.43633653,342.9201,343.45033)" stroke-width="1.5" stroke-linecap="round" stroke-linejoin="round" fill="none" stroke="#000000" d="M 44.8 174.73 L 304.67 174.73 "/>
<path transform="matrix(.43666334,0,0,.43633653,342.9201,343.45033)" stroke-width="1.5" stroke-linecap="round" stroke-linejoin="round" fill="none" stroke="#000000" d="M 44.8 109.76 L 304.67 109.76 "/>
<path transform="matrix(.43666334,0,0,.43633653,342.9201,343.45033)" stroke-width="1.5" stroke-linecap="round" stroke-linejoin="round" fill="none" stroke="#000000" d="M 109.77 44.792 L 109.77 304.66 "/>
<path transform="matrix(.43666334,0,0,.43633653,342.9201,343.45033)" stroke-width="1.5" stroke-linecap="round" stroke-linejoin="round" fill="none" stroke="#000000" d="M 174.73 44.792 L 174.73 304.66 "/>
<path transform="matrix(.43666334,0,0,.43633653,342.9201,343.45033)" stroke-width="1.5" stroke-linecap="round" stroke-linejoin="round" fill="none" stroke="#000000" d="M 239.7 44.792 L 239.7 304.66 "/>
<path transform="matrix(.43666334,0,0,.43633653,342.9201,343.45033)" stroke-width="3.5" stroke-linecap="round" stroke-linejoin="round" fill="none" stroke="#0000ff" d="M 44.8 304.66 L 90.768 304.66 "/>
<path transform="matrix(.43666334,0,0,.43633653,342.9201,343.45033)" d="M 109.77 304.66 L 90.768 309.41 L 90.768 299.91 L 109.77 304.66 Z " fill="#0000ff" fill-rule="evenodd"/>
<path transform="matrix(.43666334,0,0,.43633653,342.9201,343.45033)" stroke-width="3.5" stroke-linecap="round" stroke-linejoin="round" fill="none" stroke="#0000ff" d="M 109.77 304.66 L 109.77 258.69 "/>
<path transform="matrix(.43666334,0,0,.43633653,342.9201,343.45033)" d="M 109.77 239.69 L 114.52 258.69 L 105.02 258.69 L 109.77 239.69 Z " fill="#0000ff" fill-rule="evenodd"/>
<path transform="matrix(.43666334,0,0,.43633653,342.9201,343.45033)" stroke-width="3.5" stroke-linecap="round" stroke-linejoin="round" fill="none" stroke="#0000ff" d="M 109.77 239.69 L 155.73 239.69 "/>
<path transform="matrix(.43666334,0,0,.43633653,342.9201,343.45033)" d="M 174.73 239.69 L 155.73 244.44 L 155.73 234.94 L 174.73 239.69 Z " fill="#0000ff" fill-rule="evenodd"/>
<path transform="matrix(.43666334,0,0,.43633653,342.9201,343.45033)" stroke-width="3.5" stroke-linecap="round" stroke-linejoin="round" fill="none" stroke="#0000ff" d="M 174.73 239.69 L 174.73 193.73 "/>
<path transform="matrix(.43666334,0,0,.43633653,342.9201,343.45033)" d="M 174.73 174.73 L 179.48 193.73 L 169.98 193.73 L 174.73 174.73 Z " fill="#0000ff" fill-rule="evenodd"/>
<path transform="matrix(.43666334,0,0,.43633653,342.9201,343.45033)" stroke-width="3.5" stroke-linecap="round" stroke-linejoin="round" fill="none" stroke="#0000ff" d="M 174.73 174.73 L 220.7 174.73 "/>
<path transform="matrix(.43666334,0,0,.43633653,342.9201,343.45033)" d="M 239.7 174.73 L 220.7 179.48 L 220.7 169.98 L 239.7 174.73 Z " fill="#0000ff" fill-rule="evenodd"/>
<path transform="matrix(.43666334,0,0,.43633653,342.9201,343.45033)" stroke-width="3.5" stroke-linecap="round" stroke-linejoin="round" fill="none" stroke="#0000ff" d="M 239.7 174.73 L 285.67 174.73 "/>
<path transform="matrix(.43666334,0,0,.43633653,342.9201,343.45033)" d="M 304.67 174.73 L 285.67 179.48 L 285.67 169.98 L 304.67 174.73 Z " fill="#0000ff" fill-rule="evenodd"/>
<path transform="matrix(.43666334,0,0,.43633653,342.9201,343.45033)" stroke-width="3.5" stroke-linecap="round" stroke-linejoin="round" fill="none" stroke="#0000ff" d="M 304.67 174.73 L 304.67 128.76 "/>
<path transform="matrix(.43666334,0,0,.43633653,342.9201,343.45033)" d="M 304.67 109.76 L 309.42 128.76 L 299.92 128.76 L 304.67 109.76 Z " fill="#0000ff" fill-rule="evenodd"/>
<path transform="matrix(.43666334,0,0,.43633653,342.9201,343.45033)" stroke-width="3.5" stroke-linecap="round" stroke-linejoin="round" fill="none" stroke="#0000ff" d="M 304.67 109.76 L 304.67 63.792 "/>
<path transform="matrix(.43666334,0,0,.43633653,342.9201,343.45033)" d="M 304.67 44.792 L 309.42 63.792 L 299.92 63.792 L 304.67 44.792 Z " fill="#0000ff" fill-rule="evenodd"/>
</g>
<clipPath id="cp14">
<path transform="matrix(.24,0,0,.24,0,0)" d="M 2065.8223 1431.043 L 2706.8555 1431.043 L 2706.8555 2071.0032 L 2065.8223 2071.0032 Z " fill-rule="evenodd"/>
</clipPath>
<g clip-path="url(#cp14)">
<path transform="matrix(.43880389,0,0,.43633653,496.0187,343.45033)" stroke-width="3.5" stroke-linecap="round" stroke-linejoin="round" fill="none" stroke="#000000" d="M 44.8 304.66 L 304.67 304.66 "/>
<path transform="matrix(.43880389,0,0,.43633653,496.0187,343.45033)" stroke-width="3.5" stroke-linecap="round" stroke-linejoin="round" fill="none" stroke="#000000" d="M 304.67 304.66 L 304.67 44.792 "/>
<path transform="matrix(.43880389,0,0,.43633653,496.0187,343.45033)" stroke-width="3.5" stroke-linecap="round" stroke-linejoin="round" fill="none" stroke="#000000" d="M 304.67 44.792 L 44.8 44.792 "/>
<path transform="matrix(.43880389,0,0,.43633653,496.0187,343.45033)" stroke-width="3.5" stroke-linecap="round" stroke-linejoin="round" fill="none" stroke="#000000" d="M 44.8 44.792 L 44.8 304.66 "/>
<path transform="matrix(.43880389,0,0,.43633653,496.0187,343.45033)" d="M 43.56257 303.42259 L 51.69433 295.2909 L 54.16919 297.76576 L 46.03743 305.89744 M 57.351205 289.63404 L 65.48296 281.50236 L 67.95783 283.9772 L 59.826066 292.1089 M 71.13984 275.84553 L 79.2716 267.7138 L 81.74647 270.18867 L 73.61471 278.32038 M 84.928478 262.05699 L 93.060237 253.92528 L 95.5351 256.40016 L 87.40334 264.53184 M 98.71711 248.26845 L 106.84887 240.13675 L 109.32374 242.61164 L 101.19198 250.74333 M 112.505748 234.4799 L 120.637508 226.34822 L 123.11237 228.8231 L 114.98061 236.95479 M 126.29438 220.69139 L 134.42615 212.55968 L 136.901 215.03456 L 128.76924 223.16628 M 140.08303 206.90285 L 148.21479 198.77117 L 150.68964 201.24605 L 142.55788 209.37773 M 153.87166 193.11434 L 162.00342 184.98262 L 164.47827 187.4575 L 156.34651 195.58922 M 167.66031 179.32579 L 175.79207 171.19409 L 178.26692 173.66898 L 170.13516 181.80068 M 181.44895 165.53726 L 189.5807 157.40557 L 192.05556 159.88045 L 183.9238 168.01215 M 195.23758 151.74874 L 203.36934 143.61704 L 205.8442 146.09192 L 197.71244 154.22362 M 209.02622 137.9602 L 217.15798 129.8285 L 219.63283 132.30339 L 211.50107 140.43509 M 222.81485 124.17168 L 230.94661 116.03998 L 233.42147 118.51486 L 225.2897 126.64656 M 236.60349 110.38315 L 244.73525 102.25145 L 247.2101 104.72633 L 239.07834 112.85803 M 250.39212 96.59462 L 258.52388 88.46292 L 260.99873 90.937808 L 252.86698 99.0695 M 264.18077 82.80609 L 272.3125 74.67439 L 274.78736 77.14928 L 266.6556 85.280979 M 277.9694 69.01756 L 286.10118 60.885866 L 288.57603 63.36075 L 280.44425 71.49245 M 291.75804 55.229036 L 299.88978 47.097337 L 302.36463 49.57222 L 294.23289 57.70392 "/>
<path transform="matrix(.43880389,0,0,.43633653,496.0187,343.45033)" stroke-width="1.5" stroke-linecap="round" stroke-linejoin="round" fill="none" stroke="#000000" d="M 44.8 239.69 L 304.67 239.69 "/>
<path transform="matrix(.43880389,0,0,.43633653,496.0187,343.45033)" stroke-width="1.5" stroke-linecap="round" stroke-linejoin="round" fill="none" stroke="#000000" d="M 44.8 174.73 L 304.67 174.73 "/>
<path transform="matrix(.43880389,0,0,.43633653,496.0187,343.45033)" stroke-width="1.5" stroke-linecap="round" stroke-linejoin="round" fill="none" stroke="#000000" d="M 44.8 109.76 L 304.67 109.76 "/>
<path transform="matrix(.43880389,0,0,.43633653,496.0187,343.45033)" stroke-width="1.5" stroke-linecap="round" stroke-linejoin="round" fill="none" stroke="#000000" d="M 109.77 44.792 L 109.77 304.66 "/>
<path transform="matrix(.43880389,0,0,.43633653,496.0187,343.45033)" stroke-width="1.5" stroke-linecap="round" stroke-linejoin="round" fill="none" stroke="#000000" d="M 174.73 44.792 L 174.73 304.66 "/>
<path transform="matrix(.43880389,0,0,.43633653,496.0187,343.45033)" stroke-width="1.5" stroke-linecap="round" stroke-linejoin="round" fill="none" stroke="#000000" d="M 239.7 44.792 L 239.7 304.66 "/>
<path transform="matrix(.43880389,0,0,.43633653,496.0187,343.45033)" stroke-width="3.5" stroke-linecap="round" stroke-linejoin="round" fill="none" stroke="#0000ff" d="M 44.8 304.66 L 90.768 304.66 "/>
<path transform="matrix(.43880389,0,0,.43633653,496.0187,343.45033)" d="M 109.77 304.66 L 90.768 309.41 L 90.768 299.91 L 109.77 304.66 Z " fill="#0000ff" fill-rule="evenodd"/>
<path transform="matrix(.43880389,0,0,.43633653,496.0187,343.45033)" stroke-width="3.5" stroke-linecap="round" stroke-linejoin="round" fill="none" stroke="#0000ff" d="M 109.77 304.66 L 109.77 258.69 "/>
<path transform="matrix(.43880389,0,0,.43633653,496.0187,343.45033)" d="M 109.77 239.69 L 114.52 258.69 L 105.02 258.69 L 109.77 239.69 Z " fill="#0000ff" fill-rule="evenodd"/>
<path transform="matrix(.43880389,0,0,.43633653,496.0187,343.45033)" stroke-width="3.5" stroke-linecap="round" stroke-linejoin="round" fill="none" stroke="#0000ff" d="M 109.77 239.69 L 155.73 239.69 "/>
<path transform="matrix(.43880389,0,0,.43633653,496.0187,343.45033)" d="M 174.73 239.69 L 155.73 244.44 L 155.73 234.94 L 174.73 239.69 Z " fill="#0000ff" fill-rule="evenodd"/>
<path transform="matrix(.43880389,0,0,.43633653,496.0187,343.45033)" stroke-width="3.5" stroke-linecap="round" stroke-linejoin="round" fill="none" stroke="#0000ff" d="M 174.73 239.69 L 174.73 193.73 "/>
<path transform="matrix(.43880389,0,0,.43633653,496.0187,343.45033)" d="M 174.73 174.73 L 179.48 193.73 L 169.98 193.73 L 174.73 174.73 Z " fill="#0000ff" fill-rule="evenodd"/>
<path transform="matrix(.43880389,0,0,.43633653,496.0187,343.45033)" stroke-width="3.5" stroke-linecap="round" stroke-linejoin="round" fill="none" stroke="#0000ff" d="M 174.73 174.73 L 220.7 174.73 "/>
<path transform="matrix(.43880389,0,0,.43633653,496.0187,343.45033)" d="M 239.7 174.73 L 220.7 179.48 L 220.7 169.98 L 239.7 174.73 Z " fill="#0000ff" fill-rule="evenodd"/>
<path transform="matrix(.43880389,0,0,.43633653,496.0187,343.45033)" stroke-width="3.5" stroke-linecap="round" stroke-linejoin="round" fill="none" stroke="#0000ff" d="M 239.7 174.73 L 239.7 128.76 "/>
<path transform="matrix(.43880389,0,0,.43633653,496.0187,343.45033)" d="M 239.7 109.76 L 244.45 128.76 L 234.95 128.76 L 239.7 109.76 Z " fill="#0000ff" fill-rule="evenodd"/>
<path transform="matrix(.43880389,0,0,.43633653,496.0187,343.45033)" stroke-width="3.5" stroke-linecap="round" stroke-linejoin="round" fill="none" stroke="#0000ff" d="M 239.7 109.76 L 285.67 109.76 "/>
<path transform="matrix(.43880389,0,0,.43633653,496.0187,343.45033)" d="M 304.67 109.76 L 285.67 114.51 L 285.67 105.01 L 304.67 109.76 Z " fill="#0000ff" fill-rule="evenodd"/>
<path transform="matrix(.43880389,0,0,.43633653,496.0187,343.45033)" stroke-width="3.5" stroke-linecap="round" stroke-linejoin="round" fill="none" stroke="#0000ff" d="M 304.67 109.76 L 304.67 63.792 "/>
<path transform="matrix(.43880389,0,0,.43633653,496.0187,343.45033)" d="M 304.67 44.792 L 309.42 63.792 L 299.92 63.792 L 304.67 44.792 Z " fill="#0000ff" fill-rule="evenodd"/>
</g>
</g>
</svg>