<?xml version="1.0" encoding="utf-8"?>
<!-- Generator: Adobe Illustrator 16.0.0, SVG Export Plug-In . SVG Version: 6.00 Build 0)  -->
<!DOCTYPE svg PUBLIC "-//W3C//DTD SVG 1.1//EN" "http://www.w3.org/Graphics/SVG/1.1/DTD/svg11.dtd">
<svg version="1.1" id="图层_1" xmlns="http://www.w3.org/2000/svg" xmlns:xlink="http://www.w3.org/1999/xlink" x="0px" y="0px"
	 width="1000px" height="600px" viewBox="0 0 1000 600" enable-background="new 0 0 1000 600" xml:space="preserve">
<g>
	<polygon fill="none" stroke="#000000" stroke-width="2" stroke-miterlimit="10" points="60.91,209.13 23.338,144.054 60.91,78.978 
		136.054,78.978 173.625,144.054 136.054,209.13 	"/>
	<line fill="none" stroke="#000000" stroke-width="2" stroke-miterlimit="10" x1="60.91" y1="78.978" x2="136.054" y2="209.13"/>
	<line fill="none" stroke="#000000" stroke-width="2" stroke-miterlimit="10" x1="136.054" y1="78.978" x2="136.054" y2="209.13"/>
	<line fill="none" stroke="#000000" stroke-width="2" stroke-miterlimit="10" x1="23.338" y1="144.054" x2="136.054" y2="209.13"/>
</g>
<g>
	<polygon fill="none" stroke="#000000" stroke-width="2" stroke-miterlimit="10" points="296.341,78.978 333.913,144.054 
		296.341,209.13 221.197,209.13 183.625,144.054 221.197,78.978 	"/>
	<line fill="none" stroke="#000000" stroke-width="2" stroke-miterlimit="10" x1="296.341" y1="209.13" x2="221.197" y2="78.978"/>
	<line fill="none" stroke="#000000" stroke-width="2" stroke-miterlimit="10" x1="221.197" y1="209.13" x2="221.197" y2="78.978"/>
	<line fill="none" stroke="#000000" stroke-width="2" stroke-miterlimit="10" x1="333.913" y1="144.054" x2="221.197" y2="78.978"/>
</g>
<g>
	<polygon fill="none" stroke="#000000" stroke-width="2" stroke-miterlimit="10" points="456.629,78.979 494.199,144.055 
		456.629,209.13 381.484,209.13 343.913,144.055 381.484,78.979 	"/>
	<line fill="none" stroke="#000000" stroke-width="2" stroke-miterlimit="10" x1="381.484" y1="209.13" x2="381.484" y2="78.979"/>
	<line fill="none" stroke="#000000" stroke-width="2" stroke-miterlimit="10" x1="381.484" y1="209.13" x2="456.629" y2="78.979"/>
	<line fill="none" stroke="#000000" stroke-width="2" stroke-miterlimit="10" x1="381.484" y1="209.13" x2="494.199" y2="144.055"/>
</g>
<g>
	<polygon fill="none" stroke="#000000" stroke-width="2" stroke-miterlimit="10" points="541.771,209.13 504.201,144.054 
		541.771,78.979 616.916,78.979 654.486,144.054 616.916,209.13 	"/>
	<line fill="none" stroke="#000000" stroke-width="2" stroke-miterlimit="10" x1="616.916" y1="78.979" x2="616.916" y2="209.13"/>
	<line fill="none" stroke="#000000" stroke-width="2" stroke-miterlimit="10" x1="616.916" y1="78.979" x2="541.771" y2="209.13"/>
	<line fill="none" stroke="#000000" stroke-width="2" stroke-miterlimit="10" x1="616.916" y1="78.979" x2="504.201" y2="144.054"/>
</g>
<g>
	<polygon fill="none" stroke="#000000" stroke-width="2" stroke-miterlimit="10" points="702.058,209.131 664.486,144.056 
		702.058,78.979 777.202,78.979 814.774,144.056 777.202,209.131 	"/>
	
		<line fill="none" stroke="#000000" stroke-width="2" stroke-miterlimit="10" x1="664.486" y1="144.056" x2="777.202" y2="209.131"/>
	
		<line fill="none" stroke="#000000" stroke-width="2" stroke-miterlimit="10" x1="664.486" y1="144.056" x2="814.774" y2="144.056"/>
	<line fill="none" stroke="#000000" stroke-width="2" stroke-miterlimit="10" x1="664.486" y1="144.056" x2="777.202" y2="78.979"/>
</g>
<g>
	<polygon fill="none" stroke="#000000" stroke-width="2" stroke-miterlimit="10" points="937.489,78.978 975.061,144.054 
		937.489,209.13 862.346,209.13 824.773,144.054 862.346,78.978 	"/>
	<line fill="none" stroke="#000000" stroke-width="2" stroke-miterlimit="10" x1="975.061" y1="144.054" x2="862.346" y2="78.978"/>
	
		<line fill="none" stroke="#000000" stroke-width="2" stroke-miterlimit="10" x1="975.061" y1="144.054" x2="824.773" y2="144.054"/>
	<line fill="none" stroke="#000000" stroke-width="2" stroke-miterlimit="10" x1="975.061" y1="144.054" x2="862.346" y2="209.13"/>
</g>
<g>
	<polygon fill="none" stroke="#000000" stroke-width="2" stroke-miterlimit="10" points="221.197,381.519 183.625,316.441 
		221.197,251.366 296.341,251.366 333.913,316.441 296.341,381.519 	"/>
	<line fill="none" stroke="#000000" stroke-miterlimit="10" x1="221.197" y1="251.366" x2="221.197" y2="381.519"/>
	<line fill="none" stroke="#000000" stroke-miterlimit="10" x1="296.341" y1="251.366" x2="296.341" y2="381.519"/>
	<line fill="none" stroke="#000000" stroke-miterlimit="10" x1="221.197" y1="251.366" x2="296.341" y2="381.519"/>
</g>
<g>
	<polygon fill="none" stroke="#000000" stroke-width="2" stroke-miterlimit="10" points="60.91,381.52 23.338,316.442 
		60.91,251.367 136.054,251.367 173.625,316.442 136.054,381.52 	"/>
	<line fill="none" stroke="#000000" stroke-miterlimit="10" x1="60.91" y1="251.367" x2="60.91" y2="381.52"/>
	<line fill="none" stroke="#000000" stroke-miterlimit="10" x1="136.054" y1="251.367" x2="136.054" y2="381.52"/>
	<line fill="none" stroke="#000000" stroke-miterlimit="10" x1="136.054" y1="251.367" x2="60.91" y2="381.52"/>
</g>
<g>
	<polygon fill="none" stroke="#000000" stroke-width="2" stroke-miterlimit="10" points="381.485,381.519 343.914,316.441 
		381.485,251.366 456.63,251.366 494.2,316.441 456.63,381.519 	"/>
	<line fill="none" stroke="#000000" stroke-width="2" stroke-miterlimit="10" x1="343.914" y1="316.441" x2="456.63" y2="381.519"/>
	<line fill="none" stroke="#000000" stroke-width="2" stroke-miterlimit="10" x1="381.485" y1="251.366" x2="494.2" y2="316.441"/>
	<line fill="none" stroke="#000000" stroke-width="2" stroke-miterlimit="10" x1="381.485" y1="251.366" x2="456.63" y2="381.519"/>
</g>
<g>
	<polygon fill="none" stroke="#000000" stroke-width="2" stroke-miterlimit="10" points="541.772,381.52 504.2,316.442 
		541.772,251.367 616.917,251.367 654.487,316.442 616.917,381.52 	"/>
	<line fill="none" stroke="#000000" stroke-width="2" stroke-miterlimit="10" x1="504.2" y1="316.442" x2="616.917" y2="381.52"/>
	
		<line fill="none" stroke="#000000" stroke-width="2" stroke-miterlimit="10" x1="541.772" y1="251.367" x2="654.487" y2="316.442"/>
	<line fill="none" stroke="#000000" stroke-width="2" stroke-miterlimit="10" x1="504.2" y1="316.442" x2="654.487" y2="316.442"/>
</g>
<g>
	<polygon fill="none" stroke="#000000" stroke-width="2" stroke-miterlimit="10" points="702.059,381.52 664.486,316.442 
		702.059,251.367 777.203,251.367 814.773,316.442 777.203,381.52 	"/>
	
		<line fill="none" stroke="#000000" stroke-width="2" stroke-miterlimit="10" x1="664.486" y1="316.442" x2="777.203" y2="251.367"/>
	<line fill="none" stroke="#000000" stroke-width="2" stroke-miterlimit="10" x1="702.059" y1="381.52" x2="814.773" y2="316.442"/>
	
		<line fill="none" stroke="#000000" stroke-width="2" stroke-miterlimit="10" x1="664.486" y1="316.442" x2="814.773" y2="316.442"/>
</g>
<g>
	<polygon fill="none" stroke="#000000" stroke-width="2" stroke-miterlimit="10" points="862.346,381.52 824.773,316.442 
		862.346,251.367 937.49,251.367 975.061,316.442 937.49,381.52 	"/>
	<line fill="none" stroke="#000000" stroke-width="2" stroke-miterlimit="10" x1="824.773" y1="316.442" x2="937.49" y2="251.367"/>
	<line fill="none" stroke="#000000" stroke-width="2" stroke-miterlimit="10" x1="862.346" y1="381.52" x2="975.061" y2="316.442"/>
	<line fill="none" stroke="#000000" stroke-width="2" stroke-miterlimit="10" x1="937.49" y1="251.367" x2="862.346" y2="381.52"/>
</g>
<g>
	<polygon fill="none" stroke="#000000" stroke-width="2" stroke-miterlimit="10" points="381.484,554.968 343.913,489.891 
		381.484,424.814 456.629,424.814 494.199,489.891 456.629,554.968 	"/>
	
		<line fill="none" stroke="#000000" stroke-width="2" stroke-miterlimit="10" x1="343.913" y1="489.891" x2="456.629" y2="554.968"/>
	
		<line fill="none" stroke="#000000" stroke-width="2" stroke-miterlimit="10" x1="456.629" y1="424.814" x2="456.629" y2="554.968"/>
	
		<line fill="none" stroke="#000000" stroke-width="2" stroke-miterlimit="10" x1="343.913" y1="489.891" x2="456.629" y2="424.814"/>
</g>
<g>
	<polygon fill="none" stroke="#000000" stroke-width="2" stroke-miterlimit="10" points="541.772,554.968 504.201,489.891 
		541.772,424.814 616.917,424.814 654.487,489.891 616.917,554.968 	"/>
	
		<line fill="none" stroke="#000000" stroke-width="2" stroke-miterlimit="10" x1="541.772" y1="424.814" x2="541.772" y2="554.968"/>
	
		<line fill="none" stroke="#000000" stroke-width="2" stroke-miterlimit="10" x1="541.772" y1="554.968" x2="654.487" y2="489.891"/>
	
		<line fill="none" stroke="#000000" stroke-width="2" stroke-miterlimit="10" x1="541.772" y1="424.814" x2="654.487" y2="489.891"/>
</g>
</svg>
