<?xml version="1.0" encoding="utf-8"?>
<!-- Generator: Adobe Illustrator 16.0.0, SVG Export Plug-In . SVG Version: 6.00 Build 0)  -->
<!DOCTYPE svg PUBLIC "-//W3C//DTD SVG 1.1//EN" "http://www.w3.org/Graphics/SVG/1.1/DTD/svg11.dtd">
<svg version="1.1" id="图层_1" xmlns="http://www.w3.org/2000/svg" xmlns:xlink="http://www.w3.org/1999/xlink" x="0px" y="0px"
	 width="1793px" height="1672px" viewBox="0 0 1793 1672" enable-background="new 0 0 1793 1672" xml:space="preserve">
<g>
	<g>
		<path fill="none" stroke="#000000" stroke-width="7" stroke-linecap="round" stroke-linejoin="round" stroke-miterlimit="10" d="
			M850.66,278.567c0,88.812-72,160.811-160.81,160.811c-88.821,0-160.821-72-160.821-160.811c0-88.811,72-160.811,160.821-160.811
			C778.66,117.756,850.66,189.756,850.66,278.567z"/>
		<path d="M696.9,117.756c0,3.888-3.163,7.051-7.051,7.051c-3.898,0-7.051-3.163-7.051-7.051c0-3.898,3.153-7.051,7.051-7.051
			C693.737,110.706,696.9,113.858,696.9,117.756z"/>
		<path fill="none" stroke="#000000" stroke-width="10" stroke-linecap="round" stroke-linejoin="round" stroke-miterlimit="10" d="
			M696.9,117.756c0,3.888-3.163,7.051-7.051,7.051c-3.898,0-7.051-3.163-7.051-7.051c0-3.898,3.153-7.051,7.051-7.051
			C693.737,110.706,696.9,113.858,696.9,117.756z"/>
		<path d="M536.08,278.567c0,3.898-3.153,7.051-7.051,7.051c-3.888,0-7.051-3.153-7.051-7.051c0-3.898,3.163-7.051,7.051-7.051
			C532.926,271.516,536.08,274.669,536.08,278.567z"/>
		<path fill="none" stroke="#000000" stroke-width="10" stroke-linecap="round" stroke-linejoin="round" stroke-miterlimit="10" d="
			M536.08,278.567c0,3.898-3.153,7.051-7.051,7.051c-3.888,0-7.051-3.153-7.051-7.051c0-3.898,3.163-7.051,7.051-7.051
			C532.926,271.516,536.08,274.669,536.08,278.567z"/>
		<path d="M696.9,439.378c0,3.898-3.163,7.051-7.051,7.051c-3.898,0-7.051-3.152-7.051-7.051c0-3.888,3.153-7.051,7.051-7.051
			C693.737,432.327,696.9,435.49,696.9,439.378z"/>
		<path fill="none" stroke="#000000" stroke-width="10" stroke-linecap="round" stroke-linejoin="round" stroke-miterlimit="10" d="
			M696.9,439.378c0,3.898-3.163,7.051-7.051,7.051c-3.898,0-7.051-3.152-7.051-7.051c0-3.888,3.153-7.051,7.051-7.051
			C693.737,432.327,696.9,435.49,696.9,439.378z"/>
		<path d="M857.711,278.567c0,3.898-3.163,7.051-7.051,7.051c-3.898,0-7.051-3.153-7.051-7.051c0-3.898,3.153-7.051,7.051-7.051
			C854.548,271.516,857.711,274.669,857.711,278.567z"/>
		<path fill="none" stroke="#000000" stroke-width="10" stroke-linecap="round" stroke-linejoin="round" stroke-miterlimit="10" d="
			M857.711,278.567c0,3.898-3.163,7.051-7.051,7.051c-3.898,0-7.051-3.153-7.051-7.051c0-3.898,3.153-7.051,7.051-7.051
			C854.548,271.516,857.711,274.669,857.711,278.567z"/>
		<path d="M583.189,164.856c0,3.888-3.163,7.051-7.051,7.051c-3.898,0-7.051-3.163-7.051-7.051c0-3.898,3.153-7.051,7.051-7.051
			C580.026,157.806,583.189,160.958,583.189,164.856z"/>
		<path fill="none" stroke="#000000" stroke-width="10" stroke-linecap="round" stroke-linejoin="round" stroke-miterlimit="10" d="
			M583.189,164.856c0,3.888-3.163,7.051-7.051,7.051c-3.898,0-7.051-3.163-7.051-7.051c0-3.898,3.153-7.051,7.051-7.051
			C580.026,157.806,583.189,160.958,583.189,164.856z"/>
		<path d="M583.189,392.278c0,3.898-3.163,7.051-7.051,7.051c-3.898,0-7.051-3.152-7.051-7.051c0-3.898,3.153-7.051,7.051-7.051
			C580.026,385.227,583.189,388.38,583.189,392.278z"/>
		<path fill="none" stroke="#000000" stroke-width="10" stroke-linecap="round" stroke-linejoin="round" stroke-miterlimit="10" d="
			M583.189,392.278c0,3.898-3.163,7.051-7.051,7.051c-3.898,0-7.051-3.152-7.051-7.051c0-3.898,3.153-7.051,7.051-7.051
			C580.026,385.227,583.189,388.38,583.189,392.278z"/>
		<path d="M810.611,392.278c0,3.898-3.163,7.051-7.051,7.051c-3.898,0-7.051-3.152-7.051-7.051c0-3.898,3.153-7.051,7.051-7.051
			C807.448,385.227,810.611,388.38,810.611,392.278z"/>
		<path fill="none" stroke="#000000" stroke-width="10" stroke-linecap="round" stroke-linejoin="round" stroke-miterlimit="10" d="
			M810.611,392.278c0,3.898-3.163,7.051-7.051,7.051c-3.898,0-7.051-3.152-7.051-7.051c0-3.898,3.153-7.051,7.051-7.051
			C807.448,385.227,810.611,388.38,810.611,392.278z"/>
		<path d="M810.611,164.856c0,3.888-3.163,7.051-7.051,7.051c-3.898,0-7.051-3.163-7.051-7.051c0-3.898,3.153-7.051,7.051-7.051
			C807.448,157.806,810.611,160.958,810.611,164.856z"/>
		<path fill="none" stroke="#000000" stroke-width="10" stroke-linecap="round" stroke-linejoin="round" stroke-miterlimit="10" d="
			M810.611,164.856c0,3.888-3.163,7.051-7.051,7.051c-3.898,0-7.051-3.163-7.051-7.051c0-3.898,3.153-7.051,7.051-7.051
			C807.448,157.806,810.611,160.958,810.611,164.856z"/>
	</g>
	
		<line fill="none" stroke="#5A5AFF" stroke-width="10" stroke-linecap="round" stroke-miterlimit="10" x1="576.139" y1="164.856" x2="689.85" y2="117.756"/>
	
		<line fill="none" stroke="#5A5AFF" stroke-width="10" stroke-linecap="round" stroke-miterlimit="10" x1="529.028" y1="278.567" x2="576.132" y2="392.278"/>
	
		<line fill="none" stroke="#5A5AFF" stroke-width="10" stroke-linecap="round" stroke-miterlimit="10" x1="689.85" y1="439.378" x2="803.56" y2="392.275"/>
	
		<line fill="none" stroke="#5A5AFF" stroke-width="10" stroke-linecap="round" stroke-miterlimit="10" x1="850.66" y1="278.567" x2="803.558" y2="164.856"/>
</g>
<g>
	<g>
		<path fill="none" stroke="#000000" stroke-width="7" stroke-linecap="round" stroke-linejoin="round" stroke-miterlimit="10" d="
			M940.665,278.567c0,88.812,72,160.811,160.811,160.811c88.82,0,160.82-72,160.82-160.811c0-88.811-72-160.811-160.82-160.811
			C1012.665,117.756,940.665,189.756,940.665,278.567z"/>
		<path d="M1094.424,117.756c0,3.888,3.163,7.051,7.052,7.051c3.897,0,7.051-3.163,7.051-7.051c0-3.897-3.153-7.051-7.051-7.051
			C1097.587,110.706,1094.424,113.859,1094.424,117.756z"/>
		<path fill="none" stroke="#000000" stroke-width="10" stroke-linecap="round" stroke-linejoin="round" stroke-miterlimit="10" d="
			M1094.424,117.756c0,3.888,3.163,7.051,7.052,7.051c3.897,0,7.051-3.163,7.051-7.051c0-3.897-3.153-7.051-7.051-7.051
			C1097.587,110.706,1094.424,113.859,1094.424,117.756z"/>
		<path d="M1255.245,278.567c0,3.898,3.152,7.051,7.051,7.051c3.889,0,7.051-3.153,7.051-7.051c0-3.898-3.162-7.051-7.051-7.051
			C1258.397,271.516,1255.245,274.669,1255.245,278.567z"/>
		<path fill="none" stroke="#000000" stroke-width="10" stroke-linecap="round" stroke-linejoin="round" stroke-miterlimit="10" d="
			M1255.245,278.567c0,3.898,3.152,7.051,7.051,7.051c3.889,0,7.051-3.153,7.051-7.051c0-3.898-3.162-7.051-7.051-7.051
			C1258.397,271.516,1255.245,274.669,1255.245,278.567z"/>
		<path d="M1094.424,439.378c0,3.898,3.163,7.051,7.052,7.051c3.897,0,7.051-3.152,7.051-7.051c0-3.888-3.153-7.051-7.051-7.051
			C1097.587,432.327,1094.424,435.49,1094.424,439.378z"/>
		<path fill="none" stroke="#000000" stroke-width="10" stroke-linecap="round" stroke-linejoin="round" stroke-miterlimit="10" d="
			M1094.424,439.378c0,3.898,3.163,7.051,7.052,7.051c3.897,0,7.051-3.152,7.051-7.051c0-3.888-3.153-7.051-7.051-7.051
			C1097.587,432.327,1094.424,435.49,1094.424,439.378z"/>
		<path d="M933.614,278.567c0,3.898,3.163,7.051,7.051,7.051c3.898,0,7.051-3.153,7.051-7.051c0-3.898-3.153-7.051-7.051-7.051
			C936.777,271.516,933.614,274.669,933.614,278.567z"/>
		<path fill="none" stroke="#000000" stroke-width="10" stroke-linecap="round" stroke-linejoin="round" stroke-miterlimit="10" d="
			M933.614,278.567c0,3.898,3.163,7.051,7.051,7.051c3.898,0,7.051-3.153,7.051-7.051c0-3.898-3.153-7.051-7.051-7.051
			C936.777,271.516,933.614,274.669,933.614,278.567z"/>
		<path d="M1208.136,164.856c0,3.888,3.162,7.051,7.051,7.051c3.898,0,7.051-3.163,7.051-7.051c0-3.898-3.152-7.051-7.051-7.051
			C1211.298,157.806,1208.136,160.958,1208.136,164.856z"/>
		<path fill="none" stroke="#000000" stroke-width="10" stroke-linecap="round" stroke-linejoin="round" stroke-miterlimit="10" d="
			M1208.136,164.856c0,3.888,3.162,7.051,7.051,7.051c3.898,0,7.051-3.163,7.051-7.051c0-3.898-3.152-7.051-7.051-7.051
			C1211.298,157.806,1208.136,160.958,1208.136,164.856z"/>
		<path d="M1208.136,392.278c0,3.898,3.162,7.051,7.051,7.051c3.898,0,7.051-3.152,7.051-7.051c0-3.898-3.152-7.051-7.051-7.051
			C1211.298,385.227,1208.136,388.38,1208.136,392.278z"/>
		<path fill="none" stroke="#000000" stroke-width="10" stroke-linecap="round" stroke-linejoin="round" stroke-miterlimit="10" d="
			M1208.136,392.278c0,3.898,3.162,7.051,7.051,7.051c3.898,0,7.051-3.152,7.051-7.051c0-3.898-3.152-7.051-7.051-7.051
			C1211.298,385.227,1208.136,388.38,1208.136,392.278z"/>
		<path d="M980.714,392.278c0,3.898,3.163,7.051,7.051,7.051c3.898,0,7.051-3.152,7.051-7.051c0-3.898-3.152-7.051-7.051-7.051
			C983.877,385.227,980.714,388.38,980.714,392.278z"/>
		<path fill="none" stroke="#000000" stroke-width="10" stroke-linecap="round" stroke-linejoin="round" stroke-miterlimit="10" d="
			M980.714,392.278c0,3.898,3.163,7.051,7.051,7.051c3.898,0,7.051-3.152,7.051-7.051c0-3.898-3.152-7.051-7.051-7.051
			C983.877,385.227,980.714,388.38,980.714,392.278z"/>
		<path d="M980.714,164.856c0,3.888,3.163,7.051,7.051,7.051c3.898,0,7.051-3.163,7.051-7.051c0-3.898-3.152-7.051-7.051-7.051
			C983.877,157.806,980.714,160.958,980.714,164.856z"/>
		<path fill="none" stroke="#000000" stroke-width="10" stroke-linecap="round" stroke-linejoin="round" stroke-miterlimit="10" d="
			M980.714,164.856c0,3.888,3.163,7.051,7.051,7.051c3.898,0,7.051-3.163,7.051-7.051c0-3.898-3.152-7.051-7.051-7.051
			C983.877,157.806,980.714,160.958,980.714,164.856z"/>
	</g>
	
		<line fill="none" stroke="#5A5AFF" stroke-width="10" stroke-linecap="round" stroke-miterlimit="10" x1="1215.187" y1="164.856" x2="1101.476" y2="117.756"/>
	
		<line fill="none" stroke="#5A5AFF" stroke-width="10" stroke-linecap="round" stroke-miterlimit="10" x1="1262.296" y1="278.567" x2="1215.192" y2="392.278"/>
	
		<line fill="none" stroke="#5A5AFF" stroke-width="10" stroke-linecap="round" stroke-miterlimit="10" x1="1101.476" y1="439.378" x2="987.765" y2="392.275"/>
	
		<line fill="none" stroke="#5A5AFF" stroke-width="10" stroke-linecap="round" stroke-miterlimit="10" x1="940.665" y1="278.567" x2="987.768" y2="164.856"/>
</g>
<g>
	<g>
		<path fill="none" stroke="#000000" stroke-width="7" stroke-linecap="round" stroke-linejoin="round" stroke-miterlimit="10" d="
			M529.029,650.188c0,88.812,72,160.811,160.811,160.811c88.821,0,160.82-72,160.82-160.811c0-88.811-71.999-160.811-160.82-160.811
			C601.028,489.378,529.029,561.378,529.029,650.188z"/>
		<path d="M682.788,489.378c0,3.888,3.164,7.051,7.051,7.051c3.898,0,7.051-3.163,7.051-7.051c0-3.897-3.153-7.051-7.051-7.051
			C685.952,482.327,682.788,485.48,682.788,489.378z"/>
		<path fill="none" stroke="#000000" stroke-width="10" stroke-linecap="round" stroke-linejoin="round" stroke-miterlimit="10" d="
			M682.788,489.378c0,3.888,3.164,7.051,7.051,7.051c3.898,0,7.051-3.163,7.051-7.051c0-3.897-3.153-7.051-7.051-7.051
			C685.952,482.327,682.788,485.48,682.788,489.378z"/>
		<path d="M843.609,650.188c0,3.898,3.153,7.051,7.051,7.051c3.889,0,7.051-3.153,7.051-7.051c0-3.898-3.162-7.051-7.051-7.051
			C846.762,643.138,843.609,646.291,843.609,650.188z"/>
		<path fill="none" stroke="#000000" stroke-width="10" stroke-linecap="round" stroke-linejoin="round" stroke-miterlimit="10" d="
			M843.609,650.188c0,3.898,3.153,7.051,7.051,7.051c3.889,0,7.051-3.153,7.051-7.051c0-3.898-3.162-7.051-7.051-7.051
			C846.762,643.138,843.609,646.291,843.609,650.188z"/>
		<path d="M682.788,811c0,3.898,3.164,7.051,7.051,7.051c3.898,0,7.051-3.152,7.051-7.051c0-3.888-3.153-7.051-7.051-7.051
			C685.952,803.949,682.788,807.111,682.788,811z"/>
		<path fill="none" stroke="#000000" stroke-width="10" stroke-linecap="round" stroke-linejoin="round" stroke-miterlimit="10" d="
			M682.788,811c0,3.898,3.164,7.051,7.051,7.051c3.898,0,7.051-3.152,7.051-7.051c0-3.888-3.153-7.051-7.051-7.051
			C685.952,803.949,682.788,807.111,682.788,811z"/>
		<path d="M521.978,650.188c0,3.898,3.163,7.051,7.051,7.051c3.898,0,7.051-3.153,7.051-7.051c0-3.898-3.153-7.051-7.051-7.051
			C525.141,643.138,521.978,646.291,521.978,650.188z"/>
		<path fill="none" stroke="#000000" stroke-width="10" stroke-linecap="round" stroke-linejoin="round" stroke-miterlimit="10" d="
			M521.978,650.188c0,3.898,3.163,7.051,7.051,7.051c3.898,0,7.051-3.153,7.051-7.051c0-3.898-3.153-7.051-7.051-7.051
			C525.141,643.138,521.978,646.291,521.978,650.188z"/>
		<path d="M796.499,536.478c0,3.888,3.163,7.051,7.051,7.051c3.898,0,7.051-3.163,7.051-7.051c0-3.898-3.153-7.051-7.051-7.051
			C799.662,529.427,796.499,532.58,796.499,536.478z"/>
		<path fill="none" stroke="#000000" stroke-width="10" stroke-linecap="round" stroke-linejoin="round" stroke-miterlimit="10" d="
			M796.499,536.478c0,3.888,3.163,7.051,7.051,7.051c3.898,0,7.051-3.163,7.051-7.051c0-3.898-3.153-7.051-7.051-7.051
			C799.662,529.427,796.499,532.58,796.499,536.478z"/>
		<path d="M796.499,763.899c0,3.898,3.163,7.051,7.051,7.051c3.898,0,7.051-3.152,7.051-7.051c0-3.898-3.153-7.051-7.051-7.051
			C799.662,756.849,796.499,760.001,796.499,763.899z"/>
		<path fill="none" stroke="#000000" stroke-width="10" stroke-linecap="round" stroke-linejoin="round" stroke-miterlimit="10" d="
			M796.499,763.899c0,3.898,3.163,7.051,7.051,7.051c3.898,0,7.051-3.152,7.051-7.051c0-3.898-3.153-7.051-7.051-7.051
			C799.662,756.849,796.499,760.001,796.499,763.899z"/>
		<path d="M569.078,763.899c0,3.898,3.163,7.051,7.051,7.051c3.898,0,7.051-3.152,7.051-7.051c0-3.898-3.152-7.051-7.051-7.051
			C572.241,756.849,569.078,760.001,569.078,763.899z"/>
		<path fill="none" stroke="#000000" stroke-width="10" stroke-linecap="round" stroke-linejoin="round" stroke-miterlimit="10" d="
			M569.078,763.899c0,3.898,3.163,7.051,7.051,7.051c3.898,0,7.051-3.152,7.051-7.051c0-3.898-3.152-7.051-7.051-7.051
			C572.241,756.849,569.078,760.001,569.078,763.899z"/>
		<path d="M569.078,536.478c0,3.888,3.163,7.051,7.051,7.051c3.898,0,7.051-3.163,7.051-7.051c0-3.898-3.152-7.051-7.051-7.051
			C572.241,529.427,569.078,532.58,569.078,536.478z"/>
		<path fill="none" stroke="#000000" stroke-width="10" stroke-linecap="round" stroke-linejoin="round" stroke-miterlimit="10" d="
			M569.078,536.478c0,3.888,3.163,7.051,7.051,7.051c3.898,0,7.051-3.163,7.051-7.051c0-3.898-3.152-7.051-7.051-7.051
			C572.241,529.427,569.078,532.58,569.078,536.478z"/>
	</g>
	
		<line fill="none" stroke="#5A5AFF" stroke-width="10" stroke-linecap="round" stroke-miterlimit="10" x1="576.127" y1="536.482" x2="689.839" y2="489.378"/>
	
		<line fill="none" stroke="#5A5AFF" stroke-width="10" stroke-linecap="round" stroke-miterlimit="10" x1="529.029" y1="650.188" x2="803.561" y2="536.482"/>
	
		<line fill="none" stroke="#5A5AFF" stroke-width="10" stroke-linecap="round" stroke-miterlimit="10" x1="576.127" y1="763.899" x2="850.66" y2="650.188"/>
	
		<line fill="none" stroke="#5A5AFF" stroke-width="10" stroke-linecap="round" stroke-miterlimit="10" x1="689.839" y1="811" x2="803.561" y2="763.895"/>
</g>
<g>
	<g>
		<path fill="none" stroke="#000000" stroke-width="7" stroke-linecap="round" stroke-linejoin="round" stroke-miterlimit="10" d="
			M940.665,650.188c0,88.812,72,160.811,160.811,160.811c88.82,0,160.82-72,160.82-160.811c0-88.811-72-160.811-160.82-160.811
			C1012.665,489.378,940.665,561.378,940.665,650.188z"/>
		<path d="M1094.424,489.378c0,3.888,3.163,7.051,7.052,7.051c3.897,0,7.051-3.163,7.051-7.051c0-3.897-3.153-7.051-7.051-7.051
			C1097.587,482.327,1094.424,485.48,1094.424,489.378z"/>
		<path fill="none" stroke="#000000" stroke-width="10" stroke-linecap="round" stroke-linejoin="round" stroke-miterlimit="10" d="
			M1094.424,489.378c0,3.888,3.163,7.051,7.052,7.051c3.897,0,7.051-3.163,7.051-7.051c0-3.897-3.153-7.051-7.051-7.051
			C1097.587,482.327,1094.424,485.48,1094.424,489.378z"/>
		<path d="M1255.245,650.188c0,3.898,3.152,7.051,7.051,7.051c3.889,0,7.051-3.153,7.051-7.051c0-3.898-3.162-7.051-7.051-7.051
			C1258.397,643.138,1255.245,646.291,1255.245,650.188z"/>
		<path fill="none" stroke="#000000" stroke-width="10" stroke-linecap="round" stroke-linejoin="round" stroke-miterlimit="10" d="
			M1255.245,650.188c0,3.898,3.152,7.051,7.051,7.051c3.889,0,7.051-3.153,7.051-7.051c0-3.898-3.162-7.051-7.051-7.051
			C1258.397,643.138,1255.245,646.291,1255.245,650.188z"/>
		<path d="M1094.424,811c0,3.898,3.163,7.051,7.052,7.051c3.897,0,7.051-3.152,7.051-7.051c0-3.888-3.153-7.051-7.051-7.051
			C1097.587,803.949,1094.424,807.111,1094.424,811z"/>
		<path fill="none" stroke="#000000" stroke-width="10" stroke-linecap="round" stroke-linejoin="round" stroke-miterlimit="10" d="
			M1094.424,811c0,3.898,3.163,7.051,7.052,7.051c3.897,0,7.051-3.152,7.051-7.051c0-3.888-3.153-7.051-7.051-7.051
			C1097.587,803.949,1094.424,807.111,1094.424,811z"/>
		<path d="M933.614,650.188c0,3.898,3.163,7.051,7.051,7.051c3.898,0,7.051-3.153,7.051-7.051c0-3.898-3.153-7.051-7.051-7.051
			C936.777,643.138,933.614,646.291,933.614,650.188z"/>
		<path fill="none" stroke="#000000" stroke-width="10" stroke-linecap="round" stroke-linejoin="round" stroke-miterlimit="10" d="
			M933.614,650.188c0,3.898,3.163,7.051,7.051,7.051c3.898,0,7.051-3.153,7.051-7.051c0-3.898-3.153-7.051-7.051-7.051
			C936.777,643.138,933.614,646.291,933.614,650.188z"/>
		<path d="M1208.136,536.478c0,3.888,3.162,7.051,7.051,7.051c3.898,0,7.051-3.163,7.051-7.051c0-3.898-3.152-7.051-7.051-7.051
			C1211.298,529.427,1208.136,532.58,1208.136,536.478z"/>
		<path fill="none" stroke="#000000" stroke-width="10" stroke-linecap="round" stroke-linejoin="round" stroke-miterlimit="10" d="
			M1208.136,536.478c0,3.888,3.162,7.051,7.051,7.051c3.898,0,7.051-3.163,7.051-7.051c0-3.898-3.152-7.051-7.051-7.051
			C1211.298,529.427,1208.136,532.58,1208.136,536.478z"/>
		<path d="M1208.136,763.899c0,3.898,3.162,7.051,7.051,7.051c3.898,0,7.051-3.152,7.051-7.051c0-3.898-3.152-7.051-7.051-7.051
			C1211.298,756.849,1208.136,760.001,1208.136,763.899z"/>
		<path fill="none" stroke="#000000" stroke-width="10" stroke-linecap="round" stroke-linejoin="round" stroke-miterlimit="10" d="
			M1208.136,763.899c0,3.898,3.162,7.051,7.051,7.051c3.898,0,7.051-3.152,7.051-7.051c0-3.898-3.152-7.051-7.051-7.051
			C1211.298,756.849,1208.136,760.001,1208.136,763.899z"/>
		<path d="M980.714,763.899c0,3.898,3.163,7.051,7.051,7.051c3.898,0,7.051-3.152,7.051-7.051c0-3.898-3.152-7.051-7.051-7.051
			C983.877,756.849,980.714,760.001,980.714,763.899z"/>
		<path fill="none" stroke="#000000" stroke-width="10" stroke-linecap="round" stroke-linejoin="round" stroke-miterlimit="10" d="
			M980.714,763.899c0,3.898,3.163,7.051,7.051,7.051c3.898,0,7.051-3.152,7.051-7.051c0-3.898-3.152-7.051-7.051-7.051
			C983.877,756.849,980.714,760.001,980.714,763.899z"/>
		<path d="M980.714,536.478c0,3.888,3.163,7.051,7.051,7.051c3.898,0,7.051-3.163,7.051-7.051c0-3.898-3.152-7.051-7.051-7.051
			C983.877,529.427,980.714,532.58,980.714,536.478z"/>
		<path fill="none" stroke="#000000" stroke-width="10" stroke-linecap="round" stroke-linejoin="round" stroke-miterlimit="10" d="
			M980.714,536.478c0,3.888,3.163,7.051,7.051,7.051c3.898,0,7.051-3.163,7.051-7.051c0-3.898-3.152-7.051-7.051-7.051
			C983.877,529.427,980.714,532.58,980.714,536.478z"/>
	</g>
	
		<line fill="none" stroke="#5A5AFF" stroke-width="10" stroke-linecap="round" stroke-miterlimit="10" x1="1101.476" y1="489.378" x2="1215.198" y2="536.478"/>
	
		<line fill="none" stroke="#5A5AFF" stroke-width="10" stroke-linecap="round" stroke-miterlimit="10" x1="987.772" y1="536.482" x2="1262.296" y2="650.188"/>
	
		<line fill="none" stroke="#5A5AFF" stroke-width="10" stroke-linecap="round" stroke-miterlimit="10" x1="940.665" y1="650.188" x2="1215.198" y2="763.894"/>
	
		<line fill="none" stroke="#5A5AFF" stroke-width="10" stroke-linecap="round" stroke-miterlimit="10" x1="987.772" y1="763.894" x2="1101.476" y2="811"/>
</g>
<g>
	<g>
		<path fill="none" stroke="#000000" stroke-width="7" stroke-linecap="round" stroke-linejoin="round" stroke-miterlimit="10" d="
			M1352.302,650.188c0,88.812,72,160.811,160.811,160.811c88.82,0,160.82-72,160.82-160.811c0-88.811-72-160.811-160.82-160.811
			C1424.302,489.378,1352.302,561.378,1352.302,650.188z"/>
		<path d="M1506.062,489.378c0,3.888,3.162,7.051,7.051,7.051c3.898,0,7.051-3.163,7.051-7.051c0-3.897-3.152-7.051-7.051-7.051
			C1509.224,482.327,1506.062,485.48,1506.062,489.378z"/>
		<path fill="none" stroke="#000000" stroke-width="10" stroke-linecap="round" stroke-linejoin="round" stroke-miterlimit="10" d="
			M1506.062,489.378c0,3.888,3.162,7.051,7.051,7.051c3.898,0,7.051-3.163,7.051-7.051c0-3.897-3.152-7.051-7.051-7.051
			C1509.224,482.327,1506.062,485.48,1506.062,489.378z"/>
		<path d="M1666.882,650.188c0,3.898,3.152,7.051,7.051,7.051c3.889,0,7.051-3.153,7.051-7.051c0-3.898-3.162-7.051-7.051-7.051
			C1670.034,643.138,1666.882,646.291,1666.882,650.188z"/>
		<path fill="none" stroke="#000000" stroke-width="10" stroke-linecap="round" stroke-linejoin="round" stroke-miterlimit="10" d="
			M1666.882,650.188c0,3.898,3.152,7.051,7.051,7.051c3.889,0,7.051-3.153,7.051-7.051c0-3.898-3.162-7.051-7.051-7.051
			C1670.034,643.138,1666.882,646.291,1666.882,650.188z"/>
		<path d="M1506.062,811c0,3.898,3.162,7.051,7.051,7.051c3.898,0,7.051-3.152,7.051-7.051c0-3.888-3.152-7.051-7.051-7.051
			C1509.224,803.949,1506.062,807.111,1506.062,811z"/>
		<path fill="none" stroke="#000000" stroke-width="10" stroke-linecap="round" stroke-linejoin="round" stroke-miterlimit="10" d="
			M1506.062,811c0,3.898,3.162,7.051,7.051,7.051c3.898,0,7.051-3.152,7.051-7.051c0-3.888-3.152-7.051-7.051-7.051
			C1509.224,803.949,1506.062,807.111,1506.062,811z"/>
		<path d="M1345.251,650.188c0,3.898,3.162,7.051,7.051,7.051c3.898,0,7.051-3.153,7.051-7.051c0-3.898-3.152-7.051-7.051-7.051
			C1348.413,643.138,1345.251,646.291,1345.251,650.188z"/>
		<path fill="none" stroke="#000000" stroke-width="10" stroke-linecap="round" stroke-linejoin="round" stroke-miterlimit="10" d="
			M1345.251,650.188c0,3.898,3.162,7.051,7.051,7.051c3.898,0,7.051-3.153,7.051-7.051c0-3.898-3.152-7.051-7.051-7.051
			C1348.413,643.138,1345.251,646.291,1345.251,650.188z"/>
		<path d="M1619.772,536.478c0,3.888,3.162,7.051,7.051,7.051c3.898,0,7.051-3.163,7.051-7.051c0-3.898-3.152-7.051-7.051-7.051
			C1622.935,529.427,1619.772,532.58,1619.772,536.478z"/>
		<path fill="none" stroke="#000000" stroke-width="10" stroke-linecap="round" stroke-linejoin="round" stroke-miterlimit="10" d="
			M1619.772,536.478c0,3.888,3.162,7.051,7.051,7.051c3.898,0,7.051-3.163,7.051-7.051c0-3.898-3.152-7.051-7.051-7.051
			C1622.935,529.427,1619.772,532.58,1619.772,536.478z"/>
		<path d="M1619.772,763.899c0,3.898,3.162,7.051,7.051,7.051c3.898,0,7.051-3.152,7.051-7.051c0-3.898-3.152-7.051-7.051-7.051
			C1622.935,756.849,1619.772,760.001,1619.772,763.899z"/>
		<path fill="none" stroke="#000000" stroke-width="10" stroke-linecap="round" stroke-linejoin="round" stroke-miterlimit="10" d="
			M1619.772,763.899c0,3.898,3.162,7.051,7.051,7.051c3.898,0,7.051-3.152,7.051-7.051c0-3.898-3.152-7.051-7.051-7.051
			C1622.935,756.849,1619.772,760.001,1619.772,763.899z"/>
		<path d="M1392.351,763.899c0,3.898,3.162,7.051,7.051,7.051c3.898,0,7.051-3.152,7.051-7.051c0-3.898-3.152-7.051-7.051-7.051
			C1395.513,756.849,1392.351,760.001,1392.351,763.899z"/>
		<path fill="none" stroke="#000000" stroke-width="10" stroke-linecap="round" stroke-linejoin="round" stroke-miterlimit="10" d="
			M1392.351,763.899c0,3.898,3.162,7.051,7.051,7.051c3.898,0,7.051-3.152,7.051-7.051c0-3.898-3.152-7.051-7.051-7.051
			C1395.513,756.849,1392.351,760.001,1392.351,763.899z"/>
		<path d="M1392.351,536.478c0,3.888,3.162,7.051,7.051,7.051c3.898,0,7.051-3.163,7.051-7.051c0-3.898-3.152-7.051-7.051-7.051
			C1395.513,529.427,1392.351,532.58,1392.351,536.478z"/>
		<path fill="none" stroke="#000000" stroke-width="10" stroke-linecap="round" stroke-linejoin="round" stroke-miterlimit="10" d="
			M1392.351,536.478c0,3.888,3.162,7.051,7.051,7.051c3.898,0,7.051-3.163,7.051-7.051c0-3.898-3.152-7.051-7.051-7.051
			C1395.513,529.427,1392.351,532.58,1392.351,536.478z"/>
	</g>
	
		<line fill="none" stroke="#5A5AFF" stroke-width="10" stroke-linecap="round" stroke-miterlimit="10" x1="1626.833" y1="536.482" x2="1673.933" y2="650.188"/>
	
		<line fill="none" stroke="#5A5AFF" stroke-width="10" stroke-linecap="round" stroke-miterlimit="10" x1="1513.112" y1="489.378" x2="1626.835" y2="763.894"/>
	
		<line fill="none" stroke="#5A5AFF" stroke-width="10" stroke-linecap="round" stroke-miterlimit="10" x1="1399.403" y1="536.478" x2="1513.112" y2="811"/>
	
		<line fill="none" stroke="#5A5AFF" stroke-width="10" stroke-linecap="round" stroke-miterlimit="10" x1="1352.302" y1="650.188" x2="1399.399" y2="763.894"/>
</g>
<g>
	<g>
		<path fill="none" stroke="#000000" stroke-width="7" stroke-linecap="round" stroke-linejoin="round" stroke-miterlimit="10" d="
			M117.397,650.189c0,88.812,72,160.811,160.812,160.811c88.82,0,160.82-72,160.82-160.811c0-88.811-72-160.811-160.82-160.811
			C189.397,489.378,117.397,561.378,117.397,650.189z"/>
		<path d="M271.157,489.378c0,3.888,3.163,7.051,7.052,7.051c3.897,0,7.051-3.163,7.051-7.051c0-3.897-3.153-7.051-7.051-7.051
			C274.32,482.328,271.157,485.481,271.157,489.378z"/>
		<path fill="none" stroke="#000000" stroke-width="10" stroke-linecap="round" stroke-linejoin="round" stroke-miterlimit="10" d="
			M271.157,489.378c0,3.888,3.163,7.051,7.052,7.051c3.897,0,7.051-3.163,7.051-7.051c0-3.897-3.153-7.051-7.051-7.051
			C274.32,482.328,271.157,485.481,271.157,489.378z"/>
		<path d="M431.978,650.189c0,3.898,3.152,7.051,7.051,7.051c3.889,0,7.051-3.153,7.051-7.051c0-3.898-3.162-7.051-7.051-7.051
			C435.13,643.138,431.978,646.291,431.978,650.189z"/>
		<path fill="none" stroke="#000000" stroke-width="10" stroke-linecap="round" stroke-linejoin="round" stroke-miterlimit="10" d="
			M431.978,650.189c0,3.898,3.152,7.051,7.051,7.051c3.889,0,7.051-3.153,7.051-7.051c0-3.898-3.162-7.051-7.051-7.051
			C435.13,643.138,431.978,646.291,431.978,650.189z"/>
		<path d="M271.157,811c0,3.898,3.163,7.051,7.052,7.051c3.897,0,7.051-3.152,7.051-7.051c0-3.888-3.153-7.051-7.051-7.051
			C274.32,803.949,271.157,807.112,271.157,811z"/>
		<path fill="none" stroke="#000000" stroke-width="10" stroke-linecap="round" stroke-linejoin="round" stroke-miterlimit="10" d="
			M271.157,811c0,3.898,3.163,7.051,7.052,7.051c3.897,0,7.051-3.152,7.051-7.051c0-3.888-3.153-7.051-7.051-7.051
			C274.32,803.949,271.157,807.112,271.157,811z"/>
		<path d="M110.346,650.189c0,3.898,3.163,7.051,7.051,7.051c3.898,0,7.051-3.153,7.051-7.051c0-3.898-3.152-7.051-7.051-7.051
			C113.509,643.138,110.346,646.291,110.346,650.189z"/>
		<path fill="none" stroke="#000000" stroke-width="10" stroke-linecap="round" stroke-linejoin="round" stroke-miterlimit="10" d="
			M110.346,650.189c0,3.898,3.163,7.051,7.051,7.051c3.898,0,7.051-3.153,7.051-7.051c0-3.898-3.152-7.051-7.051-7.051
			C113.509,643.138,110.346,646.291,110.346,650.189z"/>
		<path d="M384.868,536.479c0,3.888,3.163,7.051,7.052,7.051c3.897,0,7.051-3.163,7.051-7.051c0-3.898-3.153-7.051-7.051-7.051
			C388.031,529.428,384.868,532.581,384.868,536.479z"/>
		<path fill="none" stroke="#000000" stroke-width="10" stroke-linecap="round" stroke-linejoin="round" stroke-miterlimit="10" d="
			M384.868,536.479c0,3.888,3.163,7.051,7.052,7.051c3.897,0,7.051-3.163,7.051-7.051c0-3.898-3.153-7.051-7.051-7.051
			C388.031,529.428,384.868,532.581,384.868,536.479z"/>
		<path d="M384.868,763.9c0,3.898,3.163,7.051,7.052,7.051c3.897,0,7.051-3.152,7.051-7.051c0-3.898-3.153-7.051-7.051-7.051
			C388.031,756.849,384.868,760.002,384.868,763.9z"/>
		<path fill="none" stroke="#000000" stroke-width="10" stroke-linecap="round" stroke-linejoin="round" stroke-miterlimit="10" d="
			M384.868,763.9c0,3.898,3.163,7.051,7.052,7.051c3.897,0,7.051-3.152,7.051-7.051c0-3.898-3.153-7.051-7.051-7.051
			C388.031,756.849,384.868,760.002,384.868,763.9z"/>
		<path d="M157.446,763.9c0,3.898,3.164,7.051,7.051,7.051c3.898,0,7.051-3.152,7.051-7.051c0-3.898-3.152-7.051-7.051-7.051
			C160.61,756.849,157.446,760.002,157.446,763.9z"/>
		<path fill="none" stroke="#000000" stroke-width="10" stroke-linecap="round" stroke-linejoin="round" stroke-miterlimit="10" d="
			M157.446,763.9c0,3.898,3.164,7.051,7.051,7.051c3.898,0,7.051-3.152,7.051-7.051c0-3.898-3.152-7.051-7.051-7.051
			C160.61,756.849,157.446,760.002,157.446,763.9z"/>
		<path d="M157.446,536.479c0,3.888,3.164,7.051,7.051,7.051c3.898,0,7.051-3.163,7.051-7.051c0-3.898-3.152-7.051-7.051-7.051
			C160.61,529.428,157.446,532.581,157.446,536.479z"/>
		<path fill="none" stroke="#000000" stroke-width="10" stroke-linecap="round" stroke-linejoin="round" stroke-miterlimit="10" d="
			M157.446,536.479c0,3.888,3.164,7.051,7.051,7.051c3.898,0,7.051-3.163,7.051-7.051c0-3.898-3.152-7.051-7.051-7.051
			C160.61,529.428,157.446,532.581,157.446,536.479z"/>
	</g>
	
		<line fill="none" stroke="#5A5AFF" stroke-width="10" stroke-linecap="round" stroke-miterlimit="10" x1="439.029" y1="650.189" x2="391.918" y2="763.906"/>
	
		<line fill="none" stroke="#5A5AFF" stroke-width="10" stroke-linecap="round" stroke-miterlimit="10" x1="391.929" y1="536.483" x2="278.208" y2="811"/>
	
		<line fill="none" stroke="#5A5AFF" stroke-width="10" stroke-linecap="round" stroke-miterlimit="10" x1="278.208" y1="489.378" x2="164.497" y2="763.906"/>
	
		<line fill="none" stroke="#5A5AFF" stroke-width="10" stroke-linecap="round" stroke-miterlimit="10" x1="164.5" y1="536.479" x2="117.397" y2="650.189"/>
</g>
<g>
	<g>
		<path fill="none" stroke="#000000" stroke-width="7" stroke-linecap="round" stroke-linejoin="round" stroke-miterlimit="10" d="
			M529.024,1021.811c0,88.811,72,160.811,160.811,160.811c88.82,0,160.82-72,160.82-160.811c0-88.811-72-160.811-160.82-160.811
			C601.023,861,529.024,933,529.024,1021.811z"/>
		<path d="M682.783,861c0,3.888,3.163,7.051,7.052,7.051c3.897,0,7.051-3.163,7.051-7.051c0-3.897-3.153-7.051-7.051-7.051
			C685.946,853.949,682.783,857.102,682.783,861z"/>
		<path fill="none" stroke="#000000" stroke-width="10" stroke-linecap="round" stroke-linejoin="round" stroke-miterlimit="10" d="
			M682.783,861c0,3.888,3.163,7.051,7.052,7.051c3.897,0,7.051-3.163,7.051-7.051c0-3.897-3.153-7.051-7.051-7.051
			C685.946,853.949,682.783,857.102,682.783,861z"/>
		<path d="M843.604,1021.811c0,3.898,3.152,7.051,7.051,7.051c3.889,0,7.051-3.152,7.051-7.051s-3.162-7.051-7.051-7.051
			C846.757,1014.759,843.604,1017.912,843.604,1021.811z"/>
		<path fill="none" stroke="#000000" stroke-width="10" stroke-linecap="round" stroke-linejoin="round" stroke-miterlimit="10" d="
			M843.604,1021.811c0,3.898,3.152,7.051,7.051,7.051c3.889,0,7.051-3.152,7.051-7.051s-3.162-7.051-7.051-7.051
			C846.757,1014.759,843.604,1017.912,843.604,1021.811z"/>
		<path d="M682.783,1182.621c0,3.898,3.163,7.051,7.052,7.051c3.897,0,7.051-3.152,7.051-7.051c0-3.889-3.153-7.051-7.051-7.051
			C685.946,1175.57,682.783,1178.732,682.783,1182.621z"/>
		<path fill="none" stroke="#000000" stroke-width="10" stroke-linecap="round" stroke-linejoin="round" stroke-miterlimit="10" d="
			M682.783,1182.621c0,3.898,3.163,7.051,7.052,7.051c3.897,0,7.051-3.152,7.051-7.051c0-3.889-3.153-7.051-7.051-7.051
			C685.946,1175.57,682.783,1178.732,682.783,1182.621z"/>
		<path d="M521.973,1021.811c0,3.898,3.163,7.051,7.051,7.051c3.898,0,7.051-3.152,7.051-7.051s-3.153-7.051-7.051-7.051
			C525.136,1014.759,521.973,1017.912,521.973,1021.811z"/>
		<path fill="none" stroke="#000000" stroke-width="10" stroke-linecap="round" stroke-linejoin="round" stroke-miterlimit="10" d="
			M521.973,1021.811c0,3.898,3.163,7.051,7.051,7.051c3.898,0,7.051-3.152,7.051-7.051s-3.153-7.051-7.051-7.051
			C525.136,1014.759,521.973,1017.912,521.973,1021.811z"/>
		<path d="M796.494,908.1c0,3.888,3.163,7.051,7.052,7.051c3.897,0,7.051-3.163,7.051-7.051c0-3.898-3.153-7.051-7.051-7.051
			C799.657,901.049,796.494,904.202,796.494,908.1z"/>
		<path fill="none" stroke="#000000" stroke-width="10" stroke-linecap="round" stroke-linejoin="round" stroke-miterlimit="10" d="
			M796.494,908.1c0,3.888,3.163,7.051,7.052,7.051c3.897,0,7.051-3.163,7.051-7.051c0-3.898-3.153-7.051-7.051-7.051
			C799.657,901.049,796.494,904.202,796.494,908.1z"/>
		<path d="M796.494,1135.521c0,3.898,3.163,7.051,7.052,7.051c3.897,0,7.051-3.152,7.051-7.051s-3.153-7.051-7.051-7.051
			C799.657,1128.471,796.494,1131.623,796.494,1135.521z"/>
		<path fill="none" stroke="#000000" stroke-width="10" stroke-linecap="round" stroke-linejoin="round" stroke-miterlimit="10" d="
			M796.494,1135.521c0,3.898,3.163,7.051,7.052,7.051c3.897,0,7.051-3.152,7.051-7.051s-3.153-7.051-7.051-7.051
			C799.657,1128.471,796.494,1131.623,796.494,1135.521z"/>
		<path d="M569.073,1135.521c0,3.898,3.163,7.051,7.051,7.051c3.898,0,7.051-3.152,7.051-7.051s-3.152-7.051-7.051-7.051
			C572.236,1128.471,569.073,1131.623,569.073,1135.521z"/>
		<path fill="none" stroke="#000000" stroke-width="10" stroke-linecap="round" stroke-linejoin="round" stroke-miterlimit="10" d="
			M569.073,1135.521c0,3.898,3.163,7.051,7.051,7.051c3.898,0,7.051-3.152,7.051-7.051s-3.152-7.051-7.051-7.051
			C572.236,1128.471,569.073,1131.623,569.073,1135.521z"/>
		<path d="M569.073,908.1c0,3.888,3.163,7.051,7.051,7.051c3.898,0,7.051-3.163,7.051-7.051c0-3.898-3.152-7.051-7.051-7.051
			C572.236,901.049,569.073,904.202,569.073,908.1z"/>
		<path fill="none" stroke="#000000" stroke-width="10" stroke-linecap="round" stroke-linejoin="round" stroke-miterlimit="10" d="
			M569.073,908.1c0,3.888,3.163,7.051,7.051,7.051c3.898,0,7.051-3.163,7.051-7.051c0-3.898-3.152-7.051-7.051-7.051
			C572.236,901.049,569.073,904.202,569.073,908.1z"/>
	</g>
	
		<line fill="none" stroke="#5A5AFF" stroke-width="10" stroke-linecap="round" stroke-miterlimit="10" x1="576.122" y1="908.104" x2="689.835" y2="861"/>
	
		<line fill="none" stroke="#5A5AFF" stroke-width="10" stroke-linecap="round" stroke-miterlimit="10" x1="529.024" y1="1021.811" x2="803.556" y2="908.104"/>
	
		<line fill="none" stroke="#5A5AFF" stroke-width="10" stroke-linecap="round" stroke-miterlimit="10" x1="576.139" y1="1135.533" x2="689.835" y2="1182.621"/>
	
		<line fill="none" stroke="#5A5AFF" stroke-width="10" stroke-linecap="round" stroke-miterlimit="10" x1="850.655" y1="1021.811" x2="803.561" y2="1135.533"/>
</g>
<g>
	<g>
		<path fill="none" stroke="#000000" stroke-width="7" stroke-linecap="round" stroke-linejoin="round" stroke-miterlimit="10" d="
			M940.66,1021.811c0,88.811,72,160.811,160.81,160.811c88.822,0,160.82-72,160.82-160.811C1262.29,933,1190.292,861,1101.47,861
			C1012.66,861,940.66,933,940.66,1021.811z"/>
		<path d="M1094.419,861c0,3.888,3.164,7.051,7.051,7.051c3.898,0,7.051-3.163,7.051-7.051c0-3.897-3.152-7.051-7.051-7.051
			C1097.583,853.949,1094.419,857.102,1094.419,861z"/>
		<path fill="none" stroke="#000000" stroke-width="10" stroke-linecap="round" stroke-linejoin="round" stroke-miterlimit="10" d="
			M1094.419,861c0,3.888,3.164,7.051,7.051,7.051c3.898,0,7.051-3.163,7.051-7.051c0-3.897-3.152-7.051-7.051-7.051
			C1097.583,853.949,1094.419,857.102,1094.419,861z"/>
		<path d="M1255.239,1021.811c0,3.898,3.154,7.051,7.051,7.051c3.889,0,7.051-3.152,7.051-7.051s-3.162-7.051-7.051-7.051
			C1258.394,1014.759,1255.239,1017.912,1255.239,1021.811z"/>
		<path fill="none" stroke="#000000" stroke-width="10" stroke-linecap="round" stroke-linejoin="round" stroke-miterlimit="10" d="
			M1255.239,1021.811c0,3.898,3.154,7.051,7.051,7.051c3.889,0,7.051-3.152,7.051-7.051s-3.162-7.051-7.051-7.051
			C1258.394,1014.759,1255.239,1017.912,1255.239,1021.811z"/>
		<path d="M1094.419,1182.621c0,3.898,3.164,7.051,7.051,7.051c3.898,0,7.051-3.152,7.051-7.051c0-3.889-3.152-7.051-7.051-7.051
			C1097.583,1175.57,1094.419,1178.732,1094.419,1182.621z"/>
		<path fill="none" stroke="#000000" stroke-width="10" stroke-linecap="round" stroke-linejoin="round" stroke-miterlimit="10" d="
			M1094.419,1182.621c0,3.898,3.164,7.051,7.051,7.051c3.898,0,7.051-3.152,7.051-7.051c0-3.889-3.152-7.051-7.051-7.051
			C1097.583,1175.57,1094.419,1178.732,1094.419,1182.621z"/>
		<path d="M933.609,1021.811c0,3.898,3.163,7.051,7.051,7.051c3.898,0,7.051-3.152,7.051-7.051s-3.153-7.051-7.051-7.051
			C936.772,1014.759,933.609,1017.912,933.609,1021.811z"/>
		<path fill="none" stroke="#000000" stroke-width="10" stroke-linecap="round" stroke-linejoin="round" stroke-miterlimit="10" d="
			M933.609,1021.811c0,3.898,3.163,7.051,7.051,7.051c3.898,0,7.051-3.152,7.051-7.051s-3.153-7.051-7.051-7.051
			C936.772,1014.759,933.609,1017.912,933.609,1021.811z"/>
		<path d="M1208.13,908.1c0,3.888,3.164,7.051,7.051,7.051c3.898,0,7.051-3.163,7.051-7.051c0-3.898-3.152-7.051-7.051-7.051
			C1211.294,901.049,1208.13,904.202,1208.13,908.1z"/>
		<path fill="none" stroke="#000000" stroke-width="10" stroke-linecap="round" stroke-linejoin="round" stroke-miterlimit="10" d="
			M1208.13,908.1c0,3.888,3.164,7.051,7.051,7.051c3.898,0,7.051-3.163,7.051-7.051c0-3.898-3.152-7.051-7.051-7.051
			C1211.294,901.049,1208.13,904.202,1208.13,908.1z"/>
		<path d="M1208.13,1135.521c0,3.898,3.164,7.051,7.051,7.051c3.898,0,7.051-3.152,7.051-7.051s-3.152-7.051-7.051-7.051
			C1211.294,1128.471,1208.13,1131.623,1208.13,1135.521z"/>
		<path fill="none" stroke="#000000" stroke-width="10" stroke-linecap="round" stroke-linejoin="round" stroke-miterlimit="10" d="
			M1208.13,1135.521c0,3.898,3.164,7.051,7.051,7.051c3.898,0,7.051-3.152,7.051-7.051s-3.152-7.051-7.051-7.051
			C1211.294,1128.471,1208.13,1131.623,1208.13,1135.521z"/>
		<path d="M980.709,1135.521c0,3.898,3.163,7.051,7.051,7.051c3.898,0,7.051-3.152,7.051-7.051s-3.152-7.051-7.051-7.051
			C983.872,1128.471,980.709,1131.623,980.709,1135.521z"/>
		<path fill="none" stroke="#000000" stroke-width="10" stroke-linecap="round" stroke-linejoin="round" stroke-miterlimit="10" d="
			M980.709,1135.521c0,3.898,3.163,7.051,7.051,7.051c3.898,0,7.051-3.152,7.051-7.051s-3.152-7.051-7.051-7.051
			C983.872,1128.471,980.709,1131.623,980.709,1135.521z"/>
		<path d="M980.709,908.1c0,3.888,3.163,7.051,7.051,7.051c3.898,0,7.051-3.163,7.051-7.051c0-3.898-3.152-7.051-7.051-7.051
			C983.872,901.049,980.709,904.202,980.709,908.1z"/>
		<path fill="none" stroke="#000000" stroke-width="10" stroke-linecap="round" stroke-linejoin="round" stroke-miterlimit="10" d="
			M980.709,908.1c0,3.888,3.163,7.051,7.051,7.051c3.898,0,7.051-3.163,7.051-7.051c0-3.898-3.152-7.051-7.051-7.051
			C983.872,901.049,980.709,904.202,980.709,908.1z"/>
	</g>
	
		<line fill="none" stroke="#5A5AFF" stroke-width="10" stroke-linecap="round" stroke-miterlimit="10" x1="1101.47" y1="861" x2="1215.198" y2="908.1"/>
	
		<line fill="none" stroke="#5A5AFF" stroke-width="10" stroke-linecap="round" stroke-miterlimit="10" x1="987.772" y1="908.104" x2="1262.29" y2="1021.811"/>
	
		<line fill="none" stroke="#5A5AFF" stroke-width="10" stroke-linecap="round" stroke-miterlimit="10" x1="940.66" y1="1021.811" x2="987.76" y2="1135.518"/>
	
		<line fill="none" stroke="#5A5AFF" stroke-width="10" stroke-linecap="round" stroke-miterlimit="10" x1="1101.47" y1="1182.621" x2="1215.198" y2="1135.512"/>
</g>
<g>
	<g>
		<path fill="none" stroke="#000000" stroke-width="7" stroke-linecap="round" stroke-linejoin="round" stroke-miterlimit="10" d="
			M1352.302,1021.811c0,88.811,72,160.811,160.811,160.811c88.82,0,160.82-72,160.82-160.811c0-88.812-72-160.812-160.82-160.812
			C1424.302,860.999,1352.302,932.999,1352.302,1021.811z"/>
		<path d="M1506.062,860.999c0,3.888,3.164,7.051,7.051,7.051c3.898,0,7.051-3.163,7.051-7.051c0-3.897-3.152-7.051-7.051-7.051
			C1509.226,853.948,1506.062,857.102,1506.062,860.999z"/>
		<path fill="none" stroke="#000000" stroke-width="10" stroke-linecap="round" stroke-linejoin="round" stroke-miterlimit="10" d="
			M1506.062,860.999c0,3.888,3.164,7.051,7.051,7.051c3.898,0,7.051-3.163,7.051-7.051c0-3.897-3.152-7.051-7.051-7.051
			C1509.226,853.948,1506.062,857.102,1506.062,860.999z"/>
		<path d="M1666.882,1021.811c0,3.898,3.152,7.051,7.051,7.051c3.889,0,7.051-3.152,7.051-7.051s-3.162-7.051-7.051-7.051
			C1670.034,1014.759,1666.882,1017.912,1666.882,1021.811z"/>
		<path fill="none" stroke="#000000" stroke-width="10" stroke-linecap="round" stroke-linejoin="round" stroke-miterlimit="10" d="
			M1666.882,1021.811c0,3.898,3.152,7.051,7.051,7.051c3.889,0,7.051-3.152,7.051-7.051s-3.162-7.051-7.051-7.051
			C1670.034,1014.759,1666.882,1017.912,1666.882,1021.811z"/>
		<path d="M1506.062,1182.621c0,3.898,3.164,7.051,7.051,7.051c3.898,0,7.051-3.152,7.051-7.051c0-3.889-3.152-7.051-7.051-7.051
			C1509.226,1175.57,1506.062,1178.732,1506.062,1182.621z"/>
		<path fill="none" stroke="#000000" stroke-width="10" stroke-linecap="round" stroke-linejoin="round" stroke-miterlimit="10" d="
			M1506.062,1182.621c0,3.898,3.164,7.051,7.051,7.051c3.898,0,7.051-3.152,7.051-7.051c0-3.889-3.152-7.051-7.051-7.051
			C1509.226,1175.57,1506.062,1178.732,1506.062,1182.621z"/>
		<path d="M1345.251,1021.811c0,3.898,3.162,7.051,7.051,7.051c3.898,0,7.051-3.152,7.051-7.051s-3.152-7.051-7.051-7.051
			C1348.413,1014.759,1345.251,1017.912,1345.251,1021.811z"/>
		<path fill="none" stroke="#000000" stroke-width="10" stroke-linecap="round" stroke-linejoin="round" stroke-miterlimit="10" d="
			M1345.251,1021.811c0,3.898,3.162,7.051,7.051,7.051c3.898,0,7.051-3.152,7.051-7.051s-3.152-7.051-7.051-7.051
			C1348.413,1014.759,1345.251,1017.912,1345.251,1021.811z"/>
		<path d="M1619.772,908.099c0,3.888,3.162,7.051,7.051,7.051c3.898,0,7.051-3.163,7.051-7.051c0-3.898-3.152-7.051-7.051-7.051
			C1622.935,901.048,1619.772,904.201,1619.772,908.099z"/>
		<path fill="none" stroke="#000000" stroke-width="10" stroke-linecap="round" stroke-linejoin="round" stroke-miterlimit="10" d="
			M1619.772,908.099c0,3.888,3.162,7.051,7.051,7.051c3.898,0,7.051-3.163,7.051-7.051c0-3.898-3.152-7.051-7.051-7.051
			C1622.935,901.048,1619.772,904.201,1619.772,908.099z"/>
		<path d="M1619.772,1135.52c0,3.898,3.162,7.051,7.051,7.051c3.898,0,7.051-3.152,7.051-7.051c0-3.896-3.152-7.051-7.051-7.051
			C1622.935,1128.469,1619.772,1131.623,1619.772,1135.52z"/>
		<path fill="none" stroke="#000000" stroke-width="10" stroke-linecap="round" stroke-linejoin="round" stroke-miterlimit="10" d="
			M1619.772,1135.52c0,3.898,3.162,7.051,7.051,7.051c3.898,0,7.051-3.152,7.051-7.051c0-3.896-3.152-7.051-7.051-7.051
			C1622.935,1128.469,1619.772,1131.623,1619.772,1135.52z"/>
		<path d="M1392.351,1135.52c0,3.898,3.164,7.051,7.051,7.051c3.898,0,7.051-3.152,7.051-7.051c0-3.896-3.152-7.051-7.051-7.051
			C1395.515,1128.469,1392.351,1131.623,1392.351,1135.52z"/>
		<path fill="none" stroke="#000000" stroke-width="10" stroke-linecap="round" stroke-linejoin="round" stroke-miterlimit="10" d="
			M1392.351,1135.52c0,3.898,3.164,7.051,7.051,7.051c3.898,0,7.051-3.152,7.051-7.051c0-3.896-3.152-7.051-7.051-7.051
			C1395.515,1128.469,1392.351,1131.623,1392.351,1135.52z"/>
		<path d="M1392.351,908.099c0,3.888,3.164,7.051,7.051,7.051c3.898,0,7.051-3.163,7.051-7.051c0-3.898-3.152-7.051-7.051-7.051
			C1395.515,901.048,1392.351,904.201,1392.351,908.099z"/>
		<path fill="none" stroke="#000000" stroke-width="10" stroke-linecap="round" stroke-linejoin="round" stroke-miterlimit="10" d="
			M1392.351,908.099c0,3.888,3.164,7.051,7.051,7.051c3.898,0,7.051-3.163,7.051-7.051c0-3.898-3.152-7.051-7.051-7.051
			C1395.515,901.048,1392.351,904.201,1392.351,908.099z"/>
	</g>
	
		<line fill="none" stroke="#5A5AFF" stroke-width="10" stroke-linecap="round" stroke-miterlimit="10" x1="1626.835" y1="908.104" x2="1673.933" y2="1021.811"/>
	
		<line fill="none" stroke="#5A5AFF" stroke-width="10" stroke-linecap="round" stroke-miterlimit="10" x1="1513.112" y1="860.999" x2="1626.823" y2="1135.512"/>
	
		<line fill="none" stroke="#5A5AFF" stroke-width="10" stroke-linecap="round" stroke-miterlimit="10" x1="1399.403" y1="908.104" x2="1352.302" y2="1021.811"/>
	
		<line fill="none" stroke="#5A5AFF" stroke-width="10" stroke-linecap="round" stroke-miterlimit="10" x1="1399.399" y1="1135.533" x2="1513.112" y2="1182.621"/>
</g>
<g>
	<g>
		<path fill="none" stroke="#000000" stroke-width="7" stroke-linecap="round" stroke-linejoin="round" stroke-miterlimit="10" d="
			M117.398,1021.811c0,88.811,71.999,160.811,160.811,160.811c88.82,0,160.82-72,160.82-160.811c0-88.811-72-160.811-160.82-160.811
			C189.397,861,117.398,933,117.398,1021.811z"/>
		<path d="M271.157,861c0,3.888,3.163,7.051,7.052,7.051c3.897,0,7.051-3.163,7.051-7.051c0-3.897-3.153-7.051-7.051-7.051
			C274.32,853.949,271.157,857.102,271.157,861z"/>
		<path fill="none" stroke="#000000" stroke-width="10" stroke-linecap="round" stroke-linejoin="round" stroke-miterlimit="10" d="
			M271.157,861c0,3.888,3.163,7.051,7.052,7.051c3.897,0,7.051-3.163,7.051-7.051c0-3.897-3.153-7.051-7.051-7.051
			C274.32,853.949,271.157,857.102,271.157,861z"/>
		<path d="M431.978,1021.811c0,3.898,3.152,7.051,7.051,7.051c3.889,0,7.051-3.152,7.051-7.051s-3.162-7.051-7.051-7.051
			C435.13,1014.759,431.978,1017.912,431.978,1021.811z"/>
		<path fill="none" stroke="#000000" stroke-width="10" stroke-linecap="round" stroke-linejoin="round" stroke-miterlimit="10" d="
			M431.978,1021.811c0,3.898,3.152,7.051,7.051,7.051c3.889,0,7.051-3.152,7.051-7.051s-3.162-7.051-7.051-7.051
			C435.13,1014.759,431.978,1017.912,431.978,1021.811z"/>
		<path d="M271.157,1182.621c0,3.898,3.163,7.051,7.052,7.051c3.897,0,7.051-3.152,7.051-7.051c0-3.889-3.153-7.051-7.051-7.051
			C274.32,1175.57,271.157,1178.732,271.157,1182.621z"/>
		<path fill="none" stroke="#000000" stroke-width="10" stroke-linecap="round" stroke-linejoin="round" stroke-miterlimit="10" d="
			M271.157,1182.621c0,3.898,3.163,7.051,7.052,7.051c3.897,0,7.051-3.152,7.051-7.051c0-3.889-3.153-7.051-7.051-7.051
			C274.32,1175.57,271.157,1178.732,271.157,1182.621z"/>
		<path d="M110.346,1021.811c0,3.898,3.163,7.051,7.052,7.051c3.897,0,7.051-3.152,7.051-7.051s-3.153-7.051-7.051-7.051
			C113.509,1014.759,110.346,1017.912,110.346,1021.811z"/>
		<path fill="none" stroke="#000000" stroke-width="10" stroke-linecap="round" stroke-linejoin="round" stroke-miterlimit="10" d="
			M110.346,1021.811c0,3.898,3.163,7.051,7.052,7.051c3.897,0,7.051-3.152,7.051-7.051s-3.153-7.051-7.051-7.051
			C113.509,1014.759,110.346,1017.912,110.346,1021.811z"/>
		<path d="M384.868,908.1c0,3.888,3.163,7.051,7.052,7.051c3.897,0,7.051-3.163,7.051-7.051c0-3.898-3.153-7.051-7.051-7.051
			C388.031,901.049,384.868,904.202,384.868,908.1z"/>
		<path fill="none" stroke="#000000" stroke-width="10" stroke-linecap="round" stroke-linejoin="round" stroke-miterlimit="10" d="
			M384.868,908.1c0,3.888,3.163,7.051,7.052,7.051c3.897,0,7.051-3.163,7.051-7.051c0-3.898-3.153-7.051-7.051-7.051
			C388.031,901.049,384.868,904.202,384.868,908.1z"/>
		<path d="M384.868,1135.52c0,3.898,3.163,7.051,7.052,7.051c3.897,0,7.051-3.152,7.051-7.051c0-3.896-3.153-7.051-7.051-7.051
			C388.031,1128.469,384.868,1131.623,384.868,1135.52z"/>
		<path fill="none" stroke="#000000" stroke-width="10" stroke-linecap="round" stroke-linejoin="round" stroke-miterlimit="10" d="
			M384.868,1135.52c0,3.898,3.163,7.051,7.052,7.051c3.897,0,7.051-3.152,7.051-7.051c0-3.896-3.153-7.051-7.051-7.051
			C388.031,1128.469,384.868,1131.623,384.868,1135.52z"/>
		<path d="M157.447,1135.52c0,3.898,3.162,7.051,7.051,7.051c3.898,0,7.051-3.152,7.051-7.051c0-3.896-3.152-7.051-7.051-7.051
			C160.609,1128.469,157.447,1131.623,157.447,1135.52z"/>
		<path fill="none" stroke="#000000" stroke-width="10" stroke-linecap="round" stroke-linejoin="round" stroke-miterlimit="10" d="
			M157.447,1135.52c0,3.898,3.162,7.051,7.051,7.051c3.898,0,7.051-3.152,7.051-7.051c0-3.896-3.152-7.051-7.051-7.051
			C160.609,1128.469,157.447,1131.623,157.447,1135.52z"/>
		<path d="M157.447,908.1c0,3.888,3.162,7.051,7.051,7.051c3.898,0,7.051-3.163,7.051-7.051c0-3.898-3.152-7.051-7.051-7.051
			C160.609,901.049,157.447,904.202,157.447,908.1z"/>
		<path fill="none" stroke="#000000" stroke-width="10" stroke-linecap="round" stroke-linejoin="round" stroke-miterlimit="10" d="
			M157.447,908.1c0,3.888,3.162,7.051,7.051,7.051c3.898,0,7.051-3.163,7.051-7.051c0-3.898-3.152-7.051-7.051-7.051
			C160.609,901.049,157.447,904.202,157.447,908.1z"/>
	</g>
	
		<line fill="none" stroke="#5A5AFF" stroke-width="10" stroke-linecap="round" stroke-miterlimit="10" x1="117.398" y1="1021.811" x2="164.497" y2="908.1"/>
	
		<line fill="none" stroke="#5A5AFF" stroke-width="10" stroke-linecap="round" stroke-miterlimit="10" x1="278.208" y1="861" x2="164.512" y2="1135.533"/>
	
		<line fill="none" stroke="#5A5AFF" stroke-width="10" stroke-linecap="round" stroke-miterlimit="10" x1="278.208" y1="1182.621" x2="391.929" y2="1135.533"/>
	
		<line fill="none" stroke="#5A5AFF" stroke-width="10" stroke-linecap="round" stroke-miterlimit="10" x1="391.929" y1="908.104" x2="439.029" y2="1021.811"/>
</g>
<g>
	<g>
		<path fill="none" stroke="#000000" stroke-width="7" stroke-linecap="round" stroke-linejoin="round" stroke-miterlimit="10" d="
			M530.693,1393.432c0-88.811,72-160.811,160.811-160.811c88.82,0,160.82,72,160.82,160.811s-72,160.811-160.82,160.811
			C602.693,1554.242,530.693,1482.242,530.693,1393.432z"/>
		<path d="M684.453,1554.242c0-3.887,3.163-7.051,7.052-7.051c3.897,0,7.051,3.164,7.051,7.051c0,3.898-3.153,7.051-7.051,7.051
			C687.616,1561.293,684.453,1558.141,684.453,1554.242z"/>
		<path fill="none" stroke="#000000" stroke-width="10" stroke-linecap="round" stroke-linejoin="round" stroke-miterlimit="10" d="
			M684.453,1554.242c0-3.887,3.163-7.051,7.052-7.051c3.897,0,7.051,3.164,7.051,7.051c0,3.898-3.153,7.051-7.051,7.051
			C687.616,1561.293,684.453,1558.141,684.453,1554.242z"/>
		<path d="M845.274,1393.432c0-3.898,3.152-7.051,7.051-7.051c3.889,0,7.051,3.152,7.051,7.051s-3.162,7.051-7.051,7.051
			C848.426,1400.482,845.274,1397.33,845.274,1393.432z"/>
		<path fill="none" stroke="#000000" stroke-width="10" stroke-linecap="round" stroke-linejoin="round" stroke-miterlimit="10" d="
			M845.274,1393.432c0-3.898,3.152-7.051,7.051-7.051c3.889,0,7.051,3.152,7.051,7.051s-3.162,7.051-7.051,7.051
			C848.426,1400.482,845.274,1397.33,845.274,1393.432z"/>
		<path d="M684.453,1232.621c0-3.898,3.163-7.051,7.052-7.051c3.897,0,7.051,3.152,7.051,7.051c0,3.889-3.153,7.051-7.051,7.051
			C687.616,1239.672,684.453,1236.51,684.453,1232.621z"/>
		<path fill="none" stroke="#000000" stroke-width="10" stroke-linecap="round" stroke-linejoin="round" stroke-miterlimit="10" d="
			M684.453,1232.621c0-3.898,3.163-7.051,7.052-7.051c3.897,0,7.051,3.152,7.051,7.051c0,3.889-3.153,7.051-7.051,7.051
			C687.616,1239.672,684.453,1236.51,684.453,1232.621z"/>
		<path d="M523.642,1393.432c0-3.898,3.163-7.051,7.051-7.051c3.898,0,7.051,3.152,7.051,7.051s-3.153,7.051-7.051,7.051
			C526.805,1400.482,523.642,1397.33,523.642,1393.432z"/>
		<path fill="none" stroke="#000000" stroke-width="10" stroke-linecap="round" stroke-linejoin="round" stroke-miterlimit="10" d="
			M523.642,1393.432c0-3.898,3.163-7.051,7.051-7.051c3.898,0,7.051,3.152,7.051,7.051s-3.153,7.051-7.051,7.051
			C526.805,1400.482,523.642,1397.33,523.642,1393.432z"/>
		<path d="M798.164,1507.143c0-3.889,3.163-7.051,7.052-7.051c3.897,0,7.051,3.162,7.051,7.051c0,3.898-3.153,7.051-7.051,7.051
			C801.327,1514.193,798.164,1511.041,798.164,1507.143z"/>
		<path fill="none" stroke="#000000" stroke-width="10" stroke-linecap="round" stroke-linejoin="round" stroke-miterlimit="10" d="
			M798.164,1507.143c0-3.889,3.163-7.051,7.052-7.051c3.897,0,7.051,3.162,7.051,7.051c0,3.898-3.153,7.051-7.051,7.051
			C801.327,1514.193,798.164,1511.041,798.164,1507.143z"/>
		<path d="M798.164,1279.721c0-3.898,3.163-7.051,7.052-7.051c3.897,0,7.051,3.152,7.051,7.051s-3.153,7.051-7.051,7.051
			C801.327,1286.771,798.164,1283.619,798.164,1279.721z"/>
		<path fill="none" stroke="#000000" stroke-width="10" stroke-linecap="round" stroke-linejoin="round" stroke-miterlimit="10" d="
			M798.164,1279.721c0-3.898,3.163-7.051,7.052-7.051c3.897,0,7.051,3.152,7.051,7.051s-3.153,7.051-7.051,7.051
			C801.327,1286.771,798.164,1283.619,798.164,1279.721z"/>
		<path d="M570.742,1279.721c0-3.898,3.163-7.051,7.051-7.051c3.898,0,7.051,3.152,7.051,7.051s-3.152,7.051-7.051,7.051
			C573.905,1286.771,570.742,1283.619,570.742,1279.721z"/>
		<path fill="none" stroke="#000000" stroke-width="10" stroke-linecap="round" stroke-linejoin="round" stroke-miterlimit="10" d="
			M570.742,1279.721c0-3.898,3.163-7.051,7.051-7.051c3.898,0,7.051,3.152,7.051,7.051s-3.152,7.051-7.051,7.051
			C573.905,1286.771,570.742,1283.619,570.742,1279.721z"/>
		<path d="M570.742,1507.143c0-3.889,3.163-7.051,7.051-7.051c3.898,0,7.051,3.162,7.051,7.051c0,3.898-3.152,7.051-7.051,7.051
			C573.905,1514.193,570.742,1511.041,570.742,1507.143z"/>
		<path fill="none" stroke="#000000" stroke-width="10" stroke-linecap="round" stroke-linejoin="round" stroke-miterlimit="10" d="
			M570.742,1507.143c0-3.889,3.163-7.051,7.051-7.051c3.898,0,7.051,3.162,7.051,7.051c0,3.898-3.152,7.051-7.051,7.051
			C573.905,1514.193,570.742,1511.041,570.742,1507.143z"/>
	</g>
	
		<line fill="none" stroke="#5A5AFF" stroke-width="10" stroke-linecap="round" stroke-miterlimit="10" x1="577.792" y1="1507.139" x2="691.504" y2="1554.242"/>
	
		<line fill="none" stroke="#5A5AFF" stroke-width="10" stroke-linecap="round" stroke-miterlimit="10" x1="530.693" y1="1393.432" x2="805.225" y2="1507.139"/>
	
		<line fill="none" stroke="#5A5AFF" stroke-width="10" stroke-linecap="round" stroke-miterlimit="10" x1="577.808" y1="1279.709" x2="691.504" y2="1232.621"/>
	
		<line fill="none" stroke="#5A5AFF" stroke-width="10" stroke-linecap="round" stroke-miterlimit="10" x1="852.325" y1="1393.432" x2="805.23" y2="1279.709"/>
</g>
<g>
	<g>
		<path fill="none" stroke="#000000" stroke-width="7" stroke-linecap="round" stroke-linejoin="round" stroke-miterlimit="10" d="
			M942.33,1393.432c0-88.811,72-160.811,160.811-160.811c88.822,0,160.82,72,160.82,160.811s-71.998,160.811-160.82,160.811
			C1014.329,1554.242,942.33,1482.242,942.33,1393.432z"/>
		<path d="M1096.089,1554.242c0-3.887,3.163-7.051,7.051-7.051c3.898,0,7.051,3.164,7.051,7.051c0,3.898-3.152,7.051-7.051,7.051
			C1099.252,1561.293,1096.089,1558.141,1096.089,1554.242z"/>
		<path fill="none" stroke="#000000" stroke-width="10" stroke-linecap="round" stroke-linejoin="round" stroke-miterlimit="10" d="
			M1096.089,1554.242c0-3.887,3.163-7.051,7.051-7.051c3.898,0,7.051,3.164,7.051,7.051c0,3.898-3.152,7.051-7.051,7.051
			C1099.252,1561.293,1096.089,1558.141,1096.089,1554.242z"/>
		<path d="M1256.909,1393.432c0-3.898,3.154-7.051,7.051-7.051c3.889,0,7.051,3.152,7.051,7.051s-3.162,7.051-7.051,7.051
			C1260.063,1400.482,1256.909,1397.33,1256.909,1393.432z"/>
		<path fill="none" stroke="#000000" stroke-width="10" stroke-linecap="round" stroke-linejoin="round" stroke-miterlimit="10" d="
			M1256.909,1393.432c0-3.898,3.154-7.051,7.051-7.051c3.889,0,7.051,3.152,7.051,7.051s-3.162,7.051-7.051,7.051
			C1260.063,1400.482,1256.909,1397.33,1256.909,1393.432z"/>
		<path d="M1096.089,1232.621c0-3.898,3.163-7.051,7.051-7.051c3.898,0,7.051,3.152,7.051,7.051c0,3.889-3.152,7.051-7.051,7.051
			C1099.252,1239.672,1096.089,1236.51,1096.089,1232.621z"/>
		<path fill="none" stroke="#000000" stroke-width="10" stroke-linecap="round" stroke-linejoin="round" stroke-miterlimit="10" d="
			M1096.089,1232.621c0-3.898,3.163-7.051,7.051-7.051c3.898,0,7.051,3.152,7.051,7.051c0,3.889-3.152,7.051-7.051,7.051
			C1099.252,1239.672,1096.089,1236.51,1096.089,1232.621z"/>
		<path d="M935.278,1393.432c0-3.898,3.163-7.051,7.051-7.051c3.898,0,7.051,3.152,7.051,7.051s-3.153,7.051-7.051,7.051
			C938.441,1400.482,935.278,1397.33,935.278,1393.432z"/>
		<path fill="none" stroke="#000000" stroke-width="10" stroke-linecap="round" stroke-linejoin="round" stroke-miterlimit="10" d="
			M935.278,1393.432c0-3.898,3.163-7.051,7.051-7.051c3.898,0,7.051,3.152,7.051,7.051s-3.153,7.051-7.051,7.051
			C938.441,1400.482,935.278,1397.33,935.278,1393.432z"/>
		<path d="M1209.8,1507.143c0-3.889,3.162-7.051,7.051-7.051c3.898,0,7.051,3.162,7.051,7.051c0,3.898-3.152,7.051-7.051,7.051
			C1212.962,1514.193,1209.8,1511.041,1209.8,1507.143z"/>
		<path fill="none" stroke="#000000" stroke-width="10" stroke-linecap="round" stroke-linejoin="round" stroke-miterlimit="10" d="
			M1209.8,1507.143c0-3.889,3.162-7.051,7.051-7.051c3.898,0,7.051,3.162,7.051,7.051c0,3.898-3.152,7.051-7.051,7.051
			C1212.962,1514.193,1209.8,1511.041,1209.8,1507.143z"/>
		<path d="M1209.8,1279.721c0-3.898,3.162-7.051,7.051-7.051c3.898,0,7.051,3.152,7.051,7.051s-3.152,7.051-7.051,7.051
			C1212.962,1286.771,1209.8,1283.619,1209.8,1279.721z"/>
		<path fill="none" stroke="#000000" stroke-width="10" stroke-linecap="round" stroke-linejoin="round" stroke-miterlimit="10" d="
			M1209.8,1279.721c0-3.898,3.162-7.051,7.051-7.051c3.898,0,7.051,3.152,7.051,7.051s-3.152,7.051-7.051,7.051
			C1212.962,1286.771,1209.8,1283.619,1209.8,1279.721z"/>
		<path d="M982.378,1279.721c0-3.898,3.163-7.051,7.051-7.051c3.898,0,7.051,3.152,7.051,7.051s-3.152,7.051-7.051,7.051
			C985.542,1286.771,982.378,1283.619,982.378,1279.721z"/>
		<path fill="none" stroke="#000000" stroke-width="10" stroke-linecap="round" stroke-linejoin="round" stroke-miterlimit="10" d="
			M982.378,1279.721c0-3.898,3.163-7.051,7.051-7.051c3.898,0,7.051,3.152,7.051,7.051s-3.152,7.051-7.051,7.051
			C985.542,1286.771,982.378,1283.619,982.378,1279.721z"/>
		<path d="M982.378,1507.143c0-3.889,3.163-7.051,7.051-7.051c3.898,0,7.051,3.162,7.051,7.051c0,3.898-3.152,7.051-7.051,7.051
			C985.542,1514.193,982.378,1511.041,982.378,1507.143z"/>
		<path fill="none" stroke="#000000" stroke-width="10" stroke-linecap="round" stroke-linejoin="round" stroke-miterlimit="10" d="
			M982.378,1507.143c0-3.889,3.163-7.051,7.051-7.051c3.898,0,7.051,3.162,7.051,7.051c0,3.898-3.152,7.051-7.051,7.051
			C985.542,1514.193,982.378,1511.041,982.378,1507.143z"/>
	</g>
	
		<line fill="none" stroke="#5A5AFF" stroke-width="10" stroke-linecap="round" stroke-miterlimit="10" x1="1103.14" y1="1554.242" x2="1216.866" y2="1507.143"/>
	
		<line fill="none" stroke="#5A5AFF" stroke-width="10" stroke-linecap="round" stroke-miterlimit="10" x1="989.442" y1="1507.139" x2="1263.96" y2="1393.432"/>
	
		<line fill="none" stroke="#5A5AFF" stroke-width="10" stroke-linecap="round" stroke-miterlimit="10" x1="942.33" y1="1393.432" x2="989.429" y2="1279.725"/>
	
		<line fill="none" stroke="#5A5AFF" stroke-width="10" stroke-linecap="round" stroke-miterlimit="10" x1="1103.14" y1="1232.621" x2="1216.866" y2="1279.73"/>
</g>
<g>
	<g>
		<path fill="none" stroke="#000000" stroke-width="7" stroke-linecap="round" stroke-linejoin="round" stroke-miterlimit="10" d="
			M1353.972,1393.434c0-88.813,72-160.813,160.811-160.813c88.82,0,160.82,72,160.82,160.813c0,88.811-72,160.811-160.82,160.811
			C1425.972,1554.244,1353.972,1482.244,1353.972,1393.434z"/>
		<path d="M1507.731,1554.244c0-3.889,3.162-7.051,7.051-7.051c3.898,0,7.051,3.162,7.051,7.051c0,3.896-3.152,7.051-7.051,7.051
			C1510.894,1561.295,1507.731,1558.141,1507.731,1554.244z"/>
		<path fill="none" stroke="#000000" stroke-width="10" stroke-linecap="round" stroke-linejoin="round" stroke-miterlimit="10" d="
			M1507.731,1554.244c0-3.889,3.162-7.051,7.051-7.051c3.898,0,7.051,3.162,7.051,7.051c0,3.896-3.152,7.051-7.051,7.051
			C1510.894,1561.295,1507.731,1558.141,1507.731,1554.244z"/>
		<path d="M1668.552,1393.434c0-3.898,3.152-7.053,7.051-7.053c3.889,0,7.051,3.154,7.051,7.053c0,3.896-3.162,7.051-7.051,7.051
			C1671.704,1400.484,1668.552,1397.33,1668.552,1393.434z"/>
		<path fill="none" stroke="#000000" stroke-width="10" stroke-linecap="round" stroke-linejoin="round" stroke-miterlimit="10" d="
			M1668.552,1393.434c0-3.898,3.152-7.053,7.051-7.053c3.889,0,7.051,3.154,7.051,7.053c0,3.896-3.162,7.051-7.051,7.051
			C1671.704,1400.484,1668.552,1397.33,1668.552,1393.434z"/>
		<path d="M1507.731,1232.621c0-3.898,3.162-7.051,7.051-7.051c3.898,0,7.051,3.152,7.051,7.051c0,3.889-3.152,7.051-7.051,7.051
			C1510.894,1239.672,1507.731,1236.51,1507.731,1232.621z"/>
		<path fill="none" stroke="#000000" stroke-width="10" stroke-linecap="round" stroke-linejoin="round" stroke-miterlimit="10" d="
			M1507.731,1232.621c0-3.898,3.162-7.051,7.051-7.051c3.898,0,7.051,3.152,7.051,7.051c0,3.889-3.152,7.051-7.051,7.051
			C1510.894,1239.672,1507.731,1236.51,1507.731,1232.621z"/>
		<path d="M1346.921,1393.434c0-3.898,3.162-7.053,7.051-7.053c3.898,0,7.051,3.154,7.051,7.053c0,3.896-3.152,7.051-7.051,7.051
			C1350.083,1400.484,1346.921,1397.33,1346.921,1393.434z"/>
		<path fill="none" stroke="#000000" stroke-width="10" stroke-linecap="round" stroke-linejoin="round" stroke-miterlimit="10" d="
			M1346.921,1393.434c0-3.898,3.162-7.053,7.051-7.053c3.898,0,7.051,3.154,7.051,7.053c0,3.896-3.152,7.051-7.051,7.051
			C1350.083,1400.484,1346.921,1397.33,1346.921,1393.434z"/>
		<path d="M1621.442,1507.143c0-3.887,3.162-7.051,7.051-7.051c3.898,0,7.051,3.164,7.051,7.051c0,3.898-3.152,7.051-7.051,7.051
			C1624.604,1514.193,1621.442,1511.041,1621.442,1507.143z"/>
		<path fill="none" stroke="#000000" stroke-width="10" stroke-linecap="round" stroke-linejoin="round" stroke-miterlimit="10" d="
			M1621.442,1507.143c0-3.887,3.162-7.051,7.051-7.051c3.898,0,7.051,3.164,7.051,7.051c0,3.898-3.152,7.051-7.051,7.051
			C1624.604,1514.193,1621.442,1511.041,1621.442,1507.143z"/>
		<path d="M1621.442,1279.723c0-3.898,3.162-7.051,7.051-7.051c3.898,0,7.051,3.152,7.051,7.051c0,3.896-3.152,7.051-7.051,7.051
			C1624.604,1286.773,1621.442,1283.619,1621.442,1279.723z"/>
		<path fill="none" stroke="#000000" stroke-width="10" stroke-linecap="round" stroke-linejoin="round" stroke-miterlimit="10" d="
			M1621.442,1279.723c0-3.898,3.162-7.051,7.051-7.051c3.898,0,7.051,3.152,7.051,7.051c0,3.896-3.152,7.051-7.051,7.051
			C1624.604,1286.773,1621.442,1283.619,1621.442,1279.723z"/>
		<path d="M1394.021,1279.723c0-3.898,3.162-7.051,7.051-7.051c3.898,0,7.051,3.152,7.051,7.051c0,3.896-3.152,7.051-7.051,7.051
			C1397.183,1286.773,1394.021,1283.619,1394.021,1279.723z"/>
		<path fill="none" stroke="#000000" stroke-width="10" stroke-linecap="round" stroke-linejoin="round" stroke-miterlimit="10" d="
			M1394.021,1279.723c0-3.898,3.162-7.051,7.051-7.051c3.898,0,7.051,3.152,7.051,7.051c0,3.896-3.152,7.051-7.051,7.051
			C1397.183,1286.773,1394.021,1283.619,1394.021,1279.723z"/>
		<path d="M1394.021,1507.143c0-3.887,3.162-7.051,7.051-7.051c3.898,0,7.051,3.164,7.051,7.051c0,3.898-3.152,7.051-7.051,7.051
			C1397.183,1514.193,1394.021,1511.041,1394.021,1507.143z"/>
		<path fill="none" stroke="#000000" stroke-width="10" stroke-linecap="round" stroke-linejoin="round" stroke-miterlimit="10" d="
			M1394.021,1507.143c0-3.887,3.162-7.051,7.051-7.051c3.898,0,7.051,3.164,7.051,7.051c0,3.898-3.152,7.051-7.051,7.051
			C1397.183,1514.193,1394.021,1511.041,1394.021,1507.143z"/>
	</g>
	
		<line fill="none" stroke="#5A5AFF" stroke-width="10" stroke-linecap="round" stroke-miterlimit="10" x1="1628.505" y1="1507.139" x2="1675.603" y2="1393.434"/>
	
		<line fill="none" stroke="#5A5AFF" stroke-width="10" stroke-linecap="round" stroke-miterlimit="10" x1="1514.782" y1="1554.244" x2="1628.493" y2="1279.73"/>
	
		<line fill="none" stroke="#5A5AFF" stroke-width="10" stroke-linecap="round" stroke-miterlimit="10" x1="1401.073" y1="1507.139" x2="1353.972" y2="1393.434"/>
	
		<line fill="none" stroke="#5A5AFF" stroke-width="10" stroke-linecap="round" stroke-miterlimit="10" x1="1401.067" y1="1279.709" x2="1514.782" y2="1232.621"/>
</g>
<g>
	<g>
		<path fill="none" stroke="#000000" stroke-width="7" stroke-linecap="round" stroke-linejoin="round" stroke-miterlimit="10" d="
			M119.067,1393.432c0-88.811,71.999-160.811,160.811-160.811c88.82,0,160.82,72,160.82,160.811s-72,160.811-160.82,160.811
			C191.066,1554.242,119.067,1482.242,119.067,1393.432z"/>
		<path d="M272.826,1554.242c0-3.887,3.163-7.051,7.052-7.051c3.897,0,7.051,3.164,7.051,7.051c0,3.898-3.153,7.051-7.051,7.051
			C275.989,1561.293,272.826,1558.141,272.826,1554.242z"/>
		<path fill="none" stroke="#000000" stroke-width="10" stroke-linecap="round" stroke-linejoin="round" stroke-miterlimit="10" d="
			M272.826,1554.242c0-3.887,3.163-7.051,7.052-7.051c3.897,0,7.051,3.164,7.051,7.051c0,3.898-3.153,7.051-7.051,7.051
			C275.989,1561.293,272.826,1558.141,272.826,1554.242z"/>
		<path d="M433.647,1393.432c0-3.898,3.152-7.051,7.051-7.051c3.889,0,7.051,3.152,7.051,7.051s-3.162,7.051-7.051,7.051
			C436.8,1400.482,433.647,1397.33,433.647,1393.432z"/>
		<path fill="none" stroke="#000000" stroke-width="10" stroke-linecap="round" stroke-linejoin="round" stroke-miterlimit="10" d="
			M433.647,1393.432c0-3.898,3.152-7.051,7.051-7.051c3.889,0,7.051,3.152,7.051,7.051s-3.162,7.051-7.051,7.051
			C436.8,1400.482,433.647,1397.33,433.647,1393.432z"/>
		<path d="M272.826,1232.621c0-3.898,3.163-7.051,7.052-7.051c3.897,0,7.051,3.152,7.051,7.051c0,3.889-3.153,7.051-7.051,7.051
			C275.989,1239.672,272.826,1236.51,272.826,1232.621z"/>
		<path fill="none" stroke="#000000" stroke-width="10" stroke-linecap="round" stroke-linejoin="round" stroke-miterlimit="10" d="
			M272.826,1232.621c0-3.898,3.163-7.051,7.052-7.051c3.897,0,7.051,3.152,7.051,7.051c0,3.889-3.153,7.051-7.051,7.051
			C275.989,1239.672,272.826,1236.51,272.826,1232.621z"/>
		<path d="M112.016,1393.432c0-3.898,3.163-7.051,7.052-7.051c3.897,0,7.051,3.152,7.051,7.051s-3.153,7.051-7.051,7.051
			C115.179,1400.482,112.016,1397.33,112.016,1393.432z"/>
		<path fill="none" stroke="#000000" stroke-width="10" stroke-linecap="round" stroke-linejoin="round" stroke-miterlimit="10" d="
			M112.016,1393.432c0-3.898,3.163-7.051,7.052-7.051c3.897,0,7.051,3.152,7.051,7.051s-3.153,7.051-7.051,7.051
			C115.179,1400.482,112.016,1397.33,112.016,1393.432z"/>
		<path d="M386.537,1507.143c0-3.889,3.163-7.051,7.052-7.051c3.897,0,7.051,3.162,7.051,7.051c0,3.898-3.153,7.051-7.051,7.051
			C389.7,1514.193,386.537,1511.041,386.537,1507.143z"/>
		<path fill="none" stroke="#000000" stroke-width="10" stroke-linecap="round" stroke-linejoin="round" stroke-miterlimit="10" d="
			M386.537,1507.143c0-3.889,3.163-7.051,7.052-7.051c3.897,0,7.051,3.162,7.051,7.051c0,3.898-3.153,7.051-7.051,7.051
			C389.7,1514.193,386.537,1511.041,386.537,1507.143z"/>
		<path d="M386.537,1279.723c0-3.898,3.163-7.051,7.052-7.051c3.897,0,7.051,3.152,7.051,7.051c0,3.896-3.153,7.051-7.051,7.051
			C389.7,1286.773,386.537,1283.619,386.537,1279.723z"/>
		<path fill="none" stroke="#000000" stroke-width="10" stroke-linecap="round" stroke-linejoin="round" stroke-miterlimit="10" d="
			M386.537,1279.723c0-3.898,3.163-7.051,7.052-7.051c3.897,0,7.051,3.152,7.051,7.051c0,3.896-3.153,7.051-7.051,7.051
			C389.7,1286.773,386.537,1283.619,386.537,1279.723z"/>
		<path d="M159.116,1279.723c0-3.898,3.162-7.051,7.051-7.051c3.898,0,7.051,3.152,7.051,7.051c0,3.896-3.152,7.051-7.051,7.051
			C162.278,1286.773,159.116,1283.619,159.116,1279.723z"/>
		<path fill="none" stroke="#000000" stroke-width="10" stroke-linecap="round" stroke-linejoin="round" stroke-miterlimit="10" d="
			M159.116,1279.723c0-3.898,3.162-7.051,7.051-7.051c3.898,0,7.051,3.152,7.051,7.051c0,3.896-3.152,7.051-7.051,7.051
			C162.278,1286.773,159.116,1283.619,159.116,1279.723z"/>
		<path d="M159.116,1507.143c0-3.889,3.162-7.051,7.051-7.051c3.898,0,7.051,3.162,7.051,7.051c0,3.898-3.152,7.051-7.051,7.051
			C162.278,1514.193,159.116,1511.041,159.116,1507.143z"/>
		<path fill="none" stroke="#000000" stroke-width="10" stroke-linecap="round" stroke-linejoin="round" stroke-miterlimit="10" d="
			M159.116,1507.143c0-3.889,3.162-7.051,7.051-7.051c3.898,0,7.051,3.162,7.051,7.051c0,3.898-3.152,7.051-7.051,7.051
			C162.278,1514.193,159.116,1511.041,159.116,1507.143z"/>
	</g>
	
		<line fill="none" stroke="#5A5AFF" stroke-width="10" stroke-linecap="round" stroke-miterlimit="10" x1="119.067" y1="1393.432" x2="166.166" y2="1507.143"/>
	
		<line fill="none" stroke="#5A5AFF" stroke-width="10" stroke-linecap="round" stroke-miterlimit="10" x1="279.878" y1="1554.242" x2="166.181" y2="1279.709"/>
	
		<line fill="none" stroke="#5A5AFF" stroke-width="10" stroke-linecap="round" stroke-miterlimit="10" x1="279.878" y1="1232.621" x2="393.599" y2="1279.709"/>
	
		<line fill="none" stroke="#5A5AFF" stroke-width="10" stroke-linecap="round" stroke-miterlimit="10" x1="393.599" y1="1507.139" x2="440.698" y2="1393.432"/>
</g>
</svg>
