<?xml version="1.0" encoding="utf-8"?>
<!-- Generator: Adobe Illustrator 16.0.0, SVG Export Plug-In . SVG Version: 6.00 Build 0)  -->
<!DOCTYPE svg PUBLIC "-//W3C//DTD SVG 1.1//EN" "http://www.w3.org/Graphics/SVG/1.1/DTD/svg11.dtd">
<svg version="1.1" id="图层_1" xmlns="http://www.w3.org/2000/svg" xmlns:xlink="http://www.w3.org/1999/xlink" x="0px" y="0px"
	 width="1237.554px" height="442.084px" viewBox="0 0 1237.554 442.084" enable-background="new 0 0 1237.554 442.084"
	 xml:space="preserve">
<g>
	<g>
		<polyline fill="#FCBBBB" points="328.663,83.161 172.012,83.161 172.012,354.486 330.593,83.161 		"/>
		<g>
			
				<line fill="none" stroke="#E72726" stroke-width="4" stroke-linecap="round" stroke-linejoin="round" x1="328.663" y1="83.161" x2="322.663" y2="83.161"/>
			
				<line fill="none" stroke="#E72726" stroke-width="4" stroke-linecap="round" stroke-linejoin="round" stroke-dasharray="11.127,11.127" x1="311.536" y1="83.161" x2="183.575" y2="83.161"/>
			<polyline fill="none" stroke="#E72726" stroke-width="4" stroke-linecap="round" stroke-linejoin="round" points="
				178.012,83.161 172.012,83.161 172.012,89.161 			"/>
			
				<line fill="none" stroke="#E72726" stroke-width="4" stroke-linecap="round" stroke-linejoin="round" stroke-dasharray="12.3488,12.3488" x1="172.012" y1="101.509" x2="172.012" y2="342.312"/>
			<polyline fill="none" stroke="#E72726" stroke-width="4" stroke-linecap="round" stroke-linejoin="round" points="
				172.012,348.486 172.012,354.486 175.04,349.307 			"/>
			
				<line fill="none" stroke="#E72726" stroke-width="4" stroke-linecap="round" stroke-linejoin="round" stroke-dasharray="12.0908,12.0908" x1="181.141" y1="338.867" x2="324.515" y2="93.56"/>
			
				<line fill="none" stroke="#E72726" stroke-width="4" stroke-linecap="round" stroke-linejoin="round" x1="327.565" y1="88.341" x2="330.593" y2="83.161"/>
		</g>
	</g>
	<g>
		<polygon fill="none" stroke="#000000" stroke-width="4" stroke-miterlimit="10" points="172.012,354.486 93.688,218.823 
			172.012,83.161 328.663,83.161 406.983,218.823 328.663,354.486 		"/>
	</g>
	<g>
		<path fill="#192A82" d="M167.11,44.61v18.551h-3.809V48.875c-0.469,0.406-1.109,0.771-1.922,1.096s-1.559,0.525-2.238,0.604
			v-3.246c2.141-0.625,3.992-1.531,5.555-2.719H167.11z"/>
	</g>
	<g>
		<path fill="#192A82" d="M336.218,60.008h7.699v3.152h-12.07v-1.348c0-0.945,0.174-1.809,0.521-2.59s0.826-1.51,1.436-2.186
			s1.555-1.467,2.836-2.373c1.172-0.875,1.992-1.65,2.461-2.326s0.703-1.393,0.703-2.15c0-1.633-0.891-2.449-2.672-2.449
			c-1.563,0-3.055,0.625-4.477,1.875v-3.375c1.586-1.023,3.367-1.535,5.344-1.535c1.813,0,3.246,0.463,4.301,1.389
			s1.582,2.201,1.582,3.826c0,0.906-0.152,1.725-0.457,2.455s-0.746,1.416-1.324,2.057s-1.504,1.41-2.777,2.309
			c-1.227,0.875-2.051,1.551-2.473,2.027S336.218,59.657,336.218,60.008z"/>
	</g>
	<g>
		<path fill="#192A82" d="M413.111,243.211c1.211,0.906,2.625,1.359,4.242,1.359c1.023,0,1.836-0.227,2.438-0.68
			s0.902-1.098,0.902-1.934c0-0.859-0.357-1.516-1.072-1.969s-1.717-0.68-3.006-0.68h-1.617v-2.918h1.488
			c2.438,0,3.656-0.82,3.656-2.461c0-1.547-0.934-2.32-2.801-2.32c-1.219,0-2.402,0.398-3.551,1.195v-3.129
			c1.25-0.648,2.723-0.973,4.418-0.973c1.719,0,3.113,0.396,4.184,1.189s1.605,1.893,1.605,3.299c0,2.375-1.203,3.867-3.609,4.477
			v0.059c1.266,0.141,2.277,0.604,3.035,1.389s1.137,1.74,1.137,2.865c0,1.727-0.631,3.074-1.893,4.043s-2.943,1.453-5.045,1.453
			c-1.867,0-3.371-0.309-4.512-0.926V243.211z"/>
	</g>
	<g>
		<path fill="#192A82" d="M342.535,369.008v11.531h2.566v2.754h-2.566v3.867h-3.445v-3.867h-8.109v-2.777
			c1.68-1.875,3.254-3.859,4.723-5.953s2.578-3.945,3.328-5.555H342.535z M334.332,380.539h4.758v-6.656
			c-0.375,0.703-0.912,1.555-1.611,2.555S335.73,378.805,334.332,380.539z"/>
	</g>
	<g>
		<path fill="#192A82" d="M158.954,386.691v-3.27c1.258,0.766,2.598,1.148,4.02,1.148c1.07,0,1.908-0.264,2.514-0.791
			s0.908-1.24,0.908-2.139c0-1.883-1.289-2.824-3.867-2.824c-0.953,0-2.051,0.07-3.293,0.211l0.68-10.02h9.609v3.117h-6.551
			l-0.258,3.82c0.648-0.055,1.246-0.082,1.793-0.082c1.773,0,3.174,0.484,4.201,1.453s1.541,2.281,1.541,3.938
			c0,1.828-0.621,3.322-1.863,4.482s-2.93,1.74-5.063,1.74C161.599,387.477,160.142,387.215,158.954,386.691z"/>
	</g>
	<g>
		<path fill="#192A82" d="M76.928,194.395c-0.922-0.523-1.926-0.785-3.012-0.785c-1.398,0-2.518,0.549-3.357,1.646
			s-1.26,2.518-1.26,4.26h0.07c0.867-1.328,2.152-1.992,3.855-1.992c1.523,0,2.732,0.521,3.627,1.564s1.342,2.4,1.342,4.072
			c0,1.828-0.582,3.338-1.746,4.529s-2.652,1.787-4.465,1.787c-2.078,0-3.67-0.75-4.775-2.25s-1.658-3.555-1.658-6.164
			c0-3.07,0.717-5.564,2.15-7.482s3.428-2.877,5.982-2.877c1.375,0,2.457,0.164,3.246,0.492V194.395z M69.428,203.196
			c0,0.938,0.234,1.734,0.703,2.391s1.086,0.984,1.852,0.984c0.773,0,1.383-0.301,1.828-0.902s0.668-1.355,0.668-2.262
			c0-2.039-0.84-3.059-2.52-3.059c-0.758,0-1.369,0.27-1.834,0.809S69.428,202.375,69.428,203.196z"/>
	</g>
	<circle fill="#231815" cx="172.012" cy="83.161" r="7.667"/>
	<circle fill="#231815" cx="330.593" cy="83.161" r="7.667"/>
	<circle fill="#231815" cx="172.012" cy="354.486" r="7.667"/>
	<g>
		<path fill="#192A82" d="M310.76,230.766c4.699,0,8.736,1.688,12.111,5.063s5.063,7.412,5.063,12.111s-1.688,8.736-5.063,12.111
			s-7.412,5.063-12.111,5.063s-8.736-1.688-12.111-5.063s-5.063-7.412-5.063-12.111s1.688-8.736,5.063-12.111
			S306.061,230.766,310.76,230.766z M310.76,262.161c3.891,0,7.233-1.389,10.028-4.166s4.192-6.129,4.192-10.055
			c0-3.902-1.395-7.248-4.184-10.037s-6.135-4.184-10.037-4.184c-3.914,0-7.263,1.395-10.046,4.184s-4.175,6.135-4.175,10.037
			c0,3.914,1.397,7.263,4.192,10.046S306.869,262.161,310.76,262.161z M305.328,256.553v-3.867h3.85v-10.389l-3.955,0.932v-4.008
			l8.455-1.723v15.188h3.779v3.867H305.328z"/>
	</g>
	<g>
		<path fill="#192A82" d="M140.26,197.266c4.699,0,8.736,1.688,12.111,5.063s5.063,7.412,5.063,12.111s-1.688,8.736-5.063,12.111
			s-7.412,5.063-12.111,5.063s-8.736-1.688-12.111-5.063s-5.063-7.412-5.063-12.111s1.688-8.736,5.063-12.111
			S135.561,197.266,140.26,197.266z M140.26,228.661c3.891,0,7.233-1.389,10.028-4.166s4.192-6.129,4.192-10.055
			c0-3.902-1.395-7.248-4.184-10.037s-6.135-4.184-10.037-4.184c-3.914,0-7.263,1.395-10.046,4.184s-4.175,6.135-4.175,10.037
			c0,3.914,1.397,7.263,4.192,10.046S136.369,228.661,140.26,228.661z M133.809,223.053v-3.498c3.949-3.645,6.316-5.918,7.102-6.82
			s1.178-1.811,1.178-2.725c0-1.371-0.803-2.057-2.408-2.057c-1.289,0-2.953,0.768-4.992,2.303v-4.412
			c1.77-1.16,3.686-1.74,5.748-1.74c1.957,0,3.478,0.498,4.562,1.494s1.626,2.326,1.626,3.99c0,1.43-0.472,2.789-1.415,4.078
			s-2.786,3.094-5.528,5.414h6.768v3.973H133.809z"/>
	</g>
</g>
<polygon fill="#BCBCBC" points="530.924,245.641 530.924,232.87 530.924,232.87 446,232.87 446,206.345 530.924,206.345 
	530.924,193.574 574.998,219.607 "/>
<g>
	<circle fill="#231815" cx="909.346" cy="353.486" r="7.667"/>
	<polyline fill="none" stroke="#000000" stroke-width="4" stroke-miterlimit="10" points="1065.996,82.161 1144.317,217.823 
		1065.996,353.486 909.346,353.486 	"/>
	<g>
		<path fill="#192A82" d="M1073.553,59.009h7.699v3.152h-12.07v-1.348c0-0.945,0.174-1.809,0.521-2.59s0.826-1.51,1.436-2.186
			s1.555-1.467,2.836-2.373c1.172-0.875,1.992-1.65,2.461-2.326s0.703-1.393,0.703-2.15c0-1.633-0.891-2.449-2.672-2.449
			c-1.563,0-3.055,0.625-4.477,1.875v-3.375c1.586-1.023,3.367-1.535,5.344-1.535c1.813,0,3.246,0.463,4.301,1.389
			s1.582,2.201,1.582,3.826c0,0.906-0.152,1.725-0.457,2.455s-0.746,1.416-1.324,2.057s-1.504,1.41-2.777,2.309
			c-1.227,0.875-2.051,1.551-2.473,2.027S1073.553,58.657,1073.553,59.009z"/>
	</g>
	<g>
		<path fill="#192A82" d="M1150.445,242.212c1.211,0.906,2.625,1.359,4.242,1.359c1.023,0,1.836-0.227,2.438-0.68
			s0.902-1.098,0.902-1.934c0-0.859-0.357-1.516-1.072-1.969s-1.717-0.68-3.006-0.68h-1.617v-2.918h1.488
			c2.438,0,3.656-0.82,3.656-2.461c0-1.547-0.934-2.32-2.801-2.32c-1.219,0-2.402,0.398-3.551,1.195v-3.129
			c1.25-0.648,2.723-0.973,4.418-0.973c1.719,0,3.113,0.396,4.184,1.189s1.605,1.893,1.605,3.299c0,2.375-1.203,3.867-3.609,4.477
			v0.059c1.266,0.141,2.277,0.604,3.035,1.389s1.137,1.74,1.137,2.865c0,1.727-0.631,3.074-1.893,4.043s-2.943,1.453-5.045,1.453
			c-1.867,0-3.371-0.309-4.512-0.926V242.212z"/>
	</g>
	<g>
		<path fill="#192A82" d="M1079.869,368.009v11.531h2.566v2.754h-2.566v3.867h-3.445v-3.867h-8.109v-2.777
			c1.68-1.875,3.254-3.859,4.723-5.953s2.578-3.945,3.328-5.555H1079.869z M1071.666,379.54h4.758v-6.656
			c-0.375,0.703-0.912,1.555-1.611,2.555S1073.064,377.806,1071.666,379.54z"/>
	</g>
	<g>
		<path fill="#192A82" d="M903.706,385.692v-3.27c1.258,0.766,2.598,1.148,4.02,1.148c1.07,0,1.908-0.264,2.514-0.791
			s0.908-1.24,0.908-2.139c0-1.883-1.289-2.824-3.867-2.824c-0.953,0-2.051,0.07-3.293,0.211l0.68-10.02h9.609v3.117h-6.551
			l-0.258,3.82c0.648-0.055,1.246-0.082,1.793-0.082c1.773,0,3.174,0.484,4.201,1.453s1.541,2.281,1.541,3.938
			c0,1.828-0.621,3.322-1.863,4.482s-2.93,1.74-5.063,1.74C906.351,386.478,904.894,386.216,903.706,385.692z"/>
	</g>
	
		<line fill="none" stroke="#E72726" stroke-width="4" stroke-linecap="round" stroke-linejoin="round" stroke-miterlimit="10" stroke-dasharray="12" x1="909.346" y1="353.486" x2="1067.927" y2="82.161"/>
	<circle fill="#231815" cx="1067.927" cy="82.161" r="7.667"/>
	<g>
		<path fill="#192A82" d="M1048.094,229.767c4.699,0,8.736,1.688,12.111,5.063s5.063,7.412,5.063,12.111s-1.688,8.736-5.063,12.111
			s-7.412,5.063-12.111,5.063s-8.736-1.688-12.111-5.063s-5.063-7.412-5.063-12.111s1.688-8.736,5.063-12.111
			S1043.395,229.767,1048.094,229.767z M1048.094,261.161c3.891,0,7.233-1.389,10.028-4.166s4.192-6.129,4.192-10.055
			c0-3.902-1.395-7.248-4.184-10.037s-6.135-4.184-10.037-4.184c-3.914,0-7.263,1.395-10.046,4.184s-4.175,6.135-4.175,10.037
			c0,3.914,1.397,7.263,4.192,10.046S1044.203,261.161,1048.094,261.161z M1042.662,255.554v-3.867h3.85v-10.389l-3.955,0.932
			v-4.008l8.455-1.723v15.188h3.779v3.867H1042.662z"/>
	</g>
</g>
<g>
	<g>
		<polyline fill="#FCBBBB" points="955.996,82.161 799.346,82.161 799.346,353.486 957.928,82.161 		"/>
		<g>
			
				<line fill="none" stroke="#E72726" stroke-width="4" stroke-linecap="round" stroke-linejoin="round" x1="955.996" y1="82.161" x2="949.996" y2="82.161"/>
			
				<line fill="none" stroke="#E72726" stroke-width="4" stroke-linecap="round" stroke-linejoin="round" stroke-dasharray="11.127,11.127" x1="938.869" y1="82.161" x2="810.909" y2="82.161"/>
			<polyline fill="none" stroke="#E72726" stroke-width="4" stroke-linecap="round" stroke-linejoin="round" points="
				805.346,82.161 799.346,82.161 799.346,88.161 			"/>
			
				<line fill="none" stroke="#E72726" stroke-width="4" stroke-linecap="round" stroke-linejoin="round" stroke-dasharray="12.3488,12.3488" x1="799.346" y1="100.51" x2="799.346" y2="341.313"/>
			<polyline fill="none" stroke="#E72726" stroke-width="4" stroke-linecap="round" stroke-linejoin="round" points="
				799.346,347.486 799.346,353.486 802.373,348.307 			"/>
			
				<line fill="none" stroke="#E72726" stroke-width="4" stroke-linecap="round" stroke-linejoin="round" stroke-dasharray="12.0908,12.0908" x1="808.475" y1="337.867" x2="951.85" y2="92.561"/>
			
				<line fill="none" stroke="#E72726" stroke-width="4" stroke-linecap="round" stroke-linejoin="round" x1="954.899" y1="87.341" x2="957.928" y2="82.161"/>
		</g>
	</g>
	<line fill="none" stroke="#000000" stroke-width="4" stroke-miterlimit="10" x1="799.346" y1="82.161" x2="955.996" y2="82.161"/>
	<circle fill="#231815" cx="799.346" cy="353.486" r="7.667"/>
	<circle fill="#231815" cx="799.346" cy="82.161" r="7.667"/>
	<circle fill="#231815" cx="957.928" cy="82.161" r="7.667"/>
	<g>
		<path fill="#192A82" d="M793.706,385.692v-3.27c1.258,0.766,2.598,1.148,4.02,1.148c1.07,0,1.908-0.264,2.514-0.791
			s0.908-1.24,0.908-2.139c0-1.883-1.289-2.824-3.867-2.824c-0.953,0-2.051,0.07-3.293,0.211l0.68-10.02h9.609v3.117h-6.551
			l-0.258,3.82c0.648-0.055,1.246-0.082,1.793-0.082c1.773,0,3.174,0.484,4.201,1.453s1.541,2.281,1.541,3.938
			c0,1.828-0.621,3.322-1.863,4.482s-2.93,1.74-5.063,1.74C796.351,386.478,794.894,386.216,793.706,385.692z"/>
	</g>
	<g>
		<path fill="#192A82" d="M801.862,44.61v18.551h-3.809V48.875c-0.469,0.406-1.109,0.771-1.922,1.096s-1.559,0.525-2.238,0.604
			v-3.246c2.141-0.625,3.992-1.531,5.555-2.719H801.862z"/>
	</g>
	<g>
		<path fill="#192A82" d="M955.885,60.008h7.699v3.152h-12.07v-1.348c0-0.945,0.174-1.809,0.521-2.59s0.826-1.51,1.436-2.186
			s1.555-1.467,2.836-2.373c1.172-0.875,1.992-1.65,2.461-2.326s0.703-1.393,0.703-2.15c0-1.633-0.891-2.449-2.672-2.449
			c-1.563,0-3.055,0.625-4.477,1.875v-3.375c1.586-1.023,3.367-1.535,5.344-1.535c1.813,0,3.246,0.463,4.301,1.389
			s1.582,2.201,1.582,3.826c0,0.906-0.152,1.725-0.457,2.455s-0.746,1.416-1.324,2.057s-1.504,1.41-2.777,2.309
			c-1.227,0.875-2.051,1.551-2.473,2.027S955.885,59.657,955.885,60.008z"/>
	</g>
</g>
<g>
	<polyline fill="none" stroke="#000000" stroke-width="4" stroke-miterlimit="10" points="699.346,353.486 621.022,217.823 
		699.346,82.161 	"/>
	<g>
		<path fill="#192A82" d="M701.862,44.61v18.551h-3.809V48.875c-0.469,0.406-1.109,0.771-1.922,1.096s-1.559,0.525-2.238,0.604
			v-3.246c2.141-0.625,3.992-1.531,5.555-2.719H701.862z"/>
	</g>
	<g>
		<path fill="#192A82" d="M610.262,208.396c-0.922-0.523-1.926-0.785-3.012-0.785c-1.398,0-2.518,0.549-3.357,1.646
			s-1.26,2.518-1.26,4.26h0.07c0.867-1.328,2.152-1.992,3.855-1.992c1.523,0,2.732,0.521,3.627,1.564s1.342,2.4,1.342,4.072
			c0,1.828-0.582,3.338-1.746,4.529s-2.652,1.787-4.465,1.787c-2.078,0-3.67-0.75-4.775-2.25s-1.658-3.555-1.658-6.164
			c0-3.07,0.717-5.564,2.15-7.482s3.428-2.877,5.982-2.877c1.375,0,2.457,0.164,3.246,0.492V208.396z M602.762,217.196
			c0,0.938,0.234,1.734,0.703,2.391s1.086,0.984,1.852,0.984c0.773,0,1.383-0.301,1.828-0.902s0.668-1.355,0.668-2.262
			c0-2.039-0.84-3.059-2.52-3.059c-0.758,0-1.369,0.27-1.834,0.809S602.762,216.376,602.762,217.196z"/>
	</g>
	
		<line fill="none" stroke="#E72726" stroke-width="4" stroke-linecap="round" stroke-linejoin="round" stroke-miterlimit="10" stroke-dasharray="12" x1="699.346" y1="353.486" x2="699.346" y2="82.161"/>
	<circle fill="#231815" cx="699.346" cy="82.161" r="7.667"/>
	<g>
		<path fill="#192A82" d="M667.594,196.267c4.699,0,8.736,1.688,12.111,5.063s5.063,7.412,5.063,12.111s-1.688,8.736-5.063,12.111
			s-7.412,5.063-12.111,5.063s-8.736-1.688-12.111-5.063s-5.063-7.412-5.063-12.111s1.688-8.736,5.063-12.111
			S662.895,196.267,667.594,196.267z M667.594,227.661c3.891,0,7.233-1.389,10.028-4.166s4.192-6.129,4.192-10.055
			c0-3.902-1.395-7.248-4.184-10.037s-6.135-4.184-10.037-4.184c-3.914,0-7.263,1.395-10.046,4.184s-4.175,6.135-4.175,10.037
			c0,3.914,1.397,7.263,4.192,10.046S663.703,227.661,667.594,227.661z M661.143,222.054v-3.498c3.949-3.645,6.316-5.918,7.102-6.82
			s1.178-1.811,1.178-2.725c0-1.371-0.803-2.057-2.408-2.057c-1.289,0-2.953,0.768-4.992,2.303v-4.412
			c1.77-1.16,3.686-1.74,5.748-1.74c1.957,0,3.478,0.498,4.562,1.494s1.626,2.326,1.626,3.99c0,1.43-0.472,2.789-1.415,4.078
			s-2.786,3.094-5.528,5.414h6.768v3.973H661.143z"/>
	</g>
	<circle fill="#231815" cx="699.346" cy="353.486" r="7.667"/>
	<g>
		<path fill="#192A82" d="M693.706,385.692v-3.27c1.258,0.766,2.598,1.148,4.02,1.148c1.07,0,1.908-0.264,2.514-0.791
			s0.908-1.24,0.908-2.139c0-1.883-1.289-2.824-3.867-2.824c-0.953,0-2.051,0.07-3.293,0.211l0.68-10.02h9.609v3.117h-6.551
			l-0.258,3.82c0.648-0.055,1.246-0.082,1.793-0.082c1.773,0,3.174,0.484,4.201,1.453s1.541,2.281,1.541,3.938
			c0,1.828-0.621,3.322-1.863,4.482s-2.93,1.74-5.063,1.74C696.351,386.478,694.894,386.216,693.706,385.692z"/>
	</g>
</g>
</svg>
