<?xml version="1.0" encoding="utf-8"?>
<!-- Generator: Adobe Illustrator 16.0.0, SVG Export Plug-In . SVG Version: 6.00 Build 0)  -->
<!DOCTYPE svg PUBLIC "-//W3C//DTD SVG 1.1//EN" "http://www.w3.org/Graphics/SVG/1.1/DTD/svg11.dtd">
<svg version="1.1" id="图层_1" xmlns="http://www.w3.org/2000/svg" xmlns:xlink="http://www.w3.org/1999/xlink" x="0px" y="0px"
	 width="2000px" height="1266.126px" viewBox="-104.5 127.248 2000 1266.126" enable-background="new -104.5 127.248 2000 1266.126"
	 xml:space="preserve">
<g>
	<g>
		<g>
			<polygon fill="none" stroke="#000000" stroke-width="4" stroke-miterlimit="10" points="-19.561,907.996 -19.561,589.996 
				59.939,589.996 59.939,669.496 139.439,669.496 139.439,748.996 218.939,748.996 218.939,828.496 298.439,828.496 
				298.439,907.996 			"/>
		</g>
		
			<rect x="-19.561" y="589.996" fill="#6BB82D" stroke="#000000" stroke-width="4" stroke-miterlimit="10" width="79.5" height="318"/>
		
			<rect x="59.939" y="669.496" fill="#FFF31D" stroke="#000000" stroke-width="4" stroke-miterlimit="10" width="79.5" height="238.5"/>
		
			<rect x="139.439" y="748.996" fill="#E72726" stroke="#000000" stroke-width="4" stroke-miterlimit="10" width="79.5" height="159"/>
		
			<rect x="218.939" y="828.496" fill="#4562AD" stroke="#000000" stroke-width="4" stroke-miterlimit="10" width="79.5" height="79.5"/>
	</g>
	<g>
		<g>
			<polygon fill="none" stroke="#000000" stroke-width="4" stroke-miterlimit="10" points="-19.521,1275.998 -19.521,957.998 
				59.979,957.998 59.979,1037.498 139.479,1037.498 139.479,1116.998 218.979,1116.998 218.979,1196.498 298.479,1196.498 
				298.479,1275.998 			"/>
		</g>
		
			<rect x="-19.521" y="1196.498" fill="#6BB82D" stroke="#000000" stroke-width="4" stroke-miterlimit="10" width="317.999" height="79.5"/>
		
			<rect x="-19.521" y="1116.998" fill="#FFF31D" stroke="#000000" stroke-width="4" stroke-miterlimit="10" width="238.5" height="79.5"/>
		
			<rect x="-19.601" y="1037.498" fill="#E72726" stroke="#000000" stroke-width="4" stroke-miterlimit="10" width="159" height="79.5"/>
		
			<rect x="-19.521" y="957.998" fill="#4562AD" stroke="#000000" stroke-width="4" stroke-miterlimit="10" width="79.5" height="79.5"/>
	</g>
	<g>
		<g>
			<polygon fill="none" stroke="#000000" stroke-width="4" stroke-miterlimit="10" points="-19.561,539.996 -19.561,221.996 
				59.939,221.996 59.939,301.496 139.439,301.496 139.439,380.996 218.939,380.996 218.939,460.496 298.439,460.496 
				298.439,539.996 			"/>
		</g>
		
			<rect x="-19.561" y="301.496" fill="#6BB82D" stroke="#000000" stroke-width="4" stroke-miterlimit="10" width="159" height="238.5"/>
		
			<rect x="139.439" y="380.996" fill="#FFF31D" stroke="#000000" stroke-width="4" stroke-miterlimit="10" width="79.5" height="159"/>
		
			<rect x="218.939" y="460.496" fill="#E72726" stroke="#000000" stroke-width="4" stroke-miterlimit="10" width="79.5" height="79.5"/>
		
			<rect x="-19.561" y="221.996" fill="#4562AD" stroke="#000000" stroke-width="4" stroke-miterlimit="10" width="79.5" height="79.5"/>
	</g>
	<g>
		<g>
			<polygon fill="none" stroke="#000000" stroke-width="4" stroke-miterlimit="10" points="358.439,539.996 358.439,221.996 
				437.939,221.996 437.939,301.496 517.439,301.496 517.439,380.996 596.939,380.996 596.939,460.496 676.439,460.496 
				676.439,539.996 			"/>
		</g>
		
			<rect x="358.439" y="301.496" fill="#6BB82D" stroke="#000000" stroke-width="4" stroke-miterlimit="10" width="159" height="238.5"/>
		
			<rect x="517.439" y="380.996" fill="#FFF31D" stroke="#000000" stroke-width="4" stroke-miterlimit="10" width="79.5" height="79.5"/>
		
			<rect x="517.52" y="460.496" fill="#E72726" stroke="#000000" stroke-width="4" stroke-miterlimit="10" width="159" height="79.5"/>
		
			<rect x="358.439" y="221.996" fill="#4562AD" stroke="#000000" stroke-width="4" stroke-miterlimit="10" width="79.5" height="79.5"/>
	</g>
	<g>
		<g>
			<polygon fill="none" stroke="#000000" stroke-width="4" stroke-miterlimit="10" points="736.52,539.996 736.52,221.996 
				816.02,221.996 816.02,301.496 895.519,301.496 895.519,380.996 975.019,380.996 975.019,460.496 1054.519,460.496 
				1054.519,539.996 			"/>
		</g>
		
			<rect x="736.52" y="380.996" fill="#6BB82D" stroke="#000000" stroke-width="4" stroke-miterlimit="10" width="238.499" height="159"/>
		
			<rect x="736.519" y="301.496" fill="#FFF31D" stroke="#000000" stroke-width="4" stroke-miterlimit="10" width="159" height="79.5"/>
		
			<rect x="975.019" y="460.496" fill="#E72726" stroke="#000000" stroke-width="4" stroke-miterlimit="10" width="79.5" height="79.5"/>
		
			<rect x="736.52" y="221.996" fill="#4562AD" stroke="#000000" stroke-width="4" stroke-miterlimit="10" width="79.5" height="79.5"/>
	</g>
	<g>
		<g>
			<polygon fill="none" stroke="#000000" stroke-width="4" stroke-miterlimit="10" points="1114.519,539.996 1114.519,221.996 
				1194.019,221.996 1194.019,301.496 1273.519,301.496 1273.519,380.996 1353.019,380.996 1353.019,460.496 1432.519,460.496 
				1432.519,539.996 			"/>
		</g>
		
			<rect x="1114.519" y="380.996" fill="#6BB82D" stroke="#000000" stroke-width="4" stroke-miterlimit="10" width="238.5" height="159"/>
		
			<rect x="1194.019" y="301.496" fill="#FFF31D" stroke="#000000" stroke-width="4" stroke-miterlimit="10" width="79.5" height="79.5"/>
		
			<rect x="1353.019" y="460.496" fill="#E72726" stroke="#000000" stroke-width="4" stroke-miterlimit="10" width="79.5" height="79.5"/>
		
			<rect x="1114.519" y="221.996" fill="#4562AD" stroke="#000000" stroke-width="4" stroke-miterlimit="10" width="79.5" height="159"/>
	</g>
	<g>
		<g>
			<polygon fill="none" stroke="#000000" stroke-width="4" stroke-miterlimit="10" points="358.48,907.996 358.48,589.996 
				437.98,589.996 437.98,669.496 517.48,669.496 517.48,748.996 596.979,748.996 596.979,828.496 676.479,828.496 676.479,907.996 
							"/>
		</g>
		
			<rect x="358.48" y="589.996" fill="#6BB82D" stroke="#000000" stroke-width="4" stroke-miterlimit="10" width="79.5" height="318"/>
		
			<rect x="437.98" y="669.496" fill="#FFF31D" stroke="#000000" stroke-width="4" stroke-miterlimit="10" width="79.5" height="238.5"/>
		
			<rect x="517.48" y="748.996" fill="#E72726" stroke="#000000" stroke-width="4" stroke-miterlimit="10" width="79.499" height="79.5"/>
		
			<rect x="517.479" y="828.496" fill="#4562AD" stroke="#000000" stroke-width="4" stroke-miterlimit="10" width="159" height="79.5"/>
	</g>
	<g>
		<g>
			<polygon fill="none" stroke="#000000" stroke-width="4" stroke-miterlimit="10" points="736.561,907.996 736.561,589.996 
				816.061,589.996 816.061,669.496 895.56,669.496 895.56,748.996 975.06,748.996 975.06,828.496 1054.56,828.496 1054.56,907.996 
							"/>
		</g>
		
			<rect x="736.561" y="589.996" fill="#6BB82D" stroke="#000000" stroke-width="4" stroke-miterlimit="10" width="79.5" height="318"/>
		
			<rect x="816.061" y="669.496" fill="#FFF31D" stroke="#000000" stroke-width="4" stroke-miterlimit="10" width="79.499" height="159"/>
		
			<rect x="895.56" y="748.996" fill="#E72726" stroke="#000000" stroke-width="4" stroke-miterlimit="10" width="79.5" height="79.5"/>
		
			<rect x="815.979" y="828.496" fill="#4562AD" stroke="#000000" stroke-width="4" stroke-miterlimit="10" width="238.58" height="79.5"/>
	</g>
	<g>
		<g>
			<polygon fill="none" stroke="#000000" stroke-width="4" stroke-miterlimit="10" points="1114.56,907.996 1114.56,589.997 
				1194.06,589.997 1194.06,669.496 1273.56,669.496 1273.56,748.996 1353.06,748.996 1353.06,828.496 1432.56,828.496 
				1432.56,907.996 			"/>
		</g>
		
			<rect x="1114.56" y="589.997" fill="#6BB82D" stroke="#000000" stroke-width="4" stroke-miterlimit="10" width="79.5" height="318"/>
		
			<rect x="1194.06" y="669.496" fill="#FFF31D" stroke="#000000" stroke-width="4" stroke-miterlimit="10" width="79.5" height="79.5"/>
		
			<rect x="1194.06" y="748.996" fill="#E72726" stroke="#000000" stroke-width="4" stroke-miterlimit="10" width="158.998" height="79.5"/>
		
			<rect x="1194.06" y="828.496" fill="#4562AD" stroke="#000000" stroke-width="4" stroke-miterlimit="10" width="238.5" height="79.5"/>
	</g>
	<g>
		<g>
			<polygon fill="none" stroke="#000000" stroke-width="4" stroke-miterlimit="10" points="358.52,1275.998 676.52,1275.998 
				676.52,1196.498 597.02,1196.498 597.02,1116.998 517.52,1116.998 517.52,1037.498 438.02,1037.498 438.02,957.998 
				358.52,957.998 			"/>
		</g>
		
			<rect x="358.52" y="1196.498" fill="#6BB82D" stroke="#000000" stroke-width="4" stroke-miterlimit="10" width="318" height="79.5"/>
		
			<rect x="358.52" y="1116.998" fill="#FFF31D" stroke="#000000" stroke-width="4" stroke-miterlimit="10" width="238.5" height="79.5"/>
		
			<rect x="438.02" y="1037.498" fill="#E72726" stroke="#000000" stroke-width="4" stroke-miterlimit="10" width="79.5" height="79.5"/>
		
			<rect x="358.52" y="957.998" fill="#4562AD" stroke="#000000" stroke-width="4" stroke-miterlimit="10" width="79.5" height="159"/>
	</g>
	<g>
		<g>
			<polygon fill="none" stroke="#000000" stroke-width="4" stroke-miterlimit="10" points="736.6,1275.998 1054.6,1275.998 
				1054.6,1196.498 975.1,1196.498 975.1,1116.998 895.6,1116.998 895.6,1037.498 816.1,1037.498 816.1,957.998 736.6,957.998 			
				"/>
		</g>
		
			<rect x="736.6" y="1196.498" fill="#6BB82D" stroke="#000000" stroke-width="4" stroke-miterlimit="10" width="318" height="79.5"/>
		
			<rect x="816.1" y="1116.998" fill="#FFF31D" stroke="#000000" stroke-width="4" stroke-miterlimit="10" width="159" height="79.5"/>
		
			<rect x="816.1" y="1037.498" fill="#E72726" stroke="#000000" stroke-width="4" stroke-miterlimit="10" width="79.5" height="79.5"/>
		
			<rect x="736.6" y="957.998" fill="#4562AD" stroke="#000000" stroke-width="4" stroke-miterlimit="10" width="79.5" height="238.58"/>
	</g>
	<g>
		<g>
			<polygon fill="none" stroke="#000000" stroke-width="4" stroke-miterlimit="10" points="1114.602,1275.998 1432.601,1275.998 
				1432.601,1196.498 1353.102,1196.498 1353.102,1116.998 1273.602,1116.998 1273.602,1037.498 1194.102,1037.498 
				1194.102,957.998 1114.602,957.998 			"/>
		</g>
		
			<rect x="1114.602" y="1196.498" fill="#6BB82D" stroke="#000000" stroke-width="4" stroke-miterlimit="10" width="317.999" height="79.5"/>
		
			<rect x="1273.602" y="1116.998" fill="#FFF31D" stroke="#000000" stroke-width="4" stroke-miterlimit="10" width="79.5" height="79.5"/>
		
			<rect x="1194.102" y="1037.5" fill="#E72726" stroke="#000000" stroke-width="4" stroke-miterlimit="10" width="79.5" height="158.998"/>
		
			<rect x="1114.602" y="957.998" fill="#4562AD" stroke="#000000" stroke-width="4" stroke-miterlimit="10" width="79.5" height="238.5"/>
	</g>
	<g>
		<g>
			<polygon fill="none" stroke="#000000" stroke-width="4" stroke-miterlimit="10" points="1492.601,907.996 1492.601,589.997 
				1572.101,589.997 1572.101,669.497 1651.601,669.497 1651.601,748.997 1731.101,748.997 1731.101,828.496 1810.601,828.496 
				1810.601,907.996 			"/>
		</g>
		
			<rect x="1492.601" y="589.997" fill="#6BB82D" stroke="#000000" stroke-width="4" stroke-miterlimit="10" width="79.5" height="318"/>
		
			<rect x="1572.101" y="669.497" fill="#FFF31D" stroke="#000000" stroke-width="4" stroke-miterlimit="10" width="79.5" height="79.5"/>
		
			<rect x="1572.101" y="748.997" fill="#E72726" stroke="#000000" stroke-width="4" stroke-miterlimit="10" width="159.001" height="159"/>
		
			<rect x="1731.102" y="828.496" fill="#4562AD" stroke="#000000" stroke-width="4" stroke-miterlimit="10" width="79.498" height="79.5"/>
	</g>
	<g>
		<g>
			<polygon fill="none" stroke="#000000" stroke-width="4" stroke-miterlimit="10" points="1492.601,1275.996 1810.601,1275.996 
				1810.601,1196.496 1731.101,1196.496 1731.101,1116.996 1651.601,1116.996 1651.601,1037.496 1572.101,1037.496 
				1572.101,957.996 1492.601,957.996 			"/>
		</g>
		
			<rect x="1492.601" y="1196.496" fill="#6BB82D" stroke="#000000" stroke-width="4" stroke-miterlimit="10" width="318" height="79.5"/>
		
			<rect x="1651.601" y="1116.996" fill="#FFF31D" stroke="#000000" stroke-width="4" stroke-miterlimit="10" width="79.5" height="79.5"/>
		
			<rect x="1492.601" y="1037.496" fill="#E72726" stroke="#000000" stroke-width="4" stroke-miterlimit="10" width="159" height="159"/>
		
			<rect x="1492.601" y="957.998" fill="#4562AD" stroke="#000000" stroke-width="4" stroke-miterlimit="10" width="79.5" height="79.498"/>
	</g>
</g>
</svg>
