<?xml version="1.0" encoding="utf-8"?>
<!-- Generator: Adobe Illustrator 16.0.0, SVG Export Plug-In . SVG Version: 6.00 Build 0)  -->
<!DOCTYPE svg PUBLIC "-//W3C//DTD SVG 1.1//EN" "http://www.w3.org/Graphics/SVG/1.1/DTD/svg11.dtd">
<svg version="1.1" id="图层_1" xmlns="http://www.w3.org/2000/svg" xmlns:xlink="http://www.w3.org/1999/xlink" x="0px" y="0px"
	 width="1282.858px" height="946.584px" viewBox="0 0 1282.858 946.584" enable-background="new 0 0 1282.858 946.584"
	 xml:space="preserve">
<g>
	<g>
		<path fill="none" stroke="#000000" stroke-width="7" stroke-linecap="round" stroke-linejoin="round" stroke-miterlimit="10" d="
			M441.21,237.965c0,88.812-72,160.811-160.811,160.811c-88.82,0-160.82-72-160.82-160.811s72-160.811,160.82-160.811
			C369.21,77.154,441.21,149.154,441.21,237.965z"/>
		<path stroke="#000000" stroke-width="5" stroke-miterlimit="10" d="M287.45,77.154c0,3.888-3.163,7.051-7.052,7.051
			c-3.897,0-7.051-3.163-7.051-7.051c0-3.898,3.153-7.051,7.051-7.051C284.287,70.104,287.45,73.256,287.45,77.154z"/>
		<path stroke="#000000" stroke-width="5" stroke-miterlimit="10" d="M126.63,237.965c0,3.898-3.153,7.051-7.051,7.051
			c-3.889,0-7.052-3.153-7.052-7.051s3.163-7.051,7.052-7.051C123.476,230.914,126.63,234.067,126.63,237.965z"/>
		<path stroke="#000000" stroke-width="5" stroke-miterlimit="10" d="M287.45,398.776c0,3.898-3.163,7.051-7.052,7.051
			c-3.897,0-7.051-3.151-7.051-7.051c0-3.888,3.153-7.051,7.051-7.051C284.287,391.725,287.45,394.888,287.45,398.776z"/>
		<path stroke="#000000" stroke-width="5" stroke-miterlimit="10" d="M448.261,237.965c0,3.898-3.163,7.051-7.051,7.051
			c-3.898,0-7.051-3.153-7.051-7.051s3.152-7.051,7.051-7.051C445.098,230.914,448.261,234.067,448.261,237.965z"/>
		<path stroke="#000000" stroke-width="5" stroke-miterlimit="10" d="M173.739,124.254c0,3.888-3.163,7.051-7.052,7.051
			c-3.897,0-7.051-3.163-7.051-7.051c0-3.898,3.153-7.051,7.051-7.051C170.576,117.204,173.739,120.356,173.739,124.254z"/>
		<path stroke="#000000" stroke-width="5" stroke-miterlimit="10" d="M173.739,351.676c0,3.897-3.163,7.051-7.052,7.051
			c-3.897,0-7.051-3.152-7.051-7.051s3.153-7.052,7.051-7.052C170.576,344.625,173.739,347.778,173.739,351.676z"/>
		<path stroke="#000000" stroke-width="5" stroke-miterlimit="10" d="M401.161,351.676c0,3.897-3.163,7.051-7.052,7.051
			c-3.897,0-7.051-3.152-7.051-7.051s3.153-7.052,7.051-7.052C397.998,344.625,401.161,347.778,401.161,351.676z"/>
		<path stroke="#000000" stroke-width="5" stroke-miterlimit="10" d="M401.161,124.254c0,3.888-3.163,7.051-7.052,7.051
			c-3.897,0-7.051-3.163-7.051-7.051c0-3.898,3.153-7.051,7.051-7.051C397.998,117.204,401.161,120.356,401.161,124.254z"/>
	</g>
	<g>
		<path fill="#192A82" d="M283.531,36.507v18.551h-3.809V40.773c-0.469,0.406-1.109,0.771-1.922,1.096s-1.559,0.525-2.238,0.604
			v-3.246c2.141-0.625,3.992-1.531,5.555-2.719H283.531z"/>
	</g>
	<g>
		<path fill="#192A82" d="M412.973,107.906h7.699v3.152h-12.07v-1.348c0-0.945,0.174-1.809,0.521-2.59s0.826-1.51,1.436-2.186
			s1.555-1.467,2.836-2.373c1.172-0.875,1.992-1.65,2.461-2.326s0.703-1.393,0.703-2.15c0-1.633-0.891-2.449-2.672-2.449
			c-1.563,0-3.055,0.625-4.477,1.875v-3.375c1.586-1.023,3.367-1.535,5.344-1.535c1.813,0,3.246,0.463,4.301,1.389
			s1.582,2.201,1.582,3.826c0,0.906-0.152,1.725-0.457,2.455s-0.746,1.416-1.324,2.057s-1.504,1.41-2.777,2.309
			c-1.227,0.875-2.051,1.551-2.473,2.027S412.973,107.554,412.973,107.906z"/>
	</g>
	<g>
		<path fill="#192A82" d="M460.199,241.067c1.211,0.906,2.625,1.359,4.242,1.359c1.023,0,1.836-0.227,2.438-0.68
			s0.902-1.098,0.902-1.934c0-0.859-0.357-1.516-1.072-1.969s-1.717-0.68-3.006-0.68h-1.617v-2.918h1.488
			c2.438,0,3.656-0.82,3.656-2.461c0-1.547-0.934-2.32-2.801-2.32c-1.219,0-2.402,0.398-3.551,1.195v-3.129
			c1.25-0.648,2.723-0.973,4.418-0.973c1.719,0,3.113,0.396,4.184,1.189s1.605,1.893,1.605,3.299c0,2.375-1.203,3.867-3.609,4.477
			v0.059c1.266,0.141,2.277,0.604,3.035,1.389s1.137,1.74,1.137,2.865c0,1.727-0.631,3.074-1.893,4.043s-2.943,1.453-5.045,1.453
			c-1.867,0-3.371-0.309-4.512-0.926V241.067z"/>
	</g>
	<g>
		<path fill="#192A82" d="M419.289,362.906v11.531h2.566v2.754h-2.566v3.867h-3.445v-3.867h-8.109v-2.777
			c1.68-1.875,3.254-3.859,4.723-5.953s2.578-3.945,3.328-5.555H419.289z M411.086,374.437h4.758v-6.656
			c-0.375,0.703-0.912,1.555-1.611,2.555S412.484,372.703,411.086,374.437z"/>
	</g>
	<g>
		<path fill="#192A82" d="M273.124,437.589v-3.27c1.258,0.766,2.598,1.148,4.02,1.148c1.07,0,1.908-0.264,2.514-0.791
			s0.908-1.24,0.908-2.139c0-1.883-1.289-2.824-3.867-2.824c-0.953,0-2.051,0.07-3.293,0.211l0.68-10.02h9.609v3.117h-6.551
			l-0.258,3.82c0.648-0.055,1.246-0.082,1.793-0.082c1.773,0,3.174,0.484,4.201,1.453s1.541,2.281,1.541,3.938
			c0,1.828-0.621,3.322-1.863,4.482s-2.93,1.74-5.063,1.74C275.768,438.375,274.311,438.113,273.124,437.589z"/>
	</g>
	<g>
		<path fill="#192A82" d="M148.016,366.292c-0.922-0.523-1.926-0.785-3.012-0.785c-1.398,0-2.518,0.549-3.357,1.646
			s-1.26,2.518-1.26,4.26h0.07c0.867-1.328,2.152-1.992,3.855-1.992c1.523,0,2.732,0.521,3.627,1.564s1.342,2.4,1.342,4.072
			c0,1.828-0.582,3.338-1.746,4.529s-2.652,1.787-4.465,1.787c-2.078,0-3.67-0.75-4.775-2.25s-1.658-3.555-1.658-6.164
			c0-3.07,0.717-5.564,2.15-7.482s3.428-2.877,5.982-2.877c1.375,0,2.457,0.164,3.246,0.492V366.292z M140.516,375.093
			c0,0.938,0.234,1.734,0.703,2.391s1.086,0.984,1.852,0.984c0.773,0,1.383-0.301,1.828-0.902s0.668-1.355,0.668-2.262
			c0-2.039-0.84-3.059-2.52-3.059c-0.758,0-1.369,0.27-1.834,0.809S140.516,374.273,140.516,375.093z"/>
	</g>
	<g>
		<path fill="#192A82" d="M98.129,229.172c-1.469,2.633-2.564,4.754-3.287,6.363s-1.311,3.176-1.764,4.699s-0.801,3.117-1.043,4.781
			h-4.066c0.391-2.367,1.08-4.764,2.068-7.189s2.354-5.041,4.096-7.846h-8.66v-3.117h12.656V229.172z"/>
	</g>
	<g>
		<path fill="#192A82" d="M136.355,112.316c0-1.055,0.305-1.992,0.914-2.813s1.492-1.422,2.648-1.805
			c-0.922-0.461-1.635-1.047-2.139-1.758s-0.756-1.5-0.756-2.367c0-0.906,0.248-1.729,0.744-2.467s1.189-1.316,2.08-1.734
			s1.887-0.627,2.988-0.627c1.109,0,2.113,0.205,3.012,0.615s1.598,0.984,2.098,1.723s0.75,1.553,0.75,2.443
			c0,0.844-0.275,1.629-0.826,2.355s-1.291,1.301-2.221,1.723c1.133,0.391,2.016,0.994,2.648,1.811s0.949,1.771,0.949,2.865
			c0,1.539-0.598,2.793-1.793,3.762s-2.746,1.453-4.652,1.453s-3.457-0.484-4.652-1.453S136.355,113.832,136.355,112.316z
			 M140.141,111.977c0,0.844,0.242,1.52,0.727,2.027s1.133,0.762,1.945,0.762c0.781,0,1.422-0.254,1.922-0.762
			s0.75-1.184,0.75-2.027c0-0.789-0.254-1.447-0.762-1.975s-1.145-0.791-1.91-0.791c-0.789,0-1.432,0.264-1.928,0.791
			S140.141,111.188,140.141,111.977z M140.703,103.961c0,0.664,0.205,1.232,0.615,1.705s0.928,0.709,1.553,0.709
			c0.602,0,1.113-0.23,1.535-0.691s0.633-1.035,0.633-1.723s-0.205-1.27-0.615-1.746s-0.928-0.715-1.553-0.715
			c-0.641,0-1.162,0.238-1.564,0.715S140.703,103.273,140.703,103.961z"/>
	</g>
	<g>
		<g>
			
				<line fill="none" stroke="#E72119" stroke-width="6" stroke-linecap="round" stroke-miterlimit="10" x1="280.399" y1="77.154" x2="280.399" y2="83.154"/>
			
				<line fill="none" stroke="#E72119" stroke-width="6" stroke-linecap="round" stroke-miterlimit="10" stroke-dasharray="12.3849,12.3849" x1="280.399" y1="95.539" x2="280.399" y2="386.583"/>
			
				<line fill="none" stroke="#E72119" stroke-width="6" stroke-linecap="round" stroke-miterlimit="10" x1="280.399" y1="392.776" x2="280.399" y2="398.776"/>
		</g>
	</g>
	
		<ellipse fill="none" stroke="#E72119" stroke-width="4" stroke-linecap="round" stroke-miterlimit="10" cx="412.35" cy="240.664" rx="71.5" ry="179.265"/>
</g>
<g>
	<defs>
		<ellipse id="SVGID_1_" cx="916.046" cy="245.017" rx="91.559" ry="229.558"/>
	</defs>
	<clipPath id="SVGID_2_">
		<use xlink:href="#SVGID_1_"  overflow="visible"/>
	</clipPath>
	<g clip-path="url(#SVGID_2_)">
		<path fill="none" stroke="#000000" stroke-width="7" stroke-linecap="round" stroke-linejoin="round" stroke-miterlimit="10" d="
			M953.002,241.561c0,113.729-92.199,205.927-205.925,205.927c-113.739,0-205.939-92.2-205.939-205.927
			c0-113.728,92.2-205.927,205.939-205.927C860.803,35.634,953.002,127.833,953.002,241.561z"/>
		<path stroke="#000000" stroke-width="5" stroke-miterlimit="10" d="M756.106,35.634c0,4.979-4.051,9.029-9.03,9.029
			c-4.991,0-9.029-4.05-9.029-9.029c0-4.992,4.038-9.029,9.029-9.029C752.055,26.606,756.106,30.642,756.106,35.634z"/>
		<path stroke="#000000" stroke-width="5" stroke-miterlimit="10" d="M550.167,241.561c0,4.992-4.038,9.03-9.029,9.03
			c-4.979,0-9.03-4.038-9.03-9.03s4.05-9.029,9.03-9.029C546.128,232.532,550.167,236.569,550.167,241.561z"/>
		<path stroke="#000000" stroke-width="5" stroke-miterlimit="10" d="M756.106,447.487c0,4.993-4.051,9.029-9.03,9.029
			c-4.991,0-9.029-4.036-9.029-9.029c0-4.978,4.038-9.029,9.029-9.029C752.055,438.458,756.106,442.509,756.106,447.487z"/>
		<path stroke="#000000" stroke-width="5" stroke-miterlimit="10" d="M962.031,241.561c0,4.992-4.049,9.03-9.029,9.03
			c-4.992,0-9.027-4.038-9.027-9.03s4.035-9.029,9.027-9.029C957.982,232.532,962.031,236.569,962.031,241.561z"/>
		<path stroke="#000000" stroke-width="5" stroke-miterlimit="10" d="M610.493,95.948c0,4.979-4.051,9.03-9.03,9.03
			c-4.991,0-9.029-4.051-9.029-9.03c0-4.991,4.038-9.029,9.029-9.029C606.442,86.92,610.493,90.957,610.493,95.948z"/>
		<path stroke="#000000" stroke-width="5" stroke-miterlimit="10" d="M610.493,387.174c0,4.99-4.051,9.029-9.03,9.029
			c-4.991,0-9.029-4.037-9.029-9.029s4.038-9.031,9.029-9.031C606.442,378.144,610.493,382.182,610.493,387.174z"/>
		<path stroke="#000000" stroke-width="5" stroke-miterlimit="10" d="M901.719,387.174c0,4.99-4.051,9.029-9.03,9.029
			c-4.991,0-9.029-4.037-9.029-9.029s4.038-9.031,9.029-9.031C897.668,378.144,901.719,382.182,901.719,387.174z"/>
		<path stroke="#000000" stroke-width="5" stroke-miterlimit="10" d="M901.719,95.948c0,4.979-4.051,9.03-9.03,9.03
			c-4.991,0-9.029-4.051-9.029-9.03c0-4.991,4.038-9.029,9.029-9.029C897.668,86.92,901.719,90.957,901.719,95.948z"/>
	</g>
	<g clip-path="url(#SVGID_2_)">
		<path fill="#192A82" d="M751.089-16.417V7.339h-4.877v-18.293c-0.6,0.521-1.421,0.988-2.461,1.403
			c-1.041,0.415-1.996,0.673-2.866,0.772v-4.157c2.741-0.8,5.112-1.96,7.113-3.481H751.089z"/>
	</g>
	<g clip-path="url(#SVGID_2_)">
		<path fill="#192A82" d="M916.846,75.012h9.859v4.037h-15.457v-1.726c0-1.21,0.223-2.316,0.668-3.316s1.059-1.934,1.838-2.799
			c0.781-0.865,1.991-1.878,3.632-3.039c1.501-1.12,2.552-2.113,3.151-2.979c0.601-0.865,0.9-1.783,0.9-2.754
			c0-2.091-1.141-3.136-3.422-3.136c-2,0-3.911,0.8-5.732,2.401v-4.322c2.031-1.311,4.313-1.966,6.844-1.966
			c2.32,0,4.156,0.593,5.508,1.778c1.35,1.186,2.025,2.819,2.025,4.899c0,1.161-0.195,2.208-0.586,3.144
			c-0.39,0.936-0.955,1.813-1.695,2.634s-1.926,1.806-3.557,2.956c-1.57,1.121-2.626,1.986-3.166,2.596
			C917.115,74.032,916.846,74.562,916.846,75.012z"/>
	</g>
	<g clip-path="url(#SVGID_2_)">
		<path fill="#192A82" d="M977.321,245.532c1.55,1.161,3.361,1.741,5.432,1.741c1.311,0,2.352-0.29,3.122-0.871
			c0.77-0.58,1.155-1.405,1.155-2.476c0-1.1-0.458-1.94-1.373-2.521c-0.916-0.58-2.198-0.87-3.85-0.87h-2.07v-3.737h1.905
			c3.122,0,4.683-1.05,4.683-3.151c0-1.981-1.196-2.971-3.587-2.971c-1.561,0-3.076,0.51-4.547,1.531v-4.007
			c1.601-0.83,3.486-1.246,5.657-1.246c2.201,0,3.986,0.508,5.357,1.523c1.37,1.015,2.056,2.423,2.056,4.224
			c0,3.042-1.54,4.952-4.622,5.732v0.075c1.621,0.18,2.917,0.772,3.887,1.778c0.971,1.005,1.456,2.229,1.456,3.669
			c0,2.211-0.809,3.937-2.424,5.177c-1.615,1.241-3.77,1.861-6.46,1.861c-2.392,0-4.317-0.396-5.777-1.186V245.532z"/>
	</g>
	<g clip-path="url(#SVGID_2_)">
		<path fill="#192A82" d="M924.934,401.555v14.767h3.287v3.526h-3.287v4.952h-4.411v-4.952h-10.385v-3.557
			c2.151-2.401,4.167-4.942,6.048-7.623s3.301-5.052,4.262-7.113H924.934z M914.43,416.321h6.093v-8.524
			c-0.48,0.9-1.169,1.991-2.063,3.271C917.563,412.35,916.221,414.1,914.43,416.321z"/>
	</g>
	<g clip-path="url(#SVGID_2_)">
		<path fill="#192A82" d="M740.645,497.19v-4.187c1.61,0.98,3.326,1.471,5.147,1.471c1.371,0,2.444-0.338,3.219-1.013
			c0.775-0.675,1.163-1.588,1.163-2.738c0-2.411-1.65-3.617-4.952-3.617c-1.22,0-2.626,0.09-4.217,0.27l0.871-12.831h12.305v3.992
			h-8.389l-0.33,4.892c0.831-0.07,1.596-0.105,2.296-0.105c2.271,0,4.064,0.621,5.38,1.861c1.315,1.241,1.974,2.921,1.974,5.042
			c0,2.341-0.795,4.254-2.386,5.74s-3.751,2.229-6.483,2.229C744.031,498.195,742.165,497.86,740.645,497.19z"/>
	</g>
	<g clip-path="url(#SVGID_2_)">
		<path fill="#192A82" d="M577.554,405.892c-1.181-0.67-2.466-1.005-3.857-1.005c-1.791,0-3.224,0.703-4.299,2.108
			c-1.076,1.406-1.613,3.224-1.613,5.455h0.09c1.11-1.701,2.756-2.551,4.937-2.551c1.951,0,3.499,0.668,4.645,2.003
			s1.718,3.074,1.718,5.215c0,2.341-0.746,4.274-2.236,5.8c-1.491,1.526-3.397,2.289-5.718,2.289c-2.661,0-4.7-0.96-6.115-2.881
			s-2.123-4.552-2.123-7.894c0-3.932,0.917-7.125,2.753-9.582s4.39-3.684,7.661-3.684c1.76,0,3.146,0.21,4.157,0.63V405.892z
			 M567.95,417.162c0,1.2,0.3,2.221,0.9,3.061c0.601,0.84,1.391,1.261,2.371,1.261c0.991,0,1.771-0.385,2.341-1.156
			c0.57-0.77,0.855-1.735,0.855-2.896c0-2.611-1.075-3.917-3.226-3.917c-0.971,0-1.753,0.345-2.349,1.035
			S567.95,416.111,567.95,417.162z"/>
	</g>
	<g clip-path="url(#SVGID_2_)">
		<path fill="#192A82" d="M513.67,230.3c-1.881,3.372-3.284,6.087-4.209,8.148c-0.926,2.061-1.679,4.067-2.259,6.018
			s-1.025,3.992-1.335,6.123h-5.207c0.5-3.031,1.383-6.1,2.648-9.207s3.014-6.455,5.245-10.047h-11.09v-3.992h16.207V230.3z"/>
	</g>
	<g clip-path="url(#SVGID_2_)">
		<path fill="#192A82" d="M562.623,80.66c0-1.351,0.39-2.551,1.17-3.602c0.78-1.05,1.911-1.821,3.392-2.311
			c-1.181-0.59-2.093-1.34-2.739-2.251c-0.645-0.91-0.968-1.921-0.968-3.031c0-1.16,0.317-2.213,0.953-3.159
			s1.523-1.686,2.664-2.221c1.14-0.535,2.416-0.803,3.827-0.803c1.42,0,2.706,0.263,3.856,0.788c1.15,0.525,2.046,1.26,2.686,2.206
			c0.64,0.946,0.96,1.989,0.96,3.129c0,1.081-0.353,2.086-1.058,3.017c-0.705,0.93-1.653,1.666-2.843,2.206
			c1.45,0.5,2.581,1.273,3.391,2.319c0.811,1.045,1.216,2.269,1.216,3.669c0,1.971-0.766,3.577-2.296,4.817
			c-1.53,1.241-3.517,1.861-5.958,1.861s-4.427-0.62-5.958-1.861C563.388,84.192,562.623,82.601,562.623,80.66z M567.47,80.225
			c0,1.081,0.31,1.946,0.93,2.596c0.621,0.65,1.451,0.975,2.491,0.975c1,0,1.821-0.325,2.461-0.975s0.96-1.516,0.96-2.596
			c0-1.01-0.325-1.854-0.975-2.529c-0.65-0.675-1.466-1.013-2.446-1.013c-1.011,0-1.833,0.337-2.469,1.013
			S567.47,79.215,567.47,80.225z M568.19,69.96c0,0.851,0.263,1.579,0.788,2.184c0.525,0.605,1.188,0.908,1.988,0.908
			c0.77,0,1.425-0.295,1.966-0.885c0.54-0.59,0.81-1.325,0.81-2.206c0-0.88-0.262-1.625-0.788-2.236
			c-0.525-0.61-1.188-0.916-1.988-0.916c-0.82,0-1.488,0.306-2.003,0.916C568.447,68.335,568.19,69.081,568.19,69.96z"/>
	</g>
	<g clip-path="url(#SVGID_2_)">
		<g>
			
				<line fill="none" stroke="#E72119" stroke-width="6" stroke-linecap="round" stroke-miterlimit="10" x1="747.077" y1="35.634" x2="747.077" y2="41.634"/>
			
				<line fill="none" stroke="#E72119" stroke-width="6" stroke-linecap="round" stroke-miterlimit="10" stroke-dasharray="12.1168,12.1168" x1="747.077" y1="53.75" x2="747.077" y2="435.429"/>
			
				<line fill="none" stroke="#E72119" stroke-width="6" stroke-linecap="round" stroke-miterlimit="10" x1="747.077" y1="441.487" x2="747.077" y2="447.487"/>
		</g>
	</g>
</g>
<polygon fill="#BCBCBC" points="686.023,272.499 686.023,255.557 686.023,255.557 573.372,255.557 573.372,220.373 686.023,220.373 
	686.023,203.431 744.487,237.964 "/>
<g>
	
		<line fill="none" stroke="#D9281C" stroke-width="4" stroke-linecap="round" stroke-miterlimit="10" x1="1019.855" y1="331.727" x2="1067.855" y2="385.727"/>
	
		<line fill="none" stroke="#D9281C" stroke-width="4" stroke-linecap="round" stroke-miterlimit="10" x1="1067.855" y1="331.727" x2="1019.855" y2="385.727"/>
</g>
<g>
	<g>
		<path fill="none" stroke="#000000" stroke-width="7" stroke-linecap="round" stroke-linejoin="round" stroke-miterlimit="10" d="
			M438.959,682.441c0,88.812-72,160.812-160.811,160.812c-88.82,0-160.82-72-160.82-160.812s72-160.811,160.82-160.811
			C366.959,521.63,438.959,593.63,438.959,682.441z"/>
		<path stroke="#000000" stroke-width="5" stroke-miterlimit="10" d="M285.199,521.63c0,3.888-3.164,7.051-7.053,7.051
			c-3.896,0-7.051-3.163-7.051-7.051c0-3.898,3.154-7.051,7.051-7.051C282.035,514.581,285.199,517.732,285.199,521.63z"/>
		<path stroke="#000000" stroke-width="5" stroke-miterlimit="10" d="M124.379,682.441c0,3.898-3.154,7.051-7.051,7.051
			c-3.889,0-7.053-3.153-7.053-7.051s3.164-7.051,7.053-7.051C121.225,675.391,124.379,678.543,124.379,682.441z"/>
		<path stroke="#000000" stroke-width="5" stroke-miterlimit="10" d="M285.199,843.253c0,3.898-3.164,7.051-7.053,7.051
			c-3.896,0-7.051-3.152-7.051-7.051c0-3.889,3.154-7.051,7.051-7.051C282.035,836.202,285.199,839.364,285.199,843.253z"/>
		<path stroke="#000000" stroke-width="5" stroke-miterlimit="10" d="M446.01,682.441c0,3.898-3.164,7.051-7.051,7.051
			c-3.898,0-7.051-3.153-7.051-7.051s3.152-7.051,7.051-7.051C442.846,675.391,446.01,678.543,446.01,682.441z"/>
		<path stroke="#000000" stroke-width="5" stroke-miterlimit="10" d="M171.488,568.73c0,3.888-3.164,7.051-7.053,7.051
			c-3.896,0-7.051-3.163-7.051-7.051c0-3.898,3.154-7.051,7.051-7.051C168.324,561.681,171.488,564.833,171.488,568.73z"/>
		<path stroke="#000000" stroke-width="5" stroke-miterlimit="10" d="M171.488,796.153c0,3.897-3.164,7.051-7.053,7.051
			c-3.896,0-7.051-3.152-7.051-7.051s3.154-7.052,7.051-7.052C168.324,789.101,171.488,792.254,171.488,796.153z"/>
		<path stroke="#000000" stroke-width="5" stroke-miterlimit="10" d="M398.91,796.153c0,3.897-3.164,7.051-7.053,7.051
			c-3.896,0-7.051-3.152-7.051-7.051s3.154-7.052,7.051-7.052C395.746,789.101,398.91,792.254,398.91,796.153z"/>
		<path stroke="#000000" stroke-width="5" stroke-miterlimit="10" d="M398.91,568.73c0,3.888-3.164,7.051-7.053,7.051
			c-3.896,0-7.051-3.163-7.051-7.051c0-3.898,3.154-7.051,7.051-7.051C395.746,561.681,398.91,564.833,398.91,568.73z"/>
	</g>
	<g>
		<path fill="#192A82" d="M281.28,480.984v18.551h-3.809V485.25c-0.469,0.406-1.109,0.771-1.922,1.096s-1.559,0.525-2.238,0.604
			v-3.246c2.141-0.625,3.992-1.531,5.555-2.719H281.28z"/>
	</g>
	<g>
		<path fill="#192A82" d="M410.721,552.382h7.699v3.152h-12.07v-1.348c0-0.945,0.174-1.809,0.521-2.59s0.826-1.51,1.436-2.186
			s1.555-1.467,2.836-2.373c1.172-0.875,1.992-1.65,2.461-2.326s0.703-1.393,0.703-2.15c0-1.633-0.891-2.449-2.672-2.449
			c-1.563,0-3.055,0.625-4.477,1.875v-3.375c1.586-1.023,3.367-1.535,5.344-1.535c1.813,0,3.246,0.463,4.301,1.389
			s1.582,2.201,1.582,3.826c0,0.906-0.152,1.725-0.457,2.455s-0.746,1.416-1.324,2.057s-1.504,1.41-2.777,2.309
			c-1.227,0.875-2.051,1.551-2.473,2.027S410.721,552.031,410.721,552.382z"/>
	</g>
	<g>
		<path fill="#192A82" d="M457.948,685.543c1.211,0.906,2.625,1.359,4.242,1.359c1.023,0,1.836-0.227,2.438-0.68
			s0.902-1.098,0.902-1.934c0-0.859-0.357-1.516-1.072-1.969s-1.717-0.68-3.006-0.68h-1.617v-2.918h1.488
			c2.438,0,3.656-0.82,3.656-2.461c0-1.547-0.934-2.32-2.801-2.32c-1.219,0-2.402,0.398-3.551,1.195v-3.129
			c1.25-0.648,2.723-0.973,4.418-0.973c1.719,0,3.113,0.396,4.184,1.189s1.605,1.893,1.605,3.299c0,2.375-1.203,3.867-3.609,4.477
			v0.059c1.266,0.141,2.277,0.604,3.035,1.389s1.137,1.74,1.137,2.865c0,1.727-0.631,3.074-1.893,4.043s-2.943,1.453-5.045,1.453
			c-1.867,0-3.371-0.309-4.512-0.926V685.543z"/>
	</g>
	<g>
		<path fill="#192A82" d="M417.038,807.382v11.531h2.566v2.754h-2.566v3.867h-3.445v-3.867h-8.109v-2.777
			c1.68-1.875,3.254-3.859,4.723-5.953s2.578-3.945,3.328-5.555H417.038z M408.834,818.914h4.758v-6.656
			c-0.375,0.703-0.912,1.555-1.611,2.555S410.233,817.179,408.834,818.914z"/>
	</g>
	<g>
		<path fill="#192A82" d="M273.124,886.066v-3.27c1.258,0.766,2.598,1.148,4.02,1.148c1.07,0,1.908-0.264,2.514-0.791
			s0.908-1.24,0.908-2.139c0-1.883-1.289-2.824-3.867-2.824c-0.953,0-2.051,0.07-3.293,0.211l0.68-10.02h9.609v3.117h-6.551
			l-0.258,3.82c0.648-0.055,1.246-0.082,1.793-0.082c1.773,0,3.174,0.484,4.201,1.453s1.541,2.281,1.541,3.938
			c0,1.828-0.621,3.322-1.863,4.482s-2.93,1.74-5.063,1.74C275.768,886.852,274.311,886.59,273.124,886.066z"/>
	</g>
	<g>
		<path fill="#192A82" d="M145.764,810.769c-0.922-0.523-1.926-0.785-3.012-0.785c-1.398,0-2.518,0.549-3.357,1.646
			s-1.26,2.518-1.26,4.26h0.07c0.867-1.328,2.152-1.992,3.855-1.992c1.523,0,2.732,0.521,3.627,1.564s1.342,2.4,1.342,4.072
			c0,1.828-0.582,3.338-1.746,4.529s-2.652,1.787-4.465,1.787c-2.078,0-3.67-0.75-4.775-2.25s-1.658-3.555-1.658-6.164
			c0-3.07,0.717-5.564,2.15-7.482s3.428-2.877,5.982-2.877c1.375,0,2.457,0.164,3.246,0.492V810.769z M138.264,819.57
			c0,0.938,0.234,1.734,0.703,2.391s1.086,0.984,1.852,0.984c0.773,0,1.383-0.301,1.828-0.902s0.668-1.355,0.668-2.262
			c0-2.039-0.84-3.059-2.52-3.059c-0.758,0-1.369,0.27-1.834,0.809S138.264,818.75,138.264,819.57z"/>
	</g>
	<g>
		<path fill="#192A82" d="M95.877,673.649c-1.469,2.633-2.564,4.754-3.287,6.363s-1.311,3.176-1.764,4.699s-0.801,3.117-1.043,4.781
			h-4.066c0.391-2.367,1.08-4.764,2.068-7.189s2.354-5.041,4.096-7.846h-8.66v-3.117h12.656V673.649z"/>
	</g>
	<g>
		<path fill="#192A82" d="M134.104,556.793c0-1.055,0.305-1.992,0.914-2.813s1.492-1.422,2.648-1.805
			c-0.922-0.461-1.635-1.047-2.139-1.758s-0.756-1.5-0.756-2.367c0-0.906,0.248-1.729,0.744-2.467s1.189-1.316,2.08-1.734
			s1.887-0.627,2.988-0.627c1.109,0,2.113,0.205,3.012,0.615s1.598,0.984,2.098,1.723s0.75,1.553,0.75,2.443
			c0,0.844-0.275,1.629-0.826,2.355s-1.291,1.301-2.221,1.723c1.133,0.391,2.016,0.994,2.648,1.811s0.949,1.771,0.949,2.865
			c0,1.539-0.598,2.793-1.793,3.762s-2.746,1.453-4.652,1.453s-3.457-0.484-4.652-1.453S134.104,558.309,134.104,556.793z
			 M137.889,556.453c0,0.844,0.242,1.52,0.727,2.027s1.133,0.762,1.945,0.762c0.781,0,1.422-0.254,1.922-0.762
			s0.75-1.184,0.75-2.027c0-0.789-0.254-1.447-0.762-1.975s-1.145-0.791-1.91-0.791c-0.789,0-1.432,0.264-1.928,0.791
			S137.889,555.664,137.889,556.453z M138.452,548.438c0,0.664,0.205,1.232,0.615,1.705s0.928,0.709,1.553,0.709
			c0.602,0,1.113-0.23,1.535-0.691s0.633-1.035,0.633-1.723s-0.205-1.27-0.615-1.746s-0.928-0.715-1.553-0.715
			c-0.641,0-1.162,0.238-1.564,0.715S138.452,547.75,138.452,548.438z"/>
	</g>
	
		<ellipse transform="matrix(0.9232 0.3843 -0.3843 0.9232 304.693 -86.4479)" fill="none" stroke="#E72119" stroke-width="4" stroke-linecap="round" stroke-miterlimit="10" cx="368.637" cy="719.109" rx="103.583" ry="211.482"/>
	
		<line fill="none" stroke="#E72119" stroke-width="6" stroke-linecap="round" stroke-miterlimit="10" stroke-dasharray="12" x1="278.148" y1="521.63" x2="164.437" y2="796.157"/>
</g>
<polygon fill="#BCBCBC" points="683.771,716.975 683.771,700.034 683.771,700.034 571.12,700.034 571.12,664.849 683.771,664.849 
	683.771,647.908 742.236,682.441 "/>
<polyline fill="none" stroke="#D9281C" stroke-width="4" stroke-linecap="round" stroke-linejoin="round" stroke-miterlimit="10" points="
	1093.605,836.202 1045.606,890.202 1021.606,863.202 "/>
<g>
	<defs>
		
			<ellipse id="SVGID_3_" transform="matrix(0.9232 0.3843 -0.3843 0.9232 344.0762 -299.5827)" cx="921.584" cy="711.076" rx="115.039" ry="234.872"/>
	</defs>
	<clipPath id="SVGID_4_">
		<use xlink:href="#SVGID_3_"  overflow="visible"/>
	</clipPath>
	<g clip-path="url(#SVGID_4_)">
		<path fill="none" stroke="#000000" stroke-width="7" stroke-linecap="round" stroke-linejoin="round" stroke-miterlimit="10" d="
			M999.684,670.353c0,98.635-79.963,178.598-178.596,178.598c-98.644,0-178.607-79.964-178.607-178.598
			c0-98.633,79.963-178.597,178.607-178.597C919.721,491.756,999.684,571.719,999.684,670.353z"/>
		<path stroke="#000000" stroke-width="5" stroke-miterlimit="10" d="M828.918,491.756c0,4.318-3.514,7.831-7.833,7.831
			c-4.327,0-7.831-3.513-7.831-7.831c0-4.329,3.503-7.831,7.831-7.831C825.404,483.926,828.918,487.427,828.918,491.756z"/>
		<path stroke="#000000" stroke-width="5" stroke-miterlimit="10" d="M650.312,670.353c0,4.329-3.503,7.831-7.831,7.831
			c-4.318,0-7.833-3.502-7.833-7.831s3.514-7.831,7.833-7.831C646.808,662.522,650.312,666.023,650.312,670.353z"/>
		<path stroke="#000000" stroke-width="5" stroke-miterlimit="10" d="M828.918,848.95c0,4.329-3.514,7.83-7.833,7.83
			c-4.327,0-7.831-3.501-7.831-7.83c0-4.319,3.503-7.831,7.831-7.831C825.404,841.119,828.918,844.631,828.918,848.95z"/>
		<path stroke="#000000" stroke-width="5" stroke-miterlimit="10" d="M1007.515,670.353c0,4.329-3.515,7.831-7.831,7.831
			c-4.329,0-7.83-3.502-7.83-7.831s3.501-7.831,7.83-7.831C1004,662.522,1007.515,666.023,1007.515,670.353z"/>
		<path stroke="#000000" stroke-width="5" stroke-miterlimit="10" d="M702.631,544.065c0,4.318-3.514,7.831-7.833,7.831
			c-4.328,0-7.831-3.513-7.831-7.831c0-4.329,3.503-7.831,7.831-7.831C699.117,536.236,702.631,539.736,702.631,544.065z"/>
		<path stroke="#000000" stroke-width="5" stroke-miterlimit="10" d="M702.631,796.641c0,4.329-3.514,7.831-7.833,7.831
			c-4.328,0-7.831-3.501-7.831-7.831s3.503-7.832,7.831-7.832C699.117,788.809,702.631,792.311,702.631,796.641z"/>
		<path stroke="#000000" stroke-width="5" stroke-miterlimit="10" d="M955.205,796.641c0,4.329-3.514,7.831-7.832,7.831
			c-4.328,0-7.83-3.501-7.83-7.831s3.502-7.832,7.83-7.832C951.691,788.809,955.205,792.311,955.205,796.641z"/>
		<path stroke="#000000" stroke-width="5" stroke-miterlimit="10" d="M955.205,544.065c0,4.318-3.514,7.831-7.832,7.831
			c-4.328,0-7.83-3.513-7.83-7.831c0-4.329,3.502-7.831,7.83-7.831C951.691,536.236,955.205,539.736,955.205,544.065z"/>
	</g>
	<g clip-path="url(#SVGID_4_)">
		<path fill="#192A82" d="M824.566,446.613v20.603h-4.23v-15.865c-0.521,0.451-1.232,0.857-2.134,1.217
			c-0.903,0.36-1.731,0.584-2.486,0.67v-3.605c2.377-0.694,4.434-1.701,6.169-3.02H824.566z"/>
	</g>
	<g clip-path="url(#SVGID_4_)">
		<path fill="#192A82" d="M968.323,525.908h8.551v3.501h-13.405v-1.497c0-1.05,0.193-2.009,0.579-2.876
			c0.387-0.868,0.918-1.677,1.595-2.427s1.727-1.629,3.149-2.635c1.302-0.972,2.213-1.833,2.733-2.583s0.78-1.547,0.78-2.388
			c0-1.813-0.988-2.72-2.967-2.72c-1.735,0-3.393,0.694-4.972,2.083v-3.749c1.761-1.137,3.739-1.705,5.935-1.705
			c2.013,0,3.605,0.514,4.776,1.542c1.172,1.028,1.757,2.445,1.757,4.25c0,1.006-0.169,1.915-0.507,2.727
			c-0.339,0.811-0.829,1.573-1.471,2.284c-0.643,0.712-1.671,1.566-3.085,2.564c-1.362,0.972-2.277,1.723-2.746,2.252
			S968.323,525.518,968.323,525.908z"/>
	</g>
	<g clip-path="url(#SVGID_4_)">
		<path fill="#192A82" d="M1020.773,673.797c1.345,1.007,2.915,1.51,4.711,1.51c1.137,0,2.039-0.251,2.707-0.755
			c0.668-0.503,1.002-1.219,1.002-2.147c0-0.954-0.396-1.683-1.19-2.186c-0.794-0.503-1.907-0.755-3.339-0.755h-1.795v-3.241h1.652
			c2.707,0,4.061-0.911,4.061-2.733c0-1.718-1.037-2.577-3.11-2.577c-1.354,0-2.669,0.442-3.944,1.327v-3.475
			c1.389-0.72,3.024-1.081,4.907-1.081c1.909,0,3.458,0.44,4.646,1.321c1.188,0.88,1.782,2.102,1.782,3.664
			c0,2.638-1.336,4.295-4.008,4.972v0.065c1.405,0.156,2.529,0.67,3.371,1.542s1.262,1.933,1.262,3.182
			c0,1.917-0.7,3.414-2.102,4.49c-1.401,1.076-3.27,1.614-5.604,1.614c-2.073,0-3.743-0.343-5.01-1.028V673.797z"/>
	</g>
	<g clip-path="url(#SVGID_4_)">
		<path fill="#192A82" d="M975.339,809.111v12.807h2.85v3.059h-2.85v4.295h-3.827v-4.295h-9.006v-3.085
			c1.865-2.082,3.613-4.286,5.245-6.611c1.631-2.325,2.863-4.382,3.696-6.169H975.339z M966.229,821.918h5.283v-7.392
			c-0.416,0.781-1.013,1.727-1.789,2.837C968.946,818.474,967.781,819.992,966.229,821.918z"/>
	</g>
	<g clip-path="url(#SVGID_4_)">
		<path fill="#192A82" d="M815.507,896.498v-3.631c1.397,0.85,2.885,1.275,4.464,1.275c1.188,0,2.119-0.293,2.792-0.879
			s1.009-1.377,1.009-2.375c0-2.091-1.432-3.137-4.295-3.137c-1.059,0-2.278,0.078-3.657,0.234l0.755-11.128h10.672v3.462h-7.275
			l-0.287,4.243c0.72-0.061,1.384-0.091,1.991-0.091c1.97,0,3.525,0.538,4.666,1.613c1.141,1.076,1.711,2.534,1.711,4.373
			c0,2.03-0.69,3.689-2.069,4.979c-1.379,1.288-3.254,1.933-5.623,1.933C818.444,897.37,816.826,897.079,815.507,896.498z"/>
	</g>
	<g clip-path="url(#SVGID_4_)">
		<path fill="#192A82" d="M674.062,812.873c-1.024-0.581-2.139-0.872-3.345-0.872c-1.553,0-2.796,0.609-3.729,1.829
			c-0.933,1.219-1.399,2.796-1.399,4.73h0.078c0.963-1.475,2.391-2.212,4.282-2.212c1.692,0,3.034,0.579,4.028,1.738
			c0.994,1.158,1.49,2.666,1.49,4.522c0,2.031-0.646,3.708-1.939,5.03c-1.293,1.323-2.946,1.985-4.959,1.985
			c-2.308,0-4.076-0.833-5.303-2.499c-1.228-1.666-1.842-3.948-1.842-6.846c0-3.41,0.796-6.18,2.388-8.31
			c1.592-2.13,3.807-3.195,6.644-3.195c1.527,0,2.729,0.182,3.605,0.547V812.873z M665.732,822.646c0,1.042,0.26,1.927,0.781,2.655
			c0.521,0.729,1.206,1.094,2.056,1.094c0.859,0,1.536-0.334,2.03-1.003c0.495-0.668,0.742-1.505,0.742-2.512
			c0-2.264-0.933-3.396-2.798-3.396c-0.842,0-1.521,0.299-2.037,0.898C665.99,820.981,665.732,821.736,665.732,822.646z"/>
	</g>
	<g clip-path="url(#SVGID_4_)">
		<path fill="#192A82" d="M618.658,660.587c-1.631,2.924-2.849,5.28-3.651,7.067c-0.803,1.787-1.456,3.527-1.958,5.219
			c-0.503,1.692-0.89,3.462-1.159,5.31h-4.516c0.434-2.629,1.2-5.291,2.297-7.984c1.097-2.694,2.614-5.599,4.548-8.714h-9.618
			v-3.462h14.056V660.587z"/>
	</g>
	<g clip-path="url(#SVGID_4_)">
		<path fill="#192A82" d="M661.112,530.807c0-1.171,0.338-2.212,1.015-3.124s1.657-1.579,2.941-2.004
			c-1.024-0.512-1.815-1.163-2.375-1.952s-0.839-1.666-0.839-2.629c0-1.006,0.275-1.92,0.826-2.74
			c0.551-0.82,1.321-1.462,2.31-1.926c0.989-0.464,2.096-0.696,3.319-0.696c1.232,0,2.347,0.228,3.345,0.684
			c0.998,0.456,1.774,1.093,2.33,1.913s0.833,1.725,0.833,2.713c0,0.937-0.306,1.809-0.917,2.616
			c-0.612,0.807-1.434,1.444-2.466,1.913c1.258,0.434,2.239,1.104,2.941,2.011c0.703,0.907,1.054,1.968,1.054,3.182
			c0,1.709-0.664,3.102-1.991,4.178c-1.328,1.076-3.05,1.614-5.167,1.614s-3.839-0.538-5.167-1.614
			C661.776,533.87,661.112,532.49,661.112,530.807z M665.316,530.429c0,0.937,0.269,1.688,0.807,2.251
			c0.538,0.564,1.258,0.846,2.161,0.846c0.868,0,1.579-0.282,2.134-0.846c0.555-0.564,0.833-1.314,0.833-2.251
			c0-0.876-0.282-1.607-0.846-2.193c-0.564-0.586-1.271-0.878-2.122-0.878c-0.876,0-1.59,0.292-2.141,0.878
			C665.591,528.822,665.316,529.553,665.316,530.429z M665.94,521.527c0,0.737,0.228,1.369,0.683,1.894
			c0.456,0.525,1.03,0.787,1.725,0.787c0.668,0,1.236-0.256,1.705-0.768c0.468-0.512,0.703-1.15,0.703-1.913
			c0-0.764-0.228-1.41-0.683-1.939s-1.03-0.794-1.725-0.794c-0.711,0-1.291,0.265-1.737,0.794
			C666.164,520.117,665.94,520.764,665.94,521.527z"/>
	</g>
	
		<line clip-path="url(#SVGID_4_)" fill="none" stroke="#E72119" stroke-width="6" stroke-linecap="round" stroke-miterlimit="10" stroke-dasharray="12" x1="821.088" y1="491.756" x2="694.799" y2="796.646"/>
</g>
</svg>
