<?xml version="1.0" encoding="utf-8"?>
<!-- Generator: Adobe Illustrator 16.0.0, SVG Export Plug-In . SVG Version: 6.00 Build 0)  -->
<!DOCTYPE svg PUBLIC "-//W3C//DTD SVG 1.1//EN" "http://www.w3.org/Graphics/SVG/1.1/DTD/svg11.dtd">
<svg version="1.1" id="图层_1" xmlns="http://www.w3.org/2000/svg" xmlns:xlink="http://www.w3.org/1999/xlink" x="0px" y="0px"
	 width="848.5px" height="500px" viewBox="0 0 848.5 500" enable-background="new 0 0 848.5 500" xml:space="preserve">
<rect fill="#FFFFFF" width="848.5" height="500"/>
<g transform="translate(20,0)">
	<g>
		<g>
			<line fill="none" stroke="#797979" x1="190" y1="88.235" x2="370" y2="58.824"/>
			<text transform="matrix(0.9869 -0.1613 0.1613 0.9869 255.6519 72.5073)" font-family="'ArialMT'" font-size="12">fzzfzzzz$</text>
		</g>
		<g>
			<line fill="none" stroke="#797979" x1="370" y1="235.294" x2="550" y2="205.882"/>
			<text transform="matrix(0.9869 -0.1613 0.1613 0.9869 443.2188 218.3306)" font-family="'ArialMT'" font-size="12">fzzzz$</text>
		</g>
		<g>
			<line fill="none" stroke="#797979" x1="370" y1="117.647" x2="550" y2="88.235"/>
			<text transform="matrix(0.9869 -0.1613 0.1613 0.9869 443.2188 100.6831)" font-family="'ArialMT'" font-size="12">fzzzz$</text>
		</g>
		<g>
			<line fill="none" stroke="#797979" x1="10" y1="154.412" x2="190" y2="88.235"/>
			<text transform="matrix(0.9386 -0.3451 0.3451 0.9386 95.6196 117.9341)" font-family="'ArialMT'" font-size="12">fz</text>
		</g>
		<g>
			<line fill="none" stroke="#797979" x1="370" y1="382.354" x2="550" y2="382.354"/>
			<text transform="matrix(1 0 0 1 442.9961 377.3525)" font-family="'ArialMT'" font-size="12">fzzzz$</text>
		</g>
		<g>
			<line fill="none" stroke="#797979" x1="10" y1="154.412" x2="190" y2="279.412"/>
			<text transform="matrix(0.8214 0.5704 -0.5704 0.8214 97.5356 210.2002)" font-family="'ArialMT'" font-size="12">z</text>
		</g>
		<g>
			<line fill="none" stroke="#797979" x1="370" y1="235.294" x2="550" y2="264.706"/>
			<text transform="matrix(0.9869 0.1613 -0.1613 0.9869 450.7852 243.4937)" font-family="'ArialMT'" font-size="12">zz$</text>
		</g>
		<g>
			<line fill="none" stroke="#797979" x1="190" y1="279.412" x2="370" y2="235.294"/>
			<text transform="matrix(0.9713 -0.2381 0.2381 0.9713 272.5537 254.1787)" font-family="'ArialMT'" font-size="12">fzz</text>
		</g>
		<g>
			<line fill="none" stroke="#797979" x1="370" y1="117.647" x2="550" y2="147.059"/>
			<text transform="matrix(0.9869 0.1613 -0.1613 0.9869 450.7852 125.8472)" font-family="'ArialMT'" font-size="12">zz$</text>
		</g>
		<g>
			<line fill="none" stroke="#797979" x1="190" y1="88.235" x2="370" y2="117.647"/>
			<text transform="matrix(0.9869 0.1613 -0.1613 0.9869 277.0391 97.4575)" font-family="'ArialMT'" font-size="12">z</text>
		</g>
		<g>
			<line fill="none" stroke="#797979" x1="550" y1="441.177" x2="730" y2="470.588"/>
			<text transform="matrix(0.9869 0.1613 -0.1613 0.9869 633.7461 449.8604)" font-family="'ArialMT'" font-size="12">z$</text>
		</g>
		<g>
			<line fill="none" stroke="#797979" x1="190" y1="279.412" x2="370" y2="382.354"/>
			<text transform="matrix(0.8681 0.4964 -0.4964 0.8681 277.396 324.3926)" font-family="'ArialMT'" font-size="12">z</text>
		</g>
		<g>
			<line fill="none" stroke="#797979" x1="550" y1="441.177" x2="730" y2="411.765"/>
			<text transform="matrix(0.9869 -0.1613 0.1613 0.9869 636.707 422.0088)" font-family="'ArialMT'" font-size="12">$</text>
		</g>
		<g>
			<line fill="none" stroke="#797979" x1="370" y1="382.354" x2="550" y2="441.177"/>
			<text transform="matrix(0.9505 0.3106 -0.3106 0.9505 457.1484 405.833)" font-family="'ArialMT'" font-size="12">z</text>
		</g>
		<g>
			<line fill="none" stroke="#797979" x1="370" y1="382.354" x2="550" y2="323.529"/>
			<text transform="matrix(0.9505 -0.3106 0.3106 0.9505 456.8276 348.9775)" font-family="'ArialMT'" font-size="12">$</text>
		</g>
		<g>
			<line fill="none" stroke="#797979" x1="190" y1="279.412" x2="370" y2="176.471"/>
			<text transform="matrix(0.8681 -0.4964 0.4964 0.8681 277.1035 224.5977)" font-family="'ArialMT'" font-size="12">$</text>
		</g>
		<g>
			<line fill="none" stroke="#797979" x1="10" y1="154.412" x2="190" y2="29.412"/>
			<text transform="matrix(0.8214 -0.5704 0.5704 0.8214 97.2588 88.8149)" font-family="'ArialMT'" font-size="12">$</text>
		</g>
	</g>
	<g>
		<g transform="translate(0,154.41175842285156)">
			<circle fill="#B0C4DE" stroke="#4682B4" cx="10" cy="0" r="15"/>
			
				<text transform="matrix(1 0 0 1 6.6631 4.0004)" opacity="0.7" enable-background="new    " font-family="'ArialMT'" font-size="12">0</text>
		</g>
		<g transform="translate(360,58.82352828979492)">
			<circle fill="#B0C4DE" stroke="#4682B4" cx="10" cy="0" r="15"/>
			
				<text transform="matrix(1 0 0 1 6.6631 3.9997)" opacity="0.7" enable-background="new    " font-family="'ArialMT'" font-size="12">1</text>
		</g>
		<g transform="translate(540,205.88235473632812)">
			<circle fill="#B0C4DE" stroke="#4682B4" cx="10" cy="0" r="15"/>
			
				<text transform="matrix(1 0 0 1 6.6631 3.9995)" opacity="0.7" enable-background="new    " font-family="'ArialMT'" font-size="12">2</text>
		</g>
		<g transform="translate(540,88.23529052734375)">
			<circle fill="#B0C4DE" stroke="#4682B4" cx="10" cy="0" r="15"/>
			
				<text transform="matrix(1 0 0 1 6.6631 4.0001)" opacity="0.7" enable-background="new    " font-family="'ArialMT'" font-size="12">4</text>
		</g>
		<g transform="translate(180,88.23529052734375)">
			<circle fill="#B0C4DE" stroke="#4682B4" cx="10" cy="0" r="15"/>
			
				<text transform="matrix(1 0 0 1 6.6631 4.0001)" opacity="0.7" enable-background="new    " font-family="'ArialMT'" font-size="12">3</text>
		</g>
		<g transform="translate(540,382.3529357910156)">
			<circle fill="#B0C4DE" stroke="#4682B4" cx="10" cy="0.001" r="15"/>
			
				<text transform="matrix(1 0 0 1 6.6631 3.9996)" opacity="0.7" enable-background="new    " font-family="'ArialMT'" font-size="12">6</text>
		</g>
		<g transform="translate(180,279.4117736816406)">
			<circle fill="#B0C4DE" stroke="#4682B4" cx="10" cy="0" r="15"/>
			
				<text transform="matrix(1 0 0 1 6.6631 4.0004)" opacity="0.7" enable-background="new    " font-family="'ArialMT'" font-size="12">5</text>
		</g>
		<g transform="translate(540,264.70587158203125)">
			<circle fill="#B0C4DE" stroke="#4682B4" cx="10" cy="0" r="15"/>
			
				<text transform="matrix(1 0 0 1 6.6631 4.0002)" opacity="0.7" enable-background="new    " font-family="'ArialMT'" font-size="12">8</text>
		</g>
		<g transform="translate(360,235.2941131591797)">
			<circle fill="#B0C4DE" stroke="#4682B4" cx="10" cy="0" r="15"/>
			
				<text transform="matrix(1 0 0 1 6.6631 3.9998)" opacity="0.7" enable-background="new    " font-family="'ArialMT'" font-size="12">7</text>
		</g>
		<g transform="translate(540,147.05882263183594)">
			<circle fill="#B0C4DE" stroke="#4682B4" cx="10" cy="0" r="15"/>
			
				<text transform="matrix(1 0 0 1 3.3262 3.9998)" opacity="0.7" enable-background="new    " font-family="'ArialMT'" font-size="12">10</text>
		</g>
		<g transform="translate(360,117.64705657958984)">
			<circle fill="#B0C4DE" stroke="#4682B4" cx="10" cy="0" r="15"/>
			
				<text transform="matrix(1 0 0 1 6.6631 4.0004)" opacity="0.7" enable-background="new    " font-family="'ArialMT'" font-size="12">9</text>
		</g>
		<g transform="translate(720,470.5882263183594)">
			<circle fill="#B0C4DE" stroke="#4682B4" cx="10" cy="0" r="15"/>
			
				<text transform="matrix(1 0 0 1 3.3262 3.9997)" opacity="0.7" enable-background="new    " font-family="'ArialMT'" font-size="12">12</text>
		</g>
		<g transform="translate(360,382.3529357910156)">
			<circle fill="#B0C4DE" stroke="#4682B4" cx="10" cy="0.001" r="15"/>
			
				<text transform="matrix(1 0 0 1 3.7715 3.9996)" opacity="0.7" enable-background="new    " font-family="'ArialMT'" font-size="12">11</text>
		</g>
		<g transform="translate(720,411.76470947265625)">
			<circle fill="#B0C4DE" stroke="#4682B4" cx="10" cy="0" r="15"/>
			
				<text transform="matrix(1 0 0 1 3.3262 3.9999)" opacity="0.7" enable-background="new    " font-family="'ArialMT'" font-size="12">14</text>
		</g>
		<g transform="translate(540,441.1764831542969)">
			<circle fill="#B0C4DE" stroke="#4682B4" cx="10" cy="0" r="15"/>
			
				<text transform="matrix(1 0 0 1 3.3262 4.0003)" opacity="0.7" enable-background="new    " font-family="'ArialMT'" font-size="12">13</text>
		</g>
		<g transform="translate(540,323.5294189453125)">
			<circle fill="#B0C4DE" stroke="#4682B4" cx="10" cy="0" r="15"/>
			
				<text transform="matrix(1 0 0 1 3.3262 3.9999)" opacity="0.7" enable-background="new    " font-family="'ArialMT'" font-size="12">15</text>
		</g>
		<g transform="translate(360,176.4705810546875)">
			<circle fill="#B0C4DE" stroke="#4682B4" cx="10" cy="0" r="15"/>
			
				<text transform="matrix(1 0 0 1 3.3262 4.0001)" opacity="0.7" enable-background="new    " font-family="'ArialMT'" font-size="12">16</text>
		</g>
		<g transform="translate(180,29.41176414489746)">
			<circle fill="#B0C4DE" stroke="#4682B4" cx="10" cy="0" r="15"/>
			
				<text transform="matrix(1 0 0 1 3.3262 4.0004)" opacity="0.7" enable-background="new    " font-family="'ArialMT'" font-size="12">17</text>
		</g>
	</g>
</g>
<text transform="matrix(1 0 0 1 412.5 62.8232)" fill="#FF0000" font-family="'Ubuntu'" font-size="14">SA[1]=1</text>
<text transform="matrix(1 0 0 1 592.833 92.2354)" fill="#FF0000" font-family="'Ubuntu'" font-size="14">SA[2]=3</text>
<text transform="matrix(1 0 0 1 592.833 151.0586)" fill="#FF0000" font-family="'Ubuntu'" font-size="14">SA[3]=6</text>
<text transform="matrix(1 0 0 1 592.833 209.8818)" fill="#FF0000" font-family="'Ubuntu'" font-size="14">SA[5]=2</text>
<text transform="matrix(1 0 0 1 592.833 268.7061)" fill="#FF0000" font-family="'Ubuntu'" font-size="14">SA[6]=5</text>
<text transform="matrix(1 0 0 1 592.833 327.5293)" fill="#FF0000" font-family="'Ubuntu'" font-size="14">SA[7]=9</text>
<text transform="matrix(1 0 0 1 592.833 386.3516)" fill="#FF0000" font-family="'Ubuntu'" font-size="14">SA[8]=4</text>
<text transform="matrix(1 0 0 1 772.833 415.7637)" fill="#FF0000" font-family="'Ubuntu'" font-size="14">SA[9]=8</text>
<text transform="matrix(1 0 0 1 772.833 474.5879)" fill="#FF0000" font-family="'Ubuntu'" font-size="14">SA[10]=7</text>
<text transform="matrix(1 0 0 1 412.5 180.4712)" fill="#FF0000" font-family="'Ubuntu'" font-size="14">SA[4]=10</text>
</svg>
