<?xml version="1.0" encoding="utf-8"?>
<!-- Generator: Adobe Illustrator 16.0.0, SVG Export Plug-In . SVG Version: 6.00 Build 0)  -->
<!DOCTYPE svg PUBLIC "-//W3C//DTD SVG 1.1//EN" "http://www.w3.org/Graphics/SVG/1.1/DTD/svg11.dtd">
<svg version="1.1" id="图层_1" xmlns="http://www.w3.org/2000/svg" xmlns:xlink="http://www.w3.org/1999/xlink" x="0px" y="0px"
	 width="256px" height="260px" viewBox="0 0 256 260" enable-background="new 0 0 256 260" xml:space="preserve">
<g id="graph1" transform="scale(1 1) rotate(0) translate(4 256)">
	<title>G</title>
	<polygon fill="#FFFFFF" stroke="#FFFFFF" points="-4,5 -4,-256 253,-256 253,5 	"/>
	<g id="node1">
		<title>0</title>
		<ellipse fill="none" stroke="#000000" stroke-width="2" cx="18" cy="-126" rx="18" ry="18"/>
	</g>
	<g id="node3">
		<title>1</title>
		<ellipse fill="none" stroke="#000000" stroke-width="2" cx="230" cy="-234" rx="18" ry="18"/>
	</g>
	<g id="edge2">
		<title>0-&gt;1</title>
		<path fill="none" stroke="#000000" stroke-width="2" d="M34.442-133.941c36.104-18.569,126.285-64.947,170.013-87.436"/>
		<polygon stroke="#000000" points="213.536,-226.047 202.585,-225.475 208.859,-224.205 204.414,-221.918 204.643,-221.473 
			204.871,-221.029 209.318,-223.315 206.701,-217.472 213.536,-226.047 		"/>
		<g enable-background="new    ">
			<path fill="#0000FF" d="M95.931-207.16c0.747,0,1.376,0.097,1.89,0.29c0.513,0.193,0.926,0.467,1.24,0.82s0.537,0.773,0.67,1.26
				c0.133,0.487,0.2,1.023,0.2,1.61v6.5c-0.16,0.026-0.383,0.063-0.67,0.109c-0.287,0.047-0.61,0.09-0.97,0.13
				c-0.36,0.04-0.75,0.077-1.17,0.11s-0.837,0.05-1.25,0.05c-0.587,0-1.127-0.06-1.62-0.18s-0.92-0.31-1.28-0.57
				c-0.36-0.26-0.64-0.603-0.84-1.029c-0.2-0.427-0.3-0.94-0.3-1.54c0-0.573,0.117-1.067,0.35-1.48s0.55-0.746,0.95-1
				c0.4-0.253,0.866-0.439,1.4-0.56c0.533-0.12,1.093-0.181,1.68-0.181c0.187,0,0.38,0.011,0.58,0.03
				c0.2,0.021,0.39,0.047,0.57,0.08c0.18,0.033,0.336,0.063,0.47,0.09c0.133,0.027,0.227,0.047,0.28,0.061v-0.521
				c0-0.307-0.034-0.61-0.1-0.91c-0.067-0.3-0.187-0.566-0.36-0.8c-0.174-0.233-0.41-0.42-0.71-0.56c-0.3-0.141-0.69-0.21-1.17-0.21
				c-0.613,0-1.15,0.043-1.61,0.13s-0.803,0.177-1.03,0.27l-0.22-1.54c0.24-0.106,0.64-0.21,1.2-0.31
				C94.671-207.11,95.277-207.16,95.931-207.16z M96.091-197.84c0.44,0,0.83-0.01,1.17-0.03c0.34-0.02,0.623-0.057,0.85-0.11v-3.1
				c-0.134-0.066-0.35-0.123-0.65-0.17c-0.3-0.047-0.664-0.07-1.09-0.07c-0.28,0-0.577,0.021-0.89,0.061
				c-0.313,0.04-0.6,0.123-0.86,0.25c-0.26,0.127-0.477,0.3-0.65,0.52c-0.173,0.221-0.26,0.51-0.26,0.87
				c0,0.667,0.213,1.13,0.64,1.39C94.777-197.97,95.357-197.84,96.091-197.84z"/>
			<path fill="#0000FF" d="M103.011-206.6c0.426-0.107,0.993-0.221,1.7-0.341c0.707-0.119,1.52-0.18,2.44-0.18
				c0.826,0,1.513,0.117,2.06,0.351s0.983,0.56,1.31,0.979s0.557,0.924,0.69,1.51c0.133,0.587,0.2,1.233,0.2,1.94v5.84h-1.86v-5.44
				c0-0.64-0.043-1.187-0.13-1.64c-0.086-0.453-0.23-0.82-0.43-1.1c-0.2-0.28-0.467-0.483-0.8-0.61
				c-0.333-0.127-0.747-0.19-1.24-0.19c-0.2,0-0.407,0.008-0.62,0.021c-0.213,0.014-0.417,0.03-0.61,0.05
				c-0.193,0.021-0.367,0.044-0.52,0.07s-0.264,0.047-0.33,0.06v8.78h-1.86V-206.6z"/>
			<path fill="#0000FF" d="M117.85-207.16c0.747,0,1.376,0.097,1.89,0.29c0.513,0.193,0.926,0.467,1.24,0.82s0.537,0.773,0.67,1.26
				c0.133,0.487,0.2,1.023,0.2,1.61v6.5c-0.16,0.026-0.383,0.063-0.67,0.109c-0.287,0.047-0.61,0.09-0.97,0.13
				c-0.36,0.04-0.75,0.077-1.17,0.11s-0.837,0.05-1.25,0.05c-0.587,0-1.127-0.06-1.62-0.18s-0.92-0.31-1.28-0.57
				c-0.36-0.26-0.64-0.603-0.84-1.029c-0.2-0.427-0.3-0.94-0.3-1.54c0-0.573,0.117-1.067,0.35-1.48s0.55-0.746,0.95-1
				c0.4-0.253,0.866-0.439,1.4-0.56c0.533-0.12,1.093-0.181,1.68-0.181c0.187,0,0.38,0.011,0.58,0.03
				c0.2,0.021,0.39,0.047,0.57,0.08c0.18,0.033,0.336,0.063,0.47,0.09c0.133,0.027,0.227,0.047,0.28,0.061v-0.521
				c0-0.307-0.034-0.61-0.1-0.91c-0.067-0.3-0.187-0.566-0.36-0.8c-0.174-0.233-0.41-0.42-0.71-0.56c-0.3-0.141-0.69-0.21-1.17-0.21
				c-0.613,0-1.15,0.043-1.61,0.13s-0.803,0.177-1.03,0.27l-0.22-1.54c0.24-0.106,0.64-0.21,1.2-0.31
				C116.59-207.11,117.197-207.16,117.85-207.16z M118.01-197.84c0.44,0,0.83-0.01,1.17-0.03c0.34-0.02,0.623-0.057,0.85-0.11v-3.1
				c-0.134-0.066-0.35-0.123-0.65-0.17c-0.3-0.047-0.664-0.07-1.09-0.07c-0.28,0-0.577,0.021-0.89,0.061
				c-0.313,0.04-0.6,0.123-0.86,0.25c-0.26,0.127-0.477,0.3-0.65,0.52c-0.173,0.221-0.26,0.51-0.26,0.87
				c0,0.667,0.213,1.13,0.64,1.39C116.697-197.97,117.277-197.84,118.01-197.84z"/>
			<path fill="#0000FF" d="M124.93-206.6c0.427-0.107,0.994-0.221,1.7-0.341c0.706-0.119,1.521-0.18,2.44-0.18
				c0.826,0,1.513,0.117,2.06,0.351s0.983,0.56,1.31,0.979c0.327,0.42,0.557,0.924,0.69,1.51c0.134,0.587,0.2,1.233,0.2,1.94v5.84
				h-1.859v-5.44c0-0.64-0.044-1.187-0.131-1.64c-0.086-0.453-0.23-0.82-0.43-1.1c-0.2-0.28-0.467-0.483-0.801-0.61
				c-0.332-0.127-0.746-0.19-1.239-0.19c-0.2,0-0.407,0.008-0.62,0.021c-0.213,0.014-0.417,0.03-0.609,0.05
				c-0.193,0.021-0.367,0.044-0.521,0.07s-0.264,0.047-0.33,0.06v8.78h-1.86V-206.6z"/>
			<path fill="#0000FF" d="M139.77-207.16c0.746,0,1.377,0.097,1.891,0.29c0.513,0.193,0.926,0.467,1.239,0.82
				s0.536,0.773,0.67,1.26c0.134,0.487,0.2,1.023,0.2,1.61v6.5c-0.16,0.026-0.383,0.063-0.67,0.109
				c-0.287,0.047-0.609,0.09-0.971,0.13c-0.359,0.04-0.75,0.077-1.17,0.11s-0.836,0.05-1.25,0.05c-0.586,0-1.127-0.06-1.619-0.18
				c-0.494-0.12-0.92-0.31-1.28-0.57c-0.36-0.26-0.64-0.603-0.84-1.029s-0.3-0.94-0.3-1.54c0-0.573,0.116-1.067,0.35-1.48
				s0.55-0.746,0.95-1c0.399-0.253,0.866-0.439,1.399-0.56s1.094-0.181,1.681-0.181c0.187,0,0.38,0.011,0.579,0.03
				c0.201,0.021,0.391,0.047,0.57,0.08s0.337,0.063,0.471,0.09c0.133,0.027,0.227,0.047,0.279,0.061v-0.521
				c0-0.307-0.033-0.61-0.1-0.91s-0.188-0.566-0.359-0.8c-0.174-0.233-0.41-0.42-0.711-0.56c-0.3-0.141-0.689-0.21-1.17-0.21
				c-0.613,0-1.15,0.043-1.609,0.13c-0.461,0.087-0.804,0.177-1.03,0.27l-0.22-1.54c0.24-0.106,0.64-0.21,1.199-0.31
				C138.51-207.11,139.116-207.16,139.77-207.16z M139.93-197.84c0.439,0,0.83-0.01,1.17-0.03c0.34-0.02,0.623-0.057,0.85-0.11v-3.1
				c-0.133-0.066-0.35-0.123-0.649-0.17s-0.663-0.07-1.091-0.07c-0.279,0-0.576,0.021-0.89,0.061s-0.6,0.123-0.86,0.25
				c-0.26,0.127-0.477,0.3-0.649,0.52c-0.173,0.221-0.26,0.51-0.26,0.87c0,0.667,0.213,1.13,0.64,1.39
				C138.616-197.97,139.196-197.84,139.93-197.84z"/>
		</g>
	</g>
	<g id="node5">
		<title>2</title>
		<ellipse fill="none" stroke="#000000" stroke-width="2" cx="230" cy="-126" rx="18" ry="18"/>
	</g>
	<g id="edge4">
		<title>0-&gt;2</title>
		<path fill="none" stroke="#000000" stroke-width="2" d="M36.205-124.759C50.577-123.788,71.612-122.518,90-122
			c30.21,0.85,37.79,0.85,68,0c14.366-0.404,30.348-1.268,43.505-2.09"/>
		<polygon stroke="#000000" points="211.795,-124.759 201.523,-128.6 206.773,-124.934 201.784,-124.609 201.816,-124.109 
			201.85,-123.611 206.838,-123.936 202.107,-119.619 211.795,-124.759 		"/>
		<g enable-background="new    ">
			<path fill="#0000FF" d="M94.431-137.94c0.227-0.146,0.57-0.3,1.03-0.46c0.46-0.159,0.99-0.239,1.59-0.239
				c0.747,0,1.41,0.133,1.99,0.399c0.58,0.268,1.07,0.641,1.47,1.12c0.4,0.48,0.703,1.054,0.91,1.72c0.207,0.667,0.31,1.4,0.31,2.2
				c0,0.84-0.123,1.597-0.37,2.271c-0.247,0.673-0.597,1.243-1.05,1.71s-1,0.826-1.64,1.08c-0.64,0.253-1.36,0.38-2.16,0.38
				c-0.867,0-1.633-0.061-2.3-0.181c-0.667-0.119-1.214-0.239-1.64-0.359v-14.9l1.86-0.319V-137.94z M94.431-129.62
				c0.187,0.054,0.45,0.104,0.79,0.15s0.763,0.069,1.27,0.069c1,0,1.8-0.33,2.4-0.989c0.6-0.66,0.9-1.597,0.9-2.811
				c0-0.533-0.053-1.033-0.16-1.5c-0.107-0.467-0.28-0.87-0.52-1.21c-0.24-0.34-0.55-0.606-0.93-0.8s-0.837-0.29-1.37-0.29
				c-0.507,0-0.973,0.087-1.4,0.26c-0.427,0.174-0.753,0.354-0.98,0.54V-129.62z"/>
			<path fill="#0000FF" d="M107.71-138.66c0.747,0,1.376,0.097,1.89,0.29c0.513,0.193,0.926,0.467,1.24,0.82s0.537,0.773,0.67,1.26
				c0.133,0.487,0.2,1.023,0.2,1.61v6.5c-0.16,0.026-0.383,0.063-0.67,0.109c-0.287,0.047-0.61,0.09-0.97,0.13
				c-0.36,0.04-0.75,0.077-1.17,0.11s-0.837,0.05-1.25,0.05c-0.587,0-1.127-0.06-1.62-0.18s-0.92-0.31-1.28-0.57
				c-0.36-0.26-0.64-0.603-0.84-1.029c-0.2-0.427-0.3-0.94-0.3-1.54c0-0.573,0.117-1.067,0.35-1.48s0.55-0.746,0.95-1
				c0.4-0.253,0.866-0.439,1.4-0.56c0.533-0.12,1.093-0.181,1.68-0.181c0.187,0,0.38,0.011,0.58,0.03
				c0.2,0.021,0.39,0.047,0.57,0.08c0.18,0.033,0.336,0.063,0.47,0.09c0.133,0.027,0.227,0.047,0.28,0.061v-0.521
				c0-0.307-0.034-0.61-0.1-0.91c-0.067-0.3-0.187-0.566-0.36-0.8c-0.174-0.233-0.41-0.42-0.71-0.56c-0.3-0.141-0.69-0.21-1.17-0.21
				c-0.613,0-1.15,0.043-1.61,0.13s-0.803,0.177-1.03,0.27l-0.22-1.54c0.24-0.106,0.64-0.21,1.2-0.31
				C106.451-138.61,107.057-138.66,107.71-138.66z M107.871-129.34c0.44,0,0.83-0.01,1.17-0.03c0.34-0.02,0.623-0.057,0.85-0.11
				v-3.1c-0.134-0.066-0.35-0.123-0.65-0.17c-0.3-0.047-0.664-0.07-1.09-0.07c-0.28,0-0.577,0.021-0.89,0.061
				c-0.313,0.04-0.6,0.123-0.86,0.25c-0.26,0.127-0.477,0.3-0.65,0.52c-0.173,0.221-0.26,0.51-0.26,0.87
				c0,0.667,0.213,1.13,0.64,1.39C106.557-129.47,107.137-129.34,107.871-129.34z"/>
			<path fill="#0000FF" d="M114.791-138.1c0.426-0.107,0.993-0.221,1.7-0.341c0.707-0.119,1.52-0.18,2.44-0.18
				c0.826,0,1.513,0.117,2.06,0.351s0.983,0.56,1.31,0.979s0.557,0.924,0.69,1.51c0.133,0.587,0.2,1.233,0.2,1.94v5.84h-1.86v-5.44
				c0-0.64-0.043-1.187-0.13-1.64c-0.086-0.453-0.23-0.82-0.43-1.1c-0.2-0.28-0.467-0.483-0.8-0.61
				c-0.333-0.127-0.747-0.19-1.24-0.19c-0.2,0-0.407,0.008-0.62,0.021c-0.213,0.014-0.417,0.03-0.61,0.05
				c-0.193,0.021-0.367,0.044-0.52,0.07s-0.264,0.047-0.33,0.06v8.78h-1.86V-138.1z"/>
			<path fill="#0000FF" d="M129.63-138.66c0.747,0,1.376,0.097,1.89,0.29s0.927,0.467,1.24,0.82s0.537,0.773,0.67,1.26
				c0.133,0.487,0.2,1.023,0.2,1.61v6.5c-0.16,0.026-0.384,0.063-0.67,0.109c-0.287,0.047-0.61,0.09-0.97,0.13
				c-0.36,0.04-0.75,0.077-1.17,0.11s-0.838,0.05-1.25,0.05c-0.588,0-1.127-0.06-1.621-0.18c-0.492-0.12-0.92-0.31-1.279-0.57
				c-0.359-0.26-0.641-0.603-0.84-1.029c-0.2-0.427-0.301-0.94-0.301-1.54c0-0.573,0.117-1.067,0.351-1.48s0.55-0.746,0.95-1
				c0.4-0.253,0.866-0.439,1.4-0.56c0.533-0.12,1.093-0.181,1.68-0.181c0.187,0,0.38,0.011,0.58,0.03
				c0.199,0.021,0.39,0.047,0.57,0.08c0.18,0.033,0.336,0.063,0.469,0.09c0.134,0.027,0.227,0.047,0.281,0.061v-0.521
				c0-0.307-0.034-0.61-0.101-0.91c-0.067-0.3-0.187-0.566-0.36-0.8s-0.41-0.42-0.709-0.56c-0.301-0.141-0.691-0.21-1.171-0.21
				c-0.613,0-1.149,0.043-1.61,0.13c-0.459,0.087-0.803,0.177-1.029,0.27l-0.221-1.54c0.24-0.106,0.641-0.21,1.201-0.31
				C128.37-138.61,128.977-138.66,129.63-138.66z M129.79-129.34c0.44,0,0.83-0.01,1.17-0.03c0.34-0.02,0.623-0.057,0.851-0.11v-3.1
				c-0.135-0.066-0.351-0.123-0.65-0.17c-0.301-0.047-0.664-0.07-1.09-0.07c-0.28,0-0.577,0.021-0.891,0.061
				c-0.313,0.04-0.6,0.123-0.859,0.25s-0.477,0.3-0.65,0.52c-0.174,0.221-0.26,0.51-0.26,0.87c0,0.667,0.213,1.13,0.64,1.39
				C128.477-129.47,129.057-129.34,129.79-129.34z"/>
			<path fill="#0000FF" d="M136.71-138.1c0.427-0.107,0.993-0.221,1.7-0.341c0.706-0.119,1.52-0.18,2.439-0.18
				c0.826,0,1.514,0.117,2.061,0.351s0.982,0.56,1.31,0.979s0.557,0.924,0.69,1.51c0.133,0.587,0.199,1.233,0.199,1.94v5.84h-1.859
				v-5.44c0-0.64-0.043-1.187-0.131-1.64c-0.086-0.453-0.229-0.82-0.43-1.1c-0.199-0.28-0.467-0.483-0.8-0.61
				s-0.747-0.19-1.239-0.19c-0.201,0-0.407,0.008-0.621,0.021c-0.213,0.014-0.416,0.03-0.609,0.05
				c-0.193,0.021-0.367,0.044-0.52,0.07c-0.154,0.026-0.264,0.047-0.33,0.06v8.78h-1.86V-138.1z"/>
			<path fill="#0000FF" d="M151.55-138.66c0.747,0,1.376,0.097,1.89,0.29s0.927,0.467,1.24,0.82s0.537,0.773,0.67,1.26
				c0.133,0.487,0.2,1.023,0.2,1.61v6.5c-0.16,0.026-0.384,0.063-0.67,0.109c-0.287,0.047-0.61,0.09-0.97,0.13
				c-0.36,0.04-0.75,0.077-1.17,0.11s-0.838,0.05-1.25,0.05c-0.588,0-1.127-0.06-1.621-0.18c-0.492-0.12-0.92-0.31-1.279-0.57
				c-0.359-0.26-0.641-0.603-0.84-1.029c-0.2-0.427-0.301-0.94-0.301-1.54c0-0.573,0.117-1.067,0.351-1.48s0.55-0.746,0.95-1
				c0.4-0.253,0.866-0.439,1.4-0.56c0.533-0.12,1.093-0.181,1.68-0.181c0.187,0,0.38,0.011,0.58,0.03
				c0.199,0.021,0.39,0.047,0.57,0.08c0.18,0.033,0.336,0.063,0.469,0.09c0.134,0.027,0.227,0.047,0.281,0.061v-0.521
				c0-0.307-0.034-0.61-0.101-0.91c-0.067-0.3-0.187-0.566-0.36-0.8s-0.41-0.42-0.709-0.56c-0.301-0.141-0.691-0.21-1.171-0.21
				c-0.613,0-1.149,0.043-1.61,0.13c-0.459,0.087-0.803,0.177-1.029,0.27l-0.221-1.54c0.24-0.106,0.641-0.21,1.201-0.31
				C150.29-138.61,150.896-138.66,151.55-138.66z M151.71-129.34c0.44,0,0.83-0.01,1.17-0.03c0.34-0.02,0.623-0.057,0.851-0.11v-3.1
				c-0.135-0.066-0.351-0.123-0.65-0.17c-0.301-0.047-0.664-0.07-1.09-0.07c-0.28,0-0.577,0.021-0.891,0.061
				c-0.313,0.04-0.6,0.123-0.859,0.25s-0.477,0.3-0.65,0.52c-0.174,0.221-0.26,0.51-0.26,0.87c0,0.667,0.213,1.13,0.64,1.39
				C150.396-129.47,150.977-129.34,151.71-129.34z"/>
		</g>
	</g>
	<g id="node7">
		<title>3</title>
		<ellipse fill="none" stroke="#000000" stroke-width="2" cx="230" cy="-18" rx="18" ry="18"/>
	</g>
	<g id="edge6">
		<title>0-&gt;3</title>
		<path fill="none" stroke="#000000" stroke-width="2" d="M33.329-116.083C47.422-106.531,69.712-91.958,90-81
			c38.41,20.746,84.957,40.885,113.256,52.604"/>
		<polygon stroke="#000000" points="212.807,-24.475 205.266,-32.436 208.372,-26.836 203.747,-28.736 203.557,-28.273 
			203.367,-27.811 207.992,-25.911 201.848,-24.11 212.807,-24.475 		"/>
		<g enable-background="new    ">
			<path fill="#0000FF" d="M109.681-86.6c0.426-0.107,0.993-0.221,1.7-0.341c0.707-0.119,1.52-0.18,2.44-0.18
				c0.826,0,1.513,0.117,2.06,0.351s0.983,0.56,1.31,0.979s0.557,0.924,0.69,1.51c0.133,0.587,0.2,1.233,0.2,1.94v5.84h-1.86v-5.44
				c0-0.64-0.043-1.187-0.13-1.64c-0.086-0.453-0.23-0.82-0.43-1.1c-0.2-0.28-0.467-0.483-0.8-0.61
				c-0.333-0.127-0.747-0.19-1.24-0.19c-0.2,0-0.407,0.008-0.62,0.021c-0.213,0.014-0.417,0.03-0.61,0.05
				c-0.193,0.021-0.367,0.044-0.52,0.07s-0.264,0.047-0.33,0.06v8.78h-1.86V-86.6z"/>
			<path fill="#0000FF" d="M124.521-87.16c0.747,0,1.376,0.097,1.89,0.29s0.927,0.467,1.24,0.82s0.537,0.773,0.67,1.26
				c0.133,0.487,0.2,1.023,0.2,1.61v6.5c-0.16,0.026-0.384,0.063-0.67,0.109c-0.287,0.047-0.61,0.09-0.97,0.13
				c-0.36,0.04-0.75,0.077-1.17,0.11s-0.838,0.05-1.25,0.05c-0.587,0-1.127-0.06-1.62-0.18s-0.92-0.31-1.28-0.57
				c-0.36-0.26-0.64-0.603-0.84-1.029c-0.2-0.427-0.3-0.94-0.3-1.54c0-0.573,0.117-1.067,0.35-1.48s0.55-0.746,0.95-1
				c0.4-0.253,0.866-0.439,1.4-0.56c0.533-0.12,1.093-0.181,1.68-0.181c0.187,0,0.38,0.011,0.58,0.03
				c0.199,0.021,0.39,0.047,0.57,0.08c0.18,0.033,0.336,0.063,0.469,0.09c0.134,0.027,0.227,0.047,0.281,0.061v-0.521
				c0-0.307-0.034-0.61-0.101-0.91c-0.067-0.3-0.187-0.566-0.36-0.8s-0.41-0.42-0.709-0.56c-0.301-0.141-0.691-0.21-1.171-0.21
				c-0.613,0-1.15,0.043-1.61,0.13s-0.803,0.177-1.03,0.27l-0.22-1.54c0.24-0.106,0.64-0.21,1.2-0.31
				C123.261-87.11,123.867-87.16,124.521-87.16z M124.681-77.84c0.44,0,0.83-0.01,1.17-0.03c0.34-0.02,0.623-0.057,0.851-0.11v-3.1
				c-0.135-0.066-0.351-0.123-0.65-0.17c-0.301-0.047-0.664-0.07-1.09-0.07c-0.28,0-0.577,0.021-0.891,0.061
				c-0.313,0.04-0.6,0.123-0.86,0.25c-0.26,0.127-0.477,0.3-0.65,0.52c-0.173,0.221-0.26,0.51-0.26,0.87
				c0,0.667,0.213,1.13,0.64,1.39C123.367-77.97,123.947-77.84,124.681-77.84z"/>
			<path fill="#0000FF" d="M131.6-86.6c0.427-0.107,0.994-0.221,1.7-0.341c0.706-0.119,1.521-0.18,2.44-0.18
				c0.826,0,1.513,0.117,2.06,0.351s0.983,0.56,1.31,0.979c0.327,0.42,0.557,0.924,0.69,1.51c0.134,0.587,0.2,1.233,0.2,1.94v5.84
				h-1.859v-5.44c0-0.64-0.044-1.187-0.131-1.64c-0.086-0.453-0.23-0.82-0.43-1.1c-0.2-0.28-0.467-0.483-0.801-0.61
				c-0.332-0.127-0.746-0.19-1.239-0.19c-0.2,0-0.407,0.008-0.62,0.021c-0.213,0.014-0.417,0.03-0.609,0.05
				c-0.193,0.021-0.367,0.044-0.521,0.07s-0.264,0.047-0.33,0.06v8.78h-1.86V-86.6z"/>
			<path fill="#0000FF" d="M146.439-87.16c0.747,0,1.377,0.097,1.891,0.29s0.926,0.467,1.24,0.82c0.313,0.354,0.536,0.773,0.67,1.26
				c0.133,0.487,0.199,1.023,0.199,1.61v6.5c-0.16,0.026-0.383,0.063-0.67,0.109c-0.287,0.047-0.609,0.09-0.97,0.13
				s-0.75,0.077-1.17,0.11s-0.837,0.05-1.25,0.05c-0.587,0-1.127-0.06-1.62-0.18s-0.92-0.31-1.279-0.57
				c-0.36-0.26-0.641-0.603-0.84-1.029c-0.201-0.427-0.301-0.94-0.301-1.54c0-0.573,0.117-1.067,0.35-1.48
				c0.234-0.413,0.551-0.746,0.951-1c0.399-0.253,0.865-0.439,1.399-0.56c0.533-0.12,1.093-0.181,1.681-0.181
				c0.186,0,0.379,0.011,0.579,0.03c0.2,0.021,0.39,0.047,0.57,0.08c0.18,0.033,0.337,0.063,0.47,0.09
				c0.133,0.027,0.227,0.047,0.28,0.061v-0.521c0-0.307-0.034-0.61-0.101-0.91s-0.187-0.566-0.359-0.8
				c-0.174-0.233-0.41-0.42-0.71-0.56c-0.3-0.141-0.69-0.21-1.171-0.21c-0.613,0-1.149,0.043-1.609,0.13s-0.803,0.177-1.029,0.27
				l-0.221-1.54c0.24-0.106,0.641-0.21,1.2-0.31C145.18-87.11,145.787-87.16,146.439-87.16z M146.6-77.84
				c0.44,0,0.83-0.01,1.17-0.03c0.34-0.02,0.623-0.057,0.851-0.11v-3.1c-0.134-0.066-0.351-0.123-0.649-0.17
				c-0.301-0.047-0.664-0.07-1.091-0.07c-0.28,0-0.577,0.021-0.89,0.061c-0.313,0.04-0.6,0.123-0.86,0.25
				c-0.26,0.127-0.477,0.3-0.649,0.52c-0.174,0.221-0.26,0.51-0.26,0.87c0,0.667,0.213,1.13,0.639,1.39
				C145.287-77.97,145.867-77.84,146.6-77.84z"/>
		</g>
	</g>
</g>
</svg>
