<?xml version="1.0" encoding="utf-8"?>
<!-- Generator: Adobe Illustrator 16.0.0, SVG Export Plug-In . SVG Version: 6.00 Build 0)  -->
<!DOCTYPE svg PUBLIC "-//W3C//DTD SVG 1.1//EN" "http://www.w3.org/Graphics/SVG/1.1/DTD/svg11.dtd">
<svg version="1.1" id="图层_1" xmlns="http://www.w3.org/2000/svg" xmlns:xlink="http://www.w3.org/1999/xlink" x="0px" y="0px"
	 width="488px" height="260px" viewBox="0 0 488 260" enable-background="new 0 0 488 260" xml:space="preserve">
<g id="graph1" transform="scale(1 1) rotate(0) translate(4 256)">
	<title>G</title>
	<polygon fill="#FFFFFF" stroke="#FFFFFF" points="-4,5 -4,-256 485,-256 485,5 	"/>
	<g id="node1">
		<title>0</title>
		<ellipse fill="none" stroke="#000000" stroke-width="2" cx="18" cy="-126" rx="18" ry="18"/>
		<g enable-background="new    ">
			<path d="M22.639-127.377c0,0.977-0.098,1.867-0.293,2.671s-0.492,1.494-0.889,2.07s-0.89,1.022-1.479,1.338
				s-1.281,0.474-2.075,0.474c-0.684,0-1.305-0.129-1.865-0.386s-1.039-0.652-1.436-1.187s-0.703-1.214-0.918-2.041
				s-0.322-1.807-0.322-2.939c0-0.977,0.099-1.868,0.298-2.676s0.495-1.499,0.889-2.075s0.887-1.022,1.479-1.338
				s1.283-0.474,2.07-0.474c0.684,0,1.305,0.129,1.865,0.386s1.039,0.654,1.436,1.191s0.703,1.219,0.918,2.046
				S22.639-128.51,22.639-127.377z M15.08-127.436c0,0.202,0.001,0.403,0.005,0.605s0.015,0.397,0.034,0.586l5.4-3.994
				c-0.098-0.332-0.221-0.635-0.371-0.908s-0.329-0.51-0.537-0.708s-0.446-0.354-0.713-0.464s-0.566-0.166-0.898-0.166
				c-0.443,0-0.845,0.107-1.206,0.322s-0.669,0.535-0.923,0.962s-0.449,0.954-0.586,1.582S15.08-128.263,15.08-127.436z
				 M20.92-127.318c0-0.222-0.008-0.441-0.024-0.659s-0.034-0.432-0.054-0.64l-5.4,4.014c0.098,0.339,0.221,0.651,0.371,0.938
				s0.331,0.532,0.542,0.737s0.453,0.364,0.723,0.479s0.578,0.171,0.923,0.171c0.443,0,0.845-0.107,1.206-0.322
				s0.669-0.534,0.923-0.957s0.449-0.949,0.586-1.577S20.92-126.491,20.92-127.318z"/>
		</g>
	</g>
	<g id="node3">
		<title>2</title>
		<ellipse fill="none" stroke="#000000" stroke-width="2" cx="240" cy="-234" rx="18" ry="18"/>
		<g enable-background="new    ">
			<path d="M244.346-229h-8.408v-1.523l3.301-3.281c0.541-0.534,0.98-0.996,1.318-1.387c0.338-0.391,0.602-0.747,0.791-1.069
				s0.316-0.627,0.381-0.913s0.098-0.596,0.098-0.928c0-0.313-0.043-0.61-0.127-0.894s-0.215-0.532-0.391-0.747
				s-0.404-0.384-0.684-0.508c-0.28-0.124-0.615-0.186-1.006-0.186c-0.541,0-1.032,0.12-1.475,0.361s-0.85,0.554-1.221,0.938
				l-0.938-1.123c0.482-0.508,1.037-0.915,1.665-1.221s1.359-0.459,2.192-0.459c0.566,0,1.082,0.085,1.548,0.254
				s0.868,0.413,1.206,0.732s0.601,0.71,0.786,1.172s0.278,0.983,0.278,1.563c0,0.488-0.064,0.94-0.195,1.357
				s-0.327,0.832-0.591,1.245s-0.596,0.842-0.996,1.284s-0.874,0.928-1.421,1.455l-2.314,2.256h6.201V-229z"/>
		</g>
	</g>
	<g id="edge2">
		<title>0-&gt;2</title>
		<path fill="none" stroke="#000000" stroke-width="2" d="M33.585-135.434C44.085-142.07,58.688-150.983,72-158
			c49.031-25.847,108.56-51.668,141.666-65.558"/>
		<polygon stroke="#000000" points="223.051,-227.473 212.089,-227.776 218.243,-226.009 213.629,-224.084 213.821,-223.623 
			214.014,-223.162 218.628,-225.086 215.554,-219.47 223.051,-227.473 		"/>
		<g enable-background="new    ">
			<path fill="#0000FF" d="M77.662-226.66c0.747,0,1.376,0.097,1.89,0.29c0.513,0.193,0.926,0.467,1.24,0.82s0.537,0.773,0.67,1.26
				c0.133,0.487,0.2,1.023,0.2,1.61v6.5c-0.16,0.026-0.383,0.063-0.67,0.109c-0.287,0.047-0.61,0.09-0.97,0.13
				c-0.36,0.04-0.75,0.077-1.17,0.11s-0.837,0.05-1.25,0.05c-0.587,0-1.127-0.06-1.62-0.18s-0.92-0.31-1.28-0.57
				c-0.36-0.26-0.64-0.603-0.84-1.029c-0.2-0.427-0.3-0.94-0.3-1.54c0-0.573,0.117-1.067,0.35-1.48s0.55-0.746,0.95-1
				c0.4-0.253,0.866-0.439,1.4-0.56c0.533-0.12,1.093-0.181,1.68-0.181c0.187,0,0.38,0.011,0.58,0.03
				c0.2,0.021,0.39,0.047,0.57,0.08c0.18,0.033,0.336,0.063,0.47,0.09c0.133,0.027,0.227,0.047,0.28,0.061v-0.521
				c0-0.307-0.034-0.61-0.1-0.91c-0.067-0.3-0.187-0.566-0.36-0.8c-0.174-0.233-0.41-0.42-0.71-0.56c-0.3-0.141-0.69-0.21-1.17-0.21
				c-0.613,0-1.15,0.043-1.61,0.13s-0.803,0.177-1.03,0.27l-0.22-1.54c0.24-0.106,0.64-0.21,1.2-0.31
				C76.402-226.61,77.008-226.66,77.662-226.66z M77.822-217.34c0.44,0,0.83-0.01,1.17-0.03c0.34-0.02,0.623-0.057,0.85-0.11v-3.1
				c-0.134-0.066-0.35-0.123-0.65-0.17c-0.3-0.047-0.664-0.07-1.09-0.07c-0.28,0-0.577,0.021-0.89,0.061
				c-0.313,0.04-0.6,0.123-0.86,0.25c-0.26,0.127-0.477,0.3-0.65,0.52c-0.173,0.221-0.26,0.51-0.26,0.87
				c0,0.667,0.213,1.13,0.64,1.39C76.508-217.47,77.088-217.34,77.822-217.34z"/>
			<path fill="#0000FF" d="M89.262-215.76c-0.84,0-1.577-0.134-2.21-0.4c-0.634-0.267-1.167-0.64-1.6-1.12
				c-0.434-0.479-0.757-1.05-0.97-1.71s-0.32-1.39-0.32-2.189c0-0.801,0.117-1.533,0.35-2.2c0.233-0.667,0.563-1.243,0.99-1.73
				c0.427-0.486,0.95-0.866,1.57-1.14c0.62-0.273,1.31-0.41,2.07-0.41c0.467,0,0.933,0.04,1.4,0.12s0.913,0.207,1.34,0.38
				l-0.42,1.58c-0.28-0.133-0.603-0.24-0.97-0.32c-0.367-0.08-0.757-0.119-1.17-0.119c-1.04,0-1.837,0.326-2.39,0.979
				c-0.554,0.653-0.83,1.606-0.83,2.86c0,0.56,0.063,1.073,0.19,1.54c0.126,0.467,0.327,0.866,0.6,1.199
				c0.273,0.334,0.623,0.591,1.05,0.771s0.947,0.27,1.56,0.27c0.493,0,0.94-0.046,1.34-0.14c0.4-0.093,0.713-0.193,0.94-0.3
				l0.26,1.56c-0.107,0.067-0.26,0.13-0.46,0.19c-0.2,0.06-0.427,0.113-0.68,0.16c-0.253,0.046-0.523,0.086-0.81,0.12
				C89.805-215.777,89.528-215.76,89.262-215.76z"/>
			<path fill="#0000FF" d="M98.102-231.52c0.546,0,1.017,0.039,1.41,0.119s0.67,0.154,0.83,0.221l-0.34,1.6
				c-0.16-0.08-0.387-0.156-0.68-0.229s-0.653-0.11-1.08-0.11c-0.867,0-1.473,0.236-1.82,0.71s-0.52,1.11-0.52,1.91v0.899h4v1.561
				h-4v8.84h-1.86v-11.34c0-1.333,0.327-2.363,0.98-3.09C95.674-231.156,96.701-231.52,98.102-231.52z"/>
			<path fill="#0000FF" d="M106.281-215.76c-0.84,0-1.577-0.134-2.21-0.4c-0.634-0.267-1.167-0.64-1.6-1.12
				c-0.434-0.479-0.757-1.05-0.97-1.71s-0.32-1.39-0.32-2.189c0-0.801,0.117-1.533,0.35-2.2c0.233-0.667,0.563-1.243,0.99-1.73
				c0.427-0.486,0.95-0.866,1.57-1.14c0.62-0.273,1.31-0.41,2.07-0.41c0.467,0,0.933,0.04,1.4,0.12s0.913,0.207,1.34,0.38
				l-0.42,1.58c-0.28-0.133-0.603-0.24-0.97-0.32c-0.367-0.08-0.757-0.119-1.17-0.119c-1.04,0-1.837,0.326-2.39,0.979
				c-0.554,0.653-0.83,1.606-0.83,2.86c0,0.56,0.063,1.073,0.19,1.54c0.126,0.467,0.327,0.866,0.6,1.199
				c0.273,0.334,0.623,0.591,1.05,0.771s0.947,0.27,1.56,0.27c0.493,0,0.94-0.046,1.34-0.14c0.4-0.093,0.713-0.193,0.94-0.3
				l0.26,1.56c-0.107,0.067-0.26,0.13-0.46,0.19c-0.2,0.06-0.427,0.113-0.68,0.16c-0.253,0.046-0.523,0.086-0.81,0.12
				C106.824-215.777,106.548-215.76,106.281-215.76z"/>
			<path fill="#0000FF" d="M115.581-215.76c-0.84,0-1.577-0.134-2.21-0.4c-0.634-0.267-1.167-0.64-1.6-1.12
				c-0.434-0.479-0.757-1.05-0.97-1.71s-0.32-1.39-0.32-2.189c0-0.801,0.117-1.533,0.35-2.2c0.233-0.667,0.563-1.243,0.99-1.73
				c0.427-0.486,0.95-0.866,1.57-1.14c0.62-0.273,1.31-0.41,2.07-0.41c0.467,0,0.933,0.04,1.4,0.12s0.913,0.207,1.34,0.38
				l-0.42,1.58c-0.28-0.133-0.603-0.24-0.97-0.32c-0.367-0.08-0.757-0.119-1.17-0.119c-1.04,0-1.837,0.326-2.39,0.979
				c-0.554,0.653-0.83,1.606-0.83,2.86c0,0.56,0.063,1.073,0.19,1.54c0.126,0.467,0.327,0.866,0.6,1.199
				c0.273,0.334,0.623,0.591,1.05,0.771s0.947,0.27,1.56,0.27c0.493,0,0.94-0.046,1.34-0.14c0.4-0.093,0.713-0.193,0.94-0.3
				l0.26,1.56c-0.107,0.067-0.26,0.13-0.46,0.19c-0.2,0.06-0.427,0.113-0.68,0.16c-0.253,0.046-0.523,0.086-0.81,0.12
				C116.124-215.777,115.848-215.76,115.581-215.76z"/>
			<path fill="#0000FF" d="M124.421-231.52c0.546,0,1.017,0.039,1.41,0.119s0.67,0.154,0.83,0.221l-0.34,1.6
				c-0.16-0.08-0.387-0.156-0.68-0.229s-0.653-0.11-1.08-0.11c-0.867,0-1.473,0.236-1.82,0.71s-0.52,1.11-0.52,1.91v0.899h4v1.561
				h-4v8.84h-1.86v-11.34c0-1.333,0.327-2.363,0.98-3.09C121.994-231.156,123.021-231.52,124.421-231.52z"/>
			<path fill="#0000FF" d="M134.521-221.98c0,1.707,0.247,3.287,0.74,4.74c0.493,1.453,1.22,2.8,2.18,4.04l-1.32,0.9
				c-1.04-1.267-1.877-2.724-2.51-4.37s-0.95-3.417-0.95-5.311c0-1.893,0.316-3.663,0.95-5.31s1.47-3.104,2.51-4.37l1.32,0.9
				c-0.96,1.24-1.687,2.587-2.18,4.04C134.767-225.267,134.521-223.687,134.521-221.98z"/>
			<path fill="#0000FF" d="M146.92-226.32c0,0.48-0.097,0.943-0.29,1.391c-0.193,0.446-0.45,0.887-0.77,1.319
				c-0.32,0.434-0.68,0.86-1.08,1.28c-0.4,0.42-0.8,0.83-1.2,1.23c-0.227,0.227-0.49,0.493-0.79,0.8s-0.583,0.627-0.85,0.96
				s-0.49,0.653-0.67,0.96s-0.27,0.573-0.27,0.8h6.38v1.58h-8.4c-0.013-0.08-0.02-0.16-0.02-0.24s0-0.153,0-0.22
				c0-0.627,0.103-1.21,0.31-1.75c0.207-0.54,0.477-1.05,0.81-1.53c0.333-0.479,0.707-0.933,1.12-1.359
				c0.413-0.427,0.82-0.841,1.22-1.24c0.333-0.32,0.65-0.637,0.95-0.95s0.566-0.627,0.8-0.94c0.233-0.313,0.42-0.636,0.56-0.97
				c0.14-0.333,0.21-0.687,0.21-1.06c0-0.4-0.063-0.74-0.19-1.021c-0.127-0.279-0.297-0.513-0.51-0.7
				c-0.213-0.187-0.463-0.322-0.75-0.409c-0.287-0.087-0.59-0.13-0.91-0.13c-0.387,0-0.74,0.053-1.06,0.159
				c-0.32,0.107-0.607,0.23-0.86,0.37c-0.253,0.141-0.467,0.287-0.64,0.44s-0.307,0.27-0.4,0.35l-0.92-1.319
				c0.12-0.134,0.3-0.297,0.54-0.49c0.24-0.193,0.526-0.377,0.86-0.55c0.333-0.174,0.707-0.32,1.12-0.44
				c0.413-0.12,0.86-0.18,1.34-0.18c1.453,0,2.543,0.337,3.27,1.01C146.557-228.496,146.92-227.547,146.92-226.32z"/>
			<path fill="#0000FF" d="M152.42-218.28c0.013,0.107,0.02,0.21,0.02,0.311c0,0.1,0,0.203,0,0.31c0,0.84-0.124,1.67-0.37,2.49
				c-0.247,0.82-0.583,1.604-1.01,2.35l-1.44-0.46c0.333-0.68,0.553-1.37,0.66-2.069c0.106-0.7,0.16-1.357,0.16-1.971
				c0-0.173-0.003-0.34-0.01-0.5s-0.017-0.313-0.03-0.46H152.42z"/>
			<path fill="#0000FF" d="M156.3-228.28c-0.333,0-0.617-0.109-0.85-0.33c-0.233-0.22-0.35-0.517-0.35-0.89s0.117-0.67,0.35-0.89
				c0.233-0.221,0.517-0.33,0.85-0.33c0.333,0,0.617,0.109,0.85,0.33c0.233,0.22,0.35,0.517,0.35,0.89s-0.117,0.67-0.35,0.89
				C156.917-228.39,156.633-228.28,156.3-228.28z M157.24-216h-1.86v-10.4h1.86V-216z"/>
			<path fill="#0000FF" d="M160.44-226.1c0.426-0.107,0.993-0.221,1.7-0.341c0.707-0.119,1.52-0.18,2.44-0.18
				c0.826,0,1.513,0.117,2.06,0.351s0.983,0.56,1.31,0.979s0.557,0.924,0.69,1.51c0.133,0.587,0.2,1.233,0.2,1.94v5.84h-1.86v-5.44
				c0-0.64-0.043-1.187-0.13-1.64c-0.086-0.453-0.23-0.82-0.43-1.1c-0.2-0.28-0.467-0.483-0.8-0.61
				c-0.333-0.127-0.747-0.19-1.24-0.19c-0.2,0-0.407,0.008-0.62,0.021c-0.213,0.014-0.417,0.03-0.61,0.05
				c-0.193,0.021-0.367,0.044-0.52,0.07s-0.264,0.047-0.33,0.06v8.78h-1.86V-226.1z"/>
			<path fill="#0000FF" d="M175.979-231.52c0.546,0,1.017,0.039,1.41,0.119s0.67,0.154,0.83,0.221l-0.34,1.6
				c-0.16-0.08-0.387-0.156-0.68-0.229s-0.653-0.11-1.08-0.11c-0.867,0-1.473,0.236-1.82,0.71s-0.52,1.11-0.52,1.91v0.899h4v1.561
				h-4v8.84h-1.86v-11.34c0-1.333,0.327-2.363,0.98-3.09C173.552-231.156,174.579-231.52,175.979-231.52z"/>
			<path fill="#0000FF" d="M181.879-221.98c0-1.706-0.247-3.286-0.74-4.739s-1.22-2.8-2.18-4.04l1.32-0.9
				c1.04,1.267,1.876,2.724,2.51,4.37c0.633,1.646,0.95,3.417,0.95,5.31c0,1.894-0.317,3.664-0.95,5.311
				c-0.634,1.646-1.47,3.104-2.51,4.37l-1.32-0.9c0.96-1.24,1.687-2.587,2.18-4.04S181.879-220.273,181.879-221.98z"/>
		</g>
	</g>
	<g id="node5">
		<title>3</title>
		<ellipse fill="none" stroke="#000000" stroke-width="2" cx="240" cy="-126" rx="18" ry="18"/>
		<g enable-background="new    ">
			<path d="M244.102-124.877c0,0.56-0.113,1.086-0.342,1.577s-0.57,0.921-1.025,1.289s-1.029,0.657-1.719,0.869
				c-0.69,0.212-1.494,0.317-2.412,0.317c-0.508,0-0.963-0.017-1.367-0.049s-0.781-0.075-1.133-0.127v-1.523
				c0.404,0.071,0.83,0.127,1.279,0.166s0.908,0.059,1.377,0.059c0.638,0,1.183-0.057,1.636-0.171
				c0.452-0.114,0.821-0.278,1.108-0.493s0.494-0.476,0.625-0.781s0.195-0.651,0.195-1.035c0-0.352-0.078-0.657-0.234-0.918
				s-0.376-0.479-0.659-0.654s-0.622-0.308-1.016-0.396c-0.394-0.088-0.825-0.132-1.294-0.132h-1.455v-1.396h1.475
				c0.384,0,0.734-0.051,1.05-0.151c0.315-0.101,0.586-0.246,0.811-0.435s0.397-0.422,0.518-0.698s0.181-0.591,0.181-0.942
				c0-0.684-0.209-1.182-0.625-1.494s-1.029-0.469-1.836-0.469c-0.43,0-0.873,0.042-1.328,0.127s-0.944,0.212-1.465,0.381v-1.484
				c0.221-0.078,0.458-0.148,0.708-0.21s0.501-0.114,0.752-0.156s0.5-0.075,0.747-0.098s0.485-0.034,0.713-0.034
				c0.677,0,1.273,0.073,1.787,0.22s0.943,0.356,1.289,0.63s0.605,0.605,0.781,0.996s0.264,0.83,0.264,1.318
				c0,0.729-0.188,1.341-0.562,1.836s-0.888,0.889-1.538,1.182c0.332,0.052,0.659,0.156,0.981,0.313s0.612,0.356,0.869,0.601
				s0.466,0.532,0.625,0.864S244.102-125.28,244.102-124.877z"/>
		</g>
	</g>
	<g id="edge4">
		<title>0-&gt;3</title>
		<path fill="none" stroke="#000000" stroke-width="2" d="M36.167-124.375C46.533-123.477,60.013-122.452,72-122
			c50.631,1.908,63.369,1.908,114,0c8.335-0.314,17.392-0.905,25.621-1.538"/>
		<polygon stroke="#000000" points="221.833,-124.375 211.499,-128.043 216.809,-124.465 211.825,-124.057 211.866,-123.559 
			211.907,-123.061 216.89,-123.468 212.234,-119.073 221.833,-124.375 		"/>
		<g enable-background="new    ">
			<path fill="#0000FF" d="M107.941-127.76c-0.84,0-1.577-0.134-2.21-0.4c-0.634-0.267-1.167-0.64-1.6-1.12
				c-0.434-0.479-0.757-1.05-0.97-1.71s-0.32-1.39-0.32-2.189c0-0.801,0.117-1.533,0.35-2.2c0.233-0.667,0.563-1.243,0.99-1.73
				c0.427-0.486,0.95-0.866,1.57-1.14c0.62-0.273,1.31-0.41,2.07-0.41c0.467,0,0.933,0.04,1.4,0.12s0.913,0.207,1.34,0.38
				l-0.42,1.58c-0.28-0.133-0.603-0.24-0.97-0.32c-0.367-0.08-0.757-0.119-1.17-0.119c-1.04,0-1.837,0.326-2.39,0.979
				c-0.554,0.653-0.83,1.606-0.83,2.86c0,0.56,0.063,1.073,0.19,1.54c0.126,0.467,0.327,0.866,0.6,1.199
				c0.273,0.334,0.623,0.591,1.05,0.771s0.947,0.27,1.56,0.27c0.493,0,0.94-0.046,1.34-0.14c0.4-0.093,0.713-0.193,0.94-0.3
				l0.26,1.56c-0.107,0.067-0.26,0.13-0.46,0.19c-0.2,0.06-0.427,0.113-0.68,0.16c-0.253,0.046-0.523,0.086-0.81,0.12
				C108.484-127.777,108.208-127.76,107.941-127.76z"/>
			<path fill="#0000FF" d="M119.161-133.98c0,1.707,0.247,3.287,0.74,4.74c0.493,1.453,1.22,2.8,2.18,4.04l-1.32,0.9
				c-1.04-1.267-1.877-2.724-2.51-4.37s-0.95-3.417-0.95-5.311c0-1.893,0.316-3.663,0.95-5.31s1.47-3.104,2.51-4.37l1.32,0.9
				c-0.96,1.24-1.687,2.587-2.18,4.04C119.407-137.267,119.161-135.687,119.161-133.98z"/>
			<path fill="#0000FF" d="M124.08-139c0.76-0.293,1.5-0.67,2.22-1.13c0.72-0.46,1.38-1.037,1.98-1.73h1.32V-128h-1.86v-11.28
				c-0.16,0.147-0.357,0.3-0.59,0.46c-0.233,0.16-0.487,0.313-0.76,0.46c-0.273,0.147-0.56,0.287-0.86,0.42
				c-0.3,0.134-0.59,0.247-0.87,0.341L124.08-139z"/>
			<path fill="#0000FF" d="M137.06-130.28c0.013,0.107,0.02,0.21,0.02,0.311c0,0.1,0,0.203,0,0.31c0,0.84-0.124,1.67-0.37,2.49
				c-0.247,0.82-0.583,1.604-1.01,2.35l-1.44-0.46c0.333-0.68,0.553-1.37,0.66-2.069c0.106-0.7,0.16-1.357,0.16-1.971
				c0-0.173-0.003-0.34-0.01-0.5s-0.017-0.313-0.03-0.46H137.06z"/>
			<path fill="#0000FF" d="M140.28-139c0.76-0.293,1.5-0.67,2.22-1.13c0.72-0.46,1.38-1.037,1.98-1.73h1.32V-128h-1.86v-11.28
				c-0.16,0.147-0.357,0.3-0.59,0.46c-0.233,0.16-0.487,0.313-0.76,0.46c-0.273,0.147-0.56,0.287-0.86,0.42
				c-0.3,0.134-0.59,0.247-0.87,0.341L140.28-139z"/>
			<path fill="#0000FF" d="M152.76-133.98c0-1.706-0.247-3.286-0.74-4.739s-1.22-2.8-2.18-4.04l1.32-0.9
				c1.04,1.267,1.876,2.724,2.51,4.37c0.633,1.646,0.95,3.417,0.95,5.31c0,1.894-0.317,3.664-0.95,5.311
				c-0.634,1.646-1.47,3.104-2.51,4.37l-1.32-0.9c0.96-1.24,1.687-2.587,2.18-4.04S152.76-132.273,152.76-133.98z"/>
		</g>
	</g>
	<g id="node13">
		<title>5</title>
		<ellipse fill="none" stroke="#000000" stroke-width="2" cx="240" cy="-18" rx="18" ry="18"/>
		<g enable-background="new    ">
			<path d="M244.023-17.082c0,0.632-0.137,1.208-0.41,1.729s-0.649,0.969-1.128,1.343s-1.044,0.666-1.694,0.874
				c-0.651,0.208-1.354,0.313-2.109,0.313c-0.189,0-0.392-0.005-0.61-0.015s-0.435-0.022-0.649-0.039s-0.425-0.034-0.63-0.054
				s-0.389-0.042-0.552-0.068v-1.543c0.352,0.085,0.753,0.146,1.206,0.186s0.91,0.059,1.372,0.059c0.521,0,0.99-0.062,1.406-0.186
				c0.416-0.124,0.771-0.301,1.064-0.532s0.518-0.511,0.674-0.84s0.234-0.698,0.234-1.108c0-0.794-0.285-1.372-0.854-1.733
				s-1.388-0.542-2.456-0.542h-2.422v-6.523h6.875v1.484h-5.273v3.584h1.113c0.612,0,1.208,0.056,1.787,0.166
				c0.58,0.11,1.096,0.305,1.548,0.581s0.817,0.647,1.094,1.113S244.023-17.785,244.023-17.082z"/>
		</g>
	</g>
	<g id="edge12">
		<title>0-&gt;5</title>
		<path fill="none" stroke="#000000" stroke-width="2" d="M31.058-113.257C41.198-103.133,56.489-89.195,72-80
			c46.048,27.3,106.174,46.027,140.288,55.293"/>
		<polygon stroke="#000000" points="221.996,-22.135 213.481,-29.045 217.29,-23.898 212.457,-25.18 212.329,-24.695 
			212.201,-24.213 217.034,-22.932 211.177,-20.346 221.996,-22.135 		"/>
		<g enable-background="new    ">
			<path fill="#0000FF" d="M127.333-78.502c0.546,0,1.017,0.039,1.41,0.119s0.67,0.154,0.83,0.221l-0.34,1.6
				c-0.16-0.08-0.387-0.156-0.68-0.229s-0.653-0.11-1.08-0.11c-0.867,0-1.473,0.236-1.82,0.71s-0.52,1.11-0.52,1.91v0.899h4v1.561
				h-4v8.84h-1.86v-11.34c0-1.333,0.327-2.363,0.98-3.09C124.906-78.139,125.933-78.502,127.333-78.502z"/>
			<path fill="#0000FF" d="M135.513-62.742c-0.84,0-1.577-0.134-2.21-0.4c-0.634-0.267-1.167-0.64-1.6-1.12
				c-0.434-0.479-0.757-1.05-0.97-1.71s-0.32-1.39-0.32-2.189c0-0.801,0.117-1.533,0.35-2.2c0.233-0.667,0.563-1.243,0.99-1.73
				c0.427-0.486,0.95-0.866,1.57-1.14c0.62-0.273,1.31-0.41,2.07-0.41c0.467,0,0.933,0.04,1.4,0.12s0.913,0.207,1.34,0.38
				l-0.42,1.58c-0.28-0.133-0.603-0.24-0.97-0.32c-0.367-0.08-0.757-0.119-1.17-0.119c-1.04,0-1.837,0.326-2.39,0.979
				c-0.554,0.653-0.83,1.606-0.83,2.86c0,0.56,0.063,1.073,0.19,1.54c0.126,0.467,0.327,0.866,0.6,1.199
				c0.273,0.334,0.623,0.591,1.05,0.771s0.947,0.27,1.56,0.27c0.493,0,0.94-0.046,1.34-0.14c0.4-0.093,0.713-0.193,0.94-0.3
				l0.26,1.56c-0.107,0.067-0.26,0.13-0.46,0.19c-0.2,0.06-0.427,0.113-0.68,0.16c-0.253,0.046-0.523,0.086-0.81,0.12
				C136.056-62.76,135.779-62.742,135.513-62.742z"/>
			<path fill="#0000FF" d="M144.813-62.742c-0.84,0-1.577-0.134-2.21-0.4c-0.634-0.267-1.167-0.64-1.6-1.12
				c-0.434-0.479-0.757-1.05-0.97-1.71s-0.32-1.39-0.32-2.189c0-0.801,0.117-1.533,0.35-2.2c0.233-0.667,0.563-1.243,0.99-1.73
				c0.427-0.486,0.95-0.866,1.57-1.14c0.62-0.273,1.31-0.41,2.07-0.41c0.467,0,0.933,0.04,1.4,0.12s0.913,0.207,1.34,0.38
				l-0.42,1.58c-0.28-0.133-0.603-0.24-0.97-0.32c-0.367-0.08-0.757-0.119-1.17-0.119c-1.04,0-1.837,0.326-2.39,0.979
				c-0.554,0.653-0.83,1.606-0.83,2.86c0,0.56,0.063,1.073,0.19,1.54c0.126,0.467,0.327,0.866,0.6,1.199
				c0.273,0.334,0.623,0.591,1.05,0.771s0.947,0.27,1.56,0.27c0.493,0,0.94-0.046,1.34-0.14c0.4-0.093,0.713-0.193,0.94-0.3
				l0.26,1.56c-0.107,0.067-0.26,0.13-0.46,0.19c-0.2,0.06-0.427,0.113-0.68,0.16c-0.253,0.046-0.523,0.086-0.81,0.12
				C145.355-62.76,145.079-62.742,144.813-62.742z"/>
			<path fill="#0000FF" d="M153.652-78.502c0.546,0,1.017,0.039,1.41,0.119s0.67,0.154,0.83,0.221l-0.34,1.6
				c-0.16-0.08-0.387-0.156-0.68-0.229s-0.653-0.11-1.08-0.11c-0.867,0-1.473,0.236-1.82,0.71s-0.52,1.11-0.52,1.91v0.899h4v1.561
				h-4v8.84h-1.86v-11.34c0-1.333,0.327-2.363,0.98-3.09C151.225-78.139,152.252-78.502,153.652-78.502z"/>
			<path fill="#0000FF" d="M163.752-68.963c0,1.707,0.247,3.287,0.74,4.74c0.493,1.453,1.22,2.8,2.18,4.04l-1.32,0.9
				c-1.04-1.267-1.877-2.724-2.51-4.37s-0.95-3.417-0.95-5.311c0-1.893,0.316-3.663,0.95-5.31s1.47-3.104,2.51-4.37l1.32,0.9
				c-0.96,1.24-1.687,2.587-2.18,4.04C163.999-72.249,163.752-70.669,163.752-68.963z"/>
			<path fill="#0000FF" d="M167.611-67.782c0.253-0.587,0.6-1.271,1.04-2.05c0.44-0.78,0.937-1.584,1.49-2.41
				c0.553-0.827,1.146-1.641,1.78-2.44s1.27-1.52,1.91-2.16h1.78v8.801h1.64v1.52h-1.64v3.54h-1.8v-3.54h-6.2V-67.782z
				 M173.812-74.643c-0.4,0.427-0.803,0.903-1.21,1.43c-0.407,0.527-0.804,1.077-1.19,1.65c-0.387,0.573-0.75,1.16-1.09,1.76
				c-0.34,0.601-0.643,1.188-0.91,1.761h4.4V-74.643z"/>
			<path fill="#0000FF" d="M181.652-65.263c0.013,0.107,0.02,0.21,0.02,0.311c0,0.1,0,0.203,0,0.31c0,0.84-0.124,1.67-0.37,2.49
				c-0.247,0.82-0.583,1.604-1.01,2.35l-1.44-0.46c0.333-0.68,0.553-1.37,0.66-2.069c0.106-0.7,0.16-1.357,0.16-1.971
				c0-0.173-0.003-0.34-0.01-0.5s-0.017-0.313-0.03-0.46H181.652z"/>
			<path fill="#0000FF" d="M185.531-75.263c-0.333,0-0.617-0.109-0.85-0.33c-0.233-0.22-0.35-0.517-0.35-0.89s0.117-0.67,0.35-0.89
				c0.233-0.221,0.517-0.33,0.85-0.33c0.333,0,0.617,0.109,0.85,0.33c0.233,0.22,0.35,0.517,0.35,0.89s-0.117,0.67-0.35,0.89
				C186.148-75.372,185.864-75.263,185.531-75.263z M186.471-62.982h-1.86v-10.4h1.86V-62.982z"/>
			<path fill="#0000FF" d="M189.671-73.082c0.426-0.107,0.993-0.221,1.7-0.341c0.707-0.119,1.52-0.18,2.44-0.18
				c0.826,0,1.513,0.117,2.06,0.351s0.983,0.56,1.31,0.979s0.557,0.924,0.69,1.51c0.133,0.587,0.2,1.233,0.2,1.94v5.84h-1.86v-5.44
				c0-0.64-0.043-1.187-0.13-1.64c-0.086-0.453-0.23-0.82-0.43-1.1c-0.2-0.28-0.467-0.483-0.8-0.61
				c-0.333-0.127-0.747-0.19-1.24-0.19c-0.2,0-0.407,0.008-0.62,0.021c-0.213,0.014-0.417,0.03-0.61,0.05
				c-0.193,0.021-0.367,0.044-0.52,0.07s-0.264,0.047-0.33,0.06v8.78h-1.86V-73.082z"/>
			<path fill="#0000FF" d="M205.211-78.502c0.546,0,1.017,0.039,1.41,0.119s0.67,0.154,0.83,0.221l-0.34,1.6
				c-0.16-0.08-0.387-0.156-0.68-0.229s-0.653-0.11-1.08-0.11c-0.867,0-1.473,0.236-1.82,0.71s-0.52,1.11-0.52,1.91v0.899h4v1.561
				h-4v8.84h-1.86v-11.34c0-1.333,0.327-2.363,0.98-3.09C202.784-78.139,203.811-78.502,205.211-78.502z"/>
			<path fill="#0000FF" d="M211.11-68.963c0-1.706-0.247-3.286-0.74-4.739s-1.22-2.8-2.18-4.04l1.32-0.9
				c1.04,1.267,1.876,2.724,2.51,4.37c0.633,1.646,0.95,3.417,0.95,5.31c0,1.894-0.317,3.664-0.95,5.311
				c-0.634,1.646-1.47,3.104-2.51,4.37l-1.32-0.9c0.96-1.24,1.687-2.587,2.18-4.04S211.11-67.256,211.11-68.963z"/>
		</g>
	</g>
	<g id="node7">
		<title>1</title>
		<ellipse fill="none" stroke="#000000" stroke-width="2" cx="462" cy="-234" rx="18" ry="18"/>
		<g enable-background="new    ">
			<path d="M466.238-229h-8.018v-1.582h3.281v-9.316l-3.057,1.66l-0.625-1.445l4.063-2.139h1.504v11.24h2.852V-229z"/>
		</g>
	</g>
	<g id="edge6">
		<title>3-&gt;1</title>
		<path fill="none" stroke="#000000" stroke-width="2" d="M255.585-135.434C266.086-142.07,280.688-150.983,294-158
			c49.031-25.847,108.56-51.668,141.666-65.558"/>
		<polygon stroke="#000000" points="445.051,-227.473 434.089,-227.776 440.243,-226.009 435.629,-224.084 435.821,-223.623 
			436.014,-223.162 440.628,-225.086 437.554,-219.47 445.051,-227.473 		"/>
		<g enable-background="new    ">
			<path fill="#0000FF" d="M299.662-226.66c0.746,0,1.376,0.097,1.89,0.29c0.513,0.193,0.927,0.467,1.239,0.82
				c0.314,0.354,0.537,0.773,0.67,1.26c0.134,0.487,0.201,1.023,0.201,1.61v6.5c-0.16,0.026-0.384,0.063-0.67,0.109
				c-0.287,0.047-0.61,0.09-0.971,0.13c-0.359,0.04-0.75,0.077-1.17,0.11s-0.837,0.05-1.25,0.05c-0.587,0-1.127-0.06-1.62-0.18
				s-0.92-0.31-1.28-0.57c-0.359-0.26-0.64-0.603-0.84-1.029c-0.199-0.427-0.3-0.94-0.3-1.54c0-0.573,0.116-1.067,0.351-1.48
				c0.232-0.413,0.549-0.746,0.949-1c0.4-0.253,0.867-0.439,1.4-0.56s1.094-0.181,1.68-0.181c0.188,0,0.381,0.011,0.58,0.03
				c0.2,0.021,0.391,0.047,0.57,0.08s0.336,0.063,0.47,0.09c0.134,0.027,0.227,0.047,0.28,0.061v-0.521c0-0.307-0.033-0.61-0.1-0.91
				c-0.067-0.3-0.188-0.566-0.36-0.8c-0.174-0.233-0.41-0.42-0.71-0.56c-0.301-0.141-0.69-0.21-1.17-0.21
				c-0.613,0-1.15,0.043-1.61,0.13s-0.804,0.177-1.03,0.27l-0.22-1.54c0.24-0.106,0.64-0.21,1.2-0.31
				C298.402-226.61,299.008-226.66,299.662-226.66z M299.822-217.34c0.439,0,0.83-0.01,1.17-0.03c0.34-0.02,0.623-0.057,0.85-0.11
				v-3.1c-0.134-0.066-0.35-0.123-0.65-0.17c-0.3-0.047-0.663-0.07-1.09-0.07c-0.279,0-0.576,0.021-0.891,0.061
				c-0.313,0.04-0.6,0.123-0.859,0.25s-0.477,0.3-0.65,0.52c-0.173,0.221-0.26,0.51-0.26,0.87c0,0.667,0.213,1.13,0.641,1.39
				C298.508-217.47,299.088-217.34,299.822-217.34z"/>
			<path fill="#0000FF" d="M311.262-215.76c-0.84,0-1.577-0.134-2.21-0.4c-0.634-0.267-1.167-0.64-1.601-1.12
				c-0.434-0.479-0.756-1.05-0.97-1.71s-0.319-1.39-0.319-2.189c0-0.801,0.116-1.533,0.35-2.2c0.232-0.667,0.563-1.243,0.99-1.73
				c0.426-0.486,0.949-0.866,1.57-1.14c0.619-0.273,1.31-0.41,2.069-0.41c0.467,0,0.933,0.04,1.399,0.12s0.914,0.207,1.341,0.38
				l-0.421,1.58c-0.279-0.133-0.603-0.24-0.969-0.32c-0.367-0.08-0.758-0.119-1.17-0.119c-1.041,0-1.838,0.326-2.391,0.979
				c-0.554,0.653-0.83,1.606-0.83,2.86c0,0.56,0.063,1.073,0.189,1.54s0.327,0.866,0.601,1.199c0.272,0.334,0.623,0.591,1.05,0.771
				s0.947,0.27,1.561,0.27c0.492,0,0.939-0.046,1.34-0.14c0.4-0.093,0.713-0.193,0.939-0.3l0.26,1.56
				c-0.106,0.067-0.26,0.13-0.459,0.19c-0.2,0.06-0.428,0.113-0.681,0.16c-0.253,0.046-0.523,0.086-0.81,0.12
				C311.805-215.777,311.528-215.76,311.262-215.76z"/>
			<path fill="#0000FF" d="M320.102-231.52c0.547,0,1.017,0.039,1.41,0.119c0.393,0.08,0.67,0.154,0.83,0.221l-0.34,1.6
				c-0.16-0.08-0.387-0.156-0.681-0.229s-0.653-0.11-1.08-0.11c-0.866,0-1.474,0.236-1.819,0.71c-0.348,0.474-0.521,1.11-0.521,1.91
				v0.899h4v1.561h-4v8.84h-1.86v-11.34c0-1.333,0.327-2.363,0.98-3.09C317.674-231.156,318.701-231.52,320.102-231.52z"/>
			<path fill="#0000FF" d="M328.281-215.76c-0.84,0-1.577-0.134-2.21-0.4c-0.634-0.267-1.167-0.64-1.601-1.12
				c-0.434-0.479-0.756-1.05-0.97-1.71s-0.319-1.39-0.319-2.189c0-0.801,0.116-1.533,0.35-2.2c0.232-0.667,0.563-1.243,0.99-1.73
				c0.426-0.486,0.949-0.866,1.57-1.14c0.619-0.273,1.31-0.41,2.069-0.41c0.467,0,0.933,0.04,1.399,0.12s0.914,0.207,1.341,0.38
				l-0.421,1.58c-0.279-0.133-0.603-0.24-0.969-0.32c-0.367-0.08-0.758-0.119-1.17-0.119c-1.041,0-1.838,0.326-2.391,0.979
				c-0.554,0.653-0.83,1.606-0.83,2.86c0,0.56,0.063,1.073,0.189,1.54s0.327,0.866,0.601,1.199c0.272,0.334,0.623,0.591,1.05,0.771
				s0.947,0.27,1.561,0.27c0.492,0,0.939-0.046,1.34-0.14c0.4-0.093,0.713-0.193,0.939-0.3l0.26,1.56
				c-0.106,0.067-0.26,0.13-0.459,0.19c-0.2,0.06-0.428,0.113-0.681,0.16c-0.253,0.046-0.523,0.086-0.81,0.12
				C328.824-215.777,328.548-215.76,328.281-215.76z"/>
			<path fill="#0000FF" d="M337.581-215.76c-0.841,0-1.577-0.134-2.21-0.4c-0.634-0.267-1.167-0.64-1.6-1.12
				c-0.434-0.479-0.758-1.05-0.971-1.71s-0.32-1.39-0.32-2.189c0-0.801,0.117-1.533,0.351-2.2s0.563-1.243,0.989-1.73
				c0.428-0.486,0.951-0.866,1.57-1.14c0.62-0.273,1.311-0.41,2.07-0.41c0.467,0,0.934,0.04,1.4,0.12s0.912,0.207,1.34,0.38
				l-0.42,1.58c-0.28-0.133-0.604-0.24-0.971-0.32s-0.756-0.119-1.17-0.119c-1.039,0-1.836,0.326-2.39,0.979s-0.83,1.606-0.83,2.86
				c0,0.56,0.063,1.073,0.19,1.54c0.126,0.467,0.326,0.866,0.6,1.199c0.273,0.334,0.623,0.591,1.05,0.771s0.946,0.27,1.56,0.27
				c0.494,0,0.94-0.046,1.341-0.14c0.399-0.093,0.713-0.193,0.94-0.3l0.26,1.56c-0.107,0.067-0.26,0.13-0.461,0.19
				c-0.199,0.06-0.426,0.113-0.68,0.16c-0.254,0.046-0.523,0.086-0.81,0.12C338.124-215.777,337.848-215.76,337.581-215.76z"/>
			<path fill="#0000FF" d="M346.421-231.52c0.546,0,1.017,0.039,1.409,0.119c0.394,0.08,0.671,0.154,0.83,0.221l-0.34,1.6
				c-0.16-0.08-0.387-0.156-0.68-0.229s-0.653-0.11-1.08-0.11c-0.867,0-1.473,0.236-1.82,0.71c-0.346,0.474-0.52,1.11-0.52,1.91
				v0.899h4v1.561h-4v8.84h-1.859v-11.34c0-1.333,0.326-2.363,0.979-3.09S345.021-231.52,346.421-231.52z"/>
			<path fill="#0000FF" d="M356.521-221.98c0,1.707,0.247,3.287,0.74,4.74s1.22,2.8,2.18,4.04l-1.319,0.9
				c-1.041-1.267-1.877-2.724-2.511-4.37s-0.95-3.417-0.95-5.311c0-1.893,0.316-3.663,0.95-5.31s1.47-3.104,2.511-4.37l1.319,0.9
				c-0.96,1.24-1.687,2.587-2.18,4.04S356.521-223.687,356.521-221.98z"/>
			<path fill="#0000FF" d="M368.92-226.32c0,0.48-0.097,0.943-0.29,1.391c-0.193,0.446-0.45,0.887-0.771,1.319
				c-0.319,0.434-0.68,0.86-1.079,1.28c-0.4,0.42-0.8,0.83-1.2,1.23c-0.227,0.227-0.49,0.493-0.79,0.8s-0.583,0.627-0.851,0.96
				c-0.266,0.333-0.489,0.653-0.67,0.96c-0.18,0.307-0.27,0.573-0.27,0.8h6.38v1.58h-8.399c-0.014-0.08-0.021-0.16-0.021-0.24
				s0-0.153,0-0.22c0-0.627,0.103-1.21,0.31-1.75s0.477-1.05,0.811-1.53c0.333-0.479,0.707-0.933,1.12-1.359s0.819-0.841,1.22-1.24
				c0.334-0.32,0.65-0.637,0.95-0.95s0.566-0.627,0.8-0.94c0.233-0.313,0.42-0.636,0.561-0.97c0.14-0.333,0.209-0.687,0.209-1.06
				c0-0.4-0.063-0.74-0.189-1.021c-0.127-0.279-0.297-0.513-0.51-0.7c-0.213-0.187-0.463-0.322-0.75-0.409s-0.59-0.13-0.91-0.13
				c-0.387,0-0.74,0.053-1.061,0.159c-0.319,0.107-0.606,0.23-0.859,0.37c-0.254,0.141-0.467,0.287-0.641,0.44
				c-0.173,0.153-0.307,0.27-0.399,0.35l-0.92-1.319c0.12-0.134,0.3-0.297,0.54-0.49s0.526-0.377,0.859-0.55
				c0.334-0.174,0.707-0.32,1.121-0.44c0.412-0.12,0.859-0.18,1.34-0.18c1.453,0,2.543,0.337,3.27,1.01
				C368.557-228.496,368.92-227.547,368.92-226.32z"/>
			<path fill="#0000FF" d="M374.42-218.28c0.014,0.107,0.02,0.21,0.02,0.311c0,0.1,0,0.203,0,0.31c0,0.84-0.123,1.67-0.369,2.49
				c-0.248,0.82-0.584,1.604-1.01,2.35l-1.441-0.46c0.334-0.68,0.554-1.37,0.66-2.069c0.107-0.7,0.16-1.357,0.16-1.971
				c0-0.173-0.003-0.34-0.01-0.5s-0.017-0.313-0.029-0.46H374.42z"/>
			<path fill="#0000FF" d="M378.3-228.28c-0.333,0-0.616-0.109-0.851-0.33c-0.232-0.22-0.35-0.517-0.35-0.89s0.117-0.67,0.35-0.89
				c0.234-0.221,0.518-0.33,0.851-0.33s0.616,0.109,0.851,0.33c0.232,0.22,0.35,0.517,0.35,0.89s-0.117,0.67-0.35,0.89
				C378.916-228.39,378.633-228.28,378.3-228.28z M379.24-216h-1.86v-10.4h1.86V-216z"/>
			<path fill="#0000FF" d="M382.439-226.1c0.427-0.107,0.994-0.221,1.7-0.341c0.706-0.119,1.521-0.18,2.44-0.18
				c0.826,0,1.513,0.117,2.06,0.351s0.983,0.56,1.31,0.979c0.327,0.42,0.557,0.924,0.69,1.51c0.134,0.587,0.2,1.233,0.2,1.94v5.84
				h-1.859v-5.44c0-0.64-0.044-1.187-0.131-1.64c-0.086-0.453-0.23-0.82-0.43-1.1c-0.2-0.28-0.467-0.483-0.801-0.61
				c-0.332-0.127-0.746-0.19-1.239-0.19c-0.2,0-0.407,0.008-0.62,0.021c-0.213,0.014-0.417,0.03-0.609,0.05
				c-0.193,0.021-0.367,0.044-0.521,0.07s-0.264,0.047-0.33,0.06v8.78h-1.86V-226.1z"/>
			<path fill="#0000FF" d="M397.979-231.52c0.546,0,1.017,0.039,1.409,0.119c0.394,0.08,0.671,0.154,0.83,0.221l-0.34,1.6
				c-0.16-0.08-0.387-0.156-0.68-0.229s-0.653-0.11-1.08-0.11c-0.867,0-1.473,0.236-1.82,0.71c-0.346,0.474-0.52,1.11-0.52,1.91
				v0.899h4v1.561h-4v8.84h-1.859v-11.34c0-1.333,0.326-2.363,0.979-3.09S396.579-231.52,397.979-231.52z"/>
			<path fill="#0000FF" d="M403.879-221.98c0-1.706-0.247-3.286-0.74-4.739s-1.22-2.8-2.18-4.04l1.32-0.9
				c1.039,1.267,1.876,2.724,2.51,4.37c0.633,1.646,0.949,3.417,0.949,5.31c0,1.894-0.316,3.664-0.949,5.311
				c-0.634,1.646-1.471,3.104-2.51,4.37l-1.32-0.9c0.96-1.24,1.687-2.587,2.18-4.04S403.879-220.273,403.879-221.98z"/>
		</g>
	</g>
	<g id="node9">
		<title>6</title>
		<ellipse fill="none" stroke="#000000" stroke-width="2" cx="462" cy="-126" rx="18" ry="18"/>
		<g enable-background="new    ">
			<path d="M466.502-125.043c0,0.586-0.105,1.136-0.317,1.65s-0.513,0.962-0.903,1.343s-0.861,0.681-1.411,0.898
				s-1.161,0.327-1.831,0.327c-0.703,0-1.324-0.112-1.865-0.337s-0.992-0.569-1.357-1.035s-0.641-1.053-0.83-1.763
				s-0.283-1.55-0.283-2.52c0-0.651,0.043-1.282,0.127-1.895s0.225-1.188,0.42-1.729s0.455-1.035,0.781-1.484
				s0.73-0.835,1.216-1.157s1.056-0.573,1.714-0.752s1.42-0.269,2.285-0.269h1.26v1.484h-1.367c-0.762,0-1.422,0.091-1.982,0.273
				s-1.029,0.439-1.406,0.771s-0.668,0.732-0.869,1.201s-0.328,0.993-0.381,1.572l-0.039,0.4c0.41-0.241,0.884-0.435,1.421-0.581
				s1.118-0.22,1.743-0.22c0.645,0,1.209,0.095,1.694,0.283s0.889,0.451,1.211,0.786s0.565,0.737,0.728,1.206
				S466.502-125.603,466.502-125.043z M464.725-124.936c0-0.391-0.047-0.744-0.142-1.06s-0.243-0.583-0.444-0.801
				s-0.457-0.388-0.767-0.508s-0.679-0.181-1.108-0.181c-0.248,0-0.498,0.022-0.752,0.068s-0.503,0.109-0.747,0.19
				s-0.478,0.174-0.698,0.278s-0.424,0.215-0.605,0.332c0,0.84,0.059,1.541,0.176,2.104s0.291,1.014,0.522,1.353
				s0.517,0.579,0.854,0.723s0.729,0.215,1.172,0.215c0.371,0,0.711-0.061,1.021-0.181s0.576-0.298,0.801-0.532
				s0.4-0.52,0.527-0.854S464.725-124.506,464.725-124.936z"/>
		</g>
	</g>
	<g id="edge8">
		<title>3-&gt;6</title>
		<path fill="none" stroke="#000000" stroke-width="2" d="M258.167-124.375c10.366,0.898,23.847,1.923,35.833,2.375
			c50.631,1.908,63.369,1.908,114,0c8.335-0.314,17.392-0.905,25.621-1.538"/>
		<polygon stroke="#000000" points="443.833,-124.375 433.499,-128.043 438.809,-124.465 433.825,-124.057 433.866,-123.559 
			433.907,-123.061 438.89,-123.468 434.234,-119.073 443.833,-124.375 		"/>
		<g enable-background="new    ">
			<path fill="#0000FF" d="M319.201-127.76c-0.84,0-1.577-0.134-2.21-0.4c-0.634-0.267-1.167-0.64-1.601-1.12
				c-0.434-0.479-0.756-1.05-0.97-1.71s-0.319-1.39-0.319-2.189c0-0.801,0.116-1.533,0.35-2.2c0.232-0.667,0.563-1.243,0.99-1.73
				c0.426-0.486,0.949-0.866,1.57-1.14c0.619-0.273,1.31-0.41,2.069-0.41c0.467,0,0.933,0.04,1.399,0.12s0.914,0.207,1.341,0.38
				l-0.421,1.58c-0.279-0.133-0.603-0.24-0.969-0.32c-0.367-0.08-0.758-0.119-1.17-0.119c-1.041,0-1.838,0.326-2.391,0.979
				c-0.554,0.653-0.83,1.606-0.83,2.86c0,0.56,0.063,1.073,0.189,1.54s0.327,0.866,0.601,1.199c0.272,0.334,0.623,0.591,1.05,0.771
				s0.947,0.27,1.561,0.27c0.492,0,0.939-0.046,1.34-0.14c0.4-0.093,0.713-0.193,0.939-0.3l0.26,1.56
				c-0.106,0.067-0.26,0.13-0.459,0.19c-0.2,0.06-0.428,0.113-0.681,0.16c-0.253,0.046-0.523,0.086-0.81,0.12
				C319.744-127.777,319.468-127.76,319.201-127.76z"/>
			<path fill="#0000FF" d="M328.041-143.52c0.547,0,1.017,0.039,1.41,0.119c0.393,0.08,0.67,0.154,0.83,0.221l-0.34,1.6
				c-0.16-0.08-0.387-0.156-0.681-0.229s-0.653-0.11-1.08-0.11c-0.866,0-1.474,0.236-1.819,0.71c-0.348,0.474-0.521,1.11-0.521,1.91
				v0.899h4v1.561h-4v8.84h-1.86v-11.34c0-1.333,0.327-2.363,0.98-3.09C325.613-143.156,326.641-143.52,328.041-143.52z"/>
			<path fill="#0000FF" d="M338.141-133.98c0,1.707,0.246,3.287,0.74,4.74c0.493,1.453,1.22,2.8,2.18,4.04l-1.32,0.9
				c-1.039-1.267-1.877-2.724-2.51-4.37s-0.949-3.417-0.949-5.311c0-1.893,0.316-3.663,0.949-5.31s1.471-3.104,2.51-4.37l1.32,0.9
				c-0.96,1.24-1.687,2.587-2.18,4.04C338.387-137.267,338.141-135.687,338.141-133.98z"/>
			<path fill="#0000FF" d="M342.46-133.56c0-1.347,0.187-2.537,0.56-3.57c0.374-1.033,0.904-1.903,1.591-2.61
				c0.687-0.706,1.521-1.243,2.5-1.609c0.979-0.367,2.083-0.557,3.31-0.57l0.141,1.56c-0.787,0.014-1.504,0.101-2.15,0.261
				c-0.646,0.159-1.224,0.413-1.73,0.76c-0.506,0.347-0.934,0.797-1.279,1.35c-0.348,0.554-0.607,1.237-0.78,2.05
				c0.347-0.159,0.737-0.293,1.17-0.399s0.884-0.16,1.351-0.16c0.786,0,1.453,0.12,2,0.36c0.546,0.239,0.992,0.557,1.34,0.949
				c0.346,0.394,0.596,0.848,0.75,1.36c0.152,0.514,0.229,1.05,0.229,1.61c0,0.507-0.087,1.026-0.26,1.56s-0.437,1.021-0.79,1.46
				c-0.354,0.44-0.803,0.8-1.35,1.08s-1.193,0.42-1.94,0.42c-1.521,0-2.677-0.52-3.47-1.56S342.46-131.733,342.46-133.56z
				 M346.94-134.98c-0.468,0-0.9,0.044-1.3,0.131c-0.4,0.087-0.801,0.217-1.2,0.39c-0.014,0.146-0.023,0.297-0.03,0.45
				s-0.01,0.303-0.01,0.45c0,0.587,0.04,1.14,0.119,1.659c0.08,0.521,0.224,0.978,0.431,1.37c0.206,0.394,0.483,0.707,0.83,0.94
				s0.786,0.35,1.319,0.35c0.44,0,0.813-0.093,1.121-0.279c0.307-0.188,0.56-0.427,0.76-0.721c0.199-0.293,0.343-0.609,0.43-0.95
				c0.086-0.34,0.13-0.67,0.13-0.989c0-0.907-0.217-1.601-0.649-2.08C348.457-134.74,347.807-134.98,346.94-134.98z"/>
			<path fill="#0000FF" d="M356.04-130.28c0.013,0.107,0.021,0.21,0.021,0.311c0,0.1,0,0.203,0,0.31c0,0.84-0.124,1.67-0.371,2.49
				c-0.246,0.82-0.583,1.604-1.01,2.35l-1.439-0.46c0.333-0.68,0.553-1.37,0.66-2.069c0.105-0.7,0.16-1.357,0.16-1.971
				c0-0.173-0.004-0.34-0.011-0.5s-0.017-0.313-0.03-0.46H356.04z"/>
			<path fill="#0000FF" d="M359.92-140.28c-0.334,0-0.617-0.109-0.85-0.33c-0.234-0.22-0.351-0.517-0.351-0.89
				s0.116-0.67,0.351-0.89c0.232-0.221,0.516-0.33,0.85-0.33c0.333,0,0.617,0.109,0.85,0.33c0.233,0.22,0.351,0.517,0.351,0.89
				s-0.117,0.67-0.351,0.89C360.537-140.39,360.253-140.28,359.92-140.28z M360.859-128H359v-10.4h1.859V-128z"/>
			<path fill="#0000FF" d="M364.061-138.1c0.426-0.107,0.992-0.221,1.699-0.341c0.707-0.119,1.52-0.18,2.44-0.18
				c0.826,0,1.513,0.117,2.06,0.351s0.983,0.56,1.311,0.979c0.326,0.42,0.557,0.924,0.689,1.51c0.133,0.587,0.2,1.233,0.2,1.94v5.84
				h-1.86v-5.44c0-0.64-0.043-1.187-0.13-1.64s-0.229-0.82-0.43-1.1c-0.2-0.28-0.467-0.483-0.8-0.61
				c-0.334-0.127-0.747-0.19-1.24-0.19c-0.2,0-0.406,0.008-0.62,0.021c-0.214,0.014-0.417,0.03-0.61,0.05
				c-0.193,0.021-0.366,0.044-0.52,0.07s-0.264,0.047-0.33,0.06v8.78h-1.859V-138.1z"/>
			<path fill="#0000FF" d="M379.6-143.52c0.547,0,1.017,0.039,1.41,0.119c0.393,0.08,0.67,0.154,0.83,0.221l-0.34,1.6
				c-0.16-0.08-0.387-0.156-0.681-0.229s-0.653-0.11-1.08-0.11c-0.866,0-1.474,0.236-1.819,0.71c-0.348,0.474-0.521,1.11-0.521,1.91
				v0.899h4v1.561h-4v8.84h-1.86v-11.34c0-1.333,0.327-2.363,0.98-3.09C377.172-143.156,378.199-143.52,379.6-143.52z"/>
			<path fill="#0000FF" d="M385.499-133.98c0-1.706-0.247-3.286-0.74-4.739s-1.22-2.8-2.18-4.04l1.319-0.9
				c1.041,1.267,1.877,2.724,2.511,4.37c0.633,1.646,0.95,3.417,0.95,5.31c0,1.894-0.317,3.664-0.95,5.311
				c-0.634,1.646-1.47,3.104-2.511,4.37l-1.319-0.9c0.96-1.24,1.687-2.587,2.18-4.04S385.499-132.273,385.499-133.98z"/>
		</g>
	</g>
	<g id="node11">
		<title>4</title>
		<ellipse fill="none" stroke="#000000" stroke-width="2" cx="462" cy="-18" rx="18" ry="18"/>
		<g enable-background="new    ">
			<path d="M466.98-15.822h-2.178V-13h-1.738v-2.822h-6.143v-1.494l5.439-8.447h2.441v8.447h2.178V-15.822z M463.064-24.123
				l-4.443,6.807h4.443V-24.123z"/>
		</g>
	</g>
	<g id="edge10">
		<title>3-&gt;4</title>
		<path fill="none" stroke="#000000" stroke-width="2" d="M253.059-113.257C263.199-103.133,278.489-89.195,294-80
			c46.048,27.3,106.174,46.027,140.288,55.293"/>
		<polygon stroke="#000000" points="443.996,-22.135 435.48,-29.045 439.29,-23.898 434.457,-25.18 434.329,-24.695 
			434.201,-24.213 439.034,-22.932 433.177,-20.346 443.996,-22.135 		"/>
		<g enable-background="new    ">
			<path fill="#0000FF" d="M345.231-78.502c0.546,0,1.017,0.039,1.409,0.119c0.394,0.08,0.671,0.154,0.83,0.221l-0.34,1.6
				c-0.16-0.08-0.387-0.156-0.68-0.229s-0.653-0.11-1.08-0.11c-0.867,0-1.473,0.236-1.82,0.71c-0.346,0.474-0.52,1.11-0.52,1.91
				v0.899h4v1.561h-4v8.84h-1.859v-11.34c0-1.333,0.326-2.363,0.979-3.09S343.831-78.502,345.231-78.502z"/>
			<path fill="#0000FF" d="M353.411-62.742c-0.841,0-1.577-0.134-2.21-0.4c-0.634-0.267-1.167-0.64-1.6-1.12
				c-0.434-0.479-0.758-1.05-0.971-1.71s-0.32-1.39-0.32-2.189c0-0.801,0.117-1.533,0.351-2.2s0.563-1.243,0.989-1.73
				c0.428-0.486,0.951-0.866,1.57-1.14c0.62-0.273,1.311-0.41,2.07-0.41c0.467,0,0.934,0.04,1.4,0.12s0.912,0.207,1.34,0.38
				l-0.42,1.58c-0.28-0.133-0.604-0.24-0.971-0.32s-0.756-0.119-1.17-0.119c-1.039,0-1.836,0.326-2.39,0.979s-0.83,1.606-0.83,2.86
				c0,0.56,0.063,1.073,0.19,1.54c0.126,0.467,0.326,0.866,0.6,1.199c0.273,0.334,0.623,0.591,1.05,0.771s0.946,0.27,1.56,0.27
				c0.494,0,0.94-0.046,1.341-0.14c0.399-0.093,0.713-0.193,0.94-0.3l0.26,1.56c-0.107,0.067-0.26,0.13-0.461,0.19
				c-0.199,0.06-0.426,0.113-0.68,0.16c-0.254,0.046-0.523,0.086-0.81,0.12C353.954-62.76,353.678-62.742,353.411-62.742z"/>
			<path fill="#0000FF" d="M362.711-62.742c-0.84,0-1.577-0.134-2.21-0.4c-0.634-0.267-1.167-0.64-1.601-1.12
				c-0.434-0.479-0.756-1.05-0.97-1.71s-0.319-1.39-0.319-2.189c0-0.801,0.116-1.533,0.35-2.2c0.232-0.667,0.563-1.243,0.99-1.73
				c0.426-0.486,0.949-0.866,1.57-1.14c0.619-0.273,1.31-0.41,2.069-0.41c0.467,0,0.933,0.04,1.399,0.12s0.914,0.207,1.341,0.38
				l-0.421,1.58c-0.279-0.133-0.603-0.24-0.969-0.32c-0.367-0.08-0.758-0.119-1.17-0.119c-1.041,0-1.838,0.326-2.391,0.979
				c-0.554,0.653-0.83,1.606-0.83,2.86c0,0.56,0.063,1.073,0.189,1.54s0.327,0.866,0.601,1.199c0.272,0.334,0.623,0.591,1.05,0.771
				s0.947,0.27,1.561,0.27c0.492,0,0.939-0.046,1.34-0.14c0.4-0.093,0.713-0.193,0.939-0.3l0.26,1.56
				c-0.106,0.067-0.26,0.13-0.459,0.19c-0.2,0.06-0.428,0.113-0.681,0.16c-0.253,0.046-0.523,0.086-0.81,0.12
				C363.254-62.76,362.978-62.742,362.711-62.742z"/>
			<path fill="#0000FF" d="M371.551-78.502c0.547,0,1.017,0.039,1.41,0.119c0.393,0.08,0.67,0.154,0.83,0.221l-0.34,1.6
				c-0.16-0.08-0.387-0.156-0.681-0.229s-0.653-0.11-1.08-0.11c-0.866,0-1.474,0.236-1.819,0.71c-0.348,0.474-0.521,1.11-0.521,1.91
				v0.899h4v1.561h-4v8.84h-1.86v-11.34c0-1.333,0.327-2.363,0.98-3.09C369.123-78.139,370.15-78.502,371.551-78.502z"/>
			<path fill="#0000FF" d="M381.65-68.963c0,1.707,0.246,3.287,0.74,4.74c0.493,1.453,1.22,2.8,2.18,4.04l-1.32,0.9
				c-1.039-1.267-1.877-2.724-2.51-4.37s-0.949-3.417-0.949-5.311c0-1.893,0.316-3.663,0.949-5.31s1.471-3.104,2.51-4.37l1.32,0.9
				c-0.96,1.24-1.687,2.587-2.18,4.04C381.896-72.249,381.65-70.669,381.65-68.963z"/>
			<path fill="#0000FF" d="M385.51-67.782c0.254-0.587,0.6-1.271,1.04-2.05c0.44-0.78,0.937-1.584,1.49-2.41
				c0.554-0.827,1.146-1.641,1.78-2.44c0.633-0.8,1.27-1.52,1.91-2.16h1.779v8.801h1.641v1.52h-1.641v3.54h-1.8v-3.54h-6.2V-67.782z
				 M391.71-74.643c-0.399,0.427-0.804,0.903-1.21,1.43c-0.406,0.527-0.804,1.077-1.189,1.65c-0.388,0.573-0.75,1.16-1.091,1.76
				c-0.34,0.601-0.644,1.188-0.909,1.761h4.399V-74.643z"/>
			<path fill="#0000FF" d="M399.551-65.263c0.013,0.107,0.02,0.21,0.02,0.311c0,0.1,0,0.203,0,0.31c0,0.84-0.123,1.67-0.37,2.49
				s-0.583,1.604-1.01,2.35l-1.44-0.46c0.334-0.68,0.553-1.37,0.66-2.069c0.106-0.7,0.16-1.357,0.16-1.971
				c0-0.173-0.004-0.34-0.01-0.5c-0.008-0.16-0.018-0.313-0.03-0.46H399.551z"/>
			<path fill="#0000FF" d="M403.43-75.263c-0.334,0-0.617-0.109-0.85-0.33c-0.234-0.22-0.351-0.517-0.351-0.89
				s0.116-0.67,0.351-0.89c0.232-0.221,0.516-0.33,0.85-0.33c0.333,0,0.617,0.109,0.85,0.33c0.233,0.22,0.351,0.517,0.351,0.89
				s-0.117,0.67-0.351,0.89C404.047-75.372,403.763-75.263,403.43-75.263z M404.369-62.982h-1.859v-10.4h1.859V-62.982z"/>
			<path fill="#0000FF" d="M407.57-73.082c0.426-0.107,0.992-0.221,1.699-0.341c0.707-0.119,1.52-0.18,2.44-0.18
				c0.826,0,1.513,0.117,2.06,0.351s0.983,0.56,1.311,0.979c0.326,0.42,0.557,0.924,0.689,1.51c0.133,0.587,0.2,1.233,0.2,1.94v5.84
				h-1.86v-5.44c0-0.64-0.043-1.187-0.13-1.64s-0.229-0.82-0.43-1.1c-0.2-0.28-0.467-0.483-0.8-0.61
				c-0.334-0.127-0.747-0.19-1.24-0.19c-0.2,0-0.406,0.008-0.62,0.021c-0.214,0.014-0.417,0.03-0.61,0.05
				c-0.193,0.021-0.366,0.044-0.52,0.07s-0.264,0.047-0.33,0.06v8.78h-1.859V-73.082z"/>
			<path fill="#0000FF" d="M423.109-78.502c0.547,0,1.017,0.039,1.41,0.119c0.393,0.08,0.67,0.154,0.83,0.221l-0.34,1.6
				c-0.16-0.08-0.387-0.156-0.681-0.229s-0.653-0.11-1.08-0.11c-0.866,0-1.474,0.236-1.819,0.71c-0.348,0.474-0.521,1.11-0.521,1.91
				v0.899h4v1.561h-4v8.84h-1.86v-11.34c0-1.333,0.327-2.363,0.98-3.09C420.682-78.139,421.709-78.502,423.109-78.502z"/>
			<path fill="#0000FF" d="M429.009-68.963c0-1.706-0.247-3.286-0.74-4.739s-1.22-2.8-2.18-4.04l1.319-0.9
				c1.041,1.267,1.877,2.724,2.511,4.37c0.633,1.646,0.95,3.417,0.95,5.31c0,1.894-0.317,3.664-0.95,5.311
				c-0.634,1.646-1.47,3.104-2.511,4.37l-1.319-0.9c0.96-1.24,1.687-2.587,2.18-4.04S429.009-67.256,429.009-68.963z"/>
		</g>
	</g>
</g>
</svg>
