<?xml version="1.0" encoding="utf-8"?>
<!-- Generator: Adobe Illustrator 16.0.0, SVG Export Plug-In . SVG Version: 6.00 Build 0)  -->
<!DOCTYPE svg PUBLIC "-//W3C//DTD SVG 1.1//EN" "http://www.w3.org/Graphics/SVG/1.1/DTD/svg11.dtd">
<svg version="1.1" id="图层_1" xmlns="http://www.w3.org/2000/svg" xmlns:xlink="http://www.w3.org/1999/xlink" x="0px" y="0px"
	 width="222px" height="48px" viewBox="0 0 222 48" enable-background="new 0 0 222 48" xml:space="preserve">
<g id="graph1" transform="scale(1 1) rotate(0) translate(4 44)">
	<title>G</title>
	<polygon fill="#FFFFFF" stroke="#FFFFFF" points="-4,5 -4,-44 219,-44 219,5 	"/>
	<g id="node1">
		<title>0</title>
		<ellipse fill="none" stroke="#000000" stroke-width="2" cx="18" cy="-18" rx="18" ry="18"/>
		<g enable-background="new    ">
			<path d="M22.639-19.377c0,0.977-0.098,1.867-0.293,2.671s-0.492,1.494-0.889,2.07s-0.89,1.022-1.479,1.338
				s-1.281,0.474-2.075,0.474c-0.684,0-1.305-0.129-1.865-0.386s-1.039-0.652-1.436-1.187s-0.703-1.214-0.918-2.041
				s-0.322-1.807-0.322-2.939c0-0.977,0.099-1.868,0.298-2.676s0.495-1.499,0.889-2.075s0.887-1.022,1.479-1.338
				s1.283-0.474,2.07-0.474c0.684,0,1.305,0.129,1.865,0.386s1.039,0.654,1.436,1.191s0.703,1.219,0.918,2.046
				S22.639-20.51,22.639-19.377z M15.08-19.436c0,0.202,0.001,0.403,0.005,0.605s0.015,0.397,0.034,0.586l5.4-3.994
				c-0.098-0.332-0.221-0.635-0.371-0.908s-0.329-0.51-0.537-0.708s-0.446-0.354-0.713-0.464S18.332-24.484,18-24.484
				c-0.443,0-0.845,0.107-1.206,0.322s-0.669,0.535-0.923,0.962s-0.449,0.954-0.586,1.582S15.08-20.263,15.08-19.436z M20.92-19.318
				c0-0.222-0.008-0.441-0.024-0.659s-0.034-0.432-0.054-0.64l-5.4,4.014c0.098,0.339,0.221,0.651,0.371,0.938
				s0.331,0.532,0.542,0.737s0.453,0.364,0.723,0.479s0.578,0.171,0.923,0.171c0.443,0,0.845-0.107,1.206-0.322
				s0.669-0.534,0.923-0.957s0.449-0.949,0.586-1.577S20.92-18.491,20.92-19.318z"/>
		</g>
	</g>
	<g id="node3">
		<title>1</title>
		<ellipse fill="none" stroke="#000000" stroke-width="2" cx="196" cy="-18" rx="18" ry="18"/>
		<g enable-background="new    ">
			<path d="M200.238-13h-8.018v-1.582h3.281v-9.316l-3.057,1.66l-0.625-1.445l4.063-2.139h1.504v11.24h2.852V-13z"/>
		</g>
	</g>
	<g id="edge2">
		<title>0-&gt;1</title>
		<path fill="none" stroke="#FF0000" stroke-width="2" d="M36.196-18c30.571,0,94.608,0,131.342,0"/>
		<polygon fill="#FF0000" stroke="#FF0000" points="177.993,-18 167.993,-22.5 172.993,-18.5 167.993,-18.5 167.993,-18 
			167.993,-17.5 172.993,-17.5 167.993,-13.5 177.993,-18 		"/>
		<g enable-background="new    ">
			<path fill="#0000FF" d="M79.061-23.76c-0.84,0-1.577-0.134-2.21-0.4c-0.634-0.267-1.167-0.64-1.6-1.12
				c-0.434-0.479-0.757-1.05-0.97-1.71s-0.32-1.39-0.32-2.189c0-0.801,0.117-1.533,0.35-2.2c0.233-0.667,0.563-1.243,0.99-1.73
				c0.427-0.486,0.95-0.866,1.57-1.14c0.62-0.273,1.31-0.41,2.07-0.41c0.467,0,0.933,0.04,1.4,0.12s0.913,0.207,1.34,0.38
				l-0.42,1.58c-0.28-0.133-0.603-0.24-0.97-0.32c-0.367-0.08-0.757-0.119-1.17-0.119c-1.04,0-1.837,0.326-2.39,0.979
				c-0.554,0.653-0.83,1.606-0.83,2.86c0,0.56,0.063,1.073,0.19,1.54c0.126,0.467,0.327,0.866,0.6,1.199
				c0.273,0.334,0.623,0.591,1.05,0.771s0.947,0.27,1.56,0.27c0.493,0,0.94-0.046,1.34-0.14c0.4-0.093,0.713-0.193,0.94-0.3
				l0.26,1.56c-0.107,0.067-0.26,0.13-0.46,0.19c-0.2,0.06-0.427,0.113-0.68,0.16c-0.253,0.046-0.523,0.086-0.81,0.12
				C79.604-23.777,79.328-23.76,79.061-23.76z"/>
			<path fill="#0000FF" d="M90.281-29.98c0,1.707,0.247,3.287,0.74,4.74c0.493,1.453,1.22,2.8,2.18,4.04l-1.32,0.9
				c-1.04-1.267-1.877-2.724-2.51-4.37s-0.95-3.417-0.95-5.311c0-1.893,0.316-3.663,0.95-5.31s1.47-3.104,2.51-4.37l1.32,0.9
				c-0.96,1.24-1.687,2.587-2.18,4.04C90.527-33.267,90.281-31.687,90.281-29.98z"/>
			<path fill="#0000FF" d="M95.2-35c0.76-0.293,1.5-0.67,2.22-1.13c0.72-0.46,1.38-1.037,1.98-1.73h1.32V-24h-1.86v-11.28
				c-0.16,0.147-0.357,0.3-0.59,0.46c-0.233,0.16-0.487,0.313-0.76,0.46c-0.273,0.147-0.56,0.287-0.86,0.42
				c-0.3,0.134-0.59,0.247-0.87,0.341L95.2-35z"/>
			<path fill="#0000FF" d="M108.18-26.28c0.014,0.107,0.021,0.21,0.021,0.311c0,0.1,0,0.203,0,0.31c0,0.84-0.124,1.67-0.37,2.49
				c-0.247,0.82-0.583,1.604-1.01,2.35l-1.44-0.46c0.333-0.68,0.553-1.37,0.66-2.069c0.106-0.7,0.16-1.357,0.16-1.971
				c0-0.173-0.003-0.34-0.01-0.5s-0.017-0.313-0.03-0.46H108.18z"/>
			<path fill="#0000FF" d="M112.061-36.28c-0.334,0-0.617-0.109-0.851-0.33c-0.233-0.22-0.351-0.517-0.351-0.89
				s0.117-0.67,0.351-0.89c0.233-0.221,0.517-0.33,0.851-0.33c0.332,0,0.616,0.109,0.85,0.33c0.232,0.22,0.35,0.517,0.35,0.89
				s-0.117,0.67-0.35,0.89C112.677-36.39,112.393-36.28,112.061-36.28z M113-24h-1.859v-10.4H113V-24z"/>
			<path fill="#0000FF" d="M116.2-34.1c0.427-0.107,0.993-0.221,1.7-0.341c0.706-0.119,1.52-0.18,2.439-0.18
				c0.826,0,1.514,0.117,2.061,0.351s0.982,0.56,1.31,0.979s0.557,0.924,0.69,1.51c0.133,0.587,0.199,1.233,0.199,1.94V-24h-1.859
				v-5.44c0-0.64-0.043-1.187-0.131-1.64c-0.086-0.453-0.229-0.82-0.43-1.1c-0.199-0.28-0.467-0.483-0.8-0.61
				s-0.747-0.19-1.239-0.19c-0.201,0-0.407,0.008-0.621,0.021c-0.213,0.014-0.416,0.03-0.609,0.05
				c-0.193,0.021-0.367,0.044-0.52,0.07c-0.154,0.026-0.264,0.047-0.33,0.06V-24h-1.86V-34.1z"/>
			<path fill="#0000FF" d="M131.74-39.52c0.546,0,1.016,0.039,1.409,0.119s0.671,0.154,0.83,0.221l-0.34,1.6
				c-0.16-0.08-0.387-0.156-0.681-0.229c-0.293-0.073-0.652-0.11-1.08-0.11c-0.866,0-1.473,0.236-1.819,0.71s-0.521,1.11-0.521,1.91
				v0.899h4v1.561h-4V-24h-1.859v-11.34c0-1.333,0.326-2.363,0.98-3.09C129.313-39.156,130.34-39.52,131.74-39.52z"/>
			<path fill="#0000FF" d="M137.639-29.98c0-1.706-0.246-3.286-0.74-4.739c-0.492-1.453-1.219-2.8-2.18-4.04l1.32-0.9
				c1.04,1.267,1.877,2.724,2.51,4.37s0.95,3.417,0.95,5.31c0,1.894-0.317,3.664-0.95,5.311s-1.47,3.104-2.51,4.37l-1.32-0.9
				c0.961-1.24,1.688-2.587,2.18-4.04C137.393-26.693,137.639-28.273,137.639-29.98z"/>
		</g>
	</g>
</g>
</svg>
