<?xml version="1.0" encoding="utf-8"?>
<!-- Generator: Adobe Illustrator 16.0.0, SVG Export Plug-In . SVG Version: 6.00 Build 0)  -->
<!DOCTYPE svg PUBLIC "-//W3C//DTD SVG 1.1//EN" "http://www.w3.org/Graphics/SVG/1.1/DTD/svg11.dtd">
<svg version="1.1" id="图层_1" xmlns="http://www.w3.org/2000/svg" xmlns:xlink="http://www.w3.org/1999/xlink" x="0px" y="0px"
	 width="436px" height="260px" viewBox="0 0 436 260" enable-background="new 0 0 436 260" xml:space="preserve">
<g id="graph1" transform="scale(1 1) rotate(0) translate(4 256)">
	<title>G</title>
	<polygon fill="#FFFFFF" stroke="#FFFFFF" points="-4,5 -4,-256 433,-256 433,5 	"/>
	<g id="node1">
		<title>0</title>
		<ellipse fill="none" stroke="#000000" stroke-width="2" cx="18" cy="-126" rx="18" ry="18"/>
		<g enable-background="new    ">
			<path d="M22.639-127.377c0,0.977-0.098,1.867-0.293,2.671c-0.195,0.804-0.492,1.494-0.889,2.07
				c-0.397,0.575-0.89,1.021-1.479,1.338c-0.589,0.315-1.281,0.474-2.075,0.474c-0.684,0-1.305-0.129-1.865-0.386
				s-1.039-0.651-1.436-1.187s-0.703-1.215-0.918-2.041c-0.215-0.828-0.322-1.808-0.322-2.939c0-0.977,0.099-1.868,0.298-2.676
				c0.199-0.808,0.495-1.499,0.889-2.075s0.887-1.022,1.479-1.338c0.592-0.316,1.283-0.474,2.07-0.474
				c0.684,0,1.305,0.129,1.865,0.386c0.56,0.257,1.039,0.654,1.436,1.191c0.397,0.537,0.703,1.219,0.918,2.046
				C22.532-129.49,22.639-128.51,22.639-127.377z M15.08-127.436c0,0.202,0.001,0.403,0.005,0.605s0.015,0.397,0.034,0.586
				l5.4-3.994c-0.098-0.332-0.221-0.635-0.371-0.908s-0.329-0.51-0.537-0.708s-0.446-0.354-0.713-0.464
				c-0.267-0.11-0.566-0.166-0.898-0.166c-0.443,0-0.845,0.107-1.206,0.322s-0.669,0.535-0.923,0.962
				c-0.254,0.427-0.449,0.954-0.586,1.582C15.148-128.991,15.08-128.263,15.08-127.436z M20.92-127.318
				c0-0.222-0.008-0.441-0.024-0.659c-0.016-0.218-0.034-0.432-0.054-0.64l-5.4,4.014c0.098,0.34,0.221,0.651,0.371,0.938
				s0.331,0.532,0.542,0.737s0.453,0.363,0.723,0.479s0.578,0.172,0.923,0.172c0.443,0,0.845-0.107,1.206-0.322
				s0.669-0.534,0.923-0.957c0.254-0.424,0.449-0.949,0.586-1.577C20.853-125.762,20.92-126.491,20.92-127.318z"/>
		</g>
	</g>
	<g id="node3">
		<title>2</title>
		<ellipse fill="none" stroke="#000000" stroke-width="2" cx="214" cy="-234" rx="18" ry="18"/>
		<g enable-background="new    ">
			<path d="M218.346-229h-8.408v-1.523l3.301-3.281c0.541-0.534,0.979-0.996,1.317-1.387s0.603-0.747,0.791-1.069
				c0.189-0.322,0.316-0.627,0.381-0.913c0.065-0.286,0.099-0.596,0.099-0.928c0-0.313-0.043-0.61-0.127-0.894
				c-0.084-0.284-0.216-0.532-0.392-0.747c-0.176-0.215-0.404-0.384-0.684-0.508c-0.28-0.124-0.615-0.186-1.006-0.186
				c-0.541,0-1.032,0.12-1.475,0.361c-0.443,0.241-0.85,0.554-1.221,0.938l-0.938-1.123c0.482-0.508,1.037-0.915,1.665-1.221
				s1.359-0.459,2.192-0.459c0.566,0,1.082,0.085,1.549,0.254c0.465,0.169,0.867,0.413,1.205,0.732
				c0.338,0.319,0.602,0.71,0.786,1.172c0.185,0.462,0.278,0.983,0.278,1.563c0,0.488-0.064,0.94-0.195,1.357
				s-0.327,0.832-0.591,1.245c-0.265,0.413-0.597,0.842-0.996,1.284s-0.874,0.928-1.421,1.455l-2.314,2.256h6.201V-229H218.346z"/>
		</g>
	</g>
	<g id="edge2">
		<title>0-&gt;2</title>
		<path fill="none" stroke="#000000" stroke-width="2" d="M33.735-135.161C44.306-141.668,58.932-150.539,72-158
			c40.397-23.064,88.203-48.436,116.488-63.253"/>
		<polygon stroke="#000000" points="197.634,-226.032 186.687,-225.389 192.971,-224.16 188.54,-221.844 188.771,-221.401 
			189.003,-220.958 193.434,-223.273 190.855,-217.412 		"/>
		<g enable-background="new    ">
			<path fill="#0000FF" d="M77.821-221.66c0.747,0,1.376,0.097,1.89,0.29c0.513,0.193,0.926,0.467,1.24,0.82
				c0.314,0.353,0.537,0.773,0.67,1.26c0.133,0.487,0.2,1.023,0.2,1.61v6.5c-0.16,0.026-0.383,0.063-0.67,0.109
				c-0.287,0.047-0.61,0.09-0.97,0.13c-0.36,0.04-0.75,0.077-1.17,0.11c-0.42,0.033-0.837,0.05-1.25,0.05
				c-0.587,0-1.127-0.06-1.62-0.18c-0.493-0.12-0.92-0.31-1.28-0.57c-0.36-0.26-0.64-0.603-0.84-1.029c-0.2-0.427-0.3-0.94-0.3-1.54
				c0-0.573,0.117-1.067,0.35-1.48c0.233-0.413,0.55-0.746,0.95-1c0.4-0.253,0.866-0.439,1.4-0.56
				c0.533-0.12,1.093-0.181,1.68-0.181c0.187,0,0.38,0.011,0.58,0.03c0.2,0.021,0.39,0.047,0.57,0.08s0.336,0.063,0.47,0.09
				c0.133,0.027,0.227,0.047,0.28,0.061v-0.521c0-0.307-0.034-0.61-0.1-0.91c-0.067-0.3-0.187-0.566-0.36-0.8
				c-0.174-0.233-0.41-0.42-0.71-0.56c-0.3-0.141-0.69-0.21-1.17-0.21c-0.613,0-1.15,0.043-1.61,0.13
				c-0.46,0.087-0.803,0.177-1.03,0.27l-0.22-1.54c0.24-0.106,0.64-0.21,1.2-0.31C76.562-221.61,77.168-221.66,77.821-221.66z
				 M77.981-212.34c0.44,0,0.83-0.01,1.17-0.03c0.34-0.02,0.623-0.057,0.85-0.11v-3.1c-0.134-0.066-0.35-0.123-0.65-0.17
				c-0.3-0.047-0.664-0.07-1.09-0.07c-0.28,0-0.577,0.021-0.89,0.061s-0.6,0.123-0.86,0.25c-0.26,0.127-0.477,0.3-0.65,0.52
				c-0.173,0.221-0.26,0.51-0.26,0.87c0,0.667,0.213,1.13,0.64,1.39C76.668-212.47,77.248-212.34,77.981-212.34z"/>
			<path fill="#0000FF" d="M89.421-210.76c-0.84,0-1.577-0.134-2.21-0.4c-0.634-0.267-1.167-0.64-1.6-1.12
				c-0.434-0.479-0.757-1.05-0.97-1.71c-0.213-0.66-0.32-1.39-0.32-2.188c0-0.801,0.117-1.533,0.35-2.2s0.563-1.243,0.99-1.73
				c0.427-0.486,0.95-0.866,1.57-1.14c0.62-0.273,1.31-0.41,2.07-0.41c0.467,0,0.933,0.04,1.4,0.12
				c0.467,0.08,0.913,0.207,1.34,0.38l-0.42,1.58c-0.28-0.133-0.603-0.24-0.97-0.32c-0.367-0.08-0.757-0.119-1.17-0.119
				c-1.04,0-1.837,0.326-2.39,0.979c-0.554,0.653-0.83,1.606-0.83,2.86c0,0.56,0.063,1.073,0.19,1.54
				c0.126,0.467,0.327,0.866,0.6,1.199c0.273,0.334,0.623,0.591,1.05,0.771c0.427,0.18,0.947,0.27,1.56,0.27
				c0.493,0,0.94-0.046,1.34-0.14c0.4-0.093,0.713-0.193,0.94-0.3l0.26,1.56c-0.107,0.067-0.26,0.13-0.46,0.19
				c-0.2,0.06-0.427,0.113-0.68,0.16c-0.253,0.046-0.523,0.086-0.81,0.12C89.964-210.777,89.688-210.76,89.421-210.76z"/>
			<path fill="#0000FF" d="M98.261-226.52c0.546,0,1.017,0.039,1.41,0.119s0.67,0.154,0.83,0.221l-0.34,1.6
				c-0.16-0.08-0.387-0.156-0.68-0.229c-0.293-0.073-0.653-0.11-1.08-0.11c-0.867,0-1.473,0.236-1.82,0.71s-0.52,1.11-0.52,1.91
				v0.899h4v1.561h-4v8.84h-1.86v-11.34c0-1.333,0.327-2.363,0.98-3.09C95.834-226.156,96.861-226.52,98.261-226.52z"/>
			<path fill="#0000FF" d="M108.36-216.98c0,1.707,0.247,3.287,0.74,4.74c0.493,1.453,1.22,2.8,2.18,4.04l-1.32,0.9
				c-1.04-1.267-1.877-2.724-2.51-4.37c-0.633-1.646-0.95-3.417-0.95-5.311c0-1.893,0.316-3.663,0.95-5.31
				c0.634-1.647,1.47-3.104,2.51-4.37l1.32,0.9c-0.96,1.24-1.687,2.587-2.18,4.04C108.607-220.267,108.36-218.687,108.36-216.98z"/>
			<path fill="#0000FF" d="M120.76-221.32c0,0.48-0.097,0.943-0.29,1.391c-0.193,0.446-0.45,0.887-0.77,1.319
				c-0.32,0.434-0.68,0.86-1.08,1.28s-0.8,0.83-1.2,1.23c-0.227,0.227-0.49,0.493-0.79,0.8c-0.3,0.307-0.583,0.627-0.85,0.96
				c-0.267,0.333-0.49,0.653-0.67,0.96c-0.18,0.307-0.27,0.573-0.27,0.8h6.38v1.58h-8.4c-0.013-0.08-0.02-0.16-0.02-0.24
				c0-0.08,0-0.153,0-0.22c0-0.627,0.103-1.21,0.31-1.75s0.477-1.05,0.81-1.53c0.333-0.479,0.707-0.933,1.12-1.359
				c0.413-0.427,0.82-0.841,1.22-1.24c0.333-0.32,0.65-0.637,0.95-0.95s0.566-0.627,0.8-0.94c0.233-0.313,0.42-0.636,0.56-0.97
				c0.14-0.333,0.21-0.687,0.21-1.06c0-0.4-0.063-0.74-0.19-1.021c-0.127-0.279-0.297-0.513-0.51-0.7s-0.463-0.322-0.75-0.409
				c-0.287-0.087-0.59-0.13-0.91-0.13c-0.387,0-0.74,0.053-1.06,0.159c-0.32,0.107-0.607,0.23-0.86,0.37
				c-0.253,0.141-0.467,0.287-0.64,0.44c-0.173,0.153-0.307,0.27-0.4,0.35l-0.92-1.319c0.12-0.134,0.3-0.297,0.54-0.49
				c0.24-0.193,0.526-0.377,0.86-0.55c0.333-0.174,0.707-0.32,1.12-0.44s0.86-0.18,1.34-0.18c1.453,0,2.543,0.337,3.27,1.01
				S120.76-222.547,120.76-221.32z"/>
			<path fill="#0000FF" d="M126.26-213.28c0.013,0.107,0.02,0.21,0.02,0.312c0,0.1,0,0.203,0,0.31c0,0.84-0.124,1.67-0.37,2.49
				c-0.247,0.82-0.583,1.604-1.01,2.35l-1.44-0.46c0.333-0.68,0.553-1.37,0.66-2.069c0.106-0.7,0.16-1.357,0.16-1.971
				c0-0.173-0.003-0.34-0.01-0.5c-0.007-0.16-0.017-0.313-0.03-0.46h2.02V-213.28z"/>
			<path fill="#0000FF" d="M130.14-223.28c-0.333,0-0.617-0.109-0.85-0.33c-0.233-0.22-0.35-0.517-0.35-0.89s0.117-0.67,0.35-0.89
				c0.233-0.221,0.517-0.33,0.85-0.33s0.617,0.109,0.85,0.33c0.233,0.22,0.35,0.517,0.35,0.89s-0.117,0.67-0.35,0.89
				C130.757-223.39,130.473-223.28,130.14-223.28z M131.08-211h-1.86v-10.4h1.86V-211z"/>
			<path fill="#0000FF" d="M134.28-221.1c0.426-0.107,0.993-0.221,1.7-0.341c0.707-0.119,1.52-0.18,2.44-0.18
				c0.826,0,1.513,0.117,2.06,0.351s0.983,0.56,1.31,0.979s0.557,0.924,0.69,1.51c0.133,0.587,0.2,1.233,0.2,1.94v5.84h-1.86v-5.44
				c0-0.64-0.043-1.187-0.13-1.64c-0.086-0.453-0.23-0.82-0.43-1.1c-0.2-0.28-0.467-0.483-0.8-0.61s-0.747-0.19-1.24-0.19
				c-0.2,0-0.407,0.008-0.62,0.021c-0.213,0.014-0.417,0.03-0.61,0.05c-0.193,0.021-0.367,0.044-0.521,0.07
				c-0.153,0.026-0.264,0.047-0.33,0.06v8.78h-1.86V-221.1L134.28-221.1z"/>
			<path fill="#0000FF" d="M149.82-226.52c0.546,0,1.017,0.039,1.41,0.119s0.67,0.154,0.83,0.221l-0.34,1.6
				c-0.16-0.08-0.387-0.156-0.68-0.229c-0.293-0.073-0.653-0.11-1.08-0.11c-0.867,0-1.473,0.236-1.82,0.71
				c-0.347,0.474-0.52,1.11-0.52,1.91v0.899h4v1.561h-4v8.84h-1.86v-11.34c0-1.333,0.327-2.363,0.98-3.09
				C147.393-226.156,148.419-226.52,149.82-226.52z"/>
			<path fill="#0000FF" d="M155.719-216.98c0-1.706-0.247-3.286-0.74-4.739c-0.493-1.453-1.22-2.8-2.18-4.04l1.32-0.9
				c1.04,1.267,1.876,2.724,2.51,4.37c0.633,1.646,0.95,3.417,0.95,5.31c0,1.894-0.317,3.664-0.95,5.311
				c-0.634,1.646-1.47,3.104-2.51,4.37l-1.32-0.9c0.96-1.24,1.687-2.587,2.18-4.04C155.472-213.691,155.719-215.273,155.719-216.98z
				"/>
		</g>
	</g>
	<g id="node5">
		<title>3</title>
		<ellipse fill="none" stroke="#000000" stroke-width="2" cx="214" cy="-126" rx="18" ry="18"/>
		<g enable-background="new    ">
			<path d="M218.102-124.877c0,0.561-0.112,1.086-0.342,1.577c-0.229,0.491-0.57,0.921-1.025,1.289
				c-0.454,0.368-1.028,0.657-1.719,0.868c-0.689,0.213-1.494,0.317-2.412,0.317c-0.508,0-0.963-0.017-1.367-0.049
				c-0.404-0.032-0.781-0.075-1.133-0.127v-1.522c0.404,0.07,0.83,0.127,1.279,0.166c0.449,0.039,0.908,0.059,1.377,0.059
				c0.638,0,1.183-0.057,1.636-0.171c0.452-0.114,0.821-0.278,1.108-0.493s0.494-0.477,0.625-0.781s0.195-0.65,0.195-1.035
				c0-0.352-0.078-0.656-0.234-0.918c-0.156-0.261-0.376-0.479-0.658-0.654c-0.283-0.175-0.623-0.308-1.017-0.396
				c-0.394-0.088-0.825-0.132-1.294-0.132h-1.455v-1.396h1.475c0.384,0,0.734-0.051,1.05-0.151c0.315-0.101,0.586-0.246,0.811-0.435
				s0.396-0.422,0.518-0.698s0.182-0.591,0.182-0.942c0-0.684-0.209-1.182-0.625-1.494s-1.029-0.469-1.836-0.469
				c-0.43,0-0.873,0.042-1.328,0.127s-0.944,0.212-1.465,0.381v-1.484c0.221-0.078,0.458-0.148,0.708-0.21s0.501-0.114,0.752-0.156
				s0.5-0.075,0.747-0.098c0.247-0.023,0.485-0.034,0.713-0.034c0.677,0,1.273,0.073,1.787,0.22c0.514,0.147,0.943,0.356,1.289,0.63
				s0.604,0.605,0.781,0.996c0.176,0.391,0.264,0.83,0.264,1.318c0,0.729-0.188,1.341-0.563,1.836
				c-0.373,0.495-0.888,0.889-1.537,1.182c0.332,0.052,0.658,0.156,0.98,0.313c0.322,0.157,0.611,0.356,0.869,0.601
				c0.257,0.245,0.466,0.532,0.625,0.864C218.021-125.646,218.102-125.28,218.102-124.877z"/>
		</g>
	</g>
	<g id="edge4">
		<title>0-&gt;3</title>
		<path fill="none" stroke="#FF0000" stroke-width="2" d="M36.167-124.375C46.533-123.477,60.013-122.452,72-122
			c39.083,1.473,48.917,1.473,88,0c8.335-0.314,17.392-0.905,25.621-1.538"/>
		<polygon fill="#FF0000" stroke="#FF0000" points="195.833,-124.375 185.499,-128.043 190.809,-124.465 185.825,-124.057 
			185.866,-123.559 185.907,-123.061 190.89,-123.468 186.234,-119.073 		"/>
		<g enable-background="new    ">
			<path fill="#0000FF" d="M94.941-127.76c-0.84,0-1.577-0.134-2.21-0.4c-0.634-0.267-1.167-0.64-1.6-1.12
				c-0.434-0.479-0.757-1.05-0.97-1.71c-0.213-0.66-0.32-1.39-0.32-2.189c0-0.801,0.117-1.533,0.35-2.2s0.563-1.243,0.99-1.73
				c0.427-0.486,0.95-0.866,1.57-1.14c0.62-0.273,1.31-0.41,2.07-0.41c0.467,0,0.933,0.04,1.4,0.12
				c0.467,0.08,0.913,0.207,1.34,0.38l-0.42,1.58c-0.28-0.133-0.603-0.24-0.97-0.32c-0.367-0.08-0.757-0.119-1.17-0.119
				c-1.04,0-1.837,0.326-2.39,0.979c-0.554,0.653-0.83,1.606-0.83,2.86c0,0.56,0.063,1.073,0.19,1.54
				c0.126,0.467,0.327,0.866,0.6,1.199c0.273,0.334,0.623,0.591,1.05,0.771c0.427,0.18,0.947,0.27,1.56,0.27
				c0.493,0,0.94-0.046,1.34-0.14c0.4-0.093,0.713-0.193,0.94-0.3l0.26,1.56c-0.107,0.067-0.26,0.13-0.46,0.19
				c-0.2,0.06-0.427,0.113-0.68,0.16c-0.253,0.046-0.523,0.086-0.81,0.12C95.484-127.777,95.208-127.76,94.941-127.76z"/>
			<path fill="#0000FF" d="M106.161-133.98c0,1.707,0.247,3.287,0.74,4.74c0.493,1.453,1.22,2.8,2.18,4.04l-1.32,0.9
				c-1.04-1.267-1.877-2.724-2.51-4.37s-0.95-3.417-0.95-5.311c0-1.893,0.316-3.663,0.95-5.31s1.47-3.104,2.51-4.37l1.32,0.9
				c-0.96,1.24-1.687,2.587-2.18,4.04C106.407-137.267,106.161-135.687,106.161-133.98z"/>
			<path fill="#0000FF" d="M111.08-139c0.76-0.293,1.5-0.67,2.22-1.13c0.72-0.46,1.38-1.037,1.98-1.73h1.32V-128h-1.86v-11.28
				c-0.16,0.147-0.357,0.3-0.59,0.46c-0.233,0.16-0.487,0.313-0.76,0.46s-0.56,0.287-0.86,0.42c-0.3,0.134-0.59,0.247-0.87,0.341
				L111.08-139z"/>
			<path fill="#0000FF" d="M124.06-130.28c0.013,0.107,0.02,0.21,0.02,0.312c0,0.1,0,0.203,0,0.31c0,0.84-0.124,1.67-0.37,2.49
				c-0.247,0.82-0.583,1.604-1.01,2.351l-1.44-0.461c0.333-0.68,0.553-1.37,0.66-2.069c0.106-0.7,0.16-1.357,0.16-1.971
				c0-0.173-0.003-0.34-0.01-0.5c-0.007-0.16-0.017-0.313-0.03-0.46h2.02V-130.28z"/>
			<path fill="#0000FF" d="M127.28-139c0.76-0.293,1.5-0.67,2.22-1.13s1.38-1.037,1.98-1.73h1.32V-128h-1.86v-11.28
				c-0.16,0.147-0.357,0.3-0.59,0.46c-0.233,0.16-0.487,0.313-0.76,0.46s-0.56,0.287-0.86,0.42c-0.3,0.134-0.59,0.247-0.87,0.341
				L127.28-139z"/>
			<path fill="#0000FF" d="M139.76-133.98c0-1.706-0.247-3.286-0.74-4.739c-0.493-1.453-1.22-2.8-2.18-4.04l1.32-0.9
				c1.04,1.267,1.876,2.724,2.51,4.37c0.633,1.646,0.95,3.417,0.95,5.31c0,1.894-0.317,3.664-0.95,5.311
				c-0.634,1.646-1.47,3.104-2.51,4.37l-1.32-0.9c0.96-1.24,1.687-2.587,2.18-4.04C139.513-130.691,139.76-132.273,139.76-133.98z"
				/>
		</g>
	</g>
	<g id="node11">
		<title>5</title>
		<ellipse fill="none" stroke="#000000" stroke-width="2" cx="214" cy="-18" rx="18" ry="18"/>
		<g enable-background="new    ">
			<path d="M218.023-17.082c0,0.632-0.138,1.208-0.41,1.729c-0.273,0.521-0.649,0.97-1.129,1.344
				c-0.479,0.374-1.043,0.666-1.693,0.874c-0.651,0.208-1.354,0.313-2.109,0.313c-0.189,0-0.392-0.005-0.61-0.015
				c-0.218-0.01-0.436-0.021-0.649-0.039s-0.425-0.034-0.63-0.055c-0.205-0.02-0.389-0.041-0.552-0.067v-1.543
				c0.352,0.085,0.753,0.146,1.206,0.187c0.453,0.039,0.91,0.059,1.372,0.059c0.521,0,0.99-0.063,1.406-0.186
				c0.416-0.125,0.771-0.302,1.064-0.533c0.293-0.23,0.518-0.51,0.674-0.84c0.156-0.328,0.234-0.697,0.234-1.107
				c0-0.794-0.285-1.372-0.854-1.732c-0.569-0.361-1.388-0.543-2.456-0.543h-2.422v-6.522h6.875v1.483h-5.273v3.584h1.113
				c0.612,0,1.208,0.057,1.787,0.166c0.58,0.11,1.096,0.305,1.549,0.582c0.451,0.275,0.816,0.646,1.094,1.112
				C217.886-18.367,218.023-17.785,218.023-17.082z"/>
		</g>
	</g>
	<g id="edge10">
		<title>0-&gt;5</title>
		<path fill="none" stroke="#FF0000" stroke-width="2" d="M31.206-113.498C41.432-103.516,56.766-89.646,72-80
			c37.589,23.805,85.878,42.855,115.08,53.277"/>
		<polygon fill="#FF0000" stroke="#FF0000" points="196.564,-23.402 188.612,-30.954 192.01,-25.525 187.291,-27.18 
			187.125,-26.707 186.96,-26.234 191.679,-24.582 185.639,-22.459 		"/>
		<g enable-background="new    ">
			<path fill="#0000FF" d="M114.803-82.52c0.546,0,1.017,0.039,1.41,0.119s0.67,0.153,0.83,0.221l-0.34,1.6
				c-0.16-0.08-0.387-0.156-0.68-0.229c-0.293-0.073-0.653-0.11-1.08-0.11c-0.867,0-1.473,0.235-1.82,0.71s-0.52,1.109-0.52,1.91
				v0.898h4v1.562h-4V-67h-1.86v-11.34c0-1.333,0.327-2.363,0.98-3.09C112.376-82.156,113.403-82.52,114.803-82.52z"/>
			<path fill="#0000FF" d="M124.902-72.98c0,1.707,0.247,3.287,0.74,4.74c0.493,1.453,1.22,2.801,2.18,4.04l-1.32,0.9
				c-1.04-1.267-1.877-2.724-2.51-4.37c-0.633-1.646-0.95-3.417-0.95-5.311s0.316-3.664,0.95-5.311
				c0.634-1.646,1.47-3.104,2.51-4.37l1.32,0.9c-0.96,1.239-1.687,2.587-2.18,4.04C125.149-76.268,124.902-74.688,124.902-72.98z"/>
			<path fill="#0000FF" d="M128.762-71.8c0.253-0.587,0.6-1.271,1.04-2.05c0.44-0.78,0.937-1.584,1.49-2.41
				c0.553-0.827,1.146-1.641,1.78-2.44c0.634-0.799,1.27-1.521,1.91-2.159h1.78v8.801h1.64v1.52h-1.64V-67h-1.8v-3.54h-6.2V-71.8z
				 M134.962-78.66c-0.4,0.428-0.803,0.903-1.21,1.43c-0.407,0.527-0.804,1.078-1.19,1.65c-0.387,0.573-0.75,1.16-1.09,1.76
				c-0.34,0.602-0.643,1.188-0.91,1.762h4.4V-78.66L134.962-78.66z"/>
			<path fill="#0000FF" d="M142.802-69.28c0.013,0.107,0.021,0.21,0.021,0.312c0,0.1,0,0.203,0,0.31c0,0.841-0.124,1.67-0.37,2.49
				c-0.247,0.819-0.583,1.604-1.01,2.351l-1.44-0.461c0.333-0.68,0.553-1.369,0.66-2.068c0.106-0.7,0.16-1.357,0.16-1.971
				c0-0.174-0.003-0.341-0.01-0.5c-0.007-0.16-0.017-0.313-0.03-0.461L142.802-69.28L142.802-69.28z"/>
			<path fill="#0000FF" d="M146.682-79.28c-0.333,0-0.617-0.108-0.85-0.329s-0.35-0.518-0.35-0.891s0.117-0.67,0.35-0.891
				s0.517-0.329,0.85-0.329s0.617,0.108,0.85,0.329c0.233,0.221,0.35,0.518,0.35,0.891s-0.117,0.67-0.35,0.891
				C147.299-79.391,147.015-79.28,146.682-79.28z M147.622-67h-1.86v-10.4h1.86V-67z"/>
			<path fill="#0000FF" d="M150.822-77.1c0.426-0.107,0.993-0.221,1.7-0.342c0.707-0.119,1.52-0.18,2.44-0.18
				c0.826,0,1.513,0.117,2.06,0.352c0.547,0.233,0.983,0.56,1.31,0.979s0.557,0.924,0.69,1.51c0.133,0.588,0.2,1.233,0.2,1.94V-67
				h-1.86v-5.439c0-0.641-0.043-1.188-0.13-1.641c-0.086-0.453-0.23-0.82-0.43-1.1c-0.2-0.28-0.467-0.483-0.8-0.61
				s-0.747-0.19-1.24-0.19c-0.2,0-0.407,0.008-0.62,0.021s-0.417,0.029-0.61,0.05c-0.193,0.021-0.367,0.044-0.52,0.07
				c-0.153,0.026-0.264,0.047-0.33,0.06V-67h-1.86L150.822-77.1L150.822-77.1z"/>
			<path fill="#0000FF" d="M166.362-82.52c0.546,0,1.017,0.039,1.41,0.119s0.67,0.153,0.83,0.221l-0.34,1.6
				c-0.16-0.08-0.387-0.156-0.68-0.229c-0.293-0.073-0.653-0.11-1.08-0.11c-0.867,0-1.473,0.235-1.82,0.71
				c-0.347,0.475-0.52,1.109-0.52,1.91v0.898h4v1.562h-4V-67h-1.86v-11.34c0-1.333,0.327-2.363,0.98-3.09
				C163.935-82.156,164.961-82.52,166.362-82.52z"/>
			<path fill="#0000FF" d="M172.261-72.98c0-1.705-0.247-3.285-0.74-4.738s-1.22-2.801-2.18-4.04l1.32-0.9
				c1.04,1.267,1.876,2.724,2.51,4.37c0.633,1.646,0.95,3.417,0.95,5.311s-0.317,3.664-0.95,5.311
				c-0.634,1.646-1.47,3.104-2.51,4.37l-1.32-0.9c0.96-1.239,1.687-2.587,2.18-4.04S172.261-71.273,172.261-72.98z"/>
		</g>
	</g>
	<g id="node7">
		<title>1</title>
		<ellipse fill="none" stroke="#000000" stroke-width="2" cx="410" cy="-180" rx="18" ry="18"/>
		<g enable-background="new    ">
			<path d="M414.238-175h-8.019v-1.582h3.281v-9.316l-3.057,1.66l-0.625-1.445l4.063-2.139h1.504v11.24h2.853V-175L414.238-175z"/>
		</g>
	</g>
	<g id="edge6">
		<title>3-&gt;1</title>
		<path fill="none" stroke="#FF0000" stroke-width="2" d="M231.54-130.604c33.717-9.385,110.631-30.794,151.236-42.096"/>
		<polygon fill="#FF0000" stroke="#FF0000" points="392.502,-175.408 381.661,-177.061 387.551,-174.549 382.734,-173.208 
			382.868,-172.726 383.002,-172.244 387.819,-173.585 384.075,-168.391 		"/>
		<g enable-background="new    ">
			<path fill="#0000FF" d="M273.821-180.66c0.747,0,1.376,0.097,1.89,0.29c0.514,0.193,0.928,0.467,1.24,0.82
				c0.313,0.353,0.537,0.773,0.67,1.26c0.133,0.487,0.2,1.023,0.2,1.61v6.5c-0.16,0.026-0.384,0.063-0.671,0.109
				c-0.286,0.047-0.609,0.09-0.969,0.13c-0.36,0.04-0.75,0.077-1.171,0.11c-0.42,0.033-0.838,0.05-1.25,0.05
				c-0.588,0-1.127-0.06-1.62-0.18c-0.492-0.12-0.921-0.31-1.279-0.57c-0.359-0.26-0.641-0.603-0.84-1.029
				c-0.2-0.427-0.301-0.94-0.301-1.54c0-0.573,0.116-1.067,0.351-1.48c0.233-0.413,0.55-0.746,0.95-1
				c0.399-0.253,0.865-0.439,1.399-0.56c0.533-0.12,1.093-0.181,1.681-0.181c0.187,0,0.379,0.011,0.58,0.03
				c0.198,0.021,0.39,0.047,0.569,0.08c0.181,0.033,0.336,0.063,0.47,0.09c0.133,0.027,0.227,0.047,0.28,0.061v-0.521
				c0-0.307-0.034-0.61-0.101-0.91c-0.067-0.3-0.188-0.566-0.36-0.8s-0.41-0.42-0.709-0.56c-0.301-0.141-0.69-0.21-1.171-0.21
				c-0.613,0-1.148,0.043-1.61,0.13c-0.459,0.087-0.803,0.177-1.028,0.27l-0.222-1.54c0.24-0.106,0.642-0.21,1.201-0.31
				C272.563-180.61,273.168-180.66,273.821-180.66z M273.98-171.34c0.44,0,0.83-0.01,1.17-0.03c0.341-0.02,0.623-0.057,0.852-0.11
				v-3.1c-0.135-0.066-0.352-0.123-0.65-0.17c-0.301-0.047-0.664-0.07-1.09-0.07c-0.279,0-0.576,0.021-0.891,0.061
				c-0.313,0.04-0.6,0.123-0.859,0.25c-0.259,0.127-0.477,0.3-0.649,0.52c-0.175,0.221-0.261,0.51-0.261,0.87
				c0,0.667,0.213,1.13,0.641,1.39C272.668-171.47,273.248-171.34,273.98-171.34z"/>
			<path fill="#0000FF" d="M285.422-169.76c-0.841,0-1.578-0.134-2.211-0.4c-0.633-0.266-1.166-0.64-1.6-1.12
				c-0.435-0.479-0.758-1.05-0.971-1.71c-0.214-0.66-0.32-1.39-0.32-2.188c0-0.801,0.117-1.533,0.352-2.2
				c0.232-0.667,0.563-1.243,0.989-1.73c0.427-0.486,0.95-0.866,1.569-1.14c0.621-0.274,1.311-0.41,2.069-0.41
				c0.468,0,0.935,0.04,1.4,0.12s0.913,0.207,1.34,0.38l-0.42,1.58c-0.279-0.133-0.604-0.24-0.97-0.32
				c-0.367-0.08-0.758-0.119-1.17-0.119c-1.041,0-1.838,0.326-2.391,0.979c-0.555,0.653-0.83,1.606-0.83,2.86
				c0,0.56,0.063,1.073,0.189,1.54c0.126,0.467,0.326,0.866,0.6,1.199c0.273,0.334,0.623,0.591,1.051,0.771
				c0.426,0.18,0.946,0.27,1.561,0.27c0.492,0,0.939-0.046,1.341-0.14c0.399-0.093,0.713-0.193,0.938-0.3l0.261,1.56
				c-0.107,0.067-0.261,0.13-0.46,0.19c-0.2,0.06-0.428,0.113-0.682,0.16c-0.252,0.046-0.522,0.086-0.809,0.12
				C285.965-169.777,285.688-169.76,285.422-169.76z"/>
			<path fill="#0000FF" d="M294.262-185.52c0.546,0,1.017,0.039,1.409,0.119c0.394,0.08,0.671,0.154,0.83,0.221l-0.34,1.6
				c-0.16-0.08-0.387-0.156-0.681-0.229c-0.293-0.073-0.652-0.11-1.08-0.11c-0.866,0-1.474,0.236-1.819,0.71
				c-0.347,0.474-0.521,1.11-0.521,1.91v0.899h3.999v1.561h-3.999v8.84h-1.859v-11.34c0-1.333,0.326-2.363,0.98-3.09
				C291.834-185.156,292.861-185.52,294.262-185.52z"/>
			<path fill="#0000FF" d="M304.36-175.98c0,1.707,0.247,3.287,0.739,4.74c0.493,1.453,1.221,2.8,2.181,4.04l-1.319,0.9
				c-1.041-1.267-1.877-2.724-2.511-4.37s-0.95-3.417-0.95-5.311c0-1.893,0.316-3.663,0.95-5.31s1.47-3.104,2.511-4.37l1.319,0.9
				c-0.96,1.24-1.688,2.587-2.181,4.04C304.607-179.268,304.36-177.687,304.36-175.98z"/>
			<path fill="#0000FF" d="M316.76-180.32c0,0.48-0.096,0.943-0.289,1.391c-0.192,0.446-0.449,0.887-0.771,1.319
				c-0.319,0.434-0.681,0.86-1.079,1.28c-0.4,0.42-0.801,0.83-1.201,1.23c-0.227,0.227-0.49,0.493-0.789,0.8
				c-0.301,0.307-0.584,0.627-0.851,0.96c-0.268,0.333-0.489,0.653-0.67,0.96c-0.182,0.307-0.271,0.573-0.271,0.8h6.381v1.58h-8.399
				c-0.015-0.08-0.021-0.16-0.021-0.24c0-0.08,0-0.153,0-0.22c0-0.627,0.104-1.21,0.311-1.75c0.206-0.54,0.477-1.05,0.81-1.53
				c0.334-0.479,0.707-0.933,1.121-1.359c0.412-0.427,0.819-0.841,1.219-1.24c0.334-0.32,0.65-0.637,0.951-0.95
				c0.299-0.313,0.566-0.627,0.799-0.94c0.234-0.313,0.42-0.636,0.562-0.97c0.141-0.333,0.21-0.687,0.21-1.06
				c0-0.4-0.063-0.74-0.19-1.021c-0.127-0.279-0.297-0.513-0.51-0.7s-0.463-0.322-0.75-0.409c-0.287-0.087-0.59-0.13-0.91-0.13
				c-0.387,0-0.74,0.053-1.06,0.159c-0.319,0.107-0.606,0.23-0.86,0.37c-0.253,0.141-0.467,0.287-0.64,0.44
				c-0.174,0.153-0.308,0.27-0.399,0.35l-0.92-1.319c0.119-0.134,0.299-0.297,0.539-0.49c0.24-0.193,0.527-0.377,0.86-0.55
				c0.333-0.174,0.705-0.32,1.119-0.44c0.413-0.12,0.859-0.18,1.341-0.18c1.452,0,2.543,0.337,3.27,1.01
				C316.396-182.496,316.76-181.547,316.76-180.32z"/>
			<path fill="#0000FF" d="M322.26-172.28c0.015,0.107,0.021,0.21,0.021,0.312c0,0.1,0,0.203,0,0.31c0,0.84-0.124,1.67-0.37,2.49
				c-0.247,0.82-0.584,1.604-1.01,2.35l-1.44-0.46c0.333-0.68,0.554-1.37,0.66-2.069c0.105-0.7,0.16-1.357,0.16-1.971
				c0-0.173-0.003-0.34-0.012-0.5c-0.006-0.16-0.016-0.313-0.028-0.46h2.019V-172.28z"/>
			<path fill="#0000FF" d="M326.141-182.28c-0.334,0-0.616-0.109-0.851-0.33c-0.233-0.22-0.351-0.517-0.351-0.89
				s0.116-0.67,0.351-0.89c0.233-0.221,0.517-0.33,0.851-0.33c0.332,0,0.616,0.109,0.851,0.33c0.231,0.22,0.35,0.517,0.35,0.89
				s-0.117,0.67-0.35,0.89C326.757-182.39,326.473-182.28,326.141-182.28z M327.08-170h-1.859v-10.4h1.859V-170z"/>
			<path fill="#0000FF" d="M330.279-180.1c0.427-0.107,0.994-0.221,1.699-0.341c0.706-0.119,1.521-0.18,2.44-0.18
				c0.826,0,1.513,0.117,2.06,0.351c0.548,0.234,0.983,0.56,1.311,0.979c0.327,0.42,0.557,0.924,0.689,1.51
				c0.135,0.587,0.2,1.233,0.2,1.94v5.84h-1.858v-5.44c0-0.64-0.044-1.187-0.131-1.64c-0.086-0.453-0.23-0.82-0.431-1.1
				c-0.2-0.28-0.467-0.483-0.801-0.61c-0.332-0.127-0.746-0.19-1.239-0.19c-0.2,0-0.406,0.008-0.62,0.021
				c-0.213,0.014-0.417,0.03-0.608,0.05c-0.193,0.021-0.367,0.044-0.521,0.07c-0.153,0.026-0.264,0.047-0.33,0.06v8.78h-1.859
				V-180.1L330.279-180.1z"/>
			<path fill="#0000FF" d="M345.82-185.52c0.546,0,1.016,0.039,1.408,0.119c0.394,0.08,0.672,0.154,0.83,0.221l-0.34,1.6
				c-0.16-0.08-0.387-0.156-0.681-0.229c-0.293-0.073-0.652-0.11-1.08-0.11c-0.866,0-1.473,0.236-1.819,0.71
				c-0.346,0.474-0.521,1.11-0.521,1.91v0.899h4v1.561h-4v8.84h-1.859v-11.34c0-1.333,0.326-2.363,0.98-3.09
				C343.393-185.156,344.42-185.52,345.82-185.52z"/>
			<path fill="#0000FF" d="M351.719-175.98c0-1.706-0.246-3.286-0.74-4.739c-0.491-1.453-1.219-2.8-2.18-4.04l1.32-0.9
				c1.04,1.267,1.877,2.724,2.51,4.37s0.95,3.417,0.95,5.31c0,1.894-0.317,3.664-0.95,5.311s-1.47,3.104-2.51,4.37l-1.32-0.9
				c0.961-1.24,1.688-2.587,2.18-4.04C351.473-172.693,351.719-174.273,351.719-175.98z"/>
		</g>
	</g>
	<g id="node9">
		<title>4</title>
		<ellipse fill="none" stroke="#000000" stroke-width="2" cx="410" cy="-72" rx="18" ry="18"/>
		<g enable-background="new    ">
			<path d="M414.98-69.822h-2.179V-67h-1.737v-2.822h-6.144v-1.494l5.439-8.447h2.44v8.447h2.178v1.494H414.98z M411.064-78.123
				l-4.443,6.807h4.443V-78.123z"/>
		</g>
	</g>
	<g id="edge8">
		<title>3-&gt;4</title>
		<path fill="none" stroke="#FF0000" stroke-width="2" d="M230.366-117.555c10.37,5.396,24.508,12.179,37.634,16.555
			c38.472,12.826,84.824,21.044,113.608,25.342"/>
		<polygon fill="#FF0000" stroke="#FF0000" points="391.727,-74.201 382.47,-80.08 386.849,-75.408 381.9,-76.121 381.829,-75.626 
			381.758,-75.131 386.707,-74.418 381.188,-71.172 		"/>
		<g enable-background="new    ">
			<path fill="#0000FF" d="M284.391-122.52c0.547,0,1.019,0.039,1.41,0.119c0.393,0.08,0.67,0.153,0.83,0.221l-0.34,1.6
				c-0.16-0.08-0.387-0.156-0.68-0.229c-0.295-0.073-0.654-0.11-1.08-0.11c-0.867,0-1.475,0.235-1.82,0.71s-0.52,1.109-0.52,1.91
				v0.898h4v1.562h-4v8.84h-1.86v-11.34c0-1.333,0.327-2.363,0.979-3.09C281.964-122.156,282.99-122.52,284.391-122.52z"/>
			<path fill="#0000FF" d="M294.49-112.98c0,1.707,0.246,3.287,0.74,4.74c0.492,1.453,1.22,2.801,2.18,4.04l-1.32,0.9
				c-1.039-1.267-1.877-2.724-2.51-4.37s-0.949-3.417-0.949-5.311s0.316-3.664,0.949-5.311s1.471-3.104,2.51-4.37l1.32,0.9
				c-0.96,1.239-1.688,2.587-2.18,4.04C294.736-116.268,294.49-114.688,294.49-112.98z"/>
			<path fill="#0000FF" d="M298.35-111.8c0.254-0.587,0.602-1.271,1.041-2.05c0.439-0.78,0.937-1.584,1.49-2.41
				c0.553-0.827,1.146-1.641,1.779-2.44c0.633-0.799,1.27-1.521,1.91-2.159h1.778v8.801h1.642v1.52h-1.642v3.54h-1.799v-3.54h-6.201
				L298.35-111.8L298.35-111.8z M304.551-118.66c-0.399,0.428-0.804,0.903-1.211,1.43c-0.406,0.527-0.803,1.078-1.188,1.65
				c-0.387,0.573-0.75,1.16-1.091,1.76c-0.34,0.602-0.644,1.188-0.909,1.762h4.399V-118.66z"/>
			<path fill="#0000FF" d="M312.391-109.28c0.014,0.107,0.021,0.21,0.021,0.312c0,0.1,0,0.203,0,0.31c0,0.841-0.123,1.67-0.37,2.49
				c-0.247,0.819-0.583,1.604-1.01,2.351l-1.44-0.461c0.334-0.68,0.553-1.369,0.66-2.068c0.106-0.7,0.16-1.357,0.16-1.971
				c0-0.174-0.004-0.341-0.01-0.5c-0.009-0.16-0.019-0.313-0.03-0.461L312.391-109.28L312.391-109.28z"/>
			<path fill="#0000FF" d="M316.27-119.28c-0.332,0-0.615-0.108-0.85-0.329c-0.232-0.221-0.35-0.518-0.35-0.891
				s0.115-0.67,0.35-0.891c0.233-0.221,0.518-0.329,0.85-0.329c0.334,0,0.617,0.108,0.852,0.329
				c0.232,0.221,0.351,0.518,0.351,0.891s-0.116,0.67-0.351,0.891C316.887-119.391,316.604-119.28,316.27-119.28z M317.21-107h-1.86
				v-10.4h1.86V-107z"/>
			<path fill="#0000FF" d="M320.41-117.1c0.426-0.107,0.992-0.221,1.699-0.342c0.707-0.119,1.52-0.18,2.439-0.18
				c0.826,0,1.514,0.117,2.061,0.352c0.547,0.233,0.982,0.56,1.311,0.979c0.326,0.42,0.557,0.924,0.689,1.51
				c0.133,0.588,0.199,1.233,0.199,1.94v5.84h-1.859v-5.44c0-0.64-0.043-1.187-0.13-1.64s-0.229-0.819-0.431-1.101
				c-0.199-0.279-0.467-0.482-0.8-0.609c-0.334-0.127-0.747-0.189-1.24-0.189c-0.199,0-0.405,0.008-0.619,0.021
				c-0.215,0.015-0.417,0.03-0.61,0.05c-0.193,0.021-0.366,0.044-0.52,0.07c-0.154,0.025-0.265,0.047-0.33,0.06v8.78h-1.859V-117.1
				L320.41-117.1z"/>
			<path fill="#0000FF" d="M335.949-122.52c0.547,0,1.018,0.039,1.41,0.119c0.392,0.08,0.67,0.153,0.83,0.221l-0.341,1.6
				c-0.159-0.08-0.387-0.156-0.68-0.229c-0.294-0.073-0.654-0.11-1.08-0.11c-0.867,0-1.474,0.235-1.819,0.71
				c-0.347,0.475-0.521,1.109-0.521,1.91v0.898h4v1.562h-4v8.84h-1.86v-11.34c0-1.333,0.327-2.363,0.979-3.09
				C333.521-122.156,334.549-122.52,335.949-122.52z"/>
			<path fill="#0000FF" d="M341.85-112.98c0-1.705-0.248-3.285-0.739-4.738c-0.494-1.453-1.222-2.801-2.181-4.04l1.319-0.9
				c1.04,1.267,1.876,2.724,2.511,4.37c0.633,1.646,0.949,3.417,0.949,5.311s-0.316,3.664-0.949,5.311
				c-0.635,1.646-1.471,3.104-2.511,4.37l-1.319-0.9c0.959-1.239,1.687-2.587,2.181-4.04
				C341.602-109.693,341.85-111.273,341.85-112.98z"/>
		</g>
	</g>
</g>
</svg>
