<?xml version="1.0" encoding="utf-8"?>
<!-- Generator: Adobe Illustrator 16.0.0, SVG Export Plug-In . SVG Version: 6.00 Build 0)  -->
<!DOCTYPE svg PUBLIC "-//W3C//DTD SVG 1.1//EN" "http://www.w3.org/Graphics/SVG/1.1/DTD/svg11.dtd">
<svg version="1.1" id="图层_1" xmlns="http://www.w3.org/2000/svg" xmlns:xlink="http://www.w3.org/1999/xlink" x="0px" y="0px"
	 width="456px" height="260px" viewBox="0 0 456 260" enable-background="new 0 0 456 260" xml:space="preserve">
<g id="graph1" transform="scale(1 1) rotate(0) translate(4 256)">
	<title>G</title>
	<polygon fill="#FFFFFF" stroke="#FFFFFF" points="-4,5 -4,-256 453,-256 453,5 	"/>
	<g id="node1">
		<title>0</title>
		<ellipse fill="none" stroke="#000000" stroke-width="2" cx="18" cy="-126" rx="18" ry="18"/>
		<g enable-background="new    ">
			<path d="M22.639-127.377c0,0.977-0.098,1.867-0.293,2.671s-0.492,1.494-0.889,2.07s-0.89,1.022-1.479,1.338
				s-1.281,0.474-2.075,0.474c-0.684,0-1.305-0.129-1.865-0.386s-1.039-0.652-1.436-1.187s-0.703-1.214-0.918-2.041
				s-0.322-1.807-0.322-2.939c0-0.977,0.099-1.868,0.298-2.676s0.495-1.499,0.889-2.075s0.887-1.022,1.479-1.338
				s1.283-0.474,2.07-0.474c0.684,0,1.305,0.129,1.865,0.386s1.039,0.654,1.436,1.191s0.703,1.219,0.918,2.046
				S22.639-128.51,22.639-127.377z M15.08-127.436c0,0.202,0.001,0.403,0.005,0.605s0.015,0.397,0.034,0.586l5.4-3.994
				c-0.098-0.332-0.221-0.635-0.371-0.908s-0.329-0.51-0.537-0.708s-0.446-0.354-0.713-0.464s-0.566-0.166-0.898-0.166
				c-0.443,0-0.845,0.107-1.206,0.322s-0.669,0.535-0.923,0.962s-0.449,0.954-0.586,1.582S15.08-128.263,15.08-127.436z
				 M20.92-127.318c0-0.222-0.008-0.441-0.024-0.659s-0.034-0.432-0.054-0.64l-5.4,4.014c0.098,0.339,0.221,0.651,0.371,0.938
				s0.331,0.532,0.542,0.737s0.453,0.364,0.723,0.479s0.578,0.171,0.923,0.171c0.443,0,0.845-0.107,1.206-0.322
				s0.669-0.534,0.923-0.957s0.449-0.949,0.586-1.577S20.92-126.491,20.92-127.318z"/>
		</g>
	</g>
	<g id="node3">
		<title>2</title>
		<ellipse fill="none" stroke="#000000" stroke-width="2" cx="224" cy="-234" rx="18" ry="18"/>
		<g enable-background="new    ">
			<path d="M228.346-229h-8.408v-1.523l3.301-3.281c0.541-0.534,0.98-0.996,1.318-1.387c0.338-0.391,0.602-0.747,0.791-1.069
				s0.316-0.627,0.381-0.913s0.098-0.596,0.098-0.928c0-0.313-0.043-0.61-0.127-0.894s-0.215-0.532-0.391-0.747
				s-0.404-0.384-0.684-0.508c-0.28-0.124-0.615-0.186-1.006-0.186c-0.541,0-1.032,0.12-1.475,0.361s-0.85,0.554-1.221,0.938
				l-0.938-1.123c0.482-0.508,1.037-0.915,1.665-1.221s1.359-0.459,2.192-0.459c0.566,0,1.082,0.085,1.548,0.254
				s0.868,0.413,1.206,0.732s0.601,0.71,0.786,1.172s0.278,0.983,0.278,1.563c0,0.488-0.064,0.94-0.195,1.357
				s-0.327,0.832-0.591,1.245s-0.596,0.842-0.996,1.284s-0.874,0.928-1.421,1.455l-2.314,2.256h6.201V-229z"/>
		</g>
	</g>
	<g id="edge2">
		<title>0-&gt;2</title>
		<path fill="none" stroke="#000000" stroke-width="2" d="M33.671-135.274C44.212-141.835,58.829-150.723,72-158
			c43.621-24.099,95.809-49.666,126.008-64.15"/>
		<polygon stroke="#000000" points="207.362,-226.62 196.399,-226.369 202.635,-224.915 198.123,-222.76 198.339,-222.309 
			198.554,-221.857 203.066,-224.013 200.279,-218.248 207.362,-226.62 		"/>
		<g enable-background="new    ">
			<path fill="#0000FF" d="M78.171-223.66c0.747,0,1.376,0.097,1.89,0.29c0.513,0.193,0.926,0.467,1.24,0.82s0.537,0.773,0.67,1.26
				c0.133,0.487,0.2,1.023,0.2,1.61v6.5c-0.16,0.026-0.383,0.063-0.67,0.109c-0.287,0.047-0.61,0.09-0.97,0.13
				c-0.36,0.04-0.75,0.077-1.17,0.11s-0.837,0.05-1.25,0.05c-0.587,0-1.127-0.06-1.62-0.18s-0.92-0.31-1.28-0.57
				c-0.36-0.26-0.64-0.603-0.84-1.029c-0.2-0.427-0.3-0.94-0.3-1.54c0-0.573,0.117-1.067,0.35-1.48s0.55-0.746,0.95-1
				c0.4-0.253,0.866-0.439,1.4-0.56c0.533-0.12,1.093-0.181,1.68-0.181c0.187,0,0.38,0.011,0.58,0.03
				c0.2,0.021,0.39,0.047,0.57,0.08c0.18,0.033,0.336,0.063,0.47,0.09c0.133,0.027,0.227,0.047,0.28,0.061v-0.521
				c0-0.307-0.034-0.61-0.1-0.91c-0.067-0.3-0.187-0.566-0.36-0.8c-0.174-0.233-0.41-0.42-0.71-0.56c-0.3-0.141-0.69-0.21-1.17-0.21
				c-0.613,0-1.15,0.043-1.61,0.13s-0.803,0.177-1.03,0.27l-0.22-1.54c0.24-0.106,0.64-0.21,1.2-0.31
				C76.912-223.61,77.518-223.66,78.171-223.66z M78.332-214.34c0.44,0,0.83-0.01,1.17-0.03c0.34-0.02,0.623-0.057,0.85-0.11v-3.1
				c-0.134-0.066-0.35-0.123-0.65-0.17c-0.3-0.047-0.664-0.07-1.09-0.07c-0.28,0-0.577,0.021-0.89,0.061
				c-0.313,0.04-0.6,0.123-0.86,0.25c-0.26,0.127-0.477,0.3-0.65,0.52c-0.173,0.221-0.26,0.51-0.26,0.87
				c0,0.667,0.213,1.13,0.64,1.39C77.018-214.47,77.598-214.34,78.332-214.34z"/>
			<path fill="#0000FF" d="M89.771-212.76c-0.84,0-1.577-0.134-2.21-0.4c-0.634-0.267-1.167-0.64-1.6-1.12
				c-0.434-0.479-0.757-1.05-0.97-1.71s-0.32-1.39-0.32-2.189c0-0.801,0.117-1.533,0.35-2.2c0.233-0.667,0.563-1.243,0.99-1.73
				c0.427-0.486,0.95-0.866,1.57-1.14c0.62-0.273,1.31-0.41,2.07-0.41c0.467,0,0.933,0.04,1.4,0.12s0.913,0.207,1.34,0.38
				l-0.42,1.58c-0.28-0.133-0.603-0.24-0.97-0.32c-0.367-0.08-0.757-0.119-1.17-0.119c-1.04,0-1.837,0.326-2.39,0.979
				c-0.554,0.653-0.83,1.606-0.83,2.86c0,0.56,0.063,1.073,0.19,1.54c0.126,0.467,0.327,0.866,0.6,1.199
				c0.273,0.334,0.623,0.591,1.05,0.771s0.947,0.27,1.56,0.27c0.493,0,0.94-0.046,1.34-0.14c0.4-0.093,0.713-0.193,0.94-0.3
				l0.26,1.56c-0.107,0.067-0.26,0.13-0.46,0.19c-0.2,0.06-0.427,0.113-0.68,0.16c-0.253,0.046-0.523,0.086-0.81,0.12
				C90.314-212.777,90.038-212.76,89.771-212.76z"/>
			<path fill="#0000FF" d="M98.611-228.52c0.546,0,1.017,0.039,1.41,0.119s0.67,0.154,0.83,0.221l-0.34,1.6
				c-0.16-0.08-0.387-0.156-0.68-0.229s-0.653-0.11-1.08-0.11c-0.867,0-1.473,0.236-1.82,0.71s-0.52,1.11-0.52,1.91v0.899h4v1.561
				h-4v8.84h-1.86v-11.34c0-1.333,0.327-2.363,0.98-3.09C96.184-228.156,97.211-228.52,98.611-228.52z"/>
			<path fill="#0000FF" d="M106.791-212.76c-0.84,0-1.577-0.134-2.21-0.4c-0.634-0.267-1.167-0.64-1.6-1.12
				c-0.434-0.479-0.757-1.05-0.97-1.71s-0.32-1.39-0.32-2.189c0-0.801,0.117-1.533,0.35-2.2c0.233-0.667,0.563-1.243,0.99-1.73
				c0.427-0.486,0.95-0.866,1.57-1.14c0.62-0.273,1.31-0.41,2.07-0.41c0.467,0,0.933,0.04,1.4,0.12s0.913,0.207,1.34,0.38
				l-0.42,1.58c-0.28-0.133-0.603-0.24-0.97-0.32c-0.367-0.08-0.757-0.119-1.17-0.119c-1.04,0-1.837,0.326-2.39,0.979
				c-0.554,0.653-0.83,1.606-0.83,2.86c0,0.56,0.063,1.073,0.19,1.54c0.126,0.467,0.327,0.866,0.6,1.199
				c0.273,0.334,0.623,0.591,1.05,0.771s0.947,0.27,1.56,0.27c0.493,0,0.94-0.046,1.34-0.14c0.4-0.093,0.713-0.193,0.94-0.3
				l0.26,1.56c-0.107,0.067-0.26,0.13-0.46,0.19c-0.2,0.06-0.427,0.113-0.68,0.16c-0.253,0.046-0.523,0.086-0.81,0.12
				C107.334-212.777,107.058-212.76,106.791-212.76z"/>
			<path fill="#0000FF" d="M118.01-218.98c0,1.707,0.247,3.287,0.74,4.74c0.493,1.453,1.22,2.8,2.18,4.04l-1.32,0.9
				c-1.04-1.267-1.877-2.724-2.51-4.37s-0.95-3.417-0.95-5.311c0-1.893,0.316-3.663,0.95-5.31s1.47-3.104,2.51-4.37l1.32,0.9
				c-0.96,1.24-1.687,2.587-2.18,4.04C118.257-222.267,118.01-220.687,118.01-218.98z"/>
			<path fill="#0000FF" d="M130.41-223.32c0,0.48-0.097,0.943-0.29,1.391c-0.193,0.446-0.45,0.887-0.77,1.319
				c-0.32,0.434-0.68,0.86-1.08,1.28c-0.4,0.42-0.8,0.83-1.2,1.23c-0.227,0.227-0.49,0.493-0.79,0.8s-0.583,0.627-0.85,0.96
				s-0.49,0.653-0.67,0.96s-0.27,0.573-0.27,0.8h6.38v1.58h-8.4c-0.013-0.08-0.02-0.16-0.02-0.24s0-0.153,0-0.22
				c0-0.627,0.103-1.21,0.31-1.75c0.207-0.54,0.477-1.05,0.81-1.53c0.333-0.479,0.707-0.933,1.12-1.359
				c0.413-0.427,0.82-0.841,1.22-1.24c0.333-0.32,0.65-0.637,0.95-0.95s0.566-0.627,0.8-0.94c0.233-0.313,0.42-0.636,0.56-0.97
				c0.14-0.333,0.21-0.687,0.21-1.06c0-0.4-0.063-0.74-0.19-1.021c-0.127-0.279-0.297-0.513-0.51-0.7
				c-0.213-0.187-0.463-0.322-0.75-0.409c-0.287-0.087-0.59-0.13-0.91-0.13c-0.387,0-0.74,0.053-1.06,0.159
				c-0.32,0.107-0.607,0.23-0.86,0.37c-0.253,0.141-0.467,0.287-0.64,0.44s-0.307,0.27-0.4,0.35l-0.92-1.319
				c0.12-0.134,0.3-0.297,0.54-0.49c0.24-0.193,0.526-0.377,0.86-0.55c0.333-0.174,0.707-0.32,1.12-0.44
				c0.413-0.12,0.86-0.18,1.34-0.18c1.453,0,2.543,0.337,3.27,1.01C130.047-225.496,130.41-224.547,130.41-223.32z"/>
			<path fill="#0000FF" d="M135.91-215.28c0.013,0.107,0.02,0.21,0.02,0.311c0,0.1,0,0.203,0,0.31c0,0.84-0.124,1.67-0.37,2.49
				c-0.247,0.82-0.583,1.604-1.01,2.35l-1.44-0.46c0.333-0.68,0.553-1.37,0.66-2.069c0.106-0.7,0.16-1.357,0.16-1.971
				c0-0.173-0.003-0.34-0.01-0.5s-0.017-0.313-0.03-0.46H135.91z"/>
			<path fill="#0000FF" d="M139.79-225.28c-0.333,0-0.617-0.109-0.85-0.33c-0.233-0.22-0.35-0.517-0.35-0.89s0.117-0.67,0.35-0.89
				c0.233-0.221,0.517-0.33,0.85-0.33c0.333,0,0.617,0.109,0.85,0.33c0.233,0.22,0.35,0.517,0.35,0.89s-0.117,0.67-0.35,0.89
				C140.407-225.39,140.123-225.28,139.79-225.28z M140.73-213h-1.86v-10.4h1.86V-213z"/>
			<path fill="#0000FF" d="M143.93-223.1c0.426-0.107,0.993-0.221,1.7-0.341c0.707-0.119,1.52-0.18,2.44-0.18
				c0.826,0,1.513,0.117,2.06,0.351s0.983,0.56,1.31,0.979s0.557,0.924,0.69,1.51c0.133,0.587,0.2,1.233,0.2,1.94v5.84h-1.86v-5.44
				c0-0.64-0.043-1.187-0.13-1.64c-0.086-0.453-0.23-0.82-0.43-1.1c-0.2-0.28-0.467-0.483-0.8-0.61
				c-0.333-0.127-0.747-0.19-1.24-0.19c-0.2,0-0.407,0.008-0.62,0.021c-0.213,0.014-0.417,0.03-0.61,0.05
				c-0.193,0.021-0.367,0.044-0.52,0.07s-0.264,0.047-0.33,0.06v8.78h-1.86V-223.1z"/>
			<path fill="#0000FF" d="M159.47-228.52c0.546,0,1.017,0.039,1.41,0.119s0.67,0.154,0.83,0.221l-0.34,1.6
				c-0.16-0.08-0.387-0.156-0.68-0.229s-0.653-0.11-1.08-0.11c-0.867,0-1.473,0.236-1.82,0.71s-0.52,1.11-0.52,1.91v0.899h4v1.561
				h-4v8.84h-1.86v-11.34c0-1.333,0.327-2.363,0.98-3.09C157.042-228.156,158.069-228.52,159.47-228.52z"/>
			<path fill="#0000FF" d="M165.369-218.98c0-1.706-0.247-3.286-0.74-4.739s-1.22-2.8-2.18-4.04l1.32-0.9
				c1.04,1.267,1.876,2.724,2.51,4.37c0.633,1.646,0.95,3.417,0.95,5.31c0,1.894-0.317,3.664-0.95,5.311
				c-0.634,1.646-1.47,3.104-2.51,4.37l-1.32-0.9c0.96-1.24,1.687-2.587,2.18-4.04S165.369-217.273,165.369-218.98z"/>
		</g>
	</g>
	<g id="node5">
		<title>3</title>
		<ellipse fill="none" stroke="#000000" stroke-width="2" cx="224" cy="-126" rx="18" ry="18"/>
		<g enable-background="new    ">
			<path d="M228.102-124.877c0,0.56-0.113,1.086-0.342,1.577s-0.57,0.921-1.025,1.289s-1.029,0.657-1.719,0.869
				c-0.69,0.212-1.494,0.317-2.412,0.317c-0.508,0-0.963-0.017-1.367-0.049s-0.781-0.075-1.133-0.127v-1.523
				c0.404,0.071,0.83,0.127,1.279,0.166s0.908,0.059,1.377,0.059c0.638,0,1.183-0.057,1.636-0.171
				c0.452-0.114,0.821-0.278,1.108-0.493s0.494-0.476,0.625-0.781s0.195-0.651,0.195-1.035c0-0.352-0.078-0.657-0.234-0.918
				s-0.376-0.479-0.659-0.654s-0.622-0.308-1.016-0.396c-0.394-0.088-0.825-0.132-1.294-0.132h-1.455v-1.396h1.475
				c0.384,0,0.734-0.051,1.05-0.151c0.315-0.101,0.586-0.246,0.811-0.435s0.397-0.422,0.518-0.698s0.181-0.591,0.181-0.942
				c0-0.684-0.209-1.182-0.625-1.494s-1.029-0.469-1.836-0.469c-0.43,0-0.873,0.042-1.328,0.127s-0.944,0.212-1.465,0.381v-1.484
				c0.221-0.078,0.458-0.148,0.708-0.21s0.501-0.114,0.752-0.156s0.5-0.075,0.747-0.098s0.485-0.034,0.713-0.034
				c0.677,0,1.273,0.073,1.787,0.22s0.943,0.356,1.289,0.63s0.605,0.605,0.781,0.996s0.264,0.83,0.264,1.318
				c0,0.729-0.188,1.341-0.562,1.836s-0.888,0.889-1.538,1.182c0.332,0.052,0.659,0.156,0.981,0.313s0.612,0.356,0.869,0.601
				s0.466,0.532,0.625,0.864S228.102-125.28,228.102-124.877z"/>
		</g>
	</g>
	<g id="edge4">
		<title>0-&gt;3</title>
		<path fill="none" stroke="#000000" stroke-width="2" d="M36.167-124.375C46.533-123.477,60.013-122.452,72-122
			c43.525,1.641,54.475,1.641,98,0c8.335-0.314,17.392-0.905,25.621-1.538"/>
		<polygon stroke="#000000" points="205.833,-124.375 195.499,-128.043 200.809,-124.465 195.825,-124.057 195.866,-123.559 
			195.907,-123.061 200.89,-123.468 196.234,-119.073 205.833,-124.375 		"/>
		<g enable-background="new    ">
			<path fill="#0000FF" d="M99.941-127.76c-0.84,0-1.577-0.134-2.21-0.4c-0.634-0.267-1.167-0.64-1.6-1.12
				c-0.434-0.479-0.757-1.05-0.97-1.71s-0.32-1.39-0.32-2.189c0-0.801,0.117-1.533,0.35-2.2c0.233-0.667,0.563-1.243,0.99-1.73
				c0.427-0.486,0.95-0.866,1.57-1.14c0.62-0.273,1.31-0.41,2.07-0.41c0.467,0,0.933,0.04,1.4,0.12s0.913,0.207,1.34,0.38
				l-0.42,1.58c-0.28-0.133-0.603-0.24-0.97-0.32c-0.367-0.08-0.757-0.119-1.17-0.119c-1.04,0-1.837,0.326-2.39,0.979
				c-0.554,0.653-0.83,1.606-0.83,2.86c0,0.56,0.063,1.073,0.19,1.54c0.126,0.467,0.327,0.866,0.6,1.199
				c0.273,0.334,0.623,0.591,1.05,0.771s0.947,0.27,1.56,0.27c0.493,0,0.94-0.046,1.34-0.14c0.4-0.093,0.713-0.193,0.94-0.3
				l0.26,1.56c-0.107,0.067-0.26,0.13-0.46,0.19c-0.2,0.06-0.427,0.113-0.68,0.16c-0.253,0.046-0.523,0.086-0.81,0.12
				C100.484-127.777,100.208-127.76,99.941-127.76z"/>
			<path fill="#0000FF" d="M111.161-133.98c0,1.707,0.247,3.287,0.74,4.74c0.493,1.453,1.22,2.8,2.18,4.04l-1.32,0.9
				c-1.04-1.267-1.877-2.724-2.51-4.37s-0.95-3.417-0.95-5.311c0-1.893,0.316-3.663,0.95-5.31s1.47-3.104,2.51-4.37l1.32,0.9
				c-0.96,1.24-1.687,2.587-2.18,4.04C111.407-137.267,111.161-135.687,111.161-133.98z"/>
			<path fill="#0000FF" d="M116.08-139c0.76-0.293,1.5-0.67,2.22-1.13c0.72-0.46,1.38-1.037,1.98-1.73h1.32V-128h-1.86v-11.28
				c-0.16,0.147-0.357,0.3-0.59,0.46c-0.233,0.16-0.487,0.313-0.76,0.46c-0.273,0.147-0.56,0.287-0.86,0.42
				c-0.3,0.134-0.59,0.247-0.87,0.341L116.08-139z"/>
			<path fill="#0000FF" d="M129.06-130.28c0.013,0.107,0.02,0.21,0.02,0.311c0,0.1,0,0.203,0,0.31c0,0.84-0.124,1.67-0.37,2.49
				c-0.247,0.82-0.583,1.604-1.01,2.35l-1.44-0.46c0.333-0.68,0.553-1.37,0.66-2.069c0.106-0.7,0.16-1.357,0.16-1.971
				c0-0.173-0.003-0.34-0.01-0.5s-0.017-0.313-0.03-0.46H129.06z"/>
			<path fill="#0000FF" d="M132.28-139c0.76-0.293,1.5-0.67,2.22-1.13c0.72-0.46,1.38-1.037,1.98-1.73h1.32V-128h-1.86v-11.28
				c-0.16,0.147-0.357,0.3-0.59,0.46c-0.233,0.16-0.487,0.313-0.76,0.46c-0.273,0.147-0.56,0.287-0.86,0.42
				c-0.3,0.134-0.59,0.247-0.87,0.341L132.28-139z"/>
			<path fill="#0000FF" d="M144.76-133.98c0-1.706-0.247-3.286-0.74-4.739s-1.22-2.8-2.18-4.04l1.32-0.9
				c1.04,1.267,1.876,2.724,2.51,4.37c0.633,1.646,0.95,3.417,0.95,5.31c0,1.894-0.317,3.664-0.95,5.311
				c-0.634,1.646-1.47,3.104-2.51,4.37l-1.32-0.9c0.96-1.24,1.687-2.587,2.18-4.04S144.76-132.273,144.76-133.98z"/>
		</g>
	</g>
	<g id="node11">
		<title>5</title>
		<ellipse fill="none" stroke="#000000" stroke-width="2" cx="224" cy="-18" rx="18" ry="18"/>
		<g enable-background="new    ">
			<path d="M228.023-17.082c0,0.632-0.137,1.208-0.41,1.729s-0.649,0.969-1.128,1.343s-1.044,0.666-1.694,0.874
				c-0.651,0.208-1.354,0.313-2.109,0.313c-0.189,0-0.392-0.005-0.61-0.015s-0.435-0.022-0.649-0.039s-0.425-0.034-0.63-0.054
				s-0.389-0.042-0.552-0.068v-1.543c0.352,0.085,0.753,0.146,1.206,0.186s0.91,0.059,1.372,0.059c0.521,0,0.99-0.062,1.406-0.186
				c0.416-0.124,0.771-0.301,1.064-0.532s0.518-0.511,0.674-0.84s0.234-0.698,0.234-1.108c0-0.794-0.285-1.372-0.854-1.733
				s-1.388-0.542-2.456-0.542h-2.422v-6.523h6.875v1.484h-5.273v3.584h1.113c0.612,0,1.208,0.056,1.787,0.166
				c0.58,0.11,1.096,0.305,1.548,0.581s0.817,0.647,1.094,1.113S228.023-17.785,228.023-17.082z"/>
		</g>
	</g>
	<g id="edge10">
		<title>0-&gt;5</title>
		<path fill="none" stroke="#000000" stroke-width="2" d="M31.143-113.396C41.333-103.355,56.648-89.459,72-80
			c40.752,25.109,93.462,44.074,124.611,54.073"/>
		<polygon stroke="#000000" points="206.299,-22.884 198.107,-30.174 201.678,-24.859 196.908,-26.357 196.758,-25.881 
			196.609,-25.403 201.379,-23.905 195.41,-21.588 206.299,-22.884 		"/>
		<g enable-background="new    ">
			<path fill="#0000FF" d="M121.5-82.52c0.546,0,1.017,0.039,1.41,0.119s0.67,0.154,0.83,0.221l-0.34,1.6
				c-0.16-0.08-0.387-0.156-0.68-0.229s-0.653-0.11-1.08-0.11c-0.867,0-1.473,0.236-1.82,0.71s-0.52,1.11-0.52,1.91v0.899h4v1.561
				h-4V-67h-1.86v-11.34c0-1.333,0.327-2.363,0.98-3.09C119.073-82.156,120.1-82.52,121.5-82.52z"/>
			<path fill="#0000FF" d="M129.68-66.76c-0.84,0-1.577-0.134-2.21-0.4c-0.634-0.267-1.167-0.64-1.6-1.12
				c-0.434-0.479-0.757-1.05-0.97-1.71s-0.32-1.39-0.32-2.189c0-0.801,0.117-1.533,0.35-2.2c0.233-0.667,0.563-1.243,0.99-1.73
				c0.427-0.486,0.95-0.866,1.57-1.14c0.62-0.273,1.31-0.41,2.07-0.41c0.467,0,0.933,0.04,1.4,0.12s0.913,0.207,1.34,0.38
				l-0.42,1.58c-0.28-0.133-0.603-0.24-0.97-0.32c-0.367-0.08-0.757-0.119-1.17-0.119c-1.04,0-1.837,0.326-2.39,0.979
				c-0.554,0.653-0.83,1.606-0.83,2.86c0,0.56,0.063,1.073,0.19,1.54c0.126,0.467,0.327,0.866,0.6,1.199
				c0.273,0.334,0.623,0.591,1.05,0.771s0.947,0.27,1.56,0.27c0.493,0,0.94-0.046,1.34-0.14c0.4-0.093,0.713-0.193,0.94-0.3
				l0.26,1.56c-0.107,0.067-0.26,0.13-0.46,0.19c-0.2,0.06-0.427,0.113-0.68,0.16c-0.253,0.046-0.523,0.086-0.81,0.12
				C130.223-66.777,129.946-66.76,129.68-66.76z"/>
			<path fill="#0000FF" d="M140.899-72.98c0,1.707,0.247,3.287,0.74,4.74c0.493,1.453,1.22,2.8,2.18,4.04l-1.32,0.9
				c-1.04-1.267-1.877-2.724-2.51-4.37s-0.95-3.417-0.95-5.311c0-1.893,0.316-3.663,0.95-5.31s1.47-3.104,2.51-4.37l1.32,0.9
				c-0.96,1.24-1.687,2.587-2.18,4.04C141.146-76.267,140.899-74.687,140.899-72.98z"/>
			<path fill="#0000FF" d="M144.759-71.8c0.253-0.587,0.6-1.271,1.04-2.05c0.44-0.78,0.937-1.584,1.49-2.41
				c0.553-0.827,1.146-1.641,1.78-2.44s1.27-1.52,1.91-2.16h1.78v8.801h1.64v1.52h-1.64V-67h-1.8v-3.54h-6.2V-71.8z M150.959-78.66
				c-0.4,0.427-0.803,0.903-1.21,1.43c-0.407,0.527-0.804,1.077-1.19,1.65c-0.387,0.573-0.75,1.16-1.09,1.76
				c-0.34,0.601-0.643,1.188-0.91,1.761h4.4V-78.66z"/>
			<path fill="#0000FF" d="M158.799-69.28c0.013,0.107,0.02,0.21,0.02,0.311c0,0.1,0,0.203,0,0.31c0,0.84-0.124,1.67-0.37,2.49
				c-0.247,0.82-0.583,1.604-1.01,2.35l-1.44-0.46c0.333-0.68,0.553-1.37,0.66-2.069c0.106-0.7,0.16-1.357,0.16-1.971
				c0-0.173-0.003-0.34-0.01-0.5s-0.017-0.313-0.03-0.46H158.799z"/>
			<path fill="#0000FF" d="M162.679-79.28c-0.333,0-0.617-0.109-0.85-0.33c-0.233-0.22-0.35-0.517-0.35-0.89s0.117-0.67,0.35-0.89
				c0.233-0.221,0.517-0.33,0.85-0.33c0.333,0,0.617,0.109,0.85,0.33c0.233,0.22,0.35,0.517,0.35,0.89s-0.117,0.67-0.35,0.89
				C163.295-79.39,163.012-79.28,162.679-79.28z M163.619-67h-1.86v-10.4h1.86V-67z"/>
			<path fill="#0000FF" d="M166.819-77.1c0.426-0.107,0.993-0.221,1.7-0.341c0.707-0.119,1.52-0.18,2.44-0.18
				c0.826,0,1.513,0.117,2.06,0.351s0.983,0.56,1.31,0.979s0.557,0.924,0.69,1.51c0.133,0.587,0.2,1.233,0.2,1.94V-67h-1.86v-5.44
				c0-0.64-0.043-1.187-0.13-1.64c-0.086-0.453-0.23-0.82-0.43-1.1c-0.2-0.28-0.467-0.483-0.8-0.61
				c-0.333-0.127-0.747-0.19-1.24-0.19c-0.2,0-0.407,0.008-0.62,0.021c-0.213,0.014-0.417,0.03-0.61,0.05
				c-0.193,0.021-0.367,0.044-0.52,0.07s-0.264,0.047-0.33,0.06V-67h-1.86V-77.1z"/>
			<path fill="#0000FF" d="M182.358-82.52c0.546,0,1.017,0.039,1.41,0.119s0.67,0.154,0.83,0.221l-0.34,1.6
				c-0.16-0.08-0.387-0.156-0.68-0.229s-0.653-0.11-1.08-0.11c-0.867,0-1.473,0.236-1.82,0.71s-0.52,1.11-0.52,1.91v0.899h4v1.561
				h-4V-67h-1.86v-11.34c0-1.333,0.327-2.363,0.98-3.09C179.931-82.156,180.958-82.52,182.358-82.52z"/>
			<path fill="#0000FF" d="M188.258-72.98c0-1.706-0.247-3.286-0.74-4.739s-1.22-2.8-2.18-4.04l1.32-0.9
				c1.04,1.267,1.876,2.724,2.51,4.37c0.633,1.646,0.95,3.417,0.95,5.31c0,1.894-0.317,3.664-0.95,5.311
				c-0.634,1.646-1.47,3.104-2.51,4.37l-1.32-0.9c0.96-1.24,1.687-2.587,2.18-4.04S188.258-71.273,188.258-72.98z"/>
		</g>
	</g>
	<g id="node7">
		<title>1</title>
		<ellipse fill="none" stroke="#000000" stroke-width="2" cx="430" cy="-180" rx="18" ry="18"/>
		<g enable-background="new    ">
			<path d="M434.238-175h-8.018v-1.582h3.281v-9.316l-3.057,1.66l-0.625-1.445l4.063-2.139h1.504v11.24h2.852V-175z"/>
		</g>
	</g>
	<g id="edge6">
		<title>3-&gt;1</title>
		<path fill="none" stroke="#000000" stroke-width="2" d="M241.693-130.419c35.429-9.378,118.372-31.334,160.996-42.616"/>
		<polygon stroke="#000000" points="412.361,-175.596 401.543,-177.387 407.4,-174.799 402.566,-173.52 402.694,-173.037 
			402.822,-172.553 407.656,-173.833 403.846,-168.686 412.361,-175.596 		"/>
		<g enable-background="new    ">
			<path fill="#0000FF" d="M284.172-181.66c0.746,0,1.376,0.097,1.89,0.29c0.513,0.193,0.927,0.467,1.239,0.82
				c0.314,0.354,0.537,0.773,0.67,1.26c0.134,0.487,0.201,1.023,0.201,1.61v6.5c-0.16,0.026-0.384,0.063-0.67,0.109
				c-0.287,0.047-0.61,0.09-0.971,0.13c-0.359,0.04-0.75,0.077-1.17,0.11s-0.837,0.05-1.25,0.05c-0.587,0-1.127-0.06-1.62-0.18
				s-0.92-0.31-1.28-0.57c-0.359-0.26-0.64-0.603-0.84-1.029c-0.199-0.427-0.3-0.94-0.3-1.54c0-0.573,0.116-1.067,0.351-1.48
				c0.232-0.413,0.549-0.746,0.949-1c0.4-0.253,0.867-0.439,1.4-0.56s1.094-0.181,1.68-0.181c0.188,0,0.381,0.011,0.58,0.03
				c0.2,0.021,0.391,0.047,0.57,0.08s0.336,0.063,0.47,0.09c0.134,0.027,0.227,0.047,0.28,0.061v-0.521c0-0.307-0.033-0.61-0.1-0.91
				c-0.067-0.3-0.188-0.566-0.36-0.8c-0.174-0.233-0.41-0.42-0.71-0.56c-0.301-0.141-0.69-0.21-1.17-0.21
				c-0.613,0-1.15,0.043-1.61,0.13s-0.804,0.177-1.03,0.27l-0.22-1.54c0.24-0.106,0.64-0.21,1.2-0.31
				C282.912-181.61,283.518-181.66,284.172-181.66z M284.332-172.34c0.439,0,0.83-0.01,1.17-0.03c0.34-0.02,0.623-0.057,0.85-0.11
				v-3.1c-0.134-0.066-0.35-0.123-0.65-0.17c-0.3-0.047-0.663-0.07-1.09-0.07c-0.279,0-0.576,0.021-0.891,0.061
				c-0.313,0.04-0.6,0.123-0.859,0.25s-0.477,0.3-0.65,0.52c-0.173,0.221-0.26,0.51-0.26,0.87c0,0.667,0.213,1.13,0.641,1.39
				C283.018-172.47,283.598-172.34,284.332-172.34z"/>
			<path fill="#0000FF" d="M295.771-170.76c-0.84,0-1.577-0.134-2.21-0.4c-0.634-0.267-1.167-0.64-1.601-1.12
				c-0.434-0.479-0.756-1.05-0.97-1.71s-0.319-1.39-0.319-2.189c0-0.801,0.116-1.533,0.35-2.2c0.232-0.667,0.563-1.243,0.99-1.73
				c0.426-0.486,0.949-0.866,1.57-1.14c0.619-0.273,1.31-0.41,2.069-0.41c0.467,0,0.933,0.04,1.399,0.12s0.914,0.207,1.341,0.38
				l-0.421,1.58c-0.279-0.133-0.603-0.24-0.969-0.32c-0.367-0.08-0.758-0.119-1.17-0.119c-1.041,0-1.838,0.326-2.391,0.979
				c-0.554,0.653-0.83,1.606-0.83,2.86c0,0.56,0.063,1.073,0.189,1.54s0.327,0.866,0.601,1.199c0.272,0.334,0.623,0.591,1.05,0.771
				s0.947,0.27,1.561,0.27c0.492,0,0.939-0.046,1.34-0.14c0.4-0.093,0.713-0.193,0.939-0.3l0.26,1.56
				c-0.106,0.067-0.26,0.13-0.459,0.19c-0.2,0.06-0.428,0.113-0.681,0.16c-0.253,0.046-0.523,0.086-0.81,0.12
				C296.314-170.777,296.038-170.76,295.771-170.76z"/>
			<path fill="#0000FF" d="M304.611-186.52c0.547,0,1.017,0.039,1.41,0.119c0.393,0.08,0.67,0.154,0.83,0.221l-0.34,1.6
				c-0.16-0.08-0.387-0.156-0.681-0.229s-0.653-0.11-1.08-0.11c-0.866,0-1.474,0.236-1.819,0.71c-0.348,0.474-0.521,1.11-0.521,1.91
				v0.899h4v1.561h-4v8.84h-1.86v-11.34c0-1.333,0.327-2.363,0.98-3.09C302.184-186.156,303.211-186.52,304.611-186.52z"/>
			<path fill="#0000FF" d="M312.791-170.76c-0.84,0-1.577-0.134-2.21-0.4c-0.634-0.267-1.167-0.64-1.601-1.12
				c-0.434-0.479-0.756-1.05-0.97-1.71s-0.319-1.39-0.319-2.189c0-0.801,0.116-1.533,0.35-2.2c0.232-0.667,0.563-1.243,0.99-1.73
				c0.426-0.486,0.949-0.866,1.57-1.14c0.619-0.273,1.31-0.41,2.069-0.41c0.467,0,0.933,0.04,1.399,0.12s0.914,0.207,1.341,0.38
				l-0.421,1.58c-0.279-0.133-0.603-0.24-0.969-0.32c-0.367-0.08-0.758-0.119-1.17-0.119c-1.041,0-1.838,0.326-2.391,0.979
				c-0.554,0.653-0.83,1.606-0.83,2.86c0,0.56,0.063,1.073,0.189,1.54s0.327,0.866,0.601,1.199c0.272,0.334,0.623,0.591,1.05,0.771
				s0.947,0.27,1.561,0.27c0.492,0,0.939-0.046,1.34-0.14c0.4-0.093,0.713-0.193,0.939-0.3l0.26,1.56
				c-0.106,0.067-0.26,0.13-0.459,0.19c-0.2,0.06-0.428,0.113-0.681,0.16c-0.253,0.046-0.523,0.086-0.81,0.12
				C313.334-170.777,313.058-170.76,312.791-170.76z"/>
			<path fill="#0000FF" d="M324.01-176.98c0,1.707,0.247,3.287,0.74,4.74c0.494,1.453,1.221,2.8,2.18,4.04l-1.319,0.9
				c-1.04-1.267-1.877-2.724-2.511-4.37c-0.633-1.646-0.949-3.417-0.949-5.311c0-1.893,0.316-3.663,0.949-5.31
				c0.634-1.646,1.471-3.104,2.511-4.37l1.319,0.9c-0.959,1.24-1.686,2.587-2.18,4.04C324.257-180.267,324.01-178.687,324.01-176.98
				z"/>
			<path fill="#0000FF" d="M336.41-181.32c0,0.48-0.097,0.943-0.29,1.391c-0.193,0.446-0.45,0.887-0.771,1.319
				c-0.319,0.434-0.68,0.86-1.079,1.28c-0.4,0.42-0.8,0.83-1.2,1.23c-0.227,0.227-0.49,0.493-0.79,0.8s-0.583,0.627-0.851,0.96
				c-0.266,0.333-0.489,0.653-0.67,0.96c-0.18,0.307-0.27,0.573-0.27,0.8h6.38v1.58h-8.399c-0.014-0.08-0.021-0.16-0.021-0.24
				s0-0.153,0-0.22c0-0.627,0.103-1.21,0.31-1.75s0.477-1.05,0.811-1.53c0.333-0.479,0.707-0.933,1.12-1.359s0.819-0.841,1.22-1.24
				c0.334-0.32,0.65-0.637,0.95-0.95s0.566-0.627,0.8-0.94c0.233-0.313,0.42-0.636,0.561-0.97c0.14-0.333,0.209-0.687,0.209-1.06
				c0-0.4-0.063-0.74-0.189-1.021c-0.127-0.279-0.297-0.513-0.51-0.7c-0.213-0.187-0.463-0.322-0.75-0.409s-0.59-0.13-0.91-0.13
				c-0.387,0-0.74,0.053-1.061,0.159c-0.319,0.107-0.606,0.23-0.859,0.37c-0.254,0.141-0.467,0.287-0.641,0.44
				c-0.173,0.153-0.307,0.27-0.399,0.35l-0.92-1.319c0.12-0.134,0.3-0.297,0.54-0.49s0.526-0.377,0.859-0.55
				c0.334-0.174,0.707-0.32,1.121-0.44c0.412-0.12,0.859-0.18,1.34-0.18c1.453,0,2.543,0.337,3.27,1.01
				C336.047-183.496,336.41-182.547,336.41-181.32z"/>
			<path fill="#0000FF" d="M341.91-173.28c0.014,0.107,0.02,0.21,0.02,0.311c0,0.1,0,0.203,0,0.31c0,0.84-0.123,1.67-0.369,2.49
				c-0.248,0.82-0.584,1.604-1.01,2.35l-1.441-0.46c0.334-0.68,0.554-1.37,0.66-2.069c0.107-0.7,0.16-1.357,0.16-1.971
				c0-0.173-0.003-0.34-0.01-0.5s-0.017-0.313-0.029-0.46H341.91z"/>
			<path fill="#0000FF" d="M345.79-183.28c-0.333,0-0.616-0.109-0.851-0.33c-0.232-0.22-0.35-0.517-0.35-0.89s0.117-0.67,0.35-0.89
				c0.234-0.221,0.518-0.33,0.851-0.33s0.616,0.109,0.851,0.33c0.232,0.22,0.35,0.517,0.35,0.89s-0.117,0.67-0.35,0.89
				C346.406-183.39,346.123-183.28,345.79-183.28z M346.73-171h-1.86v-10.4h1.86V-171z"/>
			<path fill="#0000FF" d="M349.93-181.1c0.426-0.107,0.993-0.221,1.699-0.341c0.707-0.119,1.521-0.18,2.441-0.18
				c0.826,0,1.512,0.117,2.059,0.351s0.984,0.56,1.311,0.979s0.557,0.924,0.689,1.51c0.134,0.587,0.201,1.233,0.201,1.94v5.84h-1.86
				v-5.44c0-0.64-0.044-1.187-0.13-1.64c-0.087-0.453-0.23-0.82-0.43-1.1c-0.201-0.28-0.467-0.483-0.801-0.61
				c-0.333-0.127-0.746-0.19-1.24-0.19c-0.199,0-0.406,0.008-0.619,0.021c-0.214,0.014-0.418,0.03-0.61,0.05
				c-0.193,0.021-0.366,0.044-0.521,0.07c-0.152,0.026-0.264,0.047-0.33,0.06v8.78h-1.859V-181.1z"/>
			<path fill="#0000FF" d="M365.47-186.52c0.546,0,1.017,0.039,1.409,0.119c0.394,0.08,0.671,0.154,0.83,0.221l-0.34,1.6
				c-0.16-0.08-0.387-0.156-0.68-0.229s-0.653-0.11-1.08-0.11c-0.867,0-1.473,0.236-1.82,0.71c-0.346,0.474-0.52,1.11-0.52,1.91
				v0.899h4v1.561h-4v8.84h-1.859v-11.34c0-1.333,0.326-2.363,0.979-3.09S364.069-186.52,365.47-186.52z"/>
			<path fill="#0000FF" d="M371.369-176.98c0-1.706-0.247-3.286-0.74-4.739s-1.22-2.8-2.18-4.04l1.32-0.9
				c1.039,1.267,1.876,2.724,2.51,4.37c0.633,1.646,0.949,3.417,0.949,5.31c0,1.894-0.316,3.664-0.949,5.311
				c-0.634,1.646-1.471,3.104-2.51,4.37l-1.32-0.9c0.96-1.24,1.687-2.587,2.18-4.04S371.369-175.273,371.369-176.98z"/>
		</g>
	</g>
	<g id="node9">
		<title>4</title>
		<ellipse fill="none" stroke="#000000" stroke-width="2" cx="430" cy="-72" rx="18" ry="18"/>
		<g enable-background="new    ">
			<path d="M434.98-69.822h-2.178V-67h-1.738v-2.822h-6.143v-1.494l5.439-8.447h2.441v8.447h2.178V-69.822z M431.064-78.123
				l-4.443,6.807h4.443V-78.123z"/>
		</g>
	</g>
	<g id="edge8">
		<title>3-&gt;4</title>
		<path fill="none" stroke="#000000" stroke-width="2" d="M239.843-117.354c10.378,5.701,24.73,12.908,38.157,17.354
			c42.113,13.942,93.27,21.589,123.924,25.234"/>
		<polygon stroke="#000000" points="411.864,-73.64 402.434,-79.236 406.952,-74.699 401.984,-75.262 401.928,-74.766 
			401.871,-74.269 406.84,-73.705 401.421,-70.294 411.864,-73.64 		"/>
		<g enable-background="new    ">
			<path fill="#0000FF" d="M294.741-121.52c0.546,0,1.017,0.039,1.409,0.119c0.394,0.08,0.671,0.154,0.83,0.221l-0.34,1.6
				c-0.16-0.08-0.387-0.156-0.68-0.229s-0.653-0.11-1.08-0.11c-0.867,0-1.473,0.236-1.82,0.71c-0.346,0.474-0.52,1.11-0.52,1.91
				v0.899h4v1.561h-4v8.84h-1.859v-11.34c0-1.333,0.326-2.363,0.979-3.09S293.341-121.52,294.741-121.52z"/>
			<path fill="#0000FF" d="M302.921-105.76c-0.841,0-1.577-0.134-2.21-0.4c-0.634-0.267-1.167-0.64-1.6-1.12
				c-0.434-0.479-0.758-1.05-0.971-1.71s-0.32-1.39-0.32-2.189c0-0.801,0.117-1.533,0.351-2.2s0.563-1.243,0.989-1.73
				c0.428-0.486,0.951-0.866,1.57-1.14c0.62-0.273,1.311-0.41,2.07-0.41c0.467,0,0.934,0.04,1.4,0.12s0.912,0.207,1.34,0.38
				l-0.42,1.58c-0.28-0.133-0.604-0.24-0.971-0.32s-0.756-0.119-1.17-0.119c-1.039,0-1.836,0.326-2.39,0.979s-0.83,1.606-0.83,2.86
				c0,0.56,0.063,1.073,0.19,1.54c0.126,0.467,0.326,0.866,0.6,1.199c0.273,0.334,0.623,0.591,1.05,0.771s0.946,0.27,1.56,0.27
				c0.494,0,0.94-0.046,1.341-0.14c0.399-0.093,0.713-0.193,0.94-0.3l0.26,1.56c-0.107,0.067-0.26,0.13-0.461,0.19
				c-0.199,0.06-0.426,0.113-0.68,0.16c-0.254,0.046-0.523,0.086-0.81,0.12C303.464-105.777,303.188-105.76,302.921-105.76z"/>
			<path fill="#0000FF" d="M314.141-111.98c0,1.707,0.246,3.287,0.74,4.74c0.493,1.453,1.22,2.8,2.18,4.04l-1.32,0.9
				c-1.039-1.267-1.877-2.724-2.51-4.37s-0.949-3.417-0.949-5.311c0-1.893,0.316-3.663,0.949-5.31s1.471-3.104,2.51-4.37l1.32,0.9
				c-0.96,1.24-1.687,2.587-2.18,4.04C314.387-115.267,314.141-113.687,314.141-111.98z"/>
			<path fill="#0000FF" d="M318-110.8c0.254-0.587,0.6-1.271,1.04-2.05c0.44-0.78,0.937-1.584,1.49-2.41
				c0.554-0.827,1.146-1.641,1.78-2.44c0.633-0.8,1.27-1.52,1.91-2.16H326v8.801h1.641v1.52H326v3.54h-1.8v-3.54H318V-110.8z
				 M324.2-117.66c-0.399,0.427-0.804,0.903-1.21,1.43c-0.406,0.527-0.804,1.077-1.189,1.65c-0.388,0.573-0.75,1.16-1.091,1.76
				c-0.34,0.601-0.644,1.188-0.909,1.761h4.399V-117.66z"/>
			<path fill="#0000FF" d="M332.04-108.28c0.013,0.107,0.021,0.21,0.021,0.311c0,0.1,0,0.203,0,0.31c0,0.84-0.124,1.67-0.371,2.49
				c-0.246,0.82-0.583,1.604-1.01,2.35l-1.439-0.46c0.333-0.68,0.553-1.37,0.66-2.069c0.105-0.7,0.16-1.357,0.16-1.971
				c0-0.173-0.004-0.34-0.011-0.5s-0.017-0.313-0.03-0.46H332.04z"/>
			<path fill="#0000FF" d="M335.92-118.28c-0.334,0-0.617-0.109-0.85-0.33c-0.234-0.22-0.351-0.517-0.351-0.89
				s0.116-0.67,0.351-0.89c0.232-0.221,0.516-0.33,0.85-0.33c0.333,0,0.617,0.109,0.85,0.33c0.233,0.22,0.351,0.517,0.351,0.89
				s-0.117,0.67-0.351,0.89C336.537-118.39,336.253-118.28,335.92-118.28z M336.859-106H335v-10.4h1.859V-106z"/>
			<path fill="#0000FF" d="M340.061-116.1c0.426-0.107,0.992-0.221,1.699-0.341c0.707-0.119,1.52-0.18,2.44-0.18
				c0.826,0,1.513,0.117,2.06,0.351s0.983,0.56,1.311,0.979c0.326,0.42,0.557,0.924,0.689,1.51c0.133,0.587,0.2,1.233,0.2,1.94v5.84
				h-1.86v-5.44c0-0.64-0.043-1.187-0.13-1.64s-0.229-0.82-0.43-1.1c-0.2-0.28-0.467-0.483-0.8-0.61
				c-0.334-0.127-0.747-0.19-1.24-0.19c-0.2,0-0.406,0.008-0.62,0.021c-0.214,0.014-0.417,0.03-0.61,0.05
				c-0.193,0.021-0.366,0.044-0.52,0.07s-0.264,0.047-0.33,0.06v8.78h-1.859V-116.1z"/>
			<path fill="#0000FF" d="M355.6-121.52c0.547,0,1.017,0.039,1.41,0.119c0.393,0.08,0.67,0.154,0.83,0.221l-0.34,1.6
				c-0.16-0.08-0.387-0.156-0.681-0.229s-0.653-0.11-1.08-0.11c-0.866,0-1.474,0.236-1.819,0.71c-0.348,0.474-0.521,1.11-0.521,1.91
				v0.899h4v1.561h-4v8.84h-1.86v-11.34c0-1.333,0.327-2.363,0.98-3.09C353.172-121.156,354.199-121.52,355.6-121.52z"/>
			<path fill="#0000FF" d="M361.499-111.98c0-1.706-0.247-3.286-0.74-4.739s-1.22-2.8-2.18-4.04l1.319-0.9
				c1.041,1.267,1.877,2.724,2.511,4.37c0.633,1.646,0.95,3.417,0.95,5.31c0,1.894-0.317,3.664-0.95,5.311
				c-0.634,1.646-1.47,3.104-2.511,4.37l-1.319-0.9c0.96-1.24,1.687-2.587,2.18-4.04S361.499-110.273,361.499-111.98z"/>
		</g>
	</g>
</g>
</svg>
