<?xml version="1.0" encoding="utf-8"?>
<!-- Generator: Adobe Illustrator 16.0.0, SVG Export Plug-In . SVG Version: 6.00 Build 0)  -->
<!DOCTYPE svg PUBLIC "-//W3C//DTD SVG 1.1//EN" "http://www.w3.org/Graphics/SVG/1.1/DTD/svg11.dtd">
<svg version="1.1" id="图层_1" xmlns="http://www.w3.org/2000/svg" xmlns:xlink="http://www.w3.org/1999/xlink" x="0px" y="0px"
	 width="44px" height="44px" viewBox="0 0 44 44" enable-background="new 0 0 44 44" xml:space="preserve">
<g id="graph1" transform="scale(1 1) rotate(0) translate(4 40)">
	<title>G</title>
	<polygon fill="#FFFFFF" stroke="#FFFFFF" points="-4,5 -4,-40 41,-40 41,5 	"/>
	<g id="node1">
		<title>0</title>
		<ellipse fill="none" stroke="#000000" stroke-width="2" cx="18" cy="-18" rx="18" ry="18"/>
		<g enable-background="new    ">
			<path d="M22.639-19.377c0,0.977-0.098,1.867-0.293,2.671s-0.492,1.494-0.889,2.07s-0.891,1.022-1.479,1.338
				s-1.28,0.474-2.075,0.474c-0.684,0-1.305-0.129-1.865-0.386s-1.039-0.652-1.436-1.187s-0.703-1.214-0.918-2.041
				s-0.322-1.807-0.322-2.939c0-0.977,0.099-1.868,0.298-2.676s0.495-1.499,0.889-2.075s0.887-1.022,1.479-1.338
				s1.283-0.474,2.07-0.474c0.684,0,1.305,0.129,1.865,0.386s1.039,0.654,1.436,1.191s0.703,1.219,0.918,2.046
				S22.639-20.51,22.639-19.377z M15.08-19.436c0,0.202,0.001,0.403,0.005,0.605s0.015,0.397,0.034,0.586l5.4-3.994
				c-0.098-0.332-0.221-0.635-0.371-0.908s-0.328-0.51-0.537-0.708s-0.445-0.354-0.713-0.464S18.332-24.484,18-24.484
				c-0.443,0-0.845,0.107-1.206,0.322s-0.669,0.535-0.923,0.962s-0.449,0.954-0.586,1.582S15.08-20.263,15.08-19.436z M20.92-19.318
				c0-0.222-0.008-0.441-0.024-0.659s-0.034-0.432-0.054-0.64l-5.4,4.014c0.098,0.339,0.221,0.651,0.371,0.938
				s0.331,0.532,0.542,0.737s0.453,0.364,0.723,0.479s0.578,0.171,0.923,0.171c0.443,0,0.845-0.107,1.206-0.322
				s0.669-0.534,0.923-0.957s0.449-0.949,0.586-1.577S20.92-18.491,20.92-19.318z"/>
		</g>
	</g>
</g>
</svg>
