<?xml version="1.0" encoding="UTF-8" standalone="no"?>
<!DOCTYPE svg PUBLIC "-//W3C//DTD SVG 1.1//EN"
 "http://www.w3.org/Graphics/SVG/1.1/DTD/svg11.dtd">
<!-- Generated by graphviz version 2.28.0 (20110507.0327)
 -->
<!-- Title: G Pages: 1 -->
<svg width="152pt" height="536pt"
 viewBox="0.00 0.00 152.00 536.00" xmlns="http://www.w3.org/2000/svg" xmlns:xlink="http://www.w3.org/1999/xlink">
<g id="graph1" class="graph" transform="scale(1 1) rotate(0) translate(4 532)">
<title>G</title>
<polygon fill="white" stroke="white" points="-4,5 -4,-532 149,-532 149,5 -4,5"/>
<!-- 0 -->
<g id="node1" class="node"><title>0</title>
<ellipse fill="none" stroke="black" stroke-width="2" cx="72" cy="-510" rx="18" ry="18"/>
</g>
<!-- 1 -->
<g id="node3" class="node"><title>1</title>
<ellipse fill="none" stroke="black" stroke-width="2" cx="18" cy="-428" rx="18" ry="18"/>
</g>
<!-- 0&#45;&gt;1 -->
<g id="edge2" class="edge"><title>0&#45;&gt;1</title>
<path fill="none" stroke="black" stroke-width="2" d="M62.1897,-494.87C58.9315,-490.152 55.2952,-484.859 52,-480 45.7944,-470.849 39.0251,-460.724 33.172,-451.924"/>
<polygon fill="black" stroke="black" points="27.4661,-443.329 36.7461,-449.172 30.6482,-447.219 33.4137,-451.384 32.9971,-451.661 32.5805,-451.937 29.8151,-447.772 29.248,-454.15 27.4661,-443.329 27.4661,-443.329"/>
<text text-anchor="middle" x="60" y="-464" font-family="Ubuntu" font-size="20.00" fill="#0000ff"> a</text>
</g>
<!-- 6 -->
<g id="node13" class="node"><title>6</title>
<ellipse fill="none" stroke="black" stroke-width="2" cx="72" cy="-428" rx="18" ry="18"/>
</g>
<!-- 0&#45;&gt;6 -->
<g id="edge12" class="edge"><title>0&#45;&gt;6</title>
<path fill="none" stroke="black" stroke-width="2" d="M72,-491.641C72,-481.297 72,-467.941 72,-456.221"/>
<polygon fill="black" stroke="black" points="72,-446.05 76.5001,-456.05 72.5,-451.05 72.5001,-456.05 72.0001,-456.05 71.5001,-456.05 71.5,-451.05 67.5001,-456.05 72,-446.05 72,-446.05"/>
<text text-anchor="middle" x="80.5" y="-464" font-family="Ubuntu" font-size="20.00" fill="#0000ff"> b</text>
</g>
<!-- 12 -->
<g id="node25" class="node"><title>12</title>
<ellipse fill="none" stroke="black" stroke-width="2" cx="126" cy="-428" rx="18" ry="18"/>
</g>
<!-- 0&#45;&gt;12 -->
<g id="edge24" class="edge"><title>0&#45;&gt;12</title>
<path fill="none" stroke="black" stroke-width="2" d="M82.4038,-494.945C85.8318,-490.232 89.6279,-484.923 93,-480 99.1036,-471.088 105.606,-461.144 111.21,-452.42"/>
<polygon fill="black" stroke="black" points="116.671,-443.864 115.084,-454.715 114.403,-448.348 111.712,-452.563 111.291,-452.294 110.869,-452.024 113.56,-447.81 107.498,-449.872 116.671,-443.864 116.671,-443.864"/>
<text text-anchor="middle" x="114.5" y="-464" font-family="Ubuntu" font-size="20.00" fill="#0000ff"> n</text>
</g>
<!-- 2 -->
<g id="node5" class="node"><title>2</title>
<ellipse fill="none" stroke="black" stroke-width="2" cx="18" cy="-346" rx="18" ry="18"/>
</g>
<!-- 1&#45;&gt;2 -->
<g id="edge4" class="edge"><title>1&#45;&gt;2</title>
<path fill="none" stroke="black" stroke-width="2" d="M18,-409.641C18,-399.297 18,-385.941 18,-374.221"/>
<polygon fill="black" stroke="black" points="18,-364.05 22.5001,-374.05 18.5,-369.05 18.5001,-374.05 18.0001,-374.05 17.5001,-374.05 17.5,-369.05 13.5001,-374.05 18,-364.05 18,-364.05"/>
<text text-anchor="middle" x="26.5" y="-382" font-family="Ubuntu" font-size="20.00" fill="#0000ff"> n</text>
</g>
<!-- 3 -->
<g id="node7" class="node"><title>3</title>
<ellipse fill="none" stroke="black" stroke-width="2" cx="18" cy="-264" rx="18" ry="18"/>
</g>
<!-- 2&#45;&gt;3 -->
<g id="edge6" class="edge"><title>2&#45;&gt;3</title>
<path fill="none" stroke="black" stroke-width="2" d="M18,-327.641C18,-317.297 18,-303.941 18,-292.221"/>
<polygon fill="black" stroke="black" points="18,-282.05 22.5001,-292.05 18.5,-287.05 18.5001,-292.05 18.0001,-292.05 17.5001,-292.05 17.5,-287.05 13.5001,-292.05 18,-282.05 18,-282.05"/>
<text text-anchor="middle" x="26" y="-300" font-family="Ubuntu" font-size="20.00" fill="#0000ff"> a</text>
</g>
<!-- 4 -->
<g id="node9" class="node"><title>4</title>
<ellipse fill="none" stroke="black" stroke-width="2" cx="18" cy="-182" rx="18" ry="18"/>
</g>
<!-- 3&#45;&gt;4 -->
<g id="edge8" class="edge"><title>3&#45;&gt;4</title>
<path fill="none" stroke="black" stroke-width="2" d="M18,-245.641C18,-235.297 18,-221.941 18,-210.221"/>
<polygon fill="black" stroke="black" points="18,-200.05 22.5001,-210.05 18.5,-205.05 18.5001,-210.05 18.0001,-210.05 17.5001,-210.05 17.5,-205.05 13.5001,-210.05 18,-200.05 18,-200.05"/>
<text text-anchor="middle" x="26.5" y="-218" font-family="Ubuntu" font-size="20.00" fill="#0000ff"> n</text>
</g>
<!-- 5 -->
<g id="node11" class="node"><title>5</title>
<ellipse fill="none" stroke="black" stroke-width="2" cx="18" cy="-100" rx="18" ry="18"/>
</g>
<!-- 4&#45;&gt;5 -->
<g id="edge10" class="edge"><title>4&#45;&gt;5</title>
<path fill="none" stroke="black" stroke-width="2" d="M18,-163.641C18,-153.297 18,-139.941 18,-128.221"/>
<polygon fill="black" stroke="black" points="18,-118.05 22.5001,-128.05 18.5,-123.05 18.5001,-128.05 18.0001,-128.05 17.5001,-128.05 17.5,-123.05 13.5001,-128.05 18,-118.05 18,-118.05"/>
<text text-anchor="middle" x="26" y="-136" font-family="Ubuntu" font-size="20.00" fill="#0000ff"> a</text>
</g>
<!-- 7 -->
<g id="node15" class="node"><title>7</title>
<ellipse fill="none" stroke="black" stroke-width="2" cx="72" cy="-346" rx="18" ry="18"/>
</g>
<!-- 6&#45;&gt;7 -->
<g id="edge14" class="edge"><title>6&#45;&gt;7</title>
<path fill="none" stroke="black" stroke-width="2" d="M72,-409.641C72,-399.297 72,-385.941 72,-374.221"/>
<polygon fill="black" stroke="black" points="72,-364.05 76.5001,-374.05 72.5,-369.05 72.5001,-374.05 72.0001,-374.05 71.5001,-374.05 71.5,-369.05 67.5001,-374.05 72,-364.05 72,-364.05"/>
<text text-anchor="middle" x="80" y="-382" font-family="Ubuntu" font-size="20.00" fill="#0000ff"> a</text>
</g>
<!-- 8 -->
<g id="node17" class="node"><title>8</title>
<ellipse fill="none" stroke="black" stroke-width="2" cx="72" cy="-264" rx="18" ry="18"/>
</g>
<!-- 7&#45;&gt;8 -->
<g id="edge16" class="edge"><title>7&#45;&gt;8</title>
<path fill="none" stroke="black" stroke-width="2" d="M72,-327.641C72,-317.297 72,-303.941 72,-292.221"/>
<polygon fill="black" stroke="black" points="72,-282.05 76.5001,-292.05 72.5,-287.05 72.5001,-292.05 72.0001,-292.05 71.5001,-292.05 71.5,-287.05 67.5001,-292.05 72,-282.05 72,-282.05"/>
<text text-anchor="middle" x="80.5" y="-300" font-family="Ubuntu" font-size="20.00" fill="#0000ff"> n</text>
</g>
<!-- 9 -->
<g id="node19" class="node"><title>9</title>
<ellipse fill="none" stroke="black" stroke-width="2" cx="72" cy="-182" rx="18" ry="18"/>
</g>
<!-- 8&#45;&gt;9 -->
<g id="edge18" class="edge"><title>8&#45;&gt;9</title>
<path fill="none" stroke="black" stroke-width="2" d="M72,-245.641C72,-235.297 72,-221.941 72,-210.221"/>
<polygon fill="black" stroke="black" points="72,-200.05 76.5001,-210.05 72.5,-205.05 72.5001,-210.05 72.0001,-210.05 71.5001,-210.05 71.5,-205.05 67.5001,-210.05 72,-200.05 72,-200.05"/>
<text text-anchor="middle" x="80" y="-218" font-family="Ubuntu" font-size="20.00" fill="#0000ff"> a</text>
</g>
<!-- 10 -->
<g id="node21" class="node"><title>10</title>
<ellipse fill="none" stroke="black" stroke-width="2" cx="72" cy="-100" rx="18" ry="18"/>
</g>
<!-- 9&#45;&gt;10 -->
<g id="edge20" class="edge"><title>9&#45;&gt;10</title>
<path fill="none" stroke="black" stroke-width="2" d="M72,-163.641C72,-153.297 72,-139.941 72,-128.221"/>
<polygon fill="black" stroke="black" points="72,-118.05 76.5001,-128.05 72.5,-123.05 72.5001,-128.05 72.0001,-128.05 71.5001,-128.05 71.5,-123.05 67.5001,-128.05 72,-118.05 72,-118.05"/>
<text text-anchor="middle" x="80.5" y="-136" font-family="Ubuntu" font-size="20.00" fill="#0000ff"> n</text>
</g>
<!-- 11 -->
<g id="node23" class="node"><title>11</title>
<ellipse fill="none" stroke="black" stroke-width="2" cx="72" cy="-18" rx="18" ry="18"/>
</g>
<!-- 10&#45;&gt;11 -->
<g id="edge22" class="edge"><title>10&#45;&gt;11</title>
<path fill="none" stroke="black" stroke-width="2" d="M72,-81.6412C72,-71.2971 72,-57.941 72,-46.2206"/>
<polygon fill="black" stroke="black" points="72,-36.0501 76.5001,-46.0501 72.5,-41.0501 72.5001,-46.0501 72.0001,-46.0501 71.5001,-46.0501 71.5,-41.0501 67.5001,-46.0501 72,-36.0501 72,-36.0501"/>
<text text-anchor="middle" x="80" y="-54" font-family="Ubuntu" font-size="20.00" fill="#0000ff"> a</text>
</g>
<!-- 13 -->
<g id="node27" class="node"><title>13</title>
<ellipse fill="none" stroke="black" stroke-width="2" cx="126" cy="-346" rx="18" ry="18"/>
</g>
<!-- 12&#45;&gt;13 -->
<g id="edge26" class="edge"><title>12&#45;&gt;13</title>
<path fill="none" stroke="black" stroke-width="2" d="M126,-409.641C126,-399.297 126,-385.941 126,-374.221"/>
<polygon fill="black" stroke="black" points="126,-364.05 130.5,-374.05 126.5,-369.05 126.5,-374.05 126,-374.05 125.5,-374.05 125.5,-369.05 121.5,-374.05 126,-364.05 126,-364.05"/>
<text text-anchor="middle" x="134" y="-382" font-family="Ubuntu" font-size="20.00" fill="#0000ff"> a</text>
</g>
<!-- 14 -->
<g id="node29" class="node"><title>14</title>
<ellipse fill="none" stroke="black" stroke-width="2" cx="126" cy="-264" rx="18" ry="18"/>
</g>
<!-- 13&#45;&gt;14 -->
<g id="edge28" class="edge"><title>13&#45;&gt;14</title>
<path fill="none" stroke="black" stroke-width="2" d="M126,-327.641C126,-317.297 126,-303.941 126,-292.221"/>
<polygon fill="black" stroke="black" points="126,-282.05 130.5,-292.05 126.5,-287.05 126.5,-292.05 126,-292.05 125.5,-292.05 125.5,-287.05 121.5,-292.05 126,-282.05 126,-282.05"/>
<text text-anchor="middle" x="134.5" y="-300" font-family="Ubuntu" font-size="20.00" fill="#0000ff"> n</text>
</g>
<!-- 15 -->
<g id="node31" class="node"><title>15</title>
<ellipse fill="none" stroke="black" stroke-width="2" cx="126" cy="-182" rx="18" ry="18"/>
</g>
<!-- 14&#45;&gt;15 -->
<g id="edge30" class="edge"><title>14&#45;&gt;15</title>
<path fill="none" stroke="black" stroke-width="2" d="M126,-245.641C126,-235.297 126,-221.941 126,-210.221"/>
<polygon fill="black" stroke="black" points="126,-200.05 130.5,-210.05 126.5,-205.05 126.5,-210.05 126,-210.05 125.5,-210.05 125.5,-205.05 121.5,-210.05 126,-200.05 126,-200.05"/>
<text text-anchor="middle" x="134" y="-218" font-family="Ubuntu" font-size="20.00" fill="#0000ff"> a</text>
</g>
</g>
</svg>
