<?xml version="1.0" encoding="utf-8"?>
<!-- Generator: Adobe Illustrator 16.0.0, SVG Export Plug-In . SVG Version: 6.00 Build 0)  -->
<!DOCTYPE svg PUBLIC "-//W3C//DTD SVG 1.1//EN" "http://www.w3.org/Graphics/SVG/1.1/DTD/svg11.dtd">
<svg version="1.1" id="图层_1" xmlns="http://www.w3.org/2000/svg" xmlns:xlink="http://www.w3.org/1999/xlink" x="0px" y="0px"
	 width="472px" height="260px" viewBox="0 0 472 260" enable-background="new 0 0 472 260" xml:space="preserve">
<g id="graph1" transform="scale(1 1) rotate(0) translate(4 256)">
	<title>G</title>
	<polygon fill="#FFFFFF" stroke="#FFFFFF" points="-4,5 -4,-256 469,-256 469,5 	"/>
	<g id="node1">
		<title>0</title>
		<ellipse fill="none" stroke="#000000" stroke-width="2" cx="18" cy="-126" rx="18" ry="18"/>
		<g enable-background="new    ">
			<path d="M22.639-127.377c0,0.977-0.098,1.867-0.293,2.671s-0.492,1.494-0.889,2.07s-0.89,1.022-1.479,1.338
				s-1.281,0.474-2.075,0.474c-0.684,0-1.305-0.129-1.865-0.386s-1.039-0.652-1.436-1.187s-0.703-1.214-0.918-2.041
				s-0.322-1.807-0.322-2.939c0-0.977,0.099-1.868,0.298-2.676s0.495-1.499,0.889-2.075s0.887-1.022,1.479-1.338
				s1.283-0.474,2.07-0.474c0.684,0,1.305,0.129,1.865,0.386s1.039,0.654,1.436,1.191s0.703,1.219,0.918,2.046
				S22.639-128.51,22.639-127.377z M15.08-127.436c0,0.202,0.001,0.403,0.005,0.605s0.015,0.397,0.034,0.586l5.4-3.994
				c-0.098-0.332-0.221-0.635-0.371-0.908s-0.329-0.51-0.537-0.708s-0.446-0.354-0.713-0.464s-0.566-0.166-0.898-0.166
				c-0.443,0-0.845,0.107-1.206,0.322s-0.669,0.535-0.923,0.962s-0.449,0.954-0.586,1.582S15.08-128.263,15.08-127.436z
				 M20.92-127.318c0-0.222-0.008-0.441-0.024-0.659s-0.034-0.432-0.054-0.64l-5.4,4.014c0.098,0.339,0.221,0.651,0.371,0.938
				s0.331,0.532,0.542,0.737s0.453,0.364,0.723,0.479s0.578,0.171,0.923,0.171c0.443,0,0.845-0.107,1.206-0.322
				s0.669-0.534,0.923-0.957s0.449-0.949,0.586-1.577S20.92-126.491,20.92-127.318z"/>
		</g>
	</g>
	<g id="node3">
		<title>2</title>
		<ellipse fill="none" stroke="#000000" stroke-width="2" cx="232" cy="-234" rx="18" ry="18"/>
		<g enable-background="new    ">
			<path d="M236.346-229h-8.408v-1.523l3.301-3.281c0.541-0.534,0.98-0.996,1.318-1.387c0.338-0.391,0.602-0.747,0.791-1.069
				s0.316-0.627,0.381-0.913s0.098-0.596,0.098-0.928c0-0.313-0.043-0.61-0.127-0.894s-0.215-0.532-0.391-0.747
				s-0.404-0.384-0.684-0.508c-0.28-0.124-0.615-0.186-1.006-0.186c-0.541,0-1.032,0.12-1.475,0.361s-0.85,0.554-1.221,0.938
				l-0.938-1.123c0.482-0.508,1.037-0.915,1.665-1.221s1.359-0.459,2.192-0.459c0.566,0,1.082,0.085,1.548,0.254
				s0.868,0.413,1.206,0.732s0.601,0.71,0.786,1.172s0.278,0.983,0.278,1.563c0,0.488-0.064,0.94-0.195,1.357
				s-0.327,0.832-0.591,1.245s-0.596,0.842-0.996,1.284s-0.874,0.928-1.421,1.455l-2.314,2.256h6.201V-229z"/>
		</g>
	</g>
	<g id="edge2">
		<title>0-&gt;2</title>
		<path fill="none" stroke="#000000" stroke-width="2" d="M33.626-135.357C44.146-141.957,58.755-150.858,72-158
			c46.17-24.896,101.812-50.533,133.531-64.752"/>
		<polygon stroke="#000000" points="214.947,-226.952 203.981,-226.988 210.177,-225.371 205.611,-223.335 205.814,-222.878 
			206.018,-222.421 210.584,-224.458 207.648,-218.768 214.947,-226.952 		"/>
		<g enable-background="new    ">
			<path fill="#0000FF" d="M77.521-225.66c0.747,0,1.376,0.097,1.89,0.29c0.513,0.193,0.926,0.467,1.24,0.82s0.537,0.773,0.67,1.26
				c0.133,0.487,0.2,1.023,0.2,1.61v6.5c-0.16,0.026-0.383,0.063-0.67,0.109c-0.287,0.047-0.61,0.09-0.97,0.13
				c-0.36,0.04-0.75,0.077-1.17,0.11s-0.837,0.05-1.25,0.05c-0.587,0-1.127-0.06-1.62-0.18s-0.92-0.31-1.28-0.57
				c-0.36-0.26-0.64-0.603-0.84-1.029c-0.2-0.427-0.3-0.94-0.3-1.54c0-0.573,0.117-1.067,0.35-1.48s0.55-0.746,0.95-1
				c0.4-0.253,0.866-0.439,1.4-0.56c0.533-0.12,1.093-0.181,1.68-0.181c0.187,0,0.38,0.011,0.58,0.03
				c0.2,0.021,0.39,0.047,0.57,0.08c0.18,0.033,0.336,0.063,0.47,0.09c0.133,0.027,0.227,0.047,0.28,0.061v-0.521
				c0-0.307-0.034-0.61-0.1-0.91c-0.067-0.3-0.187-0.566-0.36-0.8c-0.174-0.233-0.41-0.42-0.71-0.56c-0.3-0.141-0.69-0.21-1.17-0.21
				c-0.613,0-1.15,0.043-1.61,0.13s-0.803,0.177-1.03,0.27l-0.22-1.54c0.24-0.106,0.64-0.21,1.2-0.31
				C76.262-225.61,76.868-225.66,77.521-225.66z M77.682-216.34c0.44,0,0.83-0.01,1.17-0.03c0.34-0.02,0.623-0.057,0.85-0.11v-3.1
				c-0.134-0.066-0.35-0.123-0.65-0.17c-0.3-0.047-0.664-0.07-1.09-0.07c-0.28,0-0.577,0.021-0.89,0.061
				c-0.313,0.04-0.6,0.123-0.86,0.25c-0.26,0.127-0.477,0.3-0.65,0.52c-0.173,0.221-0.26,0.51-0.26,0.87
				c0,0.667,0.213,1.13,0.64,1.39C76.368-216.47,76.948-216.34,77.682-216.34z"/>
			<path fill="#0000FF" d="M89.122-214.76c-0.84,0-1.577-0.134-2.21-0.4c-0.634-0.267-1.167-0.64-1.6-1.12
				c-0.434-0.479-0.757-1.05-0.97-1.71s-0.32-1.39-0.32-2.189c0-0.801,0.117-1.533,0.35-2.2c0.233-0.667,0.563-1.243,0.99-1.73
				c0.427-0.486,0.95-0.866,1.57-1.14c0.62-0.273,1.31-0.41,2.07-0.41c0.467,0,0.933,0.04,1.4,0.12s0.913,0.207,1.34,0.38
				l-0.42,1.58c-0.28-0.133-0.603-0.24-0.97-0.32c-0.367-0.08-0.757-0.119-1.17-0.119c-1.04,0-1.837,0.326-2.39,0.979
				c-0.554,0.653-0.83,1.606-0.83,2.86c0,0.56,0.063,1.073,0.19,1.54c0.126,0.467,0.327,0.866,0.6,1.199
				c0.273,0.334,0.623,0.591,1.05,0.771s0.947,0.27,1.56,0.27c0.493,0,0.94-0.046,1.34-0.14c0.4-0.093,0.713-0.193,0.94-0.3
				l0.26,1.56c-0.107,0.067-0.26,0.13-0.46,0.19c-0.2,0.06-0.427,0.113-0.68,0.16c-0.253,0.046-0.523,0.086-0.81,0.12
				C89.665-214.777,89.388-214.76,89.122-214.76z"/>
			<path fill="#0000FF" d="M97.961-230.52c0.546,0,1.017,0.039,1.41,0.119s0.67,0.154,0.83,0.221l-0.34,1.6
				c-0.16-0.08-0.387-0.156-0.68-0.229s-0.653-0.11-1.08-0.11c-0.867,0-1.473,0.236-1.82,0.71s-0.52,1.11-0.52,1.91v0.899h4v1.561
				h-4v8.84h-1.86v-11.34c0-1.333,0.327-2.363,0.98-3.09C95.534-230.156,96.561-230.52,97.961-230.52z"/>
			<path fill="#0000FF" d="M106.141-214.76c-0.84,0-1.577-0.134-2.21-0.4c-0.634-0.267-1.167-0.64-1.6-1.12
				c-0.434-0.479-0.757-1.05-0.97-1.71s-0.32-1.39-0.32-2.189c0-0.801,0.117-1.533,0.35-2.2c0.233-0.667,0.563-1.243,0.99-1.73
				c0.427-0.486,0.95-0.866,1.57-1.14c0.62-0.273,1.31-0.41,2.07-0.41c0.467,0,0.933,0.04,1.4,0.12s0.913,0.207,1.34,0.38
				l-0.42,1.58c-0.28-0.133-0.603-0.24-0.97-0.32c-0.367-0.08-0.757-0.119-1.17-0.119c-1.04,0-1.837,0.326-2.39,0.979
				c-0.554,0.653-0.83,1.606-0.83,2.86c0,0.56,0.063,1.073,0.19,1.54c0.126,0.467,0.327,0.866,0.6,1.199
				c0.273,0.334,0.623,0.591,1.05,0.771s0.947,0.27,1.56,0.27c0.493,0,0.94-0.046,1.34-0.14c0.4-0.093,0.713-0.193,0.94-0.3
				l0.26,1.56c-0.107,0.067-0.26,0.13-0.46,0.19c-0.2,0.06-0.427,0.113-0.68,0.16c-0.253,0.046-0.523,0.086-0.81,0.12
				C106.684-214.777,106.408-214.76,106.141-214.76z"/>
			<path fill="#0000FF" d="M115.441-214.76c-0.84,0-1.577-0.134-2.21-0.4c-0.634-0.267-1.167-0.64-1.6-1.12
				c-0.434-0.479-0.757-1.05-0.97-1.71s-0.32-1.39-0.32-2.189c0-0.801,0.117-1.533,0.35-2.2c0.233-0.667,0.563-1.243,0.99-1.73
				c0.427-0.486,0.95-0.866,1.57-1.14c0.62-0.273,1.31-0.41,2.07-0.41c0.467,0,0.933,0.04,1.4,0.12s0.913,0.207,1.34,0.38
				l-0.42,1.58c-0.28-0.133-0.603-0.24-0.97-0.32c-0.367-0.08-0.757-0.119-1.17-0.119c-1.04,0-1.837,0.326-2.39,0.979
				c-0.554,0.653-0.83,1.606-0.83,2.86c0,0.56,0.063,1.073,0.19,1.54c0.126,0.467,0.327,0.866,0.6,1.199
				c0.273,0.334,0.623,0.591,1.05,0.771s0.947,0.27,1.56,0.27c0.493,0,0.94-0.046,1.34-0.14c0.4-0.093,0.713-0.193,0.94-0.3
				l0.26,1.56c-0.107,0.067-0.26,0.13-0.46,0.19c-0.2,0.06-0.427,0.113-0.68,0.16c-0.253,0.046-0.523,0.086-0.81,0.12
				C115.984-214.777,115.708-214.76,115.441-214.76z"/>
			<path fill="#0000FF" d="M126.661-220.98c0,1.707,0.247,3.287,0.74,4.74c0.493,1.453,1.22,2.8,2.18,4.04l-1.32,0.9
				c-1.04-1.267-1.877-2.724-2.51-4.37s-0.95-3.417-0.95-5.311c0-1.893,0.316-3.663,0.95-5.31s1.47-3.104,2.51-4.37l1.32,0.9
				c-0.96,1.24-1.687,2.587-2.18,4.04C126.907-224.267,126.661-222.687,126.661-220.98z"/>
			<path fill="#0000FF" d="M139.06-225.32c0,0.48-0.097,0.943-0.29,1.391c-0.193,0.446-0.45,0.887-0.77,1.319
				c-0.32,0.434-0.68,0.86-1.08,1.28c-0.4,0.42-0.8,0.83-1.2,1.23c-0.227,0.227-0.49,0.493-0.79,0.8s-0.583,0.627-0.85,0.96
				s-0.49,0.653-0.67,0.96s-0.27,0.573-0.27,0.8h6.38v1.58h-8.4c-0.013-0.08-0.02-0.16-0.02-0.24s0-0.153,0-0.22
				c0-0.627,0.103-1.21,0.31-1.75c0.207-0.54,0.477-1.05,0.81-1.53c0.333-0.479,0.707-0.933,1.12-1.359
				c0.413-0.427,0.82-0.841,1.22-1.24c0.333-0.32,0.65-0.637,0.95-0.95s0.566-0.627,0.8-0.94c0.233-0.313,0.42-0.636,0.56-0.97
				c0.14-0.333,0.21-0.687,0.21-1.06c0-0.4-0.063-0.74-0.19-1.021c-0.127-0.279-0.297-0.513-0.51-0.7
				c-0.213-0.187-0.463-0.322-0.75-0.409c-0.287-0.087-0.59-0.13-0.91-0.13c-0.387,0-0.74,0.053-1.06,0.159
				c-0.32,0.107-0.607,0.23-0.86,0.37c-0.253,0.141-0.467,0.287-0.64,0.44s-0.307,0.27-0.4,0.35l-0.92-1.319
				c0.12-0.134,0.3-0.297,0.54-0.49c0.24-0.193,0.526-0.377,0.86-0.55c0.333-0.174,0.707-0.32,1.12-0.44
				c0.413-0.12,0.86-0.18,1.34-0.18c1.453,0,2.543,0.337,3.27,1.01C138.697-227.496,139.06-226.547,139.06-225.32z"/>
			<path fill="#0000FF" d="M144.56-217.28c0.013,0.107,0.02,0.21,0.02,0.311c0,0.1,0,0.203,0,0.31c0,0.84-0.124,1.67-0.37,2.49
				c-0.247,0.82-0.583,1.604-1.01,2.35l-1.44-0.46c0.333-0.68,0.553-1.37,0.66-2.069c0.106-0.7,0.16-1.357,0.16-1.971
				c0-0.173-0.003-0.34-0.01-0.5s-0.017-0.313-0.03-0.46H144.56z"/>
			<path fill="#0000FF" d="M148.44-227.28c-0.333,0-0.617-0.109-0.85-0.33c-0.233-0.22-0.35-0.517-0.35-0.89s0.117-0.67,0.35-0.89
				c0.233-0.221,0.517-0.33,0.85-0.33c0.333,0,0.617,0.109,0.85,0.33c0.233,0.22,0.35,0.517,0.35,0.89s-0.117,0.67-0.35,0.89
				C149.057-227.39,148.773-227.28,148.44-227.28z M149.38-215h-1.86v-10.4h1.86V-215z"/>
			<path fill="#0000FF" d="M152.58-225.1c0.426-0.107,0.993-0.221,1.7-0.341c0.707-0.119,1.52-0.18,2.44-0.18
				c0.826,0,1.513,0.117,2.06,0.351s0.983,0.56,1.31,0.979s0.557,0.924,0.69,1.51c0.133,0.587,0.2,1.233,0.2,1.94v5.84h-1.86v-5.44
				c0-0.64-0.043-1.187-0.13-1.64c-0.086-0.453-0.23-0.82-0.43-1.1c-0.2-0.28-0.467-0.483-0.8-0.61
				c-0.333-0.127-0.747-0.19-1.24-0.19c-0.2,0-0.407,0.008-0.62,0.021c-0.213,0.014-0.417,0.03-0.61,0.05
				c-0.193,0.021-0.367,0.044-0.52,0.07s-0.264,0.047-0.33,0.06v8.78h-1.86V-225.1z"/>
			<path fill="#0000FF" d="M168.12-230.52c0.546,0,1.017,0.039,1.41,0.119s0.67,0.154,0.83,0.221l-0.34,1.6
				c-0.16-0.08-0.387-0.156-0.68-0.229s-0.653-0.11-1.08-0.11c-0.867,0-1.473,0.236-1.82,0.71s-0.52,1.11-0.52,1.91v0.899h4v1.561
				h-4v8.84h-1.86v-11.34c0-1.333,0.327-2.363,0.98-3.09C165.692-230.156,166.719-230.52,168.12-230.52z"/>
			<path fill="#0000FF" d="M174.019-220.98c0-1.706-0.247-3.286-0.74-4.739s-1.22-2.8-2.18-4.04l1.32-0.9
				c1.04,1.267,1.876,2.724,2.51,4.37c0.633,1.646,0.95,3.417,0.95,5.31c0,1.894-0.317,3.664-0.95,5.311
				c-0.634,1.646-1.47,3.104-2.51,4.37l-1.32-0.9c0.96-1.24,1.687-2.587,2.18-4.04S174.019-219.273,174.019-220.98z"/>
		</g>
	</g>
	<g id="node5">
		<title>3</title>
		<ellipse fill="none" stroke="#000000" stroke-width="2" cx="232" cy="-126" rx="18" ry="18"/>
		<g enable-background="new    ">
			<path d="M236.102-124.877c0,0.56-0.113,1.086-0.342,1.577s-0.57,0.921-1.025,1.289s-1.029,0.657-1.719,0.869
				c-0.69,0.212-1.494,0.317-2.412,0.317c-0.508,0-0.963-0.017-1.367-0.049s-0.781-0.075-1.133-0.127v-1.523
				c0.404,0.071,0.83,0.127,1.279,0.166s0.908,0.059,1.377,0.059c0.638,0,1.183-0.057,1.636-0.171
				c0.452-0.114,0.821-0.278,1.108-0.493s0.494-0.476,0.625-0.781s0.195-0.651,0.195-1.035c0-0.352-0.078-0.657-0.234-0.918
				s-0.376-0.479-0.659-0.654s-0.622-0.308-1.016-0.396c-0.394-0.088-0.825-0.132-1.294-0.132h-1.455v-1.396h1.475
				c0.384,0,0.734-0.051,1.05-0.151c0.315-0.101,0.586-0.246,0.811-0.435s0.397-0.422,0.518-0.698s0.181-0.591,0.181-0.942
				c0-0.684-0.209-1.182-0.625-1.494s-1.029-0.469-1.836-0.469c-0.43,0-0.873,0.042-1.328,0.127s-0.944,0.212-1.465,0.381v-1.484
				c0.221-0.078,0.458-0.148,0.708-0.21s0.501-0.114,0.752-0.156s0.5-0.075,0.747-0.098s0.485-0.034,0.713-0.034
				c0.677,0,1.273,0.073,1.787,0.22s0.943,0.356,1.289,0.63s0.605,0.605,0.781,0.996s0.264,0.83,0.264,1.318
				c0,0.729-0.188,1.341-0.562,1.836s-0.888,0.889-1.538,1.182c0.332,0.052,0.659,0.156,0.981,0.313s0.612,0.356,0.869,0.601
				s0.466,0.532,0.625,0.864S236.102-125.28,236.102-124.877z"/>
		</g>
	</g>
	<g id="edge4">
		<title>0-&gt;3</title>
		<path fill="none" stroke="#000000" stroke-width="2" d="M36.167-124.375C46.533-123.477,60.013-122.452,72-122
			c47.078,1.773,58.922,1.773,106,0c8.335-0.314,17.392-0.905,25.621-1.538"/>
		<polygon stroke="#000000" points="213.833,-124.375 203.499,-128.043 208.809,-124.465 203.825,-124.057 203.866,-123.559 
			203.907,-123.061 208.89,-123.468 204.234,-119.073 213.833,-124.375 		"/>
		<g enable-background="new    ">
			<path fill="#0000FF" d="M103.941-127.76c-0.84,0-1.577-0.134-2.21-0.4c-0.634-0.267-1.167-0.64-1.6-1.12
				c-0.434-0.479-0.757-1.05-0.97-1.71s-0.32-1.39-0.32-2.189c0-0.801,0.117-1.533,0.35-2.2c0.233-0.667,0.563-1.243,0.99-1.73
				c0.427-0.486,0.95-0.866,1.57-1.14c0.62-0.273,1.31-0.41,2.07-0.41c0.467,0,0.933,0.04,1.4,0.12s0.913,0.207,1.34,0.38
				l-0.42,1.58c-0.28-0.133-0.603-0.24-0.97-0.32c-0.367-0.08-0.757-0.119-1.17-0.119c-1.04,0-1.837,0.326-2.39,0.979
				c-0.554,0.653-0.83,1.606-0.83,2.86c0,0.56,0.063,1.073,0.19,1.54c0.126,0.467,0.327,0.866,0.6,1.199
				c0.273,0.334,0.623,0.591,1.05,0.771s0.947,0.27,1.56,0.27c0.493,0,0.94-0.046,1.34-0.14c0.4-0.093,0.713-0.193,0.94-0.3
				l0.26,1.56c-0.107,0.067-0.26,0.13-0.46,0.19c-0.2,0.06-0.427,0.113-0.68,0.16c-0.253,0.046-0.523,0.086-0.81,0.12
				C104.484-127.777,104.208-127.76,103.941-127.76z"/>
			<path fill="#0000FF" d="M115.161-133.98c0,1.707,0.247,3.287,0.74,4.74c0.493,1.453,1.22,2.8,2.18,4.04l-1.32,0.9
				c-1.04-1.267-1.877-2.724-2.51-4.37s-0.95-3.417-0.95-5.311c0-1.893,0.316-3.663,0.95-5.31s1.47-3.104,2.51-4.37l1.32,0.9
				c-0.96,1.24-1.687,2.587-2.18,4.04C115.407-137.267,115.161-135.687,115.161-133.98z"/>
			<path fill="#0000FF" d="M120.08-139c0.76-0.293,1.5-0.67,2.22-1.13c0.72-0.46,1.38-1.037,1.98-1.73h1.32V-128h-1.86v-11.28
				c-0.16,0.147-0.357,0.3-0.59,0.46c-0.233,0.16-0.487,0.313-0.76,0.46c-0.273,0.147-0.56,0.287-0.86,0.42
				c-0.3,0.134-0.59,0.247-0.87,0.341L120.08-139z"/>
			<path fill="#0000FF" d="M133.06-130.28c0.013,0.107,0.02,0.21,0.02,0.311c0,0.1,0,0.203,0,0.31c0,0.84-0.124,1.67-0.37,2.49
				c-0.247,0.82-0.583,1.604-1.01,2.35l-1.44-0.46c0.333-0.68,0.553-1.37,0.66-2.069c0.106-0.7,0.16-1.357,0.16-1.971
				c0-0.173-0.003-0.34-0.01-0.5s-0.017-0.313-0.03-0.46H133.06z"/>
			<path fill="#0000FF" d="M136.28-139c0.76-0.293,1.5-0.67,2.22-1.13c0.72-0.46,1.38-1.037,1.98-1.73h1.32V-128h-1.86v-11.28
				c-0.16,0.147-0.357,0.3-0.59,0.46c-0.233,0.16-0.487,0.313-0.76,0.46c-0.273,0.147-0.56,0.287-0.86,0.42
				c-0.3,0.134-0.59,0.247-0.87,0.341L136.28-139z"/>
			<path fill="#0000FF" d="M148.76-133.98c0-1.706-0.247-3.286-0.74-4.739s-1.22-2.8-2.18-4.04l1.32-0.9
				c1.04,1.267,1.876,2.724,2.51,4.37c0.633,1.646,0.95,3.417,0.95,5.31c0,1.894-0.317,3.664-0.95,5.311
				c-0.634,1.646-1.47,3.104-2.51,4.37l-1.32-0.9c0.96-1.24,1.687-2.587,2.18-4.04S148.76-132.273,148.76-133.98z"/>
		</g>
	</g>
	<g id="node13">
		<title>5</title>
		<ellipse fill="none" stroke="#000000" stroke-width="2" cx="232" cy="-18" rx="18" ry="18"/>
		<g enable-background="new    ">
			<path d="M236.023-17.082c0,0.632-0.137,1.208-0.41,1.729s-0.649,0.969-1.128,1.343s-1.044,0.666-1.694,0.874
				c-0.651,0.208-1.354,0.313-2.109,0.313c-0.189,0-0.392-0.005-0.61-0.015s-0.435-0.022-0.649-0.039s-0.425-0.034-0.63-0.054
				s-0.389-0.042-0.552-0.068v-1.543c0.352,0.085,0.753,0.146,1.206,0.186s0.91,0.059,1.372,0.059c0.521,0,0.99-0.062,1.406-0.186
				c0.416-0.124,0.771-0.301,1.064-0.532s0.518-0.511,0.674-0.84s0.234-0.698,0.234-1.108c0-0.794-0.285-1.372-0.854-1.733
				s-1.388-0.542-2.456-0.542h-2.422v-6.523h6.875v1.484h-5.273v3.584h1.113c0.612,0,1.208,0.056,1.787,0.166
				c0.58,0.11,1.096,0.305,1.548,0.581s0.817,0.647,1.094,1.113S236.023-17.785,236.023-17.082z"/>
		</g>
	</g>
	<g id="edge12">
		<title>0-&gt;5</title>
		<path fill="none" stroke="#000000" stroke-width="2" d="M31.098-113.324C41.262-103.24,56.564-89.322,72-80
			c43.482,26.26,100.037,45.154,132.652,54.771"/>
		<polygon stroke="#000000" points="214.353,-22.436 205.989,-29.527 209.687,-24.299 204.882,-25.684 204.744,-25.202 
			204.605,-24.722 209.41,-23.338 203.498,-20.878 214.353,-22.436 		"/>
		<g enable-background="new    ">
			<path fill="#0000FF" d="M113.091-84.796c0.546,0,1.017,0.039,1.41,0.119s0.67,0.154,0.83,0.221l-0.34,1.6
				c-0.16-0.08-0.387-0.156-0.68-0.229s-0.653-0.11-1.08-0.11c-0.867,0-1.473,0.236-1.82,0.71s-0.52,1.11-0.52,1.91v0.899h4v1.561
				h-4v8.84h-1.86v-11.34c0-1.333,0.327-2.363,0.98-3.09C110.664-84.433,111.691-84.796,113.091-84.796z"/>
			<path fill="#0000FF" d="M121.271-69.036c-0.84,0-1.577-0.134-2.21-0.4c-0.634-0.267-1.167-0.64-1.6-1.12
				c-0.434-0.479-0.757-1.05-0.97-1.71s-0.32-1.39-0.32-2.189c0-0.801,0.117-1.533,0.35-2.2c0.233-0.667,0.563-1.243,0.99-1.73
				c0.427-0.486,0.95-0.866,1.57-1.14c0.62-0.273,1.31-0.41,2.07-0.41c0.467,0,0.933,0.04,1.4,0.12s0.913,0.207,1.34,0.38
				l-0.42,1.58c-0.28-0.133-0.603-0.24-0.97-0.32c-0.367-0.08-0.757-0.119-1.17-0.119c-1.04,0-1.837,0.326-2.39,0.979
				c-0.554,0.653-0.83,1.606-0.83,2.86c0,0.56,0.063,1.073,0.19,1.54c0.126,0.467,0.327,0.866,0.6,1.199
				c0.273,0.334,0.623,0.591,1.05,0.771s0.947,0.27,1.56,0.27c0.493,0,0.94-0.046,1.34-0.14c0.4-0.093,0.713-0.193,0.94-0.3
				l0.26,1.56c-0.107,0.067-0.26,0.13-0.46,0.19c-0.2,0.06-0.427,0.113-0.68,0.16c-0.253,0.046-0.523,0.086-0.81,0.12
				C121.814-69.054,121.538-69.036,121.271-69.036z"/>
			<path fill="#0000FF" d="M130.571-69.036c-0.84,0-1.577-0.134-2.21-0.4c-0.634-0.267-1.167-0.64-1.6-1.12
				c-0.434-0.479-0.757-1.05-0.97-1.71s-0.32-1.39-0.32-2.189c0-0.801,0.117-1.533,0.35-2.2c0.233-0.667,0.563-1.243,0.99-1.73
				c0.427-0.486,0.95-0.866,1.57-1.14c0.62-0.273,1.31-0.41,2.07-0.41c0.467,0,0.933,0.04,1.4,0.12s0.913,0.207,1.34,0.38
				l-0.42,1.58c-0.28-0.133-0.603-0.24-0.97-0.32c-0.367-0.08-0.757-0.119-1.17-0.119c-1.04,0-1.837,0.326-2.39,0.979
				c-0.554,0.653-0.83,1.606-0.83,2.86c0,0.56,0.063,1.073,0.19,1.54c0.126,0.467,0.327,0.866,0.6,1.199
				c0.273,0.334,0.623,0.591,1.05,0.771s0.947,0.27,1.56,0.27c0.493,0,0.94-0.046,1.34-0.14c0.4-0.093,0.713-0.193,0.94-0.3
				l0.26,1.56c-0.107,0.067-0.26,0.13-0.46,0.19c-0.2,0.06-0.427,0.113-0.68,0.16c-0.253,0.046-0.523,0.086-0.81,0.12
				C131.114-69.054,130.837-69.036,130.571-69.036z"/>
			<path fill="#0000FF" d="M141.791-75.257c0,1.707,0.247,3.287,0.74,4.74c0.493,1.453,1.22,2.8,2.18,4.04l-1.32,0.9
				c-1.04-1.267-1.877-2.724-2.51-4.37s-0.95-3.417-0.95-5.311c0-1.893,0.316-3.663,0.95-5.31s1.47-3.104,2.51-4.37l1.32,0.9
				c-0.96,1.24-1.687,2.587-2.18,4.04C142.037-78.543,141.791-76.963,141.791-75.257z"/>
			<path fill="#0000FF" d="M145.65-74.076c0.253-0.587,0.6-1.271,1.04-2.05c0.44-0.78,0.937-1.584,1.49-2.41
				c0.553-0.827,1.146-1.641,1.78-2.44s1.27-1.52,1.91-2.16h1.78v8.801h1.64v1.52h-1.64v3.54h-1.8v-3.54h-6.2V-74.076z
				 M151.85-80.937c-0.4,0.427-0.803,0.903-1.21,1.43c-0.407,0.527-0.804,1.077-1.19,1.65c-0.387,0.573-0.75,1.16-1.09,1.76
				c-0.34,0.601-0.643,1.188-0.91,1.761h4.4V-80.937z"/>
			<path fill="#0000FF" d="M159.69-71.557c0.013,0.107,0.02,0.21,0.02,0.311c0,0.1,0,0.203,0,0.31c0,0.84-0.124,1.67-0.37,2.49
				c-0.247,0.82-0.583,1.604-1.01,2.35l-1.44-0.46c0.333-0.68,0.553-1.37,0.66-2.069c0.106-0.7,0.16-1.357,0.16-1.971
				c0-0.173-0.003-0.34-0.01-0.5s-0.017-0.313-0.03-0.46H159.69z"/>
			<path fill="#0000FF" d="M163.57-81.557c-0.333,0-0.617-0.109-0.85-0.33c-0.233-0.22-0.35-0.517-0.35-0.89s0.117-0.67,0.35-0.89
				c0.233-0.221,0.517-0.33,0.85-0.33c0.333,0,0.617,0.109,0.85,0.33c0.233,0.22,0.35,0.517,0.35,0.89s-0.117,0.67-0.35,0.89
				C164.187-81.666,163.903-81.557,163.57-81.557z M164.51-69.276h-1.86v-10.4h1.86V-69.276z"/>
			<path fill="#0000FF" d="M167.71-79.376c0.426-0.107,0.993-0.221,1.7-0.341c0.707-0.119,1.52-0.18,2.44-0.18
				c0.826,0,1.513,0.117,2.06,0.351s0.983,0.56,1.31,0.979s0.557,0.924,0.69,1.51c0.133,0.587,0.2,1.233,0.2,1.94v5.84h-1.86v-5.44
				c0-0.64-0.043-1.187-0.13-1.64c-0.086-0.453-0.23-0.82-0.43-1.1c-0.2-0.28-0.467-0.483-0.8-0.61
				c-0.333-0.127-0.747-0.19-1.24-0.19c-0.2,0-0.407,0.008-0.62,0.021c-0.213,0.014-0.417,0.03-0.61,0.05
				c-0.193,0.021-0.367,0.044-0.52,0.07s-0.264,0.047-0.33,0.06v8.78h-1.86V-79.376z"/>
			<path fill="#0000FF" d="M183.25-84.796c0.546,0,1.017,0.039,1.41,0.119s0.67,0.154,0.83,0.221l-0.34,1.6
				c-0.16-0.08-0.387-0.156-0.68-0.229s-0.653-0.11-1.08-0.11c-0.867,0-1.473,0.236-1.82,0.71s-0.52,1.11-0.52,1.91v0.899h4v1.561
				h-4v8.84h-1.86v-11.34c0-1.333,0.327-2.363,0.98-3.09C180.822-84.433,181.849-84.796,183.25-84.796z"/>
			<path fill="#0000FF" d="M189.149-75.257c0-1.706-0.247-3.286-0.74-4.739s-1.22-2.8-2.18-4.04l1.32-0.9
				c1.04,1.267,1.876,2.724,2.51,4.37c0.633,1.646,0.95,3.417,0.95,5.31c0,1.894-0.317,3.664-0.95,5.311
				c-0.634,1.646-1.47,3.104-2.51,4.37l-1.32-0.9c0.96-1.24,1.687-2.587,2.18-4.04S189.149-73.55,189.149-75.257z"/>
		</g>
	</g>
	<g id="node7">
		<title>1</title>
		<ellipse fill="none" stroke="#000000" stroke-width="2" cx="446" cy="-234" rx="18" ry="18"/>
		<g enable-background="new    ">
			<path d="M450.238-229h-8.018v-1.582h3.281v-9.316l-3.057,1.66l-0.625-1.445l4.063-2.139h1.504v11.24h2.852V-229z"/>
		</g>
	</g>
	<g id="edge6">
		<title>3-&gt;1</title>
		<path fill="none" stroke="#000000" stroke-width="2" d="M247.626-135.357c10.521-6.6,25.129-15.501,38.374-22.643
			c46.17-24.896,101.813-50.533,133.531-64.752"/>
		<polygon stroke="#000000" points="428.947,-226.952 417.98,-226.988 424.177,-225.371 419.611,-223.335 419.814,-222.878 
			420.018,-222.421 424.584,-224.458 421.648,-218.768 428.947,-226.952 		"/>
		<g enable-background="new    ">
			<path fill="#0000FF" d="M291.521-225.66c0.746,0,1.377,0.097,1.891,0.29c0.513,0.193,0.926,0.467,1.239,0.82
				s0.536,0.773,0.67,1.26c0.134,0.487,0.2,1.023,0.2,1.61v6.5c-0.16,0.026-0.383,0.063-0.67,0.109
				c-0.287,0.047-0.609,0.09-0.971,0.13c-0.359,0.04-0.75,0.077-1.17,0.11s-0.836,0.05-1.25,0.05c-0.586,0-1.127-0.06-1.619-0.18
				c-0.494-0.12-0.92-0.31-1.28-0.57c-0.36-0.26-0.64-0.603-0.84-1.029s-0.3-0.94-0.3-1.54c0-0.573,0.116-1.067,0.35-1.48
				s0.55-0.746,0.95-1c0.399-0.253,0.866-0.439,1.399-0.56s1.094-0.181,1.681-0.181c0.187,0,0.38,0.011,0.579,0.03
				c0.201,0.021,0.391,0.047,0.57,0.08s0.337,0.063,0.471,0.09c0.133,0.027,0.227,0.047,0.279,0.061v-0.521
				c0-0.307-0.033-0.61-0.1-0.91s-0.188-0.566-0.359-0.8c-0.174-0.233-0.41-0.42-0.711-0.56c-0.3-0.141-0.689-0.21-1.17-0.21
				c-0.613,0-1.15,0.043-1.609,0.13c-0.461,0.087-0.804,0.177-1.03,0.27l-0.22-1.54c0.24-0.106,0.64-0.21,1.199-0.31
				C290.262-225.61,290.868-225.66,291.521-225.66z M291.682-216.34c0.439,0,0.83-0.01,1.17-0.03c0.34-0.02,0.623-0.057,0.85-0.11
				v-3.1c-0.133-0.066-0.35-0.123-0.649-0.17s-0.663-0.07-1.091-0.07c-0.279,0-0.576,0.021-0.89,0.061s-0.6,0.123-0.86,0.25
				c-0.26,0.127-0.477,0.3-0.649,0.52c-0.173,0.221-0.26,0.51-0.26,0.87c0,0.667,0.213,1.13,0.64,1.39
				C290.368-216.47,290.948-216.34,291.682-216.34z"/>
			<path fill="#0000FF" d="M303.121-214.76c-0.84,0-1.576-0.134-2.209-0.4c-0.635-0.267-1.168-0.64-1.601-1.12
				c-0.434-0.479-0.757-1.05-0.97-1.71c-0.214-0.66-0.32-1.39-0.32-2.189c0-0.801,0.117-1.533,0.35-2.2
				c0.233-0.667,0.563-1.243,0.99-1.73c0.427-0.486,0.95-0.866,1.57-1.14c0.619-0.273,1.311-0.41,2.07-0.41
				c0.467,0,0.933,0.04,1.399,0.12s0.913,0.207,1.341,0.38l-0.421,1.58c-0.28-0.133-0.603-0.24-0.97-0.32s-0.757-0.119-1.17-0.119
				c-1.04,0-1.837,0.326-2.391,0.979c-0.553,0.653-0.83,1.606-0.83,2.86c0,0.56,0.063,1.073,0.19,1.54
				c0.126,0.467,0.327,0.866,0.601,1.199c0.272,0.334,0.623,0.591,1.049,0.771c0.428,0.18,0.947,0.27,1.561,0.27
				c0.493,0,0.939-0.046,1.34-0.14c0.4-0.093,0.713-0.193,0.94-0.3l0.26,1.56c-0.106,0.067-0.26,0.13-0.46,0.19
				c-0.199,0.06-0.427,0.113-0.68,0.16c-0.254,0.046-0.523,0.086-0.811,0.12C303.664-214.777,303.389-214.76,303.121-214.76z"/>
			<path fill="#0000FF" d="M311.961-230.52c0.547,0,1.018,0.039,1.41,0.119s0.67,0.154,0.83,0.221l-0.34,1.6
				c-0.16-0.08-0.387-0.156-0.68-0.229c-0.294-0.073-0.654-0.11-1.08-0.11c-0.867,0-1.474,0.236-1.82,0.71s-0.52,1.11-0.52,1.91
				v0.899h4v1.561h-4v8.84h-1.86v-11.34c0-1.333,0.327-2.363,0.979-3.09C309.534-230.156,310.561-230.52,311.961-230.52z"/>
			<path fill="#0000FF" d="M320.141-214.76c-0.84,0-1.576-0.134-2.209-0.4c-0.635-0.267-1.168-0.64-1.601-1.12
				c-0.434-0.479-0.757-1.05-0.97-1.71c-0.214-0.66-0.32-1.39-0.32-2.189c0-0.801,0.117-1.533,0.35-2.2
				c0.233-0.667,0.563-1.243,0.99-1.73c0.427-0.486,0.95-0.866,1.57-1.14c0.619-0.273,1.311-0.41,2.07-0.41
				c0.467,0,0.933,0.04,1.399,0.12s0.913,0.207,1.341,0.38l-0.421,1.58c-0.28-0.133-0.603-0.24-0.97-0.32s-0.757-0.119-1.17-0.119
				c-1.04,0-1.837,0.326-2.391,0.979c-0.553,0.653-0.83,1.606-0.83,2.86c0,0.56,0.063,1.073,0.19,1.54
				c0.126,0.467,0.327,0.866,0.601,1.199c0.272,0.334,0.623,0.591,1.049,0.771c0.428,0.18,0.947,0.27,1.561,0.27
				c0.493,0,0.939-0.046,1.34-0.14c0.4-0.093,0.713-0.193,0.94-0.3l0.26,1.56c-0.106,0.067-0.26,0.13-0.46,0.19
				c-0.199,0.06-0.427,0.113-0.68,0.16c-0.254,0.046-0.523,0.086-0.811,0.12C320.684-214.777,320.408-214.76,320.141-214.76z"/>
			<path fill="#0000FF" d="M329.441-214.76c-0.841,0-1.578-0.134-2.211-0.4s-1.166-0.64-1.6-1.12
				c-0.434-0.479-0.757-1.05-0.971-1.71c-0.213-0.66-0.319-1.39-0.319-2.189c0-0.801,0.116-1.533,0.351-2.2
				c0.232-0.667,0.563-1.243,0.989-1.73c0.427-0.486,0.95-0.866,1.57-1.14s1.31-0.41,2.069-0.41c0.467,0,0.934,0.04,1.4,0.12
				s0.913,0.207,1.34,0.38l-0.42,1.58c-0.279-0.133-0.604-0.24-0.97-0.32c-0.367-0.08-0.757-0.119-1.17-0.119
				c-1.04,0-1.837,0.326-2.39,0.979c-0.555,0.653-0.83,1.606-0.83,2.86c0,0.56,0.063,1.073,0.189,1.54s0.326,0.866,0.6,1.199
				c0.273,0.334,0.623,0.591,1.051,0.771c0.426,0.18,0.946,0.27,1.56,0.27c0.493,0,0.94-0.046,1.341-0.14
				c0.399-0.093,0.713-0.193,0.939-0.3l0.26,1.56c-0.107,0.067-0.26,0.13-0.46,0.19c-0.2,0.06-0.427,0.113-0.681,0.16
				c-0.253,0.046-0.523,0.086-0.809,0.12C329.984-214.777,329.707-214.76,329.441-214.76z"/>
			<path fill="#0000FF" d="M340.66-220.98c0,1.707,0.247,3.287,0.74,4.74c0.494,1.453,1.221,2.8,2.18,4.04l-1.319,0.9
				c-1.04-1.267-1.877-2.724-2.511-4.37c-0.633-1.646-0.949-3.417-0.949-5.311c0-1.893,0.316-3.663,0.949-5.31
				c0.634-1.646,1.471-3.104,2.511-4.37l1.319,0.9c-0.959,1.24-1.686,2.587-2.18,4.04C340.907-224.267,340.66-222.687,340.66-220.98
				z"/>
			<path fill="#0000FF" d="M353.061-225.32c0,0.48-0.098,0.943-0.291,1.391c-0.193,0.446-0.449,0.887-0.77,1.319
				c-0.32,0.434-0.68,0.86-1.08,1.28s-0.8,0.83-1.199,1.23c-0.228,0.227-0.49,0.493-0.791,0.8c-0.299,0.307-0.583,0.627-0.85,0.96
				s-0.49,0.653-0.67,0.96s-0.27,0.573-0.27,0.8h6.379v1.58h-8.399c-0.013-0.08-0.021-0.16-0.021-0.24s0-0.153,0-0.22
				c0-0.627,0.104-1.21,0.311-1.75s0.477-1.05,0.811-1.53c0.332-0.479,0.706-0.933,1.119-1.359c0.414-0.427,0.82-0.841,1.221-1.24
				c0.333-0.32,0.65-0.637,0.949-0.95c0.301-0.313,0.566-0.627,0.801-0.94c0.232-0.313,0.42-0.636,0.56-0.97
				c0.14-0.333,0.21-0.687,0.21-1.06c0-0.4-0.063-0.74-0.189-1.021c-0.127-0.279-0.297-0.513-0.51-0.7
				c-0.214-0.187-0.464-0.322-0.75-0.409c-0.287-0.087-0.591-0.13-0.91-0.13c-0.387,0-0.74,0.053-1.061,0.159
				c-0.32,0.107-0.607,0.23-0.859,0.37c-0.254,0.141-0.467,0.287-0.641,0.44s-0.307,0.27-0.4,0.35l-0.92-1.319
				c0.121-0.134,0.301-0.297,0.541-0.49c0.239-0.193,0.525-0.377,0.859-0.55c0.333-0.174,0.707-0.32,1.12-0.44s0.86-0.18,1.34-0.18
				c1.453,0,2.543,0.337,3.271,1.01C352.697-227.496,353.061-226.547,353.061-225.32z"/>
			<path fill="#0000FF" d="M358.561-217.28c0.013,0.107,0.02,0.21,0.02,0.311c0,0.1,0,0.203,0,0.31c0,0.84-0.123,1.67-0.37,2.49
				s-0.583,1.604-1.01,2.35l-1.44-0.46c0.334-0.68,0.553-1.37,0.66-2.069c0.106-0.7,0.16-1.357,0.16-1.971
				c0-0.173-0.004-0.34-0.01-0.5c-0.008-0.16-0.018-0.313-0.03-0.46H358.561z"/>
			<path fill="#0000FF" d="M362.439-227.28c-0.333,0-0.616-0.109-0.85-0.33c-0.233-0.22-0.35-0.517-0.35-0.89s0.116-0.67,0.35-0.89
				c0.233-0.221,0.517-0.33,0.85-0.33c0.334,0,0.617,0.109,0.851,0.33c0.233,0.22,0.351,0.517,0.351,0.89s-0.117,0.67-0.351,0.89
				C363.057-227.39,362.773-227.28,362.439-227.28z M363.38-215h-1.86v-10.4h1.86V-215z"/>
			<path fill="#0000FF" d="M366.58-225.1c0.426-0.107,0.993-0.221,1.699-0.341c0.707-0.119,1.521-0.18,2.441-0.18
				c0.826,0,1.512,0.117,2.059,0.351s0.984,0.56,1.311,0.979s0.557,0.924,0.689,1.51c0.134,0.587,0.201,1.233,0.201,1.94v5.84h-1.86
				v-5.44c0-0.64-0.044-1.187-0.13-1.64c-0.087-0.453-0.23-0.82-0.43-1.1c-0.201-0.28-0.467-0.483-0.801-0.61
				c-0.333-0.127-0.746-0.19-1.24-0.19c-0.199,0-0.406,0.008-0.619,0.021c-0.214,0.014-0.418,0.03-0.61,0.05
				c-0.193,0.021-0.366,0.044-0.521,0.07c-0.152,0.026-0.264,0.047-0.33,0.06v8.78h-1.859V-225.1z"/>
			<path fill="#0000FF" d="M382.119-230.52c0.547,0,1.018,0.039,1.41,0.119s0.67,0.154,0.83,0.221l-0.34,1.6
				c-0.16-0.08-0.387-0.156-0.68-0.229c-0.294-0.073-0.654-0.11-1.08-0.11c-0.867,0-1.474,0.236-1.82,0.71s-0.52,1.11-0.52,1.91
				v0.899h4v1.561h-4v8.84h-1.86v-11.34c0-1.333,0.327-2.363,0.979-3.09C379.692-230.156,380.719-230.52,382.119-230.52z"/>
			<path fill="#0000FF" d="M388.02-220.98c0-1.706-0.248-3.286-0.74-4.739c-0.494-1.453-1.221-2.8-2.18-4.04l1.319-0.9
				c1.04,1.267,1.876,2.724,2.511,4.37c0.633,1.646,0.949,3.417,0.949,5.31c0,1.894-0.316,3.664-0.949,5.311
				c-0.635,1.646-1.471,3.104-2.511,4.37l-1.319-0.9c0.959-1.24,1.686-2.587,2.18-4.04
				C387.771-217.693,388.02-219.273,388.02-220.98z"/>
		</g>
	</g>
	<g id="node9">
		<title>6</title>
		<ellipse fill="none" stroke="#000000" stroke-width="2" cx="446" cy="-126" rx="18" ry="18"/>
		<g enable-background="new    ">
			<path d="M450.502-125.043c0,0.586-0.105,1.136-0.317,1.65s-0.513,0.962-0.903,1.343s-0.861,0.681-1.411,0.898
				s-1.161,0.327-1.831,0.327c-0.703,0-1.324-0.112-1.865-0.337s-0.992-0.569-1.357-1.035s-0.641-1.053-0.83-1.763
				s-0.283-1.55-0.283-2.52c0-0.651,0.043-1.282,0.127-1.895s0.225-1.188,0.42-1.729s0.455-1.035,0.781-1.484
				s0.73-0.835,1.216-1.157s1.056-0.573,1.714-0.752s1.42-0.269,2.285-0.269h1.26v1.484h-1.367c-0.762,0-1.422,0.091-1.982,0.273
				s-1.029,0.439-1.406,0.771s-0.668,0.732-0.869,1.201s-0.328,0.993-0.381,1.572l-0.039,0.4c0.41-0.241,0.884-0.435,1.421-0.581
				s1.118-0.22,1.743-0.22c0.645,0,1.209,0.095,1.694,0.283s0.889,0.451,1.211,0.786s0.565,0.737,0.728,1.206
				S450.502-125.603,450.502-125.043z M448.725-124.936c0-0.391-0.047-0.744-0.142-1.06s-0.243-0.583-0.444-0.801
				s-0.457-0.388-0.767-0.508s-0.679-0.181-1.108-0.181c-0.248,0-0.498,0.022-0.752,0.068s-0.503,0.109-0.747,0.19
				s-0.478,0.174-0.698,0.278s-0.424,0.215-0.605,0.332c0,0.84,0.059,1.541,0.176,2.104s0.291,1.014,0.522,1.353
				s0.517,0.579,0.854,0.723s0.729,0.215,1.172,0.215c0.371,0,0.711-0.061,1.021-0.181s0.576-0.298,0.801-0.532
				s0.4-0.52,0.527-0.854S448.725-124.506,448.725-124.936z"/>
		</g>
	</g>
	<g id="edge8">
		<title>3-&gt;6</title>
		<path fill="none" stroke="#FF0000" stroke-width="2" d="M250.167-124.375c10.366,0.898,23.847,1.923,35.833,2.375
			c47.078,1.773,58.922,1.773,106,0c8.335-0.314,17.392-0.905,25.621-1.538"/>
		<polygon fill="#FF0000" stroke="#FF0000" points="427.833,-124.375 417.499,-128.043 422.809,-124.465 417.825,-124.057 
			417.866,-123.559 417.907,-123.061 422.89,-123.468 418.234,-119.073 427.833,-124.375 		"/>
		<g enable-background="new    ">
			<path fill="#0000FF" d="M311.061-127.76c-0.84,0-1.576-0.134-2.209-0.4c-0.635-0.267-1.168-0.64-1.601-1.12
				c-0.434-0.479-0.757-1.05-0.97-1.71c-0.214-0.66-0.32-1.39-0.32-2.189c0-0.801,0.117-1.533,0.35-2.2
				c0.233-0.667,0.563-1.243,0.99-1.73c0.427-0.486,0.95-0.866,1.57-1.14c0.619-0.273,1.311-0.41,2.07-0.41
				c0.467,0,0.933,0.04,1.399,0.12s0.913,0.207,1.341,0.38l-0.421,1.58c-0.28-0.133-0.603-0.24-0.97-0.32s-0.757-0.119-1.17-0.119
				c-1.04,0-1.837,0.326-2.391,0.979c-0.553,0.653-0.83,1.606-0.83,2.86c0,0.56,0.063,1.073,0.19,1.54
				c0.126,0.467,0.327,0.866,0.601,1.199c0.272,0.334,0.623,0.591,1.049,0.771c0.428,0.18,0.947,0.27,1.561,0.27
				c0.493,0,0.939-0.046,1.34-0.14c0.4-0.093,0.713-0.193,0.94-0.3l0.26,1.56c-0.106,0.067-0.26,0.13-0.46,0.19
				c-0.199,0.06-0.427,0.113-0.68,0.16c-0.254,0.046-0.523,0.086-0.811,0.12C311.604-127.777,311.328-127.76,311.061-127.76z"/>
			<path fill="#0000FF" d="M322.281-133.98c0,1.707,0.246,3.287,0.74,4.74c0.492,1.453,1.219,2.8,2.18,4.04l-1.32,0.9
				c-1.04-1.267-1.877-2.724-2.51-4.37c-0.634-1.646-0.95-3.417-0.95-5.311c0-1.893,0.316-3.663,0.95-5.31
				c0.633-1.646,1.47-3.104,2.51-4.37l1.32,0.9c-0.961,1.24-1.688,2.587-2.18,4.04C322.527-137.267,322.281-135.687,322.281-133.98z
				"/>
			<path fill="#0000FF" d="M326.6-133.56c0-1.347,0.188-2.537,0.561-3.57s0.903-1.903,1.59-2.61c0.688-0.706,1.521-1.243,2.5-1.609
				c0.98-0.367,2.084-0.557,3.311-0.57l0.14,1.56c-0.786,0.014-1.503,0.101-2.149,0.261c-0.647,0.159-1.225,0.413-1.73,0.76
				c-0.507,0.347-0.934,0.797-1.279,1.35c-0.348,0.554-0.607,1.237-0.781,2.05c0.348-0.159,0.737-0.293,1.17-0.399
				c0.434-0.106,0.884-0.16,1.351-0.16c0.786,0,1.453,0.12,2,0.36c0.546,0.239,0.993,0.557,1.34,0.949
				c0.347,0.394,0.597,0.848,0.75,1.36c0.153,0.514,0.229,1.05,0.229,1.61c0,0.507-0.086,1.026-0.26,1.56
				c-0.173,0.533-0.437,1.021-0.789,1.46c-0.354,0.44-0.804,0.8-1.351,1.08s-1.193,0.42-1.94,0.42c-1.52,0-2.676-0.52-3.469-1.56
				C326.997-130.3,326.6-131.733,326.6-133.56z M331.08-134.98c-0.467,0-0.9,0.044-1.3,0.131s-0.8,0.217-1.2,0.39
				c-0.014,0.146-0.023,0.297-0.029,0.45c-0.008,0.153-0.01,0.303-0.01,0.45c0,0.587,0.039,1.14,0.119,1.659
				c0.08,0.521,0.223,0.978,0.43,1.37c0.207,0.394,0.483,0.707,0.83,0.94c0.348,0.233,0.787,0.35,1.32,0.35
				c0.439,0,0.813-0.093,1.12-0.279c0.307-0.188,0.56-0.427,0.76-0.721c0.2-0.293,0.343-0.609,0.431-0.95
				c0.086-0.34,0.129-0.67,0.129-0.989c0-0.907-0.217-1.601-0.649-2.08C332.597-134.74,331.947-134.98,331.08-134.98z"/>
			<path fill="#0000FF" d="M340.18-130.28c0.014,0.107,0.021,0.21,0.021,0.311c0,0.1,0,0.203,0,0.31c0,0.84-0.124,1.67-0.37,2.49
				c-0.247,0.82-0.584,1.604-1.01,2.35l-1.44-0.46c0.333-0.68,0.554-1.37,0.66-2.069c0.106-0.7,0.16-1.357,0.16-1.971
				c0-0.173-0.003-0.34-0.011-0.5c-0.006-0.16-0.016-0.313-0.029-0.46H340.18z"/>
			<path fill="#0000FF" d="M344.061-140.28c-0.334,0-0.617-0.109-0.851-0.33c-0.233-0.22-0.351-0.517-0.351-0.89
				s0.117-0.67,0.351-0.89c0.233-0.221,0.517-0.33,0.851-0.33c0.332,0,0.616,0.109,0.85,0.33c0.232,0.22,0.35,0.517,0.35,0.89
				s-0.117,0.67-0.35,0.89C344.677-140.39,344.393-140.28,344.061-140.28z M345-128h-1.859v-10.4H345V-128z"/>
			<path fill="#0000FF" d="M348.2-138.1c0.427-0.107,0.993-0.221,1.7-0.341c0.706-0.119,1.52-0.18,2.439-0.18
				c0.826,0,1.514,0.117,2.061,0.351s0.982,0.56,1.31,0.979s0.557,0.924,0.69,1.51c0.133,0.587,0.199,1.233,0.199,1.94v5.84h-1.859
				v-5.44c0-0.64-0.043-1.187-0.131-1.64c-0.086-0.453-0.229-0.82-0.43-1.1c-0.199-0.28-0.467-0.483-0.8-0.61
				s-0.747-0.19-1.239-0.19c-0.201,0-0.407,0.008-0.621,0.021c-0.213,0.014-0.416,0.03-0.609,0.05
				c-0.193,0.021-0.367,0.044-0.52,0.07c-0.154,0.026-0.264,0.047-0.33,0.06v8.78h-1.86V-138.1z"/>
			<path fill="#0000FF" d="M363.74-143.52c0.546,0,1.016,0.039,1.409,0.119s0.671,0.154,0.83,0.221l-0.34,1.6
				c-0.16-0.08-0.387-0.156-0.681-0.229c-0.293-0.073-0.652-0.11-1.08-0.11c-0.866,0-1.473,0.236-1.819,0.71s-0.521,1.11-0.521,1.91
				v0.899h4v1.561h-4v8.84h-1.859v-11.34c0-1.333,0.326-2.363,0.98-3.09C361.313-143.156,362.34-143.52,363.74-143.52z"/>
			<path fill="#0000FF" d="M369.639-133.98c0-1.706-0.246-3.286-0.74-4.739c-0.492-1.453-1.219-2.8-2.18-4.04l1.32-0.9
				c1.04,1.267,1.877,2.724,2.51,4.37s0.95,3.417,0.95,5.31c0,1.894-0.317,3.664-0.95,5.311s-1.47,3.104-2.51,4.37l-1.32-0.9
				c0.961-1.24,1.688-2.587,2.18-4.04C369.393-130.693,369.639-132.273,369.639-133.98z"/>
		</g>
	</g>
	<g id="node11">
		<title>4</title>
		<ellipse fill="none" stroke="#000000" stroke-width="2" cx="446" cy="-18" rx="18" ry="18"/>
		<g enable-background="new    ">
			<path d="M450.98-15.822h-2.178V-13h-1.738v-2.822h-6.143v-1.494l5.439-8.447h2.441v8.447h2.178V-15.822z M447.064-24.123
				l-4.443,6.807h4.443V-24.123z"/>
		</g>
	</g>
	<g id="edge10">
		<title>3-&gt;4</title>
		<path fill="none" stroke="#000000" stroke-width="2" d="M245.098-113.324C255.262-103.24,270.564-89.322,286-80
			c43.482,26.26,100.037,45.154,132.652,54.771"/>
		<polygon stroke="#000000" points="428.354,-22.436 419.989,-29.527 423.688,-24.299 418.882,-25.684 418.744,-25.202 
			418.605,-24.722 423.41,-23.338 417.498,-20.878 428.354,-22.436 		"/>
		<g enable-background="new    ">
			<path fill="#0000FF" d="M326.758-84.796c0.546,0,1.016,0.039,1.409,0.119s0.671,0.154,0.83,0.221l-0.34,1.6
				c-0.16-0.08-0.387-0.156-0.681-0.229c-0.293-0.073-0.652-0.11-1.08-0.11c-0.866,0-1.473,0.236-1.819,0.71s-0.521,1.11-0.521,1.91
				v0.899h4v1.561h-4v8.84h-1.859v-11.34c0-1.333,0.326-2.363,0.98-3.09C324.33-84.433,325.357-84.796,326.758-84.796z"/>
			<path fill="#0000FF" d="M334.938-69.036c-0.841,0-1.578-0.134-2.211-0.4s-1.166-0.64-1.6-1.12
				c-0.434-0.479-0.757-1.05-0.971-1.71c-0.213-0.66-0.319-1.39-0.319-2.189c0-0.801,0.116-1.533,0.351-2.2
				c0.232-0.667,0.563-1.243,0.989-1.73c0.427-0.486,0.95-0.866,1.57-1.14s1.31-0.41,2.069-0.41c0.467,0,0.934,0.04,1.4,0.12
				s0.913,0.207,1.34,0.38l-0.42,1.58c-0.279-0.133-0.604-0.24-0.97-0.32c-0.367-0.08-0.757-0.119-1.17-0.119
				c-1.04,0-1.837,0.326-2.39,0.979c-0.555,0.653-0.83,1.606-0.83,2.86c0,0.56,0.063,1.073,0.189,1.54s0.326,0.866,0.6,1.199
				c0.273,0.334,0.623,0.591,1.051,0.771c0.426,0.18,0.946,0.27,1.56,0.27c0.493,0,0.94-0.046,1.341-0.14
				c0.399-0.093,0.713-0.193,0.939-0.3l0.26,1.56c-0.107,0.067-0.26,0.13-0.46,0.19c-0.2,0.06-0.427,0.113-0.681,0.16
				c-0.253,0.046-0.523,0.086-0.809,0.12C335.48-69.054,335.203-69.036,334.938-69.036z"/>
			<path fill="#0000FF" d="M344.236-69.036c-0.84,0-1.576-0.134-2.209-0.4c-0.635-0.267-1.168-0.64-1.601-1.12
				c-0.434-0.479-0.757-1.05-0.97-1.71c-0.214-0.66-0.32-1.39-0.32-2.189c0-0.801,0.117-1.533,0.35-2.2
				c0.233-0.667,0.563-1.243,0.99-1.73c0.427-0.486,0.95-0.866,1.57-1.14c0.619-0.273,1.311-0.41,2.07-0.41
				c0.467,0,0.933,0.04,1.399,0.12s0.913,0.207,1.341,0.38l-0.421,1.58c-0.28-0.133-0.603-0.24-0.97-0.32s-0.757-0.119-1.17-0.119
				c-1.04,0-1.837,0.326-2.391,0.979c-0.553,0.653-0.83,1.606-0.83,2.86c0,0.56,0.063,1.073,0.19,1.54
				c0.126,0.467,0.327,0.866,0.601,1.199c0.272,0.334,0.623,0.591,1.049,0.771c0.428,0.18,0.947,0.27,1.561,0.27
				c0.493,0,0.939-0.046,1.34-0.14c0.4-0.093,0.713-0.193,0.94-0.3l0.26,1.56c-0.106,0.067-0.26,0.13-0.46,0.19
				c-0.199,0.06-0.427,0.113-0.68,0.16c-0.254,0.046-0.523,0.086-0.811,0.12C344.779-69.054,344.504-69.036,344.236-69.036z"/>
			<path fill="#0000FF" d="M355.457-75.257c0,1.707,0.246,3.287,0.74,4.74c0.492,1.453,1.219,2.8,2.18,4.04l-1.32,0.9
				c-1.04-1.267-1.877-2.724-2.51-4.37c-0.634-1.646-0.95-3.417-0.95-5.311c0-1.893,0.316-3.663,0.95-5.31
				c0.633-1.646,1.47-3.104,2.51-4.37l1.32,0.9c-0.961,1.24-1.688,2.587-2.18,4.04C355.703-78.543,355.457-76.963,355.457-75.257z"
				/>
			<path fill="#0000FF" d="M359.316-74.076c0.253-0.587,0.6-1.271,1.039-2.05c0.44-0.78,0.938-1.584,1.49-2.41
				c0.554-0.827,1.146-1.641,1.78-2.44s1.271-1.52,1.91-2.16h1.78v8.801h1.64v1.52h-1.64v3.54h-1.801v-3.54h-6.199V-74.076z
				 M365.516-80.937c-0.399,0.427-0.803,0.903-1.209,1.43c-0.407,0.527-0.805,1.077-1.19,1.65c-0.388,0.573-0.75,1.16-1.091,1.76
				c-0.34,0.601-0.643,1.188-0.909,1.761h4.399V-80.937z"/>
			<path fill="#0000FF" d="M373.356-71.557c0.013,0.107,0.021,0.21,0.021,0.311c0,0.1,0,0.203,0,0.31c0,0.84-0.124,1.67-0.371,2.49
				c-0.246,0.82-0.583,1.604-1.01,2.35l-1.439-0.46c0.333-0.68,0.553-1.37,0.66-2.069c0.105-0.7,0.16-1.357,0.16-1.971
				c0-0.173-0.004-0.34-0.011-0.5s-0.017-0.313-0.03-0.46H373.356z"/>
			<path fill="#0000FF" d="M377.236-81.557c-0.334,0-0.617-0.109-0.851-0.33c-0.233-0.22-0.351-0.517-0.351-0.89
				s0.117-0.67,0.351-0.89c0.233-0.221,0.517-0.33,0.851-0.33c0.332,0,0.616,0.109,0.85,0.33c0.232,0.22,0.35,0.517,0.35,0.89
				s-0.117,0.67-0.35,0.89C377.853-81.666,377.568-81.557,377.236-81.557z M378.176-69.276h-1.859v-10.4h1.859V-69.276z"/>
			<path fill="#0000FF" d="M381.376-79.376c0.427-0.107,0.993-0.221,1.7-0.341c0.706-0.119,1.52-0.18,2.439-0.18
				c0.826,0,1.514,0.117,2.061,0.351s0.982,0.56,1.31,0.979s0.557,0.924,0.69,1.51c0.133,0.587,0.199,1.233,0.199,1.94v5.84h-1.859
				v-5.44c0-0.64-0.043-1.187-0.131-1.64c-0.086-0.453-0.229-0.82-0.43-1.1c-0.199-0.28-0.467-0.483-0.8-0.61
				s-0.747-0.19-1.239-0.19c-0.201,0-0.407,0.008-0.621,0.021c-0.213,0.014-0.416,0.03-0.609,0.05
				c-0.193,0.021-0.367,0.044-0.52,0.07c-0.154,0.026-0.264,0.047-0.33,0.06v8.78h-1.86V-79.376z"/>
			<path fill="#0000FF" d="M396.916-84.796c0.546,0,1.016,0.039,1.409,0.119s0.671,0.154,0.83,0.221l-0.34,1.6
				c-0.16-0.08-0.387-0.156-0.681-0.229c-0.293-0.073-0.652-0.11-1.08-0.11c-0.866,0-1.473,0.236-1.819,0.71s-0.521,1.11-0.521,1.91
				v0.899h4v1.561h-4v8.84h-1.859v-11.34c0-1.333,0.326-2.363,0.98-3.09C394.488-84.433,395.516-84.796,396.916-84.796z"/>
			<path fill="#0000FF" d="M402.814-75.257c0-1.706-0.246-3.286-0.74-4.739c-0.492-1.453-1.219-2.8-2.18-4.04l1.32-0.9
				c1.04,1.267,1.877,2.724,2.51,4.37s0.95,3.417,0.95,5.31c0,1.894-0.317,3.664-0.95,5.311s-1.47,3.104-2.51,4.37l-1.32-0.9
				c0.961-1.24,1.688-2.587,2.18-4.04C402.568-71.97,402.814-73.55,402.814-75.257z"/>
		</g>
	</g>
</g>
</svg>
