<?xml version="1.0" encoding="utf-8"?>
<!-- Generator: Adobe Illustrator 16.0.0, SVG Export Plug-In . SVG Version: 6.00 Build 0)  -->
<!DOCTYPE svg PUBLIC "-//W3C//DTD SVG 1.1//EN" "http://www.w3.org/Graphics/SVG/1.1/DTD/svg11.dtd">
<svg version="1.1" id="图层_1" xmlns="http://www.w3.org/2000/svg" xmlns:xlink="http://www.w3.org/1999/xlink" x="0px" y="0px"
	 width="340px" height="377px" viewBox="0 0 340 377" enable-background="new 0 0 340 377" xml:space="preserve">
<g id="graph1" transform="scale(1 1) rotate(0) translate(4 310)">
	<title>G</title>
	<polygon fill="#FFFFFF" stroke="#FFFFFF" points="-4,67 -4,-310 337,-310 337,67 	"/>
	<g id="node1">
		<title>0</title>
		<ellipse fill="none" stroke="#000000" stroke-width="2" cx="18" cy="-126" rx="18" ry="18"/>
		<g enable-background="new    ">
			<path d="M22.639-127.377c0,0.977-0.098,1.867-0.293,2.671s-0.492,1.494-0.889,2.07s-0.89,1.022-1.479,1.338
				s-1.281,0.474-2.075,0.474c-0.684,0-1.305-0.129-1.865-0.386s-1.039-0.652-1.436-1.187s-0.703-1.214-0.918-2.041
				s-0.322-1.807-0.322-2.939c0-0.977,0.099-1.868,0.298-2.676s0.495-1.499,0.889-2.075s0.887-1.022,1.479-1.338
				s1.283-0.474,2.07-0.474c0.684,0,1.305,0.129,1.865,0.386s1.039,0.654,1.436,1.191s0.703,1.219,0.918,2.046
				S22.639-128.51,22.639-127.377z M15.08-127.436c0,0.202,0.001,0.403,0.005,0.605s0.015,0.397,0.034,0.586l5.4-3.994
				c-0.098-0.332-0.221-0.635-0.371-0.908s-0.329-0.51-0.537-0.708s-0.446-0.354-0.713-0.464s-0.566-0.166-0.898-0.166
				c-0.443,0-0.845,0.107-1.206,0.322s-0.669,0.535-0.923,0.962s-0.449,0.954-0.586,1.582S15.08-128.263,15.08-127.436z
				 M20.92-127.318c0-0.222-0.008-0.441-0.024-0.659s-0.034-0.432-0.054-0.64l-5.4,4.014c0.098,0.339,0.221,0.651,0.371,0.938
				s0.331,0.532,0.542,0.737s0.453,0.364,0.723,0.479s0.578,0.171,0.923,0.171c0.443,0,0.845-0.107,1.206-0.322
				s0.669-0.534,0.923-0.957s0.449-0.949,0.586-1.577S20.92-126.491,20.92-127.318z"/>
		</g>
	</g>
	<g id="node3">
		<title>3</title>
		<ellipse fill="none" stroke="#000000" stroke-width="2" cx="166" cy="-234" rx="18" ry="18"/>
		<g enable-background="new    ">
			<path d="M170.102-232.877c0,0.56-0.113,1.086-0.342,1.577s-0.57,0.921-1.025,1.289s-1.029,0.657-1.719,0.869
				c-0.69,0.212-1.494,0.317-2.412,0.317c-0.508,0-0.963-0.017-1.367-0.049s-0.781-0.075-1.133-0.127v-1.523
				c0.404,0.071,0.83,0.127,1.279,0.166s0.908,0.059,1.377,0.059c0.638,0,1.183-0.057,1.636-0.171
				c0.452-0.114,0.821-0.278,1.108-0.493s0.494-0.476,0.625-0.781s0.195-0.651,0.195-1.035c0-0.352-0.078-0.657-0.234-0.918
				s-0.376-0.479-0.659-0.654s-0.622-0.308-1.016-0.396c-0.394-0.088-0.825-0.132-1.294-0.132h-1.455v-1.396h1.475
				c0.384,0,0.734-0.051,1.05-0.151c0.315-0.101,0.586-0.246,0.811-0.435s0.397-0.422,0.518-0.698s0.181-0.591,0.181-0.942
				c0-0.684-0.209-1.182-0.625-1.494s-1.029-0.469-1.836-0.469c-0.43,0-0.873,0.042-1.328,0.127s-0.944,0.212-1.465,0.381v-1.484
				c0.221-0.078,0.458-0.148,0.708-0.21s0.501-0.114,0.752-0.156s0.5-0.075,0.747-0.098s0.485-0.034,0.713-0.034
				c0.677,0,1.273,0.073,1.787,0.22s0.943,0.356,1.289,0.63s0.605,0.605,0.781,0.996s0.264,0.83,0.264,1.318
				c0,0.729-0.188,1.341-0.562,1.836s-0.888,0.889-1.538,1.182c0.332,0.052,0.659,0.156,0.981,0.313s0.612,0.356,0.869,0.601
				s0.466,0.532,0.625,0.864S170.102-233.28,170.102-232.877z"/>
		</g>
	</g>
	<g id="edge2">
		<title>0-&gt;3</title>
		<path fill="none" stroke="#FF0000" stroke-width="2" d="M32.999-136.355c25.334-18.741,78.986-58.429,109.515-81.011"/>
		<polygon fill="#FF0000" stroke="#FF0000" points="150.829,-223.517 140.113,-221.188 146.512,-220.946 142.492,-217.972 
			142.789,-217.57 143.087,-217.168 147.106,-220.142 145.465,-213.952 150.829,-223.517 		"/>
		<g enable-background="new    ">
			<path fill="#0000FF" d="M91.74-208.66c0.747,0,1.376,0.097,1.89,0.29c0.513,0.193,0.926,0.467,1.24,0.82s0.537,0.773,0.67,1.26
				c0.133,0.487,0.2,1.023,0.2,1.61v6.5c-0.16,0.026-0.383,0.063-0.67,0.109c-0.287,0.047-0.61,0.09-0.97,0.13
				c-0.36,0.04-0.75,0.077-1.17,0.11s-0.837,0.05-1.25,0.05c-0.587,0-1.127-0.06-1.62-0.18s-0.92-0.31-1.28-0.57
				c-0.36-0.26-0.64-0.603-0.84-1.029c-0.2-0.427-0.3-0.94-0.3-1.54c0-0.573,0.117-1.067,0.35-1.48s0.55-0.746,0.95-1
				c0.4-0.253,0.866-0.439,1.4-0.56c0.533-0.12,1.093-0.181,1.68-0.181c0.187,0,0.38,0.011,0.58,0.03
				c0.2,0.021,0.39,0.047,0.57,0.08c0.18,0.033,0.336,0.063,0.47,0.09c0.133,0.027,0.227,0.047,0.28,0.061v-0.521
				c0-0.307-0.034-0.61-0.1-0.91c-0.067-0.3-0.187-0.566-0.36-0.8c-0.174-0.233-0.41-0.42-0.71-0.56c-0.3-0.141-0.69-0.21-1.17-0.21
				c-0.613,0-1.15,0.043-1.61,0.13s-0.803,0.177-1.03,0.27l-0.22-1.54c0.24-0.106,0.64-0.21,1.2-0.31
				C90.48-208.61,91.087-208.66,91.74-208.66z M91.9-199.34c0.44,0,0.83-0.01,1.17-0.03c0.34-0.02,0.623-0.057,0.85-0.11v-3.1
				c-0.134-0.066-0.35-0.123-0.65-0.17c-0.3-0.047-0.664-0.07-1.09-0.07c-0.28,0-0.577,0.021-0.89,0.061
				c-0.313,0.04-0.6,0.123-0.86,0.25c-0.26,0.127-0.477,0.3-0.65,0.52c-0.173,0.221-0.26,0.51-0.26,0.87
				c0,0.667,0.213,1.13,0.64,1.39C90.587-199.47,91.167-199.34,91.9-199.34z"/>
		</g>
	</g>
	<g id="node9">
		<title>2</title>
		<ellipse fill="none" stroke="#000000" stroke-width="2" cx="166" cy="-126" rx="18" ry="18"/>
		<g enable-background="new    ">
			<path d="M170.346-121h-8.408v-1.523l3.301-3.281c0.541-0.534,0.98-0.996,1.318-1.387c0.338-0.391,0.602-0.747,0.791-1.069
				s0.316-0.627,0.381-0.913s0.098-0.596,0.098-0.928c0-0.313-0.043-0.61-0.127-0.894s-0.215-0.532-0.391-0.747
				s-0.404-0.384-0.684-0.508c-0.28-0.124-0.615-0.186-1.006-0.186c-0.541,0-1.032,0.12-1.475,0.361s-0.85,0.554-1.221,0.938
				l-0.938-1.123c0.482-0.508,1.037-0.915,1.665-1.221s1.359-0.459,2.192-0.459c0.566,0,1.082,0.085,1.548,0.254
				s0.868,0.413,1.206,0.732s0.601,0.71,0.786,1.172s0.278,0.983,0.278,1.563c0,0.488-0.064,0.94-0.195,1.357
				s-0.327,0.832-0.591,1.245s-0.596,0.842-0.996,1.284s-0.874,0.928-1.421,1.455l-2.314,2.256h6.201V-121z"/>
		</g>
	</g>
	<g id="edge8">
		<title>0-&gt;2</title>
		<path fill="none" stroke="#000000" stroke-width="2" d="M36.092-122.346C46.432-120.324,59.91-118.02,72-117
			c17.715,1.493,22.285,1.493,40,0c8.501-0.717,17.688-2.068,25.988-3.512"/>
		<polygon stroke="#000000" points="147.908,-122.346 137.256,-124.952 142.9,-121.928 137.983,-121.02 138.074,-120.527 
			138.165,-120.036 143.082,-120.945 138.893,-116.104 147.908,-122.346 		"/>
		<g enable-background="new    ">
			<path fill="#0000FF" d="M79.64-122.76c-0.84,0-1.577-0.134-2.21-0.4c-0.634-0.267-1.167-0.64-1.6-1.12
				c-0.434-0.479-0.757-1.05-0.97-1.71s-0.32-1.39-0.32-2.189c0-0.801,0.117-1.533,0.35-2.2c0.233-0.667,0.563-1.243,0.99-1.73
				c0.427-0.486,0.95-0.866,1.57-1.14c0.62-0.273,1.31-0.41,2.07-0.41c0.467,0,0.933,0.04,1.4,0.12s0.913,0.207,1.34,0.38
				l-0.42,1.58c-0.28-0.133-0.603-0.24-0.97-0.32c-0.367-0.08-0.757-0.119-1.17-0.119c-1.04,0-1.837,0.326-2.39,0.979
				c-0.554,0.653-0.83,1.606-0.83,2.86c0,0.56,0.063,1.073,0.19,1.54c0.126,0.467,0.327,0.866,0.6,1.199
				c0.273,0.334,0.623,0.591,1.05,0.771s0.947,0.27,1.56,0.27c0.493,0,0.94-0.046,1.34-0.14c0.4-0.093,0.713-0.193,0.94-0.3
				l0.26,1.56c-0.107,0.067-0.26,0.13-0.46,0.19c-0.2,0.06-0.427,0.113-0.68,0.16c-0.253,0.046-0.523,0.086-0.81,0.12
				C80.183-122.777,79.907-122.76,79.64-122.76z"/>
			<path fill="#0000FF" d="M87.78-133.66c0.747,0,1.376,0.097,1.89,0.29c0.513,0.193,0.926,0.467,1.24,0.82s0.537,0.773,0.67,1.26
				c0.133,0.487,0.2,1.023,0.2,1.61v6.5c-0.16,0.026-0.383,0.063-0.67,0.109c-0.287,0.047-0.61,0.09-0.97,0.13
				c-0.36,0.04-0.75,0.077-1.17,0.11s-0.837,0.05-1.25,0.05c-0.587,0-1.127-0.06-1.62-0.18s-0.92-0.31-1.28-0.57
				c-0.36-0.26-0.64-0.603-0.84-1.029c-0.2-0.427-0.3-0.94-0.3-1.54c0-0.573,0.117-1.067,0.35-1.48s0.55-0.746,0.95-1
				c0.4-0.253,0.866-0.439,1.4-0.56c0.533-0.12,1.093-0.181,1.68-0.181c0.187,0,0.38,0.011,0.58,0.03
				c0.2,0.021,0.39,0.047,0.57,0.08c0.18,0.033,0.336,0.063,0.47,0.09c0.133,0.027,0.227,0.047,0.28,0.061v-0.521
				c0-0.307-0.034-0.61-0.1-0.91c-0.067-0.3-0.187-0.566-0.36-0.8c-0.174-0.233-0.41-0.42-0.71-0.56c-0.3-0.141-0.69-0.21-1.17-0.21
				c-0.613,0-1.15,0.043-1.61,0.13s-0.803,0.177-1.03,0.27l-0.22-1.54c0.24-0.106,0.64-0.21,1.2-0.31
				C86.52-133.61,87.126-133.66,87.78-133.66z M87.94-124.34c0.44,0,0.83-0.01,1.17-0.03c0.34-0.02,0.623-0.057,0.85-0.11v-3.1
				c-0.134-0.066-0.35-0.123-0.65-0.17c-0.3-0.047-0.664-0.07-1.09-0.07c-0.28,0-0.577,0.021-0.89,0.061
				c-0.313,0.04-0.6,0.123-0.86,0.25c-0.26,0.127-0.477,0.3-0.65,0.52c-0.173,0.221-0.26,0.51-0.26,0.87
				c0,0.667,0.213,1.13,0.64,1.39C86.626-124.47,87.207-124.34,87.94-124.34z"/>
			<path fill="#0000FF" d="M94.86-133.1c0.426-0.107,0.99-0.221,1.69-0.341c0.7-0.119,1.51-0.18,2.43-0.18
				c0.667,0,1.227,0.09,1.68,0.271c0.453,0.18,0.833,0.443,1.14,0.79c0.093-0.067,0.24-0.16,0.44-0.28s0.447-0.236,0.74-0.351
				c0.293-0.112,0.62-0.213,0.98-0.3c0.36-0.086,0.747-0.13,1.16-0.13c0.8,0,1.453,0.117,1.96,0.351s0.903,0.563,1.19,0.989
				s0.48,0.934,0.58,1.521c0.1,0.587,0.15,1.227,0.15,1.92v5.84h-1.86v-5.44c0-0.612-0.03-1.14-0.09-1.579
				c-0.06-0.44-0.173-0.807-0.34-1.101c-0.167-0.293-0.394-0.51-0.68-0.649c-0.287-0.141-0.657-0.211-1.11-0.211
				c-0.627,0-1.144,0.084-1.55,0.25c-0.407,0.167-0.683,0.317-0.83,0.45c0.107,0.347,0.187,0.728,0.24,1.141s0.08,0.847,0.08,1.3
				v5.84H101v-5.44c0-0.612-0.034-1.14-0.1-1.579c-0.067-0.44-0.184-0.807-0.35-1.101c-0.167-0.293-0.394-0.51-0.68-0.649
				c-0.287-0.141-0.65-0.211-1.09-0.211c-0.187,0-0.387,0.008-0.6,0.021c-0.213,0.014-0.417,0.03-0.61,0.05
				c-0.193,0.021-0.37,0.044-0.53,0.07c-0.16,0.026-0.267,0.047-0.32,0.06v8.78h-1.86V-133.1z"/>
		</g>
	</g>
	<g id="node11">
		<title>5</title>
		<ellipse fill="none" stroke="#000000" stroke-width="2" cx="166" cy="-18" rx="18" ry="18"/>
		<g enable-background="new    ">
			<path d="M170.023-17.082c0,0.632-0.137,1.208-0.41,1.729s-0.649,0.969-1.128,1.343s-1.044,0.666-1.694,0.874
				c-0.651,0.208-1.354,0.313-2.109,0.313c-0.189,0-0.392-0.005-0.61-0.015s-0.435-0.022-0.649-0.039s-0.425-0.034-0.63-0.054
				s-0.389-0.042-0.552-0.068v-1.543c0.352,0.085,0.753,0.146,1.206,0.186s0.91,0.059,1.372,0.059c0.521,0,0.99-0.062,1.406-0.186
				c0.416-0.124,0.771-0.301,1.064-0.532s0.518-0.511,0.674-0.84s0.234-0.698,0.234-1.108c0-0.794-0.285-1.372-0.854-1.733
				s-1.388-0.542-2.456-0.542h-2.422v-6.523h6.875v1.484h-5.273v3.584h1.113c0.612,0,1.208,0.056,1.787,0.166
				c0.58,0.11,1.096,0.305,1.548,0.581s0.817,0.647,1.094,1.113S170.023-17.785,170.023-17.082z"/>
		</g>
	</g>
	<g id="edge10">
		<title>0-&gt;5</title>
		<path fill="none" stroke="#FF0000" stroke-width="2" d="M31.007-113.342C41.361-102.762,56.975-87.588,72-76
			c22.272,17.178,49.829,33.854,69.143,44.883"/>
		<polygon fill="#FF0000" stroke="#FF0000" points="149.903,-26.18 143.401,-35.01 145.793,-29.07 141.437,-31.525 141.192,-31.09 
			140.946,-30.654 145.302,-28.199 138.982,-27.17 149.903,-26.18 		"/>
		<g enable-background="new    ">
			<path fill="#0000FF" d="M84.99-92.1c0.426-0.107,0.99-0.221,1.69-0.341c0.7-0.119,1.51-0.18,2.43-0.18
				c0.667,0,1.227,0.09,1.68,0.271c0.453,0.18,0.833,0.443,1.14,0.79c0.093-0.067,0.24-0.16,0.44-0.28s0.447-0.236,0.74-0.351
				c0.293-0.112,0.62-0.213,0.98-0.3c0.36-0.086,0.747-0.13,1.16-0.13c0.8,0,1.453,0.117,1.96,0.351s0.903,0.563,1.19,0.989
				s0.48,0.934,0.58,1.521c0.1,0.587,0.15,1.227,0.15,1.92V-82h-1.86v-5.44c0-0.612-0.03-1.14-0.09-1.579
				c-0.06-0.44-0.173-0.807-0.34-1.101c-0.167-0.293-0.394-0.51-0.68-0.649c-0.287-0.141-0.657-0.211-1.11-0.211
				c-0.627,0-1.144,0.084-1.55,0.25c-0.407,0.167-0.683,0.317-0.83,0.45c0.107,0.347,0.187,0.728,0.24,1.141s0.08,0.847,0.08,1.3
				V-82h-1.86v-5.44c0-0.612-0.034-1.14-0.1-1.579c-0.067-0.44-0.184-0.807-0.35-1.101c-0.167-0.293-0.394-0.51-0.68-0.649
				c-0.287-0.141-0.65-0.211-1.09-0.211c-0.187,0-0.387,0.008-0.6,0.021c-0.213,0.014-0.417,0.03-0.61,0.05
				c-0.193,0.021-0.37,0.044-0.53,0.07c-0.16,0.026-0.267,0.047-0.32,0.06V-82h-1.86V-92.1z"/>
		</g>
	</g>
	<g id="node5">
		<title>1</title>
		<ellipse fill="none" stroke="#000000" stroke-width="2" cx="314" cy="-288" rx="18" ry="18"/>
		<g enable-background="new    ">
			<path d="M318.238-283h-8.018v-1.582h3.281v-9.316l-3.057,1.66l-0.625-1.445l4.063-2.139h1.504v11.24h2.852V-283z"/>
		</g>
	</g>
	<g id="edge4">
		<title>3-&gt;1</title>
		<path fill="none" stroke="#FF0000" stroke-width="2" d="M183.182-239.985c25.215-9.326,74.096-27.405,104.153-38.522"/>
		<polygon fill="#FF0000" stroke="#FF0000" points="296.745,-281.988 285.805,-282.739 291.882,-280.722 287.193,-278.988 
			287.366,-278.519 287.54,-278.05 292.229,-279.784 288.927,-274.298 296.745,-281.988 		"/>
		<g enable-background="new    ">
			<path fill="#0000FF" d="M227.641-272.76c-0.84,0-1.577-0.134-2.21-0.4c-0.634-0.267-1.167-0.64-1.601-1.12
				c-0.434-0.479-0.756-1.05-0.97-1.71s-0.319-1.39-0.319-2.189c0-0.801,0.116-1.533,0.35-2.2c0.232-0.667,0.563-1.243,0.99-1.73
				c0.426-0.486,0.949-0.866,1.57-1.14c0.619-0.273,1.31-0.41,2.069-0.41c0.467,0,0.933,0.04,1.399,0.12s0.914,0.207,1.341,0.38
				l-0.421,1.58c-0.279-0.133-0.603-0.24-0.969-0.32c-0.367-0.08-0.758-0.119-1.17-0.119c-1.041,0-1.838,0.326-2.391,0.979
				c-0.554,0.653-0.83,1.606-0.83,2.86c0,0.56,0.063,1.073,0.189,1.54s0.327,0.866,0.601,1.199c0.272,0.334,0.623,0.591,1.05,0.771
				s0.947,0.27,1.561,0.27c0.492,0,0.939-0.046,1.34-0.14c0.4-0.093,0.713-0.193,0.939-0.3l0.26,1.56
				c-0.106,0.067-0.26,0.13-0.459,0.19c-0.2,0.06-0.428,0.113-0.681,0.16c-0.253,0.046-0.523,0.086-0.81,0.12
				C228.184-272.777,227.907-272.76,227.641-272.76z"/>
			<path fill="#0000FF" d="M235.78-283.66c0.747,0,1.376,0.097,1.89,0.29s0.927,0.467,1.24,0.82s0.537,0.773,0.67,1.26
				c0.133,0.487,0.2,1.023,0.2,1.61v6.5c-0.16,0.026-0.384,0.063-0.67,0.109c-0.287,0.047-0.61,0.09-0.97,0.13
				c-0.36,0.04-0.75,0.077-1.17,0.11s-0.838,0.05-1.25,0.05c-0.588,0-1.127-0.06-1.621-0.18c-0.492-0.12-0.92-0.31-1.279-0.57
				c-0.359-0.26-0.641-0.603-0.84-1.029c-0.2-0.427-0.301-0.94-0.301-1.54c0-0.573,0.117-1.067,0.351-1.48s0.55-0.746,0.95-1
				c0.4-0.253,0.866-0.439,1.4-0.56c0.533-0.12,1.093-0.181,1.68-0.181c0.187,0,0.38,0.011,0.58,0.03
				c0.199,0.021,0.39,0.047,0.57,0.08c0.18,0.033,0.336,0.063,0.469,0.09c0.134,0.027,0.227,0.047,0.281,0.061v-0.521
				c0-0.307-0.034-0.61-0.101-0.91c-0.067-0.3-0.187-0.566-0.36-0.8s-0.41-0.42-0.709-0.56c-0.301-0.141-0.691-0.21-1.171-0.21
				c-0.613,0-1.149,0.043-1.61,0.13c-0.459,0.087-0.803,0.177-1.029,0.27l-0.221-1.54c0.24-0.106,0.641-0.21,1.201-0.31
				C234.521-283.61,235.127-283.66,235.78-283.66z M235.94-274.34c0.44,0,0.83-0.01,1.17-0.03c0.34-0.02,0.623-0.057,0.851-0.11
				v-3.1c-0.135-0.066-0.351-0.123-0.65-0.17c-0.301-0.047-0.664-0.07-1.09-0.07c-0.28,0-0.577,0.021-0.891,0.061
				c-0.313,0.04-0.6,0.123-0.859,0.25s-0.477,0.3-0.65,0.52c-0.174,0.221-0.26,0.51-0.26,0.87c0,0.667,0.213,1.13,0.64,1.39
				C234.627-274.47,235.207-274.34,235.94-274.34z"/>
			<path fill="#0000FF" d="M242.86-283.1c0.427-0.107,0.989-0.221,1.69-0.341c0.699-0.119,1.51-0.18,2.43-0.18
				c0.666,0,1.227,0.09,1.68,0.271c0.453,0.18,0.833,0.443,1.141,0.79c0.093-0.067,0.239-0.16,0.439-0.28s0.447-0.236,0.74-0.351
				c0.293-0.112,0.619-0.213,0.98-0.3c0.359-0.086,0.746-0.13,1.159-0.13c0.8,0,1.453,0.117,1.96,0.351s0.903,0.563,1.189,0.989
				c0.287,0.427,0.48,0.934,0.58,1.521c0.101,0.587,0.15,1.227,0.15,1.92v5.84h-1.859v-5.44c0-0.612-0.03-1.14-0.09-1.579
				c-0.061-0.44-0.174-0.807-0.34-1.101c-0.168-0.293-0.395-0.51-0.681-0.649c-0.287-0.141-0.657-0.211-1.11-0.211
				c-0.627,0-1.143,0.084-1.55,0.25c-0.407,0.167-0.683,0.317-0.83,0.45c0.106,0.347,0.187,0.728,0.24,1.141s0.08,0.847,0.08,1.3
				v5.84H249v-5.44c0-0.612-0.033-1.14-0.1-1.579c-0.066-0.44-0.184-0.807-0.35-1.101c-0.168-0.293-0.395-0.51-0.681-0.649
				c-0.286-0.141-0.649-0.211-1.09-0.211c-0.187,0-0.387,0.008-0.601,0.021c-0.213,0.014-0.416,0.03-0.609,0.05
				c-0.193,0.021-0.37,0.044-0.53,0.07c-0.159,0.026-0.267,0.047-0.319,0.06v8.78h-1.86V-283.1z"/>
		</g>
	</g>
	<g id="node7">
		<title>4</title>
		<ellipse fill="none" stroke="#000000" stroke-width="2" cx="314" cy="-180" rx="18" ry="18"/>
		<g enable-background="new    ">
			<path d="M318.98-177.822h-2.178V-175h-1.738v-2.822h-6.143v-1.494l5.439-8.447h2.441v8.447h2.178V-177.822z M315.064-186.123
				l-4.443,6.807h4.443V-186.123z"/>
		</g>
	</g>
	<g id="edge6">
		<title>3-&gt;4</title>
		<path fill="none" stroke="#FF0000" stroke-width="2" d="M183.221-227.829c10.483,3.975,24.426,9.24,36.779,13.829
			c22.707,8.435,48.593,17.885,67.277,24.677"/>
		<polygon fill="#FF0000" stroke="#FF0000" points="296.854,-185.846 288.989,-193.489 292.323,-188.023 287.624,-189.729 
			287.453,-189.259 287.282,-188.789 291.982,-187.083 285.917,-185.03 296.854,-185.846 		"/>
		<g enable-background="new    ">
			<path fill="#0000FF" d="M232.99-230.1c0.426-0.107,0.99-0.221,1.689-0.341c0.701-0.119,1.51-0.18,2.431-0.18
				c0.667,0,1.227,0.09,1.68,0.271c0.453,0.18,0.833,0.443,1.14,0.79c0.094-0.067,0.24-0.16,0.44-0.28s0.446-0.236,0.74-0.351
				c0.293-0.112,0.62-0.213,0.979-0.3c0.36-0.086,0.747-0.13,1.16-0.13c0.801,0,1.453,0.117,1.96,0.351s0.903,0.563,1.19,0.989
				c0.286,0.427,0.48,0.934,0.58,1.521s0.15,1.227,0.15,1.92v5.84h-1.861v-5.44c0-0.612-0.029-1.14-0.09-1.579
				c-0.06-0.44-0.173-0.807-0.34-1.101c-0.166-0.293-0.393-0.51-0.68-0.649c-0.287-0.141-0.656-0.211-1.109-0.211
				c-0.627,0-1.145,0.084-1.551,0.25c-0.406,0.167-0.684,0.317-0.83,0.45c0.107,0.347,0.188,0.728,0.24,1.141s0.08,0.847,0.08,1.3
				v5.84h-1.859v-5.44c0-0.612-0.034-1.14-0.101-1.579c-0.067-0.44-0.184-0.807-0.351-1.101c-0.166-0.293-0.393-0.51-0.68-0.649
				c-0.287-0.141-0.65-0.211-1.09-0.211c-0.188,0-0.387,0.008-0.6,0.021c-0.214,0.014-0.418,0.03-0.61,0.05
				c-0.193,0.021-0.37,0.044-0.53,0.07s-0.267,0.047-0.32,0.06v8.78h-1.859V-230.1z"/>
		</g>
	</g>
</g>
<g>
	<path fill="#4F4F4F" d="M26.96,263.34c0.747,0,1.377,0.098,1.89,0.29c0.514,0.193,0.927,0.467,1.24,0.82
		c0.313,0.353,0.537,0.773,0.67,1.26c0.134,0.487,0.2,1.023,0.2,1.61v6.5c-0.16,0.026-0.384,0.063-0.67,0.109
		c-0.287,0.047-0.61,0.09-0.97,0.131c-0.36,0.039-0.75,0.076-1.17,0.109s-0.837,0.051-1.25,0.051c-0.587,0-1.127-0.061-1.62-0.181
		s-0.92-0.31-1.28-0.569c-0.36-0.261-0.64-0.604-0.84-1.031c-0.2-0.426-0.3-0.939-0.3-1.539c0-0.574,0.117-1.066,0.35-1.48
		c0.233-0.413,0.55-0.746,0.95-1c0.4-0.253,0.866-0.439,1.4-0.561c0.533-0.119,1.093-0.18,1.68-0.18c0.187,0,0.38,0.01,0.58,0.03
		c0.199,0.021,0.39,0.047,0.569,0.08c0.181,0.033,0.337,0.063,0.471,0.09c0.133,0.026,0.227,0.047,0.279,0.06v-0.52
		c0-0.307-0.033-0.609-0.1-0.91c-0.067-0.3-0.187-0.566-0.36-0.8c-0.173-0.233-0.41-0.42-0.71-0.56
		c-0.3-0.141-0.69-0.211-1.17-0.211c-0.613,0-1.15,0.044-1.61,0.131c-0.46,0.086-0.803,0.177-1.03,0.27l-0.22-1.54
		c0.24-0.106,0.64-0.21,1.2-0.31S26.307,263.34,26.96,263.34z M27.12,272.66c0.44,0,0.83-0.01,1.17-0.03s0.623-0.057,0.85-0.11v-3.1
		c-0.133-0.066-0.35-0.123-0.649-0.17s-0.664-0.07-1.09-0.07c-0.28,0-0.577,0.021-0.89,0.061c-0.313,0.039-0.6,0.123-0.86,0.25
		c-0.26,0.127-0.477,0.3-0.65,0.52c-0.173,0.221-0.26,0.51-0.26,0.87c0,0.667,0.213,1.13,0.64,1.39S26.387,272.66,27.12,272.66z"/>
	<path fill="#4F4F4F" d="M38.56,274.24c-0.84,0-1.577-0.134-2.21-0.4c-0.634-0.267-1.167-0.64-1.601-1.119
		c-0.433-0.48-0.757-1.051-0.97-1.711s-0.32-1.39-0.32-2.189c0-0.801,0.117-1.533,0.351-2.2s0.563-1.243,0.99-1.729
		c0.426-0.487,0.949-0.867,1.569-1.141s1.311-0.41,2.07-0.41c0.467,0,0.934,0.04,1.4,0.12c0.466,0.08,0.913,0.207,1.34,0.38
		l-0.42,1.58c-0.28-0.133-0.604-0.24-0.971-0.32c-0.366-0.08-0.757-0.119-1.17-0.119c-1.04,0-1.837,0.326-2.39,0.979
		c-0.554,0.653-0.83,1.606-0.83,2.86c0,0.56,0.063,1.073,0.19,1.539c0.126,0.467,0.326,0.867,0.6,1.201
		c0.273,0.333,0.623,0.59,1.05,0.77s0.946,0.27,1.561,0.27c0.493,0,0.939-0.047,1.34-0.14c0.399-0.093,0.713-0.192,0.939-0.3
		l0.261,1.561c-0.107,0.066-0.261,0.129-0.46,0.189c-0.2,0.061-0.428,0.113-0.681,0.16s-0.523,0.086-0.81,0.119
		C39.103,274.223,38.826,274.24,38.56,274.24z"/>
	<path fill="#4F4F4F" d="M46.699,263.34c0.747,0,1.377,0.098,1.89,0.29c0.514,0.193,0.927,0.467,1.24,0.82
		c0.313,0.353,0.537,0.773,0.67,1.26c0.134,0.487,0.2,1.023,0.2,1.61v6.5c-0.16,0.026-0.384,0.063-0.67,0.109
		c-0.287,0.047-0.61,0.09-0.97,0.131c-0.36,0.039-0.75,0.076-1.17,0.109s-0.837,0.051-1.25,0.051c-0.587,0-1.127-0.061-1.62-0.181
		c-0.494-0.12-0.92-0.31-1.28-0.569c-0.36-0.261-0.64-0.604-0.84-1.031c-0.2-0.426-0.3-0.939-0.3-1.539
		c0-0.574,0.116-1.066,0.35-1.48c0.233-0.413,0.55-0.746,0.95-1c0.399-0.253,0.866-0.439,1.399-0.561
		c0.533-0.119,1.094-0.18,1.681-0.18c0.187,0,0.38,0.01,0.58,0.03c0.199,0.021,0.39,0.047,0.569,0.08
		c0.181,0.033,0.337,0.063,0.471,0.09c0.133,0.026,0.227,0.047,0.279,0.06v-0.52c0-0.307-0.033-0.609-0.1-0.91
		c-0.067-0.3-0.187-0.566-0.36-0.8c-0.173-0.233-0.41-0.42-0.71-0.56c-0.3-0.141-0.689-0.211-1.17-0.211
		c-0.613,0-1.149,0.044-1.609,0.131c-0.46,0.086-0.804,0.177-1.03,0.27l-0.22-1.54c0.239-0.106,0.64-0.21,1.199-0.31
		C45.439,263.391,46.046,263.34,46.699,263.34z M46.859,272.66c0.439,0,0.83-0.01,1.17-0.03s0.623-0.057,0.85-0.11v-3.1
		c-0.133-0.066-0.35-0.123-0.649-0.17s-0.664-0.07-1.09-0.07c-0.28,0-0.577,0.021-0.891,0.061c-0.313,0.039-0.6,0.123-0.859,0.25
		c-0.261,0.127-0.478,0.3-0.65,0.52c-0.174,0.221-0.26,0.51-0.26,0.87c0,0.667,0.213,1.13,0.64,1.39S46.126,272.66,46.859,272.66z"
		/>
	<path fill="#4F4F4F" d="M53.779,263.9c0.427-0.107,0.99-0.221,1.69-0.34c0.7-0.121,1.51-0.181,2.43-0.181
		c0.667,0,1.227,0.091,1.681,0.271c0.453,0.18,0.833,0.443,1.14,0.789c0.093-0.066,0.24-0.16,0.44-0.279
		c0.199-0.12,0.446-0.236,0.739-0.35s0.62-0.214,0.98-0.301c0.359-0.086,0.746-0.13,1.16-0.13c0.8,0,1.453,0.117,1.96,0.351
		c0.506,0.232,0.902,0.563,1.189,0.99c0.287,0.426,0.48,0.933,0.58,1.52c0.101,0.586,0.15,1.227,0.15,1.92V274h-1.86v-5.439
		c0-0.613-0.03-1.141-0.09-1.58c-0.06-0.44-0.174-0.807-0.34-1.101c-0.167-0.293-0.394-0.51-0.681-0.649
		c-0.286-0.141-0.656-0.211-1.109-0.211c-0.627,0-1.144,0.084-1.55,0.25c-0.407,0.168-0.684,0.317-0.83,0.451
		c0.106,0.346,0.187,0.727,0.239,1.139c0.054,0.414,0.08,0.848,0.08,1.301V274H59.92v-5.439c0-0.613-0.033-1.141-0.101-1.58
		c-0.066-0.44-0.183-0.807-0.35-1.101c-0.167-0.293-0.394-0.51-0.68-0.649c-0.287-0.141-0.65-0.211-1.091-0.211
		c-0.187,0-0.387,0.008-0.6,0.021s-0.417,0.03-0.61,0.05s-0.369,0.043-0.529,0.07s-0.268,0.047-0.32,0.061V274h-1.86V263.9z"/>
	<path fill="#4F4F4F" d="M28.12,298.24c-0.84,0-1.577-0.134-2.21-0.4c-0.634-0.267-1.167-0.64-1.6-1.12
		c-0.434-0.479-0.757-1.05-0.97-1.71s-0.32-1.39-0.32-2.189c0-0.801,0.117-1.533,0.35-2.2c0.233-0.667,0.563-1.243,0.99-1.729
		c0.427-0.487,0.95-0.867,1.57-1.141c0.62-0.273,1.31-0.41,2.07-0.41c0.467,0,0.934,0.04,1.4,0.12c0.466,0.08,0.913,0.207,1.34,0.38
		l-0.42,1.58c-0.28-0.133-0.604-0.24-0.971-0.32c-0.366-0.08-0.757-0.119-1.17-0.119c-1.04,0-1.836,0.326-2.39,0.979
		c-0.554,0.653-0.83,1.606-0.83,2.86c0,0.56,0.063,1.073,0.19,1.539c0.126,0.467,0.327,0.867,0.6,1.2
		c0.273,0.334,0.623,0.591,1.05,0.771s0.946,0.27,1.561,0.27c0.493,0,0.939-0.046,1.34-0.14c0.399-0.093,0.713-0.193,0.939-0.3
		l0.261,1.56c-0.107,0.067-0.261,0.13-0.46,0.19c-0.2,0.06-0.428,0.113-0.681,0.16c-0.253,0.046-0.523,0.086-0.81,0.12
		C28.663,298.223,28.387,298.24,28.12,298.24z"/>
	<path fill="#4F4F4F" d="M36.26,287.34c0.747,0,1.377,0.098,1.89,0.29c0.514,0.193,0.927,0.467,1.24,0.82
		c0.313,0.353,0.537,0.773,0.67,1.26c0.134,0.487,0.2,1.023,0.2,1.61v6.5c-0.16,0.026-0.384,0.063-0.67,0.109
		c-0.287,0.047-0.61,0.09-0.97,0.13c-0.36,0.04-0.75,0.077-1.17,0.11s-0.837,0.05-1.25,0.05c-0.587,0-1.127-0.06-1.62-0.18
		c-0.494-0.12-0.92-0.31-1.28-0.57c-0.36-0.26-0.64-0.603-0.84-1.029s-0.3-0.94-0.3-1.54c0-0.574,0.116-1.066,0.35-1.48
		c0.233-0.413,0.55-0.746,0.95-1c0.399-0.253,0.866-0.439,1.399-0.561c0.533-0.119,1.094-0.18,1.681-0.18
		c0.187,0,0.38,0.01,0.58,0.03c0.199,0.021,0.39,0.047,0.569,0.08c0.181,0.033,0.337,0.063,0.471,0.09
		c0.133,0.026,0.227,0.047,0.279,0.06v-0.52c0-0.307-0.033-0.609-0.1-0.91c-0.067-0.3-0.187-0.566-0.36-0.8
		c-0.173-0.233-0.41-0.42-0.71-0.56c-0.3-0.141-0.689-0.211-1.17-0.211c-0.613,0-1.149,0.044-1.609,0.131
		c-0.46,0.086-0.804,0.177-1.03,0.27l-0.22-1.54c0.239-0.106,0.64-0.21,1.199-0.31C35,287.391,35.606,287.34,36.26,287.34z
		 M36.42,296.66c0.439,0,0.83-0.01,1.17-0.03c0.34-0.02,0.623-0.057,0.85-0.11v-3.1c-0.133-0.066-0.35-0.123-0.649-0.17
		s-0.664-0.07-1.09-0.07c-0.28,0-0.577,0.021-0.891,0.061c-0.313,0.039-0.6,0.123-0.859,0.25c-0.261,0.127-0.478,0.3-0.65,0.52
		c-0.174,0.221-0.26,0.51-0.26,0.87c0,0.667,0.213,1.13,0.64,1.39C35.106,296.53,35.687,296.66,36.42,296.66z"/>
	<path fill="#4F4F4F" d="M43.339,287.9c0.427-0.107,0.99-0.221,1.69-0.34c0.7-0.121,1.51-0.181,2.43-0.181
		c0.667,0,1.227,0.091,1.681,0.271c0.453,0.18,0.833,0.443,1.14,0.789c0.093-0.066,0.24-0.16,0.44-0.279
		c0.199-0.12,0.446-0.236,0.739-0.35s0.62-0.214,0.98-0.301c0.359-0.086,0.746-0.13,1.16-0.13c0.8,0,1.453,0.117,1.96,0.351
		c0.506,0.232,0.902,0.563,1.189,0.99c0.287,0.426,0.48,0.933,0.58,1.52c0.101,0.586,0.15,1.227,0.15,1.92V298h-1.86v-5.439
		c0-0.613-0.03-1.141-0.09-1.58c-0.06-0.44-0.174-0.807-0.34-1.101c-0.167-0.293-0.394-0.51-0.681-0.649
		c-0.286-0.141-0.656-0.211-1.109-0.211c-0.627,0-1.144,0.084-1.55,0.25c-0.407,0.168-0.684,0.317-0.83,0.451
		c0.106,0.346,0.187,0.727,0.239,1.139c0.054,0.414,0.08,0.848,0.08,1.301V298h-1.859v-5.439c0-0.613-0.033-1.141-0.101-1.58
		c-0.066-0.44-0.183-0.807-0.35-1.101c-0.167-0.293-0.394-0.51-0.68-0.649c-0.287-0.141-0.65-0.211-1.091-0.211
		c-0.187,0-0.387,0.008-0.6,0.021s-0.417,0.03-0.61,0.05s-0.369,0.043-0.529,0.07s-0.268,0.047-0.32,0.061V298h-1.86V287.9z"/>
	<path fill="#2F4B9E" d="M26.96,311.34c0.747,0,1.377,0.097,1.89,0.29c0.514,0.193,0.927,0.467,1.24,0.82s0.537,0.773,0.67,1.26
		c0.134,0.487,0.2,1.023,0.2,1.61v6.5c-0.16,0.026-0.384,0.063-0.67,0.109c-0.287,0.047-0.61,0.09-0.97,0.13
		c-0.36,0.04-0.75,0.077-1.17,0.11s-0.837,0.05-1.25,0.05c-0.587,0-1.127-0.06-1.62-0.18s-0.92-0.31-1.28-0.57
		c-0.36-0.26-0.64-0.603-0.84-1.029c-0.2-0.427-0.3-0.94-0.3-1.54c0-0.573,0.117-1.067,0.35-1.48s0.55-0.746,0.95-1
		c0.4-0.253,0.866-0.439,1.4-0.56c0.533-0.12,1.093-0.181,1.68-0.181c0.187,0,0.38,0.011,0.58,0.03
		c0.199,0.021,0.39,0.047,0.569,0.08c0.181,0.033,0.337,0.063,0.471,0.09c0.133,0.027,0.227,0.047,0.279,0.061v-0.521
		c0-0.307-0.033-0.61-0.1-0.91c-0.067-0.3-0.187-0.566-0.36-0.8c-0.173-0.233-0.41-0.42-0.71-0.56c-0.3-0.141-0.69-0.21-1.17-0.21
		c-0.613,0-1.15,0.043-1.61,0.13s-0.803,0.177-1.03,0.27l-0.22-1.54c0.24-0.106,0.64-0.21,1.2-0.31
		C25.7,311.39,26.307,311.34,26.96,311.34z M27.12,320.66c0.44,0,0.83-0.01,1.17-0.03c0.34-0.02,0.623-0.057,0.85-0.11v-3.1
		c-0.133-0.066-0.35-0.123-0.649-0.17s-0.664-0.07-1.09-0.07c-0.28,0-0.577,0.021-0.89,0.061c-0.313,0.04-0.6,0.123-0.86,0.25
		c-0.26,0.127-0.477,0.3-0.65,0.52c-0.173,0.221-0.26,0.51-0.26,0.87c0,0.667,0.213,1.13,0.64,1.39
		C25.807,320.53,26.387,320.66,27.12,320.66z"/>
	<path fill="#2F4B9E" d="M34.039,311.9c0.427-0.107,0.99-0.221,1.69-0.341c0.7-0.119,1.51-0.18,2.43-0.18
		c0.667,0,1.227,0.09,1.681,0.271c0.453,0.18,0.833,0.443,1.14,0.79c0.093-0.067,0.24-0.16,0.44-0.28
		c0.199-0.12,0.446-0.236,0.739-0.351c0.293-0.112,0.62-0.213,0.98-0.3c0.359-0.086,0.746-0.13,1.16-0.13
		c0.8,0,1.453,0.117,1.96,0.351c0.506,0.233,0.902,0.563,1.189,0.989s0.48,0.934,0.58,1.521c0.101,0.587,0.15,1.227,0.15,1.92V322
		h-1.86v-5.44c0-0.612-0.03-1.14-0.09-1.579c-0.06-0.44-0.174-0.807-0.34-1.101c-0.167-0.293-0.394-0.51-0.681-0.649
		c-0.286-0.141-0.656-0.211-1.109-0.211c-0.627,0-1.144,0.084-1.55,0.25c-0.407,0.167-0.684,0.317-0.83,0.45
		c0.106,0.347,0.187,0.728,0.239,1.141c0.054,0.413,0.08,0.847,0.08,1.3V322H40.18v-5.44c0-0.612-0.033-1.14-0.101-1.579
		c-0.066-0.44-0.183-0.807-0.35-1.101c-0.167-0.293-0.394-0.51-0.68-0.649c-0.287-0.141-0.65-0.211-1.091-0.211
		c-0.187,0-0.387,0.008-0.6,0.021c-0.213,0.014-0.417,0.03-0.61,0.05c-0.193,0.021-0.369,0.044-0.529,0.07s-0.268,0.047-0.32,0.06
		V322h-1.86V311.9z"/>
	<path fill="#2F4B9E" d="M23.6,335.9c0.426-0.107,0.99-0.221,1.69-0.341c0.7-0.119,1.51-0.18,2.43-0.18
		c0.667,0,1.227,0.09,1.681,0.271c0.453,0.18,0.833,0.443,1.14,0.79c0.093-0.067,0.24-0.16,0.44-0.28
		c0.199-0.12,0.446-0.236,0.739-0.351c0.293-0.112,0.62-0.213,0.98-0.3c0.359-0.086,0.746-0.13,1.16-0.13
		c0.8,0,1.453,0.117,1.96,0.351c0.506,0.233,0.902,0.563,1.189,0.989s0.48,0.934,0.58,1.521c0.101,0.587,0.15,1.227,0.15,1.92V346
		h-1.86v-5.44c0-0.612-0.03-1.14-0.09-1.579c-0.06-0.44-0.174-0.807-0.34-1.101c-0.167-0.293-0.394-0.51-0.681-0.649
		c-0.286-0.141-0.656-0.211-1.109-0.211c-0.627,0-1.144,0.084-1.55,0.25c-0.407,0.167-0.684,0.317-0.83,0.45
		c0.106,0.347,0.187,0.728,0.239,1.141c0.054,0.413,0.08,0.847,0.08,1.3V346H29.74v-5.44c0-0.612-0.033-1.14-0.101-1.579
		c-0.066-0.44-0.183-0.807-0.35-1.101c-0.167-0.293-0.394-0.51-0.68-0.649c-0.287-0.141-0.65-0.211-1.09-0.211
		c-0.187,0-0.387,0.008-0.6,0.021c-0.213,0.014-0.417,0.03-0.61,0.05c-0.193,0.021-0.37,0.044-0.53,0.07
		c-0.16,0.026-0.267,0.047-0.32,0.06V346H23.6V335.9z"/>
</g>
</svg>
