<?xml version="1.0" encoding="utf-8"?>
<!-- Generator: Adobe Illustrator 16.0.0, SVG Export Plug-In . SVG Version: 6.00 Build 0)  -->
<!DOCTYPE svg PUBLIC "-//W3C//DTD SVG 1.1//EN" "http://www.w3.org/Graphics/SVG/1.1/DTD/svg11.dtd">
<svg version="1.1" id="图层_1" xmlns="http://www.w3.org/2000/svg" xmlns:xlink="http://www.w3.org/1999/xlink" x="0px" y="0px"
	 width="358px" height="502.166px" viewBox="-0.5 -0.5 358 502.166" enable-background="new -0.5 -0.5 358 502.166"
	 xml:space="preserve">
<g id="graph1" transform="scale(1 1) rotate(0) translate(4 418)">
	<title>G</title>
	<polygon fill="#FFFFFF" stroke="#FFFFFF" points="-4,83.166 -4,-418 353,-418 353,83.166 	"/>
	<g id="node1">
		<title>0</title>
		<ellipse fill="none" stroke="#000000" stroke-width="2" cx="18" cy="-180" rx="18" ry="18"/>
		<g enable-background="new    ">
			<path d="M22.639-181.377c0,0.977-0.098,1.867-0.293,2.671s-0.492,1.494-0.889,2.07s-0.89,1.022-1.479,1.338
				s-1.281,0.474-2.075,0.474c-0.684,0-1.305-0.129-1.865-0.386s-1.039-0.652-1.436-1.187s-0.703-1.214-0.918-2.041
				s-0.322-1.807-0.322-2.939c0-0.977,0.099-1.868,0.298-2.676s0.495-1.499,0.889-2.075s0.887-1.022,1.479-1.338
				s1.283-0.474,2.07-0.474c0.684,0,1.305,0.129,1.865,0.386s1.039,0.654,1.436,1.191s0.703,1.219,0.918,2.046
				S22.639-182.51,22.639-181.377z M15.08-181.436c0,0.202,0.001,0.403,0.005,0.605s0.015,0.397,0.034,0.586l5.4-3.994
				c-0.098-0.332-0.221-0.635-0.371-0.908s-0.329-0.51-0.537-0.708s-0.446-0.354-0.713-0.464s-0.566-0.166-0.898-0.166
				c-0.443,0-0.845,0.107-1.206,0.322s-0.669,0.535-0.923,0.962s-0.449,0.954-0.586,1.582S15.08-182.263,15.08-181.436z
				 M20.92-181.318c0-0.222-0.008-0.441-0.024-0.659s-0.034-0.432-0.054-0.64l-5.4,4.014c0.098,0.339,0.221,0.651,0.371,0.938
				s0.331,0.532,0.542,0.737s0.453,0.364,0.723,0.479s0.578,0.171,0.923,0.171c0.443,0,0.845-0.107,1.206-0.322
				s0.669-0.534,0.923-0.957s0.449-0.949,0.586-1.577S20.92-180.491,20.92-181.318z"/>
		</g>
	</g>
	<g id="node3">
		<title>3</title>
		<ellipse fill="none" stroke="#000000" stroke-width="2" cx="174" cy="-342" rx="18" ry="18"/>
		<g enable-background="new    ">
			<path d="M178.102-340.877c0,0.56-0.113,1.086-0.342,1.577s-0.57,0.921-1.025,1.289s-1.029,0.657-1.719,0.869
				c-0.69,0.212-1.494,0.317-2.412,0.317c-0.508,0-0.963-0.017-1.367-0.049s-0.781-0.075-1.133-0.127v-1.523
				c0.404,0.071,0.83,0.127,1.279,0.166s0.908,0.059,1.377,0.059c0.638,0,1.183-0.057,1.636-0.171
				c0.452-0.114,0.821-0.278,1.108-0.493s0.494-0.476,0.625-0.781s0.195-0.651,0.195-1.035c0-0.352-0.078-0.657-0.234-0.918
				s-0.376-0.479-0.659-0.654s-0.622-0.308-1.016-0.396c-0.394-0.088-0.825-0.132-1.294-0.132h-1.455v-1.396h1.475
				c0.384,0,0.734-0.051,1.05-0.151c0.315-0.101,0.586-0.246,0.811-0.435s0.397-0.422,0.518-0.698s0.181-0.591,0.181-0.942
				c0-0.684-0.209-1.182-0.625-1.494s-1.029-0.469-1.836-0.469c-0.43,0-0.873,0.042-1.328,0.127s-0.944,0.212-1.465,0.381v-1.484
				c0.221-0.078,0.458-0.148,0.708-0.21s0.501-0.114,0.752-0.156s0.5-0.075,0.747-0.098s0.485-0.034,0.713-0.034
				c0.677,0,1.273,0.073,1.787,0.22s0.943,0.356,1.289,0.63s0.605,0.605,0.781,0.996s0.264,0.83,0.264,1.318
				c0,0.729-0.188,1.341-0.562,1.836s-0.888,0.889-1.538,1.182c0.332,0.052,0.659,0.156,0.981,0.313s0.612,0.356,0.869,0.601
				s0.466,0.532,0.625,0.864S178.102-341.28,178.102-340.877z"/>
		</g>
	</g>
	<g id="edge2">
		<title>0-&gt;3</title>
		<path fill="none" stroke="#000000" stroke-width="2" d="M28.165-195.177C38.021-210.926,54.632-235.882,72-255
			c24.619-27.1,57.382-53.931,78.821-70.476"/>
		<polygon stroke="#000000" points="158.987,-331.702 148.306,-329.217 154.708,-329.068 150.732,-326.036 151.035,-325.639 
			151.338,-325.241 155.314,-328.273 153.763,-322.06 158.987,-331.702 		"/>
		<g enable-background="new    ">
			<path fill="#0000FF" d="M95.74-316.66c0.747,0,1.376,0.097,1.89,0.29c0.513,0.193,0.926,0.467,1.24,0.82s0.537,0.773,0.67,1.26
				c0.133,0.487,0.2,1.023,0.2,1.61v6.5c-0.16,0.026-0.383,0.063-0.67,0.109c-0.287,0.047-0.61,0.09-0.97,0.13
				c-0.36,0.04-0.75,0.077-1.17,0.11s-0.837,0.05-1.25,0.05c-0.587,0-1.127-0.06-1.62-0.18s-0.92-0.31-1.28-0.57
				c-0.36-0.26-0.64-0.603-0.84-1.029c-0.2-0.427-0.3-0.94-0.3-1.54c0-0.573,0.117-1.067,0.35-1.48s0.55-0.746,0.95-1
				c0.4-0.253,0.866-0.439,1.4-0.56c0.533-0.12,1.093-0.181,1.68-0.181c0.187,0,0.38,0.011,0.58,0.03
				c0.2,0.021,0.39,0.047,0.57,0.08c0.18,0.033,0.336,0.063,0.47,0.09c0.133,0.027,0.227,0.047,0.28,0.061v-0.521
				c0-0.307-0.034-0.61-0.1-0.91c-0.067-0.3-0.187-0.566-0.36-0.8c-0.174-0.233-0.41-0.42-0.71-0.56c-0.3-0.141-0.69-0.21-1.17-0.21
				c-0.613,0-1.15,0.043-1.61,0.13s-0.803,0.177-1.03,0.27l-0.22-1.54c0.24-0.106,0.64-0.21,1.2-0.31
				C94.48-316.61,95.087-316.66,95.74-316.66z M95.9-307.34c0.44,0,0.83-0.01,1.17-0.03c0.34-0.02,0.623-0.057,0.85-0.11v-3.1
				c-0.134-0.066-0.35-0.123-0.65-0.17c-0.3-0.047-0.664-0.07-1.09-0.07c-0.28,0-0.577,0.021-0.89,0.061
				c-0.313,0.04-0.6,0.123-0.86,0.25c-0.26,0.127-0.477,0.3-0.65,0.52c-0.173,0.221-0.26,0.51-0.26,0.87
				c0,0.667,0.213,1.13,0.64,1.39C94.587-307.47,95.167-307.34,95.9-307.34z"/>
		</g>
	</g>
	<g id="node9">
		<title>2</title>
		<ellipse fill="none" stroke="#000000" stroke-width="2" cx="174" cy="-234" rx="18" ry="18"/>
		<g enable-background="new    ">
			<path d="M178.346-229h-8.408v-1.523l3.301-3.281c0.541-0.534,0.98-0.996,1.318-1.387c0.338-0.391,0.602-0.747,0.791-1.069
				s0.316-0.627,0.381-0.913s0.098-0.596,0.098-0.928c0-0.313-0.043-0.61-0.127-0.894s-0.215-0.532-0.391-0.747
				s-0.404-0.384-0.684-0.508c-0.28-0.124-0.615-0.186-1.006-0.186c-0.541,0-1.032,0.12-1.475,0.361s-0.85,0.554-1.221,0.938
				l-0.938-1.123c0.482-0.508,1.037-0.915,1.665-1.221s1.359-0.459,2.192-0.459c0.566,0,1.082,0.085,1.548,0.254
				s0.868,0.413,1.206,0.732s0.601,0.71,0.786,1.172s0.278,0.983,0.278,1.563c0,0.488-0.064,0.94-0.195,1.357
				s-0.327,0.832-0.591,1.245s-0.596,0.842-0.996,1.284s-0.874,0.928-1.421,1.455l-2.314,2.256h6.201V-229z"/>
		</g>
	</g>
	<g id="edge8">
		<title>0-&gt;2</title>
		<path fill="none" stroke="#000000" stroke-width="2" d="M35.189-185.677c26.619-9.334,79.858-28.002,111.81-39.206"/>
		<polygon stroke="#000000" points="156.564,-228.237 145.638,-229.174 151.68,-227.054 146.962,-225.399 147.127,-224.928 
			147.293,-224.456 152.011,-226.11 148.616,-220.681 156.564,-228.237 		"/>
		<g enable-background="new    ">
			<path fill="#0000FF" d="M79.18-220.76c-0.84,0-1.577-0.134-2.21-0.4c-0.634-0.267-1.167-0.64-1.6-1.12
				c-0.434-0.479-0.757-1.05-0.97-1.71s-0.32-1.39-0.32-2.189c0-0.801,0.117-1.533,0.35-2.2c0.233-0.667,0.563-1.243,0.99-1.73
				c0.427-0.486,0.95-0.866,1.57-1.14c0.62-0.273,1.31-0.41,2.07-0.41c0.467,0,0.933,0.04,1.4,0.12s0.913,0.207,1.34,0.38
				l-0.42,1.58c-0.28-0.133-0.603-0.24-0.97-0.32c-0.367-0.08-0.757-0.119-1.17-0.119c-1.04,0-1.837,0.326-2.39,0.979
				c-0.554,0.653-0.83,1.606-0.83,2.86c0,0.56,0.063,1.073,0.19,1.54c0.126,0.467,0.327,0.866,0.6,1.199
				c0.273,0.334,0.623,0.591,1.05,0.771s0.947,0.27,1.56,0.27c0.493,0,0.94-0.046,1.34-0.14c0.4-0.093,0.713-0.193,0.94-0.3
				l0.26,1.56c-0.107,0.067-0.26,0.13-0.46,0.19c-0.2,0.06-0.427,0.113-0.68,0.16c-0.253,0.046-0.523,0.086-0.81,0.12
				C79.723-220.777,79.447-220.76,79.18-220.76z"/>
			<path fill="#0000FF" d="M87.32-231.66c0.747,0,1.376,0.097,1.89,0.29c0.513,0.193,0.926,0.467,1.24,0.82s0.537,0.773,0.67,1.26
				c0.133,0.487,0.2,1.023,0.2,1.61v6.5c-0.16,0.026-0.383,0.063-0.67,0.109c-0.287,0.047-0.61,0.09-0.97,0.13
				c-0.36,0.04-0.75,0.077-1.17,0.11s-0.837,0.05-1.25,0.05c-0.587,0-1.127-0.06-1.62-0.18s-0.92-0.31-1.28-0.57
				c-0.36-0.26-0.64-0.603-0.84-1.029c-0.2-0.427-0.3-0.94-0.3-1.54c0-0.573,0.117-1.067,0.35-1.48s0.55-0.746,0.95-1
				c0.4-0.253,0.866-0.439,1.4-0.56c0.533-0.12,1.093-0.181,1.68-0.181c0.187,0,0.38,0.011,0.58,0.03
				c0.2,0.021,0.39,0.047,0.57,0.08c0.18,0.033,0.336,0.063,0.47,0.09c0.133,0.027,0.227,0.047,0.28,0.061v-0.521
				c0-0.307-0.034-0.61-0.1-0.91c-0.067-0.3-0.187-0.566-0.36-0.8c-0.174-0.233-0.41-0.42-0.71-0.56c-0.3-0.141-0.69-0.21-1.17-0.21
				c-0.613,0-1.15,0.043-1.61,0.13s-0.803,0.177-1.03,0.27l-0.22-1.54c0.24-0.106,0.64-0.21,1.2-0.31
				C86.06-231.61,86.667-231.66,87.32-231.66z M87.48-222.34c0.44,0,0.83-0.01,1.17-0.03c0.34-0.02,0.623-0.057,0.85-0.11v-3.1
				c-0.134-0.066-0.35-0.123-0.65-0.17c-0.3-0.047-0.664-0.07-1.09-0.07c-0.28,0-0.577,0.021-0.89,0.061
				c-0.313,0.04-0.6,0.123-0.86,0.25c-0.26,0.127-0.477,0.3-0.65,0.52c-0.173,0.221-0.26,0.51-0.26,0.87
				c0,0.667,0.213,1.13,0.64,1.39C86.167-222.47,86.747-222.34,87.48-222.34z"/>
			<path fill="#0000FF" d="M94.4-231.1c0.426-0.107,0.99-0.221,1.69-0.341c0.7-0.119,1.51-0.18,2.43-0.18
				c0.667,0,1.227,0.09,1.68,0.271c0.453,0.18,0.833,0.443,1.14,0.79c0.093-0.067,0.24-0.16,0.44-0.28s0.447-0.236,0.74-0.351
				c0.293-0.112,0.62-0.213,0.98-0.3c0.36-0.086,0.747-0.13,1.16-0.13c0.8,0,1.453,0.117,1.96,0.351s0.903,0.563,1.19,0.989
				s0.48,0.934,0.58,1.521c0.1,0.587,0.15,1.227,0.15,1.92v5.84h-1.86v-5.44c0-0.612-0.03-1.14-0.09-1.579
				c-0.06-0.44-0.173-0.807-0.34-1.101c-0.167-0.293-0.394-0.51-0.68-0.649c-0.287-0.141-0.657-0.211-1.11-0.211
				c-0.627,0-1.144,0.084-1.55,0.25c-0.407,0.167-0.683,0.317-0.83,0.45c0.107,0.347,0.187,0.728,0.24,1.141s0.08,0.847,0.08,1.3
				v5.84h-1.86v-5.44c0-0.612-0.034-1.14-0.1-1.579c-0.067-0.44-0.184-0.807-0.35-1.101c-0.167-0.293-0.394-0.51-0.68-0.649
				c-0.287-0.141-0.65-0.211-1.09-0.211c-0.187,0-0.387,0.008-0.6,0.021c-0.213,0.014-0.417,0.03-0.61,0.05
				c-0.193,0.021-0.37,0.044-0.53,0.07c-0.16,0.026-0.267,0.047-0.32,0.06v8.78H94.4V-231.1z"/>
			<path fill="#0000FF" d="M114.04-222.34c0.76,0,1.323-0.101,1.69-0.3c0.367-0.2,0.55-0.521,0.55-0.96
				c0-0.453-0.18-0.813-0.54-1.08c-0.36-0.267-0.954-0.566-1.78-0.9c-0.4-0.16-0.783-0.323-1.15-0.49
				c-0.367-0.166-0.684-0.363-0.95-0.59s-0.48-0.5-0.64-0.82c-0.16-0.319-0.24-0.713-0.24-1.18c0-0.92,0.34-1.649,1.02-2.189
				s1.606-0.811,2.78-0.811c0.293,0,0.587,0.017,0.88,0.05c0.293,0.034,0.566,0.074,0.82,0.12c0.253,0.047,0.477,0.097,0.67,0.15
				s0.343,0.1,0.45,0.14l-0.34,1.601c-0.2-0.107-0.514-0.217-0.94-0.33s-0.94-0.17-1.54-0.17c-0.52,0-0.973,0.104-1.36,0.31
				c-0.387,0.207-0.58,0.53-0.58,0.97c0,0.228,0.043,0.427,0.13,0.601c0.086,0.173,0.22,0.33,0.4,0.47
				c0.18,0.14,0.403,0.27,0.67,0.39c0.267,0.12,0.586,0.247,0.96,0.38c0.493,0.188,0.933,0.37,1.32,0.551
				c0.387,0.18,0.717,0.39,0.99,0.63c0.273,0.24,0.483,0.53,0.63,0.87c0.146,0.34,0.22,0.757,0.22,1.25
				c0,0.96-0.357,1.687-1.07,2.18s-1.73,0.74-3.05,0.74c-0.92,0-1.64-0.077-2.16-0.23s-0.874-0.27-1.06-0.35l0.34-1.601
				c0.213,0.08,0.553,0.2,1.02,0.36C112.646-222.42,113.266-222.34,114.04-222.34z"/>
		</g>
	</g>
	<g id="node11">
		<title>5</title>
		<ellipse fill="none" stroke="#000000" stroke-width="2" cx="174" cy="-126" rx="18" ry="18"/>
		<g enable-background="new    ">
			<path d="M178.023-125.082c0,0.632-0.137,1.208-0.41,1.729s-0.649,0.969-1.128,1.343s-1.044,0.666-1.694,0.874
				c-0.651,0.208-1.354,0.313-2.109,0.313c-0.189,0-0.392-0.005-0.61-0.015s-0.435-0.022-0.649-0.039s-0.425-0.034-0.63-0.054
				s-0.389-0.042-0.552-0.068v-1.543c0.352,0.085,0.753,0.146,1.206,0.186s0.91,0.059,1.372,0.059c0.521,0,0.99-0.062,1.406-0.186
				c0.416-0.124,0.771-0.301,1.064-0.532s0.518-0.511,0.674-0.84s0.234-0.698,0.234-1.108c0-0.794-0.285-1.372-0.854-1.733
				s-1.388-0.542-2.456-0.542h-2.422v-6.523h6.875v1.484h-5.273v3.584h1.113c0.612,0,1.208,0.056,1.787,0.166
				c0.58,0.11,1.096,0.305,1.548,0.581s0.817,0.647,1.094,1.113S178.023-125.785,178.023-125.082z"/>
		</g>
	</g>
	<g id="edge10">
		<title>0-&gt;5</title>
		<path fill="none" stroke="#000000" stroke-width="2" d="M35.182-173.72C45.648-169.701,59.588-164.43,72-160
			c25.341,9.043,54.486,18.785,74.934,25.512"/>
		<polygon stroke="#000000" points="156.493,-131.354 148.392,-138.745 151.897,-133.387 147.146,-134.945 146.99,-134.469 
			146.835,-133.994 151.586,-132.438 145.588,-130.193 156.493,-131.354 		"/>
		<g enable-background="new    ">
			<path fill="#0000FF" d="M84.53-176.1c0.426-0.107,0.99-0.221,1.69-0.341c0.7-0.119,1.51-0.18,2.43-0.18
				c0.667,0,1.227,0.09,1.68,0.271c0.453,0.18,0.833,0.443,1.14,0.79c0.093-0.067,0.24-0.16,0.44-0.28s0.447-0.236,0.74-0.351
				c0.293-0.112,0.62-0.213,0.98-0.3c0.36-0.086,0.747-0.13,1.16-0.13c0.8,0,1.453,0.117,1.96,0.351s0.903,0.563,1.19,0.989
				s0.48,0.934,0.58,1.521c0.1,0.587,0.15,1.227,0.15,1.92v5.84h-1.86v-5.44c0-0.612-0.03-1.14-0.09-1.579
				c-0.06-0.44-0.173-0.807-0.34-1.101c-0.167-0.293-0.394-0.51-0.68-0.649c-0.287-0.141-0.657-0.211-1.11-0.211
				c-0.627,0-1.144,0.084-1.55,0.25c-0.407,0.167-0.683,0.317-0.83,0.45c0.107,0.347,0.187,0.728,0.24,1.141s0.08,0.847,0.08,1.3
				v5.84h-1.86v-5.44c0-0.612-0.034-1.14-0.1-1.579c-0.067-0.44-0.184-0.807-0.35-1.101c-0.167-0.293-0.394-0.51-0.68-0.649
				c-0.287-0.141-0.65-0.211-1.09-0.211c-0.187,0-0.387,0.008-0.6,0.021c-0.213,0.014-0.417,0.03-0.61,0.05
				c-0.193,0.021-0.37,0.044-0.53,0.07c-0.16,0.026-0.267,0.047-0.32,0.06v8.78h-1.86V-176.1z"/>
			<path fill="#0000FF" d="M104.17-167.34c0.76,0,1.323-0.101,1.69-0.3c0.367-0.2,0.55-0.521,0.55-0.96
				c0-0.453-0.18-0.813-0.54-1.08c-0.36-0.267-0.954-0.566-1.78-0.9c-0.4-0.16-0.783-0.323-1.15-0.49
				c-0.367-0.166-0.684-0.363-0.95-0.59s-0.48-0.5-0.64-0.82c-0.16-0.319-0.24-0.713-0.24-1.18c0-0.92,0.34-1.649,1.02-2.189
				s1.606-0.811,2.78-0.811c0.293,0,0.587,0.017,0.88,0.05c0.293,0.034,0.566,0.074,0.82,0.12c0.253,0.047,0.477,0.097,0.67,0.15
				s0.343,0.1,0.45,0.14l-0.34,1.601c-0.2-0.107-0.514-0.217-0.94-0.33s-0.94-0.17-1.54-0.17c-0.52,0-0.973,0.104-1.36,0.31
				c-0.387,0.207-0.58,0.53-0.58,0.97c0,0.228,0.043,0.427,0.13,0.601c0.086,0.173,0.22,0.33,0.4,0.47
				c0.18,0.14,0.403,0.27,0.67,0.39c0.267,0.12,0.586,0.247,0.96,0.38c0.493,0.188,0.933,0.37,1.32,0.551
				c0.387,0.18,0.717,0.39,0.99,0.63c0.273,0.24,0.483,0.53,0.63,0.87c0.146,0.34,0.22,0.757,0.22,1.25
				c0,0.96-0.357,1.687-1.07,2.18s-1.73,0.74-3.05,0.74c-0.92,0-1.64-0.077-2.16-0.23s-0.874-0.27-1.06-0.35l0.34-1.601
				c0.213,0.08,0.553,0.2,1.02,0.36C102.776-167.42,103.396-167.34,104.17-167.34z"/>
		</g>
	</g>
	<g id="node13">
		<title>6</title>
		<ellipse fill="none" stroke="#000000" stroke-width="2" cx="174" cy="-18" rx="18" ry="18"/>
		<g enable-background="new    ">
			<path d="M178.502-17.043c0,0.586-0.105,1.136-0.317,1.65s-0.513,0.962-0.903,1.343s-0.861,0.681-1.411,0.898
				s-1.161,0.327-1.831,0.327c-0.703,0-1.325-0.112-1.865-0.337s-0.993-0.569-1.357-1.035s-0.641-1.053-0.83-1.763
				s-0.283-1.55-0.283-2.52c0-0.651,0.042-1.282,0.127-1.895s0.225-1.188,0.42-1.729s0.456-1.035,0.781-1.484
				s0.731-0.835,1.216-1.157s1.056-0.573,1.714-0.752c0.658-0.179,1.42-0.269,2.285-0.269h1.26v1.484h-1.367
				c-0.762,0-1.422,0.091-1.982,0.273c-0.56,0.183-1.029,0.439-1.406,0.771s-0.667,0.732-0.869,1.201s-0.329,0.993-0.381,1.572
				l-0.039,0.4c0.41-0.241,0.884-0.435,1.421-0.581s1.118-0.22,1.743-0.22c0.645,0,1.209,0.095,1.694,0.283s0.889,0.451,1.211,0.786
				s0.565,0.737,0.728,1.206S178.502-17.603,178.502-17.043z M176.725-16.936c0-0.391-0.047-0.744-0.142-1.06
				s-0.243-0.583-0.444-0.801s-0.457-0.388-0.767-0.508s-0.679-0.181-1.108-0.181c-0.248,0-0.498,0.022-0.752,0.068
				s-0.503,0.109-0.747,0.19s-0.477,0.174-0.698,0.278s-0.423,0.215-0.605,0.332c0,0.84,0.059,1.541,0.176,2.104
				s0.292,1.014,0.522,1.353s0.516,0.579,0.854,0.723s0.729,0.215,1.172,0.215c0.371,0,0.711-0.061,1.021-0.181
				s0.576-0.298,0.801-0.532s0.4-0.52,0.527-0.854S176.725-16.506,176.725-16.936z"/>
		</g>
	</g>
	<g id="edge12">
		<title>0-&gt;6</title>
		<path fill="none" stroke="#FF0000" stroke-width="2" d="M27.923-164.883C37.707-148.915,54.375-123.412,72-104
			c24.492,26.975,57.285,53.453,78.765,69.747"/>
		<polygon fill="#FF0000" stroke="#FF0000" points="158.948,-28.123 153.643,-37.721 155.246,-31.521 151.245,-34.52 
			150.945,-34.119 150.645,-33.719 154.647,-30.721 148.247,-30.518 158.948,-28.123 		"/>
		<g enable-background="new    ">
			<path fill="#0000FF" d="M95.56-111.34c0.76,0,1.323-0.101,1.69-0.3c0.367-0.2,0.55-0.521,0.55-0.96c0-0.453-0.18-0.813-0.54-1.08
				c-0.36-0.267-0.954-0.566-1.78-0.9c-0.4-0.16-0.783-0.323-1.15-0.49c-0.367-0.166-0.684-0.363-0.95-0.59s-0.48-0.5-0.64-0.82
				c-0.16-0.319-0.24-0.713-0.24-1.18c0-0.92,0.34-1.649,1.02-2.189s1.606-0.811,2.78-0.811c0.293,0,0.587,0.017,0.88,0.05
				c0.293,0.034,0.566,0.074,0.82,0.12c0.253,0.047,0.477,0.097,0.67,0.15s0.343,0.1,0.45,0.14l-0.34,1.601
				c-0.2-0.107-0.514-0.217-0.94-0.33s-0.94-0.17-1.54-0.17c-0.52,0-0.973,0.104-1.36,0.31c-0.387,0.207-0.58,0.53-0.58,0.97
				c0,0.228,0.043,0.427,0.13,0.601c0.086,0.173,0.22,0.33,0.4,0.47c0.18,0.14,0.403,0.27,0.67,0.39
				c0.267,0.12,0.586,0.247,0.96,0.38c0.493,0.188,0.933,0.37,1.32,0.551c0.387,0.18,0.717,0.39,0.99,0.63
				c0.273,0.24,0.483,0.53,0.63,0.87c0.146,0.34,0.22,0.757,0.22,1.25c0,0.96-0.357,1.687-1.07,2.18s-1.73,0.74-3.05,0.74
				c-0.92,0-1.64-0.077-2.16-0.23s-0.874-0.27-1.06-0.35l0.34-1.601c0.213,0.08,0.553,0.2,1.02,0.36
				C94.167-111.42,94.787-111.34,95.56-111.34z"/>
		</g>
	</g>
	<g id="node5">
		<title>1</title>
		<ellipse fill="none" stroke="#000000" stroke-width="2" cx="330" cy="-396" rx="18" ry="18"/>
		<g enable-background="new    ">
			<path d="M334.238-391h-8.018v-1.582h3.281v-9.316l-3.057,1.66l-0.625-1.445l4.063-2.139h1.504v11.24h2.852V-391z"/>
		</g>
	</g>
	<g id="edge4">
		<title>3-&gt;1</title>
		<path fill="none" stroke="#000000" stroke-width="2" d="M191.189-347.677c26.619-9.334,79.858-28.002,111.81-39.206"/>
		<polygon stroke="#000000" points="312.564,-390.237 301.638,-391.174 307.68,-389.054 302.962,-387.399 303.127,-386.928 
			303.293,-386.456 308.011,-388.11 304.616,-382.681 312.564,-390.237 		"/>
		<g enable-background="new    ">
			<path fill="#0000FF" d="M235.18-381.76c-0.84,0-1.576-0.134-2.209-0.4c-0.635-0.267-1.168-0.64-1.601-1.12
				c-0.434-0.479-0.757-1.05-0.97-1.71c-0.214-0.66-0.32-1.39-0.32-2.189c0-0.801,0.117-1.533,0.35-2.2
				c0.233-0.667,0.563-1.243,0.99-1.73c0.427-0.486,0.95-0.866,1.57-1.14c0.619-0.273,1.311-0.41,2.07-0.41
				c0.467,0,0.933,0.04,1.399,0.12s0.913,0.207,1.341,0.38l-0.421,1.58c-0.28-0.133-0.603-0.24-0.97-0.32s-0.757-0.119-1.17-0.119
				c-1.04,0-1.837,0.326-2.391,0.979c-0.553,0.653-0.83,1.606-0.83,2.86c0,0.56,0.063,1.073,0.19,1.54
				c0.126,0.467,0.327,0.866,0.601,1.199c0.272,0.334,0.623,0.591,1.049,0.771c0.428,0.18,0.947,0.27,1.561,0.27
				c0.493,0,0.939-0.046,1.34-0.14c0.4-0.093,0.713-0.193,0.94-0.3l0.26,1.56c-0.106,0.067-0.26,0.13-0.46,0.19
				c-0.199,0.06-0.427,0.113-0.68,0.16c-0.254,0.046-0.523,0.086-0.811,0.12C235.723-381.777,235.447-381.76,235.18-381.76z"/>
			<path fill="#0000FF" d="M243.32-392.66c0.746,0,1.376,0.097,1.89,0.29c0.513,0.193,0.927,0.467,1.239,0.82
				c0.314,0.354,0.537,0.773,0.67,1.26c0.134,0.487,0.201,1.023,0.201,1.61v6.5c-0.16,0.026-0.384,0.063-0.67,0.109
				c-0.287,0.047-0.61,0.09-0.971,0.13c-0.359,0.04-0.75,0.077-1.17,0.11s-0.837,0.05-1.25,0.05c-0.587,0-1.127-0.06-1.62-0.18
				s-0.92-0.31-1.28-0.57c-0.359-0.26-0.64-0.603-0.84-1.029c-0.199-0.427-0.3-0.94-0.3-1.54c0-0.573,0.116-1.067,0.351-1.48
				c0.232-0.413,0.549-0.746,0.949-1c0.4-0.253,0.867-0.439,1.4-0.56s1.094-0.181,1.68-0.181c0.188,0,0.381,0.011,0.58,0.03
				c0.2,0.021,0.391,0.047,0.57,0.08s0.336,0.063,0.47,0.09c0.134,0.027,0.227,0.047,0.28,0.061v-0.521c0-0.307-0.033-0.61-0.1-0.91
				c-0.067-0.3-0.188-0.566-0.36-0.8c-0.174-0.233-0.41-0.42-0.71-0.56c-0.301-0.141-0.69-0.21-1.17-0.21
				c-0.613,0-1.15,0.043-1.61,0.13s-0.804,0.177-1.03,0.27l-0.22-1.54c0.24-0.106,0.64-0.21,1.2-0.31
				C242.061-392.61,242.666-392.66,243.32-392.66z M243.48-383.34c0.439,0,0.83-0.01,1.17-0.03c0.34-0.02,0.623-0.057,0.85-0.11
				v-3.1c-0.134-0.066-0.35-0.123-0.65-0.17c-0.3-0.047-0.663-0.07-1.09-0.07c-0.279,0-0.576,0.021-0.891,0.061
				c-0.313,0.04-0.6,0.123-0.859,0.25s-0.477,0.3-0.65,0.52c-0.173,0.221-0.26,0.51-0.26,0.87c0,0.667,0.213,1.13,0.641,1.39
				C242.166-383.47,242.746-383.34,243.48-383.34z"/>
			<path fill="#0000FF" d="M250.4-392.1c0.426-0.107,0.989-0.221,1.689-0.341c0.7-0.119,1.51-0.18,2.43-0.18
				c0.667,0,1.227,0.09,1.68,0.271c0.453,0.18,0.834,0.443,1.141,0.79c0.094-0.067,0.24-0.16,0.439-0.28
				c0.201-0.12,0.447-0.236,0.74-0.351c0.293-0.112,0.62-0.213,0.98-0.3c0.359-0.086,0.746-0.13,1.16-0.13
				c0.8,0,1.453,0.117,1.959,0.351c0.508,0.233,0.904,0.563,1.19,0.989s0.48,0.934,0.58,1.521c0.101,0.587,0.15,1.227,0.15,1.92
				v5.84h-1.86v-5.44c0-0.612-0.029-1.14-0.09-1.579c-0.061-0.44-0.174-0.807-0.34-1.101c-0.167-0.293-0.394-0.51-0.68-0.649
				c-0.287-0.141-0.657-0.211-1.11-0.211c-0.627,0-1.144,0.084-1.55,0.25c-0.407,0.167-0.684,0.317-0.83,0.45
				c0.106,0.347,0.187,0.728,0.24,1.141c0.053,0.413,0.08,0.847,0.08,1.3v5.84h-1.86v-5.44c0-0.612-0.034-1.14-0.101-1.579
				c-0.066-0.44-0.184-0.807-0.35-1.101c-0.167-0.293-0.394-0.51-0.68-0.649c-0.287-0.141-0.65-0.211-1.09-0.211
				c-0.188,0-0.387,0.008-0.601,0.021c-0.214,0.014-0.417,0.03-0.61,0.05c-0.193,0.021-0.369,0.044-0.529,0.07
				s-0.268,0.047-0.32,0.06v8.78H250.4V-392.1z"/>
			<path fill="#0000FF" d="M270.039-383.34c0.76,0,1.324-0.101,1.69-0.3c0.366-0.2,0.55-0.521,0.55-0.96
				c0-0.453-0.18-0.813-0.539-1.08c-0.361-0.267-0.954-0.566-1.781-0.9c-0.399-0.16-0.783-0.323-1.149-0.49
				c-0.366-0.166-0.684-0.363-0.95-0.59s-0.48-0.5-0.64-0.82c-0.16-0.319-0.24-0.713-0.24-1.18c0-0.92,0.34-1.649,1.021-2.189
				c0.68-0.54,1.605-0.811,2.779-0.811c0.293,0,0.587,0.017,0.881,0.05c0.293,0.034,0.566,0.074,0.819,0.12
				c0.253,0.047,0.477,0.097,0.67,0.15s0.343,0.1,0.45,0.14l-0.34,1.601c-0.2-0.107-0.514-0.217-0.94-0.33s-0.94-0.17-1.54-0.17
				c-0.52,0-0.973,0.104-1.359,0.31c-0.387,0.207-0.58,0.53-0.58,0.97c0,0.228,0.043,0.427,0.13,0.601
				c0.087,0.173,0.22,0.33,0.399,0.47s0.403,0.27,0.67,0.39c0.268,0.12,0.587,0.247,0.961,0.38c0.492,0.188,0.933,0.37,1.319,0.551
				c0.387,0.18,0.717,0.39,0.99,0.63c0.272,0.24,0.483,0.53,0.63,0.87s0.221,0.757,0.221,1.25c0,0.96-0.357,1.687-1.07,2.18
				c-0.714,0.493-1.73,0.74-3.051,0.74c-0.92,0-1.64-0.077-2.16-0.23c-0.52-0.153-0.873-0.27-1.06-0.35l0.341-1.601
				c0.213,0.08,0.553,0.2,1.02,0.36S269.266-383.34,270.039-383.34z"/>
		</g>
	</g>
	<g id="node7">
		<title>4</title>
		<ellipse fill="none" stroke="#000000" stroke-width="2" cx="330" cy="-288" rx="18" ry="18"/>
		<g enable-background="new    ">
			<path d="M334.98-285.822h-2.178V-283h-1.738v-2.822h-6.143v-1.494l5.439-8.447h2.441v8.447h2.178V-285.822z M331.064-294.123
				l-4.443,6.807h4.443V-294.123z"/>
		</g>
	</g>
	<g id="edge6">
		<title>3-&gt;4</title>
		<path fill="none" stroke="#000000" stroke-width="2" d="M191.139-335.307c10.45,4.26,24.387,9.803,36.861,14.307
			c25.232,9.111,54.393,18.52,74.873,24.949"/>
		<polygon stroke="#000000" points="312.45,-293.064 304.243,-300.338 307.825,-295.031 303.052,-296.519 302.903,-296.042 
			302.754,-295.565 307.527,-294.076 301.563,-291.746 312.45,-293.064 		"/>
		<g enable-background="new    ">
			<path fill="#0000FF" d="M240.53-337.1c0.427-0.107,0.989-0.221,1.69-0.341c0.699-0.119,1.51-0.18,2.43-0.18
				c0.666,0,1.227,0.09,1.68,0.271c0.453,0.18,0.833,0.443,1.141,0.79c0.093-0.067,0.239-0.16,0.439-0.28s0.447-0.236,0.74-0.351
				c0.293-0.112,0.619-0.213,0.98-0.3c0.359-0.086,0.746-0.13,1.159-0.13c0.8,0,1.453,0.117,1.96,0.351s0.903,0.563,1.189,0.989
				c0.287,0.427,0.48,0.934,0.58,1.521c0.101,0.587,0.15,1.227,0.15,1.92v5.84h-1.859v-5.44c0-0.612-0.03-1.14-0.09-1.579
				c-0.061-0.44-0.174-0.807-0.34-1.101c-0.168-0.293-0.395-0.51-0.681-0.649c-0.287-0.141-0.657-0.211-1.11-0.211
				c-0.627,0-1.143,0.084-1.55,0.25c-0.407,0.167-0.683,0.317-0.83,0.45c0.106,0.347,0.187,0.728,0.24,1.141s0.08,0.847,0.08,1.3
				v5.84h-1.86v-5.44c0-0.612-0.033-1.14-0.1-1.579c-0.066-0.44-0.184-0.807-0.35-1.101c-0.168-0.293-0.395-0.51-0.681-0.649
				c-0.286-0.141-0.649-0.211-1.09-0.211c-0.187,0-0.387,0.008-0.601,0.021c-0.213,0.014-0.416,0.03-0.609,0.05
				c-0.193,0.021-0.37,0.044-0.53,0.07c-0.159,0.026-0.267,0.047-0.319,0.06v8.78h-1.86V-337.1z"/>
			<path fill="#0000FF" d="M260.17-328.34c0.76,0,1.323-0.101,1.689-0.3c0.367-0.2,0.551-0.521,0.551-0.96
				c0-0.453-0.18-0.813-0.54-1.08s-0.954-0.566-1.78-0.9c-0.4-0.16-0.783-0.323-1.15-0.49c-0.366-0.166-0.684-0.363-0.949-0.59
				c-0.268-0.227-0.48-0.5-0.641-0.82c-0.16-0.319-0.24-0.713-0.24-1.18c0-0.92,0.34-1.649,1.021-2.189s1.606-0.811,2.78-0.811
				c0.293,0,0.586,0.017,0.88,0.05c0.293,0.034,0.566,0.074,0.819,0.12c0.254,0.047,0.477,0.097,0.67,0.15s0.344,0.1,0.451,0.14
				l-0.34,1.601c-0.201-0.107-0.514-0.217-0.941-0.33c-0.426-0.113-0.939-0.17-1.539-0.17c-0.52,0-0.974,0.104-1.36,0.31
				c-0.387,0.207-0.58,0.53-0.58,0.97c0,0.228,0.044,0.427,0.13,0.601c0.087,0.173,0.221,0.33,0.4,0.47s0.402,0.27,0.67,0.39
				c0.267,0.12,0.586,0.247,0.96,0.38c0.493,0.188,0.933,0.37,1.319,0.551c0.387,0.18,0.717,0.39,0.99,0.63s0.483,0.53,0.631,0.87
				c0.146,0.34,0.22,0.757,0.22,1.25c0,0.96-0.356,1.687-1.07,2.18s-1.729,0.74-3.05,0.74c-0.92,0-1.641-0.077-2.16-0.23
				s-0.873-0.27-1.061-0.35l0.341-1.601c0.213,0.08,0.554,0.2,1.021,0.36C258.776-328.42,259.396-328.34,260.17-328.34z"/>
		</g>
	</g>
</g>
<g>
	<path fill="#4F4F4F" d="M26.96,374.418c0.747,0,1.377,0.098,1.89,0.29c0.514,0.193,0.927,0.467,1.24,0.82
		c0.313,0.353,0.537,0.773,0.67,1.26c0.134,0.487,0.2,1.023,0.2,1.61v6.5c-0.16,0.026-0.384,0.063-0.67,0.109
		c-0.287,0.047-0.61,0.09-0.97,0.131c-0.36,0.039-0.75,0.076-1.17,0.109s-0.837,0.051-1.25,0.051c-0.587,0-1.127-0.061-1.62-0.181
		s-0.92-0.31-1.28-0.569c-0.36-0.261-0.64-0.604-0.84-1.031c-0.2-0.426-0.3-0.939-0.3-1.539c0-0.574,0.117-1.066,0.35-1.48
		c0.233-0.413,0.55-0.746,0.95-1c0.4-0.253,0.866-0.439,1.4-0.561c0.533-0.119,1.093-0.18,1.68-0.18c0.187,0,0.38,0.01,0.58,0.03
		c0.199,0.021,0.39,0.047,0.569,0.08c0.181,0.033,0.337,0.063,0.471,0.09c0.133,0.026,0.227,0.047,0.279,0.06v-0.52
		c0-0.307-0.033-0.609-0.1-0.91c-0.067-0.3-0.187-0.566-0.36-0.8c-0.173-0.233-0.41-0.42-0.71-0.56
		c-0.3-0.141-0.69-0.211-1.17-0.211c-0.613,0-1.15,0.044-1.61,0.131c-0.46,0.086-0.803,0.177-1.03,0.27l-0.22-1.54
		c0.24-0.106,0.64-0.21,1.2-0.31S26.307,374.418,26.96,374.418z M27.12,383.738c0.44,0,0.83-0.01,1.17-0.03s0.623-0.057,0.85-0.11
		v-3.1c-0.133-0.066-0.35-0.123-0.649-0.17s-0.664-0.07-1.09-0.07c-0.28,0-0.577,0.021-0.89,0.061c-0.313,0.039-0.6,0.123-0.86,0.25
		c-0.26,0.127-0.477,0.3-0.65,0.52c-0.173,0.221-0.26,0.51-0.26,0.87c0,0.667,0.213,1.13,0.64,1.39S26.387,383.738,27.12,383.738z"
		/>
	<path fill="#4F4F4F" d="M38.56,385.318c-0.84,0-1.577-0.134-2.21-0.4c-0.634-0.267-1.167-0.64-1.601-1.119
		c-0.433-0.48-0.757-1.051-0.97-1.711s-0.32-1.39-0.32-2.189c0-0.801,0.117-1.533,0.351-2.2s0.563-1.243,0.99-1.729
		c0.426-0.487,0.949-0.867,1.569-1.141s1.311-0.41,2.07-0.41c0.467,0,0.934,0.04,1.4,0.12c0.466,0.08,0.913,0.207,1.34,0.38
		l-0.42,1.58c-0.28-0.133-0.604-0.24-0.971-0.32c-0.366-0.08-0.757-0.119-1.17-0.119c-1.04,0-1.837,0.326-2.39,0.979
		c-0.554,0.653-0.83,1.606-0.83,2.86c0,0.56,0.063,1.073,0.19,1.539c0.126,0.467,0.326,0.867,0.6,1.201
		c0.273,0.333,0.623,0.59,1.05,0.77s0.946,0.27,1.561,0.27c0.493,0,0.939-0.047,1.34-0.14c0.399-0.093,0.713-0.192,0.939-0.3
		l0.261,1.561c-0.107,0.066-0.261,0.129-0.46,0.189c-0.2,0.061-0.428,0.113-0.681,0.16s-0.523,0.086-0.81,0.119
		C39.103,385.301,38.826,385.318,38.56,385.318z"/>
	<path fill="#4F4F4F" d="M46.699,374.418c0.747,0,1.377,0.098,1.89,0.29c0.514,0.193,0.927,0.467,1.24,0.82
		c0.313,0.353,0.537,0.773,0.67,1.26c0.134,0.487,0.2,1.023,0.2,1.61v6.5c-0.16,0.026-0.384,0.063-0.67,0.109
		c-0.287,0.047-0.61,0.09-0.97,0.131c-0.36,0.039-0.75,0.076-1.17,0.109s-0.837,0.051-1.25,0.051c-0.587,0-1.127-0.061-1.62-0.181
		c-0.494-0.12-0.92-0.31-1.28-0.569c-0.36-0.261-0.64-0.604-0.84-1.031c-0.2-0.426-0.3-0.939-0.3-1.539
		c0-0.574,0.116-1.066,0.35-1.48c0.233-0.413,0.55-0.746,0.95-1c0.399-0.253,0.866-0.439,1.399-0.561
		c0.533-0.119,1.094-0.18,1.681-0.18c0.187,0,0.38,0.01,0.58,0.03c0.199,0.021,0.39,0.047,0.569,0.08
		c0.181,0.033,0.337,0.063,0.471,0.09c0.133,0.026,0.227,0.047,0.279,0.06v-0.52c0-0.307-0.033-0.609-0.1-0.91
		c-0.067-0.3-0.187-0.566-0.36-0.8c-0.173-0.233-0.41-0.42-0.71-0.56c-0.3-0.141-0.689-0.211-1.17-0.211
		c-0.613,0-1.149,0.044-1.609,0.131c-0.46,0.086-0.804,0.177-1.03,0.27l-0.22-1.54c0.239-0.106,0.64-0.21,1.199-0.31
		C45.439,374.469,46.046,374.418,46.699,374.418z M46.859,383.738c0.439,0,0.83-0.01,1.17-0.03s0.623-0.057,0.85-0.11v-3.1
		c-0.133-0.066-0.35-0.123-0.649-0.17s-0.664-0.07-1.09-0.07c-0.28,0-0.577,0.021-0.891,0.061c-0.313,0.039-0.6,0.123-0.859,0.25
		c-0.261,0.127-0.478,0.3-0.65,0.52c-0.174,0.221-0.26,0.51-0.26,0.87c0,0.667,0.213,1.13,0.64,1.39S46.126,383.738,46.859,383.738z
		"/>
	<path fill="#4F4F4F" d="M53.779,374.979c0.427-0.107,0.99-0.221,1.69-0.34c0.7-0.121,1.51-0.181,2.43-0.181
		c0.667,0,1.227,0.091,1.681,0.271c0.453,0.18,0.833,0.443,1.14,0.789c0.093-0.066,0.24-0.16,0.44-0.279
		c0.199-0.12,0.446-0.236,0.739-0.35s0.62-0.214,0.98-0.301c0.359-0.086,0.746-0.13,1.16-0.13c0.8,0,1.453,0.117,1.96,0.351
		c0.506,0.232,0.902,0.563,1.189,0.99c0.287,0.426,0.48,0.933,0.58,1.52c0.101,0.586,0.15,1.227,0.15,1.92v5.84h-1.86v-5.439
		c0-0.613-0.03-1.141-0.09-1.58c-0.06-0.44-0.174-0.807-0.34-1.101c-0.167-0.293-0.394-0.51-0.681-0.649
		c-0.286-0.141-0.656-0.211-1.109-0.211c-0.627,0-1.144,0.084-1.55,0.25c-0.407,0.168-0.684,0.317-0.83,0.451
		c0.106,0.346,0.187,0.727,0.239,1.139c0.054,0.414,0.08,0.848,0.08,1.301v5.84H59.92v-5.439c0-0.613-0.033-1.141-0.101-1.58
		c-0.066-0.44-0.183-0.807-0.35-1.101c-0.167-0.293-0.394-0.51-0.68-0.649c-0.287-0.141-0.65-0.211-1.091-0.211
		c-0.187,0-0.387,0.008-0.6,0.021s-0.417,0.03-0.61,0.05s-0.369,0.043-0.529,0.07s-0.268,0.047-0.32,0.061v8.779h-1.86V374.979z"/>
	<path fill="#4F4F4F" d="M73.419,383.738c0.761,0,1.323-0.1,1.69-0.301c0.366-0.199,0.55-0.52,0.55-0.959
		c0-0.453-0.18-0.813-0.54-1.08c-0.359-0.268-0.953-0.566-1.779-0.9c-0.4-0.16-0.784-0.323-1.15-0.49
		c-0.367-0.166-0.684-0.363-0.95-0.59s-0.479-0.5-0.64-0.82c-0.16-0.319-0.24-0.713-0.24-1.18c0-0.92,0.34-1.65,1.021-2.189
		c0.68-0.541,1.606-0.811,2.779-0.811c0.293,0,0.587,0.018,0.88,0.051c0.294,0.033,0.567,0.072,0.82,0.119s0.477,0.098,0.67,0.15
		s0.343,0.1,0.45,0.14l-0.34,1.601c-0.2-0.107-0.514-0.217-0.94-0.33s-0.939-0.17-1.54-0.17c-0.52,0-0.974,0.104-1.359,0.31
		c-0.388,0.207-0.58,0.53-0.58,0.97c0,0.227,0.043,0.428,0.13,0.6c0.086,0.174,0.22,0.33,0.399,0.471
		c0.181,0.141,0.403,0.27,0.67,0.391c0.267,0.119,0.587,0.246,0.961,0.379c0.492,0.188,0.933,0.371,1.319,0.551
		s0.717,0.39,0.99,0.63c0.273,0.239,0.483,0.53,0.63,0.87s0.22,0.756,0.22,1.25c0,0.959-0.356,1.687-1.069,2.18
		c-0.714,0.494-1.73,0.74-3.051,0.74c-0.92,0-1.64-0.077-2.159-0.23c-0.521-0.152-0.874-0.27-1.061-0.35l0.34-1.6
		c0.214,0.08,0.554,0.199,1.021,0.359S72.646,383.738,73.419,383.738z"/>
	<path fill="#4F4F4F" d="M28.12,409.318c-0.84,0-1.577-0.134-2.21-0.4c-0.634-0.267-1.167-0.64-1.6-1.12
		c-0.434-0.479-0.757-1.05-0.97-1.71s-0.32-1.39-0.32-2.189c0-0.801,0.117-1.533,0.35-2.2c0.233-0.667,0.563-1.243,0.99-1.729
		c0.427-0.487,0.95-0.867,1.57-1.141c0.62-0.273,1.31-0.41,2.07-0.41c0.467,0,0.934,0.04,1.4,0.12c0.466,0.08,0.913,0.207,1.34,0.38
		l-0.42,1.58c-0.28-0.133-0.604-0.24-0.971-0.32c-0.366-0.08-0.757-0.119-1.17-0.119c-1.04,0-1.836,0.326-2.39,0.979
		c-0.554,0.653-0.83,1.606-0.83,2.86c0,0.56,0.063,1.073,0.19,1.539c0.126,0.467,0.327,0.867,0.6,1.2
		c0.273,0.334,0.623,0.591,1.05,0.771s0.946,0.27,1.561,0.27c0.493,0,0.939-0.046,1.34-0.14c0.399-0.093,0.713-0.193,0.939-0.3
		l0.261,1.56c-0.107,0.067-0.261,0.13-0.46,0.19c-0.2,0.06-0.428,0.113-0.681,0.16c-0.253,0.046-0.523,0.086-0.81,0.12
		C28.663,409.301,28.387,409.318,28.12,409.318z"/>
	<path fill="#4F4F4F" d="M36.26,398.418c0.747,0,1.377,0.098,1.89,0.29c0.514,0.193,0.927,0.467,1.24,0.82
		c0.313,0.353,0.537,0.773,0.67,1.26c0.134,0.487,0.2,1.023,0.2,1.61v6.5c-0.16,0.026-0.384,0.063-0.67,0.109
		c-0.287,0.047-0.61,0.09-0.97,0.13c-0.36,0.04-0.75,0.077-1.17,0.11s-0.837,0.05-1.25,0.05c-0.587,0-1.127-0.06-1.62-0.18
		c-0.494-0.12-0.92-0.31-1.28-0.57c-0.36-0.26-0.64-0.603-0.84-1.029s-0.3-0.94-0.3-1.54c0-0.574,0.116-1.066,0.35-1.48
		c0.233-0.413,0.55-0.746,0.95-1c0.399-0.253,0.866-0.439,1.399-0.561c0.533-0.119,1.094-0.18,1.681-0.18
		c0.187,0,0.38,0.01,0.58,0.03c0.199,0.021,0.39,0.047,0.569,0.08c0.181,0.033,0.337,0.063,0.471,0.09
		c0.133,0.026,0.227,0.047,0.279,0.06v-0.52c0-0.307-0.033-0.609-0.1-0.91c-0.067-0.3-0.187-0.566-0.36-0.8
		c-0.173-0.233-0.41-0.42-0.71-0.56c-0.3-0.141-0.689-0.211-1.17-0.211c-0.613,0-1.149,0.044-1.609,0.131
		c-0.46,0.086-0.804,0.177-1.03,0.27l-0.22-1.54c0.239-0.106,0.64-0.21,1.199-0.31C35,398.469,35.606,398.418,36.26,398.418z
		 M36.42,407.738c0.439,0,0.83-0.01,1.17-0.03c0.34-0.02,0.623-0.057,0.85-0.11v-3.1c-0.133-0.066-0.35-0.123-0.649-0.17
		s-0.664-0.07-1.09-0.07c-0.28,0-0.577,0.021-0.891,0.061c-0.313,0.039-0.6,0.123-0.859,0.25c-0.261,0.127-0.478,0.3-0.65,0.52
		c-0.174,0.221-0.26,0.51-0.26,0.87c0,0.667,0.213,1.13,0.64,1.39C35.106,407.608,35.687,407.738,36.42,407.738z"/>
	<path fill="#4F4F4F" d="M43.339,398.979c0.427-0.107,0.99-0.221,1.69-0.34c0.7-0.121,1.51-0.181,2.43-0.181
		c0.667,0,1.227,0.091,1.681,0.271c0.453,0.18,0.833,0.443,1.14,0.789c0.093-0.066,0.24-0.16,0.44-0.279
		c0.199-0.12,0.446-0.236,0.739-0.35s0.62-0.214,0.98-0.301c0.359-0.086,0.746-0.13,1.16-0.13c0.8,0,1.453,0.117,1.96,0.351
		c0.506,0.232,0.902,0.563,1.189,0.99c0.287,0.426,0.48,0.933,0.58,1.52c0.101,0.586,0.15,1.227,0.15,1.92v5.84h-1.86v-5.439
		c0-0.613-0.03-1.141-0.09-1.58c-0.06-0.44-0.174-0.807-0.34-1.101c-0.167-0.293-0.394-0.51-0.681-0.649
		c-0.286-0.141-0.656-0.211-1.109-0.211c-0.627,0-1.144,0.084-1.55,0.25c-0.407,0.168-0.684,0.317-0.83,0.451
		c0.106,0.346,0.187,0.727,0.239,1.139c0.054,0.414,0.08,0.848,0.08,1.301v5.84h-1.859v-5.439c0-0.613-0.033-1.141-0.101-1.58
		c-0.066-0.44-0.183-0.807-0.35-1.101c-0.167-0.293-0.394-0.51-0.68-0.649c-0.287-0.141-0.65-0.211-1.091-0.211
		c-0.187,0-0.387,0.008-0.6,0.021s-0.417,0.03-0.61,0.05s-0.369,0.043-0.529,0.07s-0.268,0.047-0.32,0.061v8.779h-1.86V398.979z"/>
	<path fill="#4F4F4F" d="M62.979,407.738c0.761,0,1.323-0.101,1.69-0.3c0.366-0.2,0.55-0.521,0.55-0.96
		c0-0.453-0.18-0.813-0.54-1.08c-0.359-0.268-0.953-0.566-1.779-0.9c-0.4-0.16-0.784-0.323-1.15-0.49
		c-0.367-0.166-0.684-0.363-0.95-0.59s-0.479-0.5-0.64-0.82c-0.16-0.319-0.24-0.713-0.24-1.18c0-0.92,0.34-1.65,1.021-2.189
		c0.68-0.541,1.606-0.811,2.779-0.811c0.293,0,0.587,0.018,0.88,0.051c0.294,0.033,0.567,0.072,0.82,0.119s0.477,0.098,0.67,0.15
		s0.343,0.1,0.45,0.14l-0.34,1.601c-0.2-0.107-0.514-0.217-0.94-0.33s-0.939-0.17-1.54-0.17c-0.52,0-0.974,0.104-1.359,0.31
		c-0.388,0.207-0.58,0.53-0.58,0.97c0,0.227,0.043,0.428,0.13,0.6c0.086,0.174,0.22,0.33,0.399,0.471
		c0.181,0.141,0.403,0.27,0.67,0.391c0.267,0.119,0.587,0.246,0.961,0.379c0.492,0.188,0.933,0.371,1.319,0.551
		s0.717,0.39,0.99,0.63c0.273,0.239,0.483,0.53,0.63,0.87s0.22,0.756,0.22,1.25c0,0.96-0.356,1.687-1.069,2.18
		c-0.714,0.493-1.73,0.74-3.051,0.74c-0.92,0-1.64-0.077-2.159-0.23c-0.521-0.153-0.874-0.27-1.061-0.35l0.34-1.601
		c0.214,0.08,0.554,0.2,1.021,0.36S62.206,407.738,62.979,407.738z"/>
	<path fill="#FF8B00" d="M26.96,422.418c0.747,0,1.377,0.097,1.89,0.29c0.514,0.193,0.927,0.467,1.24,0.82s0.537,0.773,0.67,1.26
		c0.134,0.487,0.2,1.023,0.2,1.61v6.5c-0.16,0.026-0.384,0.063-0.67,0.109c-0.287,0.047-0.61,0.09-0.97,0.13
		c-0.36,0.04-0.75,0.077-1.17,0.11s-0.837,0.05-1.25,0.05c-0.587,0-1.127-0.06-1.62-0.18s-0.92-0.31-1.28-0.57
		c-0.36-0.26-0.64-0.603-0.84-1.029c-0.2-0.427-0.3-0.94-0.3-1.54c0-0.573,0.117-1.067,0.35-1.48s0.55-0.746,0.95-1
		c0.4-0.253,0.866-0.439,1.4-0.56c0.533-0.12,1.093-0.181,1.68-0.181c0.187,0,0.38,0.011,0.58,0.03
		c0.199,0.021,0.39,0.047,0.569,0.08c0.181,0.033,0.337,0.063,0.471,0.09c0.133,0.027,0.227,0.047,0.279,0.061v-0.521
		c0-0.307-0.033-0.61-0.1-0.91c-0.067-0.3-0.187-0.566-0.36-0.8c-0.173-0.233-0.41-0.42-0.71-0.56c-0.3-0.141-0.69-0.21-1.17-0.21
		c-0.613,0-1.15,0.043-1.61,0.13s-0.803,0.177-1.03,0.27l-0.22-1.54c0.24-0.106,0.64-0.21,1.2-0.31
		C25.7,422.468,26.307,422.418,26.96,422.418z M27.12,431.738c0.44,0,0.83-0.01,1.17-0.03c0.34-0.02,0.623-0.057,0.85-0.11v-3.1
		c-0.133-0.066-0.35-0.123-0.649-0.17s-0.664-0.07-1.09-0.07c-0.28,0-0.577,0.021-0.89,0.061c-0.313,0.04-0.6,0.123-0.86,0.25
		c-0.26,0.127-0.477,0.3-0.65,0.52c-0.173,0.221-0.26,0.51-0.26,0.87c0,0.667,0.213,1.13,0.64,1.39
		C25.807,431.608,26.387,431.738,27.12,431.738z"/>
	<path fill="#FF8B00" d="M34.039,422.979c0.427-0.107,0.99-0.221,1.69-0.341c0.7-0.119,1.51-0.18,2.43-0.18
		c0.667,0,1.227,0.09,1.681,0.271c0.453,0.18,0.833,0.443,1.14,0.79c0.093-0.067,0.24-0.16,0.44-0.28
		c0.199-0.12,0.446-0.236,0.739-0.351c0.293-0.112,0.62-0.213,0.98-0.3c0.359-0.086,0.746-0.13,1.16-0.13
		c0.8,0,1.453,0.117,1.96,0.351c0.506,0.233,0.902,0.563,1.189,0.989s0.48,0.934,0.58,1.521c0.101,0.587,0.15,1.227,0.15,1.92v5.84
		h-1.86v-5.44c0-0.612-0.03-1.14-0.09-1.579c-0.06-0.44-0.174-0.807-0.34-1.101c-0.167-0.293-0.394-0.51-0.681-0.649
		c-0.286-0.141-0.656-0.211-1.109-0.211c-0.627,0-1.144,0.084-1.55,0.25c-0.407,0.167-0.684,0.317-0.83,0.45
		c0.106,0.347,0.187,0.728,0.239,1.141c0.054,0.413,0.08,0.847,0.08,1.3v5.84H40.18v-5.44c0-0.612-0.033-1.14-0.101-1.579
		c-0.066-0.44-0.183-0.807-0.35-1.101c-0.167-0.293-0.394-0.51-0.68-0.649c-0.287-0.141-0.65-0.211-1.091-0.211
		c-0.187,0-0.387,0.008-0.6,0.021c-0.213,0.014-0.417,0.03-0.61,0.05c-0.193,0.021-0.369,0.044-0.529,0.07s-0.268,0.047-0.32,0.06
		v8.78h-1.86V422.979z"/>
	<path fill="#FF8B00" d="M53.679,431.738c0.761,0,1.323-0.101,1.69-0.3c0.366-0.2,0.55-0.521,0.55-0.96
		c0-0.453-0.18-0.813-0.54-1.08c-0.359-0.267-0.953-0.566-1.779-0.9c-0.4-0.16-0.784-0.323-1.15-0.49
		c-0.367-0.166-0.684-0.363-0.95-0.59s-0.479-0.5-0.64-0.82c-0.16-0.319-0.24-0.713-0.24-1.18c0-0.92,0.34-1.649,1.021-2.189
		c0.68-0.54,1.606-0.811,2.779-0.811c0.293,0,0.587,0.017,0.88,0.05c0.294,0.034,0.567,0.074,0.82,0.12
		c0.253,0.047,0.477,0.097,0.67,0.15s0.343,0.1,0.45,0.14l-0.34,1.601c-0.2-0.107-0.514-0.217-0.94-0.33s-0.939-0.17-1.54-0.17
		c-0.52,0-0.974,0.104-1.359,0.31c-0.388,0.207-0.58,0.53-0.58,0.97c0,0.228,0.043,0.427,0.13,0.601
		c0.086,0.173,0.22,0.33,0.399,0.47c0.181,0.14,0.403,0.27,0.67,0.39s0.587,0.247,0.961,0.38c0.492,0.188,0.933,0.37,1.319,0.551
		c0.387,0.18,0.717,0.39,0.99,0.63s0.483,0.53,0.63,0.87s0.22,0.757,0.22,1.25c0,0.96-0.356,1.687-1.069,2.18
		c-0.714,0.493-1.73,0.74-3.051,0.74c-0.92,0-1.64-0.077-2.159-0.23c-0.521-0.153-0.874-0.27-1.061-0.35l0.34-1.601
		c0.214,0.08,0.554,0.2,1.021,0.36S52.905,431.738,53.679,431.738z"/>
	<path fill="#FF8B00" d="M23.6,446.979c0.426-0.107,0.99-0.221,1.69-0.341c0.7-0.119,1.51-0.18,2.43-0.18
		c0.667,0,1.227,0.09,1.681,0.271c0.453,0.18,0.833,0.443,1.14,0.79c0.093-0.067,0.24-0.16,0.44-0.28
		c0.199-0.12,0.446-0.236,0.739-0.351c0.293-0.112,0.62-0.213,0.98-0.3c0.359-0.086,0.746-0.13,1.16-0.13
		c0.8,0,1.453,0.117,1.96,0.351c0.506,0.233,0.902,0.563,1.189,0.989s0.48,0.934,0.58,1.521c0.101,0.587,0.15,1.227,0.15,1.92v5.84
		h-1.86v-5.44c0-0.612-0.03-1.14-0.09-1.579c-0.06-0.44-0.174-0.807-0.34-1.101c-0.167-0.293-0.394-0.51-0.681-0.649
		c-0.286-0.141-0.656-0.211-1.109-0.211c-0.627,0-1.144,0.084-1.55,0.25c-0.407,0.167-0.684,0.317-0.83,0.45
		c0.106,0.347,0.187,0.728,0.239,1.141c0.054,0.413,0.08,0.847,0.08,1.3v5.84H29.74v-5.44c0-0.612-0.033-1.14-0.101-1.579
		c-0.066-0.44-0.183-0.807-0.35-1.101c-0.167-0.293-0.394-0.51-0.68-0.649c-0.287-0.141-0.65-0.211-1.09-0.211
		c-0.187,0-0.387,0.008-0.6,0.021c-0.213,0.014-0.417,0.03-0.61,0.05c-0.193,0.021-0.37,0.044-0.53,0.07
		c-0.16,0.026-0.267,0.047-0.32,0.06v8.78H23.6V446.979z"/>
	<path fill="#FF8B00" d="M43.239,455.738c0.761,0,1.323-0.101,1.69-0.3c0.366-0.2,0.55-0.521,0.55-0.96
		c0-0.453-0.18-0.813-0.54-1.08c-0.359-0.267-0.953-0.566-1.779-0.9c-0.4-0.16-0.784-0.323-1.15-0.49
		c-0.367-0.166-0.684-0.363-0.95-0.59s-0.479-0.5-0.64-0.82c-0.16-0.319-0.24-0.713-0.24-1.18c0-0.92,0.34-1.649,1.021-2.189
		c0.68-0.54,1.606-0.811,2.779-0.811c0.293,0,0.587,0.017,0.88,0.05c0.294,0.034,0.567,0.074,0.82,0.12
		c0.253,0.047,0.477,0.097,0.67,0.15s0.343,0.1,0.45,0.14l-0.34,1.601c-0.2-0.107-0.514-0.217-0.94-0.33s-0.939-0.17-1.54-0.17
		c-0.52,0-0.974,0.104-1.359,0.31c-0.388,0.207-0.58,0.53-0.58,0.97c0,0.228,0.043,0.427,0.13,0.601
		c0.086,0.173,0.22,0.33,0.399,0.47c0.181,0.14,0.403,0.27,0.67,0.39s0.587,0.247,0.961,0.38c0.492,0.188,0.933,0.37,1.319,0.551
		c0.387,0.18,0.717,0.39,0.99,0.63s0.483,0.53,0.63,0.87s0.22,0.757,0.22,1.25c0,0.96-0.356,1.687-1.069,2.18
		c-0.714,0.493-1.73,0.74-3.051,0.74c-0.92,0-1.64-0.077-2.159-0.23c-0.521-0.153-0.874-0.27-1.061-0.35l0.34-1.601
		c0.214,0.08,0.554,0.2,1.021,0.36S42.466,455.738,43.239,455.738z"/>
	<path fill="#2F4B9E" d="M26.02,479.738c0.76,0,1.323-0.101,1.69-0.3c0.366-0.2,0.55-0.521,0.55-0.96c0-0.453-0.18-0.813-0.54-1.08
		c-0.36-0.267-0.953-0.566-1.78-0.9c-0.4-0.16-0.783-0.323-1.15-0.49c-0.367-0.166-0.684-0.363-0.95-0.59s-0.48-0.5-0.64-0.82
		c-0.16-0.319-0.24-0.713-0.24-1.18c0-0.92,0.34-1.649,1.02-2.189s1.606-0.811,2.78-0.811c0.293,0,0.587,0.017,0.88,0.05
		c0.293,0.034,0.567,0.074,0.82,0.12c0.253,0.047,0.477,0.097,0.67,0.15s0.343,0.1,0.45,0.14l-0.34,1.601
		c-0.2-0.107-0.514-0.217-0.94-0.33s-0.94-0.17-1.54-0.17c-0.52,0-0.973,0.104-1.36,0.31c-0.387,0.207-0.58,0.53-0.58,0.97
		c0,0.228,0.043,0.427,0.13,0.601c0.086,0.173,0.22,0.33,0.4,0.47c0.18,0.14,0.403,0.27,0.67,0.39c0.267,0.12,0.586,0.247,0.96,0.38
		c0.493,0.188,0.933,0.37,1.32,0.551c0.387,0.18,0.717,0.39,0.99,0.63s0.483,0.53,0.63,0.87s0.22,0.757,0.22,1.25
		c0,0.96-0.356,1.687-1.069,2.18c-0.714,0.493-1.73,0.74-3.05,0.74c-0.92,0-1.64-0.077-2.16-0.23s-0.874-0.27-1.06-0.35l0.34-1.601
		c0.213,0.08,0.553,0.2,1.02,0.36C24.626,479.658,25.247,479.738,26.02,479.738z"/>
</g>
<g>
</g>
<g>
</g>
</svg>
