<?xml version="1.0" encoding="utf-8"?>
<!-- Generator: Adobe Illustrator 16.0.0, SVG Export Plug-In . SVG Version: 6.00 Build 0)  -->
<!DOCTYPE svg PUBLIC "-//W3C//DTD SVG 1.1//EN" "http://www.w3.org/Graphics/SVG/1.1/DTD/svg11.dtd">
<svg version="1.1" id="图层_1" xmlns="http://www.w3.org/2000/svg" xmlns:xlink="http://www.w3.org/1999/xlink" x="0px" y="0px"
	 width="718px" height="480px" viewBox="0 0 718 480" enable-background="new 0 0 718 480" xml:space="preserve">
<g id="graph1" transform="scale(1 1) rotate(0) translate(4 476)">
	<title>G</title>
	<polygon fill="#FFFFFF" stroke="#FFFFFF" points="-4,5 -4,-476 715,-476 715,5 	"/>
	<g id="node1">
		<title>0</title>
		<ellipse fill="none" stroke="#000000" stroke-width="2" cx="18" cy="-294" rx="18" ry="18"/>
		<g enable-background="new    ">
			<path d="M22.639-295.377c0,0.977-0.098,1.867-0.293,2.671s-0.492,1.494-0.889,2.07s-0.89,1.022-1.479,1.338
				s-1.281,0.474-2.075,0.474c-0.684,0-1.305-0.129-1.865-0.386s-1.039-0.652-1.436-1.187s-0.703-1.214-0.918-2.041
				s-0.322-1.807-0.322-2.939c0-0.977,0.099-1.868,0.298-2.676s0.495-1.499,0.889-2.075s0.887-1.022,1.479-1.338
				s1.283-0.474,2.07-0.474c0.684,0,1.305,0.129,1.865,0.386s1.039,0.654,1.436,1.191s0.703,1.219,0.918,2.046
				S22.639-296.51,22.639-295.377z M15.08-295.436c0,0.202,0.001,0.403,0.005,0.605s0.015,0.397,0.034,0.586l5.4-3.994
				c-0.098-0.332-0.221-0.635-0.371-0.908s-0.329-0.51-0.537-0.708s-0.446-0.354-0.713-0.464s-0.566-0.166-0.898-0.166
				c-0.443,0-0.845,0.107-1.206,0.322s-0.669,0.535-0.923,0.962s-0.449,0.954-0.586,1.582S15.08-296.263,15.08-295.436z
				 M20.92-295.318c0-0.222-0.008-0.441-0.024-0.659s-0.034-0.432-0.054-0.64l-5.4,4.014c0.098,0.339,0.221,0.651,0.371,0.938
				s0.331,0.532,0.542,0.737s0.453,0.364,0.723,0.479s0.578,0.171,0.923,0.171c0.443,0,0.845-0.107,1.206-0.322
				s0.669-0.534,0.923-0.957s0.449-0.949,0.586-1.577S20.92-294.491,20.92-295.318z"/>
		</g>
	</g>
	<g id="node3">
		<title>11</title>
		<ellipse fill="none" stroke="#000000" stroke-width="2" cx="252" cy="-454" rx="18" ry="18"/>
		<g enable-background="new    ">
			<path d="M250.74-449h-8.018v-1.582h3.281v-9.316l-3.057,1.66l-0.625-1.445l4.063-2.139h1.504v11.24h2.852V-449z"/>
			<path d="M261.736-449h-8.018v-1.582H257v-9.316l-3.057,1.66l-0.625-1.445l4.063-2.139h1.504v11.24h2.852V-449z"/>
		</g>
	</g>
	<g id="edge2">
		<title>0-&gt;11</title>
		<path fill="none" stroke="#FF0000" stroke-width="2" d="M26.445-310.176C35.195-327.665,51.2-355.394,72-373
			c46.526-39.38,115.318-63.251,152.62-74.076"/>
		<polygon fill="#FF0000" stroke="#FF0000" points="234.262,-449.785 223.417,-451.412 229.313,-448.914 224.499,-447.561 
			224.635,-447.08 224.77,-446.598 229.583,-447.951 225.852,-442.748 234.262,-449.785 		"/>
		<g enable-background="new    ">
			<path fill="#0000FF" d="M135.144-444.9c1.026,0,1.746-0.163,2.16-0.489c0.413-0.327,0.62-0.743,0.62-1.25
				c0-0.373-0.09-0.693-0.27-0.96s-0.42-0.5-0.72-0.7c-0.3-0.2-0.646-0.38-1.04-0.54c-0.394-0.16-0.797-0.313-1.21-0.46
				c-0.4-0.146-0.797-0.311-1.19-0.49s-0.743-0.4-1.05-0.66c-0.307-0.26-0.557-0.573-0.75-0.939c-0.193-0.367-0.29-0.817-0.29-1.351
				c0-0.946,0.283-1.723,0.85-2.33c0.566-0.606,1.39-0.989,2.47-1.149v-2.3h1.66v2.239c0.586,0.027,1.133,0.101,1.64,0.221
				c0.506,0.119,0.906,0.233,1.2,0.34l-0.38,1.56c-0.32-0.12-0.72-0.243-1.2-0.37c-0.48-0.126-1.08-0.189-1.8-0.189
				c-0.8,0-1.417,0.153-1.85,0.46s-0.65,0.74-0.65,1.3c0,0.307,0.063,0.566,0.19,0.78c0.126,0.213,0.31,0.403,0.55,0.569
				c0.24,0.167,0.523,0.317,0.85,0.45c0.327,0.134,0.69,0.273,1.09,0.42c0.52,0.2,1.013,0.407,1.48,0.62
				c0.466,0.214,0.876,0.47,1.23,0.771c0.353,0.3,0.637,0.656,0.85,1.069c0.213,0.414,0.32,0.914,0.32,1.5
				c0,0.947-0.287,1.71-0.86,2.29c-0.574,0.58-1.46,0.943-2.66,1.09v2.58h-1.66v-2.52c-0.933-0.026-1.693-0.13-2.28-0.311
				c-0.587-0.18-1.027-0.35-1.32-0.51l0.5-1.5c0.4,0.188,0.88,0.36,1.44,0.521C133.624-444.98,134.316-444.9,135.144-444.9z"/>
			<path fill="#0000FF" d="M149.223-448.98c0,1.707,0.247,3.287,0.74,4.74c0.493,1.453,1.22,2.8,2.18,4.04l-1.32,0.9
				c-1.04-1.267-1.877-2.724-2.51-4.37s-0.95-3.417-0.95-5.311c0-1.893,0.316-3.663,0.95-5.31s1.47-3.104,2.51-4.37l1.32,0.9
				c-0.96,1.24-1.687,2.587-2.18,4.04C149.469-452.267,149.223-450.687,149.223-448.98z"/>
			<path fill="#0000FF" d="M162.463-446.6c0,0.56-0.097,1.076-0.29,1.55c-0.193,0.474-0.48,0.887-0.86,1.24
				c-0.38,0.353-0.856,0.626-1.43,0.819c-0.574,0.193-1.233,0.29-1.98,0.29c-0.867,0-1.59-0.123-2.17-0.37
				c-0.58-0.246-1.043-0.557-1.39-0.93c-0.347-0.373-0.593-0.783-0.74-1.23c-0.146-0.446-0.22-0.869-0.22-1.27
				c0-0.387,0.063-0.757,0.19-1.11c0.126-0.353,0.293-0.683,0.5-0.989c0.207-0.307,0.446-0.584,0.72-0.83
				c0.273-0.247,0.563-0.464,0.87-0.65c-1.307-0.746-1.96-1.847-1.96-3.3c0-0.507,0.1-0.99,0.3-1.45c0.2-0.46,0.483-0.863,0.85-1.21
				s0.81-0.623,1.33-0.83c0.52-0.206,1.1-0.31,1.74-0.31c0.747,0,1.386,0.113,1.92,0.34c0.533,0.227,0.97,0.517,1.31,0.87
				c0.34,0.354,0.586,0.743,0.74,1.17s0.23,0.84,0.23,1.24c0,0.387-0.057,0.75-0.17,1.09s-0.267,0.656-0.46,0.95
				c-0.193,0.293-0.414,0.553-0.66,0.779c-0.247,0.228-0.503,0.427-0.77,0.601C161.636-449.394,162.436-448.213,162.463-446.6z
				 M155.263-446.48c0,0.24,0.043,0.49,0.13,0.75c0.087,0.261,0.237,0.5,0.45,0.721c0.213,0.22,0.486,0.403,0.82,0.55
				c0.333,0.146,0.753,0.22,1.26,0.22c0.453,0,0.85-0.066,1.19-0.2c0.34-0.133,0.617-0.303,0.83-0.51
				c0.213-0.206,0.373-0.443,0.48-0.71c0.106-0.267,0.16-0.54,0.16-0.82c0-0.426-0.08-0.8-0.24-1.119
				c-0.16-0.32-0.39-0.601-0.69-0.841c-0.3-0.239-0.66-0.442-1.08-0.609s-0.897-0.311-1.43-0.431c-0.6,0.334-1.063,0.747-1.39,1.24
				C155.426-447.746,155.263-447.16,155.263-446.48z M160.263-453.58c0-0.2-0.043-0.42-0.13-0.66c-0.087-0.24-0.224-0.463-0.41-0.67
				c-0.187-0.206-0.427-0.38-0.72-0.52c-0.293-0.141-0.654-0.21-1.08-0.21c-0.427,0-0.79,0.066-1.09,0.199
				c-0.3,0.134-0.543,0.304-0.73,0.511s-0.323,0.434-0.41,0.68c-0.087,0.247-0.13,0.49-0.13,0.73c0,0.293,0.053,0.586,0.16,0.88
				c0.106,0.293,0.273,0.566,0.5,0.819c0.227,0.254,0.523,0.48,0.89,0.681c0.367,0.199,0.803,0.359,1.31,0.479
				c0.56-0.333,1.006-0.723,1.34-1.17C160.096-452.276,160.263-452.86,160.263-453.58z"/>
			<path fill="#0000FF" d="M167.123-445.28c0.013,0.107,0.02,0.21,0.02,0.311c0,0.1,0,0.203,0,0.31c0,0.84-0.124,1.67-0.37,2.49
				c-0.247,0.82-0.583,1.604-1.01,2.35l-1.44-0.46c0.333-0.68,0.553-1.37,0.66-2.069c0.106-0.7,0.16-1.357,0.16-1.971
				c0-0.173-0.003-0.34-0.01-0.5s-0.017-0.313-0.03-0.46H167.123z"/>
			<path fill="#0000FF" d="M171.002-455.28c-0.333,0-0.617-0.109-0.85-0.33c-0.233-0.22-0.35-0.517-0.35-0.89s0.117-0.67,0.35-0.89
				c0.233-0.221,0.517-0.33,0.85-0.33c0.333,0,0.617,0.109,0.85,0.33c0.233,0.22,0.35,0.517,0.35,0.89s-0.117,0.67-0.35,0.89
				C171.619-455.39,171.335-455.28,171.002-455.28z M171.942-443h-1.86v-10.4h1.86V-443z"/>
			<path fill="#0000FF" d="M175.142-453.1c0.426-0.107,0.993-0.221,1.7-0.341c0.707-0.119,1.52-0.18,2.44-0.18
				c0.826,0,1.513,0.117,2.06,0.351s0.983,0.56,1.31,0.979s0.557,0.924,0.69,1.51c0.133,0.587,0.2,1.233,0.2,1.94v5.84h-1.86v-5.44
				c0-0.64-0.043-1.187-0.13-1.64c-0.086-0.453-0.23-0.82-0.43-1.1c-0.2-0.28-0.467-0.483-0.8-0.61
				c-0.333-0.127-0.747-0.19-1.24-0.19c-0.2,0-0.407,0.008-0.62,0.021c-0.213,0.014-0.417,0.03-0.61,0.05
				c-0.193,0.021-0.367,0.044-0.52,0.07s-0.264,0.047-0.33,0.06v8.78h-1.86V-453.1z"/>
			<path fill="#0000FF" d="M190.682-458.52c0.546,0,1.017,0.039,1.41,0.119s0.67,0.154,0.83,0.221l-0.34,1.6
				c-0.16-0.08-0.387-0.156-0.68-0.229s-0.653-0.11-1.08-0.11c-0.867,0-1.473,0.236-1.82,0.71s-0.52,1.11-0.52,1.91v0.899h4v1.561
				h-4v8.84h-1.86v-11.34c0-1.333,0.327-2.363,0.98-3.09C188.255-458.156,189.282-458.52,190.682-458.52z"/>
			<path fill="#0000FF" d="M196.582-448.98c0-1.706-0.247-3.286-0.74-4.739s-1.22-2.8-2.18-4.04l1.32-0.9
				c1.04,1.267,1.876,2.724,2.51,4.37c0.633,1.646,0.95,3.417,0.95,5.31c0,1.894-0.317,3.664-0.95,5.311
				c-0.634,1.646-1.47,3.104-2.51,4.37l-1.32-0.9c0.96-1.24,1.687-2.587,2.18-4.04S196.582-447.273,196.582-448.98z"/>
		</g>
	</g>
	<g id="node5">
		<title>2</title>
		<ellipse fill="none" stroke="#000000" stroke-width="2" cx="252" cy="-346" rx="18" ry="18"/>
		<g enable-background="new    ">
			<path d="M256.346-341h-8.408v-1.523l3.301-3.281c0.541-0.534,0.98-0.996,1.318-1.387s0.602-0.747,0.791-1.069
				s0.316-0.627,0.381-0.913s0.098-0.596,0.098-0.928c0-0.313-0.042-0.61-0.127-0.894s-0.215-0.532-0.391-0.747
				s-0.404-0.384-0.684-0.508s-0.615-0.186-1.006-0.186c-0.541,0-1.032,0.12-1.475,0.361s-0.85,0.554-1.221,0.938l-0.938-1.123
				c0.482-0.508,1.037-0.915,1.665-1.221s1.359-0.459,2.192-0.459c0.566,0,1.083,0.085,1.548,0.254s0.868,0.413,1.206,0.732
				s0.601,0.71,0.786,1.172s0.278,0.983,0.278,1.563c0,0.488-0.065,0.94-0.195,1.357s-0.327,0.832-0.591,1.245
				s-0.596,0.842-0.996,1.284s-0.874,0.928-1.421,1.455l-2.314,2.256h6.201V-341z"/>
		</g>
	</g>
	<g id="edge4">
		<title>0-&gt;2</title>
		<path fill="none" stroke="#000000" stroke-width="2" d="M35.685-297.74c39.699-8.898,140.064-31.393,188.436-42.235"/>
		<polygon stroke="#000000" points="234.155,-342.224 223.412,-344.428 229.166,-341.619 224.287,-340.525 224.397,-340.037 
			224.506,-339.549 229.385,-340.643 225.381,-335.646 234.155,-342.224 		"/>
		<g enable-background="new    ">
			<path fill="#0000FF" d="M88.021-355.088c0.747,0,1.376,0.097,1.89,0.29c0.513,0.193,0.926,0.467,1.24,0.82s0.537,0.773,0.67,1.26
				c0.133,0.487,0.2,1.023,0.2,1.61v6.5c-0.16,0.026-0.383,0.063-0.67,0.109c-0.287,0.047-0.61,0.09-0.97,0.13
				c-0.36,0.04-0.75,0.077-1.17,0.11s-0.837,0.05-1.25,0.05c-0.587,0-1.127-0.06-1.62-0.18s-0.92-0.31-1.28-0.57
				c-0.36-0.26-0.64-0.603-0.84-1.029c-0.2-0.427-0.3-0.94-0.3-1.54c0-0.573,0.117-1.067,0.35-1.48s0.55-0.746,0.95-1
				c0.4-0.253,0.866-0.439,1.4-0.56c0.533-0.12,1.093-0.181,1.68-0.181c0.187,0,0.38,0.011,0.58,0.03
				c0.2,0.021,0.39,0.047,0.57,0.08c0.18,0.033,0.336,0.063,0.47,0.09c0.133,0.027,0.227,0.047,0.28,0.061v-0.521
				c0-0.307-0.034-0.61-0.1-0.91c-0.067-0.3-0.187-0.566-0.36-0.8c-0.174-0.233-0.41-0.42-0.71-0.56c-0.3-0.141-0.69-0.21-1.17-0.21
				c-0.613,0-1.15,0.043-1.61,0.13s-0.803,0.177-1.03,0.27l-0.22-1.54c0.24-0.106,0.64-0.21,1.2-0.31
				C86.762-355.038,87.368-355.088,88.021-355.088z M88.182-345.768c0.44,0,0.83-0.01,1.17-0.03c0.34-0.02,0.623-0.057,0.85-0.11
				v-3.1c-0.134-0.066-0.35-0.123-0.65-0.17c-0.3-0.047-0.664-0.07-1.09-0.07c-0.28,0-0.577,0.021-0.89,0.061
				c-0.313,0.04-0.6,0.123-0.86,0.25c-0.26,0.127-0.477,0.3-0.65,0.52c-0.173,0.221-0.26,0.51-0.26,0.87
				c0,0.667,0.213,1.13,0.64,1.39C86.868-345.897,87.448-345.768,88.182-345.768z"/>
			<path fill="#0000FF" d="M99.622-344.188c-0.84,0-1.577-0.134-2.21-0.4c-0.634-0.267-1.167-0.64-1.6-1.12
				c-0.434-0.479-0.757-1.05-0.97-1.71s-0.32-1.39-0.32-2.189c0-0.801,0.117-1.533,0.35-2.2c0.233-0.667,0.563-1.243,0.99-1.73
				c0.427-0.486,0.95-0.866,1.57-1.14c0.62-0.273,1.31-0.41,2.07-0.41c0.467,0,0.933,0.04,1.4,0.12s0.913,0.207,1.34,0.38
				l-0.42,1.58c-0.28-0.133-0.603-0.24-0.97-0.32c-0.367-0.08-0.757-0.119-1.17-0.119c-1.04,0-1.837,0.326-2.39,0.979
				c-0.554,0.653-0.83,1.606-0.83,2.86c0,0.56,0.063,1.073,0.19,1.54c0.126,0.467,0.327,0.866,0.6,1.199
				c0.273,0.334,0.623,0.591,1.05,0.771s0.947,0.27,1.56,0.27c0.493,0,0.94-0.046,1.34-0.14c0.4-0.093,0.713-0.193,0.94-0.3
				l0.26,1.56c-0.107,0.067-0.26,0.13-0.46,0.19c-0.2,0.06-0.427,0.113-0.68,0.16c-0.253,0.046-0.523,0.086-0.81,0.12
				C100.165-344.205,99.888-344.188,99.622-344.188z"/>
			<path fill="#0000FF" d="M108.461-359.947c0.546,0,1.017,0.039,1.41,0.119s0.67,0.154,0.83,0.221l-0.34,1.6
				c-0.16-0.08-0.387-0.156-0.68-0.229s-0.653-0.11-1.08-0.11c-0.867,0-1.473,0.236-1.82,0.71s-0.52,1.11-0.52,1.91v0.899h4v1.561
				h-4v8.84h-1.86v-11.34c0-1.333,0.327-2.363,0.98-3.09C106.034-359.584,107.061-359.947,108.461-359.947z"/>
			<path fill="#0000FF" d="M116.641-344.188c-0.84,0-1.577-0.134-2.21-0.4c-0.634-0.267-1.167-0.64-1.6-1.12
				c-0.434-0.479-0.757-1.05-0.97-1.71s-0.32-1.39-0.32-2.189c0-0.801,0.117-1.533,0.35-2.2c0.233-0.667,0.563-1.243,0.99-1.73
				c0.427-0.486,0.95-0.866,1.57-1.14c0.62-0.273,1.31-0.41,2.07-0.41c0.467,0,0.933,0.04,1.4,0.12s0.913,0.207,1.34,0.38
				l-0.42,1.58c-0.28-0.133-0.603-0.24-0.97-0.32c-0.367-0.08-0.757-0.119-1.17-0.119c-1.04,0-1.837,0.326-2.39,0.979
				c-0.554,0.653-0.83,1.606-0.83,2.86c0,0.56,0.063,1.073,0.19,1.54c0.126,0.467,0.327,0.866,0.6,1.199
				c0.273,0.334,0.623,0.591,1.05,0.771s0.947,0.27,1.56,0.27c0.493,0,0.94-0.046,1.34-0.14c0.4-0.093,0.713-0.193,0.94-0.3
				l0.26,1.56c-0.107,0.067-0.26,0.13-0.46,0.19c-0.2,0.06-0.427,0.113-0.68,0.16c-0.253,0.046-0.523,0.086-0.81,0.12
				C117.184-344.205,116.908-344.188,116.641-344.188z"/>
			<path fill="#0000FF" d="M125.941-344.188c-0.84,0-1.577-0.134-2.21-0.4c-0.634-0.267-1.167-0.64-1.6-1.12
				c-0.434-0.479-0.757-1.05-0.97-1.71s-0.32-1.39-0.32-2.189c0-0.801,0.117-1.533,0.35-2.2c0.233-0.667,0.563-1.243,0.99-1.73
				c0.427-0.486,0.95-0.866,1.57-1.14c0.62-0.273,1.31-0.41,2.07-0.41c0.467,0,0.933,0.04,1.4,0.12s0.913,0.207,1.34,0.38
				l-0.42,1.58c-0.28-0.133-0.603-0.24-0.97-0.32c-0.367-0.08-0.757-0.119-1.17-0.119c-1.04,0-1.837,0.326-2.39,0.979
				c-0.554,0.653-0.83,1.606-0.83,2.86c0,0.56,0.063,1.073,0.19,1.54c0.126,0.467,0.327,0.866,0.6,1.199
				c0.273,0.334,0.623,0.591,1.05,0.771s0.947,0.27,1.56,0.27c0.493,0,0.94-0.046,1.34-0.14c0.4-0.093,0.713-0.193,0.94-0.3
				l0.26,1.56c-0.107,0.067-0.26,0.13-0.46,0.19c-0.2,0.06-0.427,0.113-0.68,0.16c-0.253,0.046-0.523,0.086-0.81,0.12
				C126.484-344.205,126.208-344.188,125.941-344.188z"/>
			<path fill="#0000FF" d="M134.781-359.947c0.546,0,1.017,0.039,1.41,0.119s0.67,0.154,0.83,0.221l-0.34,1.6
				c-0.16-0.08-0.387-0.156-0.68-0.229s-0.653-0.11-1.08-0.11c-0.867,0-1.473,0.236-1.82,0.71s-0.52,1.11-0.52,1.91v0.899h4v1.561
				h-4v8.84h-1.86v-11.34c0-1.333,0.327-2.363,0.98-3.09C132.354-359.584,133.38-359.947,134.781-359.947z"/>
			<path fill="#0000FF" d="M142.081-346.328c1.026,0,1.746-0.163,2.16-0.489c0.413-0.327,0.62-0.743,0.62-1.25
				c0-0.373-0.09-0.693-0.27-0.96s-0.42-0.5-0.72-0.7c-0.3-0.2-0.646-0.38-1.04-0.54c-0.394-0.16-0.797-0.313-1.21-0.46
				c-0.4-0.146-0.797-0.311-1.19-0.49s-0.743-0.4-1.05-0.66c-0.307-0.26-0.557-0.573-0.75-0.939c-0.193-0.367-0.29-0.817-0.29-1.351
				c0-0.946,0.283-1.723,0.85-2.33c0.566-0.606,1.39-0.989,2.47-1.149v-2.3h1.66v2.239c0.586,0.027,1.133,0.101,1.64,0.221
				c0.506,0.119,0.906,0.233,1.2,0.34l-0.38,1.56c-0.32-0.12-0.72-0.243-1.2-0.37c-0.48-0.126-1.08-0.189-1.8-0.189
				c-0.8,0-1.417,0.153-1.85,0.46s-0.65,0.74-0.65,1.3c0,0.307,0.063,0.566,0.19,0.78c0.126,0.213,0.31,0.403,0.55,0.569
				c0.24,0.167,0.523,0.317,0.85,0.45c0.327,0.134,0.69,0.273,1.09,0.42c0.52,0.2,1.013,0.407,1.48,0.62
				c0.466,0.214,0.876,0.47,1.23,0.771c0.353,0.3,0.637,0.656,0.85,1.069c0.213,0.414,0.32,0.914,0.32,1.5
				c0,0.947-0.287,1.71-0.86,2.29c-0.574,0.58-1.46,0.943-2.66,1.09v2.58h-1.66v-2.52c-0.933-0.026-1.693-0.13-2.28-0.311
				c-0.587-0.18-1.027-0.35-1.32-0.51l0.5-1.5c0.4,0.188,0.88,0.36,1.44,0.521C140.561-346.408,141.253-346.328,142.081-346.328z"/>
			<path fill="#0000FF" d="M156.16-350.408c0,1.707,0.247,3.287,0.74,4.74c0.493,1.453,1.22,2.8,2.18,4.04l-1.32,0.9
				c-1.04-1.267-1.877-2.724-2.51-4.37s-0.95-3.417-0.95-5.311c0-1.893,0.316-3.663,0.95-5.31s1.47-3.104,2.51-4.37l1.32,0.9
				c-0.96,1.24-1.687,2.587-2.18,4.04C156.407-353.694,156.16-352.114,156.16-350.408z"/>
			<path fill="#0000FF" d="M168.56-354.748c0,0.48-0.097,0.943-0.29,1.391c-0.193,0.446-0.45,0.887-0.77,1.319
				c-0.32,0.434-0.68,0.86-1.08,1.28c-0.4,0.42-0.8,0.83-1.2,1.23c-0.227,0.227-0.49,0.493-0.79,0.8s-0.583,0.627-0.85,0.96
				s-0.49,0.653-0.67,0.96s-0.27,0.573-0.27,0.8h6.38v1.58h-8.4c-0.013-0.08-0.02-0.16-0.02-0.24s0-0.153,0-0.22
				c0-0.627,0.103-1.21,0.31-1.75c0.207-0.54,0.477-1.05,0.81-1.53c0.333-0.479,0.707-0.933,1.12-1.359
				c0.413-0.427,0.82-0.841,1.22-1.24c0.333-0.32,0.65-0.637,0.95-0.95s0.566-0.627,0.8-0.94c0.233-0.313,0.42-0.636,0.56-0.97
				c0.14-0.333,0.21-0.687,0.21-1.06c0-0.4-0.063-0.74-0.19-1.021c-0.127-0.279-0.297-0.513-0.51-0.7
				c-0.213-0.187-0.463-0.322-0.75-0.409c-0.287-0.087-0.59-0.13-0.91-0.13c-0.387,0-0.74,0.053-1.06,0.159
				c-0.32,0.107-0.607,0.23-0.86,0.37c-0.253,0.141-0.467,0.287-0.64,0.44s-0.307,0.27-0.4,0.35l-0.92-1.319
				c0.12-0.134,0.3-0.297,0.54-0.49c0.24-0.193,0.526-0.377,0.86-0.55c0.333-0.174,0.707-0.32,1.12-0.44
				c0.413-0.12,0.86-0.18,1.34-0.18c1.453,0,2.543,0.337,3.27,1.01C168.196-356.924,168.56-355.975,168.56-354.748z"/>
			<path fill="#0000FF" d="M174.06-346.708c0.013,0.107,0.02,0.21,0.02,0.311c0,0.1,0,0.203,0,0.31c0,0.84-0.124,1.67-0.37,2.49
				c-0.247,0.82-0.583,1.604-1.01,2.35l-1.44-0.46c0.333-0.68,0.553-1.37,0.66-2.069c0.106-0.7,0.16-1.357,0.16-1.971
				c0-0.173-0.003-0.34-0.01-0.5s-0.017-0.313-0.03-0.46H174.06z"/>
			<path fill="#0000FF" d="M177.939-356.708c-0.333,0-0.617-0.109-0.85-0.33c-0.233-0.22-0.35-0.517-0.35-0.89s0.117-0.67,0.35-0.89
				c0.233-0.221,0.517-0.33,0.85-0.33c0.333,0,0.617,0.109,0.85,0.33c0.233,0.22,0.35,0.517,0.35,0.89s-0.117,0.67-0.35,0.89
				C178.556-356.817,178.272-356.708,177.939-356.708z M178.879-344.428h-1.86v-10.4h1.86V-344.428z"/>
			<path fill="#0000FF" d="M182.08-354.527c0.426-0.107,0.993-0.221,1.7-0.341c0.707-0.119,1.52-0.18,2.44-0.18
				c0.826,0,1.513,0.117,2.06,0.351s0.983,0.56,1.31,0.979s0.557,0.924,0.69,1.51c0.133,0.587,0.2,1.233,0.2,1.94v5.84h-1.86v-5.44
				c0-0.64-0.043-1.187-0.13-1.64c-0.086-0.453-0.23-0.82-0.43-1.1c-0.2-0.28-0.467-0.483-0.8-0.61
				c-0.333-0.127-0.747-0.19-1.24-0.19c-0.2,0-0.407,0.008-0.62,0.021c-0.213,0.014-0.417,0.03-0.61,0.05
				c-0.193,0.021-0.367,0.044-0.52,0.07s-0.264,0.047-0.33,0.06v8.78h-1.86V-354.527z"/>
			<path fill="#0000FF" d="M197.619-359.947c0.546,0,1.017,0.039,1.41,0.119s0.67,0.154,0.83,0.221l-0.34,1.6
				c-0.16-0.08-0.387-0.156-0.68-0.229s-0.653-0.11-1.08-0.11c-0.867,0-1.473,0.236-1.82,0.71s-0.52,1.11-0.52,1.91v0.899h4v1.561
				h-4v8.84h-1.86v-11.34c0-1.333,0.327-2.363,0.98-3.09C195.192-359.584,196.219-359.947,197.619-359.947z"/>
			<path fill="#0000FF" d="M203.519-350.408c0-1.706-0.247-3.286-0.74-4.739s-1.22-2.8-2.18-4.04l1.32-0.9
				c1.04,1.267,1.876,2.724,2.51,4.37c0.633,1.646,0.95,3.417,0.95,5.31c0,1.894-0.317,3.664-0.95,5.311
				c-0.634,1.646-1.47,3.104-2.51,4.37l-1.32-0.9c0.96-1.24,1.687-2.587,2.18-4.04S203.519-348.701,203.519-350.408z"/>
		</g>
	</g>
	<g id="node7">
		<title>3</title>
		<ellipse fill="none" stroke="#000000" stroke-width="2" cx="252" cy="-238" rx="18" ry="18"/>
		<g enable-background="new    ">
			<path d="M256.102-236.877c0,0.56-0.114,1.086-0.342,1.577s-0.57,0.921-1.025,1.289s-1.029,0.657-1.719,0.869
				s-1.494,0.317-2.412,0.317c-0.508,0-0.963-0.017-1.367-0.049s-0.781-0.075-1.133-0.127v-1.523
				c0.404,0.071,0.83,0.127,1.279,0.166s0.908,0.059,1.377,0.059c0.638,0,1.183-0.057,1.636-0.171s0.822-0.278,1.108-0.493
				s0.495-0.476,0.625-0.781s0.195-0.651,0.195-1.035c0-0.352-0.078-0.657-0.234-0.918s-0.376-0.479-0.659-0.654
				s-0.622-0.308-1.016-0.396s-0.825-0.132-1.294-0.132h-1.455v-1.396h1.475c0.384,0,0.734-0.051,1.05-0.151
				s0.586-0.246,0.811-0.435s0.397-0.422,0.518-0.698s0.181-0.591,0.181-0.942c0-0.684-0.208-1.182-0.625-1.494
				s-1.029-0.469-1.836-0.469c-0.43,0-0.873,0.042-1.328,0.127s-0.944,0.212-1.465,0.381v-1.484c0.221-0.078,0.458-0.148,0.708-0.21
				s0.501-0.114,0.752-0.156s0.5-0.075,0.747-0.098s0.485-0.034,0.713-0.034c0.677,0,1.273,0.073,1.787,0.22s0.944,0.356,1.289,0.63
				s0.605,0.605,0.781,0.996s0.264,0.83,0.264,1.318c0,0.729-0.187,1.341-0.562,1.836s-0.887,0.889-1.538,1.182
				c0.332,0.052,0.659,0.156,0.981,0.313s0.612,0.356,0.869,0.601s0.465,0.532,0.625,0.864S256.102-237.28,256.102-236.877z"/>
		</g>
	</g>
	<g id="edge6">
		<title>0-&gt;3</title>
		<path fill="none" stroke="#000000" stroke-width="2" d="M33.714-284.522C44.034-278.309,58.371-270.526,72-266
			c51.942,17.248,115.969,23.984,151.657,26.531"/>
		<polygon stroke="#000000" points="233.778,-238.807 224.093,-243.95 228.821,-239.632 223.832,-239.959 223.799,-239.46 
			223.767,-238.961 228.756,-238.634 223.505,-234.97 233.778,-238.807 		"/>
		<g enable-background="new    ">
			<path fill="#0000FF" d="M130.568-261.755c-0.84,0-1.577-0.134-2.21-0.4c-0.634-0.267-1.167-0.64-1.6-1.12
				c-0.434-0.479-0.757-1.05-0.97-1.71s-0.32-1.39-0.32-2.189c0-0.801,0.117-1.533,0.35-2.2c0.233-0.667,0.563-1.243,0.99-1.73
				c0.427-0.486,0.95-0.866,1.57-1.14c0.62-0.273,1.31-0.41,2.07-0.41c0.467,0,0.933,0.04,1.4,0.12s0.913,0.207,1.34,0.38
				l-0.42,1.58c-0.28-0.133-0.603-0.24-0.97-0.32c-0.367-0.08-0.757-0.119-1.17-0.119c-1.04,0-1.837,0.326-2.39,0.979
				c-0.554,0.653-0.83,1.606-0.83,2.86c0,0.56,0.063,1.073,0.19,1.54c0.126,0.467,0.327,0.866,0.6,1.199
				c0.273,0.334,0.623,0.591,1.05,0.771s0.947,0.27,1.56,0.27c0.493,0,0.94-0.046,1.34-0.14c0.4-0.093,0.713-0.193,0.94-0.3
				l0.26,1.56c-0.107,0.067-0.26,0.13-0.46,0.19c-0.2,0.06-0.427,0.113-0.68,0.16c-0.253,0.046-0.523,0.086-0.81,0.12
				C131.111-261.772,130.835-261.755,130.568-261.755z"/>
			<path fill="#0000FF" d="M141.788-267.976c0,1.707,0.247,3.287,0.74,4.74c0.493,1.453,1.22,2.8,2.18,4.04l-1.32,0.9
				c-1.04-1.267-1.877-2.724-2.51-4.37s-0.95-3.417-0.95-5.311c0-1.893,0.316-3.663,0.95-5.31s1.47-3.104,2.51-4.37l1.32,0.9
				c-0.96,1.24-1.687,2.587-2.18,4.04C142.035-271.262,141.788-269.682,141.788-267.976z"/>
			<path fill="#0000FF" d="M146.708-272.995c0.76-0.293,1.5-0.67,2.22-1.13c0.72-0.46,1.38-1.037,1.98-1.73h1.32v13.86h-1.86v-11.28
				c-0.16,0.147-0.357,0.3-0.59,0.46c-0.233,0.16-0.487,0.313-0.76,0.46c-0.273,0.147-0.56,0.287-0.86,0.42
				c-0.3,0.134-0.59,0.247-0.87,0.341L146.708-272.995z"/>
			<path fill="#0000FF" d="M159.688-264.275c0.013,0.107,0.02,0.21,0.02,0.311c0,0.1,0,0.203,0,0.31c0,0.84-0.124,1.67-0.37,2.49
				c-0.247,0.82-0.583,1.604-1.01,2.35l-1.44-0.46c0.333-0.68,0.553-1.37,0.66-2.069c0.106-0.7,0.16-1.357,0.16-1.971
				c0-0.173-0.003-0.34-0.01-0.5s-0.017-0.313-0.03-0.46H159.688z"/>
			<path fill="#0000FF" d="M162.907-272.995c0.76-0.293,1.5-0.67,2.22-1.13c0.72-0.46,1.38-1.037,1.98-1.73h1.32v13.86h-1.86v-11.28
				c-0.16,0.147-0.357,0.3-0.59,0.46c-0.233,0.16-0.487,0.313-0.76,0.46c-0.273,0.147-0.56,0.287-0.86,0.42
				c-0.3,0.134-0.59,0.247-0.87,0.341L162.907-272.995z"/>
			<path fill="#0000FF" d="M175.387-267.976c0-1.706-0.247-3.286-0.74-4.739s-1.22-2.8-2.18-4.04l1.32-0.9
				c1.04,1.267,1.876,2.724,2.51,4.37c0.633,1.646,0.95,3.417,0.95,5.31c0,1.894-0.317,3.664-0.95,5.311
				c-0.634,1.646-1.47,3.104-2.51,4.37l-1.32-0.9c0.96-1.24,1.687-2.587,2.18-4.04S175.387-266.269,175.387-267.976z"/>
		</g>
	</g>
	<g id="node19">
		<title>9</title>
		<ellipse fill="none" stroke="#000000" stroke-width="2" cx="252" cy="-126" rx="18" ry="18"/>
		<g enable-background="new    ">
			<path d="M256.277-128.1c0,1.243-0.15,2.313-0.449,3.208s-0.742,1.631-1.328,2.207s-1.312,1.001-2.178,1.274
				s-1.865,0.41-2.998,0.41h-1.064v-1.484h1.182c0.84,0,1.566-0.085,2.178-0.254s1.122-0.418,1.528-0.747s0.718-0.729,0.933-1.201
				s0.348-1.011,0.4-1.616l0.039-0.4c-0.41,0.241-0.882,0.435-1.416,0.581s-1.113,0.22-1.738,0.22c-0.645,0-1.211-0.095-1.699-0.283
				s-0.894-0.452-1.216-0.791s-0.565-0.74-0.728-1.206s-0.244-0.972-0.244-1.519c0-0.593,0.107-1.146,0.322-1.66
				s0.516-0.962,0.903-1.343s0.851-0.682,1.392-0.903s1.136-0.332,1.787-0.332c0.631,0,1.216,0.104,1.753,0.313
				s1.001,0.545,1.392,1.011s0.697,1.069,0.918,1.812S256.277-129.161,256.277-128.1z M251.805-132.543
				c-0.365,0-0.702,0.061-1.011,0.181s-0.576,0.296-0.801,0.527s-0.402,0.516-0.532,0.854s-0.195,0.726-0.195,1.162
				c0,0.397,0.047,0.752,0.142,1.064s0.241,0.578,0.439,0.796s0.454,0.386,0.767,0.503s0.684,0.176,1.113,0.176
				c0.241,0,0.49-0.022,0.747-0.068s0.508-0.107,0.752-0.186s0.477-0.169,0.698-0.273s0.42-0.215,0.596-0.332
				c0-0.84-0.062-1.541-0.186-2.104s-0.303-1.016-0.537-1.357s-0.519-0.584-0.854-0.728S252.228-132.543,251.805-132.543z"/>
		</g>
	</g>
	<g id="edge18">
		<title>0-&gt;9</title>
		<path fill="none" stroke="#FF0000" stroke-width="2" d="M24.845-277.22C32.683-256.927,48.403-222.898,72-202
			c45.087,39.932,114.257,61.116,152.052,70.29"/>
		<polygon fill="#FF0000" stroke="#FF0000" points="234.274,-129.337 225.551,-135.982 229.517,-130.955 224.646,-132.085 
			224.533,-131.598 224.42,-131.111 229.291,-129.98 223.516,-127.215 234.274,-129.337 		"/>
		<g enable-background="new    ">
			<path fill="#0000FF" d="M122.271-198.285c0.546,0,1.017,0.039,1.41,0.119s0.67,0.154,0.83,0.221l-0.34,1.6
				c-0.16-0.08-0.387-0.156-0.68-0.229s-0.653-0.11-1.08-0.11c-0.867,0-1.473,0.236-1.82,0.71s-0.52,1.11-0.52,1.91v0.899h4v1.561
				h-4v8.84h-1.86v-11.34c0-1.333,0.327-2.363,0.98-3.09C119.844-197.922,120.871-198.285,122.271-198.285z"/>
			<path fill="#0000FF" d="M132.37-188.746c0,1.707,0.247,3.287,0.74,4.74c0.493,1.453,1.22,2.8,2.18,4.04l-1.32,0.9
				c-1.04-1.267-1.877-2.724-2.51-4.37s-0.95-3.417-0.95-5.311c0-1.893,0.316-3.663,0.95-5.31s1.47-3.104,2.51-4.37l1.32,0.9
				c-0.96,1.24-1.687,2.587-2.18,4.04C132.617-192.032,132.37-190.452,132.37-188.746z"/>
			<path fill="#0000FF" d="M136.23-187.565c0.253-0.587,0.6-1.271,1.04-2.05c0.44-0.78,0.937-1.584,1.49-2.41
				c0.553-0.827,1.146-1.641,1.78-2.44s1.27-1.52,1.91-2.16h1.78v8.801h1.64v1.52h-1.64v3.54h-1.8v-3.54h-6.2V-187.565z
				 M142.43-194.426c-0.4,0.427-0.803,0.903-1.21,1.43c-0.407,0.527-0.804,1.077-1.19,1.65c-0.387,0.573-0.75,1.16-1.09,1.76
				c-0.34,0.601-0.643,1.188-0.91,1.761h4.4V-194.426z"/>
			<path fill="#0000FF" d="M150.27-185.046c0.013,0.107,0.02,0.21,0.02,0.311c0,0.1,0,0.203,0,0.31c0,0.84-0.124,1.67-0.37,2.49
				c-0.247,0.82-0.583,1.604-1.01,2.35l-1.44-0.46c0.333-0.68,0.553-1.37,0.66-2.069c0.106-0.7,0.16-1.357,0.16-1.971
				c0-0.173-0.003-0.34-0.01-0.5s-0.017-0.313-0.03-0.46H150.27z"/>
			<path fill="#0000FF" d="M153.49-193.766c0.76-0.293,1.5-0.67,2.22-1.13c0.72-0.46,1.38-1.037,1.98-1.73h1.32v13.86h-1.86v-11.28
				c-0.16,0.147-0.357,0.3-0.59,0.46c-0.233,0.16-0.487,0.313-0.76,0.46c-0.273,0.147-0.56,0.287-0.86,0.42
				c-0.3,0.134-0.59,0.247-0.87,0.341L153.49-193.766z"/>
			<path fill="#0000FF" d="M165.97-188.746c0-1.706-0.247-3.286-0.74-4.739s-1.22-2.8-2.18-4.04l1.32-0.9
				c1.04,1.267,1.876,2.724,2.51,4.37c0.633,1.646,0.95,3.417,0.95,5.31c0,1.894-0.317,3.664-0.95,5.311
				c-0.634,1.646-1.47,3.104-2.51,4.37l-1.32-0.9c0.96-1.24,1.687-2.587,2.18-4.04S165.97-187.039,165.97-188.746z"/>
		</g>
	</g>
	<g id="node9">
		<title>1</title>
		<ellipse fill="none" stroke="#000000" stroke-width="2" cx="486" cy="-450" rx="18" ry="18"/>
		<g enable-background="new    ">
			<path d="M490.238-445h-8.018v-1.582h3.281v-9.316l-3.057,1.66l-0.625-1.445l4.063-2.139h1.504v11.24h2.852V-445z"/>
		</g>
	</g>
	<g id="edge8">
		<title>3-&gt;1</title>
		<path fill="none" stroke="#000000" stroke-width="2" d="M258.769-254.822C269.093-284.179,291.043-343.158,306-359
			c43.095-45.646,114.128-72.102,152.474-83.779"/>
		<polygon stroke="#000000" points="468.372,-445.685 457.509,-447.186 463.434,-444.756 458.636,-443.348 458.777,-442.868 
			458.918,-442.388 463.715,-443.797 460.044,-438.55 468.372,-445.685 		"/>
		<g enable-background="new    ">
			<path fill="#0000FF" d="M312.021-449.66c0.747,0,1.376,0.097,1.89,0.29c0.513,0.193,0.926,0.467,1.24,0.82s0.537,0.773,0.67,1.26
				c0.133,0.487,0.2,1.023,0.2,1.61v6.5c-0.16,0.026-0.383,0.063-0.67,0.109c-0.287,0.047-0.61,0.09-0.97,0.13
				c-0.36,0.04-0.75,0.077-1.17,0.11s-0.837,0.05-1.25,0.05c-0.587,0-1.127-0.06-1.62-0.18s-0.92-0.31-1.28-0.57
				c-0.36-0.26-0.64-0.603-0.84-1.029c-0.2-0.427-0.3-0.94-0.3-1.54c0-0.573,0.117-1.067,0.35-1.48s0.55-0.746,0.95-1
				c0.4-0.253,0.866-0.439,1.4-0.56c0.533-0.12,1.093-0.181,1.68-0.181c0.187,0,0.38,0.011,0.58,0.03
				c0.2,0.021,0.39,0.047,0.57,0.08c0.18,0.033,0.336,0.063,0.47,0.09c0.133,0.027,0.227,0.047,0.28,0.061v-0.521
				c0-0.307-0.034-0.61-0.1-0.91c-0.067-0.3-0.187-0.566-0.36-0.8c-0.174-0.233-0.41-0.42-0.71-0.56c-0.3-0.141-0.69-0.21-1.17-0.21
				c-0.613,0-1.15,0.043-1.61,0.13s-0.803,0.177-1.03,0.27l-0.22-1.54c0.24-0.106,0.64-0.21,1.2-0.31
				C310.762-449.61,311.368-449.66,312.021-449.66z M312.182-440.34c0.44,0,0.83-0.01,1.17-0.03c0.34-0.02,0.623-0.057,0.85-0.11
				v-3.1c-0.134-0.066-0.35-0.123-0.65-0.17c-0.3-0.047-0.664-0.07-1.09-0.07c-0.28,0-0.577,0.021-0.89,0.061
				c-0.313,0.04-0.6,0.123-0.86,0.25c-0.26,0.127-0.477,0.3-0.65,0.52c-0.173,0.221-0.26,0.51-0.26,0.87
				c0,0.667,0.213,1.13,0.64,1.39C310.868-440.47,311.448-440.34,312.182-440.34z"/>
			<path fill="#0000FF" d="M323.622-438.76c-0.84,0-1.577-0.134-2.21-0.4c-0.634-0.267-1.167-0.64-1.6-1.12
				c-0.434-0.479-0.757-1.05-0.97-1.71s-0.32-1.39-0.32-2.189c0-0.801,0.117-1.533,0.35-2.2c0.233-0.667,0.563-1.243,0.99-1.73
				c0.427-0.486,0.95-0.866,1.57-1.14c0.62-0.273,1.31-0.41,2.07-0.41c0.467,0,0.933,0.04,1.4,0.12s0.913,0.207,1.34,0.38
				l-0.42,1.58c-0.28-0.133-0.603-0.24-0.97-0.32c-0.367-0.08-0.757-0.119-1.17-0.119c-1.04,0-1.837,0.326-2.39,0.979
				c-0.554,0.653-0.83,1.606-0.83,2.86c0,0.56,0.063,1.073,0.19,1.54c0.126,0.467,0.327,0.866,0.6,1.199
				c0.273,0.334,0.623,0.591,1.05,0.771s0.947,0.27,1.56,0.27c0.493,0,0.94-0.046,1.34-0.14c0.4-0.093,0.713-0.193,0.94-0.3
				l0.26,1.56c-0.107,0.067-0.26,0.13-0.46,0.19c-0.2,0.06-0.427,0.113-0.68,0.16c-0.253,0.046-0.523,0.086-0.81,0.12
				C324.165-438.777,323.888-438.76,323.622-438.76z"/>
			<path fill="#0000FF" d="M332.461-454.52c0.546,0,1.017,0.039,1.41,0.119s0.67,0.154,0.83,0.221l-0.34,1.6
				c-0.16-0.08-0.387-0.156-0.68-0.229s-0.653-0.11-1.08-0.11c-0.867,0-1.473,0.236-1.82,0.71s-0.52,1.11-0.52,1.91v0.899h4v1.561
				h-4v8.84h-1.86v-11.34c0-1.333,0.327-2.363,0.98-3.09C330.034-454.156,331.061-454.52,332.461-454.52z"/>
			<path fill="#0000FF" d="M340.641-438.76c-0.84,0-1.577-0.134-2.21-0.4c-0.634-0.267-1.167-0.64-1.6-1.12
				c-0.434-0.479-0.757-1.05-0.97-1.71s-0.32-1.39-0.32-2.189c0-0.801,0.117-1.533,0.35-2.2c0.233-0.667,0.563-1.243,0.99-1.73
				c0.427-0.486,0.95-0.866,1.57-1.14c0.62-0.273,1.31-0.41,2.07-0.41c0.467,0,0.933,0.04,1.4,0.12s0.913,0.207,1.34,0.38
				l-0.42,1.58c-0.28-0.133-0.603-0.24-0.97-0.32c-0.367-0.08-0.757-0.119-1.17-0.119c-1.04,0-1.837,0.326-2.39,0.979
				c-0.554,0.653-0.83,1.606-0.83,2.86c0,0.56,0.063,1.073,0.19,1.54c0.126,0.467,0.327,0.866,0.6,1.199
				c0.273,0.334,0.623,0.591,1.05,0.771s0.947,0.27,1.56,0.27c0.493,0,0.94-0.046,1.34-0.14c0.4-0.093,0.713-0.193,0.94-0.3
				l0.26,1.56c-0.107,0.067-0.26,0.13-0.46,0.19c-0.2,0.06-0.427,0.113-0.68,0.16c-0.253,0.046-0.523,0.086-0.81,0.12
				C341.184-438.777,340.908-438.76,340.641-438.76z"/>
			<path fill="#0000FF" d="M349.941-438.76c-0.84,0-1.577-0.134-2.21-0.4c-0.634-0.267-1.167-0.64-1.6-1.12
				c-0.434-0.479-0.757-1.05-0.97-1.71s-0.32-1.39-0.32-2.189c0-0.801,0.117-1.533,0.35-2.2c0.233-0.667,0.563-1.243,0.99-1.73
				c0.427-0.486,0.95-0.866,1.57-1.14c0.62-0.273,1.31-0.41,2.07-0.41c0.467,0,0.933,0.04,1.4,0.12s0.913,0.207,1.34,0.38
				l-0.42,1.58c-0.28-0.133-0.603-0.24-0.97-0.32c-0.367-0.08-0.757-0.119-1.17-0.119c-1.04,0-1.837,0.326-2.39,0.979
				c-0.554,0.653-0.83,1.606-0.83,2.86c0,0.56,0.063,1.073,0.19,1.54c0.126,0.467,0.327,0.866,0.6,1.199
				c0.273,0.334,0.623,0.591,1.05,0.771s0.947,0.27,1.56,0.27c0.493,0,0.94-0.046,1.34-0.14c0.4-0.093,0.713-0.193,0.94-0.3
				l0.26,1.56c-0.107,0.067-0.26,0.13-0.46,0.19c-0.2,0.06-0.427,0.113-0.68,0.16c-0.253,0.046-0.523,0.086-0.81,0.12
				C350.484-438.777,350.208-438.76,349.941-438.76z"/>
			<path fill="#0000FF" d="M358.781-454.52c0.546,0,1.016,0.039,1.409,0.119s0.671,0.154,0.83,0.221l-0.34,1.6
				c-0.16-0.08-0.387-0.156-0.681-0.229c-0.293-0.073-0.652-0.11-1.08-0.11c-0.866,0-1.473,0.236-1.819,0.71s-0.521,1.11-0.521,1.91
				v0.899h4v1.561h-4v8.84h-1.859v-11.34c0-1.333,0.327-2.363,0.98-3.09C356.354-454.156,357.381-454.52,358.781-454.52z"/>
			<path fill="#0000FF" d="M366.08-440.9c1.027,0,1.746-0.163,2.16-0.489c0.413-0.327,0.62-0.743,0.62-1.25
				c0-0.373-0.09-0.693-0.271-0.96c-0.18-0.267-0.42-0.5-0.72-0.7s-0.646-0.38-1.04-0.54c-0.393-0.16-0.797-0.313-1.21-0.46
				c-0.399-0.146-0.797-0.311-1.19-0.49c-0.393-0.18-0.742-0.4-1.049-0.66c-0.308-0.26-0.558-0.573-0.75-0.939
				c-0.193-0.367-0.291-0.817-0.291-1.351c0-0.946,0.283-1.723,0.851-2.33c0.566-0.606,1.39-0.989,2.47-1.149v-2.3h1.66v2.239
				c0.586,0.027,1.133,0.101,1.641,0.221c0.506,0.119,0.906,0.233,1.199,0.34l-0.38,1.56c-0.319-0.12-0.72-0.243-1.2-0.37
				c-0.48-0.126-1.08-0.189-1.8-0.189c-0.8,0-1.417,0.153-1.851,0.46c-0.433,0.307-0.649,0.74-0.649,1.3
				c0,0.307,0.063,0.566,0.19,0.78c0.126,0.213,0.31,0.403,0.55,0.569c0.239,0.167,0.522,0.317,0.85,0.45
				c0.327,0.134,0.69,0.273,1.091,0.42c0.52,0.2,1.013,0.407,1.479,0.62c0.466,0.214,0.876,0.47,1.229,0.771
				c0.354,0.3,0.637,0.656,0.851,1.069c0.213,0.414,0.319,0.914,0.319,1.5c0,0.947-0.287,1.71-0.859,2.29
				c-0.574,0.58-1.46,0.943-2.66,1.09v2.58h-1.66v-2.52c-0.934-0.026-1.693-0.13-2.279-0.311c-0.588-0.18-1.027-0.35-1.32-0.51
				l0.5-1.5c0.4,0.188,0.88,0.36,1.439,0.521C364.561-440.98,365.254-440.9,366.08-440.9z"/>
			<path fill="#0000FF" d="M380.16-444.98c0,1.707,0.246,3.287,0.74,4.74c0.493,1.453,1.22,2.8,2.18,4.04l-1.32,0.9
				c-1.039-1.267-1.877-2.724-2.51-4.37s-0.949-3.417-0.949-5.311c0-1.893,0.316-3.663,0.949-5.31s1.471-3.104,2.51-4.37l1.32,0.9
				c-0.96,1.24-1.687,2.587-2.18,4.04C380.406-448.267,380.16-446.687,380.16-444.98z"/>
			<path fill="#0000FF" d="M392.56-449.32c0,0.48-0.097,0.943-0.29,1.391c-0.193,0.446-0.449,0.887-0.77,1.319
				c-0.32,0.434-0.68,0.86-1.08,1.28s-0.801,0.83-1.2,1.23c-0.228,0.227-0.49,0.493-0.79,0.8s-0.584,0.627-0.85,0.96
				c-0.268,0.333-0.49,0.653-0.67,0.96c-0.181,0.307-0.271,0.573-0.271,0.8h6.38v1.58h-8.4c-0.013-0.08-0.02-0.16-0.02-0.24
				s0-0.153,0-0.22c0-0.627,0.104-1.21,0.311-1.75c0.206-0.54,0.477-1.05,0.81-1.53c0.333-0.479,0.706-0.933,1.12-1.359
				c0.413-0.427,0.82-0.841,1.22-1.24c0.333-0.32,0.65-0.637,0.95-0.95s0.566-0.627,0.8-0.94c0.233-0.313,0.42-0.636,0.56-0.97
				c0.141-0.333,0.211-0.687,0.211-1.06c0-0.4-0.064-0.74-0.19-1.021c-0.127-0.279-0.297-0.513-0.51-0.7
				c-0.214-0.187-0.464-0.322-0.75-0.409c-0.287-0.087-0.591-0.13-0.91-0.13c-0.387,0-0.74,0.053-1.06,0.159
				c-0.32,0.107-0.607,0.23-0.86,0.37c-0.253,0.141-0.467,0.287-0.64,0.44c-0.174,0.153-0.307,0.27-0.4,0.35l-0.92-1.319
				c0.12-0.134,0.3-0.297,0.54-0.49c0.239-0.193,0.526-0.377,0.86-0.55c0.332-0.174,0.706-0.32,1.119-0.44
				c0.414-0.12,0.86-0.18,1.34-0.18c1.453,0,2.543,0.337,3.271,1.01C392.196-451.496,392.56-450.547,392.56-449.32z"/>
			<path fill="#0000FF" d="M398.061-441.28c0.013,0.107,0.02,0.21,0.02,0.311c0,0.1,0,0.203,0,0.31c0,0.84-0.123,1.67-0.37,2.49
				s-0.583,1.604-1.01,2.35l-1.44-0.46c0.334-0.68,0.553-1.37,0.66-2.069c0.106-0.7,0.16-1.357,0.16-1.971
				c0-0.173-0.004-0.34-0.01-0.5c-0.008-0.16-0.018-0.313-0.03-0.46H398.061z"/>
			<path fill="#0000FF" d="M401.939-451.28c-0.334,0-0.617-0.109-0.85-0.33c-0.234-0.22-0.351-0.517-0.351-0.89
				s0.116-0.67,0.351-0.89c0.232-0.221,0.516-0.33,0.85-0.33c0.333,0,0.617,0.109,0.85,0.33c0.233,0.22,0.351,0.517,0.351,0.89
				s-0.117,0.67-0.351,0.89C402.557-451.39,402.272-451.28,401.939-451.28z M402.879-439h-1.859v-10.4h1.859V-439z"/>
			<path fill="#0000FF" d="M406.08-449.1c0.426-0.107,0.992-0.221,1.699-0.341c0.707-0.119,1.52-0.18,2.44-0.18
				c0.826,0,1.513,0.117,2.06,0.351s0.983,0.56,1.311,0.979c0.326,0.42,0.557,0.924,0.689,1.51c0.133,0.587,0.2,1.233,0.2,1.94v5.84
				h-1.86v-5.44c0-0.64-0.043-1.187-0.13-1.64s-0.229-0.82-0.43-1.1c-0.2-0.28-0.467-0.483-0.8-0.61
				c-0.334-0.127-0.747-0.19-1.24-0.19c-0.2,0-0.406,0.008-0.62,0.021c-0.214,0.014-0.417,0.03-0.61,0.05
				c-0.193,0.021-0.366,0.044-0.52,0.07s-0.264,0.047-0.33,0.06v8.78h-1.859V-449.1z"/>
			<path fill="#0000FF" d="M421.619-454.52c0.547,0,1.017,0.039,1.41,0.119c0.393,0.08,0.67,0.154,0.83,0.221l-0.34,1.6
				c-0.16-0.08-0.387-0.156-0.681-0.229s-0.653-0.11-1.08-0.11c-0.866,0-1.474,0.236-1.819,0.71c-0.348,0.474-0.521,1.11-0.521,1.91
				v0.899h4v1.561h-4v8.84h-1.86v-11.34c0-1.333,0.327-2.363,0.98-3.09C419.191-454.156,420.219-454.52,421.619-454.52z"/>
			<path fill="#0000FF" d="M427.519-444.98c0-1.706-0.247-3.286-0.74-4.739s-1.22-2.8-2.18-4.04l1.319-0.9
				c1.041,1.267,1.877,2.724,2.511,4.37c0.633,1.646,0.95,3.417,0.95,5.31c0,1.894-0.317,3.664-0.95,5.311
				c-0.634,1.646-1.47,3.104-2.511,4.37l-1.319-0.9c0.96-1.24,1.687-2.587,2.18-4.04S427.519-443.273,427.519-444.98z"/>
		</g>
	</g>
	<g id="node11">
		<title>6</title>
		<ellipse fill="none" stroke="#000000" stroke-width="2" cx="486" cy="-342" rx="18" ry="18"/>
		<g enable-background="new    ">
			<path d="M490.502-341.043c0,0.586-0.105,1.136-0.317,1.65s-0.513,0.962-0.903,1.343s-0.861,0.681-1.411,0.898
				s-1.161,0.327-1.831,0.327c-0.703,0-1.324-0.112-1.865-0.337s-0.992-0.569-1.357-1.035s-0.641-1.053-0.83-1.763
				s-0.283-1.55-0.283-2.52c0-0.651,0.043-1.282,0.127-1.895s0.225-1.188,0.42-1.729s0.455-1.035,0.781-1.484
				s0.73-0.835,1.216-1.157s1.056-0.573,1.714-0.752s1.42-0.269,2.285-0.269h1.26v1.484h-1.367c-0.762,0-1.422,0.091-1.982,0.273
				s-1.029,0.439-1.406,0.771s-0.668,0.732-0.869,1.201s-0.328,0.993-0.381,1.572l-0.039,0.4c0.41-0.241,0.884-0.435,1.421-0.581
				s1.118-0.22,1.743-0.22c0.645,0,1.209,0.095,1.694,0.283s0.889,0.451,1.211,0.786s0.565,0.737,0.728,1.206
				S490.502-341.603,490.502-341.043z M488.725-340.936c0-0.391-0.047-0.744-0.142-1.06s-0.243-0.583-0.444-0.801
				s-0.457-0.388-0.767-0.508s-0.679-0.181-1.108-0.181c-0.248,0-0.498,0.022-0.752,0.068s-0.503,0.109-0.747,0.19
				s-0.478,0.174-0.698,0.278s-0.424,0.215-0.605,0.332c0,0.84,0.059,1.541,0.176,2.104s0.291,1.014,0.522,1.353
				s0.517,0.579,0.854,0.723s0.729,0.215,1.172,0.215c0.371,0,0.711-0.061,1.021-0.181s0.576-0.298,0.801-0.532
				s0.4-0.52,0.527-0.854S488.725-340.506,488.725-340.936z"/>
		</g>
	</g>
	<g id="edge10">
		<title>3-&gt;6</title>
		<path fill="none" stroke="#000000" stroke-width="2" d="M268.134-246.433C278.642-252.179,293.03-259.834,306-266
			c53.838-25.595,118.564-52.038,153.546-65.983"/>
		<polygon stroke="#000000" points="468.997,-335.734 458.042,-336.227 464.165,-334.354 459.518,-332.51 459.702,-332.045 
			459.887,-331.58 464.534,-333.425 461.362,-327.862 468.997,-335.734 		"/>
		<g enable-background="new    ">
			<path fill="#0000FF" d="M364.741-331.743c-0.841,0-1.577-0.134-2.21-0.4c-0.634-0.267-1.167-0.64-1.6-1.12
				c-0.434-0.479-0.758-1.05-0.971-1.71s-0.32-1.39-0.32-2.189c0-0.801,0.117-1.533,0.351-2.2s0.563-1.243,0.989-1.73
				c0.428-0.486,0.951-0.866,1.57-1.14c0.62-0.273,1.311-0.41,2.07-0.41c0.467,0,0.934,0.04,1.4,0.12s0.912,0.207,1.34,0.38
				l-0.42,1.58c-0.28-0.133-0.604-0.24-0.971-0.32s-0.756-0.119-1.17-0.119c-1.039,0-1.836,0.326-2.39,0.979s-0.83,1.606-0.83,2.86
				c0,0.56,0.063,1.073,0.19,1.54c0.126,0.467,0.326,0.866,0.6,1.199c0.273,0.334,0.623,0.591,1.05,0.771s0.946,0.27,1.56,0.27
				c0.494,0,0.94-0.046,1.341-0.14c0.399-0.093,0.713-0.193,0.94-0.3l0.26,1.56c-0.107,0.067-0.26,0.13-0.461,0.19
				c-0.199,0.06-0.426,0.113-0.68,0.16c-0.254,0.046-0.523,0.086-0.81,0.12C365.284-331.76,365.008-331.743,364.741-331.743z"/>
			<path fill="#0000FF" d="M373.581-347.502c0.546,0,1.017,0.039,1.409,0.119c0.394,0.08,0.671,0.154,0.83,0.221l-0.34,1.6
				c-0.16-0.08-0.387-0.156-0.68-0.229s-0.653-0.11-1.08-0.11c-0.867,0-1.473,0.236-1.82,0.71c-0.346,0.474-0.52,1.11-0.52,1.91
				v0.899h4v1.561h-4v8.84h-1.859v-11.34c0-1.333,0.326-2.363,0.979-3.09S372.181-347.502,373.581-347.502z"/>
			<path fill="#0000FF" d="M380.881-333.883c1.026,0,1.746-0.163,2.16-0.489c0.412-0.327,0.619-0.743,0.619-1.25
				c0-0.373-0.09-0.693-0.27-0.96s-0.42-0.5-0.721-0.7c-0.299-0.2-0.646-0.38-1.039-0.54c-0.394-0.16-0.797-0.313-1.211-0.46
				c-0.399-0.146-0.797-0.311-1.189-0.49s-0.743-0.4-1.05-0.66c-0.308-0.26-0.558-0.573-0.75-0.939
				c-0.193-0.367-0.29-0.817-0.29-1.351c0-0.946,0.283-1.723,0.85-2.33c0.566-0.606,1.391-0.989,2.471-1.149v-2.3h1.66v2.239
				c0.586,0.027,1.133,0.101,1.64,0.221c0.507,0.119,0.906,0.233,1.2,0.34l-0.381,1.56c-0.319-0.12-0.719-0.243-1.199-0.37
				c-0.48-0.126-1.08-0.189-1.801-0.189c-0.799,0-1.416,0.153-1.85,0.46s-0.65,0.74-0.65,1.3c0,0.307,0.063,0.566,0.19,0.78
				c0.126,0.213,0.31,0.403,0.55,0.569c0.24,0.167,0.523,0.317,0.85,0.45c0.327,0.134,0.691,0.273,1.091,0.42
				c0.521,0.2,1.013,0.407,1.479,0.62c0.467,0.214,0.877,0.47,1.23,0.771c0.354,0.3,0.637,0.656,0.85,1.069
				c0.213,0.414,0.32,0.914,0.32,1.5c0,0.947-0.287,1.71-0.859,2.29c-0.574,0.58-1.461,0.943-2.66,1.09v2.58h-1.66v-2.52
				c-0.934-0.026-1.693-0.13-2.28-0.311c-0.587-0.18-1.026-0.35-1.319-0.51l0.5-1.5c0.399,0.188,0.879,0.36,1.439,0.521
				C379.361-333.963,380.054-333.883,380.881-333.883z"/>
			<path fill="#0000FF" d="M394.961-337.963c0,1.707,0.246,3.287,0.74,4.74c0.492,1.453,1.219,2.8,2.18,4.04l-1.32,0.9
				c-1.04-1.267-1.877-2.724-2.51-4.37c-0.634-1.646-0.95-3.417-0.95-5.311c0-1.893,0.316-3.663,0.95-5.31
				c0.633-1.646,1.47-3.104,2.51-4.37l1.32,0.9c-0.961,1.24-1.688,2.587-2.18,4.04C395.207-341.25,394.961-339.669,394.961-337.963z
				"/>
			<path fill="#0000FF" d="M399.279-337.542c0-1.347,0.188-2.537,0.561-3.57s0.903-1.903,1.59-2.61
				c0.688-0.706,1.521-1.243,2.5-1.609c0.98-0.367,2.084-0.557,3.311-0.57l0.14,1.56c-0.786,0.014-1.503,0.101-2.149,0.261
				c-0.647,0.159-1.225,0.413-1.73,0.76c-0.507,0.347-0.934,0.797-1.279,1.35c-0.348,0.554-0.607,1.237-0.781,2.05
				c0.348-0.159,0.737-0.293,1.17-0.399c0.434-0.106,0.884-0.16,1.351-0.16c0.786,0,1.453,0.12,2,0.36
				c0.546,0.239,0.993,0.557,1.34,0.949c0.347,0.394,0.597,0.848,0.75,1.36c0.153,0.514,0.229,1.05,0.229,1.61
				c0,0.507-0.086,1.026-0.26,1.56c-0.173,0.533-0.437,1.021-0.789,1.46c-0.354,0.44-0.804,0.8-1.351,1.08s-1.193,0.42-1.94,0.42
				c-1.52,0-2.676-0.52-3.469-1.56C399.677-334.283,399.279-335.716,399.279-337.542z M403.76-338.963c-0.467,0-0.9,0.044-1.3,0.131
				s-0.8,0.217-1.2,0.39c-0.014,0.146-0.023,0.297-0.029,0.45c-0.008,0.153-0.01,0.303-0.01,0.45c0,0.587,0.039,1.14,0.119,1.659
				c0.08,0.521,0.223,0.978,0.43,1.37c0.207,0.394,0.483,0.707,0.83,0.94c0.348,0.233,0.787,0.35,1.32,0.35
				c0.439,0,0.813-0.093,1.12-0.279c0.307-0.188,0.56-0.427,0.76-0.721c0.2-0.293,0.343-0.609,0.431-0.95
				c0.086-0.34,0.129-0.67,0.129-0.989c0-0.907-0.217-1.601-0.649-2.08C405.276-338.723,404.627-338.963,403.76-338.963z"/>
			<path fill="#0000FF" d="M412.86-334.263c0.013,0.107,0.021,0.21,0.021,0.311c0,0.1,0,0.203,0,0.31c0,0.84-0.124,1.67-0.371,2.49
				c-0.246,0.82-0.583,1.604-1.01,2.35l-1.439-0.46c0.333-0.68,0.553-1.37,0.66-2.069c0.105-0.7,0.16-1.357,0.16-1.971
				c0-0.173-0.004-0.34-0.011-0.5s-0.017-0.313-0.03-0.46H412.86z"/>
			<path fill="#0000FF" d="M416.74-344.263c-0.334,0-0.617-0.109-0.851-0.33c-0.233-0.22-0.351-0.517-0.351-0.89
				s0.117-0.67,0.351-0.89c0.233-0.221,0.517-0.33,0.851-0.33c0.332,0,0.616,0.109,0.85,0.33c0.232,0.22,0.35,0.517,0.35,0.89
				s-0.117,0.67-0.35,0.89C417.356-344.373,417.072-344.263,416.74-344.263z M417.68-331.983h-1.859v-10.4h1.859V-331.983z"/>
			<path fill="#0000FF" d="M420.88-342.083c0.427-0.107,0.993-0.221,1.7-0.341c0.706-0.119,1.52-0.18,2.439-0.18
				c0.826,0,1.514,0.117,2.061,0.351s0.982,0.56,1.31,0.979s0.557,0.924,0.69,1.51c0.133,0.587,0.199,1.233,0.199,1.94v5.84h-1.859
				v-5.44c0-0.64-0.043-1.187-0.131-1.64c-0.086-0.453-0.229-0.82-0.43-1.1c-0.199-0.28-0.467-0.483-0.8-0.61
				s-0.747-0.19-1.239-0.19c-0.201,0-0.407,0.008-0.621,0.021c-0.213,0.014-0.416,0.03-0.609,0.05
				c-0.193,0.021-0.367,0.044-0.52,0.07c-0.154,0.026-0.264,0.047-0.33,0.06v8.78h-1.86V-342.083z"/>
			<path fill="#0000FF" d="M436.42-347.502c0.546,0,1.016,0.039,1.409,0.119s0.671,0.154,0.83,0.221l-0.34,1.6
				c-0.16-0.08-0.387-0.156-0.681-0.229c-0.293-0.073-0.652-0.11-1.08-0.11c-0.866,0-1.473,0.236-1.819,0.71s-0.521,1.11-0.521,1.91
				v0.899h4v1.561h-4v8.84h-1.859v-11.34c0-1.333,0.326-2.363,0.98-3.09C433.992-347.139,435.02-347.502,436.42-347.502z"/>
			<path fill="#0000FF" d="M442.318-337.963c0-1.706-0.246-3.286-0.74-4.739c-0.492-1.453-1.219-2.8-2.18-4.04l1.32-0.9
				c1.04,1.267,1.877,2.724,2.51,4.37s0.95,3.417,0.95,5.31c0,1.894-0.317,3.664-0.95,5.311s-1.47,3.104-2.51,4.37l-1.32-0.9
				c0.961-1.24,1.688-2.587,2.18-4.04C442.072-334.676,442.318-336.256,442.318-337.963z"/>
		</g>
	</g>
	<g id="node13">
		<title>7</title>
		<ellipse fill="none" stroke="#000000" stroke-width="2" cx="486" cy="-234" rx="18" ry="18"/>
		<g enable-background="new    ">
			<path d="M490.277-240.182L484.926-229h-1.943l5.557-11.182h-6.895v-1.582h8.633V-240.182z"/>
		</g>
	</g>
	<g id="edge12">
		<title>3-&gt;7</title>
		<path fill="none" stroke="#FF0000" stroke-width="2" d="M270.112-234.752c10.346,1.798,23.825,3.847,35.888,4.752
			c55.843,4.191,70.04,2.109,126,0c8.335-0.314,17.392-0.905,25.621-1.538"/>
		<polygon fill="#FF0000" stroke="#FF0000" points="467.833,-232.375 457.499,-236.043 462.809,-232.465 457.825,-232.057 
			457.866,-231.559 457.907,-231.061 462.89,-231.468 458.234,-227.073 467.833,-232.375 		"/>
		<g enable-background="new    ">
			<path fill="#0000FF" d="M348.271-251.52c0.546,0,1.017,0.039,1.41,0.119s0.67,0.154,0.83,0.221l-0.34,1.6
				c-0.16-0.08-0.387-0.156-0.68-0.229s-0.653-0.11-1.08-0.11c-0.867,0-1.473,0.236-1.82,0.71s-0.52,1.11-0.52,1.91v0.899h4v1.561
				h-4v8.84h-1.86v-11.34c0-1.333,0.327-2.363,0.98-3.09C345.844-251.156,346.871-251.52,348.271-251.52z"/>
			<path fill="#0000FF" d="M358.37-241.98c0,1.707,0.247,3.287,0.74,4.74s1.22,2.8,2.18,4.04l-1.319,0.9
				c-1.041-1.267-1.877-2.724-2.511-4.37s-0.95-3.417-0.95-5.311c0-1.893,0.316-3.663,0.95-5.31s1.47-3.104,2.511-4.37l1.319,0.9
				c-0.96,1.24-1.687,2.587-2.18,4.04S358.37-243.687,358.37-241.98z"/>
			<path fill="#0000FF" d="M362.23-240.8c0.253-0.587,0.6-1.271,1.039-2.05c0.44-0.78,0.938-1.584,1.49-2.41
				c0.554-0.827,1.146-1.641,1.78-2.44s1.271-1.52,1.91-2.16h1.78v8.801h1.64v1.52h-1.64v3.54h-1.801v-3.54h-6.199V-240.8z
				 M368.43-247.66c-0.399,0.427-0.803,0.903-1.209,1.43c-0.407,0.527-0.805,1.077-1.19,1.65c-0.388,0.573-0.75,1.16-1.091,1.76
				c-0.34,0.601-0.643,1.188-0.909,1.761h4.399V-247.66z"/>
			<path fill="#0000FF" d="M376.27-238.28c0.014,0.107,0.021,0.21,0.021,0.311c0,0.1,0,0.203,0,0.31c0,0.84-0.124,1.67-0.37,2.49
				c-0.247,0.82-0.584,1.604-1.01,2.35l-1.44-0.46c0.333-0.68,0.554-1.37,0.66-2.069c0.106-0.7,0.16-1.357,0.16-1.971
				c0-0.173-0.003-0.34-0.011-0.5c-0.006-0.16-0.016-0.313-0.029-0.46H376.27z"/>
			<path fill="#0000FF" d="M379.49-247c0.76-0.293,1.5-0.67,2.22-1.13s1.38-1.037,1.979-1.73h1.32V-236h-1.859v-11.28
				c-0.16,0.147-0.357,0.3-0.59,0.46c-0.234,0.16-0.487,0.313-0.761,0.46c-0.273,0.147-0.56,0.287-0.86,0.42
				c-0.3,0.134-0.59,0.247-0.869,0.341L379.49-247z"/>
			<path fill="#0000FF" d="M391.97-241.98c0-1.706-0.247-3.286-0.74-4.739s-1.22-2.8-2.18-4.04l1.319-0.9
				c1.041,1.267,1.877,2.724,2.511,4.37c0.633,1.646,0.95,3.417,0.95,5.31c0,1.894-0.317,3.664-0.95,5.311
				c-0.634,1.646-1.47,3.104-2.511,4.37l-1.319-0.9c0.96-1.24,1.687-2.587,2.18-4.04S391.97-240.273,391.97-241.98z"/>
		</g>
	</g>
	<g id="node15">
		<title>8</title>
		<ellipse fill="none" stroke="#000000" stroke-width="2" cx="692" cy="-288" rx="18" ry="18"/>
		<g enable-background="new    ">
			<path d="M696.346-286.203c0,0.54-0.111,1.021-0.332,1.44s-0.531,0.773-0.928,1.06s-0.865,0.505-1.406,0.654
				s-1.127,0.225-1.758,0.225c-0.697,0-1.311-0.078-1.841-0.234s-0.976-0.374-1.333-0.654s-0.629-0.612-0.811-0.996
				s-0.273-0.808-0.273-1.27c0-0.781,0.219-1.455,0.654-2.021s1.109-1.081,2.021-1.543c-0.834-0.423-1.441-0.894-1.826-1.411
				s-0.576-1.111-0.576-1.782c0-0.41,0.084-0.808,0.254-1.191s0.425-0.726,0.767-1.025s0.771-0.539,1.284-0.718
				s1.119-0.269,1.816-0.269c0.658,0,1.235,0.07,1.733,0.21s0.917,0.34,1.255,0.601s0.592,0.576,0.762,0.947s0.254,0.784,0.254,1.24
				c0,0.742-0.207,1.374-0.62,1.895s-1.001,0.977-1.763,1.367c0.377,0.188,0.729,0.397,1.055,0.625s0.609,0.481,0.85,0.762
				s0.428,0.593,0.562,0.938S696.346-286.626,696.346-286.203z M694.5-286.076c0-0.241-0.039-0.476-0.117-0.703
				s-0.219-0.452-0.42-0.674s-0.473-0.442-0.811-0.664s-0.768-0.449-1.289-0.684c-0.443,0.215-0.815,0.428-1.118,0.64
				s-0.547,0.427-0.732,0.645s-0.317,0.444-0.396,0.679s-0.117,0.481-0.117,0.742c0,0.293,0.063,0.552,0.19,0.776
				s0.302,0.415,0.522,0.571s0.484,0.273,0.791,0.352s0.639,0.117,0.996,0.117c0.346,0,0.67-0.036,0.977-0.107
				s0.571-0.181,0.796-0.327s0.401-0.332,0.532-0.557S694.5-285.764,694.5-286.076z M694.324-292.805
				c0-0.579-0.203-1.011-0.61-1.294s-0.978-0.425-1.714-0.425c-0.729,0-1.297,0.14-1.704,0.42s-0.61,0.7-0.61,1.26
				c0,0.254,0.049,0.488,0.146,0.703s0.249,0.417,0.454,0.605s0.46,0.374,0.767,0.557s0.67,0.368,1.094,0.557
				c0.736-0.345,1.283-0.705,1.641-1.079S694.324-292.31,694.324-292.805z"/>
		</g>
	</g>
	<g id="edge14">
		<title>7-&gt;8</title>
		<path fill="none" stroke="#FF0000" stroke-width="2" d="M503.694-238.419c35.428-9.378,118.371-31.334,160.995-42.616"/>
		<polygon fill="#FF0000" stroke="#FF0000" points="674.361,-283.596 663.543,-285.387 669.4,-282.799 664.566,-281.52 
			664.694,-281.037 664.822,-280.553 669.656,-281.833 665.846,-276.686 674.361,-283.596 		"/>
		<g enable-background="new    ">
			<path fill="#0000FF" d="M559.191-280.9c1.026,0,1.746-0.163,2.16-0.489c0.412-0.327,0.619-0.743,0.619-1.25
				c0-0.373-0.09-0.693-0.27-0.96s-0.42-0.5-0.721-0.7c-0.299-0.2-0.646-0.38-1.039-0.54c-0.394-0.16-0.797-0.313-1.211-0.46
				c-0.399-0.146-0.797-0.311-1.189-0.49s-0.743-0.4-1.05-0.66c-0.308-0.26-0.558-0.573-0.75-0.939
				c-0.193-0.367-0.29-0.817-0.29-1.351c0-0.946,0.283-1.723,0.85-2.33c0.566-0.606,1.391-0.989,2.471-1.149v-2.3h1.66v2.239
				c0.586,0.027,1.133,0.101,1.64,0.221c0.507,0.119,0.906,0.233,1.2,0.34l-0.381,1.56c-0.319-0.12-0.719-0.243-1.199-0.37
				c-0.48-0.126-1.08-0.189-1.801-0.189c-0.799,0-1.416,0.153-1.85,0.46s-0.65,0.74-0.65,1.3c0,0.307,0.063,0.566,0.19,0.78
				c0.126,0.213,0.31,0.403,0.55,0.569c0.24,0.167,0.523,0.317,0.85,0.45c0.327,0.134,0.691,0.273,1.091,0.42
				c0.521,0.2,1.013,0.407,1.479,0.62c0.467,0.214,0.877,0.47,1.23,0.771c0.354,0.3,0.637,0.656,0.85,1.069
				c0.213,0.414,0.32,0.914,0.32,1.5c0,0.947-0.287,1.71-0.859,2.29c-0.574,0.58-1.461,0.943-2.66,1.09v2.58h-1.66v-2.52
				c-0.934-0.026-1.693-0.13-2.28-0.311c-0.587-0.18-1.026-0.35-1.319-0.51l0.5-1.5c0.399,0.188,0.879,0.36,1.439,0.521
				C557.672-280.98,558.364-280.9,559.191-280.9z"/>
			<path fill="#0000FF" d="M573.271-284.98c0,1.707,0.247,3.287,0.74,4.74s1.22,2.8,2.18,4.04l-1.319,0.9
				c-1.041-1.267-1.877-2.724-2.511-4.37s-0.95-3.417-0.95-5.311c0-1.893,0.316-3.663,0.95-5.31s1.47-3.104,2.511-4.37l1.319,0.9
				c-0.96,1.24-1.687,2.587-2.18,4.04S573.271-286.687,573.271-284.98z"/>
			<path fill="#0000FF" d="M586.511-282.6c0,0.56-0.097,1.076-0.29,1.55s-0.48,0.887-0.86,1.24c-0.38,0.353-0.856,0.626-1.43,0.819
				s-1.233,0.29-1.979,0.29c-0.867,0-1.591-0.123-2.17-0.37c-0.58-0.246-1.044-0.557-1.391-0.93c-0.348-0.373-0.594-0.783-0.74-1.23
				c-0.146-0.446-0.22-0.869-0.22-1.27c0-0.387,0.063-0.757,0.19-1.11c0.126-0.353,0.293-0.683,0.5-0.989
				c0.206-0.307,0.445-0.584,0.719-0.83c0.273-0.247,0.564-0.464,0.871-0.65c-1.307-0.746-1.961-1.847-1.961-3.3
				c0-0.507,0.101-0.99,0.301-1.45c0.199-0.46,0.482-0.863,0.85-1.21s0.811-0.623,1.33-0.83c0.52-0.206,1.1-0.31,1.74-0.31
				c0.746,0,1.387,0.113,1.92,0.34s0.97,0.517,1.311,0.87c0.34,0.354,0.586,0.743,0.739,1.17s0.229,0.84,0.229,1.24
				c0,0.387-0.057,0.75-0.17,1.09s-0.266,0.656-0.459,0.95c-0.193,0.293-0.414,0.553-0.66,0.779
				c-0.247,0.228-0.504,0.427-0.771,0.601C585.684-285.394,586.484-284.213,586.511-282.6z M579.311-282.48
				c0,0.24,0.043,0.49,0.13,0.75c0.087,0.261,0.237,0.5,0.45,0.721c0.213,0.22,0.486,0.403,0.82,0.55
				c0.332,0.146,0.753,0.22,1.26,0.22c0.453,0,0.85-0.066,1.189-0.2c0.34-0.133,0.617-0.303,0.83-0.51
				c0.213-0.206,0.373-0.443,0.48-0.71c0.106-0.267,0.16-0.54,0.16-0.82c0-0.426-0.08-0.8-0.24-1.119
				c-0.16-0.32-0.391-0.601-0.689-0.841c-0.301-0.239-0.66-0.442-1.08-0.609s-0.897-0.311-1.431-0.431
				c-0.601,0.334-1.063,0.747-1.39,1.24C579.474-283.746,579.311-283.16,579.311-282.48z M584.311-289.58
				c0-0.2-0.043-0.42-0.13-0.66s-0.224-0.463-0.41-0.67c-0.187-0.206-0.427-0.38-0.72-0.52c-0.293-0.141-0.654-0.21-1.08-0.21
				c-0.428,0-0.79,0.066-1.09,0.199c-0.301,0.134-0.544,0.304-0.73,0.511s-0.323,0.434-0.41,0.68c-0.086,0.247-0.13,0.49-0.13,0.73
				c0,0.293,0.054,0.586,0.16,0.88c0.106,0.293,0.272,0.566,0.5,0.819c0.227,0.254,0.522,0.48,0.89,0.681
				c0.367,0.199,0.804,0.359,1.311,0.479c0.561-0.333,1.006-0.723,1.34-1.17C584.144-288.276,584.311-288.86,584.311-289.58z"/>
			<path fill="#0000FF" d="M591.17-281.28c0.014,0.107,0.021,0.21,0.021,0.311c0,0.1,0,0.203,0,0.31c0,0.84-0.124,1.67-0.37,2.49
				c-0.247,0.82-0.584,1.604-1.01,2.35l-1.44-0.46c0.333-0.68,0.554-1.37,0.66-2.069c0.106-0.7,0.16-1.357,0.16-1.971
				c0-0.173-0.003-0.34-0.011-0.5c-0.006-0.16-0.016-0.313-0.029-0.46H591.17z"/>
			<path fill="#0000FF" d="M595.051-291.28c-0.334,0-0.617-0.109-0.851-0.33c-0.233-0.22-0.351-0.517-0.351-0.89
				s0.117-0.67,0.351-0.89c0.233-0.221,0.517-0.33,0.851-0.33c0.332,0,0.616,0.109,0.85,0.33c0.232,0.22,0.35,0.517,0.35,0.89
				s-0.117,0.67-0.35,0.89C595.667-291.39,595.383-291.28,595.051-291.28z M595.99-279h-1.859v-10.4h1.859V-279z"/>
			<path fill="#0000FF" d="M599.189-289.1c0.427-0.107,0.994-0.221,1.7-0.341c0.706-0.119,1.521-0.18,2.44-0.18
				c0.826,0,1.513,0.117,2.06,0.351s0.983,0.56,1.31,0.979c0.327,0.42,0.557,0.924,0.69,1.51c0.134,0.587,0.2,1.233,0.2,1.94v5.84
				h-1.859v-5.44c0-0.64-0.044-1.187-0.131-1.64c-0.086-0.453-0.23-0.82-0.43-1.1c-0.2-0.28-0.467-0.483-0.801-0.61
				c-0.332-0.127-0.746-0.19-1.239-0.19c-0.2,0-0.407,0.008-0.62,0.021c-0.213,0.014-0.417,0.03-0.609,0.05
				c-0.193,0.021-0.367,0.044-0.521,0.07s-0.264,0.047-0.33,0.06v8.78h-1.86V-289.1z"/>
			<path fill="#0000FF" d="M614.73-294.52c0.546,0,1.016,0.039,1.409,0.119s0.671,0.154,0.83,0.221l-0.34,1.6
				c-0.16-0.08-0.387-0.156-0.681-0.229c-0.293-0.073-0.652-0.11-1.08-0.11c-0.866,0-1.473,0.236-1.819,0.71s-0.521,1.11-0.521,1.91
				v0.899h4v1.561h-4v8.84h-1.859v-11.34c0-1.333,0.326-2.363,0.98-3.09C612.303-294.156,613.33-294.52,614.73-294.52z"/>
			<path fill="#0000FF" d="M620.629-284.98c0-1.706-0.246-3.286-0.74-4.739c-0.492-1.453-1.219-2.8-2.18-4.04l1.32-0.9
				c1.04,1.267,1.877,2.724,2.51,4.37s0.95,3.417,0.95,5.31c0,1.894-0.317,3.664-0.95,5.311s-1.47,3.104-2.51,4.37l-1.32-0.9
				c0.961-1.24,1.688-2.587,2.18-4.04C620.383-281.693,620.629-283.273,620.629-284.98z"/>
		</g>
	</g>
	<g id="node17">
		<title>4</title>
		<ellipse fill="none" stroke="#000000" stroke-width="2" cx="692" cy="-180" rx="18" ry="18"/>
		<g enable-background="new    ">
			<path d="M696.98-177.822h-2.178V-175h-1.738v-2.822h-6.143v-1.494l5.439-8.447h2.441v8.447h2.178V-177.822z M693.064-186.123
				l-4.443,6.807h4.443V-186.123z"/>
		</g>
	</g>
	<g id="edge16">
		<title>7-&gt;4</title>
		<path fill="none" stroke="#FF0000" stroke-width="2" d="M501.843-225.354c10.378,5.701,24.73,12.908,38.157,17.354
			c42.113,13.941,93.269,21.589,123.924,25.234"/>
		<polygon fill="#FF0000" stroke="#FF0000" points="673.864,-181.641 664.434,-187.236 668.952,-182.699 663.984,-183.262 
			663.928,-182.766 663.871,-182.27 668.84,-181.706 663.421,-178.294 673.864,-181.641 		"/>
		<g enable-background="new    ">
			<path fill="#0000FF" d="M577.911-203.819c-0.841,0-1.577-0.134-2.21-0.4c-0.634-0.267-1.167-0.64-1.6-1.12
				c-0.434-0.479-0.758-1.05-0.971-1.71s-0.32-1.39-0.32-2.189c0-0.801,0.117-1.533,0.351-2.2s0.563-1.243,0.989-1.73
				c0.428-0.486,0.951-0.866,1.57-1.14c0.62-0.273,1.311-0.41,2.07-0.41c0.467,0,0.934,0.04,1.4,0.12s0.912,0.207,1.34,0.38
				l-0.42,1.58c-0.28-0.133-0.604-0.24-0.971-0.32s-0.756-0.119-1.17-0.119c-1.039,0-1.836,0.326-2.39,0.979s-0.83,1.606-0.83,2.86
				c0,0.56,0.063,1.073,0.19,1.54c0.126,0.467,0.326,0.866,0.6,1.199c0.273,0.334,0.623,0.591,1.05,0.771s0.946,0.27,1.56,0.27
				c0.494,0,0.94-0.046,1.341-0.14c0.399-0.093,0.713-0.193,0.94-0.3l0.26,1.56c-0.107,0.067-0.26,0.13-0.461,0.19
				c-0.199,0.06-0.426,0.113-0.68,0.16c-0.254,0.046-0.523,0.086-0.81,0.12C578.454-203.837,578.178-203.819,577.911-203.819z"/>
			<path fill="#0000FF" d="M587.211-203.819c-0.84,0-1.577-0.134-2.21-0.4c-0.634-0.267-1.167-0.64-1.601-1.12
				c-0.434-0.479-0.756-1.05-0.97-1.71s-0.319-1.39-0.319-2.189c0-0.801,0.116-1.533,0.35-2.2c0.232-0.667,0.563-1.243,0.99-1.73
				c0.426-0.486,0.949-0.866,1.57-1.14c0.619-0.273,1.31-0.41,2.069-0.41c0.467,0,0.933,0.04,1.399,0.12s0.914,0.207,1.341,0.38
				l-0.421,1.58c-0.279-0.133-0.603-0.24-0.969-0.32c-0.367-0.08-0.758-0.119-1.17-0.119c-1.041,0-1.838,0.326-2.391,0.979
				c-0.554,0.653-0.83,1.606-0.83,2.86c0,0.56,0.063,1.073,0.189,1.54s0.327,0.866,0.601,1.199c0.272,0.334,0.623,0.591,1.05,0.771
				s0.947,0.27,1.561,0.27c0.492,0,0.939-0.046,1.34-0.14c0.4-0.093,0.713-0.193,0.939-0.3l0.26,1.56
				c-0.106,0.067-0.26,0.13-0.459,0.19c-0.2,0.06-0.428,0.113-0.681,0.16c-0.253,0.046-0.523,0.086-0.81,0.12
				C587.754-203.837,587.478-203.819,587.211-203.819z"/>
			<path fill="#0000FF" d="M596.051-219.579c0.547,0,1.017,0.039,1.41,0.119c0.393,0.08,0.67,0.154,0.83,0.221l-0.34,1.6
				c-0.16-0.08-0.387-0.156-0.681-0.229s-0.653-0.11-1.08-0.11c-0.866,0-1.474,0.236-1.819,0.71c-0.348,0.474-0.521,1.11-0.521,1.91
				v0.899h4v1.561h-4v8.84h-1.86v-11.34c0-1.333,0.327-2.363,0.98-3.09C593.623-219.216,594.65-219.579,596.051-219.579z"/>
			<path fill="#0000FF" d="M603.351-205.96c1.026,0,1.746-0.163,2.159-0.489c0.414-0.327,0.621-0.743,0.621-1.25
				c0-0.373-0.09-0.693-0.271-0.96s-0.42-0.5-0.72-0.7c-0.301-0.2-0.646-0.38-1.04-0.54s-0.797-0.313-1.21-0.46
				c-0.4-0.146-0.797-0.311-1.19-0.49s-0.743-0.4-1.05-0.66s-0.557-0.573-0.75-0.939c-0.193-0.367-0.29-0.817-0.29-1.351
				c0-0.946,0.283-1.723,0.851-2.33c0.566-0.606,1.39-0.989,2.469-1.149v-2.3h1.66v2.239c0.587,0.027,1.134,0.101,1.641,0.221
				c0.506,0.119,0.906,0.233,1.199,0.34l-0.379,1.56c-0.32-0.12-0.721-0.243-1.2-0.37c-0.48-0.126-1.08-0.189-1.8-0.189
				c-0.801,0-1.418,0.153-1.851,0.46s-0.649,0.74-0.649,1.3c0,0.307,0.063,0.566,0.189,0.78c0.127,0.213,0.311,0.403,0.551,0.569
				c0.239,0.167,0.522,0.317,0.85,0.45c0.326,0.134,0.689,0.273,1.09,0.42c0.52,0.2,1.014,0.407,1.48,0.62
				c0.466,0.214,0.876,0.47,1.229,0.771c0.353,0.3,0.637,0.656,0.851,1.069c0.213,0.414,0.319,0.914,0.319,1.5
				c0,0.947-0.287,1.71-0.86,2.29s-1.459,0.943-2.66,1.09v2.58h-1.66v-2.52c-0.933-0.026-1.693-0.13-2.279-0.311
				c-0.587-0.18-1.027-0.35-1.32-0.51l0.5-1.5c0.4,0.188,0.881,0.36,1.44,0.521C601.83-206.04,602.523-205.96,603.351-205.96z"/>
			<path fill="#0000FF" d="M617.43-210.04c0,1.707,0.247,3.287,0.74,4.74c0.494,1.453,1.221,2.8,2.18,4.04l-1.319,0.9
				c-1.04-1.267-1.877-2.724-2.511-4.37c-0.633-1.646-0.949-3.417-0.949-5.311c0-1.893,0.316-3.663,0.949-5.31
				c0.634-1.646,1.471-3.104,2.511-4.37l1.319,0.9c-0.959,1.24-1.686,2.587-2.18,4.04C617.677-213.326,617.43-211.746,617.43-210.04
				z"/>
			<path fill="#0000FF" d="M624.471-212.579c2.013,0.079,3.49,0.52,4.43,1.319s1.41,1.887,1.41,3.26c0,0.614-0.104,1.181-0.311,1.7
				c-0.207,0.521-0.52,0.967-0.939,1.34c-0.42,0.374-0.95,0.667-1.59,0.881c-0.641,0.213-1.4,0.319-2.28,0.319
				c-0.347,0-0.7-0.026-1.06-0.08c-0.361-0.053-0.693-0.12-1-0.2c-0.308-0.079-0.58-0.159-0.82-0.239s-0.414-0.146-0.521-0.2
				l0.36-1.62c0.227,0.106,0.596,0.247,1.109,0.42c0.514,0.174,1.144,0.26,1.891,0.26c0.6,0,1.104-0.066,1.51-0.199
				c0.406-0.134,0.736-0.313,0.99-0.54c0.253-0.227,0.437-0.49,0.55-0.79c0.113-0.301,0.17-0.617,0.17-0.95
				c0-0.507-0.087-0.957-0.26-1.351c-0.173-0.393-0.479-0.723-0.92-0.989s-1.026-0.471-1.761-0.61c-0.732-0.14-1.66-0.21-2.779-0.21
				c0.08-0.653,0.143-1.267,0.189-1.84s0.09-1.133,0.131-1.68c0.039-0.547,0.072-1.091,0.1-1.631c0.026-0.54,0.053-1.109,0.08-1.71
				h6.68v1.58h-5.061c-0.013,0.2-0.033,0.471-0.059,0.811c-0.027,0.34-0.055,0.693-0.08,1.06c-0.027,0.367-0.055,0.724-0.08,1.07
				C624.523-213.053,624.496-212.779,624.471-212.579z"/>
			<path fill="#0000FF" d="M635.33-206.34c0.014,0.107,0.02,0.21,0.02,0.311c0,0.1,0,0.203,0,0.31c0,0.84-0.123,1.67-0.369,2.49
				c-0.248,0.82-0.584,1.604-1.01,2.35l-1.441-0.46c0.334-0.68,0.554-1.37,0.66-2.069c0.107-0.7,0.16-1.357,0.16-1.971
				c0-0.173-0.003-0.34-0.01-0.5s-0.017-0.313-0.029-0.46H635.33z"/>
			<path fill="#0000FF" d="M639.209-216.34c-0.333,0-0.616-0.109-0.85-0.33c-0.233-0.22-0.35-0.517-0.35-0.89s0.116-0.67,0.35-0.89
				c0.233-0.221,0.517-0.33,0.85-0.33c0.334,0,0.617,0.109,0.851,0.33c0.233,0.22,0.351,0.517,0.351,0.89s-0.117,0.67-0.351,0.89
				C639.826-216.449,639.543-216.34,639.209-216.34z M640.149-204.06h-1.86v-10.4h1.86V-204.06z"/>
			<path fill="#0000FF" d="M643.35-214.159c0.426-0.107,0.993-0.221,1.699-0.341c0.707-0.119,1.521-0.18,2.441-0.18
				c0.826,0,1.512,0.117,2.059,0.351s0.984,0.56,1.311,0.979s0.557,0.924,0.689,1.51c0.134,0.587,0.201,1.233,0.201,1.94v5.84h-1.86
				v-5.44c0-0.64-0.044-1.187-0.13-1.64c-0.087-0.453-0.23-0.82-0.43-1.1c-0.201-0.28-0.467-0.483-0.801-0.61
				c-0.333-0.127-0.746-0.19-1.24-0.19c-0.199,0-0.406,0.008-0.619,0.021c-0.214,0.014-0.418,0.03-0.61,0.05
				c-0.193,0.021-0.366,0.044-0.521,0.07c-0.152,0.026-0.264,0.047-0.33,0.06v8.78h-1.859V-214.159z"/>
			<path fill="#0000FF" d="M658.89-219.579c0.546,0,1.017,0.039,1.409,0.119c0.394,0.08,0.671,0.154,0.83,0.221l-0.34,1.6
				c-0.16-0.08-0.387-0.156-0.68-0.229s-0.653-0.11-1.08-0.11c-0.867,0-1.473,0.236-1.82,0.71c-0.346,0.474-0.52,1.11-0.52,1.91
				v0.899h4v1.561h-4v8.84h-1.859v-11.34c0-1.333,0.326-2.363,0.979-3.09S657.489-219.579,658.89-219.579z"/>
			<path fill="#0000FF" d="M664.789-210.04c0-1.706-0.248-3.286-0.74-4.739c-0.494-1.453-1.221-2.8-2.18-4.04l1.319-0.9
				c1.04,1.267,1.876,2.724,2.511,4.37c0.633,1.646,0.949,3.417,0.949,5.31c0,1.894-0.316,3.664-0.949,5.311
				c-0.635,1.646-1.471,3.104-2.511,4.37l-1.319-0.9c0.959-1.24,1.686-2.587,2.18-4.04
				C664.541-206.753,664.789-208.333,664.789-210.04z"/>
		</g>
	</g>
	<g id="node21">
		<title>10</title>
		<ellipse fill="none" stroke="#000000" stroke-width="2" cx="486" cy="-126" rx="18" ry="18"/>
		<g enable-background="new    ">
			<path d="M484.74-121h-8.018v-1.582h3.281v-9.316l-3.057,1.66l-0.625-1.445l4.063-2.139h1.504v11.24h2.852V-121z"/>
			<path d="M496.137-127.377c0,0.977-0.098,1.867-0.293,2.671s-0.492,1.494-0.889,2.07s-0.891,1.022-1.479,1.338
				s-1.28,0.474-2.075,0.474c-0.684,0-1.305-0.129-1.865-0.386s-1.039-0.652-1.436-1.187s-0.703-1.214-0.918-2.041
				s-0.322-1.807-0.322-2.939c0-0.977,0.1-1.868,0.298-2.676s0.495-1.499,0.889-2.075s0.888-1.022,1.479-1.338
				s1.283-0.474,2.07-0.474c0.684,0,1.305,0.129,1.865,0.386s1.039,0.654,1.436,1.191s0.703,1.219,0.918,2.046
				S496.137-128.51,496.137-127.377z M488.578-127.436c0,0.202,0.002,0.403,0.005,0.605s0.015,0.397,0.034,0.586l5.4-3.994
				c-0.098-0.332-0.221-0.635-0.371-0.908s-0.328-0.51-0.537-0.708s-0.445-0.354-0.713-0.464s-0.566-0.166-0.898-0.166
				c-0.443,0-0.845,0.107-1.206,0.322s-0.669,0.535-0.923,0.962s-0.449,0.954-0.586,1.582S488.578-128.263,488.578-127.436z
				 M494.418-127.318c0-0.222-0.008-0.441-0.024-0.659s-0.034-0.432-0.054-0.64l-5.4,4.014c0.098,0.339,0.221,0.651,0.371,0.938
				s0.33,0.532,0.542,0.737s0.452,0.364,0.723,0.479s0.577,0.171,0.923,0.171c0.443,0,0.845-0.107,1.206-0.322
				s0.669-0.534,0.923-0.957s0.449-0.949,0.586-1.577S494.418-126.491,494.418-127.318z"/>
		</g>
	</g>
	<g id="edge20">
		<title>9-&gt;10</title>
		<path fill="none" stroke="#FF0000" stroke-width="2" d="M270.181-125.188c10.371,0.449,23.851,0.961,35.819,1.188
			c55.99,1.057,70.01,1.057,126,0c8.322-0.157,17.374-0.452,25.604-0.77"/>
		<polygon fill="#FF0000" stroke="#FF0000" points="467.819,-125.188 457.643,-129.273 462.803,-125.482 457.807,-125.277 
			457.827,-124.777 457.848,-124.277 462.844,-124.482 458.012,-120.282 467.819,-125.188 		"/>
		<g enable-background="new    ">
			<path fill="#0000FF" d="M339.191-131.9c1.026,0,1.746-0.163,2.16-0.489c0.413-0.327,0.62-0.743,0.62-1.25
				c0-0.373-0.09-0.693-0.27-0.96s-0.42-0.5-0.72-0.7c-0.3-0.2-0.646-0.38-1.04-0.54c-0.394-0.16-0.797-0.313-1.21-0.46
				c-0.4-0.146-0.797-0.311-1.19-0.49s-0.743-0.4-1.05-0.66c-0.307-0.26-0.557-0.573-0.75-0.939c-0.193-0.367-0.29-0.817-0.29-1.351
				c0-0.946,0.283-1.723,0.85-2.33c0.566-0.606,1.39-0.989,2.47-1.149v-2.3h1.66v2.239c0.586,0.027,1.133,0.101,1.64,0.221
				c0.506,0.119,0.906,0.233,1.2,0.34l-0.38,1.56c-0.32-0.12-0.72-0.243-1.2-0.37c-0.48-0.126-1.08-0.189-1.8-0.189
				c-0.8,0-1.417,0.153-1.85,0.46s-0.65,0.74-0.65,1.3c0,0.307,0.063,0.566,0.19,0.78c0.126,0.213,0.31,0.403,0.55,0.569
				c0.24,0.167,0.523,0.317,0.85,0.45c0.327,0.134,0.69,0.273,1.09,0.42c0.52,0.2,1.013,0.407,1.48,0.62
				c0.466,0.214,0.876,0.47,1.23,0.771c0.353,0.3,0.637,0.656,0.85,1.069c0.213,0.414,0.32,0.914,0.32,1.5
				c0,0.947-0.287,1.71-0.86,2.29c-0.574,0.58-1.46,0.943-2.66,1.09v2.58h-1.66v-2.52c-0.933-0.026-1.693-0.13-2.28-0.311
				c-0.587-0.18-1.027-0.35-1.32-0.51l0.5-1.5c0.4,0.188,0.88,0.36,1.44,0.521C337.671-131.98,338.364-131.9,339.191-131.9z"/>
			<path fill="#0000FF" d="M353.271-135.98c0,1.707,0.247,3.287,0.74,4.74c0.493,1.453,1.22,2.8,2.18,4.04l-1.32,0.9
				c-1.04-1.267-1.877-2.724-2.51-4.37s-0.95-3.417-0.95-5.311c0-1.893,0.316-3.663,0.95-5.31s1.47-3.104,2.51-4.37l1.32,0.9
				c-0.96,1.24-1.687,2.587-2.18,4.04C353.517-139.267,353.271-137.687,353.271-135.98z"/>
			<path fill="#0000FF" d="M366.511-133.6c0,0.56-0.097,1.076-0.29,1.55s-0.48,0.887-0.86,1.24c-0.38,0.353-0.856,0.626-1.43,0.819
				s-1.233,0.29-1.979,0.29c-0.867,0-1.591-0.123-2.17-0.37c-0.58-0.246-1.044-0.557-1.391-0.93c-0.348-0.373-0.594-0.783-0.74-1.23
				c-0.146-0.446-0.22-0.869-0.22-1.27c0-0.387,0.063-0.757,0.19-1.11c0.126-0.353,0.293-0.683,0.5-0.989
				c0.206-0.307,0.445-0.584,0.719-0.83c0.273-0.247,0.564-0.464,0.871-0.65c-1.307-0.746-1.961-1.847-1.961-3.3
				c0-0.507,0.101-0.99,0.301-1.45c0.199-0.46,0.482-0.863,0.85-1.21s0.811-0.623,1.33-0.83c0.52-0.206,1.1-0.31,1.74-0.31
				c0.746,0,1.387,0.113,1.92,0.34s0.97,0.517,1.311,0.87c0.34,0.354,0.586,0.743,0.739,1.17s0.229,0.84,0.229,1.24
				c0,0.387-0.057,0.75-0.17,1.09s-0.266,0.656-0.459,0.95c-0.193,0.293-0.414,0.553-0.66,0.779
				c-0.247,0.228-0.504,0.427-0.771,0.601C365.684-136.394,366.484-135.213,366.511-133.6z M359.311-133.48
				c0,0.24,0.043,0.49,0.13,0.75c0.087,0.261,0.237,0.5,0.45,0.721c0.213,0.22,0.486,0.403,0.82,0.55
				c0.332,0.146,0.753,0.22,1.26,0.22c0.453,0,0.85-0.066,1.189-0.2c0.34-0.133,0.617-0.303,0.83-0.51
				c0.213-0.206,0.373-0.443,0.48-0.71c0.106-0.267,0.16-0.54,0.16-0.82c0-0.426-0.08-0.8-0.24-1.119
				c-0.16-0.32-0.391-0.601-0.689-0.841c-0.301-0.239-0.66-0.442-1.08-0.609s-0.897-0.311-1.431-0.431
				c-0.601,0.334-1.063,0.747-1.39,1.24C359.474-134.746,359.311-134.16,359.311-133.48z M364.311-140.58
				c0-0.2-0.043-0.42-0.13-0.66s-0.224-0.463-0.41-0.67c-0.187-0.206-0.427-0.38-0.72-0.52c-0.293-0.141-0.654-0.21-1.08-0.21
				c-0.428,0-0.79,0.066-1.09,0.199c-0.301,0.134-0.544,0.304-0.73,0.511s-0.323,0.434-0.41,0.68c-0.086,0.247-0.13,0.49-0.13,0.73
				c0,0.293,0.054,0.586,0.16,0.88c0.106,0.293,0.272,0.566,0.5,0.819c0.227,0.254,0.522,0.48,0.89,0.681
				c0.367,0.199,0.804,0.359,1.311,0.479c0.561-0.333,1.006-0.723,1.34-1.17C364.144-139.276,364.311-139.86,364.311-140.58z"/>
			<path fill="#0000FF" d="M371.17-132.28c0.014,0.107,0.021,0.21,0.021,0.311c0,0.1,0,0.203,0,0.31c0,0.84-0.124,1.67-0.37,2.49
				c-0.247,0.82-0.584,1.604-1.01,2.35l-1.44-0.46c0.333-0.68,0.554-1.37,0.66-2.069c0.106-0.7,0.16-1.357,0.16-1.971
				c0-0.173-0.003-0.34-0.011-0.5c-0.006-0.16-0.016-0.313-0.029-0.46H371.17z"/>
			<path fill="#0000FF" d="M375.051-142.28c-0.334,0-0.617-0.109-0.851-0.33c-0.233-0.22-0.351-0.517-0.351-0.89
				s0.117-0.67,0.351-0.89c0.233-0.221,0.517-0.33,0.851-0.33c0.332,0,0.616,0.109,0.85,0.33c0.232,0.22,0.35,0.517,0.35,0.89
				s-0.117,0.67-0.35,0.89C375.667-142.39,375.383-142.28,375.051-142.28z M375.99-130h-1.859v-10.4h1.859V-130z"/>
			<path fill="#0000FF" d="M379.189-140.1c0.427-0.107,0.994-0.221,1.7-0.341c0.706-0.119,1.521-0.18,2.44-0.18
				c0.826,0,1.513,0.117,2.06,0.351s0.983,0.56,1.31,0.979c0.327,0.42,0.557,0.924,0.69,1.51c0.134,0.587,0.2,1.233,0.2,1.94v5.84
				h-1.859v-5.44c0-0.64-0.044-1.187-0.131-1.64c-0.086-0.453-0.23-0.82-0.43-1.1c-0.2-0.28-0.467-0.483-0.801-0.61
				c-0.332-0.127-0.746-0.19-1.239-0.19c-0.2,0-0.407,0.008-0.62,0.021c-0.213,0.014-0.417,0.03-0.609,0.05
				c-0.193,0.021-0.367,0.044-0.521,0.07s-0.264,0.047-0.33,0.06v8.78h-1.86V-140.1z"/>
			<path fill="#0000FF" d="M394.73-145.52c0.546,0,1.016,0.039,1.409,0.119s0.671,0.154,0.83,0.221l-0.34,1.6
				c-0.16-0.08-0.387-0.156-0.681-0.229c-0.293-0.073-0.652-0.11-1.08-0.11c-0.866,0-1.473,0.236-1.819,0.71s-0.521,1.11-0.521,1.91
				v0.899h4v1.561h-4v8.84h-1.859v-11.34c0-1.333,0.326-2.363,0.98-3.09C392.303-145.156,393.33-145.52,394.73-145.52z"/>
			<path fill="#0000FF" d="M400.629-135.98c0-1.706-0.246-3.286-0.74-4.739c-0.492-1.453-1.219-2.8-2.18-4.04l1.32-0.9
				c1.04,1.267,1.877,2.724,2.51,4.37s0.95,3.417,0.95,5.31c0,1.894-0.317,3.664-0.95,5.311s-1.47,3.104-2.51,4.37l-1.32-0.9
				c0.961-1.24,1.688-2.587,2.18-4.04C400.383-132.693,400.629-134.273,400.629-135.98z"/>
		</g>
	</g>
	<g id="node23">
		<title>5</title>
		<ellipse fill="none" stroke="#000000" stroke-width="2" cx="486" cy="-18" rx="18" ry="18"/>
		<g enable-background="new    ">
			<path d="M490.023-17.082c0,0.632-0.137,1.208-0.41,1.729s-0.649,0.969-1.128,1.343s-1.044,0.666-1.694,0.874
				s-1.354,0.313-2.109,0.313c-0.189,0-0.393-0.005-0.61-0.015s-0.435-0.022-0.649-0.039s-0.425-0.034-0.63-0.054
				s-0.39-0.042-0.552-0.068v-1.543c0.352,0.085,0.754,0.146,1.206,0.186s0.909,0.059,1.372,0.059c0.521,0,0.99-0.062,1.406-0.186
				s0.771-0.301,1.064-0.532s0.518-0.511,0.674-0.84s0.234-0.698,0.234-1.108c0-0.794-0.285-1.372-0.854-1.733
				s-1.388-0.542-2.456-0.542h-2.422v-6.523h6.875v1.484h-5.273v3.584h1.113c0.611,0,1.207,0.056,1.787,0.166
				s1.096,0.305,1.548,0.581s0.817,0.647,1.094,1.113S490.023-17.785,490.023-17.082z"/>
		</g>
	</g>
	<g id="edge22">
		<title>9-&gt;5</title>
		<path fill="none" stroke="#FF0000" stroke-width="2" d="M265.669-114.049C275.918-104.873,291.055-92.393,306-84
			c50.992,28.636,116.798,49.168,152.724,59.151"/>
		<polygon fill="#FF0000" stroke="#FF0000" points="468.446,-22.202 459.979,-29.17 463.753,-23.998 458.929,-25.311 
			458.797,-24.828 458.666,-24.346 463.491,-23.033 457.616,-20.486 468.446,-22.202 		"/>
		<g enable-background="new    ">
			<path fill="#0000FF" d="M369.959-64.76c-0.84,0-1.576-0.134-2.209-0.4c-0.635-0.267-1.168-0.64-1.601-1.12
				c-0.434-0.479-0.757-1.05-0.97-1.71c-0.214-0.66-0.32-1.39-0.32-2.189c0-0.801,0.117-1.533,0.35-2.2
				c0.233-0.667,0.563-1.243,0.99-1.73c0.427-0.486,0.95-0.866,1.57-1.14c0.619-0.273,1.311-0.41,2.07-0.41
				c0.467,0,0.933,0.04,1.399,0.12s0.913,0.207,1.341,0.38l-0.421,1.58c-0.28-0.133-0.603-0.24-0.97-0.32s-0.757-0.119-1.17-0.119
				c-1.04,0-1.837,0.326-2.391,0.979c-0.553,0.653-0.83,1.606-0.83,2.86c0,0.56,0.063,1.073,0.19,1.54
				c0.126,0.467,0.327,0.866,0.601,1.199c0.272,0.334,0.623,0.591,1.049,0.771c0.428,0.18,0.947,0.27,1.561,0.27
				c0.493,0,0.939-0.046,1.34-0.14c0.4-0.093,0.713-0.193,0.94-0.3l0.26,1.56c-0.106,0.067-0.26,0.13-0.46,0.19
				c-0.199,0.06-0.427,0.113-0.68,0.16c-0.254,0.046-0.523,0.086-0.811,0.12C370.502-64.777,370.227-64.76,369.959-64.76z"/>
			<path fill="#0000FF" d="M379.26-64.76c-0.841,0-1.578-0.134-2.211-0.4s-1.166-0.64-1.6-1.12c-0.434-0.479-0.757-1.05-0.971-1.71
				c-0.213-0.66-0.319-1.39-0.319-2.189c0-0.801,0.116-1.533,0.351-2.2c0.232-0.667,0.563-1.243,0.989-1.73
				c0.427-0.486,0.95-0.866,1.57-1.14s1.31-0.41,2.069-0.41c0.467,0,0.934,0.04,1.4,0.12s0.913,0.207,1.34,0.38l-0.42,1.58
				c-0.279-0.133-0.604-0.24-0.97-0.32c-0.367-0.08-0.757-0.119-1.17-0.119c-1.04,0-1.837,0.326-2.39,0.979
				c-0.555,0.653-0.83,1.606-0.83,2.86c0,0.56,0.063,1.073,0.189,1.54s0.326,0.866,0.6,1.199c0.273,0.334,0.623,0.591,1.051,0.771
				c0.426,0.18,0.946,0.27,1.56,0.27c0.493,0,0.94-0.046,1.341-0.14c0.399-0.093,0.713-0.193,0.939-0.3l0.26,1.56
				c-0.107,0.067-0.26,0.13-0.46,0.19c-0.2,0.06-0.427,0.113-0.681,0.16c-0.253,0.046-0.523,0.086-0.809,0.12
				C379.803-64.777,379.525-64.76,379.26-64.76z"/>
			<path fill="#0000FF" d="M388.1-80.52c0.546,0,1.016,0.039,1.409,0.119s0.671,0.154,0.83,0.221l-0.34,1.6
				c-0.16-0.08-0.387-0.156-0.681-0.229c-0.293-0.073-0.652-0.11-1.08-0.11c-0.866,0-1.473,0.236-1.819,0.71s-0.521,1.11-0.521,1.91
				v0.899h4v1.561h-4V-65h-1.859v-11.34c0-1.333,0.326-2.363,0.98-3.09C385.672-80.156,386.699-80.52,388.1-80.52z"/>
			<path fill="#0000FF" d="M398.199-70.98c0,1.707,0.246,3.287,0.74,4.74c0.492,1.453,1.219,2.8,2.18,4.04l-1.32,0.9
				c-1.04-1.267-1.877-2.724-2.51-4.37c-0.634-1.646-0.95-3.417-0.95-5.311c0-1.893,0.316-3.663,0.95-5.31
				c0.633-1.646,1.47-3.104,2.51-4.37l1.32,0.9c-0.961,1.24-1.688,2.587-2.18,4.04C398.445-74.267,398.199-72.687,398.199-70.98z"/>
			<path fill="#0000FF" d="M405.238-73.52c2.014,0.079,3.49,0.52,4.43,1.319c0.94,0.8,1.41,1.887,1.41,3.26
				c0,0.614-0.104,1.181-0.311,1.7c-0.206,0.521-0.52,0.967-0.939,1.34c-0.42,0.374-0.949,0.667-1.59,0.881
				c-0.641,0.213-1.4,0.319-2.279,0.319c-0.348,0-0.701-0.026-1.061-0.08c-0.36-0.053-0.693-0.12-1-0.2
				c-0.307-0.079-0.58-0.159-0.82-0.239s-0.413-0.146-0.52-0.2l0.359-1.62c0.227,0.106,0.597,0.247,1.11,0.42
				c0.513,0.174,1.144,0.26,1.89,0.26c0.6,0,1.104-0.066,1.51-0.199c0.407-0.134,0.737-0.313,0.99-0.54
				c0.254-0.227,0.438-0.49,0.551-0.79c0.113-0.301,0.17-0.617,0.17-0.95c0-0.507-0.088-0.957-0.26-1.351
				c-0.174-0.393-0.48-0.723-0.92-0.989c-0.441-0.267-1.027-0.471-1.761-0.61s-1.66-0.21-2.78-0.21
				c0.08-0.653,0.144-1.267,0.19-1.84c0.046-0.573,0.09-1.133,0.13-1.68s0.073-1.091,0.1-1.631c0.027-0.54,0.054-1.109,0.08-1.71
				h6.68v1.58h-5.06c-0.013,0.2-0.033,0.471-0.06,0.811c-0.027,0.34-0.054,0.693-0.08,1.06c-0.027,0.367-0.054,0.724-0.08,1.07
				C405.291-73.993,405.265-73.72,405.238-73.52z"/>
			<path fill="#0000FF" d="M416.099-67.28c0.013,0.107,0.021,0.21,0.021,0.311c0,0.1,0,0.203,0,0.31c0,0.84-0.124,1.67-0.371,2.49
				c-0.246,0.82-0.583,1.604-1.01,2.35l-1.439-0.46c0.333-0.68,0.553-1.37,0.66-2.069c0.105-0.7,0.16-1.357,0.16-1.971
				c0-0.173-0.004-0.34-0.011-0.5s-0.017-0.313-0.03-0.46H416.099z"/>
			<path fill="#0000FF" d="M419.979-77.28c-0.334,0-0.617-0.109-0.851-0.33c-0.233-0.22-0.351-0.517-0.351-0.89
				s0.117-0.67,0.351-0.89c0.233-0.221,0.517-0.33,0.851-0.33c0.332,0,0.616,0.109,0.85,0.33c0.232,0.22,0.35,0.517,0.35,0.89
				s-0.117,0.67-0.35,0.89C420.595-77.39,420.311-77.28,419.979-77.28z M420.918-65h-1.859v-10.4h1.859V-65z"/>
			<path fill="#0000FF" d="M424.118-75.1c0.427-0.107,0.993-0.221,1.7-0.341c0.706-0.119,1.52-0.18,2.439-0.18
				c0.826,0,1.514,0.117,2.061,0.351s0.982,0.56,1.31,0.979s0.557,0.924,0.69,1.51c0.133,0.587,0.199,1.233,0.199,1.94V-65h-1.859
				v-5.44c0-0.64-0.043-1.187-0.131-1.64c-0.086-0.453-0.229-0.82-0.43-1.1c-0.199-0.28-0.467-0.483-0.8-0.61
				s-0.747-0.19-1.239-0.19c-0.201,0-0.407,0.008-0.621,0.021c-0.213,0.014-0.416,0.03-0.609,0.05
				c-0.193,0.021-0.367,0.044-0.52,0.07c-0.154,0.026-0.264,0.047-0.33,0.06V-65h-1.86V-75.1z"/>
			<path fill="#0000FF" d="M439.658-80.52c0.546,0,1.016,0.039,1.409,0.119s0.671,0.154,0.83,0.221l-0.34,1.6
				c-0.16-0.08-0.387-0.156-0.681-0.229c-0.293-0.073-0.652-0.11-1.08-0.11c-0.866,0-1.473,0.236-1.819,0.71s-0.521,1.11-0.521,1.91
				v0.899h4v1.561h-4V-65h-1.859v-11.34c0-1.333,0.326-2.363,0.98-3.09C437.23-80.156,438.258-80.52,439.658-80.52z"/>
			<path fill="#0000FF" d="M445.557-70.98c0-1.706-0.246-3.286-0.74-4.739c-0.492-1.453-1.219-2.8-2.18-4.04l1.32-0.9
				c1.04,1.267,1.877,2.724,2.51,4.37s0.95,3.417,0.95,5.31c0,1.894-0.317,3.664-0.95,5.311s-1.47,3.104-2.51,4.37l-1.32-0.9
				c0.961-1.24,1.688-2.587,2.18-4.04C445.311-67.693,445.557-69.273,445.557-70.98z"/>
		</g>
	</g>
</g>
</svg>
