<?xml version="1.0" encoding="utf-8"?>
<!-- Generator: Adobe Illustrator 16.0.0, SVG Export Plug-In . SVG Version: 6.00 Build 0)  -->
<!DOCTYPE svg PUBLIC "-//W3C//DTD SVG 1.1//EN" "http://www.w3.org/Graphics/SVG/1.1/DTD/svg11.dtd">
<svg version="1.1" id="图层_1" xmlns="http://www.w3.org/2000/svg" xmlns:xlink="http://www.w3.org/1999/xlink" x="0px" y="0px"
	 width="516px" height="316px" viewBox="0 0 516 316" enable-background="new 0 0 516 316" xml:space="preserve">
<g id="graph1" transform="scale(1 1) rotate(0) translate(4 312)">
	<title>G</title>
	<polygon fill="#FFFFFF" stroke="#FFFFFF" points="-4,5 -4,-312 513,-312 513,5 	"/>
	<g id="node1">
		<title>0</title>
		<ellipse fill="none" stroke="#000000" stroke-width="2" cx="18" cy="-180" rx="18" ry="18"/>
	</g>
	<g id="node3">
		<title>7</title>
		<ellipse fill="none" stroke="#000000" stroke-width="2" cx="206" cy="-290" rx="18" ry="18"/>
	</g>
	<g id="edge2">
		<title>0-&gt;7</title>
		<path fill="none" stroke="#000000" stroke-width="2" d="M29.36-194.336C39.139-207.003,54.831-225.242,72-237
			c33.46-22.915,78.293-38.149,106.411-46.185"/>
		<polygon stroke="#000000" points="188.311,-285.914 177.475,-287.595 183.358,-285.067 178.537,-283.738 178.67,-283.256 
			178.803,-282.774 183.623,-284.103 179.866,-278.918 188.311,-285.914 		"/>
		<g enable-background="new    ">
			<path fill="#0000FF" d="M112.147-269.9c1.026,0,1.746-0.163,2.16-0.489c0.413-0.327,0.62-0.743,0.62-1.25
				c0-0.373-0.09-0.693-0.27-0.96s-0.42-0.5-0.72-0.7c-0.3-0.2-0.646-0.38-1.04-0.54c-0.394-0.16-0.797-0.313-1.21-0.46
				c-0.4-0.146-0.797-0.311-1.19-0.49s-0.743-0.4-1.05-0.66c-0.307-0.26-0.557-0.573-0.75-0.939c-0.193-0.367-0.29-0.817-0.29-1.351
				c0-0.946,0.283-1.723,0.85-2.33c0.566-0.606,1.39-0.989,2.47-1.149v-2.3h1.66v2.239c0.586,0.027,1.133,0.101,1.64,0.221
				c0.506,0.119,0.906,0.233,1.2,0.34l-0.38,1.56c-0.32-0.12-0.72-0.243-1.2-0.37c-0.48-0.126-1.08-0.189-1.8-0.189
				c-0.8,0-1.417,0.153-1.85,0.46s-0.65,0.74-0.65,1.3c0,0.307,0.063,0.566,0.19,0.78c0.126,0.213,0.31,0.403,0.55,0.569
				c0.24,0.167,0.523,0.317,0.85,0.45c0.327,0.134,0.69,0.273,1.09,0.42c0.52,0.2,1.013,0.407,1.48,0.62
				c0.466,0.214,0.876,0.47,1.23,0.771c0.353,0.3,0.637,0.656,0.85,1.069c0.213,0.414,0.32,0.914,0.32,1.5
				c0,0.947-0.287,1.71-0.86,2.29c-0.574,0.58-1.46,0.943-2.66,1.09v2.58h-1.66v-2.52c-0.933-0.026-1.693-0.13-2.28-0.311
				c-0.587-0.18-1.027-0.35-1.32-0.51l0.5-1.5c0.4,0.188,0.88,0.36,1.44,0.521C110.627-269.98,111.32-269.9,112.147-269.9z"/>
		</g>
	</g>
	<g id="node5">
		<title>1</title>
		<ellipse fill="none" stroke="#000000" stroke-width="2" cx="206" cy="-218" rx="18" ry="18"/>
	</g>
	<g id="edge4">
		<title>0-&gt;1</title>
		<path fill="none" stroke="#000000" stroke-width="2" d="M35.834-183.439c32.287-6.597,103.162-21.076,142.145-29.041"/>
		<polygon stroke="#000000" points="188.07,-214.541 177.371,-216.948 183.071,-214.03 178.172,-213.029 178.272,-212.539 
			178.372,-212.05 183.271,-213.05 179.173,-208.13 188.07,-214.541 		"/>
		<g enable-background="new    ">
			<path fill="#0000FF" d="M111.867-216.66c0.747,0,1.376,0.097,1.89,0.29c0.513,0.193,0.926,0.467,1.24,0.82s0.537,0.773,0.67,1.26
				c0.133,0.487,0.2,1.023,0.2,1.61v6.5c-0.16,0.026-0.383,0.063-0.67,0.109c-0.287,0.047-0.61,0.09-0.97,0.13
				c-0.36,0.04-0.75,0.077-1.17,0.11s-0.837,0.05-1.25,0.05c-0.587,0-1.127-0.06-1.62-0.18s-0.92-0.31-1.28-0.57
				c-0.36-0.26-0.64-0.603-0.84-1.029c-0.2-0.427-0.3-0.94-0.3-1.54c0-0.573,0.117-1.067,0.35-1.48s0.55-0.746,0.95-1
				c0.4-0.253,0.866-0.439,1.4-0.56c0.533-0.12,1.093-0.181,1.68-0.181c0.187,0,0.38,0.011,0.58,0.03
				c0.2,0.021,0.39,0.047,0.57,0.08c0.18,0.033,0.336,0.063,0.47,0.09c0.133,0.027,0.227,0.047,0.28,0.061v-0.521
				c0-0.307-0.034-0.61-0.1-0.91c-0.067-0.3-0.187-0.566-0.36-0.8c-0.174-0.233-0.41-0.42-0.71-0.56c-0.3-0.141-0.69-0.21-1.17-0.21
				c-0.613,0-1.15,0.043-1.61,0.13s-0.803,0.177-1.03,0.27l-0.22-1.54c0.24-0.106,0.64-0.21,1.2-0.31
				C110.607-216.61,111.213-216.66,111.867-216.66z M112.027-207.34c0.44,0,0.83-0.01,1.17-0.03c0.34-0.02,0.623-0.057,0.85-0.11
				v-3.1c-0.134-0.066-0.35-0.123-0.65-0.17c-0.3-0.047-0.664-0.07-1.09-0.07c-0.28,0-0.577,0.021-0.89,0.061
				c-0.313,0.04-0.6,0.123-0.86,0.25c-0.26,0.127-0.477,0.3-0.65,0.52c-0.173,0.221-0.26,0.51-0.26,0.87
				c0,0.667,0.213,1.13,0.64,1.39C110.713-207.47,111.293-207.34,112.027-207.34z"/>
		</g>
	</g>
	<g id="node15">
		<title>6</title>
		<ellipse fill="none" stroke="#000000" stroke-width="2" cx="206" cy="-146" rx="18" ry="18"/>
	</g>
	<g id="edge14">
		<title>0-&gt;6</title>
		<path fill="none" stroke="#000000" stroke-width="2" d="M32.375-168.746C42.527-160.971,57.217-151.286,72-147
			c35.633,10.332,78.928,8.088,106.231,4.984"/>
		<polygon stroke="#000000" points="188.203,-143.27 177.72,-146.486 183.18,-143.141 178.219,-142.518 178.281,-142.021 
			178.344,-141.525 183.305,-142.148 178.843,-137.557 188.203,-143.27 		"/>
		<g enable-background="new    ">
			<path fill="#0000FF" d="M76.791-162.94c0.227-0.146,0.57-0.3,1.03-0.46c0.46-0.159,0.99-0.239,1.59-0.239
				c0.747,0,1.41,0.133,1.99,0.399c0.58,0.268,1.07,0.641,1.47,1.12c0.4,0.48,0.703,1.054,0.91,1.72c0.207,0.667,0.31,1.4,0.31,2.2
				c0,0.84-0.123,1.597-0.37,2.271c-0.247,0.673-0.597,1.243-1.05,1.71s-1,0.826-1.64,1.08c-0.64,0.253-1.36,0.38-2.16,0.38
				c-0.867,0-1.633-0.061-2.3-0.181c-0.667-0.119-1.214-0.239-1.64-0.359v-14.9l1.86-0.319V-162.94z M76.791-154.62
				c0.187,0.054,0.45,0.104,0.79,0.15s0.763,0.069,1.27,0.069c1,0,1.8-0.33,2.4-0.989c0.6-0.66,0.9-1.597,0.9-2.811
				c0-0.533-0.053-1.033-0.16-1.5c-0.107-0.467-0.28-0.87-0.52-1.21c-0.24-0.34-0.55-0.606-0.93-0.8S79.704-162,79.17-162
				c-0.507,0-0.973,0.087-1.4,0.26c-0.427,0.174-0.753,0.354-0.98,0.54V-154.62z"/>
			<path fill="#0000FF" d="M90.07-163.66c0.747,0,1.376,0.097,1.89,0.29c0.513,0.193,0.926,0.467,1.24,0.82s0.537,0.773,0.67,1.26
				c0.133,0.487,0.2,1.023,0.2,1.61v6.5c-0.16,0.026-0.383,0.063-0.67,0.109c-0.287,0.047-0.61,0.09-0.97,0.13
				c-0.36,0.04-0.75,0.077-1.17,0.11s-0.837,0.05-1.25,0.05c-0.587,0-1.127-0.06-1.62-0.18s-0.92-0.31-1.28-0.57
				c-0.36-0.26-0.64-0.603-0.84-1.029c-0.2-0.427-0.3-0.94-0.3-1.54c0-0.573,0.117-1.067,0.35-1.48s0.55-0.746,0.95-1
				c0.4-0.253,0.866-0.439,1.4-0.56c0.533-0.12,1.093-0.181,1.68-0.181c0.187,0,0.38,0.011,0.58,0.03
				c0.2,0.021,0.39,0.047,0.57,0.08c0.18,0.033,0.336,0.063,0.47,0.09c0.133,0.027,0.227,0.047,0.28,0.061v-0.521
				c0-0.307-0.034-0.61-0.1-0.91c-0.067-0.3-0.187-0.566-0.36-0.8c-0.174-0.233-0.41-0.42-0.71-0.56c-0.3-0.141-0.69-0.21-1.17-0.21
				c-0.613,0-1.15,0.043-1.61,0.13s-0.803,0.177-1.03,0.27l-0.22-1.54c0.24-0.106,0.64-0.21,1.2-0.31
				C88.811-163.61,89.417-163.66,90.07-163.66z M90.23-154.34c0.44,0,0.83-0.01,1.17-0.03c0.34-0.02,0.623-0.057,0.85-0.11v-3.1
				c-0.134-0.066-0.35-0.123-0.65-0.17c-0.3-0.047-0.664-0.07-1.09-0.07c-0.28,0-0.577,0.021-0.89,0.061
				c-0.313,0.04-0.6,0.123-0.86,0.25c-0.26,0.127-0.477,0.3-0.65,0.52c-0.173,0.221-0.26,0.51-0.26,0.87
				c0,0.667,0.213,1.13,0.64,1.39C88.917-154.47,89.497-154.34,90.23-154.34z"/>
			<path fill="#0000FF" d="M97.15-163.1c0.426-0.107,0.993-0.221,1.7-0.341c0.707-0.119,1.52-0.18,2.44-0.18
				c0.826,0,1.513,0.117,2.06,0.351s0.983,0.56,1.31,0.979s0.557,0.924,0.69,1.51c0.133,0.587,0.2,1.233,0.2,1.94v5.84h-1.86v-5.44
				c0-0.64-0.043-1.187-0.13-1.64c-0.086-0.453-0.23-0.82-0.43-1.1c-0.2-0.28-0.467-0.483-0.8-0.61
				c-0.333-0.127-0.747-0.19-1.24-0.19c-0.2,0-0.407,0.008-0.62,0.021c-0.213,0.014-0.417,0.03-0.61,0.05
				c-0.193,0.021-0.367,0.044-0.52,0.07s-0.264,0.047-0.33,0.06v8.78h-1.86V-163.1z"/>
			<path fill="#0000FF" d="M111.99-163.66c0.747,0,1.376,0.097,1.89,0.29c0.513,0.193,0.926,0.467,1.24,0.82s0.537,0.773,0.67,1.26
				c0.133,0.487,0.2,1.023,0.2,1.61v6.5c-0.16,0.026-0.383,0.063-0.67,0.109c-0.287,0.047-0.61,0.09-0.97,0.13
				c-0.36,0.04-0.75,0.077-1.17,0.11s-0.837,0.05-1.25,0.05c-0.587,0-1.127-0.06-1.62-0.18s-0.92-0.31-1.28-0.57
				c-0.36-0.26-0.64-0.603-0.84-1.029c-0.2-0.427-0.3-0.94-0.3-1.54c0-0.573,0.117-1.067,0.35-1.48s0.55-0.746,0.95-1
				c0.4-0.253,0.866-0.439,1.4-0.56c0.533-0.12,1.093-0.181,1.68-0.181c0.187,0,0.38,0.011,0.58,0.03
				c0.2,0.021,0.39,0.047,0.57,0.08c0.18,0.033,0.336,0.063,0.47,0.09c0.133,0.027,0.227,0.047,0.28,0.061v-0.521
				c0-0.307-0.034-0.61-0.1-0.91c-0.067-0.3-0.187-0.566-0.36-0.8c-0.174-0.233-0.41-0.42-0.71-0.56c-0.3-0.141-0.69-0.21-1.17-0.21
				c-0.613,0-1.15,0.043-1.61,0.13s-0.803,0.177-1.03,0.27l-0.22-1.54c0.24-0.106,0.64-0.21,1.2-0.31
				C110.73-163.61,111.336-163.66,111.99-163.66z M112.15-154.34c0.44,0,0.83-0.01,1.17-0.03c0.34-0.02,0.623-0.057,0.85-0.11v-3.1
				c-0.134-0.066-0.35-0.123-0.65-0.17c-0.3-0.047-0.664-0.07-1.09-0.07c-0.28,0-0.577,0.021-0.89,0.061
				c-0.313,0.04-0.6,0.123-0.86,0.25c-0.26,0.127-0.477,0.3-0.65,0.52c-0.173,0.221-0.26,0.51-0.26,0.87
				c0,0.667,0.213,1.13,0.64,1.39C110.836-154.47,111.417-154.34,112.15-154.34z"/>
			<path fill="#0000FF" d="M119.07-163.1c0.426-0.107,0.993-0.221,1.7-0.341c0.707-0.119,1.52-0.18,2.44-0.18
				c0.826,0,1.513,0.117,2.06,0.351s0.983,0.56,1.31,0.979s0.557,0.924,0.69,1.51c0.133,0.587,0.2,1.233,0.2,1.94v5.84h-1.86v-5.44
				c0-0.64-0.043-1.187-0.13-1.64c-0.086-0.453-0.23-0.82-0.43-1.1c-0.2-0.28-0.467-0.483-0.8-0.61
				c-0.333-0.127-0.747-0.19-1.24-0.19c-0.2,0-0.407,0.008-0.62,0.021c-0.213,0.014-0.417,0.03-0.61,0.05
				c-0.193,0.021-0.367,0.044-0.52,0.07s-0.264,0.047-0.33,0.06v8.78h-1.86V-163.1z"/>
			<path fill="#0000FF" d="M133.91-163.66c0.747,0,1.376,0.097,1.89,0.29c0.513,0.193,0.926,0.467,1.24,0.82s0.537,0.773,0.67,1.26
				c0.133,0.487,0.2,1.023,0.2,1.61v6.5c-0.16,0.026-0.383,0.063-0.67,0.109c-0.287,0.047-0.61,0.09-0.97,0.13
				c-0.36,0.04-0.75,0.077-1.17,0.11s-0.837,0.05-1.25,0.05c-0.587,0-1.127-0.06-1.62-0.18s-0.92-0.31-1.28-0.57
				c-0.36-0.26-0.64-0.603-0.84-1.029c-0.2-0.427-0.3-0.94-0.3-1.54c0-0.573,0.117-1.067,0.35-1.48s0.55-0.746,0.95-1
				c0.4-0.253,0.866-0.439,1.4-0.56c0.533-0.12,1.093-0.181,1.68-0.181c0.187,0,0.38,0.011,0.58,0.03
				c0.2,0.021,0.39,0.047,0.57,0.08c0.18,0.033,0.336,0.063,0.47,0.09c0.133,0.027,0.227,0.047,0.28,0.061v-0.521
				c0-0.307-0.034-0.61-0.1-0.91c-0.067-0.3-0.187-0.566-0.36-0.8c-0.174-0.233-0.41-0.42-0.71-0.56c-0.3-0.141-0.69-0.21-1.17-0.21
				c-0.613,0-1.15,0.043-1.61,0.13s-0.803,0.177-1.03,0.27l-0.22-1.54c0.24-0.106,0.64-0.21,1.2-0.31
				C132.65-163.61,133.256-163.66,133.91-163.66z M134.07-154.34c0.44,0,0.83-0.01,1.17-0.03c0.34-0.02,0.623-0.057,0.85-0.11v-3.1
				c-0.134-0.066-0.35-0.123-0.65-0.17c-0.3-0.047-0.664-0.07-1.09-0.07c-0.28,0-0.577,0.021-0.89,0.061
				c-0.313,0.04-0.6,0.123-0.86,0.25c-0.26,0.127-0.477,0.3-0.65,0.52c-0.173,0.221-0.26,0.51-0.26,0.87
				c0,0.667,0.213,1.13,0.64,1.39C132.756-154.47,133.336-154.34,134.07-154.34z"/>
			<path fill="#0000FF" d="M144.629-154.9c1.026,0,1.746-0.163,2.16-0.489c0.413-0.327,0.62-0.743,0.62-1.25
				c0-0.373-0.09-0.693-0.27-0.96s-0.42-0.5-0.72-0.7c-0.3-0.2-0.646-0.38-1.04-0.54c-0.394-0.16-0.797-0.313-1.21-0.46
				c-0.4-0.146-0.797-0.311-1.19-0.49s-0.743-0.4-1.05-0.66c-0.307-0.26-0.557-0.573-0.75-0.939c-0.193-0.367-0.29-0.817-0.29-1.351
				c0-0.946,0.283-1.723,0.85-2.33c0.566-0.606,1.39-0.989,2.47-1.149v-2.3h1.66v2.239c0.586,0.027,1.133,0.101,1.64,0.221
				c0.506,0.119,0.906,0.233,1.2,0.34l-0.38,1.56c-0.32-0.12-0.72-0.243-1.2-0.37c-0.48-0.126-1.08-0.189-1.8-0.189
				c-0.8,0-1.417,0.153-1.85,0.46s-0.65,0.74-0.65,1.3c0,0.307,0.063,0.566,0.19,0.78c0.126,0.213,0.31,0.403,0.55,0.569
				c0.24,0.167,0.523,0.317,0.85,0.45c0.327,0.134,0.69,0.273,1.09,0.42c0.52,0.2,1.013,0.407,1.48,0.62
				c0.466,0.214,0.876,0.47,1.23,0.771c0.353,0.3,0.637,0.656,0.85,1.069c0.213,0.414,0.32,0.914,0.32,1.5
				c0,0.947-0.287,1.71-0.86,2.29c-0.574,0.58-1.46,0.943-2.66,1.09v2.58h-1.66v-2.52c-0.933-0.026-1.693-0.13-2.28-0.311
				c-0.587-0.18-1.027-0.35-1.32-0.51l0.5-1.5c0.4,0.188,0.88,0.36,1.44,0.521C143.109-154.98,143.802-154.9,144.629-154.9z"/>
		</g>
	</g>
	<g id="node17">
		<title>8</title>
		<ellipse fill="none" stroke="#000000" stroke-width="2" cx="206" cy="-74" rx="18" ry="18"/>
	</g>
	<g id="edge16">
		<title>0-&gt;8</title>
		<path fill="none" stroke="#000000" stroke-width="2" d="M26.597-163.998C35.272-147.466,51.023-122.145,72-108
			c32.24,21.739,77.408,29.578,105.93,32.406"/>
		<polygon stroke="#000000" points="187.984,-74.738 178.403,-80.07 183.045,-75.66 178.063,-76.085 178.021,-75.586 
			177.978,-75.088 182.96,-74.664 177.638,-71.104 187.984,-74.738 		"/>
		<g enable-background="new    ">
			<path fill="#0000FF" d="M102.64-107.433c0.426-0.107,0.993-0.221,1.7-0.341c0.707-0.119,1.52-0.18,2.44-0.18
				c0.826,0,1.513,0.117,2.06,0.351s0.983,0.56,1.31,0.979s0.557,0.924,0.69,1.51c0.133,0.587,0.2,1.233,0.2,1.94v5.84h-1.86v-5.44
				c0-0.64-0.043-1.187-0.13-1.64c-0.086-0.453-0.23-0.82-0.43-1.1c-0.2-0.28-0.467-0.483-0.8-0.61
				c-0.333-0.127-0.747-0.19-1.24-0.19c-0.2,0-0.407,0.008-0.62,0.021c-0.213,0.014-0.417,0.03-0.61,0.05
				c-0.193,0.021-0.367,0.044-0.52,0.07s-0.264,0.047-0.33,0.06v8.78h-1.86V-107.433z"/>
			<path fill="#0000FF" d="M117.48-107.993c0.747,0,1.376,0.097,1.89,0.29c0.513,0.193,0.926,0.467,1.24,0.82s0.537,0.773,0.67,1.26
				c0.133,0.487,0.2,1.023,0.2,1.61v6.5c-0.16,0.026-0.383,0.063-0.67,0.109c-0.287,0.047-0.61,0.09-0.97,0.13
				c-0.36,0.04-0.75,0.077-1.17,0.11s-0.837,0.05-1.25,0.05c-0.587,0-1.127-0.06-1.62-0.18s-0.92-0.31-1.28-0.57
				c-0.36-0.26-0.64-0.603-0.84-1.029c-0.2-0.427-0.3-0.94-0.3-1.54c0-0.573,0.117-1.067,0.35-1.48s0.55-0.746,0.95-1
				c0.4-0.253,0.866-0.439,1.4-0.56c0.533-0.12,1.093-0.181,1.68-0.181c0.187,0,0.38,0.011,0.58,0.03
				c0.2,0.021,0.39,0.047,0.57,0.08c0.18,0.033,0.336,0.063,0.47,0.09c0.133,0.027,0.227,0.047,0.28,0.061v-0.521
				c0-0.307-0.034-0.61-0.1-0.91c-0.067-0.3-0.187-0.566-0.36-0.8c-0.174-0.233-0.41-0.42-0.71-0.56c-0.3-0.141-0.69-0.21-1.17-0.21
				c-0.613,0-1.15,0.043-1.61,0.13s-0.803,0.177-1.03,0.27l-0.22-1.54c0.24-0.106,0.64-0.21,1.2-0.31
				C116.22-107.943,116.827-107.993,117.48-107.993z M117.64-98.673c0.44,0,0.83-0.01,1.17-0.03c0.34-0.02,0.623-0.057,0.85-0.11
				v-3.1c-0.134-0.066-0.35-0.123-0.65-0.17c-0.3-0.047-0.664-0.07-1.09-0.07c-0.28,0-0.577,0.021-0.89,0.061
				c-0.313,0.04-0.6,0.123-0.86,0.25c-0.26,0.127-0.477,0.3-0.65,0.52c-0.173,0.221-0.26,0.51-0.26,0.87
				c0,0.667,0.213,1.13,0.64,1.39C116.327-98.803,116.907-98.673,117.64-98.673z"/>
		</g>
	</g>
	<g id="node7">
		<title>2</title>
		<ellipse fill="none" stroke="#000000" stroke-width="2" cx="348" cy="-250" rx="18" ry="18"/>
	</g>
	<g id="edge6">
		<title>1-&gt;2</title>
		<path fill="none" stroke="#000000" stroke-width="2" d="M223.61-221.796c23.763-5.432,67.738-15.483,96.263-22.004"/>
		<polygon stroke="#000000" points="329.975,-246.109 319.224,-248.267 324.99,-245.482 320.115,-244.368 320.227,-243.88 
			320.338,-243.393 325.213,-244.507 321.23,-239.493 329.975,-246.109 		"/>
		<g enable-background="new    ">
			<path fill="#0000FF" d="M276.6-244.9c1.027,0,1.746-0.163,2.16-0.489c0.413-0.327,0.62-0.743,0.62-1.25
				c0-0.373-0.09-0.693-0.271-0.96c-0.18-0.267-0.42-0.5-0.72-0.7s-0.646-0.38-1.04-0.54c-0.393-0.16-0.797-0.313-1.21-0.46
				c-0.399-0.146-0.797-0.311-1.19-0.49c-0.393-0.18-0.742-0.4-1.049-0.66c-0.308-0.26-0.558-0.573-0.75-0.939
				c-0.193-0.367-0.291-0.817-0.291-1.351c0-0.946,0.283-1.723,0.851-2.33c0.566-0.606,1.39-0.989,2.47-1.149v-2.3h1.66v2.239
				c0.586,0.027,1.133,0.101,1.641,0.221c0.506,0.119,0.906,0.233,1.199,0.34l-0.38,1.56c-0.319-0.12-0.72-0.243-1.2-0.37
				c-0.48-0.126-1.08-0.189-1.8-0.189c-0.8,0-1.417,0.153-1.851,0.46c-0.433,0.307-0.649,0.74-0.649,1.3
				c0,0.307,0.063,0.566,0.19,0.78c0.126,0.213,0.31,0.403,0.55,0.569c0.239,0.167,0.522,0.317,0.85,0.45
				c0.327,0.134,0.69,0.273,1.091,0.42c0.52,0.2,1.013,0.407,1.479,0.62c0.466,0.214,0.876,0.47,1.229,0.771
				c0.354,0.3,0.637,0.656,0.851,1.069c0.213,0.414,0.319,0.914,0.319,1.5c0,0.947-0.287,1.71-0.859,2.29
				c-0.574,0.58-1.46,0.943-2.66,1.09v2.58h-1.66v-2.52c-0.934-0.026-1.693-0.13-2.279-0.311c-0.588-0.18-1.027-0.35-1.32-0.51
				l0.5-1.5c0.4,0.188,0.88,0.36,1.439,0.521C275.08-244.98,275.773-244.9,276.6-244.9z"/>
		</g>
	</g>
	<g id="node9">
		<title>3</title>
		<ellipse fill="none" stroke="#000000" stroke-width="2" cx="348" cy="-178" rx="18" ry="18"/>
	</g>
	<g id="edge8">
		<title>1-&gt;3</title>
		<path fill="none" stroke="#000000" stroke-width="2" d="M223.088-211.724c10.43,3.942,24.363,8.972,36.912,12.724
			c19.973,5.971,42.903,11.451,60.208,15.315"/>
		<polygon stroke="#000000" points="330.179,-181.498 321.375,-188.036 325.402,-183.058 320.518,-184.129 320.411,-183.641 
			320.304,-183.152 325.188,-182.081 319.447,-179.245 330.179,-181.498 		"/>
		<g enable-background="new    ">
			<path fill="#0000FF" d="M273.592-210.1c0.426-0.107,0.992-0.221,1.699-0.341c0.707-0.119,1.52-0.18,2.44-0.18
				c0.826,0,1.513,0.117,2.06,0.351s0.983,0.56,1.311,0.979c0.326,0.42,0.557,0.924,0.689,1.51c0.133,0.587,0.2,1.233,0.2,1.94v5.84
				h-1.86v-5.44c0-0.64-0.043-1.187-0.13-1.64s-0.229-0.82-0.43-1.1c-0.2-0.28-0.467-0.483-0.8-0.61
				c-0.334-0.127-0.747-0.19-1.24-0.19c-0.2,0-0.406,0.008-0.62,0.021c-0.214,0.014-0.417,0.03-0.61,0.05
				c-0.193,0.021-0.366,0.044-0.52,0.07s-0.264,0.047-0.33,0.06v8.78h-1.859V-210.1z"/>
			<path fill="#0000FF" d="M288.432-210.66c0.746,0,1.376,0.097,1.89,0.29c0.513,0.193,0.927,0.467,1.239,0.82
				c0.314,0.354,0.537,0.773,0.67,1.26c0.134,0.487,0.201,1.023,0.201,1.61v6.5c-0.16,0.026-0.384,0.063-0.67,0.109
				c-0.287,0.047-0.61,0.09-0.971,0.13c-0.359,0.04-0.75,0.077-1.17,0.11s-0.837,0.05-1.25,0.05c-0.587,0-1.127-0.06-1.62-0.18
				s-0.92-0.31-1.28-0.57c-0.359-0.26-0.64-0.603-0.84-1.029c-0.199-0.427-0.3-0.94-0.3-1.54c0-0.573,0.116-1.067,0.351-1.48
				c0.232-0.413,0.549-0.746,0.949-1c0.4-0.253,0.867-0.439,1.4-0.56s1.094-0.181,1.68-0.181c0.188,0,0.381,0.011,0.58,0.03
				c0.2,0.021,0.391,0.047,0.57,0.08s0.336,0.063,0.47,0.09c0.134,0.027,0.227,0.047,0.28,0.061v-0.521c0-0.307-0.033-0.61-0.1-0.91
				c-0.067-0.3-0.188-0.566-0.36-0.8c-0.174-0.233-0.41-0.42-0.71-0.56c-0.301-0.141-0.69-0.21-1.17-0.21
				c-0.613,0-1.15,0.043-1.61,0.13s-0.804,0.177-1.03,0.27l-0.22-1.54c0.24-0.106,0.64-0.21,1.2-0.31
				C287.172-210.61,287.777-210.66,288.432-210.66z M288.592-201.34c0.439,0,0.83-0.01,1.17-0.03c0.34-0.02,0.623-0.057,0.85-0.11
				v-3.1c-0.134-0.066-0.35-0.123-0.65-0.17c-0.3-0.047-0.663-0.07-1.09-0.07c-0.279,0-0.576,0.021-0.891,0.061
				c-0.313,0.04-0.6,0.123-0.859,0.25s-0.477,0.3-0.65,0.52c-0.173,0.221-0.26,0.51-0.26,0.87c0,0.667,0.213,1.13,0.641,1.39
				C287.277-201.47,287.857-201.34,288.592-201.34z"/>
		</g>
	</g>
	<g id="node11">
		<title>4</title>
		<ellipse fill="none" stroke="#000000" stroke-width="2" cx="490" cy="-214" rx="18" ry="18"/>
	</g>
	<g id="edge10">
		<title>3-&gt;4</title>
		<path fill="none" stroke="#000000" stroke-width="2" d="M365.61-182.271c23.997-6.171,68.604-17.641,97.1-24.969"/>
		<polygon stroke="#000000" points="472.412,-209.735 461.605,-211.602 467.445,-208.974 462.604,-207.728 462.727,-207.244 
			462.852,-206.76 467.694,-208.005 463.848,-202.886 472.412,-209.735 		"/>
		<g enable-background="new    ">
			<path fill="#0000FF" d="M418.6-207.9c1.027,0,1.746-0.163,2.16-0.489c0.413-0.327,0.62-0.743,0.62-1.25
				c0-0.373-0.09-0.693-0.271-0.96c-0.18-0.267-0.42-0.5-0.72-0.7s-0.646-0.38-1.04-0.54c-0.393-0.16-0.797-0.313-1.21-0.46
				c-0.399-0.146-0.797-0.311-1.19-0.49c-0.393-0.18-0.742-0.4-1.049-0.66c-0.308-0.26-0.558-0.573-0.75-0.939
				c-0.193-0.367-0.291-0.817-0.291-1.351c0-0.946,0.283-1.723,0.851-2.33c0.566-0.606,1.39-0.989,2.47-1.149v-2.3h1.66v2.239
				c0.586,0.027,1.133,0.101,1.641,0.221c0.506,0.119,0.906,0.233,1.199,0.34l-0.38,1.56c-0.319-0.12-0.72-0.243-1.2-0.37
				c-0.48-0.126-1.08-0.189-1.8-0.189c-0.8,0-1.417,0.153-1.851,0.46c-0.433,0.307-0.649,0.74-0.649,1.3
				c0,0.307,0.063,0.566,0.19,0.78c0.126,0.213,0.31,0.403,0.55,0.569c0.239,0.167,0.522,0.317,0.85,0.45
				c0.327,0.134,0.69,0.273,1.091,0.42c0.52,0.2,1.013,0.407,1.479,0.62c0.466,0.214,0.876,0.47,1.229,0.771
				c0.354,0.3,0.637,0.656,0.851,1.069c0.213,0.414,0.319,0.914,0.319,1.5c0,0.947-0.287,1.71-0.859,2.29
				c-0.574,0.58-1.46,0.943-2.66,1.09v2.58h-1.66v-2.52c-0.934-0.026-1.693-0.13-2.279-0.311c-0.588-0.18-1.027-0.35-1.32-0.51
				l0.5-1.5c0.4,0.188,0.88,0.36,1.439,0.521C417.08-207.98,417.773-207.9,418.6-207.9z"/>
		</g>
	</g>
	<g id="node13">
		<title>5</title>
		<ellipse fill="none" stroke="#000000" stroke-width="2" cx="490" cy="-142" rx="18" ry="18"/>
	</g>
	<g id="edge12">
		<title>3-&gt;5</title>
		<path fill="none" stroke="#000000" stroke-width="2" d="M365.077-171.962c10.426,3.771,24.357,8.543,36.923,11.962
			c19.966,5.434,42.898,10.116,60.205,13.341"/>
		<polygon stroke="#000000" points="472.176,-144.844 463.143,-151.063 467.347,-146.23 462.427,-147.126 462.338,-146.634 
			462.248,-146.143 467.168,-145.247 461.532,-142.207 472.176,-144.844 		"/>
		<g enable-background="new    ">
			<path fill="#0000FF" d="M409.334-172.1c0.427-0.107,0.994-0.221,1.7-0.341c0.706-0.119,1.521-0.18,2.44-0.18
				c0.826,0,1.513,0.117,2.06,0.351s0.983,0.56,1.31,0.979c0.327,0.42,0.557,0.924,0.69,1.51c0.134,0.587,0.2,1.233,0.2,1.94v5.84
				h-1.859v-5.44c0-0.64-0.044-1.187-0.131-1.64c-0.086-0.453-0.23-0.82-0.43-1.1c-0.2-0.28-0.467-0.483-0.801-0.61
				c-0.332-0.127-0.746-0.19-1.239-0.19c-0.2,0-0.407,0.008-0.62,0.021c-0.213,0.014-0.417,0.03-0.609,0.05
				c-0.193,0.021-0.367,0.044-0.521,0.07s-0.264,0.047-0.33,0.06v8.78h-1.86V-172.1z"/>
			<path fill="#0000FF" d="M424.174-172.66c0.747,0,1.377,0.097,1.891,0.29s0.926,0.467,1.24,0.82
				c0.313,0.354,0.536,0.773,0.67,1.26c0.133,0.487,0.199,1.023,0.199,1.61v6.5c-0.16,0.026-0.383,0.063-0.67,0.109
				c-0.287,0.047-0.609,0.09-0.97,0.13s-0.75,0.077-1.17,0.11s-0.837,0.05-1.25,0.05c-0.587,0-1.127-0.06-1.62-0.18
				s-0.92-0.31-1.279-0.57c-0.36-0.26-0.641-0.603-0.84-1.029c-0.201-0.427-0.301-0.94-0.301-1.54c0-0.573,0.117-1.067,0.35-1.48
				c0.234-0.413,0.551-0.746,0.951-1c0.399-0.253,0.865-0.439,1.399-0.56c0.533-0.12,1.093-0.181,1.681-0.181
				c0.186,0,0.379,0.011,0.579,0.03c0.2,0.021,0.39,0.047,0.57,0.08c0.18,0.033,0.337,0.063,0.47,0.09
				c0.133,0.027,0.227,0.047,0.28,0.061v-0.521c0-0.307-0.034-0.61-0.101-0.91s-0.187-0.566-0.359-0.8
				c-0.174-0.233-0.41-0.42-0.71-0.56c-0.3-0.141-0.69-0.21-1.171-0.21c-0.613,0-1.149,0.043-1.609,0.13s-0.803,0.177-1.029,0.27
				l-0.221-1.54c0.24-0.106,0.641-0.21,1.2-0.31C422.914-172.61,423.521-172.66,424.174-172.66z M424.334-163.34
				c0.44,0,0.83-0.01,1.17-0.03c0.34-0.02,0.623-0.057,0.851-0.11v-3.1c-0.134-0.066-0.351-0.123-0.649-0.17
				c-0.301-0.047-0.664-0.07-1.091-0.07c-0.28,0-0.577,0.021-0.89,0.061c-0.313,0.04-0.6,0.123-0.86,0.25
				c-0.26,0.127-0.477,0.3-0.649,0.52c-0.174,0.221-0.26,0.51-0.26,0.87c0,0.667,0.213,1.13,0.639,1.39
				C423.021-163.47,423.602-163.34,424.334-163.34z"/>
			<path fill="#0000FF" d="M434.895-163.9c1.025,0,1.746-0.163,2.159-0.489c0.413-0.327,0.62-0.743,0.62-1.25
				c0-0.373-0.09-0.693-0.27-0.96c-0.181-0.267-0.42-0.5-0.721-0.7c-0.3-0.2-0.646-0.38-1.039-0.54
				c-0.395-0.16-0.797-0.313-1.211-0.46c-0.4-0.146-0.797-0.311-1.189-0.49c-0.394-0.18-0.744-0.4-1.051-0.66
				s-0.557-0.573-0.75-0.939c-0.193-0.367-0.289-0.817-0.289-1.351c0-0.946,0.283-1.723,0.85-2.33
				c0.566-0.606,1.391-0.989,2.47-1.149v-2.3h1.66v2.239c0.587,0.027,1.134,0.101,1.64,0.221c0.507,0.119,0.906,0.233,1.2,0.34
				l-0.38,1.56c-0.32-0.12-0.72-0.243-1.199-0.37c-0.48-0.126-1.08-0.189-1.801-0.189c-0.8,0-1.417,0.153-1.85,0.46
				c-0.434,0.307-0.65,0.74-0.65,1.3c0,0.307,0.063,0.566,0.189,0.78c0.127,0.213,0.311,0.403,0.551,0.569
				c0.24,0.167,0.523,0.317,0.85,0.45c0.326,0.134,0.69,0.273,1.09,0.42c0.521,0.2,1.014,0.407,1.48,0.62
				c0.467,0.214,0.877,0.47,1.23,0.771c0.353,0.3,0.637,0.656,0.85,1.069c0.213,0.414,0.32,0.914,0.32,1.5
				c0,0.947-0.287,1.71-0.86,2.29s-1.46,0.943-2.66,1.09v2.58h-1.66v-2.52c-0.933-0.026-1.693-0.13-2.28-0.311
				c-0.586-0.18-1.026-0.35-1.319-0.51l0.5-1.5c0.399,0.188,0.88,0.36,1.44,0.521C433.374-163.98,434.066-163.9,434.895-163.9z"/>
		</g>
	</g>
	<g id="node19">
		<title>9</title>
		<ellipse fill="none" stroke="#000000" stroke-width="2" cx="348" cy="-90" rx="18" ry="18"/>
	</g>
	<g id="edge18">
		<title>8-&gt;9</title>
		<path fill="none" stroke="#000000" stroke-width="2" d="M224.167-75.962c23.826-2.724,67.175-7.677,95.484-10.913"/>
		<polygon stroke="#000000" points="329.693,-88.021 319.247,-91.357 324.668,-87.951 319.701,-87.383 319.758,-86.887 
			319.814,-86.39 324.782,-86.957 320.27,-82.416 329.693,-88.021 		"/>
		<g enable-background="new    ">
			<path fill="#0000FF" d="M276.6-91.9c1.027,0,1.746-0.163,2.16-0.489c0.413-0.327,0.62-0.743,0.62-1.25
				c0-0.373-0.09-0.693-0.271-0.96c-0.18-0.267-0.42-0.5-0.72-0.7s-0.646-0.38-1.04-0.54c-0.393-0.16-0.797-0.313-1.21-0.46
				c-0.399-0.146-0.797-0.311-1.19-0.49c-0.393-0.18-0.742-0.4-1.049-0.66c-0.308-0.26-0.558-0.573-0.75-0.939
				c-0.193-0.367-0.291-0.817-0.291-1.351c0-0.946,0.283-1.723,0.851-2.33c0.566-0.606,1.39-0.989,2.47-1.149v-2.3h1.66v2.239
				c0.586,0.027,1.133,0.101,1.641,0.221c0.506,0.119,0.906,0.233,1.199,0.34l-0.38,1.56c-0.319-0.12-0.72-0.243-1.2-0.37
				c-0.48-0.126-1.08-0.189-1.8-0.189c-0.8,0-1.417,0.153-1.851,0.46c-0.433,0.307-0.649,0.74-0.649,1.3
				c0,0.307,0.063,0.566,0.19,0.78c0.126,0.213,0.31,0.403,0.55,0.569c0.239,0.167,0.522,0.317,0.85,0.45
				c0.327,0.134,0.69,0.273,1.091,0.42c0.52,0.2,1.013,0.407,1.479,0.62c0.466,0.214,0.876,0.47,1.229,0.771
				c0.354,0.3,0.637,0.656,0.851,1.069c0.213,0.414,0.319,0.914,0.319,1.5c0,0.947-0.287,1.71-0.859,2.29
				c-0.574,0.58-1.46,0.943-2.66,1.09v2.58h-1.66v-2.52c-0.934-0.026-1.693-0.13-2.279-0.311c-0.588-0.18-1.027-0.35-1.32-0.51
				l0.5-1.5c0.4,0.188,0.88,0.36,1.439,0.521C275.08-91.98,275.773-91.9,276.6-91.9z"/>
		</g>
	</g>
	<g id="node21">
		<title>10</title>
		<ellipse fill="none" stroke="#000000" stroke-width="2" cx="348" cy="-18" rx="18" ry="18"/>
	</g>
	<g id="edge20">
		<title>8-&gt;10</title>
		<path fill="none" stroke="#000000" stroke-width="2" d="M222.64-66.557C233.125-61.656,247.288-55.208,260-50
			c20.416,8.364,43.916,16.947,61.342,23.115"/>
		<polygon stroke="#000000" points="330.83,-23.551 322.887,-31.111 326.279,-25.68 321.561,-27.337 321.396,-26.865 
			321.23,-26.394 325.947,-24.736 319.904,-22.619 330.83,-23.551 		"/>
		<g enable-background="new    ">
			<path fill="#0000FF" d="M262-63.433c0.427-0.107,0.994-0.221,1.7-0.341c0.706-0.119,1.521-0.18,2.44-0.18
				c0.826,0,1.513,0.117,2.06,0.351s0.983,0.56,1.31,0.979c0.327,0.42,0.557,0.924,0.69,1.51c0.134,0.587,0.2,1.233,0.2,1.94v5.84
				h-1.859v-5.44c0-0.64-0.044-1.187-0.131-1.64c-0.086-0.453-0.23-0.82-0.43-1.1c-0.2-0.28-0.467-0.483-0.801-0.61
				c-0.332-0.127-0.746-0.19-1.239-0.19c-0.2,0-0.407,0.008-0.62,0.021c-0.213,0.014-0.417,0.03-0.609,0.05
				c-0.193,0.021-0.367,0.044-0.521,0.07s-0.264,0.047-0.33,0.06v8.78H262V-63.433z"/>
			<path fill="#0000FF" d="M276.84-63.993c0.747,0,1.377,0.097,1.891,0.29s0.926,0.467,1.24,0.82c0.313,0.354,0.536,0.773,0.67,1.26
				c0.133,0.487,0.199,1.023,0.199,1.61v6.5c-0.16,0.026-0.383,0.063-0.67,0.109c-0.287,0.047-0.609,0.09-0.97,0.13
				s-0.75,0.077-1.17,0.11s-0.837,0.05-1.25,0.05c-0.587,0-1.127-0.06-1.62-0.18s-0.92-0.31-1.279-0.57
				c-0.36-0.26-0.641-0.603-0.84-1.029c-0.201-0.427-0.301-0.94-0.301-1.54c0-0.573,0.117-1.067,0.35-1.48
				c0.234-0.413,0.551-0.746,0.951-1c0.399-0.253,0.865-0.439,1.399-0.56c0.533-0.12,1.093-0.181,1.681-0.181
				c0.186,0,0.379,0.011,0.579,0.03c0.2,0.021,0.39,0.047,0.57,0.08c0.18,0.033,0.337,0.063,0.47,0.09
				c0.133,0.027,0.227,0.047,0.28,0.061v-0.521c0-0.307-0.034-0.61-0.101-0.91s-0.187-0.566-0.359-0.8
				c-0.174-0.233-0.41-0.42-0.71-0.56c-0.3-0.141-0.69-0.21-1.171-0.21c-0.613,0-1.149,0.043-1.609,0.13s-0.803,0.177-1.029,0.27
				l-0.221-1.54c0.24-0.106,0.641-0.21,1.2-0.31C275.58-63.943,276.188-63.993,276.84-63.993z M277-54.673
				c0.44,0,0.83-0.01,1.17-0.03c0.34-0.02,0.623-0.057,0.851-0.11v-3.1c-0.134-0.066-0.351-0.123-0.649-0.17
				c-0.301-0.047-0.664-0.07-1.091-0.07c-0.28,0-0.577,0.021-0.89,0.061c-0.313,0.04-0.6,0.123-0.86,0.25
				c-0.26,0.127-0.477,0.3-0.649,0.52c-0.174,0.221-0.26,0.51-0.26,0.87c0,0.667,0.213,1.13,0.639,1.39
				C275.688-54.803,276.268-54.673,277-54.673z"/>
			<path fill="#0000FF" d="M287.561-55.233c1.025,0,1.746-0.163,2.159-0.489c0.413-0.327,0.62-0.743,0.62-1.25
				c0-0.373-0.09-0.693-0.27-0.96c-0.181-0.267-0.42-0.5-0.721-0.7c-0.3-0.2-0.646-0.38-1.039-0.54
				c-0.395-0.16-0.797-0.313-1.211-0.46c-0.4-0.146-0.797-0.311-1.189-0.49c-0.394-0.18-0.744-0.4-1.051-0.66
				s-0.557-0.573-0.75-0.939c-0.193-0.367-0.289-0.817-0.289-1.351c0-0.946,0.283-1.723,0.85-2.33
				c0.566-0.606,1.391-0.989,2.47-1.149v-2.3h1.66v2.239c0.587,0.027,1.134,0.101,1.64,0.221c0.507,0.119,0.906,0.233,1.2,0.34
				l-0.38,1.56c-0.32-0.12-0.72-0.243-1.199-0.37c-0.48-0.126-1.08-0.189-1.801-0.189c-0.8,0-1.417,0.153-1.85,0.46
				c-0.434,0.307-0.65,0.74-0.65,1.3c0,0.307,0.063,0.566,0.189,0.78c0.127,0.213,0.311,0.403,0.551,0.569
				c0.24,0.167,0.523,0.317,0.85,0.45c0.326,0.134,0.69,0.273,1.09,0.42c0.521,0.2,1.014,0.407,1.48,0.62
				c0.467,0.214,0.877,0.47,1.23,0.771c0.353,0.3,0.637,0.656,0.85,1.069c0.213,0.414,0.32,0.914,0.32,1.5
				c0,0.947-0.287,1.71-0.86,2.29s-1.46,0.943-2.66,1.09v2.58h-1.66v-2.52c-0.933-0.026-1.693-0.13-2.28-0.311
				c-0.586-0.18-1.026-0.35-1.319-0.51l0.5-1.5c0.399,0.188,0.88,0.36,1.44,0.521C286.04-55.313,286.732-55.233,287.561-55.233z"/>
		</g>
	</g>
</g>
</svg>
