<?xml version="1.0" encoding="utf-8"?>
<!-- Generator: Adobe Illustrator 16.0.0, SVG Export Plug-In . SVG Version: 6.00 Build 0)  -->
<!DOCTYPE svg PUBLIC "-//W3C//DTD SVG 1.1//EN" "http://www.w3.org/Graphics/SVG/1.1/DTD/svg11.dtd">
<svg version="1.1" id="图层_1" xmlns="http://www.w3.org/2000/svg" xmlns:xlink="http://www.w3.org/1999/xlink" x="0px" y="0px"
	 width="164px" height="91.833px" viewBox="0 0 164 91.833" enable-background="new 0 0 164 91.833" xml:space="preserve">
<g id="graph1" transform="scale(1 1) rotate(0) translate(4 44)">
	<title>G</title>
	<polygon fill="#FFFFFF" stroke="#FFFFFF" points="-4,47.833 -4,-44 161,-44 161,47.833 	"/>
	<g id="node1">
		<title>0</title>
		<ellipse fill="none" stroke="#000000" stroke-width="2" cx="18" cy="-18" rx="18" ry="18"/>
		<g enable-background="new    ">
			<path d="M22.639-19.377c0,0.977-0.098,1.867-0.293,2.671s-0.492,1.494-0.889,2.07s-0.89,1.022-1.479,1.338
				s-1.281,0.474-2.075,0.474c-0.684,0-1.305-0.129-1.865-0.386s-1.039-0.652-1.436-1.187s-0.703-1.214-0.918-2.041
				s-0.322-1.807-0.322-2.939c0-0.977,0.099-1.868,0.298-2.676s0.495-1.499,0.889-2.075s0.887-1.022,1.479-1.338
				s1.283-0.474,2.07-0.474c0.684,0,1.305,0.129,1.865,0.386s1.039,0.654,1.436,1.191s0.703,1.219,0.918,2.046
				S22.639-20.51,22.639-19.377z M15.08-19.436c0,0.202,0.001,0.403,0.005,0.605s0.015,0.397,0.034,0.586l5.4-3.994
				c-0.098-0.332-0.221-0.635-0.371-0.908s-0.329-0.51-0.537-0.708s-0.446-0.354-0.713-0.464S18.332-24.484,18-24.484
				c-0.443,0-0.845,0.107-1.206,0.322s-0.669,0.535-0.923,0.962s-0.449,0.954-0.586,1.582S15.08-20.263,15.08-19.436z M20.92-19.318
				c0-0.222-0.008-0.441-0.024-0.659s-0.034-0.432-0.054-0.64l-5.4,4.014c0.098,0.339,0.221,0.651,0.371,0.938
				s0.331,0.532,0.542,0.737s0.453,0.364,0.723,0.479s0.578,0.171,0.923,0.171c0.443,0,0.845-0.107,1.206-0.322
				s0.669-0.534,0.923-0.957s0.449-0.949,0.586-1.577S20.92-18.491,20.92-19.318z"/>
		</g>
	</g>
	<g id="node3">
		<title>1</title>
		<ellipse fill="none" stroke="#000000" stroke-width="2" cx="138" cy="-18" rx="18" ry="18"/>
		<g enable-background="new    ">
			<path d="M142.238-13h-8.018v-1.582h3.281v-9.316l-3.057,1.66l-0.625-1.445l4.063-2.139h1.504v11.24h2.852V-13z"/>
		</g>
	</g>
	<g id="edge2">
		<title>0-&gt;1</title>
		<path fill="none" stroke="#FF0000" stroke-width="2" d="M36.158-18c19.313,0,50.951,0,73.641,0"/>
		<polygon fill="#FF0000" stroke="#FF0000" points="119.82,-18 109.82,-22.5 114.82,-18.5 109.82,-18.5 109.82,-18 109.82,-17.5 
			114.82,-17.5 109.82,-13.5 119.82,-18 		"/>
		<g enable-background="new    ">
			<path fill="#0000FF" d="M77.74-34.66c0.747,0,1.377,0.097,1.891,0.29c0.513,0.193,0.926,0.467,1.239,0.82s0.536,0.773,0.67,1.26
				c0.134,0.487,0.2,1.023,0.2,1.61v6.5c-0.16,0.026-0.383,0.063-0.67,0.109c-0.287,0.047-0.609,0.09-0.971,0.13
				c-0.359,0.04-0.75,0.077-1.17,0.11s-0.836,0.05-1.25,0.05c-0.587,0-1.127-0.06-1.62-0.18s-0.92-0.31-1.28-0.57
				c-0.36-0.26-0.64-0.603-0.84-1.029c-0.2-0.427-0.3-0.94-0.3-1.54c0-0.573,0.117-1.067,0.35-1.48s0.55-0.746,0.95-1
				c0.4-0.253,0.866-0.439,1.4-0.56c0.533-0.12,1.093-0.181,1.68-0.181c0.187,0,0.38,0.011,0.579,0.03
				c0.201,0.021,0.391,0.047,0.57,0.08s0.337,0.063,0.471,0.09c0.133,0.027,0.227,0.047,0.279,0.061v-0.521
				c0-0.307-0.033-0.61-0.1-0.91s-0.188-0.566-0.359-0.8c-0.174-0.233-0.41-0.42-0.711-0.56c-0.3-0.141-0.69-0.21-1.17-0.21
				c-0.613,0-1.15,0.043-1.61,0.13s-0.803,0.177-1.03,0.27l-0.22-1.54c0.24-0.106,0.64-0.21,1.2-0.31
				C76.48-34.61,77.087-34.66,77.74-34.66z M77.9-25.34c0.44,0,0.83-0.01,1.17-0.03c0.34-0.02,0.623-0.057,0.85-0.11v-3.1
				c-0.133-0.066-0.35-0.123-0.649-0.17s-0.663-0.07-1.09-0.07c-0.28,0-0.577,0.021-0.89,0.061c-0.313,0.04-0.6,0.123-0.86,0.25
				c-0.26,0.127-0.477,0.3-0.65,0.52c-0.173,0.221-0.26,0.51-0.26,0.87c0,0.667,0.213,1.13,0.64,1.39
				C76.587-25.47,77.167-25.34,77.9-25.34z"/>
		</g>
	</g>
</g>
<g>
	<path fill="#FF8B00" d="M26.96,62.409c0.747,0,1.377,0.097,1.89,0.29c0.514,0.193,0.927,0.467,1.24,0.82s0.537,0.773,0.67,1.26
		c0.134,0.486,0.2,1.023,0.2,1.609v6.5c-0.16,0.027-0.384,0.064-0.67,0.111c-0.287,0.047-0.61,0.09-0.97,0.129
		c-0.36,0.041-0.75,0.077-1.17,0.11s-0.837,0.05-1.25,0.05c-0.587,0-1.127-0.06-1.62-0.18s-0.92-0.311-1.28-0.57
		s-0.64-0.604-0.84-1.029c-0.2-0.427-0.3-0.94-0.3-1.541c0-0.572,0.117-1.066,0.35-1.479s0.55-0.747,0.95-1
		c0.4-0.253,0.866-0.44,1.4-0.56c0.533-0.12,1.093-0.18,1.68-0.18c0.187,0,0.38,0.01,0.58,0.029c0.199,0.02,0.39,0.047,0.569,0.08
		c0.181,0.033,0.337,0.063,0.471,0.09c0.133,0.027,0.227,0.047,0.279,0.061v-0.521c0-0.307-0.033-0.61-0.1-0.91
		c-0.067-0.3-0.187-0.566-0.36-0.8c-0.173-0.232-0.41-0.42-0.71-0.561c-0.3-0.14-0.69-0.209-1.17-0.209
		c-0.613,0-1.15,0.043-1.61,0.129c-0.46,0.088-0.803,0.178-1.03,0.271l-0.22-1.54c0.24-0.106,0.64-0.21,1.2-0.31
		C25.7,62.459,26.307,62.409,26.96,62.409z M27.12,71.729c0.44,0,0.83-0.011,1.17-0.03s0.623-0.057,0.85-0.109v-3.101
		c-0.133-0.066-0.35-0.123-0.649-0.17c-0.3-0.046-0.664-0.069-1.09-0.069c-0.28,0-0.577,0.02-0.89,0.06
		c-0.313,0.04-0.6,0.123-0.86,0.25c-0.26,0.126-0.477,0.3-0.65,0.52s-0.26,0.511-0.26,0.87c0,0.667,0.213,1.13,0.64,1.391
		C25.807,71.6,26.387,71.729,27.12,71.729z"/>
</g>
</svg>
