<?xml version="1.0" encoding="utf-8"?>
<!-- Generator: Adobe Illustrator 16.0.0, SVG Export Plug-In . SVG Version: 6.00 Build 0)  -->
<!DOCTYPE svg PUBLIC "-//W3C//DTD SVG 1.1//EN" "http://www.w3.org/Graphics/SVG/1.1/DTD/svg11.dtd">
<svg version="1.1" id="图层_1" xmlns="http://www.w3.org/2000/svg" xmlns:xlink="http://www.w3.org/1999/xlink" x="0px" y="0px"
	 width="594px" height="646.5px" viewBox="0 0 594 646.5" enable-background="new 0 0 594 646.5" xml:space="preserve">
<g id="graph1" transform="scale(1 1) rotate(0) translate(4 472)">
	<title>G</title>
	<polygon fill="#FFFFFF" stroke="#FFFFFF" points="-4,174.5 -4,-472 591,-472 591,174.5 	"/>
	<g id="node1">
		<title>0</title>
		<ellipse fill="none" stroke="#000000" stroke-width="2" cx="18" cy="-234" rx="18" ry="18"/>
		<g enable-background="new    ">
			<path d="M22.639-235.377c0,0.977-0.098,1.867-0.293,2.671s-0.492,1.494-0.889,2.07s-0.89,1.022-1.479,1.338
				s-1.281,0.474-2.075,0.474c-0.684,0-1.305-0.129-1.865-0.386s-1.039-0.652-1.436-1.187s-0.703-1.214-0.918-2.041
				s-0.322-1.807-0.322-2.939c0-0.977,0.099-1.868,0.298-2.676s0.495-1.499,0.889-2.075s0.887-1.022,1.479-1.338
				s1.283-0.474,2.07-0.474c0.684,0,1.305,0.129,1.865,0.386s1.039,0.654,1.436,1.191s0.703,1.219,0.918,2.046
				S22.639-236.51,22.639-235.377z M15.08-235.436c0,0.202,0.001,0.403,0.005,0.605s0.015,0.397,0.034,0.586l5.4-3.994
				c-0.098-0.332-0.221-0.635-0.371-0.908s-0.329-0.51-0.537-0.708s-0.446-0.354-0.713-0.464s-0.566-0.166-0.898-0.166
				c-0.443,0-0.845,0.107-1.206,0.322s-0.669,0.535-0.923,0.962s-0.449,0.954-0.586,1.582S15.08-236.263,15.08-235.436z
				 M20.92-235.318c0-0.222-0.008-0.441-0.024-0.659s-0.034-0.432-0.054-0.64l-5.4,4.014c0.098,0.339,0.221,0.651,0.371,0.938
				s0.331,0.532,0.542,0.737s0.453,0.364,0.723,0.479s0.578,0.171,0.923,0.171c0.443,0,0.845-0.107,1.206-0.322
				s0.669-0.534,0.923-0.957s0.449-0.949,0.586-1.577S20.92-234.491,20.92-235.318z"/>
		</g>
	</g>
	<g id="node3">
		<title>11</title>
		<ellipse fill="none" stroke="#000000" stroke-width="2" cx="214" cy="-450" rx="18" ry="18"/>
		<g enable-background="new    ">
			<path d="M212.74-445h-8.018v-1.582h3.281v-9.316l-3.057,1.66l-0.625-1.445l4.063-2.139h1.504v11.24h2.852V-445z"/>
			<path d="M223.736-445h-8.018v-1.582H219v-9.316l-3.057,1.66l-0.625-1.445l4.063-2.139h1.504v11.24h2.852V-445z"/>
		</g>
	</g>
	<g id="edge2">
		<title>0-&gt;11</title>
		<path fill="none" stroke="#FF0000" stroke-width="2" d="M23.765-251.287C31.066-275.415,46.875-319.635,72-350
			c32.973-39.85,85.456-71.368,116.235-87.71"/>
		<polygon fill="#FF0000" stroke="#FF0000" points="197.413,-442.475 186.464,-441.861 192.745,-440.615 188.307,-438.311 
			188.538,-437.867 188.768,-437.424 193.206,-439.727 190.611,-433.873 197.413,-442.475 		"/>
		<g enable-background="new    ">
			<path fill="#0000FF" d="M115.6-427.9c1.026,0,1.746-0.163,2.16-0.489c0.413-0.327,0.62-0.743,0.62-1.25
				c0-0.373-0.09-0.693-0.27-0.96s-0.42-0.5-0.72-0.7c-0.3-0.2-0.646-0.38-1.04-0.54c-0.394-0.16-0.797-0.313-1.21-0.46
				c-0.4-0.146-0.797-0.311-1.19-0.49s-0.743-0.4-1.05-0.66c-0.307-0.26-0.557-0.573-0.75-0.939c-0.193-0.367-0.29-0.817-0.29-1.351
				c0-0.946,0.283-1.723,0.85-2.33c0.566-0.606,1.39-0.989,2.47-1.149v-2.3h1.66v2.239c0.586,0.027,1.133,0.101,1.64,0.221
				c0.506,0.119,0.906,0.233,1.2,0.34l-0.38,1.56c-0.32-0.12-0.72-0.243-1.2-0.37c-0.48-0.126-1.08-0.189-1.8-0.189
				c-0.8,0-1.417,0.153-1.85,0.46s-0.65,0.74-0.65,1.3c0,0.307,0.063,0.566,0.19,0.78c0.126,0.213,0.31,0.403,0.55,0.569
				c0.24,0.167,0.523,0.317,0.85,0.45c0.327,0.134,0.69,0.273,1.09,0.42c0.52,0.2,1.013,0.407,1.48,0.62
				c0.466,0.214,0.876,0.47,1.23,0.771c0.353,0.3,0.637,0.656,0.85,1.069c0.213,0.414,0.32,0.914,0.32,1.5
				c0,0.947-0.287,1.71-0.86,2.29c-0.574,0.58-1.46,0.943-2.66,1.09v2.58h-1.66v-2.52c-0.933-0.026-1.693-0.13-2.28-0.311
				c-0.587-0.18-1.027-0.35-1.32-0.51l0.5-1.5c0.4,0.188,0.88,0.36,1.44,0.521C114.08-427.98,114.773-427.9,115.6-427.9z"/>
		</g>
	</g>
	<g id="node5">
		<title>3</title>
		<ellipse fill="none" stroke="#000000" stroke-width="2" cx="214" cy="-342" rx="18" ry="18"/>
		<g enable-background="new    ">
			<path d="M218.102-340.877c0,0.56-0.114,1.086-0.342,1.577s-0.57,0.921-1.025,1.289s-1.029,0.657-1.719,0.869
				s-1.494,0.317-2.412,0.317c-0.508,0-0.963-0.017-1.367-0.049s-0.781-0.075-1.133-0.127v-1.523
				c0.404,0.071,0.83,0.127,1.279,0.166s0.908,0.059,1.377,0.059c0.638,0,1.183-0.057,1.636-0.171s0.822-0.278,1.108-0.493
				s0.495-0.476,0.625-0.781s0.195-0.651,0.195-1.035c0-0.352-0.078-0.657-0.234-0.918s-0.376-0.479-0.659-0.654
				s-0.622-0.308-1.016-0.396s-0.825-0.132-1.294-0.132h-1.455v-1.396h1.475c0.384,0,0.734-0.051,1.05-0.151
				s0.586-0.246,0.811-0.435s0.397-0.422,0.518-0.698s0.181-0.591,0.181-0.942c0-0.684-0.208-1.182-0.625-1.494
				s-1.029-0.469-1.836-0.469c-0.43,0-0.873,0.042-1.328,0.127s-0.944,0.212-1.465,0.381v-1.484c0.221-0.078,0.458-0.148,0.708-0.21
				s0.501-0.114,0.752-0.156s0.5-0.075,0.747-0.098s0.485-0.034,0.713-0.034c0.677,0,1.273,0.073,1.787,0.22s0.944,0.356,1.289,0.63
				s0.605,0.605,0.781,0.996s0.264,0.83,0.264,1.318c0,0.729-0.187,1.341-0.562,1.836s-0.887,0.889-1.538,1.182
				c0.332,0.052,0.659,0.156,0.981,0.313s0.612,0.356,0.869,0.601s0.465,0.532,0.625,0.864S218.102-341.28,218.102-340.877z"/>
		</g>
	</g>
	<g id="edge4">
		<title>0-&gt;3</title>
		<path fill="none" stroke="#000000" stroke-width="2" d="M34.223-242.475c33.574-18.69,114.201-63.575,154.703-86.123"/>
		<polygon stroke="#000000" points="197.848,-333.565 186.922,-332.632 193.236,-331.57 188.867,-329.138 189.111,-328.701 
			189.354,-328.264 193.722,-330.696 191.299,-324.769 197.848,-333.565 		"/>
		<g enable-background="new    ">
			<path fill="#0000FF" d="M115.74-326.66c0.747,0,1.376,0.097,1.89,0.29c0.513,0.193,0.926,0.467,1.24,0.82s0.537,0.773,0.67,1.26
				c0.133,0.487,0.2,1.023,0.2,1.61v6.5c-0.16,0.026-0.383,0.063-0.67,0.109c-0.287,0.047-0.61,0.09-0.97,0.13
				c-0.36,0.04-0.75,0.077-1.17,0.11s-0.837,0.05-1.25,0.05c-0.587,0-1.127-0.06-1.62-0.18s-0.92-0.31-1.28-0.57
				c-0.36-0.26-0.64-0.603-0.84-1.029c-0.2-0.427-0.3-0.94-0.3-1.54c0-0.573,0.117-1.067,0.35-1.48s0.55-0.746,0.95-1
				c0.4-0.253,0.866-0.439,1.4-0.56c0.533-0.12,1.093-0.181,1.68-0.181c0.187,0,0.38,0.011,0.58,0.03
				c0.2,0.021,0.39,0.047,0.57,0.08c0.18,0.033,0.336,0.063,0.47,0.09c0.133,0.027,0.227,0.047,0.28,0.061v-0.521
				c0-0.307-0.034-0.61-0.1-0.91c-0.067-0.3-0.187-0.566-0.36-0.8c-0.174-0.233-0.41-0.42-0.71-0.56c-0.3-0.141-0.69-0.21-1.17-0.21
				c-0.613,0-1.15,0.043-1.61,0.13s-0.803,0.177-1.03,0.27l-0.22-1.54c0.24-0.106,0.64-0.21,1.2-0.31
				C114.48-326.61,115.087-326.66,115.74-326.66z M115.9-317.34c0.44,0,0.83-0.01,1.17-0.03c0.34-0.02,0.623-0.057,0.85-0.11v-3.1
				c-0.134-0.066-0.35-0.123-0.65-0.17c-0.3-0.047-0.664-0.07-1.09-0.07c-0.28,0-0.577,0.021-0.89,0.061
				c-0.313,0.04-0.6,0.123-0.86,0.25c-0.26,0.127-0.477,0.3-0.65,0.52c-0.173,0.221-0.26,0.51-0.26,0.87
				c0,0.667,0.213,1.13,0.64,1.39C114.587-317.47,115.167-317.34,115.9-317.34z"/>
		</g>
	</g>
	<g id="node15">
		<title>2</title>
		<ellipse fill="none" stroke="#000000" stroke-width="2" cx="214" cy="-234" rx="18" ry="18"/>
		<g enable-background="new    ">
			<path d="M218.346-229h-8.408v-1.523l3.301-3.281c0.541-0.534,0.98-0.996,1.318-1.387s0.602-0.747,0.791-1.069
				s0.316-0.627,0.381-0.913s0.098-0.596,0.098-0.928c0-0.313-0.042-0.61-0.127-0.894s-0.215-0.532-0.391-0.747
				s-0.404-0.384-0.684-0.508s-0.615-0.186-1.006-0.186c-0.541,0-1.032,0.12-1.475,0.361s-0.85,0.554-1.221,0.938l-0.938-1.123
				c0.482-0.508,1.037-0.915,1.665-1.221s1.359-0.459,2.192-0.459c0.566,0,1.083,0.085,1.548,0.254s0.868,0.413,1.206,0.732
				s0.601,0.71,0.786,1.172s0.278,0.983,0.278,1.563c0,0.488-0.065,0.94-0.195,1.357s-0.327,0.832-0.591,1.245
				s-0.596,0.842-0.996,1.284s-0.874,0.928-1.421,1.455l-2.314,2.256h6.201V-229z"/>
		</g>
	</g>
	<g id="edge14">
		<title>0-&gt;2</title>
		<path fill="none" stroke="#000000" stroke-width="2" d="M36.112-230.752C46.458-228.954,59.937-226.905,72-226
			c39.001,2.927,48.999,2.927,88,0c8.482-0.637,17.664-1.838,25.964-3.121"/>
		<polygon stroke="#000000" points="195.888,-230.752 185.291,-233.57 190.873,-230.434 185.939,-229.623 186.02,-229.13 
			186.102,-228.637 191.035,-229.447 186.75,-224.689 195.888,-230.752 		"/>
		<g enable-background="new    ">
			<path fill="#0000FF" d="M79.71-231.76c-0.84,0-1.577-0.134-2.21-0.4c-0.634-0.267-1.167-0.64-1.6-1.12
				c-0.434-0.479-0.757-1.05-0.97-1.71s-0.32-1.39-0.32-2.189c0-0.801,0.117-1.533,0.35-2.2c0.233-0.667,0.563-1.243,0.99-1.73
				c0.427-0.486,0.95-0.866,1.57-1.14c0.62-0.273,1.31-0.41,2.07-0.41c0.467,0,0.933,0.04,1.4,0.12s0.913,0.207,1.34,0.38
				l-0.42,1.58c-0.28-0.133-0.603-0.24-0.97-0.32c-0.367-0.08-0.757-0.119-1.17-0.119c-1.04,0-1.837,0.326-2.39,0.979
				c-0.554,0.653-0.83,1.606-0.83,2.86c0,0.56,0.063,1.073,0.19,1.54c0.126,0.467,0.327,0.866,0.6,1.199
				c0.273,0.334,0.623,0.591,1.05,0.771s0.947,0.27,1.56,0.27c0.493,0,0.94-0.046,1.34-0.14c0.4-0.093,0.713-0.193,0.94-0.3
				l0.26,1.56c-0.107,0.067-0.26,0.13-0.46,0.19c-0.2,0.06-0.427,0.113-0.68,0.16c-0.253,0.046-0.523,0.086-0.81,0.12
				C80.253-231.777,79.977-231.76,79.71-231.76z"/>
			<path fill="#0000FF" d="M87.85-242.66c0.747,0,1.376,0.097,1.89,0.29c0.513,0.193,0.926,0.467,1.24,0.82s0.537,0.773,0.67,1.26
				c0.133,0.487,0.2,1.023,0.2,1.61v6.5c-0.16,0.026-0.383,0.063-0.67,0.109c-0.287,0.047-0.61,0.09-0.97,0.13
				c-0.36,0.04-0.75,0.077-1.17,0.11s-0.837,0.05-1.25,0.05c-0.587,0-1.127-0.06-1.62-0.18s-0.92-0.31-1.28-0.57
				c-0.36-0.26-0.64-0.603-0.84-1.029c-0.2-0.427-0.3-0.94-0.3-1.54c0-0.573,0.117-1.067,0.35-1.48s0.55-0.746,0.95-1
				c0.4-0.253,0.866-0.439,1.4-0.56c0.533-0.12,1.093-0.181,1.68-0.181c0.187,0,0.38,0.011,0.58,0.03
				c0.2,0.021,0.39,0.047,0.57,0.08c0.18,0.033,0.336,0.063,0.47,0.09c0.133,0.027,0.227,0.047,0.28,0.061v-0.521
				c0-0.307-0.034-0.61-0.1-0.91c-0.067-0.3-0.187-0.566-0.36-0.8c-0.174-0.233-0.41-0.42-0.71-0.56c-0.3-0.141-0.69-0.21-1.17-0.21
				c-0.613,0-1.15,0.043-1.61,0.13s-0.803,0.177-1.03,0.27l-0.22-1.54c0.24-0.106,0.64-0.21,1.2-0.31
				C86.59-242.61,87.197-242.66,87.85-242.66z M88.01-233.34c0.44,0,0.83-0.01,1.17-0.03c0.34-0.02,0.623-0.057,0.85-0.11v-3.1
				c-0.134-0.066-0.35-0.123-0.65-0.17c-0.3-0.047-0.664-0.07-1.09-0.07c-0.28,0-0.577,0.021-0.89,0.061
				c-0.313,0.04-0.6,0.123-0.86,0.25c-0.26,0.127-0.477,0.3-0.65,0.52c-0.173,0.221-0.26,0.51-0.26,0.87
				c0,0.667,0.213,1.13,0.64,1.39C86.697-233.47,87.277-233.34,88.01-233.34z"/>
			<path fill="#0000FF" d="M94.93-242.1c0.426-0.107,0.99-0.221,1.69-0.341c0.7-0.119,1.51-0.18,2.43-0.18
				c0.667,0,1.227,0.09,1.68,0.271c0.453,0.18,0.833,0.443,1.14,0.79c0.093-0.067,0.24-0.16,0.44-0.28s0.447-0.236,0.74-0.351
				c0.293-0.112,0.62-0.213,0.98-0.3c0.36-0.086,0.747-0.13,1.16-0.13c0.8,0,1.453,0.117,1.96,0.351s0.903,0.563,1.19,0.989
				s0.48,0.934,0.58,1.521c0.1,0.587,0.15,1.227,0.15,1.92v5.84h-1.86v-5.44c0-0.612-0.03-1.14-0.09-1.579
				c-0.06-0.44-0.173-0.807-0.34-1.101c-0.167-0.293-0.394-0.51-0.68-0.649c-0.287-0.141-0.657-0.211-1.11-0.211
				c-0.627,0-1.144,0.084-1.55,0.25c-0.407,0.167-0.683,0.317-0.83,0.45c0.107,0.347,0.187,0.728,0.24,1.141s0.08,0.847,0.08,1.3
				v5.84h-1.86v-5.44c0-0.612-0.034-1.14-0.1-1.579c-0.067-0.44-0.184-0.807-0.35-1.101c-0.167-0.293-0.394-0.51-0.68-0.649
				c-0.287-0.141-0.65-0.211-1.09-0.211c-0.187,0-0.387,0.008-0.6,0.021c-0.213,0.014-0.417,0.03-0.61,0.05
				c-0.193,0.021-0.37,0.044-0.53,0.07c-0.16,0.026-0.267,0.047-0.32,0.06v8.78h-1.86V-242.1z"/>
			<path fill="#0000FF" d="M114.57-233.34c0.76,0,1.323-0.101,1.69-0.3c0.367-0.2,0.55-0.521,0.55-0.96
				c0-0.453-0.18-0.813-0.54-1.08c-0.36-0.267-0.954-0.566-1.78-0.9c-0.4-0.16-0.783-0.323-1.15-0.49
				c-0.367-0.166-0.684-0.363-0.95-0.59s-0.48-0.5-0.64-0.82c-0.16-0.319-0.24-0.713-0.24-1.18c0-0.92,0.34-1.649,1.02-2.189
				s1.606-0.811,2.78-0.811c0.293,0,0.587,0.017,0.88,0.05c0.293,0.034,0.566,0.074,0.82,0.12c0.253,0.047,0.477,0.097,0.67,0.15
				s0.343,0.1,0.45,0.14l-0.34,1.601c-0.2-0.107-0.514-0.217-0.94-0.33s-0.94-0.17-1.54-0.17c-0.52,0-0.973,0.104-1.36,0.31
				c-0.387,0.207-0.58,0.53-0.58,0.97c0,0.228,0.043,0.427,0.13,0.601c0.086,0.173,0.22,0.33,0.4,0.47
				c0.18,0.14,0.403,0.27,0.67,0.39c0.267,0.12,0.586,0.247,0.96,0.38c0.493,0.188,0.933,0.37,1.32,0.551
				c0.387,0.18,0.717,0.39,0.99,0.63c0.273,0.24,0.483,0.53,0.63,0.87c0.146,0.34,0.22,0.757,0.22,1.25
				c0,0.96-0.357,1.687-1.07,2.18s-1.73,0.74-3.05,0.74c-0.92,0-1.64-0.077-2.16-0.23s-0.874-0.27-1.06-0.35l0.34-1.601
				c0.213,0.08,0.553,0.2,1.02,0.36C113.176-233.42,113.796-233.34,114.57-233.34z"/>
			<path fill="#0000FF" d="M124.43-242.66c0.747,0,1.376,0.097,1.89,0.29c0.513,0.193,0.926,0.467,1.24,0.82s0.537,0.773,0.67,1.26
				c0.133,0.487,0.2,1.023,0.2,1.61v6.5c-0.16,0.026-0.383,0.063-0.67,0.109c-0.287,0.047-0.61,0.09-0.97,0.13
				c-0.36,0.04-0.75,0.077-1.17,0.11s-0.837,0.05-1.25,0.05c-0.587,0-1.127-0.06-1.62-0.18s-0.92-0.31-1.28-0.57
				c-0.36-0.26-0.64-0.603-0.84-1.029c-0.2-0.427-0.3-0.94-0.3-1.54c0-0.573,0.117-1.067,0.35-1.48s0.55-0.746,0.95-1
				c0.4-0.253,0.866-0.439,1.4-0.56c0.533-0.12,1.093-0.181,1.68-0.181c0.187,0,0.38,0.011,0.58,0.03
				c0.2,0.021,0.39,0.047,0.57,0.08c0.18,0.033,0.336,0.063,0.47,0.09c0.133,0.027,0.227,0.047,0.28,0.061v-0.521
				c0-0.307-0.034-0.61-0.1-0.91c-0.067-0.3-0.187-0.566-0.36-0.8c-0.174-0.233-0.41-0.42-0.71-0.56c-0.3-0.141-0.69-0.21-1.17-0.21
				c-0.613,0-1.15,0.043-1.61,0.13s-0.803,0.177-1.03,0.27l-0.22-1.54c0.24-0.106,0.64-0.21,1.2-0.31
				C123.17-242.61,123.776-242.66,124.43-242.66z M124.59-233.34c0.44,0,0.83-0.01,1.17-0.03c0.34-0.02,0.623-0.057,0.85-0.11v-3.1
				c-0.134-0.066-0.35-0.123-0.65-0.17c-0.3-0.047-0.664-0.07-1.09-0.07c-0.28,0-0.577,0.021-0.89,0.061
				c-0.313,0.04-0.6,0.123-0.86,0.25c-0.26,0.127-0.477,0.3-0.65,0.52c-0.173,0.221-0.26,0.51-0.26,0.87
				c0,0.667,0.213,1.13,0.64,1.39C123.276-233.47,123.856-233.34,124.59-233.34z"/>
			<path fill="#0000FF" d="M131.51-242.1c0.426-0.107,0.99-0.221,1.69-0.341c0.7-0.119,1.51-0.18,2.43-0.18
				c0.667,0,1.227,0.09,1.68,0.271c0.453,0.18,0.833,0.443,1.14,0.79c0.093-0.067,0.24-0.16,0.44-0.28s0.447-0.236,0.74-0.351
				c0.293-0.112,0.62-0.213,0.98-0.3c0.36-0.086,0.747-0.13,1.16-0.13c0.8,0,1.453,0.117,1.96,0.351s0.903,0.563,1.19,0.989
				s0.48,0.934,0.58,1.521c0.1,0.587,0.15,1.227,0.15,1.92v5.84h-1.86v-5.44c0-0.612-0.03-1.14-0.09-1.579
				c-0.06-0.44-0.173-0.807-0.34-1.101c-0.167-0.293-0.394-0.51-0.68-0.649c-0.287-0.141-0.657-0.211-1.11-0.211
				c-0.627,0-1.144,0.084-1.55,0.25c-0.407,0.167-0.683,0.317-0.83,0.45c0.107,0.347,0.187,0.728,0.24,1.141s0.08,0.847,0.08,1.3
				v5.84h-1.86v-5.44c0-0.612-0.034-1.14-0.1-1.579c-0.067-0.44-0.184-0.807-0.35-1.101c-0.167-0.293-0.394-0.51-0.68-0.649
				c-0.287-0.141-0.65-0.211-1.09-0.211c-0.187,0-0.387,0.008-0.6,0.021c-0.213,0.014-0.417,0.03-0.61,0.05
				c-0.193,0.021-0.37,0.044-0.53,0.07c-0.16,0.026-0.267,0.047-0.32,0.06v8.78h-1.86V-242.1z"/>
			<path fill="#0000FF" d="M152.37-233.9c1.026,0,1.746-0.163,2.16-0.489c0.413-0.327,0.62-0.743,0.62-1.25
				c0-0.373-0.09-0.693-0.27-0.96s-0.42-0.5-0.72-0.7c-0.3-0.2-0.646-0.38-1.04-0.54c-0.394-0.16-0.797-0.313-1.21-0.46
				c-0.4-0.146-0.797-0.311-1.19-0.49s-0.743-0.4-1.05-0.66c-0.307-0.26-0.557-0.573-0.75-0.939c-0.193-0.367-0.29-0.817-0.29-1.351
				c0-0.946,0.283-1.723,0.85-2.33c0.566-0.606,1.39-0.989,2.47-1.149v-2.3h1.66v2.239c0.586,0.027,1.133,0.101,1.64,0.221
				c0.506,0.119,0.906,0.233,1.2,0.34l-0.38,1.56c-0.32-0.12-0.72-0.243-1.2-0.37c-0.48-0.126-1.08-0.189-1.8-0.189
				c-0.8,0-1.417,0.153-1.85,0.46s-0.65,0.74-0.65,1.3c0,0.307,0.063,0.566,0.19,0.78c0.126,0.213,0.31,0.403,0.55,0.569
				c0.24,0.167,0.523,0.317,0.85,0.45c0.327,0.134,0.69,0.273,1.09,0.42c0.52,0.2,1.013,0.407,1.48,0.62
				c0.466,0.214,0.876,0.47,1.23,0.771c0.353,0.3,0.637,0.656,0.85,1.069c0.213,0.414,0.32,0.914,0.32,1.5
				c0,0.947-0.287,1.71-0.86,2.29c-0.574,0.58-1.46,0.943-2.66,1.09v2.58h-1.66v-2.52c-0.933-0.026-1.693-0.13-2.28-0.311
				c-0.587-0.18-1.027-0.35-1.32-0.51l0.5-1.5c0.4,0.188,0.88,0.36,1.44,0.521C150.85-233.98,151.542-233.9,152.37-233.9z"/>
		</g>
	</g>
	<g id="node17">
		<title>9</title>
		<ellipse fill="none" stroke="#000000" stroke-width="2" cx="214" cy="-126" rx="18" ry="18"/>
		<g enable-background="new    ">
			<path d="M218.277-128.1c0,1.243-0.15,2.313-0.449,3.208s-0.742,1.631-1.328,2.207s-1.312,1.001-2.178,1.274
				s-1.865,0.41-2.998,0.41h-1.064v-1.484h1.182c0.84,0,1.566-0.085,2.178-0.254s1.122-0.418,1.528-0.747s0.718-0.729,0.933-1.201
				s0.348-1.011,0.4-1.616l0.039-0.4c-0.41,0.241-0.882,0.435-1.416,0.581s-1.113,0.22-1.738,0.22c-0.645,0-1.211-0.095-1.699-0.283
				s-0.894-0.452-1.216-0.791s-0.565-0.74-0.728-1.206s-0.244-0.972-0.244-1.519c0-0.593,0.107-1.146,0.322-1.66
				s0.516-0.962,0.903-1.343s0.851-0.682,1.392-0.903s1.136-0.332,1.787-0.332c0.631,0,1.216,0.104,1.753,0.313
				s1.001,0.545,1.392,1.011s0.697,1.069,0.918,1.812S218.277-129.161,218.277-128.1z M213.805-132.543
				c-0.365,0-0.702,0.061-1.011,0.181s-0.576,0.296-0.801,0.527s-0.402,0.516-0.532,0.854s-0.195,0.726-0.195,1.162
				c0,0.397,0.047,0.752,0.142,1.064s0.241,0.578,0.439,0.796s0.454,0.386,0.767,0.503s0.684,0.176,1.113,0.176
				c0.241,0,0.49-0.022,0.747-0.068s0.508-0.107,0.752-0.186s0.477-0.169,0.698-0.273s0.42-0.215,0.596-0.332
				c0-0.84-0.062-1.541-0.186-2.104s-0.303-1.016-0.537-1.357s-0.519-0.584-0.854-0.728S214.228-132.543,213.805-132.543z"/>
		</g>
	</g>
	<g id="edge16">
		<title>0-&gt;9</title>
		<path fill="none" stroke="#FF0000" stroke-width="2" d="M30.469-220.369C40.494-209.139,55.928-193.42,72-183
			c36.702,23.793,84.946,40.661,114.426,49.604"/>
		<polygon fill="#FF0000" stroke="#FF0000" points="196.382,-130.462 188.062,-137.605 191.727,-132.355 186.931,-133.77 
			186.79,-133.289 186.648,-132.811 191.444,-131.396 185.518,-128.973 196.382,-130.462 		"/>
		<g enable-background="new    ">
			<path fill="#0000FF" d="M108.99-199.1c0.426-0.107,0.99-0.221,1.69-0.341c0.7-0.119,1.51-0.18,2.43-0.18
				c0.667,0,1.227,0.09,1.68,0.271c0.453,0.18,0.833,0.443,1.14,0.79c0.093-0.067,0.24-0.16,0.44-0.28s0.447-0.236,0.74-0.351
				c0.293-0.112,0.62-0.213,0.98-0.3c0.36-0.086,0.747-0.13,1.16-0.13c0.8,0,1.453,0.117,1.96,0.351s0.903,0.563,1.19,0.989
				s0.48,0.934,0.58,1.521c0.1,0.587,0.15,1.227,0.15,1.92v5.84h-1.86v-5.44c0-0.612-0.03-1.14-0.09-1.579
				c-0.06-0.44-0.173-0.807-0.34-1.101c-0.167-0.293-0.394-0.51-0.68-0.649c-0.287-0.141-0.657-0.211-1.11-0.211
				c-0.627,0-1.144,0.084-1.55,0.25c-0.407,0.167-0.683,0.317-0.83,0.45c0.107,0.347,0.187,0.728,0.24,1.141s0.08,0.847,0.08,1.3
				v5.84h-1.86v-5.44c0-0.612-0.034-1.14-0.1-1.579c-0.067-0.44-0.184-0.807-0.35-1.101c-0.167-0.293-0.394-0.51-0.68-0.649
				c-0.287-0.141-0.65-0.211-1.09-0.211c-0.187,0-0.387,0.008-0.6,0.021c-0.213,0.014-0.417,0.03-0.61,0.05
				c-0.193,0.021-0.37,0.044-0.53,0.07c-0.16,0.026-0.267,0.047-0.32,0.06v8.78h-1.86V-199.1z"/>
		</g>
	</g>
	<g id="node23">
		<title>6</title>
		<ellipse fill="none" stroke="#000000" stroke-width="2" cx="214" cy="-18" rx="18" ry="18"/>
		<g enable-background="new    ">
			<path d="M218.502-17.043c0,0.586-0.106,1.136-0.317,1.65s-0.513,0.962-0.903,1.343s-0.861,0.681-1.411,0.898
				s-1.161,0.327-1.831,0.327c-0.703,0-1.325-0.112-1.865-0.337s-0.993-0.569-1.357-1.035s-0.641-1.053-0.83-1.763
				s-0.283-1.55-0.283-2.52c0-0.651,0.042-1.282,0.127-1.895s0.225-1.188,0.42-1.729s0.456-1.035,0.781-1.484
				s0.731-0.835,1.216-1.157s1.056-0.573,1.714-0.752s1.419-0.269,2.285-0.269h1.26v1.484h-1.367c-0.762,0-1.422,0.091-1.982,0.273
				s-1.029,0.439-1.406,0.771s-0.667,0.732-0.869,1.201s-0.329,0.993-0.381,1.572l-0.039,0.4c0.41-0.241,0.884-0.435,1.421-0.581
				s1.118-0.22,1.743-0.22c0.645,0,1.209,0.095,1.694,0.283s0.889,0.451,1.211,0.786s0.565,0.737,0.728,1.206
				S218.502-17.603,218.502-17.043z M216.725-16.936c0-0.391-0.047-0.744-0.142-1.06s-0.243-0.583-0.444-0.801
				s-0.458-0.388-0.767-0.508s-0.679-0.181-1.108-0.181c-0.248,0-0.498,0.022-0.752,0.068s-0.503,0.109-0.747,0.19
				s-0.477,0.174-0.698,0.278s-0.423,0.215-0.605,0.332c0,0.84,0.059,1.541,0.176,2.104s0.292,1.014,0.522,1.353
				s0.516,0.579,0.854,0.723s0.729,0.215,1.172,0.215c0.371,0,0.711-0.061,1.021-0.181s0.576-0.298,0.801-0.532
				s0.4-0.52,0.527-0.854S216.725-16.506,216.725-16.936z"/>
		</g>
	</g>
	<g id="edge22">
		<title>0-&gt;6</title>
		<path fill="none" stroke="#000000" stroke-width="2" d="M22.519-216.16C28.591-189.236,43.25-137.781,72-104
			c31.861,37.437,84.287,63.302,115.442,76.304"/>
		<polygon stroke="#000000" points="196.757,-23.929 189.174,-31.85 192.31,-26.267 187.675,-28.142 187.487,-27.679 187.3,-27.215 
			191.935,-25.34 185.8,-23.507 196.757,-23.929 		"/>
		<g enable-background="new    ">
			<path fill="#0000FF" d="M96.09-111.34c0.76,0,1.323-0.101,1.69-0.3c0.367-0.2,0.55-0.521,0.55-0.96c0-0.453-0.18-0.813-0.54-1.08
				c-0.36-0.267-0.954-0.566-1.78-0.9c-0.4-0.16-0.783-0.323-1.15-0.49c-0.367-0.166-0.684-0.363-0.95-0.59s-0.48-0.5-0.64-0.82
				c-0.16-0.319-0.24-0.713-0.24-1.18c0-0.92,0.34-1.649,1.02-2.189s1.606-0.811,2.78-0.811c0.293,0,0.587,0.017,0.88,0.05
				c0.293,0.034,0.566,0.074,0.82,0.12c0.253,0.047,0.477,0.097,0.67,0.15s0.343,0.1,0.45,0.14l-0.34,1.601
				c-0.2-0.107-0.514-0.217-0.94-0.33s-0.94-0.17-1.54-0.17c-0.52,0-0.973,0.104-1.36,0.31c-0.387,0.207-0.58,0.53-0.58,0.97
				c0,0.228,0.043,0.427,0.13,0.601c0.086,0.173,0.22,0.33,0.4,0.47c0.18,0.14,0.403,0.27,0.67,0.39
				c0.267,0.12,0.586,0.247,0.96,0.38c0.493,0.188,0.933,0.37,1.32,0.551c0.387,0.18,0.717,0.39,0.99,0.63
				c0.273,0.24,0.483,0.53,0.63,0.87c0.146,0.34,0.22,0.757,0.22,1.25c0,0.96-0.357,1.687-1.07,2.18s-1.73,0.74-3.05,0.74
				c-0.92,0-1.64-0.077-2.16-0.23s-0.874-0.27-1.06-0.35l0.34-1.601c0.213,0.08,0.553,0.2,1.02,0.36
				C94.697-111.42,95.317-111.34,96.09-111.34z"/>
			<path fill="#0000FF" d="M105.95-120.66c0.747,0,1.376,0.097,1.89,0.29c0.513,0.193,0.926,0.467,1.24,0.82s0.537,0.773,0.67,1.26
				c0.133,0.487,0.2,1.023,0.2,1.61v6.5c-0.16,0.026-0.383,0.063-0.67,0.109c-0.287,0.047-0.61,0.09-0.97,0.13
				c-0.36,0.04-0.75,0.077-1.17,0.11s-0.837,0.05-1.25,0.05c-0.587,0-1.127-0.06-1.62-0.18s-0.92-0.31-1.28-0.57
				c-0.36-0.26-0.64-0.603-0.84-1.029c-0.2-0.427-0.3-0.94-0.3-1.54c0-0.573,0.117-1.067,0.35-1.48s0.55-0.746,0.95-1
				c0.4-0.253,0.866-0.439,1.4-0.56c0.533-0.12,1.093-0.181,1.68-0.181c0.187,0,0.38,0.011,0.58,0.03
				c0.2,0.021,0.39,0.047,0.57,0.08c0.18,0.033,0.336,0.063,0.47,0.09c0.133,0.027,0.227,0.047,0.28,0.061v-0.521
				c0-0.307-0.034-0.61-0.1-0.91c-0.067-0.3-0.187-0.566-0.36-0.8c-0.174-0.233-0.41-0.42-0.71-0.56c-0.3-0.141-0.69-0.21-1.17-0.21
				c-0.613,0-1.15,0.043-1.61,0.13s-0.803,0.177-1.03,0.27l-0.22-1.54c0.24-0.106,0.64-0.21,1.2-0.31
				C104.69-120.61,105.297-120.66,105.95-120.66z M106.11-111.34c0.44,0,0.83-0.01,1.17-0.03c0.34-0.02,0.623-0.057,0.85-0.11v-3.1
				c-0.134-0.066-0.35-0.123-0.65-0.17c-0.3-0.047-0.664-0.07-1.09-0.07c-0.28,0-0.577,0.021-0.89,0.061
				c-0.313,0.04-0.6,0.123-0.86,0.25c-0.26,0.127-0.477,0.3-0.65,0.52c-0.173,0.221-0.26,0.51-0.26,0.87
				c0,0.667,0.213,1.13,0.64,1.39C104.797-111.47,105.377-111.34,106.11-111.34z"/>
			<path fill="#0000FF" d="M113.03-120.1c0.426-0.107,0.99-0.221,1.69-0.341c0.7-0.119,1.51-0.18,2.43-0.18
				c0.667,0,1.227,0.09,1.68,0.271c0.453,0.18,0.833,0.443,1.14,0.79c0.093-0.067,0.24-0.16,0.44-0.28s0.447-0.236,0.74-0.351
				c0.293-0.112,0.62-0.213,0.98-0.3c0.36-0.086,0.747-0.13,1.16-0.13c0.8,0,1.453,0.117,1.96,0.351s0.903,0.563,1.19,0.989
				s0.48,0.934,0.58,1.521c0.1,0.587,0.15,1.227,0.15,1.92v5.84h-1.86v-5.44c0-0.612-0.03-1.14-0.09-1.579
				c-0.06-0.44-0.173-0.807-0.34-1.101c-0.167-0.293-0.394-0.51-0.68-0.649c-0.287-0.141-0.657-0.211-1.11-0.211
				c-0.627,0-1.144,0.084-1.55,0.25c-0.407,0.167-0.683,0.317-0.83,0.45c0.107,0.347,0.187,0.728,0.24,1.141s0.08,0.847,0.08,1.3
				v5.84h-1.86v-5.44c0-0.612-0.034-1.14-0.1-1.579c-0.067-0.44-0.184-0.807-0.35-1.101c-0.167-0.293-0.394-0.51-0.68-0.649
				c-0.287-0.141-0.65-0.211-1.09-0.211c-0.187,0-0.387,0.008-0.6,0.021c-0.213,0.014-0.417,0.03-0.61,0.05
				c-0.193,0.021-0.37,0.044-0.53,0.07c-0.16,0.026-0.267,0.047-0.32,0.06v8.78h-1.86V-120.1z"/>
			<path fill="#0000FF" d="M133.89-111.9c1.026,0,1.746-0.163,2.16-0.489c0.413-0.327,0.62-0.743,0.62-1.25
				c0-0.373-0.09-0.693-0.27-0.96s-0.42-0.5-0.72-0.7c-0.3-0.2-0.646-0.38-1.04-0.54c-0.394-0.16-0.797-0.313-1.21-0.46
				c-0.4-0.146-0.797-0.311-1.19-0.49s-0.743-0.4-1.05-0.66c-0.307-0.26-0.557-0.573-0.75-0.939c-0.193-0.367-0.29-0.817-0.29-1.351
				c0-0.946,0.283-1.723,0.85-2.33c0.566-0.606,1.39-0.989,2.47-1.149v-2.3h1.66v2.239c0.586,0.027,1.133,0.101,1.64,0.221
				c0.506,0.119,0.906,0.233,1.2,0.34l-0.38,1.56c-0.32-0.12-0.72-0.243-1.2-0.37c-0.48-0.126-1.08-0.189-1.8-0.189
				c-0.8,0-1.417,0.153-1.85,0.46s-0.65,0.74-0.65,1.3c0,0.307,0.063,0.566,0.19,0.78c0.126,0.213,0.31,0.403,0.55,0.569
				c0.24,0.167,0.523,0.317,0.85,0.45c0.327,0.134,0.69,0.273,1.09,0.42c0.52,0.2,1.013,0.407,1.48,0.62
				c0.466,0.214,0.876,0.47,1.23,0.771c0.353,0.3,0.637,0.656,0.85,1.069c0.213,0.414,0.32,0.914,0.32,1.5
				c0,0.947-0.287,1.71-0.86,2.29c-0.574,0.58-1.46,0.943-2.66,1.09v2.58h-1.66v-2.52c-0.933-0.026-1.693-0.13-2.28-0.311
				c-0.587-0.18-1.027-0.35-1.32-0.51l0.5-1.5c0.4,0.188,0.88,0.36,1.44,0.521C132.37-111.98,133.063-111.9,133.89-111.9z"/>
		</g>
	</g>
	<g id="node7">
		<title>1</title>
		<ellipse fill="none" stroke="#000000" stroke-width="2" cx="410" cy="-421" rx="18" ry="18"/>
		<g enable-background="new    ">
			<path d="M414.238-416h-8.018v-1.582h3.281v-9.316l-3.057,1.66l-0.625-1.445l4.063-2.139h1.504v11.24h2.852V-416z"/>
		</g>
	</g>
	<g id="edge6">
		<title>3-&gt;1</title>
		<path fill="none" stroke="#000000" stroke-width="2" d="M230.876-348.465c33.62-13.69,112.235-45.704,152.846-62.241"/>
		<polygon stroke="#000000" points="393.177,-414.557 382.218,-414.953 388.358,-413.134 383.727,-411.248 383.915,-410.785 
			384.104,-410.322 388.735,-412.208 385.613,-406.617 393.177,-414.557 		"/>
		<g enable-background="new    ">
			<path fill="#0000FF" d="M275.71-402.76c-0.84,0-1.577-0.134-2.21-0.4c-0.634-0.267-1.167-0.64-1.6-1.12
				c-0.434-0.479-0.757-1.05-0.97-1.71s-0.32-1.39-0.32-2.189c0-0.801,0.117-1.533,0.35-2.2c0.233-0.667,0.563-1.243,0.99-1.73
				c0.427-0.486,0.95-0.866,1.57-1.14c0.62-0.273,1.31-0.41,2.07-0.41c0.467,0,0.933,0.04,1.4,0.12s0.913,0.207,1.34,0.38
				l-0.42,1.58c-0.28-0.133-0.603-0.24-0.97-0.32c-0.367-0.08-0.757-0.119-1.17-0.119c-1.04,0-1.837,0.326-2.39,0.979
				c-0.554,0.653-0.83,1.606-0.83,2.86c0,0.56,0.063,1.073,0.19,1.54c0.126,0.467,0.327,0.866,0.6,1.199
				c0.273,0.334,0.623,0.591,1.05,0.771s0.947,0.27,1.56,0.27c0.493,0,0.94-0.046,1.34-0.14c0.4-0.093,0.713-0.193,0.94-0.3
				l0.26,1.56c-0.107,0.067-0.26,0.13-0.46,0.19c-0.2,0.06-0.427,0.113-0.68,0.16c-0.253,0.046-0.523,0.086-0.81,0.12
				C276.253-402.777,275.977-402.76,275.71-402.76z"/>
			<path fill="#0000FF" d="M283.85-413.66c0.747,0,1.376,0.097,1.89,0.29c0.513,0.193,0.926,0.467,1.24,0.82s0.537,0.773,0.67,1.26
				c0.133,0.487,0.2,1.023,0.2,1.61v6.5c-0.16,0.026-0.383,0.063-0.67,0.109c-0.287,0.047-0.61,0.09-0.97,0.13
				c-0.36,0.04-0.75,0.077-1.17,0.11s-0.837,0.05-1.25,0.05c-0.587,0-1.127-0.06-1.62-0.18s-0.92-0.31-1.28-0.57
				c-0.36-0.26-0.64-0.603-0.84-1.029c-0.2-0.427-0.3-0.94-0.3-1.54c0-0.573,0.117-1.067,0.35-1.48s0.55-0.746,0.95-1
				c0.4-0.253,0.866-0.439,1.4-0.56c0.533-0.12,1.093-0.181,1.68-0.181c0.187,0,0.38,0.011,0.58,0.03
				c0.2,0.021,0.39,0.047,0.57,0.08c0.18,0.033,0.336,0.063,0.47,0.09c0.133,0.027,0.227,0.047,0.28,0.061v-0.521
				c0-0.307-0.034-0.61-0.1-0.91c-0.067-0.3-0.187-0.566-0.36-0.8c-0.174-0.233-0.41-0.42-0.71-0.56c-0.3-0.141-0.69-0.21-1.17-0.21
				c-0.613,0-1.15,0.043-1.61,0.13s-0.803,0.177-1.03,0.27l-0.22-1.54c0.24-0.106,0.64-0.21,1.2-0.31
				C282.59-413.61,283.197-413.66,283.85-413.66z M284.01-404.34c0.44,0,0.83-0.01,1.17-0.03c0.34-0.02,0.623-0.057,0.85-0.11v-3.1
				c-0.134-0.066-0.35-0.123-0.65-0.17c-0.3-0.047-0.664-0.07-1.09-0.07c-0.28,0-0.577,0.021-0.89,0.061
				c-0.313,0.04-0.6,0.123-0.86,0.25c-0.26,0.127-0.477,0.3-0.65,0.52c-0.173,0.221-0.26,0.51-0.26,0.87
				c0,0.667,0.213,1.13,0.64,1.39C282.697-404.47,283.277-404.34,284.01-404.34z"/>
			<path fill="#0000FF" d="M290.93-413.1c0.426-0.107,0.99-0.221,1.69-0.341c0.7-0.119,1.51-0.18,2.431-0.18
				c0.666,0,1.227,0.09,1.68,0.271c0.453,0.18,0.832,0.443,1.14,0.79c0.093-0.067,0.239-0.16,0.44-0.28
				c0.199-0.12,0.446-0.236,0.74-0.351c0.293-0.112,0.619-0.213,0.979-0.3c0.36-0.086,0.747-0.13,1.159-0.13
				c0.801,0,1.453,0.117,1.961,0.351c0.506,0.233,0.902,0.563,1.189,0.989s0.48,0.934,0.58,1.521s0.15,1.227,0.15,1.92v5.84h-1.86
				v-5.44c0-0.612-0.03-1.14-0.09-1.579c-0.06-0.44-0.173-0.807-0.34-1.101c-0.167-0.293-0.394-0.51-0.681-0.649
				c-0.287-0.141-0.656-0.211-1.109-0.211c-0.627,0-1.144,0.084-1.551,0.25c-0.406,0.167-0.683,0.317-0.83,0.45
				c0.107,0.347,0.188,0.728,0.24,1.141c0.054,0.413,0.08,0.847,0.08,1.3v5.84h-1.859v-5.44c0-0.612-0.033-1.14-0.1-1.579
				c-0.067-0.44-0.184-0.807-0.351-1.101c-0.167-0.293-0.394-0.51-0.681-0.649c-0.286-0.141-0.649-0.211-1.09-0.211
				c-0.187,0-0.387,0.008-0.6,0.021c-0.213,0.014-0.417,0.03-0.609,0.05c-0.194,0.021-0.371,0.044-0.531,0.07
				c-0.16,0.026-0.267,0.047-0.32,0.06v8.78h-1.86V-413.1z"/>
			<path fill="#0000FF" d="M310.57-404.34c0.76,0,1.322-0.101,1.689-0.3c0.367-0.2,0.55-0.521,0.55-0.96
				c0-0.453-0.18-0.813-0.54-1.08c-0.359-0.267-0.953-0.566-1.779-0.9c-0.4-0.16-0.783-0.323-1.15-0.49
				c-0.367-0.166-0.684-0.363-0.95-0.59s-0.479-0.5-0.64-0.82c-0.16-0.319-0.24-0.713-0.24-1.18c0-0.92,0.34-1.649,1.02-2.189
				c0.681-0.54,1.607-0.811,2.78-0.811c0.294,0,0.587,0.017,0.88,0.05c0.293,0.034,0.566,0.074,0.82,0.12
				c0.253,0.047,0.477,0.097,0.67,0.15s0.344,0.1,0.45,0.14l-0.34,1.601c-0.2-0.107-0.514-0.217-0.94-0.33s-0.939-0.17-1.54-0.17
				c-0.52,0-0.974,0.104-1.36,0.31c-0.387,0.207-0.58,0.53-0.58,0.97c0,0.228,0.044,0.427,0.131,0.601
				c0.086,0.173,0.22,0.33,0.4,0.47c0.18,0.14,0.402,0.27,0.67,0.39c0.266,0.12,0.586,0.247,0.959,0.38
				c0.494,0.188,0.934,0.37,1.32,0.551c0.387,0.18,0.717,0.39,0.99,0.63s0.482,0.53,0.63,0.87c0.146,0.34,0.22,0.757,0.22,1.25
				c0,0.96-0.356,1.687-1.07,2.18c-0.713,0.493-1.729,0.74-3.049,0.74c-0.92,0-1.641-0.077-2.16-0.23
				c-0.521-0.153-0.874-0.27-1.061-0.35l0.34-1.601c0.213,0.08,0.554,0.2,1.021,0.36C309.176-404.42,309.797-404.34,310.57-404.34z"
				/>
			<path fill="#0000FF" d="M320.43-413.66c0.746,0,1.377,0.097,1.891,0.29c0.513,0.193,0.926,0.467,1.239,0.82
				s0.536,0.773,0.67,1.26c0.134,0.487,0.2,1.023,0.2,1.61v6.5c-0.16,0.026-0.383,0.063-0.67,0.109
				c-0.287,0.047-0.609,0.09-0.971,0.13c-0.359,0.04-0.75,0.077-1.17,0.11s-0.836,0.05-1.25,0.05c-0.586,0-1.127-0.06-1.619-0.18
				c-0.494-0.12-0.92-0.31-1.28-0.57c-0.36-0.26-0.64-0.603-0.84-1.029s-0.3-0.94-0.3-1.54c0-0.573,0.116-1.067,0.35-1.48
				s0.55-0.746,0.95-1c0.399-0.253,0.866-0.439,1.399-0.56s1.094-0.181,1.681-0.181c0.187,0,0.38,0.011,0.579,0.03
				c0.201,0.021,0.391,0.047,0.57,0.08s0.337,0.063,0.471,0.09c0.133,0.027,0.227,0.047,0.279,0.061v-0.521
				c0-0.307-0.033-0.61-0.1-0.91s-0.188-0.566-0.359-0.8c-0.174-0.233-0.41-0.42-0.711-0.56c-0.3-0.141-0.689-0.21-1.17-0.21
				c-0.613,0-1.15,0.043-1.609,0.13c-0.461,0.087-0.804,0.177-1.03,0.27l-0.22-1.54c0.24-0.106,0.64-0.21,1.199-0.31
				C319.17-413.61,319.776-413.66,320.43-413.66z M320.59-404.34c0.439,0,0.83-0.01,1.17-0.03c0.34-0.02,0.623-0.057,0.85-0.11v-3.1
				c-0.133-0.066-0.35-0.123-0.649-0.17s-0.663-0.07-1.091-0.07c-0.279,0-0.576,0.021-0.89,0.061s-0.6,0.123-0.86,0.25
				c-0.26,0.127-0.477,0.3-0.649,0.52c-0.173,0.221-0.26,0.51-0.26,0.87c0,0.667,0.213,1.13,0.64,1.39
				C319.276-404.47,319.856-404.34,320.59-404.34z"/>
			<path fill="#0000FF" d="M327.51-413.1c0.426-0.107,0.99-0.221,1.689-0.341c0.701-0.119,1.51-0.18,2.431-0.18
				c0.667,0,1.227,0.09,1.68,0.271c0.453,0.18,0.833,0.443,1.14,0.79c0.094-0.067,0.24-0.16,0.44-0.28s0.446-0.236,0.74-0.351
				c0.293-0.112,0.62-0.213,0.979-0.3c0.36-0.086,0.747-0.13,1.16-0.13c0.801,0,1.453,0.117,1.96,0.351s0.903,0.563,1.19,0.989
				c0.286,0.427,0.48,0.934,0.58,1.521s0.15,1.227,0.15,1.92v5.84h-1.861v-5.44c0-0.612-0.029-1.14-0.09-1.579
				c-0.06-0.44-0.173-0.807-0.34-1.101c-0.166-0.293-0.393-0.51-0.68-0.649c-0.287-0.141-0.656-0.211-1.109-0.211
				c-0.627,0-1.145,0.084-1.551,0.25c-0.406,0.167-0.684,0.317-0.83,0.45c0.107,0.347,0.188,0.728,0.24,1.141s0.08,0.847,0.08,1.3
				v5.84h-1.859v-5.44c0-0.612-0.034-1.14-0.101-1.579c-0.067-0.44-0.184-0.807-0.351-1.101c-0.166-0.293-0.393-0.51-0.68-0.649
				c-0.287-0.141-0.65-0.211-1.09-0.211c-0.188,0-0.387,0.008-0.6,0.021c-0.214,0.014-0.418,0.03-0.61,0.05
				c-0.193,0.021-0.37,0.044-0.53,0.07s-0.267,0.047-0.32,0.06v8.78h-1.859V-413.1z"/>
			<path fill="#0000FF" d="M348.369-404.9c1.027,0,1.746-0.163,2.16-0.489c0.413-0.327,0.62-0.743,0.62-1.25
				c0-0.373-0.09-0.693-0.271-0.96c-0.18-0.267-0.42-0.5-0.72-0.7s-0.646-0.38-1.04-0.54c-0.393-0.16-0.797-0.313-1.21-0.46
				c-0.399-0.146-0.797-0.311-1.19-0.49c-0.393-0.18-0.742-0.4-1.049-0.66c-0.308-0.26-0.558-0.573-0.75-0.939
				c-0.193-0.367-0.291-0.817-0.291-1.351c0-0.946,0.283-1.723,0.851-2.33c0.566-0.606,1.39-0.989,2.47-1.149v-2.3h1.66v2.239
				c0.586,0.027,1.133,0.101,1.641,0.221c0.506,0.119,0.906,0.233,1.199,0.34l-0.38,1.56c-0.319-0.12-0.72-0.243-1.2-0.37
				c-0.48-0.126-1.08-0.189-1.8-0.189c-0.8,0-1.417,0.153-1.851,0.46c-0.433,0.307-0.649,0.74-0.649,1.3
				c0,0.307,0.063,0.566,0.19,0.78c0.126,0.213,0.31,0.403,0.55,0.569c0.239,0.167,0.522,0.317,0.85,0.45
				c0.327,0.134,0.69,0.273,1.091,0.42c0.52,0.2,1.013,0.407,1.479,0.62c0.466,0.214,0.876,0.47,1.229,0.771
				c0.354,0.3,0.637,0.656,0.851,1.069c0.213,0.414,0.319,0.914,0.319,1.5c0,0.947-0.287,1.71-0.859,2.29
				c-0.574,0.58-1.46,0.943-2.66,1.09v2.58h-1.66v-2.52c-0.934-0.026-1.693-0.13-2.279-0.311c-0.588-0.18-1.027-0.35-1.32-0.51
				l0.5-1.5c0.4,0.188,0.88,0.36,1.439,0.521C346.85-404.98,347.543-404.9,348.369-404.9z"/>
		</g>
	</g>
	<g id="node9">
		<title>7</title>
		<ellipse fill="none" stroke="#000000" stroke-width="2" cx="410" cy="-313" rx="18" ry="18"/>
		<g enable-background="new    ">
			<path d="M414.277-319.182L408.926-308h-1.943l5.557-11.182h-6.895v-1.582h8.633V-319.182z"/>
		</g>
	</g>
	<g id="edge8">
		<title>3-&gt;7</title>
		<path fill="none" stroke="#FF0000" stroke-width="2" d="M228.366-330.713C238.513-322.921,253.201-313.231,268-309
			c38.416,10.982,85.138,6.341,113.973,1.53"/>
		<polygon fill="#FF0000" stroke="#FF0000" points="392.095,-309.29 381.456,-311.949 387.085,-308.897 382.164,-308.012 
			382.253,-307.52 382.341,-307.028 387.262,-307.913 383.049,-303.091 392.095,-309.29 		"/>
		<g enable-background="new    ">
			<path fill="#0000FF" d="M304.99-325.1c0.426-0.107,0.99-0.221,1.689-0.341c0.701-0.119,1.51-0.18,2.431-0.18
				c0.667,0,1.227,0.09,1.68,0.271c0.453,0.18,0.833,0.443,1.14,0.79c0.094-0.067,0.24-0.16,0.44-0.28s0.446-0.236,0.74-0.351
				c0.293-0.112,0.62-0.213,0.979-0.3c0.36-0.086,0.747-0.13,1.16-0.13c0.801,0,1.453,0.117,1.96,0.351s0.903,0.563,1.19,0.989
				c0.286,0.427,0.48,0.934,0.58,1.521s0.15,1.227,0.15,1.92v5.84h-1.861v-5.44c0-0.612-0.029-1.14-0.09-1.579
				c-0.06-0.44-0.173-0.807-0.34-1.101c-0.166-0.293-0.393-0.51-0.68-0.649c-0.287-0.141-0.656-0.211-1.109-0.211
				c-0.627,0-1.145,0.084-1.551,0.25c-0.406,0.167-0.684,0.317-0.83,0.45c0.107,0.347,0.188,0.728,0.24,1.141s0.08,0.847,0.08,1.3
				v5.84h-1.859v-5.44c0-0.612-0.034-1.14-0.101-1.579c-0.067-0.44-0.184-0.807-0.351-1.101c-0.166-0.293-0.393-0.51-0.68-0.649
				c-0.287-0.141-0.65-0.211-1.09-0.211c-0.188,0-0.387,0.008-0.6,0.021c-0.214,0.014-0.418,0.03-0.61,0.05
				c-0.193,0.021-0.37,0.044-0.53,0.07s-0.267,0.047-0.32,0.06v8.78h-1.859V-325.1z"/>
		</g>
	</g>
	<g id="node11">
		<title>8</title>
		<ellipse fill="none" stroke="#000000" stroke-width="2" cx="568" cy="-367" rx="18" ry="18"/>
		<g enable-background="new    ">
			<path d="M572.346-365.203c0,0.54-0.111,1.021-0.332,1.44s-0.531,0.773-0.928,1.06s-0.865,0.505-1.406,0.654
				s-1.127,0.225-1.758,0.225c-0.697,0-1.311-0.078-1.841-0.234s-0.976-0.374-1.333-0.654s-0.629-0.612-0.811-0.996
				s-0.273-0.808-0.273-1.27c0-0.781,0.219-1.455,0.654-2.021s1.109-1.081,2.021-1.543c-0.834-0.423-1.441-0.894-1.826-1.411
				s-0.576-1.111-0.576-1.782c0-0.41,0.084-0.808,0.254-1.191s0.425-0.726,0.767-1.025s0.771-0.539,1.284-0.718
				s1.119-0.269,1.816-0.269c0.658,0,1.235,0.07,1.733,0.21s0.917,0.34,1.255,0.601s0.592,0.576,0.762,0.947s0.254,0.784,0.254,1.24
				c0,0.742-0.207,1.374-0.62,1.895s-1.001,0.977-1.763,1.367c0.377,0.188,0.729,0.397,1.055,0.625s0.609,0.481,0.85,0.762
				s0.428,0.593,0.562,0.938S572.346-365.626,572.346-365.203z M570.5-365.076c0-0.241-0.039-0.476-0.117-0.703
				s-0.219-0.452-0.42-0.674s-0.473-0.442-0.811-0.664s-0.768-0.449-1.289-0.684c-0.443,0.215-0.815,0.428-1.118,0.64
				s-0.547,0.427-0.732,0.645s-0.317,0.444-0.396,0.679s-0.117,0.481-0.117,0.742c0,0.293,0.063,0.552,0.19,0.776
				s0.302,0.415,0.522,0.571s0.484,0.273,0.791,0.352s0.639,0.117,0.996,0.117c0.346,0,0.67-0.036,0.977-0.107
				s0.571-0.181,0.796-0.327s0.401-0.332,0.532-0.557S570.5-364.764,570.5-365.076z M570.324-371.805
				c0-0.579-0.203-1.011-0.61-1.294s-0.978-0.425-1.714-0.425c-0.729,0-1.297,0.14-1.704,0.42s-0.61,0.7-0.61,1.26
				c0,0.254,0.049,0.488,0.146,0.703s0.249,0.417,0.454,0.605s0.46,0.374,0.767,0.557s0.67,0.368,1.094,0.557
				c0.736-0.345,1.283-0.705,1.641-1.079S570.324-371.31,570.324-371.805z"/>
		</g>
	</g>
	<g id="edge10">
		<title>7-&gt;8</title>
		<path fill="none" stroke="#FF0000" stroke-width="2" d="M427.4-318.677c27.105-9.383,81.46-28.198,113.768-39.381"/>
		<polygon fill="#FF0000" stroke="#FF0000" points="550.82,-361.399 539.898,-362.38 545.931,-360.236 541.206,-358.601 
			541.37,-358.128 541.534,-357.656 546.258,-359.291 542.842,-353.876 550.82,-361.399 		"/>
		<g enable-background="new    ">
			<path fill="#0000FF" d="M488.6-354.9c1.027,0,1.746-0.163,2.16-0.489c0.413-0.327,0.62-0.743,0.62-1.25
				c0-0.373-0.09-0.693-0.271-0.96c-0.18-0.267-0.42-0.5-0.72-0.7s-0.646-0.38-1.04-0.54c-0.393-0.16-0.797-0.313-1.21-0.46
				c-0.399-0.146-0.797-0.311-1.19-0.49c-0.393-0.18-0.742-0.4-1.049-0.66c-0.308-0.26-0.558-0.573-0.75-0.939
				c-0.193-0.367-0.291-0.817-0.291-1.351c0-0.946,0.283-1.723,0.851-2.33c0.566-0.606,1.39-0.989,2.47-1.149v-2.3h1.66v2.239
				c0.586,0.027,1.133,0.101,1.641,0.221c0.506,0.119,0.906,0.233,1.199,0.34l-0.38,1.56c-0.319-0.12-0.72-0.243-1.2-0.37
				c-0.48-0.126-1.08-0.189-1.8-0.189c-0.8,0-1.417,0.153-1.851,0.46c-0.433,0.307-0.649,0.74-0.649,1.3
				c0,0.307,0.063,0.566,0.19,0.78c0.126,0.213,0.31,0.403,0.55,0.569c0.239,0.167,0.522,0.317,0.85,0.45
				c0.327,0.134,0.69,0.273,1.091,0.42c0.52,0.2,1.013,0.407,1.479,0.62c0.466,0.214,0.876,0.47,1.229,0.771
				c0.354,0.3,0.637,0.656,0.851,1.069c0.213,0.414,0.319,0.914,0.319,1.5c0,0.947-0.287,1.71-0.859,2.29
				c-0.574,0.58-1.46,0.943-2.66,1.09v2.58h-1.66v-2.52c-0.934-0.026-1.693-0.13-2.279-0.311c-0.588-0.18-1.027-0.35-1.32-0.51
				l0.5-1.5c0.4,0.188,0.88,0.36,1.439,0.521C487.08-354.98,487.773-354.9,488.6-354.9z"/>
		</g>
	</g>
	<g id="node13">
		<title>4</title>
		<ellipse fill="none" stroke="#000000" stroke-width="2" cx="568" cy="-259" rx="18" ry="18"/>
		<g enable-background="new    ">
			<path d="M572.98-256.822h-2.178V-254h-1.738v-2.822h-6.143v-1.494l5.439-8.447h2.441v8.447h2.178V-256.822z M569.064-265.123
				l-4.443,6.807h4.443V-265.123z"/>
		</g>
	</g>
	<g id="edge12">
		<title>7-&gt;4</title>
		<path fill="none" stroke="#FF0000" stroke-width="2" d="M427.13-306.282c10.447,4.269,24.383,9.814,36.87,14.282
			c25.862,9.255,55.8,18.708,76.711,25.111"/>
		<polygon fill="#FF0000" stroke="#FF0000" points="550.474,-263.92 542.215,-271.135 545.835,-265.853 541.052,-267.308 
			540.906,-266.83 540.761,-266.351 545.544,-264.897 539.597,-262.524 550.474,-263.92 		"/>
		<g enable-background="new    ">
			<path fill="#0000FF" d="M469.09-299.34c0.76,0,1.324-0.101,1.69-0.3c0.366-0.2,0.55-0.521,0.55-0.96
				c0-0.453-0.18-0.813-0.539-1.08c-0.361-0.267-0.954-0.566-1.781-0.9c-0.399-0.16-0.783-0.323-1.149-0.49
				c-0.366-0.166-0.684-0.363-0.95-0.59s-0.48-0.5-0.64-0.82c-0.16-0.319-0.24-0.713-0.24-1.18c0-0.92,0.34-1.649,1.021-2.189
				c0.68-0.54,1.605-0.811,2.779-0.811c0.293,0,0.587,0.017,0.881,0.05c0.293,0.034,0.566,0.074,0.819,0.12
				c0.253,0.047,0.477,0.097,0.67,0.15s0.343,0.1,0.45,0.14l-0.34,1.601c-0.2-0.107-0.514-0.217-0.94-0.33s-0.94-0.17-1.54-0.17
				c-0.52,0-0.973,0.104-1.359,0.31c-0.387,0.207-0.58,0.53-0.58,0.97c0,0.228,0.043,0.427,0.13,0.601
				c0.087,0.173,0.22,0.33,0.399,0.47s0.403,0.27,0.67,0.39c0.268,0.12,0.587,0.247,0.961,0.38c0.492,0.188,0.933,0.37,1.319,0.551
				c0.387,0.18,0.717,0.39,0.99,0.63c0.272,0.24,0.483,0.53,0.63,0.87s0.221,0.757,0.221,1.25c0,0.96-0.357,1.687-1.07,2.18
				c-0.714,0.493-1.73,0.74-3.051,0.74c-0.92,0-1.64-0.077-2.16-0.23c-0.52-0.153-0.873-0.27-1.06-0.35l0.341-1.601
				c0.213,0.08,0.553,0.2,1.02,0.36S468.316-299.34,469.09-299.34z"/>
			<path fill="#0000FF" d="M478.95-308.66c0.747,0,1.376,0.097,1.89,0.29s0.927,0.467,1.24,0.82s0.537,0.773,0.67,1.26
				c0.133,0.487,0.2,1.023,0.2,1.61v6.5c-0.16,0.026-0.384,0.063-0.67,0.109c-0.287,0.047-0.61,0.09-0.97,0.13
				c-0.36,0.04-0.75,0.077-1.17,0.11s-0.838,0.05-1.25,0.05c-0.588,0-1.127-0.06-1.621-0.18c-0.492-0.12-0.92-0.31-1.279-0.57
				c-0.359-0.26-0.641-0.603-0.84-1.029c-0.2-0.427-0.301-0.94-0.301-1.54c0-0.573,0.117-1.067,0.351-1.48s0.55-0.746,0.95-1
				c0.4-0.253,0.866-0.439,1.4-0.56c0.533-0.12,1.093-0.181,1.68-0.181c0.187,0,0.38,0.011,0.58,0.03
				c0.199,0.021,0.39,0.047,0.57,0.08c0.18,0.033,0.336,0.063,0.469,0.09c0.134,0.027,0.227,0.047,0.281,0.061v-0.521
				c0-0.307-0.034-0.61-0.101-0.91c-0.067-0.3-0.187-0.566-0.36-0.8s-0.41-0.42-0.709-0.56c-0.301-0.141-0.691-0.21-1.171-0.21
				c-0.613,0-1.149,0.043-1.61,0.13c-0.459,0.087-0.803,0.177-1.029,0.27l-0.221-1.54c0.24-0.106,0.641-0.21,1.201-0.31
				C477.69-308.61,478.297-308.66,478.95-308.66z M479.11-299.34c0.44,0,0.83-0.01,1.17-0.03c0.34-0.02,0.623-0.057,0.851-0.11v-3.1
				c-0.135-0.066-0.351-0.123-0.65-0.17c-0.301-0.047-0.664-0.07-1.09-0.07c-0.28,0-0.577,0.021-0.891,0.061
				c-0.313,0.04-0.6,0.123-0.859,0.25s-0.477,0.3-0.65,0.52c-0.174,0.221-0.26,0.51-0.26,0.87c0,0.667,0.213,1.13,0.64,1.39
				C477.797-299.47,478.377-299.34,479.11-299.34z"/>
			<path fill="#0000FF" d="M486.03-308.1c0.427-0.107,0.989-0.221,1.69-0.341c0.699-0.119,1.51-0.18,2.43-0.18
				c0.666,0,1.227,0.09,1.68,0.271c0.453,0.18,0.833,0.443,1.141,0.79c0.093-0.067,0.239-0.16,0.439-0.28s0.447-0.236,0.74-0.351
				c0.293-0.112,0.619-0.213,0.98-0.3c0.359-0.086,0.746-0.13,1.159-0.13c0.8,0,1.453,0.117,1.96,0.351s0.903,0.563,1.189,0.989
				c0.287,0.427,0.48,0.934,0.58,1.521c0.101,0.587,0.15,1.227,0.15,1.92v5.84h-1.859v-5.44c0-0.612-0.03-1.14-0.09-1.579
				c-0.061-0.44-0.174-0.807-0.34-1.101c-0.168-0.293-0.395-0.51-0.681-0.649c-0.287-0.141-0.657-0.211-1.11-0.211
				c-0.627,0-1.143,0.084-1.55,0.25c-0.407,0.167-0.683,0.317-0.83,0.45c0.106,0.347,0.187,0.728,0.24,1.141s0.08,0.847,0.08,1.3
				v5.84h-1.86v-5.44c0-0.612-0.033-1.14-0.1-1.579c-0.066-0.44-0.184-0.807-0.35-1.101c-0.168-0.293-0.395-0.51-0.681-0.649
				c-0.286-0.141-0.649-0.211-1.09-0.211c-0.187,0-0.387,0.008-0.601,0.021c-0.213,0.014-0.416,0.03-0.609,0.05
				c-0.193,0.021-0.37,0.044-0.53,0.07c-0.159,0.026-0.267,0.047-0.319,0.06v8.78h-1.86V-308.1z"/>
			<path fill="#0000FF" d="M506.891-299.9c1.025,0,1.746-0.163,2.159-0.489c0.413-0.327,0.62-0.743,0.62-1.25
				c0-0.373-0.09-0.693-0.27-0.96c-0.181-0.267-0.42-0.5-0.721-0.7c-0.3-0.2-0.646-0.38-1.039-0.54
				c-0.395-0.16-0.797-0.313-1.211-0.46c-0.4-0.146-0.797-0.311-1.189-0.49c-0.394-0.18-0.744-0.4-1.051-0.66
				s-0.557-0.573-0.75-0.939c-0.193-0.367-0.289-0.817-0.289-1.351c0-0.946,0.283-1.723,0.85-2.33
				c0.566-0.606,1.391-0.989,2.47-1.149v-2.3h1.66v2.239c0.587,0.027,1.134,0.101,1.64,0.221c0.507,0.119,0.906,0.233,1.2,0.34
				l-0.38,1.56c-0.32-0.12-0.72-0.243-1.199-0.37c-0.48-0.126-1.08-0.189-1.801-0.189c-0.8,0-1.417,0.153-1.85,0.46
				c-0.434,0.307-0.65,0.74-0.65,1.3c0,0.307,0.063,0.566,0.189,0.78c0.127,0.213,0.311,0.403,0.551,0.569
				c0.24,0.167,0.523,0.317,0.85,0.45c0.326,0.134,0.69,0.273,1.09,0.42c0.521,0.2,1.014,0.407,1.48,0.62
				c0.467,0.214,0.877,0.47,1.23,0.771c0.353,0.3,0.637,0.656,0.85,1.069c0.213,0.414,0.32,0.914,0.32,1.5
				c0,0.947-0.287,1.71-0.86,2.29s-1.46,0.943-2.66,1.09v2.58h-1.66v-2.52c-0.933-0.026-1.693-0.13-2.28-0.311
				c-0.586-0.18-1.026-0.35-1.319-0.51l0.5-1.5c0.399,0.188,0.88,0.36,1.44,0.521C505.37-299.98,506.063-299.9,506.891-299.9z"/>
		</g>
	</g>
	<g id="node19">
		<title>10</title>
		<ellipse fill="none" stroke="#000000" stroke-width="2" cx="410" cy="-180" rx="18" ry="18"/>
		<g enable-background="new    ">
			<path d="M408.74-175h-8.018v-1.582h3.281v-9.316l-3.057,1.66l-0.625-1.445l4.063-2.139h1.504v11.24h2.852V-175z"/>
			<path d="M420.137-181.377c0,0.977-0.098,1.867-0.293,2.671s-0.492,1.494-0.889,2.07s-0.891,1.022-1.479,1.338
				s-1.28,0.474-2.075,0.474c-0.684,0-1.305-0.129-1.865-0.386s-1.039-0.652-1.436-1.187s-0.703-1.214-0.918-2.041
				s-0.322-1.807-0.322-2.939c0-0.977,0.1-1.868,0.298-2.676s0.495-1.499,0.889-2.075s0.888-1.022,1.479-1.338
				s1.283-0.474,2.07-0.474c0.684,0,1.305,0.129,1.865,0.386s1.039,0.654,1.436,1.191s0.703,1.219,0.918,2.046
				S420.137-182.51,420.137-181.377z M412.578-181.436c0,0.202,0.002,0.403,0.005,0.605s0.015,0.397,0.034,0.586l5.4-3.994
				c-0.098-0.332-0.221-0.635-0.371-0.908s-0.328-0.51-0.537-0.708s-0.445-0.354-0.713-0.464s-0.566-0.166-0.898-0.166
				c-0.443,0-0.845,0.107-1.206,0.322s-0.669,0.535-0.923,0.962s-0.449,0.954-0.586,1.582S412.578-182.263,412.578-181.436z
				 M418.418-181.318c0-0.222-0.008-0.441-0.024-0.659s-0.034-0.432-0.054-0.64l-5.4,4.014c0.098,0.339,0.221,0.651,0.371,0.938
				s0.33,0.532,0.542,0.737s0.452,0.364,0.723,0.479s0.577,0.171,0.923,0.171c0.443,0,0.845-0.107,1.206-0.322
				s0.669-0.534,0.923-0.957s0.449-0.949,0.586-1.577S418.418-180.491,418.418-181.318z"/>
		</g>
	</g>
	<g id="edge18">
		<title>9-&gt;10</title>
		<path fill="none" stroke="#FF0000" stroke-width="2" d="M231.54-130.604c33.717-9.386,110.631-30.795,151.236-42.097"/>
		<polygon fill="#FF0000" stroke="#FF0000" points="392.502,-175.408 381.661,-177.061 387.551,-174.549 382.734,-173.208 
			382.868,-172.727 383.002,-172.244 387.819,-173.585 384.075,-168.391 392.502,-175.408 		"/>
		<g enable-background="new    ">
			<path fill="#0000FF" d="M311.6-171.9c1.027,0,1.746-0.163,2.16-0.489c0.413-0.327,0.62-0.743,0.62-1.25
				c0-0.373-0.09-0.693-0.271-0.96c-0.18-0.267-0.42-0.5-0.72-0.7s-0.646-0.38-1.04-0.54c-0.393-0.16-0.797-0.313-1.21-0.46
				c-0.399-0.146-0.797-0.311-1.19-0.49c-0.393-0.18-0.742-0.4-1.049-0.66c-0.308-0.26-0.558-0.573-0.75-0.939
				c-0.193-0.367-0.291-0.817-0.291-1.351c0-0.946,0.283-1.723,0.851-2.33c0.566-0.606,1.39-0.989,2.47-1.149v-2.3h1.66v2.239
				c0.586,0.027,1.133,0.101,1.641,0.221c0.506,0.119,0.906,0.233,1.199,0.34l-0.38,1.56c-0.319-0.12-0.72-0.243-1.2-0.37
				c-0.48-0.126-1.08-0.189-1.8-0.189c-0.8,0-1.417,0.153-1.851,0.46c-0.433,0.307-0.649,0.74-0.649,1.3
				c0,0.307,0.063,0.566,0.19,0.78c0.126,0.213,0.31,0.403,0.55,0.569c0.239,0.167,0.522,0.317,0.85,0.45
				c0.327,0.134,0.69,0.273,1.091,0.42c0.52,0.2,1.013,0.407,1.479,0.62c0.466,0.214,0.876,0.47,1.229,0.771
				c0.354,0.3,0.637,0.656,0.851,1.069c0.213,0.414,0.319,0.914,0.319,1.5c0,0.947-0.287,1.71-0.859,2.29
				c-0.574,0.58-1.46,0.943-2.66,1.09v2.58h-1.66v-2.52c-0.934-0.026-1.693-0.13-2.279-0.311c-0.588-0.18-1.027-0.35-1.32-0.51
				l0.5-1.5c0.4,0.188,0.88,0.36,1.439,0.521C310.08-171.98,310.773-171.9,311.6-171.9z"/>
		</g>
	</g>
	<g id="node21">
		<title>5</title>
		<ellipse fill="none" stroke="#000000" stroke-width="2" cx="410" cy="-72" rx="18" ry="18"/>
		<g enable-background="new    ">
			<path d="M414.023-71.082c0,0.632-0.137,1.208-0.41,1.729s-0.649,0.969-1.128,1.343s-1.044,0.666-1.694,0.874
				s-1.354,0.313-2.109,0.313c-0.189,0-0.393-0.005-0.61-0.015s-0.435-0.022-0.649-0.039s-0.425-0.034-0.63-0.054
				s-0.39-0.042-0.552-0.068v-1.543c0.352,0.085,0.754,0.146,1.206,0.186s0.909,0.059,1.372,0.059c0.521,0,0.99-0.062,1.406-0.186
				s0.771-0.301,1.064-0.532s0.518-0.511,0.674-0.84s0.234-0.698,0.234-1.108c0-0.794-0.285-1.372-0.854-1.733
				s-1.388-0.542-2.456-0.542h-2.422v-6.523h6.875v1.484h-5.273v3.584h1.113c0.611,0,1.207,0.056,1.787,0.166
				s1.096,0.305,1.548,0.581s0.817,0.647,1.094,1.113S414.023-71.785,414.023-71.082z"/>
		</g>
	</g>
	<g id="edge20">
		<title>9-&gt;5</title>
		<path fill="none" stroke="#FF0000" stroke-width="2" d="M230.416-117.95c10.391,5.157,24.533,11.662,37.584,15.95
			c38.583,12.676,84.905,21.336,113.653,25.978"/>
		<polygon fill="#FF0000" stroke="#FF0000" points="391.757,-74.439 382.574,-80.434 386.895,-75.707 381.955,-76.48 
			381.878,-75.987 381.8,-75.493 386.74,-74.72 381.181,-71.541 391.757,-74.439 		"/>
		<g enable-background="new    ">
			<path fill="#0000FF" d="M292.09-109.34c0.76,0,1.323-0.101,1.69-0.3c0.366-0.2,0.55-0.521,0.55-0.96
				c0-0.453-0.18-0.813-0.539-1.08c-0.361-0.267-0.954-0.566-1.781-0.9c-0.4-0.16-0.783-0.323-1.15-0.49
				c-0.367-0.166-0.684-0.363-0.95-0.59s-0.48-0.5-0.64-0.82c-0.16-0.319-0.24-0.713-0.24-1.18c0-0.92,0.34-1.649,1.02-2.189
				s1.606-0.811,2.78-0.811c0.293,0,0.587,0.017,0.881,0.05c0.293,0.034,0.566,0.074,0.819,0.12c0.253,0.047,0.477,0.097,0.67,0.15
				s0.343,0.1,0.45,0.14l-0.34,1.601c-0.2-0.107-0.514-0.217-0.94-0.33s-0.94-0.17-1.54-0.17c-0.52,0-0.973,0.104-1.36,0.31
				c-0.387,0.207-0.58,0.53-0.58,0.97c0,0.228,0.043,0.427,0.13,0.601c0.086,0.173,0.22,0.33,0.4,0.47
				c0.18,0.14,0.403,0.27,0.67,0.39c0.267,0.12,0.586,0.247,0.96,0.38c0.493,0.188,0.933,0.37,1.32,0.551
				c0.387,0.18,0.717,0.39,0.99,0.63c0.272,0.24,0.483,0.53,0.63,0.87s0.221,0.757,0.221,1.25c0,0.96-0.357,1.687-1.07,2.18
				c-0.714,0.493-1.73,0.74-3.05,0.74c-0.92,0-1.64-0.077-2.16-0.23s-0.874-0.27-1.06-0.35l0.34-1.601
				c0.213,0.08,0.553,0.2,1.02,0.36C290.697-109.42,291.317-109.34,292.09-109.34z"/>
			<path fill="#0000FF" d="M301.95-118.66c0.747,0,1.376,0.097,1.89,0.29s0.927,0.467,1.24,0.82s0.537,0.773,0.67,1.26
				c0.133,0.487,0.2,1.023,0.2,1.61v6.5c-0.16,0.026-0.384,0.063-0.67,0.109c-0.287,0.047-0.61,0.09-0.97,0.13
				c-0.36,0.04-0.75,0.077-1.17,0.11s-0.838,0.05-1.25,0.05c-0.588,0-1.127-0.06-1.621-0.18c-0.492-0.12-0.92-0.31-1.279-0.57
				c-0.359-0.26-0.641-0.603-0.84-1.029c-0.2-0.427-0.301-0.94-0.301-1.54c0-0.573,0.117-1.067,0.351-1.48s0.55-0.746,0.95-1
				c0.4-0.253,0.866-0.439,1.4-0.56c0.533-0.12,1.093-0.181,1.68-0.181c0.187,0,0.38,0.011,0.58,0.03
				c0.199,0.021,0.39,0.047,0.57,0.08c0.18,0.033,0.336,0.063,0.469,0.09c0.134,0.027,0.227,0.047,0.281,0.061v-0.521
				c0-0.307-0.034-0.61-0.101-0.91c-0.067-0.3-0.187-0.566-0.36-0.8s-0.41-0.42-0.709-0.56c-0.301-0.141-0.691-0.21-1.171-0.21
				c-0.613,0-1.149,0.043-1.61,0.13c-0.459,0.087-0.803,0.177-1.029,0.27l-0.221-1.54c0.24-0.106,0.641-0.21,1.201-0.31
				C300.69-118.61,301.297-118.66,301.95-118.66z M302.11-109.34c0.44,0,0.83-0.01,1.17-0.03c0.34-0.02,0.623-0.057,0.851-0.11v-3.1
				c-0.135-0.066-0.351-0.123-0.65-0.17c-0.301-0.047-0.664-0.07-1.09-0.07c-0.28,0-0.577,0.021-0.891,0.061
				c-0.313,0.04-0.6,0.123-0.859,0.25s-0.477,0.3-0.65,0.52c-0.174,0.221-0.26,0.51-0.26,0.87c0,0.667,0.213,1.13,0.64,1.39
				C300.797-109.47,301.377-109.34,302.11-109.34z"/>
			<path fill="#0000FF" d="M309.03-118.1c0.427-0.107,0.989-0.221,1.69-0.341c0.699-0.119,1.51-0.18,2.43-0.18
				c0.666,0,1.227,0.09,1.68,0.271c0.453,0.18,0.833,0.443,1.141,0.79c0.093-0.067,0.239-0.16,0.439-0.28s0.447-0.236,0.74-0.351
				c0.293-0.112,0.619-0.213,0.98-0.3c0.359-0.086,0.746-0.13,1.159-0.13c0.8,0,1.453,0.117,1.96,0.351s0.903,0.563,1.189,0.989
				c0.287,0.427,0.48,0.934,0.58,1.521c0.101,0.587,0.15,1.227,0.15,1.92v5.84h-1.859v-5.44c0-0.612-0.03-1.14-0.09-1.579
				c-0.061-0.44-0.174-0.807-0.34-1.101c-0.168-0.293-0.395-0.51-0.681-0.649c-0.287-0.141-0.657-0.211-1.11-0.211
				c-0.627,0-1.143,0.084-1.55,0.25c-0.407,0.167-0.683,0.317-0.83,0.45c0.106,0.347,0.187,0.728,0.24,1.141s0.08,0.847,0.08,1.3
				v5.84h-1.86v-5.44c0-0.612-0.033-1.14-0.1-1.579c-0.066-0.44-0.184-0.807-0.35-1.101c-0.168-0.293-0.395-0.51-0.681-0.649
				c-0.286-0.141-0.649-0.211-1.09-0.211c-0.187,0-0.387,0.008-0.601,0.021c-0.213,0.014-0.416,0.03-0.609,0.05
				c-0.193,0.021-0.37,0.044-0.53,0.07c-0.159,0.026-0.267,0.047-0.319,0.06v8.78h-1.86V-118.1z"/>
			<path fill="#0000FF" d="M329.891-109.9c1.025,0,1.746-0.163,2.159-0.489c0.413-0.327,0.62-0.743,0.62-1.25
				c0-0.373-0.09-0.693-0.27-0.96c-0.181-0.267-0.42-0.5-0.721-0.7c-0.3-0.2-0.646-0.38-1.039-0.54
				c-0.395-0.16-0.797-0.313-1.211-0.46c-0.4-0.146-0.797-0.311-1.189-0.49c-0.394-0.18-0.744-0.4-1.051-0.66
				s-0.557-0.573-0.75-0.939c-0.193-0.367-0.289-0.817-0.289-1.351c0-0.946,0.283-1.723,0.85-2.33
				c0.566-0.606,1.391-0.989,2.47-1.149v-2.3h1.66v2.239c0.587,0.027,1.134,0.101,1.64,0.221c0.507,0.119,0.906,0.233,1.2,0.34
				l-0.38,1.56c-0.32-0.12-0.72-0.243-1.199-0.37c-0.48-0.126-1.08-0.189-1.801-0.189c-0.8,0-1.417,0.153-1.85,0.46
				c-0.434,0.307-0.65,0.74-0.65,1.3c0,0.307,0.063,0.566,0.189,0.78c0.127,0.213,0.311,0.403,0.551,0.569
				c0.24,0.167,0.523,0.317,0.85,0.45c0.326,0.134,0.69,0.273,1.09,0.42c0.521,0.2,1.014,0.407,1.48,0.62
				c0.467,0.214,0.877,0.47,1.23,0.771c0.353,0.3,0.637,0.656,0.85,1.069c0.213,0.414,0.32,0.914,0.32,1.5
				c0,0.947-0.287,1.71-0.86,2.29s-1.46,0.943-2.66,1.09v2.58h-1.66v-2.52c-0.933-0.026-1.693-0.13-2.28-0.311
				c-0.586-0.18-1.026-0.35-1.319-0.51l0.5-1.5c0.399,0.188,0.88,0.36,1.44,0.521C328.37-109.98,329.063-109.9,329.891-109.9z"/>
		</g>
	</g>
</g>
<g>
	<path fill="#4F4F4F" d="M26.96,443.34c0.747,0,1.377,0.098,1.89,0.29c0.514,0.193,0.927,0.467,1.24,0.82
		c0.313,0.353,0.537,0.773,0.67,1.26c0.134,0.487,0.2,1.023,0.2,1.61v6.5c-0.16,0.026-0.384,0.063-0.67,0.109
		c-0.287,0.047-0.61,0.09-0.97,0.131c-0.36,0.039-0.75,0.076-1.17,0.109s-0.837,0.051-1.25,0.051c-0.587,0-1.127-0.061-1.62-0.181
		s-0.92-0.31-1.28-0.569c-0.36-0.261-0.64-0.604-0.84-1.031c-0.2-0.426-0.3-0.939-0.3-1.539c0-0.574,0.117-1.066,0.35-1.48
		c0.233-0.413,0.55-0.746,0.95-1c0.4-0.253,0.866-0.439,1.4-0.561c0.533-0.119,1.093-0.18,1.68-0.18c0.187,0,0.38,0.01,0.58,0.03
		c0.199,0.021,0.39,0.047,0.569,0.08c0.181,0.033,0.337,0.063,0.471,0.09c0.133,0.026,0.227,0.047,0.279,0.06v-0.52
		c0-0.307-0.033-0.609-0.1-0.91c-0.067-0.3-0.187-0.566-0.36-0.8c-0.173-0.233-0.41-0.42-0.71-0.56
		c-0.3-0.141-0.69-0.211-1.17-0.211c-0.613,0-1.15,0.044-1.61,0.131c-0.46,0.086-0.803,0.177-1.03,0.27l-0.22-1.54
		c0.24-0.106,0.64-0.21,1.2-0.31S26.307,443.34,26.96,443.34z M27.12,452.66c0.44,0,0.83-0.01,1.17-0.03s0.623-0.057,0.85-0.11v-3.1
		c-0.133-0.066-0.35-0.123-0.649-0.17s-0.664-0.07-1.09-0.07c-0.28,0-0.577,0.021-0.89,0.061c-0.313,0.039-0.6,0.123-0.86,0.25
		c-0.26,0.127-0.477,0.3-0.65,0.52c-0.173,0.221-0.26,0.51-0.26,0.87c0,0.667,0.213,1.13,0.64,1.39S26.387,452.66,27.12,452.66z"/>
	<path fill="#4F4F4F" d="M38.56,454.24c-0.84,0-1.577-0.134-2.21-0.4c-0.634-0.267-1.167-0.64-1.601-1.119
		c-0.433-0.48-0.757-1.051-0.97-1.711s-0.32-1.39-0.32-2.189c0-0.801,0.117-1.533,0.351-2.2s0.563-1.243,0.99-1.729
		c0.426-0.487,0.949-0.867,1.569-1.141s1.311-0.41,2.07-0.41c0.467,0,0.934,0.04,1.4,0.12c0.466,0.08,0.913,0.207,1.34,0.38
		l-0.42,1.58c-0.28-0.133-0.604-0.24-0.971-0.32c-0.366-0.08-0.757-0.119-1.17-0.119c-1.04,0-1.837,0.326-2.39,0.979
		c-0.554,0.653-0.83,1.606-0.83,2.86c0,0.56,0.063,1.073,0.19,1.539c0.126,0.467,0.326,0.867,0.6,1.201
		c0.273,0.333,0.623,0.59,1.05,0.77s0.946,0.27,1.561,0.27c0.493,0,0.939-0.047,1.34-0.14c0.399-0.093,0.713-0.192,0.939-0.3
		l0.261,1.561c-0.107,0.066-0.261,0.129-0.46,0.189c-0.2,0.061-0.428,0.113-0.681,0.16s-0.523,0.086-0.81,0.119
		C39.103,454.223,38.826,454.24,38.56,454.24z"/>
	<path fill="#4F4F4F" d="M46.699,443.34c0.747,0,1.377,0.098,1.89,0.29c0.514,0.193,0.927,0.467,1.24,0.82
		c0.313,0.353,0.537,0.773,0.67,1.26c0.134,0.487,0.2,1.023,0.2,1.61v6.5c-0.16,0.026-0.384,0.063-0.67,0.109
		c-0.287,0.047-0.61,0.09-0.97,0.131c-0.36,0.039-0.75,0.076-1.17,0.109s-0.837,0.051-1.25,0.051c-0.587,0-1.127-0.061-1.62-0.181
		c-0.494-0.12-0.92-0.31-1.28-0.569c-0.36-0.261-0.64-0.604-0.84-1.031c-0.2-0.426-0.3-0.939-0.3-1.539
		c0-0.574,0.116-1.066,0.35-1.48c0.233-0.413,0.55-0.746,0.95-1c0.399-0.253,0.866-0.439,1.399-0.561
		c0.533-0.119,1.094-0.18,1.681-0.18c0.187,0,0.38,0.01,0.58,0.03c0.199,0.021,0.39,0.047,0.569,0.08
		c0.181,0.033,0.337,0.063,0.471,0.09c0.133,0.026,0.227,0.047,0.279,0.06v-0.52c0-0.307-0.033-0.609-0.1-0.91
		c-0.067-0.3-0.187-0.566-0.36-0.8c-0.173-0.233-0.41-0.42-0.71-0.56c-0.3-0.141-0.689-0.211-1.17-0.211
		c-0.613,0-1.149,0.044-1.609,0.131c-0.46,0.086-0.804,0.177-1.03,0.27l-0.22-1.54c0.239-0.106,0.64-0.21,1.199-0.31
		C45.439,443.391,46.046,443.34,46.699,443.34z M46.859,452.66c0.439,0,0.83-0.01,1.17-0.03s0.623-0.057,0.85-0.11v-3.1
		c-0.133-0.066-0.35-0.123-0.649-0.17s-0.664-0.07-1.09-0.07c-0.28,0-0.577,0.021-0.891,0.061c-0.313,0.039-0.6,0.123-0.859,0.25
		c-0.261,0.127-0.478,0.3-0.65,0.52c-0.174,0.221-0.26,0.51-0.26,0.87c0,0.667,0.213,1.13,0.64,1.39S46.126,452.66,46.859,452.66z"
		/>
	<path fill="#4F4F4F" d="M53.779,443.9c0.427-0.107,0.99-0.221,1.69-0.34c0.7-0.121,1.51-0.181,2.43-0.181
		c0.667,0,1.227,0.091,1.681,0.271c0.453,0.18,0.833,0.443,1.14,0.789c0.093-0.066,0.24-0.16,0.44-0.279
		c0.199-0.12,0.446-0.236,0.739-0.35s0.62-0.214,0.98-0.301c0.359-0.086,0.746-0.13,1.16-0.13c0.8,0,1.453,0.117,1.96,0.351
		c0.506,0.232,0.902,0.563,1.189,0.99c0.287,0.426,0.48,0.933,0.58,1.52c0.101,0.586,0.15,1.227,0.15,1.92V454h-1.86v-5.439
		c0-0.613-0.03-1.141-0.09-1.58c-0.06-0.44-0.174-0.807-0.34-1.101c-0.167-0.293-0.394-0.51-0.681-0.649
		c-0.286-0.141-0.656-0.211-1.109-0.211c-0.627,0-1.144,0.084-1.55,0.25c-0.407,0.168-0.684,0.317-0.83,0.451
		c0.106,0.346,0.187,0.727,0.239,1.139c0.054,0.414,0.08,0.848,0.08,1.301V454H59.92v-5.439c0-0.613-0.033-1.141-0.101-1.58
		c-0.066-0.44-0.183-0.807-0.35-1.101c-0.167-0.293-0.394-0.51-0.68-0.649c-0.287-0.141-0.65-0.211-1.091-0.211
		c-0.187,0-0.387,0.008-0.6,0.021s-0.417,0.03-0.61,0.05s-0.369,0.043-0.529,0.07s-0.268,0.047-0.32,0.061V454h-1.86V443.9z"/>
	<path fill="#4F4F4F" d="M73.419,452.66c0.761,0,1.323-0.1,1.69-0.301c0.366-0.199,0.55-0.52,0.55-0.959
		c0-0.453-0.18-0.813-0.54-1.08c-0.359-0.268-0.953-0.566-1.779-0.9c-0.4-0.16-0.784-0.323-1.15-0.49
		c-0.367-0.166-0.684-0.363-0.95-0.59s-0.479-0.5-0.64-0.82c-0.16-0.319-0.24-0.713-0.24-1.18c0-0.92,0.34-1.65,1.021-2.189
		c0.68-0.541,1.606-0.811,2.779-0.811c0.293,0,0.587,0.018,0.88,0.051c0.294,0.033,0.567,0.072,0.82,0.119s0.477,0.098,0.67,0.15
		s0.343,0.1,0.45,0.14l-0.34,1.601c-0.2-0.107-0.514-0.217-0.94-0.33s-0.939-0.17-1.54-0.17c-0.52,0-0.974,0.104-1.359,0.31
		c-0.388,0.207-0.58,0.53-0.58,0.97c0,0.227,0.043,0.428,0.13,0.6c0.086,0.174,0.22,0.33,0.399,0.471
		c0.181,0.141,0.403,0.27,0.67,0.391c0.267,0.119,0.587,0.246,0.961,0.379c0.492,0.188,0.933,0.371,1.319,0.551
		s0.717,0.39,0.99,0.63c0.273,0.239,0.483,0.53,0.63,0.87s0.22,0.756,0.22,1.25c0,0.959-0.356,1.687-1.069,2.18
		c-0.714,0.494-1.73,0.74-3.051,0.74c-0.92,0-1.64-0.077-2.159-0.23c-0.521-0.152-0.874-0.27-1.061-0.35l0.34-1.6
		c0.214,0.08,0.554,0.199,1.021,0.359S72.646,452.66,73.419,452.66z"/>
	<path fill="#4F4F4F" d="M83.279,443.34c0.747,0,1.377,0.098,1.89,0.29c0.514,0.193,0.927,0.467,1.24,0.82
		c0.313,0.353,0.537,0.773,0.67,1.26c0.134,0.487,0.2,1.023,0.2,1.61v6.5c-0.16,0.026-0.384,0.063-0.67,0.109
		c-0.287,0.047-0.61,0.09-0.97,0.131c-0.36,0.039-0.75,0.076-1.17,0.109s-0.837,0.051-1.25,0.051c-0.587,0-1.127-0.061-1.62-0.181
		c-0.494-0.12-0.92-0.31-1.28-0.569c-0.36-0.261-0.64-0.604-0.84-1.031c-0.2-0.426-0.3-0.939-0.3-1.539
		c0-0.574,0.116-1.066,0.35-1.48c0.233-0.413,0.55-0.746,0.95-1c0.399-0.253,0.866-0.439,1.399-0.561
		c0.533-0.119,1.094-0.18,1.681-0.18c0.187,0,0.38,0.01,0.58,0.03c0.199,0.021,0.39,0.047,0.569,0.08
		c0.181,0.033,0.337,0.063,0.471,0.09c0.133,0.026,0.227,0.047,0.279,0.06v-0.52c0-0.307-0.033-0.609-0.1-0.91
		c-0.067-0.3-0.187-0.566-0.36-0.8c-0.173-0.233-0.41-0.42-0.71-0.56c-0.3-0.141-0.689-0.211-1.17-0.211
		c-0.613,0-1.149,0.044-1.609,0.131c-0.46,0.086-0.804,0.177-1.03,0.27l-0.22-1.54c0.239-0.106,0.64-0.21,1.199-0.31
		C82.02,443.391,82.626,443.34,83.279,443.34z M83.439,452.66c0.439,0,0.83-0.01,1.17-0.03s0.623-0.057,0.85-0.11v-3.1
		c-0.133-0.066-0.35-0.123-0.649-0.17s-0.664-0.07-1.09-0.07c-0.28,0-0.577,0.021-0.891,0.061c-0.313,0.039-0.6,0.123-0.859,0.25
		c-0.261,0.127-0.478,0.3-0.65,0.52c-0.174,0.221-0.26,0.51-0.26,0.87c0,0.667,0.213,1.13,0.64,1.39S82.706,452.66,83.439,452.66z"
		/>
	<path fill="#4F4F4F" d="M90.358,443.9c0.427-0.107,0.99-0.221,1.69-0.34c0.7-0.121,1.51-0.181,2.43-0.181
		c0.667,0,1.227,0.091,1.681,0.271c0.453,0.18,0.833,0.443,1.14,0.789c0.093-0.066,0.24-0.16,0.44-0.279
		c0.199-0.12,0.446-0.236,0.739-0.35s0.62-0.214,0.98-0.301c0.359-0.086,0.746-0.13,1.16-0.13c0.8,0,1.453,0.117,1.96,0.351
		c0.506,0.232,0.902,0.563,1.189,0.99c0.287,0.426,0.48,0.933,0.58,1.52c0.101,0.586,0.15,1.227,0.15,1.92V454h-1.86v-5.439
		c0-0.613-0.03-1.141-0.09-1.58c-0.06-0.44-0.174-0.807-0.34-1.101c-0.167-0.293-0.394-0.51-0.681-0.649
		c-0.286-0.141-0.656-0.211-1.109-0.211c-0.627,0-1.144,0.084-1.55,0.25c-0.407,0.168-0.684,0.317-0.83,0.451
		c0.106,0.346,0.187,0.727,0.239,1.139c0.054,0.414,0.08,0.848,0.08,1.301V454h-1.859v-5.439c0-0.613-0.033-1.141-0.101-1.58
		c-0.066-0.44-0.183-0.807-0.35-1.101c-0.167-0.293-0.394-0.51-0.68-0.649c-0.287-0.141-0.65-0.211-1.091-0.211
		c-0.187,0-0.387,0.008-0.6,0.021s-0.417,0.03-0.61,0.05s-0.369,0.043-0.529,0.07s-0.268,0.047-0.32,0.061V454h-1.86V443.9z"/>
	<path fill="#4F4F4F" d="M111.219,452.1c1.026,0,1.746-0.162,2.16-0.49c0.413-0.326,0.619-0.742,0.619-1.25
		c0-0.373-0.09-0.692-0.27-0.959c-0.18-0.268-0.42-0.5-0.72-0.7s-0.647-0.38-1.04-0.54c-0.394-0.16-0.797-0.313-1.21-0.46
		c-0.4-0.147-0.797-0.31-1.19-0.49s-0.743-0.399-1.05-0.66c-0.307-0.26-0.557-0.573-0.75-0.94c-0.193-0.365-0.29-0.816-0.29-1.35
		c0-0.946,0.283-1.723,0.85-2.33c0.567-0.606,1.391-0.99,2.471-1.15v-2.299h1.66v2.24c0.586,0.026,1.133,0.1,1.64,0.219
		c0.507,0.121,0.906,0.234,1.2,0.34l-0.38,1.561c-0.32-0.119-0.721-0.243-1.2-0.369c-0.48-0.127-1.08-0.191-1.8-0.191
		c-0.801,0-1.417,0.154-1.851,0.461s-0.649,0.74-0.649,1.3c0,0.307,0.063,0.567,0.189,0.78s0.311,0.403,0.55,0.57
		c0.24,0.166,0.523,0.316,0.851,0.449c0.326,0.134,0.689,0.273,1.09,0.42c0.52,0.2,1.013,0.407,1.479,0.62
		c0.467,0.214,0.877,0.47,1.23,0.771c0.354,0.3,0.637,0.656,0.85,1.07c0.214,0.412,0.32,0.912,0.32,1.5
		c0,0.946-0.287,1.709-0.86,2.289s-1.46,0.943-2.659,1.09v2.58h-1.66v-2.52c-0.934-0.027-1.693-0.131-2.28-0.311
		s-1.027-0.35-1.32-0.51l0.5-1.5c0.4,0.188,0.88,0.36,1.44,0.52C109.698,452.02,110.392,452.1,111.219,452.1z"/>
	<path fill="#4F4F4F" d="M28.12,478.24c-0.84,0-1.577-0.134-2.21-0.4c-0.634-0.267-1.167-0.64-1.6-1.12
		c-0.434-0.479-0.757-1.05-0.97-1.71s-0.32-1.39-0.32-2.189c0-0.801,0.117-1.533,0.35-2.2c0.233-0.667,0.563-1.243,0.99-1.729
		c0.427-0.487,0.95-0.867,1.57-1.141c0.62-0.273,1.31-0.41,2.07-0.41c0.467,0,0.934,0.04,1.4,0.12c0.466,0.08,0.913,0.207,1.34,0.38
		l-0.42,1.58c-0.28-0.133-0.604-0.24-0.971-0.32c-0.366-0.08-0.757-0.119-1.17-0.119c-1.04,0-1.836,0.326-2.39,0.979
		c-0.554,0.653-0.83,1.606-0.83,2.86c0,0.56,0.063,1.073,0.19,1.539c0.126,0.467,0.327,0.867,0.6,1.2
		c0.273,0.334,0.623,0.591,1.05,0.771s0.946,0.27,1.561,0.27c0.493,0,0.939-0.046,1.34-0.14c0.399-0.093,0.713-0.193,0.939-0.3
		l0.261,1.56c-0.107,0.067-0.261,0.13-0.46,0.19c-0.2,0.06-0.428,0.113-0.681,0.16c-0.253,0.046-0.523,0.086-0.81,0.12
		C28.663,478.223,28.387,478.24,28.12,478.24z"/>
	<path fill="#4F4F4F" d="M36.26,467.34c0.747,0,1.377,0.098,1.89,0.29c0.514,0.193,0.927,0.467,1.24,0.82
		c0.313,0.353,0.537,0.773,0.67,1.26c0.134,0.487,0.2,1.023,0.2,1.61v6.5c-0.16,0.026-0.384,0.063-0.67,0.109
		c-0.287,0.047-0.61,0.09-0.97,0.13c-0.36,0.04-0.75,0.077-1.17,0.11s-0.837,0.05-1.25,0.05c-0.587,0-1.127-0.06-1.62-0.18
		c-0.494-0.12-0.92-0.31-1.28-0.57c-0.36-0.26-0.64-0.603-0.84-1.029s-0.3-0.94-0.3-1.54c0-0.574,0.116-1.066,0.35-1.48
		c0.233-0.413,0.55-0.746,0.95-1c0.399-0.253,0.866-0.439,1.399-0.561c0.533-0.119,1.094-0.18,1.681-0.18
		c0.187,0,0.38,0.01,0.58,0.03c0.199,0.021,0.39,0.047,0.569,0.08c0.181,0.033,0.337,0.063,0.471,0.09
		c0.133,0.026,0.227,0.047,0.279,0.06v-0.52c0-0.307-0.033-0.609-0.1-0.91c-0.067-0.3-0.187-0.566-0.36-0.8
		c-0.173-0.233-0.41-0.42-0.71-0.56c-0.3-0.141-0.689-0.211-1.17-0.211c-0.613,0-1.149,0.044-1.609,0.131
		c-0.46,0.086-0.804,0.177-1.03,0.27l-0.22-1.54c0.239-0.106,0.64-0.21,1.199-0.31C35,467.391,35.606,467.34,36.26,467.34z
		 M36.42,476.66c0.439,0,0.83-0.01,1.17-0.03c0.34-0.02,0.623-0.057,0.85-0.11v-3.1c-0.133-0.066-0.35-0.123-0.649-0.17
		s-0.664-0.07-1.09-0.07c-0.28,0-0.577,0.021-0.891,0.061c-0.313,0.039-0.6,0.123-0.859,0.25c-0.261,0.127-0.478,0.3-0.65,0.52
		c-0.174,0.221-0.26,0.51-0.26,0.87c0,0.667,0.213,1.13,0.64,1.39C35.106,476.53,35.687,476.66,36.42,476.66z"/>
	<path fill="#4F4F4F" d="M43.339,467.9c0.427-0.107,0.99-0.221,1.69-0.34c0.7-0.121,1.51-0.181,2.43-0.181
		c0.667,0,1.227,0.091,1.681,0.271c0.453,0.18,0.833,0.443,1.14,0.789c0.093-0.066,0.24-0.16,0.44-0.279
		c0.199-0.12,0.446-0.236,0.739-0.35s0.62-0.214,0.98-0.301c0.359-0.086,0.746-0.13,1.16-0.13c0.8,0,1.453,0.117,1.96,0.351
		c0.506,0.232,0.902,0.563,1.189,0.99c0.287,0.426,0.48,0.933,0.58,1.52c0.101,0.586,0.15,1.227,0.15,1.92V478h-1.86v-5.439
		c0-0.613-0.03-1.141-0.09-1.58c-0.06-0.44-0.174-0.807-0.34-1.101c-0.167-0.293-0.394-0.51-0.681-0.649
		c-0.286-0.141-0.656-0.211-1.109-0.211c-0.627,0-1.144,0.084-1.55,0.25c-0.407,0.168-0.684,0.317-0.83,0.451
		c0.106,0.346,0.187,0.727,0.239,1.139c0.054,0.414,0.08,0.848,0.08,1.301V478h-1.859v-5.439c0-0.613-0.033-1.141-0.101-1.58
		c-0.066-0.44-0.183-0.807-0.35-1.101c-0.167-0.293-0.394-0.51-0.68-0.649c-0.287-0.141-0.65-0.211-1.091-0.211
		c-0.187,0-0.387,0.008-0.6,0.021s-0.417,0.03-0.61,0.05s-0.369,0.043-0.529,0.07s-0.268,0.047-0.32,0.061V478h-1.86V467.9z"/>
	<path fill="#4F4F4F" d="M62.979,476.66c0.761,0,1.323-0.101,1.69-0.3c0.366-0.2,0.55-0.521,0.55-0.96c0-0.453-0.18-0.813-0.54-1.08
		c-0.359-0.268-0.953-0.566-1.779-0.9c-0.4-0.16-0.784-0.323-1.15-0.49c-0.367-0.166-0.684-0.363-0.95-0.59s-0.479-0.5-0.64-0.82
		c-0.16-0.319-0.24-0.713-0.24-1.18c0-0.92,0.34-1.65,1.021-2.189c0.68-0.541,1.606-0.811,2.779-0.811
		c0.293,0,0.587,0.018,0.88,0.051c0.294,0.033,0.567,0.072,0.82,0.119s0.477,0.098,0.67,0.15s0.343,0.1,0.45,0.14L66.2,469.4
		c-0.2-0.107-0.514-0.217-0.94-0.33s-0.939-0.17-1.54-0.17c-0.52,0-0.974,0.104-1.359,0.31c-0.388,0.207-0.58,0.53-0.58,0.97
		c0,0.227,0.043,0.428,0.13,0.6c0.086,0.174,0.22,0.33,0.399,0.471c0.181,0.141,0.403,0.27,0.67,0.391
		c0.267,0.119,0.587,0.246,0.961,0.379c0.492,0.188,0.933,0.371,1.319,0.551s0.717,0.39,0.99,0.63c0.273,0.239,0.483,0.53,0.63,0.87
		s0.22,0.756,0.22,1.25c0,0.96-0.356,1.687-1.069,2.18c-0.714,0.493-1.73,0.74-3.051,0.74c-0.92,0-1.64-0.077-2.159-0.23
		c-0.521-0.153-0.874-0.27-1.061-0.35l0.34-1.601c0.214,0.08,0.554,0.2,1.021,0.36S62.206,476.66,62.979,476.66z"/>
	<path fill="#4F4F4F" d="M72.84,467.34c0.747,0,1.377,0.098,1.89,0.29c0.514,0.193,0.927,0.467,1.24,0.82
		c0.313,0.353,0.537,0.773,0.67,1.26c0.134,0.487,0.2,1.023,0.2,1.61v6.5c-0.16,0.026-0.384,0.063-0.67,0.109
		c-0.287,0.047-0.61,0.09-0.97,0.13c-0.36,0.04-0.75,0.077-1.17,0.11s-0.837,0.05-1.25,0.05c-0.587,0-1.127-0.06-1.62-0.18
		c-0.494-0.12-0.92-0.31-1.28-0.57c-0.36-0.26-0.64-0.603-0.84-1.029s-0.3-0.94-0.3-1.54c0-0.574,0.116-1.066,0.35-1.48
		c0.233-0.413,0.55-0.746,0.95-1c0.399-0.253,0.866-0.439,1.399-0.561c0.533-0.119,1.094-0.18,1.681-0.18
		c0.187,0,0.38,0.01,0.58,0.03c0.199,0.021,0.39,0.047,0.569,0.08c0.181,0.033,0.337,0.063,0.471,0.09
		c0.133,0.026,0.227,0.047,0.279,0.06v-0.52c0-0.307-0.033-0.609-0.1-0.91c-0.067-0.3-0.187-0.566-0.36-0.8
		c-0.173-0.233-0.41-0.42-0.71-0.56c-0.3-0.141-0.689-0.211-1.17-0.211c-0.613,0-1.149,0.044-1.609,0.131
		c-0.46,0.086-0.804,0.177-1.03,0.27l-0.22-1.54c0.239-0.106,0.64-0.21,1.199-0.31C71.58,467.391,72.187,467.34,72.84,467.34z
		 M73,476.66c0.439,0,0.83-0.01,1.17-0.03c0.34-0.02,0.623-0.057,0.85-0.11v-3.1c-0.133-0.066-0.35-0.123-0.649-0.17
		s-0.664-0.07-1.09-0.07c-0.28,0-0.577,0.021-0.891,0.061c-0.313,0.039-0.6,0.123-0.859,0.25c-0.261,0.127-0.478,0.3-0.65,0.52
		c-0.174,0.221-0.26,0.51-0.26,0.87c0,0.667,0.213,1.13,0.64,1.39C71.687,476.53,72.267,476.66,73,476.66z"/>
	<path fill="#4F4F4F" d="M79.919,467.9c0.427-0.107,0.99-0.221,1.69-0.34c0.7-0.121,1.51-0.181,2.43-0.181
		c0.667,0,1.227,0.091,1.681,0.271c0.453,0.18,0.833,0.443,1.14,0.789c0.093-0.066,0.24-0.16,0.44-0.279
		c0.199-0.12,0.446-0.236,0.739-0.35s0.62-0.214,0.98-0.301c0.359-0.086,0.746-0.13,1.16-0.13c0.8,0,1.453,0.117,1.96,0.351
		c0.506,0.232,0.902,0.563,1.189,0.99c0.287,0.426,0.48,0.933,0.58,1.52c0.101,0.586,0.15,1.227,0.15,1.92V478h-1.86v-5.439
		c0-0.613-0.03-1.141-0.09-1.58c-0.06-0.44-0.174-0.807-0.34-1.101c-0.167-0.293-0.394-0.51-0.681-0.649
		c-0.286-0.141-0.656-0.211-1.109-0.211c-0.627,0-1.144,0.084-1.55,0.25c-0.407,0.168-0.684,0.317-0.83,0.451
		c0.106,0.346,0.187,0.727,0.239,1.139c0.054,0.414,0.08,0.848,0.08,1.301V478H86.06v-5.439c0-0.613-0.033-1.141-0.101-1.58
		c-0.066-0.44-0.183-0.807-0.35-1.101c-0.167-0.293-0.394-0.51-0.68-0.649c-0.287-0.141-0.65-0.211-1.091-0.211
		c-0.187,0-0.387,0.008-0.6,0.021s-0.417,0.03-0.61,0.05s-0.369,0.043-0.529,0.07s-0.268,0.047-0.32,0.061V478h-1.86V467.9z"/>
	<path fill="#4F4F4F" d="M100.779,476.1c1.026,0,1.746-0.163,2.16-0.489c0.413-0.327,0.619-0.743,0.619-1.251
		c0-0.373-0.09-0.692-0.27-0.959c-0.18-0.268-0.42-0.5-0.72-0.7s-0.647-0.38-1.04-0.54c-0.394-0.16-0.797-0.313-1.21-0.46
		c-0.4-0.147-0.797-0.31-1.19-0.49s-0.743-0.399-1.05-0.66c-0.307-0.26-0.557-0.573-0.75-0.94c-0.193-0.365-0.29-0.816-0.29-1.35
		c0-0.946,0.283-1.723,0.85-2.33c0.567-0.606,1.391-0.99,2.471-1.15v-2.299h1.66v2.24c0.586,0.026,1.133,0.1,1.64,0.219
		c0.507,0.121,0.906,0.234,1.2,0.34l-0.38,1.561c-0.32-0.119-0.721-0.243-1.2-0.369c-0.48-0.127-1.08-0.191-1.8-0.191
		c-0.801,0-1.417,0.154-1.851,0.461s-0.649,0.74-0.649,1.3c0,0.307,0.063,0.567,0.189,0.78s0.311,0.403,0.55,0.57
		c0.24,0.166,0.523,0.316,0.851,0.449c0.326,0.134,0.689,0.273,1.09,0.42c0.52,0.2,1.013,0.407,1.479,0.62
		c0.467,0.214,0.877,0.47,1.23,0.771c0.354,0.3,0.637,0.656,0.85,1.07c0.214,0.412,0.32,0.912,0.32,1.5
		c0,0.946-0.287,1.709-0.86,2.289s-1.46,0.943-2.659,1.09v2.58h-1.66v-2.52c-0.934-0.026-1.693-0.13-2.28-0.311
		c-0.587-0.18-1.027-0.35-1.32-0.51l0.5-1.5c0.4,0.188,0.88,0.36,1.44,0.521C99.259,476.02,99.952,476.1,100.779,476.1z"/>
	<path fill="#4F4F4F" d="M26.96,491.34c0.747,0,1.377,0.097,1.89,0.29c0.514,0.193,0.927,0.467,1.24,0.82s0.537,0.773,0.67,1.26
		c0.134,0.487,0.2,1.023,0.2,1.61v6.5c-0.16,0.026-0.384,0.063-0.67,0.109c-0.287,0.047-0.61,0.09-0.97,0.13
		c-0.36,0.04-0.75,0.077-1.17,0.11s-0.837,0.05-1.25,0.05c-0.587,0-1.127-0.06-1.62-0.18s-0.92-0.31-1.28-0.57
		c-0.36-0.26-0.64-0.603-0.84-1.029c-0.2-0.427-0.3-0.94-0.3-1.54c0-0.573,0.117-1.067,0.35-1.48s0.55-0.746,0.95-1
		c0.4-0.253,0.866-0.439,1.4-0.56c0.533-0.12,1.093-0.181,1.68-0.181c0.187,0,0.38,0.011,0.58,0.03
		c0.199,0.021,0.39,0.047,0.569,0.08c0.181,0.033,0.337,0.063,0.471,0.09c0.133,0.027,0.227,0.047,0.279,0.061v-0.521
		c0-0.307-0.033-0.61-0.1-0.91c-0.067-0.3-0.187-0.566-0.36-0.8c-0.173-0.233-0.41-0.42-0.71-0.56c-0.3-0.141-0.69-0.21-1.17-0.21
		c-0.613,0-1.15,0.043-1.61,0.13s-0.803,0.177-1.03,0.27l-0.22-1.54c0.24-0.106,0.64-0.21,1.2-0.31
		C25.7,491.39,26.307,491.34,26.96,491.34z M27.12,500.66c0.44,0,0.83-0.01,1.17-0.03c0.34-0.02,0.623-0.057,0.85-0.11v-3.1
		c-0.133-0.066-0.35-0.123-0.649-0.17s-0.664-0.07-1.09-0.07c-0.28,0-0.577,0.021-0.89,0.061c-0.313,0.04-0.6,0.123-0.86,0.25
		c-0.26,0.127-0.477,0.3-0.65,0.52c-0.173,0.221-0.26,0.51-0.26,0.87c0,0.667,0.213,1.13,0.64,1.39
		C25.807,500.53,26.387,500.66,27.12,500.66z"/>
	<path fill="#4F4F4F" d="M34.039,491.9c0.427-0.107,0.99-0.221,1.69-0.341c0.7-0.119,1.51-0.18,2.43-0.18
		c0.667,0,1.227,0.09,1.681,0.271c0.453,0.18,0.833,0.443,1.14,0.79c0.093-0.067,0.24-0.16,0.44-0.28
		c0.199-0.12,0.446-0.236,0.739-0.351c0.293-0.112,0.62-0.213,0.98-0.3c0.359-0.086,0.746-0.13,1.16-0.13
		c0.8,0,1.453,0.117,1.96,0.351c0.506,0.233,0.902,0.563,1.189,0.989s0.48,0.934,0.58,1.521c0.101,0.587,0.15,1.227,0.15,1.92V502
		h-1.86v-5.44c0-0.612-0.03-1.14-0.09-1.579c-0.06-0.44-0.174-0.807-0.34-1.101c-0.167-0.293-0.394-0.51-0.681-0.649
		c-0.286-0.141-0.656-0.211-1.109-0.211c-0.627,0-1.144,0.084-1.55,0.25c-0.407,0.167-0.684,0.317-0.83,0.45
		c0.106,0.347,0.187,0.728,0.239,1.141c0.054,0.413,0.08,0.847,0.08,1.3V502H40.18v-5.44c0-0.612-0.033-1.14-0.101-1.579
		c-0.066-0.44-0.183-0.807-0.35-1.101c-0.167-0.293-0.394-0.51-0.68-0.649c-0.287-0.141-0.65-0.211-1.091-0.211
		c-0.187,0-0.387,0.008-0.6,0.021c-0.213,0.014-0.417,0.03-0.61,0.05c-0.193,0.021-0.369,0.044-0.529,0.07s-0.268,0.047-0.32,0.06
		V502h-1.86V491.9z"/>
	<path fill="#4F4F4F" d="M53.679,500.66c0.761,0,1.323-0.101,1.69-0.3c0.366-0.2,0.55-0.521,0.55-0.96c0-0.453-0.18-0.813-0.54-1.08
		c-0.359-0.267-0.953-0.566-1.779-0.9c-0.4-0.16-0.784-0.323-1.15-0.49c-0.367-0.166-0.684-0.363-0.95-0.59s-0.479-0.5-0.64-0.82
		c-0.16-0.319-0.24-0.713-0.24-1.18c0-0.92,0.34-1.649,1.021-2.189c0.68-0.54,1.606-0.811,2.779-0.811
		c0.293,0,0.587,0.017,0.88,0.05c0.294,0.034,0.567,0.074,0.82,0.12c0.253,0.047,0.477,0.097,0.67,0.15s0.343,0.1,0.45,0.14
		l-0.34,1.601c-0.2-0.107-0.514-0.217-0.94-0.33s-0.939-0.17-1.54-0.17c-0.52,0-0.974,0.104-1.359,0.31
		c-0.388,0.207-0.58,0.53-0.58,0.97c0,0.228,0.043,0.427,0.13,0.601c0.086,0.173,0.22,0.33,0.399,0.47
		c0.181,0.14,0.403,0.27,0.67,0.39s0.587,0.247,0.961,0.38c0.492,0.188,0.933,0.37,1.319,0.551c0.387,0.18,0.717,0.39,0.99,0.63
		s0.483,0.53,0.63,0.87s0.22,0.757,0.22,1.25c0,0.96-0.356,1.687-1.069,2.18c-0.714,0.493-1.73,0.74-3.051,0.74
		c-0.92,0-1.64-0.077-2.159-0.23c-0.521-0.153-0.874-0.27-1.061-0.35l0.34-1.601c0.214,0.08,0.554,0.2,1.021,0.36
		S52.905,500.66,53.679,500.66z"/>
	<path fill="#4F4F4F" d="M63.539,491.34c0.747,0,1.377,0.097,1.89,0.29c0.514,0.193,0.927,0.467,1.24,0.82s0.537,0.773,0.67,1.26
		c0.134,0.487,0.2,1.023,0.2,1.61v6.5c-0.16,0.026-0.384,0.063-0.67,0.109c-0.287,0.047-0.61,0.09-0.97,0.13
		c-0.36,0.04-0.75,0.077-1.17,0.11s-0.837,0.05-1.25,0.05c-0.587,0-1.127-0.06-1.62-0.18c-0.494-0.12-0.92-0.31-1.28-0.57
		c-0.36-0.26-0.64-0.603-0.84-1.029s-0.3-0.94-0.3-1.54c0-0.573,0.116-1.067,0.35-1.48s0.55-0.746,0.95-1
		c0.399-0.253,0.866-0.439,1.399-0.56s1.094-0.181,1.681-0.181c0.187,0,0.38,0.011,0.58,0.03c0.199,0.021,0.39,0.047,0.569,0.08
		c0.181,0.033,0.337,0.063,0.471,0.09c0.133,0.027,0.227,0.047,0.279,0.061v-0.521c0-0.307-0.033-0.61-0.1-0.91
		c-0.067-0.3-0.187-0.566-0.36-0.8c-0.173-0.233-0.41-0.42-0.71-0.56c-0.3-0.141-0.689-0.21-1.17-0.21
		c-0.613,0-1.149,0.043-1.609,0.13s-0.804,0.177-1.03,0.27l-0.22-1.54c0.239-0.106,0.64-0.21,1.199-0.31
		C62.279,491.39,62.886,491.34,63.539,491.34z M63.699,500.66c0.439,0,0.83-0.01,1.17-0.03c0.34-0.02,0.623-0.057,0.85-0.11v-3.1
		c-0.133-0.066-0.35-0.123-0.649-0.17s-0.664-0.07-1.09-0.07c-0.28,0-0.577,0.021-0.891,0.061s-0.6,0.123-0.859,0.25
		c-0.261,0.127-0.478,0.3-0.65,0.52c-0.174,0.221-0.26,0.51-0.26,0.87c0,0.667,0.213,1.13,0.64,1.39
		C62.386,500.53,62.966,500.66,63.699,500.66z"/>
	<path fill="#4F4F4F" d="M70.619,491.9c0.427-0.107,0.99-0.221,1.69-0.341c0.7-0.119,1.51-0.18,2.43-0.18
		c0.667,0,1.227,0.09,1.681,0.271c0.453,0.18,0.833,0.443,1.14,0.79c0.093-0.067,0.24-0.16,0.44-0.28
		c0.199-0.12,0.446-0.236,0.739-0.351c0.293-0.112,0.62-0.213,0.98-0.3c0.359-0.086,0.746-0.13,1.16-0.13
		c0.8,0,1.453,0.117,1.96,0.351c0.506,0.233,0.902,0.563,1.189,0.989s0.48,0.934,0.58,1.521c0.101,0.587,0.15,1.227,0.15,1.92V502
		h-1.86v-5.44c0-0.612-0.03-1.14-0.09-1.579c-0.06-0.44-0.174-0.807-0.34-1.101c-0.167-0.293-0.394-0.51-0.681-0.649
		c-0.286-0.141-0.656-0.211-1.109-0.211c-0.627,0-1.144,0.084-1.55,0.25c-0.407,0.167-0.684,0.317-0.83,0.45
		c0.106,0.347,0.187,0.728,0.239,1.141c0.054,0.413,0.08,0.847,0.08,1.3V502H76.76v-5.44c0-0.612-0.033-1.14-0.101-1.579
		c-0.066-0.44-0.183-0.807-0.35-1.101c-0.167-0.293-0.394-0.51-0.68-0.649c-0.287-0.141-0.65-0.211-1.091-0.211
		c-0.187,0-0.387,0.008-0.6,0.021c-0.213,0.014-0.417,0.03-0.61,0.05c-0.193,0.021-0.369,0.044-0.529,0.07s-0.268,0.047-0.32,0.06
		V502h-1.86V491.9z"/>
	<path fill="#4F4F4F" d="M91.479,500.1c1.026,0,1.746-0.163,2.16-0.489c0.413-0.327,0.619-0.743,0.619-1.25
		c0-0.373-0.09-0.693-0.27-0.96s-0.42-0.5-0.72-0.7s-0.647-0.38-1.04-0.54c-0.394-0.16-0.797-0.313-1.21-0.46
		c-0.4-0.146-0.797-0.311-1.19-0.49s-0.743-0.4-1.05-0.66s-0.557-0.573-0.75-0.939c-0.193-0.367-0.29-0.817-0.29-1.351
		c0-0.946,0.283-1.723,0.85-2.33c0.567-0.606,1.391-0.989,2.471-1.149v-2.3h1.66v2.239c0.586,0.027,1.133,0.101,1.64,0.221
		c0.507,0.119,0.906,0.233,1.2,0.34l-0.38,1.56c-0.32-0.12-0.721-0.243-1.2-0.37c-0.48-0.126-1.08-0.189-1.8-0.189
		c-0.801,0-1.417,0.153-1.851,0.46s-0.649,0.74-0.649,1.3c0,0.307,0.063,0.566,0.189,0.78c0.127,0.213,0.311,0.403,0.55,0.569
		c0.24,0.167,0.523,0.317,0.851,0.45c0.326,0.134,0.689,0.273,1.09,0.42c0.52,0.2,1.013,0.407,1.479,0.62
		c0.467,0.214,0.877,0.47,1.23,0.771c0.354,0.3,0.637,0.656,0.85,1.069c0.214,0.414,0.32,0.914,0.32,1.5
		c0,0.947-0.287,1.71-0.86,2.29s-1.46,0.943-2.659,1.09v2.58h-1.66v-2.52c-0.934-0.026-1.693-0.13-2.28-0.311
		c-0.587-0.18-1.027-0.35-1.32-0.51l0.5-1.5c0.4,0.188,0.88,0.36,1.44,0.521C89.959,500.02,90.652,500.1,91.479,500.1z"/>
	<path fill="#4F4F4F" d="M23.6,515.9c0.426-0.107,0.99-0.221,1.69-0.341c0.7-0.119,1.51-0.18,2.43-0.18
		c0.667,0,1.227,0.09,1.681,0.271c0.453,0.18,0.833,0.443,1.14,0.79c0.093-0.067,0.24-0.16,0.44-0.28
		c0.199-0.12,0.446-0.236,0.739-0.351c0.293-0.112,0.62-0.213,0.98-0.3c0.359-0.086,0.746-0.13,1.16-0.13
		c0.8,0,1.453,0.117,1.96,0.351c0.506,0.233,0.902,0.563,1.189,0.989s0.48,0.934,0.58,1.521c0.101,0.587,0.15,1.227,0.15,1.92V526
		h-1.86v-5.44c0-0.612-0.03-1.14-0.09-1.579c-0.06-0.44-0.174-0.807-0.34-1.101c-0.167-0.293-0.394-0.51-0.681-0.649
		c-0.286-0.141-0.656-0.211-1.109-0.211c-0.627,0-1.144,0.084-1.55,0.25c-0.407,0.167-0.684,0.317-0.83,0.45
		c0.106,0.347,0.187,0.728,0.239,1.141c0.054,0.413,0.08,0.847,0.08,1.3V526H29.74v-5.44c0-0.612-0.033-1.14-0.101-1.579
		c-0.066-0.44-0.183-0.807-0.35-1.101c-0.167-0.293-0.394-0.51-0.68-0.649c-0.287-0.141-0.65-0.211-1.09-0.211
		c-0.187,0-0.387,0.008-0.6,0.021c-0.213,0.014-0.417,0.03-0.61,0.05c-0.193,0.021-0.37,0.044-0.53,0.07
		c-0.16,0.026-0.267,0.047-0.32,0.06V526H23.6V515.9z"/>
	<path fill="#4F4F4F" d="M43.239,524.66c0.761,0,1.323-0.101,1.69-0.3c0.366-0.2,0.55-0.521,0.55-0.96c0-0.453-0.18-0.813-0.54-1.08
		c-0.359-0.267-0.953-0.566-1.779-0.9c-0.4-0.16-0.784-0.323-1.15-0.49c-0.367-0.166-0.684-0.363-0.95-0.59s-0.479-0.5-0.64-0.82
		c-0.16-0.319-0.24-0.713-0.24-1.18c0-0.92,0.34-1.649,1.021-2.189c0.68-0.54,1.606-0.811,2.779-0.811
		c0.293,0,0.587,0.017,0.88,0.05c0.294,0.034,0.567,0.074,0.82,0.12c0.253,0.047,0.477,0.097,0.67,0.15s0.343,0.1,0.45,0.14
		l-0.34,1.601c-0.2-0.107-0.514-0.217-0.94-0.33s-0.939-0.17-1.54-0.17c-0.52,0-0.974,0.104-1.359,0.31
		c-0.388,0.207-0.58,0.53-0.58,0.97c0,0.228,0.043,0.427,0.13,0.601c0.086,0.173,0.22,0.33,0.399,0.47
		c0.181,0.14,0.403,0.27,0.67,0.39s0.587,0.247,0.961,0.38c0.492,0.188,0.933,0.37,1.319,0.551c0.387,0.18,0.717,0.39,0.99,0.63
		s0.483,0.53,0.63,0.87s0.22,0.757,0.22,1.25c0,0.96-0.356,1.687-1.069,2.18c-0.714,0.493-1.73,0.74-3.051,0.74
		c-0.92,0-1.64-0.077-2.159-0.23c-0.521-0.153-0.874-0.27-1.061-0.35l0.34-1.601c0.214,0.08,0.554,0.2,1.021,0.36
		S42.466,524.66,43.239,524.66z"/>
	<path fill="#4F4F4F" d="M53.1,515.34c0.747,0,1.377,0.097,1.89,0.29c0.514,0.193,0.927,0.467,1.24,0.82s0.537,0.773,0.67,1.26
		c0.134,0.487,0.2,1.023,0.2,1.61v6.5c-0.16,0.026-0.384,0.063-0.67,0.109c-0.287,0.047-0.61,0.09-0.97,0.13
		c-0.36,0.04-0.75,0.077-1.17,0.11s-0.837,0.05-1.25,0.05c-0.587,0-1.127-0.06-1.62-0.18c-0.494-0.12-0.92-0.31-1.28-0.57
		c-0.36-0.26-0.64-0.603-0.84-1.029S49,523.5,49,522.9c0-0.573,0.116-1.067,0.35-1.48s0.55-0.746,0.95-1
		c0.399-0.253,0.866-0.439,1.399-0.56s1.094-0.181,1.681-0.181c0.187,0,0.38,0.011,0.58,0.03c0.199,0.021,0.39,0.047,0.569,0.08
		c0.181,0.033,0.337,0.063,0.471,0.09c0.133,0.027,0.227,0.047,0.279,0.061v-0.521c0-0.307-0.033-0.61-0.1-0.91
		c-0.067-0.3-0.187-0.566-0.36-0.8c-0.173-0.233-0.41-0.42-0.71-0.56c-0.3-0.141-0.689-0.21-1.17-0.21
		c-0.613,0-1.149,0.043-1.609,0.13s-0.804,0.177-1.03,0.27l-0.22-1.54c0.239-0.106,0.64-0.21,1.199-0.31
		C51.84,515.39,52.446,515.34,53.1,515.34z M53.26,524.66c0.439,0,0.83-0.01,1.17-0.03c0.34-0.02,0.623-0.057,0.85-0.11v-3.1
		c-0.133-0.066-0.35-0.123-0.649-0.17s-0.664-0.07-1.09-0.07c-0.28,0-0.577,0.021-0.891,0.061s-0.6,0.123-0.859,0.25
		c-0.261,0.127-0.478,0.3-0.65,0.52c-0.174,0.221-0.26,0.51-0.26,0.87c0,0.667,0.213,1.13,0.64,1.39
		C51.946,524.53,52.526,524.66,53.26,524.66z"/>
	<path fill="#4F4F4F" d="M60.179,515.9c0.427-0.107,0.99-0.221,1.69-0.341c0.7-0.119,1.51-0.18,2.43-0.18
		c0.667,0,1.227,0.09,1.681,0.271c0.453,0.18,0.833,0.443,1.14,0.79c0.093-0.067,0.24-0.16,0.44-0.28
		c0.199-0.12,0.446-0.236,0.739-0.351c0.293-0.112,0.62-0.213,0.98-0.3c0.359-0.086,0.746-0.13,1.16-0.13
		c0.8,0,1.453,0.117,1.96,0.351c0.506,0.233,0.902,0.563,1.189,0.989s0.48,0.934,0.58,1.521c0.101,0.587,0.15,1.227,0.15,1.92V526
		h-1.86v-5.44c0-0.612-0.03-1.14-0.09-1.579c-0.06-0.44-0.174-0.807-0.34-1.101c-0.167-0.293-0.394-0.51-0.681-0.649
		c-0.286-0.141-0.656-0.211-1.109-0.211c-0.627,0-1.144,0.084-1.55,0.25c-0.407,0.167-0.684,0.317-0.83,0.45
		c0.106,0.347,0.187,0.728,0.239,1.141c0.054,0.413,0.08,0.847,0.08,1.3V526h-1.859v-5.44c0-0.612-0.033-1.14-0.101-1.579
		c-0.066-0.44-0.183-0.807-0.35-1.101c-0.167-0.293-0.394-0.51-0.68-0.649c-0.287-0.141-0.65-0.211-1.091-0.211
		c-0.187,0-0.387,0.008-0.6,0.021c-0.213,0.014-0.417,0.03-0.61,0.05c-0.193,0.021-0.369,0.044-0.529,0.07s-0.268,0.047-0.32,0.06
		V526h-1.86V515.9z"/>
	<path fill="#4F4F4F" d="M81.04,524.1c1.026,0,1.746-0.163,2.16-0.489c0.413-0.327,0.619-0.743,0.619-1.25
		c0-0.373-0.09-0.693-0.27-0.96s-0.42-0.5-0.72-0.7s-0.647-0.38-1.04-0.54c-0.394-0.16-0.797-0.313-1.21-0.46
		c-0.4-0.146-0.797-0.311-1.19-0.49s-0.743-0.4-1.05-0.66s-0.557-0.573-0.75-0.939c-0.193-0.367-0.29-0.817-0.29-1.351
		c0-0.946,0.283-1.723,0.85-2.33c0.567-0.606,1.391-0.989,2.471-1.149v-2.3h1.66v2.239c0.586,0.027,1.133,0.101,1.64,0.221
		c0.507,0.119,0.906,0.233,1.2,0.34l-0.38,1.56c-0.32-0.12-0.721-0.243-1.2-0.37c-0.48-0.126-1.08-0.189-1.8-0.189
		c-0.801,0-1.417,0.153-1.851,0.46s-0.649,0.74-0.649,1.3c0,0.307,0.063,0.566,0.189,0.78c0.127,0.213,0.311,0.403,0.55,0.569
		c0.24,0.167,0.523,0.317,0.851,0.45c0.326,0.134,0.689,0.273,1.09,0.42c0.52,0.2,1.013,0.407,1.479,0.62
		c0.467,0.214,0.877,0.47,1.23,0.771c0.354,0.3,0.637,0.656,0.85,1.069c0.214,0.414,0.32,0.914,0.32,1.5
		c0,0.947-0.287,1.71-0.86,2.29s-1.46,0.943-2.659,1.09v2.58h-1.66v-2.52c-0.934-0.026-1.693-0.13-2.28-0.311
		c-0.587-0.18-1.027-0.35-1.32-0.51l0.5-1.5c0.4,0.188,0.88,0.36,1.44,0.521C79.52,524.02,80.213,524.1,81.04,524.1z"/>
	<path fill="#4F4F4F" d="M26.02,548.66c0.76,0,1.323-0.101,1.69-0.3c0.366-0.2,0.55-0.521,0.55-0.96c0-0.453-0.18-0.813-0.54-1.08
		c-0.36-0.267-0.953-0.566-1.78-0.9c-0.4-0.16-0.783-0.323-1.15-0.49c-0.367-0.166-0.684-0.363-0.95-0.59s-0.48-0.5-0.64-0.82
		c-0.16-0.319-0.24-0.713-0.24-1.18c0-0.92,0.34-1.649,1.02-2.189s1.606-0.811,2.78-0.811c0.293,0,0.587,0.017,0.88,0.05
		c0.293,0.034,0.567,0.074,0.82,0.12c0.253,0.047,0.477,0.097,0.67,0.15s0.343,0.1,0.45,0.14l-0.34,1.601
		c-0.2-0.107-0.514-0.217-0.94-0.33s-0.94-0.17-1.54-0.17c-0.52,0-0.973,0.104-1.36,0.31c-0.387,0.207-0.58,0.53-0.58,0.97
		c0,0.228,0.043,0.427,0.13,0.601c0.086,0.173,0.22,0.33,0.4,0.47c0.18,0.14,0.403,0.27,0.67,0.39c0.267,0.12,0.586,0.247,0.96,0.38
		c0.493,0.188,0.933,0.37,1.32,0.551c0.387,0.18,0.717,0.39,0.99,0.63s0.483,0.53,0.63,0.87s0.22,0.757,0.22,1.25
		c0,0.96-0.356,1.687-1.069,2.18c-0.714,0.493-1.73,0.74-3.05,0.74c-0.92,0-1.64-0.077-2.16-0.23s-0.874-0.27-1.06-0.35l0.34-1.601
		c0.213,0.08,0.553,0.2,1.02,0.36C24.626,548.58,25.247,548.66,26.02,548.66z"/>
	<path fill="#4F4F4F" d="M35.88,539.34c0.747,0,1.377,0.097,1.89,0.29c0.514,0.193,0.927,0.467,1.24,0.82s0.537,0.773,0.67,1.26
		c0.134,0.487,0.2,1.023,0.2,1.61v6.5c-0.16,0.026-0.384,0.063-0.67,0.109c-0.287,0.047-0.61,0.09-0.97,0.13
		c-0.36,0.04-0.75,0.077-1.17,0.11s-0.837,0.05-1.25,0.05c-0.587,0-1.127-0.06-1.62-0.18c-0.494-0.12-0.92-0.31-1.28-0.57
		c-0.36-0.26-0.64-0.603-0.84-1.029s-0.3-0.94-0.3-1.54c0-0.573,0.116-1.067,0.35-1.48s0.55-0.746,0.95-1
		c0.399-0.253,0.866-0.439,1.399-0.56s1.094-0.181,1.681-0.181c0.187,0,0.38,0.011,0.58,0.03c0.199,0.021,0.39,0.047,0.569,0.08
		c0.181,0.033,0.337,0.063,0.471,0.09c0.133,0.027,0.227,0.047,0.279,0.061v-0.521c0-0.307-0.033-0.61-0.1-0.91
		c-0.067-0.3-0.187-0.566-0.36-0.8c-0.173-0.233-0.41-0.42-0.71-0.56c-0.3-0.141-0.689-0.21-1.17-0.21
		c-0.613,0-1.149,0.043-1.609,0.13s-0.804,0.177-1.03,0.27l-0.22-1.54c0.239-0.106,0.64-0.21,1.199-0.31
		C34.62,539.39,35.227,539.34,35.88,539.34z M36.04,548.66c0.439,0,0.83-0.01,1.17-0.03c0.34-0.02,0.623-0.057,0.85-0.11v-3.1
		c-0.133-0.066-0.35-0.123-0.649-0.17s-0.664-0.07-1.09-0.07c-0.28,0-0.577,0.021-0.891,0.061s-0.6,0.123-0.859,0.25
		c-0.261,0.127-0.478,0.3-0.65,0.52c-0.174,0.221-0.26,0.51-0.26,0.87c0,0.667,0.213,1.13,0.64,1.39
		C34.727,548.53,35.307,548.66,36.04,548.66z"/>
	<path fill="#4F4F4F" d="M42.959,539.9c0.427-0.107,0.99-0.221,1.69-0.341c0.7-0.119,1.51-0.18,2.43-0.18
		c0.667,0,1.227,0.09,1.681,0.271c0.453,0.18,0.833,0.443,1.14,0.79c0.093-0.067,0.24-0.16,0.44-0.28
		c0.199-0.12,0.446-0.236,0.739-0.351c0.293-0.112,0.62-0.213,0.98-0.3c0.359-0.086,0.746-0.13,1.16-0.13
		c0.8,0,1.453,0.117,1.96,0.351c0.506,0.233,0.902,0.563,1.189,0.989s0.48,0.934,0.58,1.521c0.101,0.587,0.15,1.227,0.15,1.92V550
		h-1.86v-5.44c0-0.612-0.03-1.14-0.09-1.579c-0.06-0.44-0.174-0.807-0.34-1.101c-0.167-0.293-0.394-0.51-0.681-0.649
		c-0.286-0.141-0.656-0.211-1.109-0.211c-0.627,0-1.144,0.084-1.55,0.25c-0.407,0.167-0.684,0.317-0.83,0.45
		c0.106,0.347,0.187,0.728,0.239,1.141c0.054,0.413,0.08,0.847,0.08,1.3V550H49.1v-5.44c0-0.612-0.033-1.14-0.101-1.579
		c-0.066-0.44-0.183-0.807-0.35-1.101c-0.167-0.293-0.394-0.51-0.68-0.649c-0.287-0.141-0.65-0.211-1.091-0.211
		c-0.187,0-0.387,0.008-0.6,0.021c-0.213,0.014-0.417,0.03-0.61,0.05c-0.193,0.021-0.369,0.044-0.529,0.07s-0.268,0.047-0.32,0.06
		V550h-1.86V539.9z"/>
	<path fill="#4F4F4F" d="M63.819,548.1c1.026,0,1.746-0.163,2.16-0.489c0.413-0.327,0.619-0.743,0.619-1.25
		c0-0.373-0.09-0.693-0.27-0.96s-0.42-0.5-0.72-0.7s-0.647-0.38-1.04-0.54c-0.394-0.16-0.797-0.313-1.21-0.46
		c-0.4-0.146-0.797-0.311-1.19-0.49s-0.743-0.4-1.05-0.66s-0.557-0.573-0.75-0.939c-0.193-0.367-0.29-0.817-0.29-1.351
		c0-0.946,0.283-1.723,0.85-2.33c0.567-0.606,1.391-0.989,2.471-1.149v-2.3h1.66v2.239c0.586,0.027,1.133,0.101,1.64,0.221
		c0.507,0.119,0.906,0.233,1.2,0.34l-0.38,1.56c-0.32-0.12-0.721-0.243-1.2-0.37c-0.48-0.126-1.08-0.189-1.8-0.189
		c-0.801,0-1.417,0.153-1.851,0.46s-0.649,0.74-0.649,1.3c0,0.307,0.063,0.566,0.189,0.78c0.127,0.213,0.311,0.403,0.55,0.569
		c0.24,0.167,0.523,0.317,0.851,0.45c0.326,0.134,0.689,0.273,1.09,0.42c0.52,0.2,1.013,0.407,1.479,0.62
		c0.467,0.214,0.877,0.47,1.23,0.771c0.354,0.3,0.637,0.656,0.85,1.069c0.214,0.414,0.32,0.914,0.32,1.5
		c0,0.947-0.287,1.71-0.86,2.29s-1.46,0.943-2.659,1.09v2.58h-1.66v-2.52c-0.934-0.026-1.693-0.13-2.28-0.311
		c-0.587-0.18-1.027-0.35-1.32-0.51l0.5-1.5c0.4,0.188,0.88,0.36,1.44,0.521C62.299,548.02,62.992,548.1,63.819,548.1z"/>
	<path fill="#2F4B9E" d="M26.96,563.34c0.747,0,1.377,0.097,1.89,0.29c0.514,0.193,0.927,0.467,1.24,0.82s0.537,0.773,0.67,1.26
		c0.134,0.487,0.2,1.023,0.2,1.61v6.5c-0.16,0.026-0.384,0.063-0.67,0.109c-0.287,0.047-0.61,0.09-0.97,0.13
		c-0.36,0.04-0.75,0.077-1.17,0.11s-0.837,0.05-1.25,0.05c-0.587,0-1.127-0.06-1.62-0.18s-0.92-0.31-1.28-0.57
		c-0.36-0.26-0.64-0.603-0.84-1.029c-0.2-0.427-0.3-0.94-0.3-1.54c0-0.573,0.117-1.067,0.35-1.48s0.55-0.746,0.95-1
		c0.4-0.253,0.866-0.439,1.4-0.56c0.533-0.12,1.093-0.181,1.68-0.181c0.187,0,0.38,0.011,0.58,0.03
		c0.199,0.021,0.39,0.047,0.569,0.08c0.181,0.033,0.337,0.063,0.471,0.09c0.133,0.027,0.227,0.047,0.279,0.061v-0.521
		c0-0.307-0.033-0.61-0.1-0.91c-0.067-0.3-0.187-0.566-0.36-0.8c-0.173-0.233-0.41-0.42-0.71-0.56c-0.3-0.141-0.69-0.21-1.17-0.21
		c-0.613,0-1.15,0.043-1.61,0.13s-0.803,0.177-1.03,0.27l-0.22-1.54c0.24-0.106,0.64-0.21,1.2-0.31
		C25.7,563.39,26.307,563.34,26.96,563.34z M27.12,572.66c0.44,0,0.83-0.01,1.17-0.03c0.34-0.02,0.623-0.057,0.85-0.11v-3.1
		c-0.133-0.066-0.35-0.123-0.649-0.17s-0.664-0.07-1.09-0.07c-0.28,0-0.577,0.021-0.89,0.061c-0.313,0.04-0.6,0.123-0.86,0.25
		c-0.26,0.127-0.477,0.3-0.65,0.52c-0.173,0.221-0.26,0.51-0.26,0.87c0,0.667,0.213,1.13,0.64,1.39
		C25.807,572.53,26.387,572.66,27.12,572.66z"/>
	<path fill="#2F4B9E" d="M34.039,563.9c0.427-0.107,0.99-0.221,1.69-0.341c0.7-0.119,1.51-0.18,2.43-0.18
		c0.667,0,1.227,0.09,1.681,0.271c0.453,0.18,0.833,0.443,1.14,0.79c0.093-0.067,0.24-0.16,0.44-0.28
		c0.199-0.12,0.446-0.236,0.739-0.351c0.293-0.112,0.62-0.213,0.98-0.3c0.359-0.086,0.746-0.13,1.16-0.13
		c0.8,0,1.453,0.117,1.96,0.351c0.506,0.233,0.902,0.563,1.189,0.989s0.48,0.934,0.58,1.521c0.101,0.587,0.15,1.227,0.15,1.92V574
		h-1.86v-5.44c0-0.612-0.03-1.14-0.09-1.579c-0.06-0.44-0.174-0.807-0.34-1.101c-0.167-0.293-0.394-0.51-0.681-0.649
		c-0.286-0.141-0.656-0.211-1.109-0.211c-0.627,0-1.144,0.084-1.55,0.25c-0.407,0.167-0.684,0.317-0.83,0.45
		c0.106,0.347,0.187,0.728,0.239,1.141c0.054,0.413,0.08,0.847,0.08,1.3V574H40.18v-5.44c0-0.612-0.033-1.14-0.101-1.579
		c-0.066-0.44-0.183-0.807-0.35-1.101c-0.167-0.293-0.394-0.51-0.68-0.649c-0.287-0.141-0.65-0.211-1.091-0.211
		c-0.187,0-0.387,0.008-0.6,0.021c-0.213,0.014-0.417,0.03-0.61,0.05c-0.193,0.021-0.369,0.044-0.529,0.07s-0.268,0.047-0.32,0.06
		V574h-1.86V563.9z"/>
	<path fill="#2F4B9E" d="M54.899,572.1c1.026,0,1.746-0.163,2.16-0.489c0.413-0.327,0.619-0.743,0.619-1.25
		c0-0.373-0.09-0.693-0.27-0.96s-0.42-0.5-0.72-0.7s-0.647-0.38-1.04-0.54c-0.394-0.16-0.797-0.313-1.21-0.46
		c-0.4-0.146-0.797-0.311-1.19-0.49s-0.743-0.4-1.05-0.66s-0.557-0.573-0.75-0.939c-0.193-0.367-0.29-0.817-0.29-1.351
		c0-0.946,0.283-1.723,0.85-2.33c0.567-0.606,1.391-0.989,2.471-1.149v-2.3h1.66v2.239c0.586,0.027,1.133,0.101,1.64,0.221
		c0.507,0.119,0.906,0.233,1.2,0.34l-0.38,1.56c-0.32-0.12-0.721-0.243-1.2-0.37c-0.48-0.126-1.08-0.189-1.8-0.189
		c-0.801,0-1.417,0.153-1.851,0.46s-0.649,0.74-0.649,1.3c0,0.307,0.063,0.566,0.189,0.78c0.127,0.213,0.311,0.403,0.55,0.569
		c0.24,0.167,0.523,0.317,0.851,0.45c0.326,0.134,0.689,0.273,1.09,0.42c0.52,0.2,1.013,0.407,1.479,0.62
		c0.467,0.214,0.877,0.47,1.23,0.771c0.354,0.3,0.637,0.656,0.85,1.069c0.214,0.414,0.32,0.914,0.32,1.5
		c0,0.947-0.287,1.71-0.86,2.29s-1.46,0.943-2.659,1.09v2.58h-1.66v-2.52c-0.934-0.026-1.693-0.13-2.28-0.311
		c-0.587-0.18-1.027-0.35-1.32-0.51l0.5-1.5c0.4,0.188,0.88,0.36,1.44,0.521C53.379,572.02,54.072,572.1,54.899,572.1z"/>
	<path fill="#2F4B9E" d="M23.6,587.9c0.426-0.107,0.99-0.221,1.69-0.341c0.7-0.119,1.51-0.18,2.43-0.18
		c0.667,0,1.227,0.09,1.681,0.271c0.453,0.18,0.833,0.443,1.14,0.79c0.093-0.067,0.24-0.16,0.44-0.28
		c0.199-0.12,0.446-0.236,0.739-0.351c0.293-0.112,0.62-0.213,0.98-0.3c0.359-0.086,0.746-0.13,1.16-0.13
		c0.8,0,1.453,0.117,1.96,0.351c0.506,0.233,0.902,0.563,1.189,0.989s0.48,0.934,0.58,1.521c0.101,0.587,0.15,1.227,0.15,1.92V598
		h-1.86v-5.44c0-0.612-0.03-1.14-0.09-1.579c-0.06-0.44-0.174-0.807-0.34-1.101c-0.167-0.293-0.394-0.51-0.681-0.649
		c-0.286-0.141-0.656-0.211-1.109-0.211c-0.627,0-1.144,0.084-1.55,0.25c-0.407,0.167-0.684,0.317-0.83,0.45
		c0.106,0.347,0.187,0.728,0.239,1.141c0.054,0.413,0.08,0.847,0.08,1.3V598H29.74v-5.44c0-0.612-0.033-1.14-0.101-1.579
		c-0.066-0.44-0.183-0.807-0.35-1.101c-0.167-0.293-0.394-0.51-0.68-0.649c-0.287-0.141-0.65-0.211-1.09-0.211
		c-0.187,0-0.387,0.008-0.6,0.021c-0.213,0.014-0.417,0.03-0.61,0.05c-0.193,0.021-0.37,0.044-0.53,0.07
		c-0.16,0.026-0.267,0.047-0.32,0.06V598H23.6V587.9z"/>
	<path fill="#2F4B9E" d="M44.46,596.1c1.026,0,1.746-0.163,2.16-0.489c0.413-0.327,0.619-0.743,0.619-1.25
		c0-0.373-0.09-0.693-0.27-0.96s-0.42-0.5-0.72-0.7s-0.647-0.38-1.04-0.54c-0.394-0.16-0.797-0.313-1.21-0.46
		c-0.4-0.146-0.797-0.311-1.19-0.49s-0.743-0.4-1.05-0.66s-0.557-0.573-0.75-0.939c-0.193-0.367-0.29-0.817-0.29-1.351
		c0-0.946,0.283-1.723,0.85-2.33c0.567-0.606,1.391-0.989,2.471-1.149v-2.3h1.66v2.239c0.586,0.027,1.133,0.101,1.64,0.221
		c0.507,0.119,0.906,0.233,1.2,0.34l-0.38,1.56c-0.32-0.12-0.721-0.243-1.2-0.37c-0.48-0.126-1.08-0.189-1.8-0.189
		c-0.801,0-1.417,0.153-1.851,0.46s-0.649,0.74-0.649,1.3c0,0.307,0.063,0.566,0.189,0.78c0.127,0.213,0.311,0.403,0.55,0.569
		c0.24,0.167,0.523,0.317,0.851,0.45c0.326,0.134,0.689,0.273,1.09,0.42c0.52,0.2,1.013,0.407,1.479,0.62
		c0.467,0.214,0.877,0.47,1.23,0.771c0.354,0.3,0.637,0.656,0.85,1.069c0.214,0.414,0.32,0.914,0.32,1.5
		c0,0.947-0.287,1.71-0.86,2.29s-1.46,0.943-2.659,1.09v2.58h-1.66v-2.52c-0.934-0.026-1.693-0.13-2.28-0.311
		c-0.587-0.18-1.027-0.35-1.32-0.51l0.5-1.5c0.4,0.188,0.88,0.36,1.44,0.521C42.939,596.02,43.633,596.1,44.46,596.1z"/>
	<path fill="#2F4B9E" d="M27.24,620.1c1.026,0,1.746-0.163,2.16-0.489c0.413-0.327,0.619-0.743,0.619-1.25
		c0-0.373-0.09-0.693-0.27-0.96s-0.42-0.5-0.72-0.7s-0.647-0.38-1.04-0.54c-0.394-0.16-0.797-0.313-1.21-0.46
		c-0.4-0.146-0.797-0.311-1.19-0.49s-0.743-0.4-1.05-0.66c-0.307-0.26-0.557-0.573-0.75-0.939c-0.193-0.367-0.29-0.817-0.29-1.351
		c0-0.946,0.283-1.723,0.85-2.33c0.566-0.606,1.39-0.989,2.47-1.149v-2.3h1.661v2.239c0.586,0.027,1.133,0.101,1.64,0.221
		c0.507,0.119,0.906,0.233,1.2,0.34l-0.38,1.56c-0.32-0.12-0.721-0.243-1.2-0.37c-0.48-0.126-1.08-0.189-1.8-0.189
		c-0.8,0-1.417,0.153-1.851,0.46s-0.65,0.74-0.65,1.3c0,0.307,0.063,0.566,0.19,0.78c0.126,0.213,0.31,0.403,0.55,0.569
		c0.24,0.167,0.523,0.317,0.85,0.45c0.327,0.134,0.69,0.273,1.09,0.42c0.52,0.2,1.013,0.407,1.479,0.62
		c0.467,0.214,0.877,0.47,1.23,0.771c0.354,0.3,0.637,0.656,0.85,1.069c0.214,0.414,0.32,0.914,0.32,1.5
		c0,0.947-0.287,1.71-0.86,2.29s-1.46,0.943-2.659,1.09v2.58H26.82v-2.52c-0.933-0.026-1.693-0.13-2.28-0.311
		c-0.587-0.18-1.027-0.35-1.32-0.51l0.5-1.5c0.4,0.188,0.88,0.36,1.44,0.521C25.72,620.02,26.413,620.1,27.24,620.1z"/>
</g>
</svg>
