<?xml version="1.0" encoding="utf-8"?>
<!-- Generator: Adobe Illustrator 16.0.0, SVG Export Plug-In . SVG Version: 6.00 Build 0)  -->
<!DOCTYPE svg PUBLIC "-//W3C//DTD SVG 1.1//EN" "http://www.w3.org/Graphics/SVG/1.1/DTD/svg11.dtd">
<svg version="1.1" id="图层_1" xmlns="http://www.w3.org/2000/svg" xmlns:xlink="http://www.w3.org/1999/xlink" x="0px" y="0px"
	 width="232px" height="152px" viewBox="0 0 232 152" enable-background="new 0 0 232 152" xml:space="preserve">
<g id="graph1" transform="scale(1 1) rotate(0) translate(4 148)">
	<title>G</title>
	<polygon fill="#FFFFFF" stroke="#FFFFFF" points="-4,5 -4,-148 229,-148 229,5 	"/>
	<g id="node1">
		<title>0</title>
		<ellipse fill="none" stroke="#000000" stroke-width="2" cx="18" cy="-72" rx="18" ry="18"/>
		<g enable-background="new    ">
			<path d="M22.639-73.377c0,0.977-0.098,1.867-0.293,2.671s-0.492,1.494-0.889,2.07s-0.89,1.022-1.479,1.338
				s-1.281,0.474-2.075,0.474c-0.684,0-1.305-0.129-1.865-0.386s-1.039-0.652-1.436-1.187s-0.703-1.214-0.918-2.041
				s-0.322-1.807-0.322-2.939c0-0.977,0.099-1.868,0.298-2.676s0.495-1.499,0.889-2.075s0.887-1.022,1.479-1.338
				s1.283-0.474,2.07-0.474c0.684,0,1.305,0.129,1.865,0.386s1.039,0.654,1.436,1.191s0.703,1.219,0.918,2.046
				S22.639-74.51,22.639-73.377z M15.08-73.436c0,0.202,0.001,0.403,0.005,0.605s0.015,0.397,0.034,0.586l5.4-3.994
				c-0.098-0.332-0.221-0.635-0.371-0.908s-0.329-0.51-0.537-0.708s-0.446-0.354-0.713-0.464S18.332-78.484,18-78.484
				c-0.443,0-0.845,0.107-1.206,0.322s-0.669,0.535-0.923,0.962s-0.449,0.954-0.586,1.582S15.08-74.263,15.08-73.436z M20.92-73.318
				c0-0.222-0.008-0.441-0.024-0.659s-0.034-0.432-0.054-0.64l-5.4,4.014c0.098,0.339,0.221,0.651,0.371,0.938
				s0.331,0.532,0.542,0.737s0.453,0.364,0.723,0.479s0.578,0.171,0.923,0.171c0.443,0,0.845-0.107,1.206-0.322
				s0.669-0.534,0.923-0.957s0.449-0.949,0.586-1.577S20.92-72.491,20.92-73.318z"/>
		</g>
	</g>
	<g id="node3">
		<title>2</title>
		<ellipse fill="none" stroke="#000000" stroke-width="2" cx="206" cy="-126" rx="18" ry="18"/>
		<g enable-background="new    ">
			<path d="M210.346-121h-8.408v-1.523l3.301-3.281c0.541-0.534,0.98-0.996,1.318-1.387s0.602-0.747,0.791-1.069
				s0.316-0.627,0.381-0.913s0.098-0.596,0.098-0.928c0-0.313-0.043-0.61-0.127-0.894s-0.215-0.532-0.391-0.747
				s-0.404-0.384-0.684-0.508s-0.615-0.186-1.006-0.186c-0.541,0-1.031,0.12-1.475,0.361s-0.85,0.554-1.221,0.938l-0.938-1.123
				c0.482-0.508,1.037-0.915,1.665-1.221s1.358-0.459,2.192-0.459c0.566,0,1.082,0.085,1.548,0.254s0.868,0.413,1.206,0.732
				s0.601,0.71,0.786,1.172s0.278,0.983,0.278,1.563c0,0.488-0.064,0.94-0.195,1.357s-0.327,0.832-0.591,1.245
				s-0.596,0.842-0.996,1.284s-0.874,0.928-1.421,1.455l-2.314,2.256h6.201V-121z"/>
		</g>
	</g>
	<g id="edge2">
		<title>0-&gt;2</title>
		<path fill="none" stroke="#FF0000" stroke-width="2" d="M35.506-76.792c32.263-9.367,103.935-30.175,142.947-41.501"/>
		<polygon fill="#FF0000" stroke="#FF0000" points="188.531,-121.219 177.673,-122.752 183.59,-120.305 178.788,-118.911 
			178.927,-118.43 179.066,-117.95 183.868,-119.344 180.182,-114.109 188.531,-121.219 		"/>
		<g enable-background="new    ">
			<path fill="#0000FF" d="M82.331-126.66c0.747,0,1.376,0.097,1.89,0.29c0.513,0.193,0.926,0.467,1.24,0.82s0.537,0.773,0.67,1.26
				c0.133,0.487,0.2,1.023,0.2,1.61v6.5c-0.16,0.026-0.383,0.063-0.67,0.109c-0.287,0.047-0.61,0.09-0.97,0.13
				c-0.36,0.04-0.75,0.077-1.17,0.11s-0.837,0.05-1.25,0.05c-0.587,0-1.127-0.06-1.62-0.18s-0.92-0.31-1.28-0.57
				c-0.36-0.26-0.64-0.603-0.84-1.029c-0.2-0.427-0.3-0.94-0.3-1.54c0-0.573,0.117-1.067,0.35-1.48s0.55-0.746,0.95-1
				c0.4-0.253,0.866-0.439,1.4-0.56c0.533-0.12,1.093-0.181,1.68-0.181c0.187,0,0.38,0.011,0.58,0.03
				c0.2,0.021,0.39,0.047,0.57,0.08c0.18,0.033,0.336,0.063,0.47,0.09c0.133,0.027,0.227,0.047,0.28,0.061v-0.521
				c0-0.307-0.034-0.61-0.1-0.91c-0.067-0.3-0.187-0.566-0.36-0.8c-0.174-0.233-0.41-0.42-0.71-0.56c-0.3-0.141-0.69-0.21-1.17-0.21
				c-0.613,0-1.15,0.043-1.61,0.13s-0.803,0.177-1.03,0.27l-0.22-1.54c0.24-0.106,0.64-0.21,1.2-0.31
				C81.071-126.61,81.678-126.66,82.331-126.66z M82.491-117.34c0.44,0,0.83-0.01,1.17-0.03c0.34-0.02,0.623-0.057,0.85-0.11v-3.1
				c-0.134-0.066-0.35-0.123-0.65-0.17c-0.3-0.047-0.664-0.07-1.09-0.07c-0.28,0-0.577,0.021-0.89,0.061
				c-0.313,0.04-0.6,0.123-0.86,0.25c-0.26,0.127-0.477,0.3-0.65,0.52c-0.173,0.221-0.26,0.51-0.26,0.87
				c0,0.667,0.213,1.13,0.64,1.39C81.178-117.47,81.758-117.34,82.491-117.34z"/>
			<path fill="#0000FF" d="M95.851-121.98c0,1.707,0.247,3.287,0.74,4.74c0.493,1.453,1.22,2.8,2.18,4.04l-1.32,0.9
				c-1.04-1.267-1.877-2.724-2.51-4.37s-0.95-3.417-0.95-5.311c0-1.893,0.316-3.663,0.95-5.31s1.47-3.104,2.51-4.37l1.32,0.9
				c-0.96,1.24-1.687,2.587-2.18,4.04C96.097-125.267,95.851-123.687,95.851-121.98z"/>
			<path fill="#0000FF" d="M108.25-126.32c0,0.48-0.097,0.943-0.29,1.391c-0.193,0.446-0.45,0.887-0.77,1.319
				c-0.32,0.434-0.68,0.86-1.08,1.28c-0.4,0.42-0.8,0.83-1.2,1.23c-0.227,0.227-0.49,0.493-0.79,0.8s-0.583,0.627-0.85,0.96
				s-0.49,0.653-0.67,0.96s-0.27,0.573-0.27,0.8h6.38v1.58h-8.4c-0.013-0.08-0.02-0.16-0.02-0.24s0-0.153,0-0.22
				c0-0.627,0.103-1.21,0.31-1.75c0.207-0.54,0.477-1.05,0.81-1.53c0.333-0.479,0.707-0.933,1.12-1.359
				c0.413-0.427,0.82-0.841,1.22-1.24c0.333-0.32,0.65-0.637,0.95-0.95s0.566-0.627,0.8-0.94c0.233-0.313,0.42-0.636,0.56-0.97
				c0.14-0.333,0.21-0.687,0.21-1.06c0-0.4-0.063-0.74-0.19-1.021c-0.127-0.279-0.297-0.513-0.51-0.7
				c-0.213-0.187-0.463-0.322-0.75-0.409c-0.287-0.087-0.59-0.13-0.91-0.13c-0.387,0-0.74,0.053-1.06,0.159
				c-0.32,0.107-0.607,0.23-0.86,0.37c-0.253,0.141-0.467,0.287-0.64,0.44s-0.307,0.27-0.4,0.35l-0.92-1.319
				c0.12-0.134,0.3-0.297,0.54-0.49c0.24-0.193,0.526-0.377,0.86-0.55c0.333-0.174,0.707-0.32,1.12-0.44
				c0.413-0.12,0.86-0.18,1.34-0.18c1.453,0,2.543,0.337,3.27,1.01C107.887-128.496,108.25-127.547,108.25-126.32z"/>
			<path fill="#0000FF" d="M113.75-118.28c0.014,0.107,0.021,0.21,0.021,0.311c0,0.1,0,0.203,0,0.31c0,0.84-0.124,1.67-0.37,2.49
				c-0.247,0.82-0.584,1.604-1.01,2.35l-1.44-0.46c0.333-0.68,0.553-1.37,0.66-2.069c0.106-0.7,0.16-1.357,0.16-1.971
				c0-0.173-0.003-0.34-0.01-0.5s-0.017-0.313-0.03-0.46H113.75z"/>
			<path fill="#0000FF" d="M117.63-128.28c-0.333,0-0.616-0.109-0.851-0.33c-0.232-0.22-0.35-0.517-0.35-0.89s0.117-0.67,0.35-0.89
				c0.234-0.221,0.518-0.33,0.851-0.33s0.616,0.109,0.851,0.33c0.232,0.22,0.35,0.517,0.35,0.89s-0.117,0.67-0.35,0.89
				C118.246-128.39,117.963-128.28,117.63-128.28z M118.57-116h-1.86v-10.4h1.86V-116z"/>
			<path fill="#0000FF" d="M121.77-126.1c0.427-0.107,0.994-0.221,1.7-0.341c0.706-0.119,1.521-0.18,2.44-0.18
				c0.826,0,1.513,0.117,2.06,0.351s0.983,0.56,1.31,0.979c0.327,0.42,0.557,0.924,0.69,1.51c0.134,0.587,0.2,1.233,0.2,1.94v5.84
				h-1.859v-5.44c0-0.64-0.044-1.187-0.131-1.64c-0.086-0.453-0.23-0.82-0.43-1.1c-0.2-0.28-0.467-0.483-0.801-0.61
				c-0.332-0.127-0.746-0.19-1.239-0.19c-0.2,0-0.407,0.008-0.62,0.021c-0.213,0.014-0.417,0.03-0.609,0.05
				c-0.193,0.021-0.367,0.044-0.521,0.07s-0.264,0.047-0.33,0.06v8.78h-1.86V-126.1z"/>
			<path fill="#0000FF" d="M137.31-131.52c0.546,0,1.017,0.039,1.409,0.119c0.394,0.08,0.671,0.154,0.83,0.221l-0.34,1.6
				c-0.16-0.08-0.387-0.156-0.68-0.229s-0.653-0.11-1.08-0.11c-0.867,0-1.473,0.236-1.82,0.71c-0.346,0.474-0.52,1.11-0.52,1.91
				v0.899h4v1.561h-4v8.84h-1.859v-11.34c0-1.333,0.326-2.363,0.979-3.09S135.909-131.52,137.31-131.52z"/>
			<path fill="#0000FF" d="M143.209-121.98c0-1.706-0.247-3.286-0.74-4.739s-1.22-2.8-2.18-4.04l1.32-0.9
				c1.039,1.267,1.876,2.724,2.51,4.37c0.633,1.646,0.949,3.417,0.949,5.31c0,1.894-0.316,3.664-0.949,5.311
				c-0.634,1.646-1.471,3.104-2.51,4.37l-1.32-0.9c0.96-1.24,1.687-2.587,2.18-4.04S143.209-120.273,143.209-121.98z"/>
		</g>
	</g>
	<g id="node5">
		<title>1</title>
		<ellipse fill="none" stroke="#000000" stroke-width="2" cx="206" cy="-18" rx="18" ry="18"/>
		<g enable-background="new    ">
			<path d="M210.238-13h-8.018v-1.582h3.281v-9.316l-3.057,1.66l-0.625-1.445l4.063-2.139h1.504v11.24h2.852V-13z"/>
		</g>
	</g>
	<g id="edge4">
		<title>0-&gt;1</title>
		<path fill="none" stroke="#000000" stroke-width="2" d="M34.384-63.605C44.761-58.23,58.9-51.453,72-47
			c35.753,12.155,78.689,20.435,105.913,24.941"/>
		<polygon stroke="#000000" points="187.87,-20.463 178.708,-26.489 183.014,-21.748 178.075,-22.539 177.996,-22.046 
			177.917,-21.552 182.854,-20.761 177.284,-17.603 187.87,-20.463 		"/>
		<g enable-background="new    ">
			<path fill="#0000FF" d="M78.841-52.76c-0.84,0-1.577-0.134-2.21-0.4c-0.634-0.267-1.167-0.64-1.6-1.12
				c-0.434-0.479-0.757-1.05-0.97-1.71s-0.32-1.39-0.32-2.189c0-0.801,0.117-1.533,0.35-2.2c0.233-0.667,0.563-1.243,0.99-1.73
				c0.427-0.486,0.95-0.866,1.57-1.14c0.62-0.273,1.31-0.41,2.07-0.41c0.467,0,0.933,0.04,1.4,0.12s0.913,0.207,1.34,0.38
				l-0.42,1.58c-0.28-0.133-0.603-0.24-0.97-0.32c-0.367-0.08-0.757-0.119-1.17-0.119c-1.04,0-1.837,0.326-2.39,0.979
				c-0.554,0.653-0.83,1.606-0.83,2.86c0,0.56,0.063,1.073,0.19,1.54c0.126,0.467,0.327,0.866,0.6,1.199
				c0.273,0.334,0.623,0.591,1.05,0.771s0.947,0.27,1.56,0.27c0.493,0,0.94-0.046,1.34-0.14c0.4-0.093,0.713-0.193,0.94-0.3
				l0.26,1.56c-0.107,0.067-0.26,0.13-0.46,0.19c-0.2,0.06-0.427,0.113-0.68,0.16c-0.253,0.046-0.523,0.086-0.81,0.12
				C79.384-52.777,79.108-52.76,78.841-52.76z"/>
			<path fill="#0000FF" d="M86.981-63.66c0.747,0,1.376,0.097,1.89,0.29c0.513,0.193,0.926,0.467,1.24,0.82s0.537,0.773,0.67,1.26
				c0.133,0.487,0.2,1.023,0.2,1.61v6.5c-0.16,0.026-0.383,0.063-0.67,0.109c-0.287,0.047-0.61,0.09-0.97,0.13
				c-0.36,0.04-0.75,0.077-1.17,0.11s-0.837,0.05-1.25,0.05c-0.587,0-1.127-0.06-1.62-0.18s-0.92-0.31-1.28-0.57
				c-0.36-0.26-0.64-0.603-0.84-1.029c-0.2-0.427-0.3-0.94-0.3-1.54c0-0.573,0.117-1.067,0.35-1.48s0.55-0.746,0.95-1
				c0.4-0.253,0.866-0.439,1.4-0.56c0.533-0.12,1.093-0.181,1.68-0.181c0.187,0,0.38,0.011,0.58,0.03
				c0.2,0.021,0.39,0.047,0.57,0.08c0.18,0.033,0.336,0.063,0.47,0.09c0.133,0.027,0.227,0.047,0.28,0.061v-0.521
				c0-0.307-0.034-0.61-0.1-0.91c-0.067-0.3-0.187-0.566-0.36-0.8c-0.174-0.233-0.41-0.42-0.71-0.56c-0.3-0.141-0.69-0.21-1.17-0.21
				c-0.613,0-1.15,0.043-1.61,0.13s-0.803,0.177-1.03,0.27l-0.22-1.54c0.24-0.106,0.64-0.21,1.2-0.31
				C85.721-63.61,86.328-63.66,86.981-63.66z M87.141-54.34c0.44,0,0.83-0.01,1.17-0.03c0.34-0.02,0.623-0.057,0.85-0.11v-3.1
				c-0.134-0.066-0.35-0.123-0.65-0.17c-0.3-0.047-0.664-0.07-1.09-0.07c-0.28,0-0.577,0.021-0.89,0.061
				c-0.313,0.04-0.6,0.123-0.86,0.25c-0.26,0.127-0.477,0.3-0.65,0.52c-0.173,0.221-0.26,0.51-0.26,0.87
				c0,0.667,0.213,1.13,0.64,1.39C85.828-54.47,86.408-54.34,87.141-54.34z"/>
			<path fill="#0000FF" d="M100.5-58.98c0,1.707,0.247,3.287,0.74,4.74c0.493,1.453,1.22,2.8,2.18,4.04l-1.32,0.9
				c-1.04-1.267-1.877-2.724-2.51-4.37s-0.95-3.417-0.95-5.311c0-1.893,0.316-3.663,0.95-5.31s1.47-3.104,2.51-4.37l1.32,0.9
				c-0.96,1.24-1.687,2.587-2.18,4.04C100.747-62.267,100.5-60.687,100.5-58.98z"/>
			<path fill="#0000FF" d="M105.42-64c0.76-0.293,1.5-0.67,2.22-1.13c0.72-0.46,1.38-1.037,1.98-1.73h1.32V-53h-1.86v-11.28
				c-0.16,0.147-0.357,0.3-0.59,0.46c-0.233,0.16-0.487,0.313-0.76,0.46c-0.273,0.147-0.56,0.287-0.86,0.42
				c-0.3,0.134-0.59,0.247-0.87,0.341L105.42-64z"/>
			<path fill="#0000FF" d="M118.4-55.28c0.014,0.107,0.02,0.21,0.02,0.311c0,0.1,0,0.203,0,0.31c0,0.84-0.123,1.67-0.369,2.49
				c-0.248,0.82-0.584,1.604-1.01,2.35l-1.441-0.46c0.334-0.68,0.554-1.37,0.66-2.069c0.107-0.7,0.16-1.357,0.16-1.971
				c0-0.173-0.003-0.34-0.01-0.5s-0.017-0.313-0.029-0.46H118.4z"/>
			<path fill="#0000FF" d="M122.28-65.28c-0.333,0-0.616-0.109-0.851-0.33c-0.232-0.22-0.35-0.517-0.35-0.89s0.117-0.67,0.35-0.89
				c0.234-0.221,0.518-0.33,0.851-0.33s0.616,0.109,0.851,0.33c0.232,0.22,0.35,0.517,0.35,0.89s-0.117,0.67-0.35,0.89
				C122.896-65.39,122.613-65.28,122.28-65.28z M123.221-53h-1.86v-10.4h1.86V-53z"/>
			<path fill="#0000FF" d="M126.42-63.1c0.426-0.107,0.993-0.221,1.699-0.341c0.707-0.119,1.521-0.18,2.441-0.18
				c0.826,0,1.512,0.117,2.059,0.351s0.984,0.56,1.311,0.979s0.557,0.924,0.689,1.51c0.134,0.587,0.201,1.233,0.201,1.94V-53h-1.86
				v-5.44c0-0.64-0.044-1.187-0.13-1.64c-0.087-0.453-0.23-0.82-0.43-1.1c-0.201-0.28-0.467-0.483-0.801-0.61
				c-0.333-0.127-0.746-0.19-1.24-0.19c-0.199,0-0.406,0.008-0.619,0.021c-0.214,0.014-0.418,0.03-0.61,0.05
				c-0.193,0.021-0.366,0.044-0.521,0.07c-0.152,0.026-0.264,0.047-0.33,0.06V-53h-1.859V-63.1z"/>
			<path fill="#0000FF" d="M141.96-68.52c0.546,0,1.017,0.039,1.409,0.119c0.394,0.08,0.671,0.154,0.83,0.221l-0.34,1.6
				c-0.16-0.08-0.387-0.156-0.68-0.229s-0.653-0.11-1.08-0.11c-0.867,0-1.473,0.236-1.82,0.71c-0.346,0.474-0.52,1.11-0.52,1.91
				v0.899h4v1.561h-4V-53H137.9v-11.34c0-1.333,0.326-2.363,0.979-3.09S140.56-68.52,141.96-68.52z"/>
			<path fill="#0000FF" d="M147.859-58.98c0-1.706-0.247-3.286-0.74-4.739s-1.22-2.8-2.18-4.04l1.32-0.9
				c1.039,1.267,1.876,2.724,2.51,4.37c0.633,1.646,0.949,3.417,0.949,5.31c0,1.894-0.316,3.664-0.949,5.311
				c-0.634,1.646-1.471,3.104-2.51,4.37l-1.32-0.9c0.96-1.24,1.687-2.587,2.18-4.04S147.859-57.273,147.859-58.98z"/>
		</g>
	</g>
</g>
</svg>
