<?xml version="1.0" encoding="utf-8"?>
<!-- Generator: Adobe Illustrator 16.0.0, SVG Export Plug-In . SVG Version: 6.00 Build 0)  -->
<!DOCTYPE svg PUBLIC "-//W3C//DTD SVG 1.1//EN" "http://www.w3.org/Graphics/SVG/1.1/DTD/svg11.dtd">
<svg version="1.1" id="图层_1" xmlns="http://www.w3.org/2000/svg" xmlns:xlink="http://www.w3.org/1999/xlink" x="0px" y="0px"
	 width="152px" height="536px" viewBox="0 0 152 536" enable-background="new 0 0 152 536" xml:space="preserve">
<g id="graph1" transform="scale(1 1) rotate(0) translate(4 532)">
	<title>G</title>
	<polygon fill="#FFFFFF" stroke="#FFFFFF" points="-4,5 -4,-532 149,-532 149,5 	"/>
	<g id="node1">
		<title>0</title>
		<ellipse fill="none" stroke="#000000" stroke-width="2" cx="72" cy="-510" rx="18" ry="18"/>
	</g>
	<g id="node3">
		<title>1</title>
		<ellipse fill="none" stroke="#000000" stroke-width="2" cx="18" cy="-428" rx="18" ry="18"/>
	</g>
	<g id="edge2">
		<title>0-&gt;1</title>
		<path fill="none" stroke="#000000" stroke-width="2" d="M62.346-494.698c-8.013,11.872-19.561,28.98-28.864,42.762"/>
		<polygon stroke="#000000" points="27.752,-443.448 37.077,-449.219 30.964,-447.313 33.762,-451.457 33.348,-451.737 
			32.933,-452.017 30.136,-447.872 29.618,-454.254 27.752,-443.448 		"/>
		<g enable-background="new    ">
			<path fill="#0000FF" d="M54.374-474.66c0.747,0,1.376,0.097,1.89,0.29c0.513,0.193,0.926,0.467,1.24,0.82s0.537,0.773,0.67,1.26
				c0.133,0.487,0.2,1.023,0.2,1.61v6.5c-0.16,0.026-0.383,0.063-0.67,0.109c-0.287,0.047-0.61,0.09-0.97,0.13
				c-0.36,0.04-0.75,0.077-1.17,0.11s-0.837,0.05-1.25,0.05c-0.587,0-1.127-0.06-1.62-0.18s-0.92-0.31-1.28-0.57
				c-0.36-0.26-0.64-0.603-0.84-1.029c-0.2-0.427-0.3-0.94-0.3-1.54c0-0.573,0.117-1.067,0.35-1.48s0.55-0.746,0.95-1
				c0.4-0.253,0.866-0.439,1.4-0.56c0.533-0.12,1.093-0.181,1.68-0.181c0.187,0,0.38,0.011,0.58,0.03
				c0.2,0.021,0.39,0.047,0.57,0.08c0.18,0.033,0.336,0.063,0.47,0.09c0.133,0.027,0.227,0.047,0.28,0.061v-0.521
				c0-0.307-0.034-0.61-0.1-0.91c-0.067-0.3-0.187-0.566-0.36-0.8c-0.174-0.233-0.41-0.42-0.71-0.56c-0.3-0.141-0.69-0.21-1.17-0.21
				c-0.613,0-1.15,0.043-1.61,0.13s-0.803,0.177-1.03,0.27l-0.22-1.54c0.24-0.106,0.64-0.21,1.2-0.31
				C53.114-474.61,53.721-474.66,54.374-474.66z M54.534-465.34c0.44,0,0.83-0.01,1.17-0.03c0.34-0.02,0.623-0.057,0.85-0.11v-3.1
				c-0.134-0.066-0.35-0.123-0.65-0.17c-0.3-0.047-0.664-0.07-1.09-0.07c-0.28,0-0.577,0.021-0.89,0.061
				c-0.313,0.04-0.6,0.123-0.86,0.25c-0.26,0.127-0.477,0.3-0.65,0.52c-0.173,0.221-0.26,0.51-0.26,0.87
				c0,0.667,0.213,1.13,0.64,1.39C53.221-465.47,53.801-465.34,54.534-465.34z"/>
		</g>
	</g>
	<g id="node13">
		<title>6</title>
		<ellipse fill="none" stroke="#000000" stroke-width="2" cx="72" cy="-428" rx="18" ry="18"/>
	</g>
	<g id="edge12">
		<title>0-&gt;6</title>
		<path fill="none" stroke="#000000" stroke-width="2" d="M72-491.641c0,10.344,0,23.7,0,35.42"/>
		<polygon stroke="#000000" points="72,-446.05 76.5,-456.05 72.5,-451.05 72.5,-456.05 72,-456.05 71.5,-456.05 71.5,-451.05 
			67.5,-456.05 72,-446.05 		"/>
		<g enable-background="new    ">
			<path fill="#0000FF" d="M78.07-473.94c0.227-0.146,0.57-0.3,1.03-0.46c0.46-0.159,0.989-0.239,1.59-0.239
				c0.747,0,1.41,0.133,1.989,0.399c0.58,0.268,1.07,0.641,1.471,1.12c0.4,0.48,0.703,1.054,0.91,1.72
				c0.207,0.667,0.31,1.4,0.31,2.2c0,0.84-0.123,1.597-0.37,2.271c-0.246,0.673-0.597,1.243-1.05,1.71s-1,0.826-1.64,1.08
				c-0.641,0.253-1.36,0.38-2.16,0.38c-0.867,0-1.633-0.061-2.3-0.181c-0.667-0.119-1.214-0.239-1.64-0.359v-14.9l1.859-0.319
				V-473.94z M78.07-465.62c0.187,0.054,0.45,0.104,0.79,0.15s0.763,0.069,1.271,0.069c1,0,1.799-0.33,2.399-0.989
				c0.601-0.66,0.899-1.597,0.899-2.811c0-0.533-0.053-1.033-0.159-1.5s-0.28-0.87-0.521-1.21s-0.55-0.606-0.93-0.8
				S80.983-473,80.45-473c-0.507,0-0.974,0.087-1.399,0.26c-0.428,0.174-0.754,0.354-0.98,0.54V-465.62z"/>
		</g>
	</g>
	<g id="node25">
		<title>12</title>
		<ellipse fill="none" stroke="#000000" stroke-width="2" cx="126" cy="-428" rx="18" ry="18"/>
	</g>
	<g id="edge24">
		<title>0-&gt;12</title>
		<path fill="none" stroke="#000000" stroke-width="2" d="M82.404-494.945C85.832-490.232,89.628-484.923,93-480
			c6.104,8.912,12.605,18.856,18.21,27.58"/>
		<polygon stroke="#000000" points="116.671,-443.864 115.084,-454.715 114.402,-448.348 111.712,-452.563 111.291,-452.294 
			110.869,-452.024 113.561,-447.81 107.498,-449.872 116.671,-443.864 		"/>
		<g enable-background="new    ">
			<path fill="#0000FF" d="M108.36-474.1c0.427-0.107,0.993-0.221,1.7-0.341c0.706-0.119,1.52-0.18,2.439-0.18
				c0.826,0,1.514,0.117,2.061,0.351s0.982,0.56,1.31,0.979s0.557,0.924,0.69,1.51c0.133,0.587,0.199,1.233,0.199,1.94v5.84H114.9
				v-5.44c0-0.64-0.043-1.187-0.131-1.64c-0.086-0.453-0.229-0.82-0.43-1.1c-0.199-0.28-0.467-0.483-0.8-0.61
				s-0.747-0.19-1.239-0.19c-0.201,0-0.407,0.008-0.621,0.021c-0.213,0.014-0.416,0.03-0.609,0.05
				c-0.193,0.021-0.367,0.044-0.52,0.07c-0.154,0.026-0.264,0.047-0.33,0.06v8.78h-1.86V-474.1z"/>
		</g>
	</g>
	<g id="node5">
		<title>2</title>
		<ellipse fill="none" stroke="#000000" stroke-width="2" cx="18" cy="-346" rx="18" ry="18"/>
	</g>
	<g id="edge4">
		<title>1-&gt;2</title>
		<path fill="none" stroke="#000000" stroke-width="2" d="M18-409.641c0,10.344,0,23.7,0,35.42"/>
		<polygon stroke="#000000" points="18,-364.05 22.5,-374.05 18.5,-369.05 18.5,-374.05 18,-374.05 17.5,-374.05 17.5,-369.05 
			13.5,-374.05 18,-364.05 		"/>
		<g enable-background="new    ">
			<path fill="#0000FF" d="M22.36-392.1c0.426-0.107,0.993-0.221,1.7-0.341c0.707-0.119,1.52-0.18,2.44-0.18
				c0.826,0,1.513,0.117,2.06,0.351s0.983,0.56,1.31,0.979s0.557,0.924,0.69,1.51c0.133,0.587,0.2,1.233,0.2,1.94v5.84H28.9v-5.44
				c0-0.64-0.043-1.187-0.13-1.64c-0.086-0.453-0.23-0.82-0.43-1.1c-0.2-0.28-0.467-0.483-0.8-0.61
				c-0.333-0.127-0.747-0.19-1.24-0.19c-0.2,0-0.407,0.008-0.62,0.021c-0.213,0.014-0.417,0.03-0.61,0.05
				c-0.193,0.021-0.367,0.044-0.52,0.07s-0.264,0.047-0.33,0.06v8.78h-1.86V-392.1z"/>
		</g>
	</g>
	<g id="node7">
		<title>3</title>
		<ellipse fill="none" stroke="#000000" stroke-width="2" cx="18" cy="-264" rx="18" ry="18"/>
	</g>
	<g id="edge6">
		<title>2-&gt;3</title>
		<path fill="none" stroke="#000000" stroke-width="2" d="M18-327.641c0,10.344,0,23.7,0,35.42"/>
		<polygon stroke="#000000" points="18,-282.05 22.5,-292.05 18.5,-287.05 18.5,-292.05 18,-292.05 17.5,-292.05 17.5,-287.05 
			13.5,-292.05 18,-282.05 		"/>
		<g enable-background="new    ">
			<path fill="#0000FF" d="M25.74-310.66c0.747,0,1.376,0.097,1.89,0.29c0.513,0.193,0.926,0.467,1.24,0.82s0.537,0.773,0.67,1.26
				c0.133,0.487,0.2,1.023,0.2,1.61v6.5c-0.16,0.026-0.383,0.063-0.67,0.109c-0.287,0.047-0.61,0.09-0.97,0.13
				c-0.36,0.04-0.75,0.077-1.17,0.11s-0.837,0.05-1.25,0.05c-0.587,0-1.127-0.06-1.62-0.18s-0.92-0.31-1.28-0.57
				c-0.36-0.26-0.64-0.603-0.84-1.029c-0.2-0.427-0.3-0.94-0.3-1.54c0-0.573,0.117-1.067,0.35-1.48s0.55-0.746,0.95-1
				c0.4-0.253,0.866-0.439,1.4-0.56c0.533-0.12,1.093-0.181,1.68-0.181c0.187,0,0.38,0.011,0.58,0.03
				c0.2,0.021,0.39,0.047,0.57,0.08c0.18,0.033,0.336,0.063,0.47,0.09c0.133,0.027,0.227,0.047,0.28,0.061v-0.521
				c0-0.307-0.034-0.61-0.1-0.91c-0.067-0.3-0.187-0.566-0.36-0.8c-0.174-0.233-0.41-0.42-0.71-0.56c-0.3-0.141-0.69-0.21-1.17-0.21
				c-0.613,0-1.15,0.043-1.61,0.13s-0.803,0.177-1.03,0.27l-0.22-1.54c0.24-0.106,0.64-0.21,1.2-0.31
				C24.48-310.61,25.087-310.66,25.74-310.66z M25.9-301.34c0.44,0,0.83-0.01,1.17-0.03c0.34-0.02,0.623-0.057,0.85-0.11v-3.1
				c-0.134-0.066-0.35-0.123-0.65-0.17c-0.3-0.047-0.664-0.07-1.09-0.07c-0.28,0-0.577,0.021-0.89,0.061
				c-0.313,0.04-0.6,0.123-0.86,0.25c-0.26,0.127-0.477,0.3-0.65,0.52c-0.173,0.221-0.26,0.51-0.26,0.87
				c0,0.667,0.213,1.13,0.64,1.39C24.587-301.47,25.167-301.34,25.9-301.34z"/>
		</g>
	</g>
	<g id="node9">
		<title>4</title>
		<ellipse fill="none" stroke="#000000" stroke-width="2" cx="18" cy="-182" rx="18" ry="18"/>
	</g>
	<g id="edge8">
		<title>3-&gt;4</title>
		<path fill="none" stroke="#000000" stroke-width="2" d="M18-245.641c0,10.344,0,23.699,0,35.42"/>
		<polygon stroke="#000000" points="18,-200.05 22.5,-210.05 18.5,-205.05 18.5,-210.05 18,-210.05 17.5,-210.05 17.5,-205.05 
			13.5,-210.05 18,-200.05 		"/>
		<g enable-background="new    ">
			<path fill="#0000FF" d="M22.36-228.1c0.426-0.107,0.993-0.221,1.7-0.341c0.707-0.119,1.52-0.18,2.44-0.18
				c0.826,0,1.513,0.117,2.06,0.351s0.983,0.56,1.31,0.979s0.557,0.924,0.69,1.51c0.133,0.587,0.2,1.233,0.2,1.94v5.84H28.9v-5.44
				c0-0.64-0.043-1.187-0.13-1.64c-0.086-0.453-0.23-0.82-0.43-1.1c-0.2-0.28-0.467-0.483-0.8-0.61
				c-0.333-0.127-0.747-0.19-1.24-0.19c-0.2,0-0.407,0.008-0.62,0.021c-0.213,0.014-0.417,0.03-0.61,0.05
				c-0.193,0.021-0.367,0.044-0.52,0.07s-0.264,0.047-0.33,0.06v8.78h-1.86V-228.1z"/>
		</g>
	</g>
	<g id="node11">
		<title>5</title>
		<ellipse fill="none" stroke="#000000" stroke-width="2" cx="18" cy="-100" rx="18" ry="18"/>
	</g>
	<g id="edge10">
		<title>4-&gt;5</title>
		<path fill="none" stroke="#000000" stroke-width="2" d="M18-163.641c0,10.344,0,23.699,0,35.42"/>
		<polygon stroke="#000000" points="18,-118.05 22.5,-128.05 18.5,-123.05 18.5,-128.05 18,-128.05 17.5,-128.05 17.5,-123.05 
			13.5,-128.05 18,-118.05 		"/>
		<g enable-background="new    ">
			<path fill="#0000FF" d="M25.74-146.66c0.747,0,1.376,0.097,1.89,0.29c0.513,0.193,0.926,0.467,1.24,0.82s0.537,0.773,0.67,1.26
				c0.133,0.487,0.2,1.023,0.2,1.61v6.5c-0.16,0.026-0.383,0.063-0.67,0.109c-0.287,0.047-0.61,0.09-0.97,0.13
				c-0.36,0.04-0.75,0.077-1.17,0.11s-0.837,0.05-1.25,0.05c-0.587,0-1.127-0.06-1.62-0.18s-0.92-0.31-1.28-0.57
				c-0.36-0.26-0.64-0.603-0.84-1.029c-0.2-0.427-0.3-0.94-0.3-1.54c0-0.573,0.117-1.067,0.35-1.48s0.55-0.746,0.95-1
				c0.4-0.253,0.866-0.439,1.4-0.56c0.533-0.12,1.093-0.181,1.68-0.181c0.187,0,0.38,0.011,0.58,0.03
				c0.2,0.021,0.39,0.047,0.57,0.08c0.18,0.033,0.336,0.063,0.47,0.09c0.133,0.027,0.227,0.047,0.28,0.061v-0.521
				c0-0.307-0.034-0.61-0.1-0.91c-0.067-0.3-0.187-0.566-0.36-0.8c-0.174-0.233-0.41-0.42-0.71-0.56c-0.3-0.141-0.69-0.21-1.17-0.21
				c-0.613,0-1.15,0.043-1.61,0.13s-0.803,0.177-1.03,0.27l-0.22-1.54c0.24-0.106,0.64-0.21,1.2-0.31
				C24.48-146.61,25.087-146.66,25.74-146.66z M25.9-137.34c0.44,0,0.83-0.01,1.17-0.03c0.34-0.02,0.623-0.057,0.85-0.11v-3.1
				c-0.134-0.066-0.35-0.123-0.65-0.17c-0.3-0.047-0.664-0.07-1.09-0.07c-0.28,0-0.577,0.021-0.89,0.061
				c-0.313,0.04-0.6,0.123-0.86,0.25c-0.26,0.127-0.477,0.3-0.65,0.52c-0.173,0.221-0.26,0.51-0.26,0.87
				c0,0.667,0.213,1.13,0.64,1.39C24.587-137.47,25.167-137.34,25.9-137.34z"/>
		</g>
	</g>
	<g id="node15">
		<title>7</title>
		<ellipse fill="none" stroke="#000000" stroke-width="2" cx="72" cy="-346" rx="18" ry="18"/>
	</g>
	<g id="edge14">
		<title>6-&gt;7</title>
		<path fill="none" stroke="#000000" stroke-width="2" d="M72-409.641c0,10.344,0,23.7,0,35.42"/>
		<polygon stroke="#000000" points="72,-364.05 76.5,-374.05 72.5,-369.05 72.5,-374.05 72,-374.05 71.5,-374.05 71.5,-369.05 
			67.5,-374.05 72,-364.05 		"/>
		<g enable-background="new    ">
			<path fill="#0000FF" d="M79.74-392.66c0.746,0,1.377,0.097,1.891,0.29c0.513,0.193,0.926,0.467,1.239,0.82s0.536,0.773,0.67,1.26
				c0.134,0.487,0.2,1.023,0.2,1.61v6.5c-0.16,0.026-0.383,0.063-0.67,0.109c-0.287,0.047-0.609,0.09-0.971,0.13
				c-0.359,0.04-0.75,0.077-1.17,0.11s-0.836,0.05-1.25,0.05c-0.586,0-1.127-0.06-1.619-0.18c-0.494-0.12-0.92-0.31-1.28-0.57
				c-0.36-0.26-0.64-0.603-0.84-1.029s-0.3-0.94-0.3-1.54c0-0.573,0.116-1.067,0.35-1.48s0.55-0.746,0.95-1
				c0.399-0.253,0.866-0.439,1.399-0.56s1.094-0.181,1.681-0.181c0.187,0,0.38,0.011,0.579,0.03c0.201,0.021,0.391,0.047,0.57,0.08
				s0.337,0.063,0.471,0.09c0.133,0.027,0.227,0.047,0.279,0.061v-0.521c0-0.307-0.033-0.61-0.1-0.91s-0.188-0.566-0.359-0.8
				c-0.174-0.233-0.41-0.42-0.711-0.56c-0.3-0.141-0.689-0.21-1.17-0.21c-0.613,0-1.15,0.043-1.609,0.13
				c-0.461,0.087-0.804,0.177-1.03,0.27l-0.22-1.54c0.24-0.106,0.64-0.21,1.199-0.31C78.48-392.61,79.087-392.66,79.74-392.66z
				 M79.9-383.34c0.439,0,0.83-0.01,1.17-0.03c0.34-0.02,0.623-0.057,0.85-0.11v-3.1c-0.133-0.066-0.35-0.123-0.649-0.17
				s-0.663-0.07-1.091-0.07c-0.279,0-0.576,0.021-0.89,0.061s-0.6,0.123-0.86,0.25c-0.26,0.127-0.477,0.3-0.649,0.52
				c-0.173,0.221-0.26,0.51-0.26,0.87c0,0.667,0.213,1.13,0.64,1.39C78.587-383.47,79.167-383.34,79.9-383.34z"/>
		</g>
	</g>
	<g id="node17">
		<title>8</title>
		<ellipse fill="none" stroke="#000000" stroke-width="2" cx="72" cy="-264" rx="18" ry="18"/>
	</g>
	<g id="edge16">
		<title>7-&gt;8</title>
		<path fill="none" stroke="#000000" stroke-width="2" d="M72-327.641c0,10.344,0,23.7,0,35.42"/>
		<polygon stroke="#000000" points="72,-282.05 76.5,-292.05 72.5,-287.05 72.5,-292.05 72,-292.05 71.5,-292.05 71.5,-287.05 
			67.5,-292.05 72,-282.05 		"/>
		<g enable-background="new    ">
			<path fill="#0000FF" d="M76.36-310.1c0.427-0.107,0.993-0.221,1.7-0.341c0.706-0.119,1.52-0.18,2.439-0.18
				c0.826,0,1.514,0.117,2.061,0.351s0.982,0.56,1.31,0.979s0.557,0.924,0.69,1.51c0.133,0.587,0.199,1.233,0.199,1.94v5.84H82.9
				v-5.44c0-0.64-0.043-1.187-0.131-1.64c-0.086-0.453-0.229-0.82-0.43-1.1c-0.199-0.28-0.467-0.483-0.8-0.61
				s-0.747-0.19-1.239-0.19c-0.201,0-0.407,0.008-0.621,0.021c-0.213,0.014-0.416,0.03-0.609,0.05
				c-0.193,0.021-0.367,0.044-0.52,0.07c-0.154,0.026-0.264,0.047-0.33,0.06v8.78h-1.86V-310.1z"/>
		</g>
	</g>
	<g id="node19">
		<title>9</title>
		<ellipse fill="none" stroke="#000000" stroke-width="2" cx="72" cy="-182" rx="18" ry="18"/>
	</g>
	<g id="edge18">
		<title>8-&gt;9</title>
		<path fill="none" stroke="#000000" stroke-width="2" d="M72-245.641c0,10.344,0,23.699,0,35.42"/>
		<polygon stroke="#000000" points="72,-200.05 76.5,-210.05 72.5,-205.05 72.5,-210.05 72,-210.05 71.5,-210.05 71.5,-205.05 
			67.5,-210.05 72,-200.05 		"/>
		<g enable-background="new    ">
			<path fill="#0000FF" d="M79.74-228.66c0.746,0,1.377,0.097,1.891,0.29c0.513,0.193,0.926,0.467,1.239,0.82s0.536,0.773,0.67,1.26
				c0.134,0.487,0.2,1.023,0.2,1.61v6.5c-0.16,0.026-0.383,0.063-0.67,0.109c-0.287,0.047-0.609,0.09-0.971,0.13
				c-0.359,0.04-0.75,0.077-1.17,0.11s-0.836,0.05-1.25,0.05c-0.586,0-1.127-0.06-1.619-0.18c-0.494-0.12-0.92-0.31-1.28-0.57
				c-0.36-0.26-0.64-0.603-0.84-1.029s-0.3-0.94-0.3-1.54c0-0.573,0.116-1.067,0.35-1.48s0.55-0.746,0.95-1
				c0.399-0.253,0.866-0.439,1.399-0.56s1.094-0.181,1.681-0.181c0.187,0,0.38,0.011,0.579,0.03c0.201,0.021,0.391,0.047,0.57,0.08
				s0.337,0.063,0.471,0.09c0.133,0.027,0.227,0.047,0.279,0.061v-0.521c0-0.307-0.033-0.61-0.1-0.91s-0.188-0.566-0.359-0.8
				c-0.174-0.233-0.41-0.42-0.711-0.56c-0.3-0.141-0.689-0.21-1.17-0.21c-0.613,0-1.15,0.043-1.609,0.13
				c-0.461,0.087-0.804,0.177-1.03,0.27l-0.22-1.54c0.24-0.106,0.64-0.21,1.199-0.31C78.48-228.61,79.087-228.66,79.74-228.66z
				 M79.9-219.34c0.439,0,0.83-0.01,1.17-0.03c0.34-0.02,0.623-0.057,0.85-0.11v-3.1c-0.133-0.066-0.35-0.123-0.649-0.17
				s-0.663-0.07-1.091-0.07c-0.279,0-0.576,0.021-0.89,0.061s-0.6,0.123-0.86,0.25c-0.26,0.127-0.477,0.3-0.649,0.52
				c-0.173,0.221-0.26,0.51-0.26,0.87c0,0.667,0.213,1.13,0.64,1.39C78.587-219.47,79.167-219.34,79.9-219.34z"/>
		</g>
	</g>
	<g id="node21">
		<title>10</title>
		<ellipse fill="none" stroke="#000000" stroke-width="2" cx="72" cy="-100" rx="18" ry="18"/>
	</g>
	<g id="edge20">
		<title>9-&gt;10</title>
		<path fill="none" stroke="#000000" stroke-width="2" d="M72-163.641c0,10.344,0,23.699,0,35.42"/>
		<polygon stroke="#000000" points="72,-118.05 76.5,-128.05 72.5,-123.05 72.5,-128.05 72,-128.05 71.5,-128.05 71.5,-123.05 
			67.5,-128.05 72,-118.05 		"/>
		<g enable-background="new    ">
			<path fill="#0000FF" d="M76.36-146.1c0.427-0.107,0.993-0.221,1.7-0.341c0.706-0.119,1.52-0.18,2.439-0.18
				c0.826,0,1.514,0.117,2.061,0.351s0.982,0.56,1.31,0.979s0.557,0.924,0.69,1.51c0.133,0.587,0.199,1.233,0.199,1.94v5.84H82.9
				v-5.44c0-0.64-0.043-1.187-0.131-1.64c-0.086-0.453-0.229-0.82-0.43-1.1c-0.199-0.28-0.467-0.483-0.8-0.61
				s-0.747-0.19-1.239-0.19c-0.201,0-0.407,0.008-0.621,0.021c-0.213,0.014-0.416,0.03-0.609,0.05
				c-0.193,0.021-0.367,0.044-0.52,0.07c-0.154,0.026-0.264,0.047-0.33,0.06v8.78h-1.86V-146.1z"/>
		</g>
	</g>
	<g id="node23">
		<title>11</title>
		<ellipse fill="none" stroke="#000000" stroke-width="2" cx="72" cy="-18" rx="18" ry="18"/>
	</g>
	<g id="edge22">
		<title>10-&gt;11</title>
		<path fill="none" stroke="#000000" stroke-width="2" d="M72-81.642c0,10.345,0,23.7,0,35.421"/>
		<polygon stroke="#000000" points="72,-36.05 76.5,-46.05 72.5,-41.05 72.5,-46.05 72,-46.05 71.5,-46.05 71.5,-41.05 67.5,-46.05 
			72,-36.05 		"/>
		<g enable-background="new    ">
			<path fill="#0000FF" d="M79.74-64.66c0.746,0,1.377,0.097,1.891,0.29c0.513,0.193,0.926,0.467,1.239,0.82s0.536,0.773,0.67,1.26
				c0.134,0.487,0.2,1.023,0.2,1.61v6.5c-0.16,0.026-0.383,0.063-0.67,0.109c-0.287,0.047-0.609,0.09-0.971,0.13
				c-0.359,0.04-0.75,0.077-1.17,0.11s-0.836,0.05-1.25,0.05c-0.586,0-1.127-0.06-1.619-0.18c-0.494-0.12-0.92-0.31-1.28-0.57
				c-0.36-0.26-0.64-0.603-0.84-1.029s-0.3-0.94-0.3-1.54c0-0.573,0.116-1.067,0.35-1.48s0.55-0.746,0.95-1
				c0.399-0.253,0.866-0.439,1.399-0.56s1.094-0.181,1.681-0.181c0.187,0,0.38,0.011,0.579,0.03c0.201,0.021,0.391,0.047,0.57,0.08
				s0.337,0.063,0.471,0.09c0.133,0.027,0.227,0.047,0.279,0.061v-0.521c0-0.307-0.033-0.61-0.1-0.91s-0.188-0.566-0.359-0.8
				c-0.174-0.233-0.41-0.42-0.711-0.56c-0.3-0.141-0.689-0.21-1.17-0.21c-0.613,0-1.15,0.043-1.609,0.13
				c-0.461,0.087-0.804,0.177-1.03,0.27l-0.22-1.54c0.24-0.106,0.64-0.21,1.199-0.31C78.48-64.61,79.087-64.66,79.74-64.66z
				 M79.9-55.34c0.439,0,0.83-0.01,1.17-0.03c0.34-0.02,0.623-0.057,0.85-0.11v-3.1c-0.133-0.066-0.35-0.123-0.649-0.17
				s-0.663-0.07-1.091-0.07c-0.279,0-0.576,0.021-0.89,0.061s-0.6,0.123-0.86,0.25c-0.26,0.127-0.477,0.3-0.649,0.52
				c-0.173,0.221-0.26,0.51-0.26,0.87c0,0.667,0.213,1.13,0.64,1.39C78.587-55.47,79.167-55.34,79.9-55.34z"/>
		</g>
	</g>
	<g id="node27">
		<title>13</title>
		<ellipse fill="none" stroke="#000000" stroke-width="2" cx="126" cy="-346" rx="18" ry="18"/>
	</g>
	<g id="edge26">
		<title>12-&gt;13</title>
		<path fill="none" stroke="#000000" stroke-width="2" d="M126-409.641c0,10.344,0,23.7,0,35.42"/>
		<polygon stroke="#000000" points="126,-364.05 130.5,-374.05 126.5,-369.05 126.5,-374.05 126,-374.05 125.5,-374.05 
			125.5,-369.05 121.5,-374.05 126,-364.05 		"/>
		<g enable-background="new    ">
			<path fill="#0000FF" d="M133.74-392.66c0.746,0,1.377,0.097,1.891,0.29c0.513,0.193,0.926,0.467,1.239,0.82
				s0.536,0.773,0.67,1.26c0.134,0.487,0.2,1.023,0.2,1.61v6.5c-0.16,0.026-0.383,0.063-0.67,0.109
				c-0.287,0.047-0.609,0.09-0.971,0.13c-0.359,0.04-0.75,0.077-1.17,0.11s-0.836,0.05-1.25,0.05c-0.586,0-1.127-0.06-1.619-0.18
				c-0.494-0.12-0.92-0.31-1.28-0.57c-0.36-0.26-0.64-0.603-0.84-1.029s-0.3-0.94-0.3-1.54c0-0.573,0.116-1.067,0.35-1.48
				s0.55-0.746,0.95-1c0.399-0.253,0.866-0.439,1.399-0.56s1.094-0.181,1.681-0.181c0.187,0,0.38,0.011,0.579,0.03
				c0.201,0.021,0.391,0.047,0.57,0.08s0.337,0.063,0.471,0.09c0.133,0.027,0.227,0.047,0.279,0.061v-0.521
				c0-0.307-0.033-0.61-0.1-0.91s-0.188-0.566-0.359-0.8c-0.174-0.233-0.41-0.42-0.711-0.56c-0.3-0.141-0.689-0.21-1.17-0.21
				c-0.613,0-1.15,0.043-1.609,0.13c-0.461,0.087-0.804,0.177-1.03,0.27l-0.22-1.54c0.24-0.106,0.64-0.21,1.199-0.31
				C132.48-392.61,133.087-392.66,133.74-392.66z M133.9-383.34c0.439,0,0.83-0.01,1.17-0.03c0.34-0.02,0.623-0.057,0.85-0.11v-3.1
				c-0.133-0.066-0.35-0.123-0.649-0.17s-0.663-0.07-1.091-0.07c-0.279,0-0.576,0.021-0.89,0.061s-0.6,0.123-0.86,0.25
				c-0.26,0.127-0.477,0.3-0.649,0.52c-0.173,0.221-0.26,0.51-0.26,0.87c0,0.667,0.213,1.13,0.64,1.39
				C132.587-383.47,133.167-383.34,133.9-383.34z"/>
		</g>
	</g>
	<g id="node29">
		<title>14</title>
		<ellipse fill="none" stroke="#000000" stroke-width="2" cx="126" cy="-264" rx="18" ry="18"/>
	</g>
	<g id="edge28">
		<title>13-&gt;14</title>
		<path fill="none" stroke="#000000" stroke-width="2" d="M126-327.641c0,10.344,0,23.7,0,35.42"/>
		<polygon stroke="#000000" points="126,-282.05 130.5,-292.05 126.5,-287.05 126.5,-292.05 126,-292.05 125.5,-292.05 
			125.5,-287.05 121.5,-292.05 126,-282.05 		"/>
		<g enable-background="new    ">
			<path fill="#0000FF" d="M130.36-310.1c0.427-0.107,0.993-0.221,1.7-0.341c0.706-0.119,1.52-0.18,2.439-0.18
				c0.826,0,1.514,0.117,2.061,0.351s0.982,0.56,1.31,0.979s0.557,0.924,0.69,1.51c0.133,0.587,0.199,1.233,0.199,1.94v5.84H136.9
				v-5.44c0-0.64-0.043-1.187-0.131-1.64c-0.086-0.453-0.229-0.82-0.43-1.1c-0.199-0.28-0.467-0.483-0.8-0.61
				s-0.747-0.19-1.239-0.19c-0.201,0-0.407,0.008-0.621,0.021c-0.213,0.014-0.416,0.03-0.609,0.05
				c-0.193,0.021-0.367,0.044-0.52,0.07c-0.154,0.026-0.264,0.047-0.33,0.06v8.78h-1.86V-310.1z"/>
		</g>
	</g>
	<g id="node31">
		<title>15</title>
		<ellipse fill="none" stroke="#000000" stroke-width="2" cx="126" cy="-182" rx="18" ry="18"/>
	</g>
	<g id="edge30">
		<title>14-&gt;15</title>
		<path fill="none" stroke="#000000" stroke-width="2" d="M126-245.641c0,10.344,0,23.699,0,35.42"/>
		<polygon stroke="#000000" points="126,-200.05 130.5,-210.05 126.5,-205.05 126.5,-210.05 126,-210.05 125.5,-210.05 
			125.5,-205.05 121.5,-210.05 126,-200.05 		"/>
		<g enable-background="new    ">
			<path fill="#0000FF" d="M133.74-228.66c0.746,0,1.377,0.097,1.891,0.29c0.513,0.193,0.926,0.467,1.239,0.82
				s0.536,0.773,0.67,1.26c0.134,0.487,0.2,1.023,0.2,1.61v6.5c-0.16,0.026-0.383,0.063-0.67,0.109
				c-0.287,0.047-0.609,0.09-0.971,0.13c-0.359,0.04-0.75,0.077-1.17,0.11s-0.836,0.05-1.25,0.05c-0.586,0-1.127-0.06-1.619-0.18
				c-0.494-0.12-0.92-0.31-1.28-0.57c-0.36-0.26-0.64-0.603-0.84-1.029s-0.3-0.94-0.3-1.54c0-0.573,0.116-1.067,0.35-1.48
				s0.55-0.746,0.95-1c0.399-0.253,0.866-0.439,1.399-0.56s1.094-0.181,1.681-0.181c0.187,0,0.38,0.011,0.579,0.03
				c0.201,0.021,0.391,0.047,0.57,0.08s0.337,0.063,0.471,0.09c0.133,0.027,0.227,0.047,0.279,0.061v-0.521
				c0-0.307-0.033-0.61-0.1-0.91s-0.188-0.566-0.359-0.8c-0.174-0.233-0.41-0.42-0.711-0.56c-0.3-0.141-0.689-0.21-1.17-0.21
				c-0.613,0-1.15,0.043-1.609,0.13c-0.461,0.087-0.804,0.177-1.03,0.27l-0.22-1.54c0.24-0.106,0.64-0.21,1.199-0.31
				C132.48-228.61,133.087-228.66,133.74-228.66z M133.9-219.34c0.439,0,0.83-0.01,1.17-0.03c0.34-0.02,0.623-0.057,0.85-0.11v-3.1
				c-0.133-0.066-0.35-0.123-0.649-0.17s-0.663-0.07-1.091-0.07c-0.279,0-0.576,0.021-0.89,0.061s-0.6,0.123-0.86,0.25
				c-0.26,0.127-0.477,0.3-0.649,0.52c-0.173,0.221-0.26,0.51-0.26,0.87c0,0.667,0.213,1.13,0.64,1.39
				C132.587-219.47,133.167-219.34,133.9-219.34z"/>
		</g>
	</g>
</g>
</svg>
