<?xml version="1.0" encoding="utf-8"?>
<!-- Generator: Adobe Illustrator 16.0.0, SVG Export Plug-In . SVG Version: 6.00 Build 0)  -->
<!DOCTYPE svg PUBLIC "-//W3C//DTD SVG 1.1//EN" "http://www.w3.org/Graphics/SVG/1.1/DTD/svg11.dtd">
<svg version="1.1" id="图层_1" xmlns="http://www.w3.org/2000/svg" xmlns:xlink="http://www.w3.org/1999/xlink" x="0px" y="0px"
	 width="174px" height="186.165px" viewBox="0 0 174 186.165" enable-background="new 0 0 174 186.165" xml:space="preserve">
<g id="graph1" transform="scale(1 1) rotate(0) translate(4 148)">
	<title>G</title>
	<polygon fill="#FFFFFF" stroke="#FFFFFF" points="-4,38.165 -4,-148 171,-148 171,38.165 	"/>
	<g id="node1">
		<title>0</title>
		<ellipse fill="none" stroke="#000000" stroke-width="2" cx="18" cy="-72" rx="18" ry="18"/>
		<g enable-background="new    ">
			<path d="M22.639-73.377c0,0.977-0.098,1.867-0.293,2.671s-0.492,1.494-0.889,2.07s-0.89,1.022-1.479,1.338
				s-1.281,0.474-2.075,0.474c-0.684,0-1.305-0.129-1.865-0.386s-1.039-0.652-1.436-1.187s-0.703-1.214-0.918-2.041
				s-0.322-1.807-0.322-2.939c0-0.977,0.099-1.868,0.298-2.676s0.495-1.499,0.889-2.075s0.887-1.022,1.479-1.338
				s1.283-0.474,2.07-0.474c0.684,0,1.305,0.129,1.865,0.386s1.039,0.654,1.436,1.191s0.703,1.219,0.918,2.046
				S22.639-74.51,22.639-73.377z M15.08-73.436c0,0.202,0.001,0.403,0.005,0.605s0.015,0.397,0.034,0.586l5.4-3.994
				c-0.098-0.332-0.221-0.635-0.371-0.908s-0.329-0.51-0.537-0.708s-0.446-0.354-0.713-0.464S18.332-78.484,18-78.484
				c-0.443,0-0.845,0.107-1.206,0.322s-0.669,0.535-0.923,0.962s-0.449,0.954-0.586,1.582S15.08-74.263,15.08-73.436z M20.92-73.318
				c0-0.222-0.008-0.441-0.024-0.659s-0.034-0.432-0.054-0.64l-5.4,4.014c0.098,0.339,0.221,0.651,0.371,0.938
				s0.331,0.532,0.542,0.737s0.453,0.364,0.723,0.479s0.578,0.171,0.923,0.171c0.443,0,0.845-0.107,1.206-0.322
				s0.669-0.534,0.923-0.957s0.449-0.949,0.586-1.577S20.92-72.491,20.92-73.318z"/>
		</g>
	</g>
	<g id="node3">
		<title>1</title>
		<ellipse fill="none" stroke="#000000" stroke-width="2" cx="148" cy="-126" rx="18" ry="18"/>
		<g enable-background="new    ">
			<path d="M152.238-121h-8.018v-1.582h3.281v-9.316l-3.057,1.66l-0.625-1.445l4.063-2.139h1.504v11.24h2.852V-121z"/>
		</g>
	</g>
	<g id="edge2">
		<title>0-&gt;1</title>
		<path fill="none" stroke="#000000" stroke-width="2" d="M34.953-78.73c21.772-9.185,61.027-25.746,86.813-36.624"/>
		<polygon stroke="#000000" points="131.249,-119.355 120.286,-119.614 126.447,-117.872 121.841,-115.928 122.035,-115.468 
			122.229,-115.007 126.836,-116.951 123.784,-111.322 131.249,-119.355 		"/>
		<g enable-background="new    ">
			<path fill="#0000FF" d="M78.09-118.66c0.747,0,1.376,0.097,1.89,0.29c0.513,0.193,0.926,0.467,1.24,0.82s0.537,0.773,0.67,1.26
				c0.133,0.487,0.2,1.023,0.2,1.61v6.5c-0.16,0.026-0.383,0.063-0.67,0.109c-0.287,0.047-0.61,0.09-0.97,0.13
				c-0.36,0.04-0.75,0.077-1.17,0.11s-0.837,0.05-1.25,0.05c-0.587,0-1.127-0.06-1.62-0.18s-0.92-0.31-1.28-0.57
				c-0.36-0.26-0.64-0.603-0.84-1.029c-0.2-0.427-0.3-0.94-0.3-1.54c0-0.573,0.117-1.067,0.35-1.48s0.55-0.746,0.95-1
				c0.4-0.253,0.866-0.439,1.4-0.56c0.533-0.12,1.093-0.181,1.68-0.181c0.187,0,0.38,0.011,0.58,0.03
				c0.2,0.021,0.39,0.047,0.57,0.08c0.18,0.033,0.336,0.063,0.47,0.09c0.133,0.027,0.227,0.047,0.28,0.061v-0.521
				c0-0.307-0.034-0.61-0.1-0.91c-0.067-0.3-0.187-0.566-0.36-0.8c-0.174-0.233-0.41-0.42-0.71-0.56c-0.3-0.141-0.69-0.21-1.17-0.21
				c-0.613,0-1.15,0.043-1.61,0.13s-0.803,0.177-1.03,0.27l-0.22-1.54c0.24-0.106,0.64-0.21,1.2-0.31
				C76.831-118.61,77.437-118.66,78.09-118.66z M78.25-109.34c0.44,0,0.83-0.01,1.17-0.03c0.34-0.02,0.623-0.057,0.85-0.11v-3.1
				c-0.134-0.066-0.35-0.123-0.65-0.17c-0.3-0.047-0.664-0.07-1.09-0.07c-0.28,0-0.577,0.021-0.89,0.061
				c-0.313,0.04-0.6,0.123-0.86,0.25c-0.26,0.127-0.477,0.3-0.65,0.52c-0.173,0.221-0.26,0.51-0.26,0.87
				c0,0.667,0.213,1.13,0.64,1.39C76.937-109.47,77.517-109.34,78.25-109.34z"/>
			<path fill="#0000FF" d="M89.69-107.76c-0.841,0-1.577-0.134-2.21-0.4c-0.634-0.267-1.167-0.64-1.6-1.12
				c-0.434-0.479-0.758-1.05-0.971-1.71s-0.32-1.39-0.32-2.189c0-0.801,0.117-1.533,0.351-2.2s0.563-1.243,0.989-1.73
				c0.428-0.486,0.951-0.866,1.57-1.14c0.62-0.273,1.311-0.41,2.07-0.41c0.467,0,0.934,0.04,1.4,0.12s0.912,0.207,1.34,0.38
				l-0.42,1.58c-0.28-0.133-0.604-0.24-0.971-0.32s-0.756-0.119-1.17-0.119c-1.039,0-1.836,0.326-2.39,0.979s-0.83,1.606-0.83,2.86
				c0,0.56,0.063,1.073,0.19,1.54c0.126,0.467,0.326,0.866,0.6,1.199c0.273,0.334,0.623,0.591,1.05,0.771s0.946,0.27,1.56,0.27
				c0.494,0,0.94-0.046,1.341-0.14c0.399-0.093,0.713-0.193,0.94-0.3l0.26,1.56c-0.107,0.067-0.26,0.13-0.461,0.19
				c-0.199,0.06-0.426,0.113-0.68,0.16c-0.254,0.046-0.523,0.086-0.81,0.12C90.233-107.777,89.957-107.76,89.69-107.76z"/>
		</g>
	</g>
	<g id="node5">
		<title>2</title>
		<ellipse fill="none" stroke="#000000" stroke-width="2" cx="148" cy="-18" rx="18" ry="18"/>
		<g enable-background="new    ">
			<path d="M152.346-13h-8.408v-1.523l3.301-3.281c0.541-0.534,0.98-0.996,1.318-1.387s0.602-0.747,0.791-1.069
				s0.316-0.627,0.381-0.913s0.098-0.596,0.098-0.928c0-0.313-0.043-0.61-0.127-0.894s-0.215-0.532-0.391-0.747
				s-0.404-0.384-0.684-0.508s-0.615-0.186-1.006-0.186c-0.541,0-1.031,0.12-1.475,0.361s-0.85,0.554-1.221,0.938l-0.938-1.123
				c0.482-0.508,1.037-0.915,1.665-1.221s1.358-0.459,2.192-0.459c0.566,0,1.082,0.085,1.548,0.254s0.868,0.413,1.206,0.732
				s0.601,0.71,0.786,1.172s0.278,0.983,0.278,1.563c0,0.488-0.064,0.94-0.195,1.357s-0.327,0.832-0.591,1.245
				s-0.596,0.842-0.996,1.284s-0.874,0.928-1.421,1.455l-2.314,2.256h6.201V-13z"/>
		</g>
	</g>
	<g id="edge4">
		<title>0-&gt;2</title>
		<path fill="none" stroke="#FF0000" stroke-width="2" d="M34.953-65.27c21.772,9.185,61.027,25.745,86.813,36.623"/>
		<polygon fill="#FF0000" stroke="#FF0000" points="131.249,-24.645 123.784,-32.678 126.836,-27.049 122.229,-28.993 
			122.035,-28.532 121.841,-28.071 126.447,-26.128 120.286,-24.387 131.249,-24.645 		"/>
		<g enable-background="new    ">
			<path fill="#0000FF" d="M84.471-53.76c-0.841,0-1.578-0.134-2.21-0.4c-0.634-0.267-1.167-0.64-1.6-1.12
				c-0.434-0.479-0.757-1.05-0.97-1.71s-0.32-1.39-0.32-2.189c0-0.801,0.117-1.533,0.35-2.2c0.233-0.667,0.563-1.243,0.99-1.73
				c0.427-0.486,0.95-0.866,1.57-1.14c0.62-0.273,1.31-0.41,2.069-0.41c0.467,0,0.934,0.04,1.4,0.12s0.913,0.207,1.34,0.38
				l-0.42,1.58c-0.279-0.133-0.604-0.24-0.97-0.32c-0.367-0.08-0.757-0.119-1.17-0.119c-1.04,0-1.837,0.326-2.39,0.979
				c-0.554,0.653-0.83,1.606-0.83,2.86c0,0.56,0.063,1.073,0.19,1.54c0.126,0.467,0.327,0.866,0.6,1.199
				c0.273,0.334,0.623,0.591,1.05,0.771c0.426,0.18,0.947,0.27,1.56,0.27c0.493,0,0.94-0.046,1.341-0.14
				c0.399-0.093,0.713-0.193,0.939-0.3l0.26,1.56c-0.107,0.067-0.26,0.13-0.46,0.19c-0.2,0.06-0.427,0.113-0.681,0.16
				c-0.253,0.046-0.523,0.086-0.809,0.12C85.014-53.777,84.736-53.76,84.471-53.76z"/>
		</g>
	</g>
</g>
<g>
	<path fill="#4F4F4F" d="M26.96,142.409c0.747,0,1.377,0.097,1.89,0.29c0.514,0.193,0.927,0.467,1.24,0.82s0.537,0.773,0.67,1.26
		c0.134,0.486,0.2,1.023,0.2,1.609v6.5c-0.16,0.027-0.384,0.064-0.67,0.111c-0.287,0.047-0.61,0.09-0.97,0.129
		c-0.36,0.041-0.75,0.077-1.17,0.11s-0.837,0.05-1.25,0.05c-0.587,0-1.127-0.06-1.62-0.18s-0.92-0.311-1.28-0.57
		s-0.64-0.604-0.84-1.029c-0.2-0.427-0.3-0.94-0.3-1.541c0-0.572,0.117-1.066,0.35-1.479s0.55-0.747,0.95-1
		c0.4-0.253,0.866-0.44,1.4-0.56c0.533-0.12,1.093-0.18,1.68-0.18c0.187,0,0.38,0.01,0.58,0.029c0.199,0.02,0.39,0.047,0.569,0.08
		c0.181,0.033,0.337,0.063,0.471,0.09c0.133,0.027,0.227,0.047,0.279,0.061v-0.521c0-0.307-0.033-0.61-0.1-0.91
		c-0.067-0.3-0.187-0.566-0.36-0.8c-0.173-0.232-0.41-0.42-0.71-0.561c-0.3-0.14-0.69-0.209-1.17-0.209
		c-0.613,0-1.15,0.043-1.61,0.129c-0.46,0.088-0.803,0.178-1.03,0.271l-0.22-1.54c0.24-0.106,0.64-0.21,1.2-0.31
		C25.7,142.459,26.307,142.409,26.96,142.409z M27.12,151.729c0.44,0,0.83-0.011,1.17-0.03s0.623-0.057,0.85-0.109v-3.101
		c-0.133-0.066-0.35-0.123-0.649-0.17c-0.3-0.046-0.664-0.069-1.09-0.069c-0.28,0-0.577,0.02-0.89,0.06
		c-0.313,0.04-0.6,0.123-0.86,0.25c-0.26,0.126-0.477,0.3-0.65,0.52s-0.26,0.511-0.26,0.87c0,0.667,0.213,1.13,0.64,1.391
		C25.807,151.6,26.387,151.729,27.12,151.729z"/>
	<path fill="#4F4F4F" d="M38.56,153.31c-0.84,0-1.577-0.134-2.21-0.4c-0.634-0.267-1.167-0.64-1.601-1.12
		c-0.433-0.479-0.757-1.05-0.97-1.71c-0.213-0.659-0.32-1.39-0.32-2.19c0-0.799,0.117-1.532,0.351-2.199
		c0.233-0.666,0.563-1.243,0.99-1.73c0.426-0.486,0.949-0.866,1.569-1.14c0.62-0.272,1.311-0.41,2.07-0.41
		c0.467,0,0.934,0.04,1.4,0.12c0.466,0.08,0.913,0.207,1.34,0.38l-0.42,1.58c-0.28-0.133-0.604-0.239-0.971-0.319
		c-0.366-0.08-0.757-0.121-1.17-0.121c-1.04,0-1.837,0.327-2.39,0.98c-0.554,0.653-0.83,1.607-0.83,2.859
		c0,0.561,0.063,1.074,0.19,1.541c0.126,0.467,0.326,0.867,0.6,1.199c0.273,0.334,0.623,0.59,1.05,0.771
		c0.427,0.18,0.946,0.271,1.561,0.271c0.493,0,0.939-0.047,1.34-0.141c0.399-0.094,0.713-0.193,0.939-0.3l0.261,1.56
		c-0.107,0.067-0.261,0.131-0.46,0.19c-0.2,0.06-0.428,0.112-0.681,0.159s-0.523,0.088-0.81,0.121
		C39.103,153.293,38.826,153.31,38.56,153.31z"/>
	<path fill="#FF8B00" d="M28.12,177.31c-0.84,0-1.577-0.134-2.21-0.4c-0.634-0.267-1.167-0.64-1.6-1.12
		c-0.434-0.479-0.757-1.05-0.97-1.71c-0.213-0.659-0.32-1.39-0.32-2.19c0-0.799,0.117-1.532,0.35-2.199
		c0.233-0.666,0.563-1.243,0.99-1.73c0.427-0.486,0.95-0.866,1.57-1.14c0.62-0.272,1.31-0.41,2.07-0.41c0.467,0,0.934,0.04,1.4,0.12
		c0.466,0.08,0.913,0.207,1.34,0.38l-0.42,1.58c-0.28-0.133-0.604-0.239-0.971-0.319c-0.366-0.08-0.757-0.121-1.17-0.121
		c-1.04,0-1.836,0.327-2.39,0.98c-0.554,0.653-0.83,1.607-0.83,2.859c0,0.561,0.063,1.074,0.19,1.541
		c0.126,0.467,0.327,0.867,0.6,1.199c0.273,0.334,0.623,0.591,1.05,0.771s0.946,0.27,1.561,0.27c0.493,0,0.939-0.046,1.34-0.14
		c0.399-0.093,0.713-0.193,0.939-0.3l0.261,1.56c-0.107,0.067-0.261,0.13-0.46,0.19c-0.2,0.06-0.428,0.113-0.681,0.16
		c-0.253,0.046-0.523,0.086-0.81,0.12C28.663,177.292,28.387,177.31,28.12,177.31z"/>
</g>
</svg>
